<svg version="1.1" xmlns="http://www.w3.org/2000/svg" x="0" y="0" width="100%" viewBox="0 0 1680 538" enable-background="new 0 0 1680 538" xml:space="preserve"><path fill="#192627" d="M1662.9 419.8c-0.4-31.6-0.8-63.2-1.3-94.8 -0.4-24.7-0.8-49.4-1.3-74.1 -0.2-9.5-0.1-19-0.7-28.4 -0.4-6.7-3.2-15 1.7-20.4 2.7-3 7.8-5.2 12.6-7.5l0-0.2c-8.7 4.8-19.7 9.7-15.9-4.5 1.4-5 7.3-3.7 8.1-9.1 0.9-5.6-4.5-1.5-5.7-5.7 -0.4-1.5 1.2-3.4 1-5.1 -0.1-1.2-0.8-4.2-0.7-4.7 0.9-7.8 2.7-7.1 10.5-11.6 0.8-0.5 1.7-0.9 2.5-1.4l0-0.6c-5.5 3.1-11 5.7-16.1 7 0.3-0.2-0.4-8.5-0.1-9.5 0.8-3.3 4.4-9.8 7.1-11.8 3.9-2.9 2.3-2.1 6.9-1.1 0.2 0 7.4 1.4 8.5 1.8v-21.6c0 0-18.2-6.1-16.2-5.3 0.4 0.6 0.9 1 1.5 1.4 -1.9-2.9-1.2-1.2-3.8-2.7 -1.8-1 6-0.9 5.2-0.9 -0.4 1.1-0.8 2.2-1 3.4 0.6-1 14.3 1.2 14.3 2 0.1-0.2 0-85.4 0-85.4 -1.2-0.6-8.8-1.9-8.1-1.1 -1.2-1.2-0.7-5.5-2.9-6.2 -0.6 0.4-1.2 0.9-1.8 1.3 -0.9-1.4 1.4-4.2-1.8-4 -1.1 0 0.2 4.2-1.7 3.5 -3.3-1.2 1.8-7-0.8-9.4 -2.5-2.4-7.1-0.3-7.9 2.7 -4.9-1.6-2.2-7-5.3-8.8 1.4 0.9-7.4 1.3-7.4 1.3 -11.1 1.7-10 3.8-19.5 0.3 -2.5 2.5 2.5 3 2.2 4.5 -0.6 0.8-1.5 1.3-2.5 1.3 0.3 1.2 1.1 2.1 2.4 2.6 -0.4-0.4-6.8-0.3-8.6-0.1 -4.2 0.5 3.7 5.8 4.8 3 -0.2 0.8-0.6 1.4-1.3 1.8 0.8 0.9 1.7 1.5 2.9 1.8 -0.8 0.3-1.6 0.6-2.5 0.7 2.3 2.8 4.9-2.3 7-1.1 2.2 1.3-0.4 2.8 0.1 4.6 0.1 0 0.1 0 0.2 0 -2.6 0.5-6.4 2.8-6.7 5.1 -0.2 0.7 3.2-1.7 3.5-2 0.2 0.3 4.4 3.2 4 4.2 -0.6 1.8-7.5-1.7-7.9-2 -2.9 0.5-2.6 9-3 9.7 -1.8 3.1 2.5-0.1-1.1 2.8 -1.1 0.9-4.7 0-4.4 2.1 -0.2-0.9-0.7-1.7-1.4-2.3 0 0.7 0.1 1.2 0.1 1.5 -0.1-0.4-0.3-0.8-0.7-0.7 0.3 0.8 0.7 1.7 1.1 2.4 -0.8-0.2-1.4 0-1.9 0.6 0 0.1 1.4 1.2 1.7 1 -1.4 1.5-2.9-1.6-4.1-0.3 -0.2 0.2 0.6 2.8 0.6 2.8 -0.3 0.3-2.4 0.9-2.6 0.9 0.3 0.3 0.5 0.6 0.7 0.9 -0.2 0.5-4.3 2.4-4.3 2.4 0-0.1 3.1 1.1 3.5 1.6 -0.4 0-2 1.1-2.2 1.5 -0.4-0.4-0.9-0.7-1.4-1 0.6 0.5 0.6 0.8-0.2 0.8 0.1 0.1 2.2 2.4 1.5 2.7 -1-0.3-1.9-0.6-2.8-1 0.1 0.4 0 1.8 0 2.1 0.2 0.5 3.4 4.8 3.7 5.4 -0.4 0-0.8 0-1.2-0.1 0.3 0.4 0.7 0.7 1.1 0.9 -0.2 0.8-3.6 0.6-3.6 0.5 0 0.3 0.1 0.5 0.2 0.7 -0.6 0.1-1.6 0.7-1.9 1.1 -0.1-0.5-0.2-1.1-0.5-1.5 -1.8 0.1-2 2.5-2.5 3.2 -0.7-0.1-1.4-0.4-2-0.8 -0.8 0.8 0.4 0.4-1 1.6 1 0.9 1.1 1.1-0.2 2.5 0.6 0.2 1.2 0.3 1.8 0.4 -0.2 0.5-0.5 0.7-1 0.8 0.4 0.8 3.3 1.2 3.3 1.3 -0.4 0.2-0.7 0.4-0.9 0.8 1 1.1 3.7-2 4.6-2 1.1 0.1-0.1 1.5 0.1 1.8 0.2 0.4 3.1-0.3 2.3 1.3 -0.1 0.1-3.4 2.4-3.8 2.7 -0.3-0.3-2.8-2.2-2.5-0.5 0 0.1 3.6 2.6 1.4 2.9 -0.6-0.5-1.3-0.9-2.1-1.1 5.4 5 0.2 8.9-6.1 2.7 -0.9-0.9 1.3 7.5 2.3 6.8 -0.9 0.8-4.9 1-5.1 1 -1 0.3-0.7 7.2-0.8 7.2 2.8 2 2.3-2.8 3.9-3 0.4-0.1 5.4 7.3 6.1 7.9 2.1 1.7 1-2.1 1.9-2 0.2 0.4-0.1 2.7-0.3 3.7 0.8-0.5 1.5-0.5 2.2 0 -1.6 1.8-1.3 2.6-2.1 3.5 -1.2 2.1 2.4 3.5 3 3.8 -1 0.4-1 0.7 0 1.1 1.2 0.6-2.4 0.4-1.6 0 -1.7 0.7 0.1 3.1 0.1 3.1 -0.1 0.7-5 1.6-5.9 2.6 0.6 0.1 1.2 0.1 1.8 0.2 -1 0.2-2 0.5-2.8 1.1 0.8-0.3 1.7-0.3 2.5 0 0.1 1.3-0.3 1.6-0.4 1.6 0.1 0.1 0.4 0.3 0.8 0.6 -1.6 1.8-4.2-0.6-5.3 0.6 -0.5 0.6 1 0.8-0.1 2 0.1 0-3.5-1.2-3.8-1.5 1.2 1.1-2-0.7-2.2 1.1 0.1-0.6 1.6 1 1.7 1.4 1.5 0 9.1 1.4 9.1 1.5 1.1 2 1.4 5 1.3 6.2 0.7 0.4 0.9 1 0.7 1.8 -2.7-2.6-5.3-5.4-7.7-8.3 0.8 1.2 13.8 17.6 13.4 18.6 -0.1-0.4-2.9-2.4-2.5-0.6 0 0 6.8 3.5 7.2 4 0.4-0.6 1-1.1 1.6-1.4 0.5 0.2 8.5 1.8 5.5 4.9 0.3-0.3-7.2-0.6-7.9-0.6 5.3 0.5 10.4 9 3.4 4.2 1.9 2.1 7.6 4.2 1.6 4.7 5.4 0.6-0.2 0.2-0.7 1.3 -2 4 10.3 1.4 9.3 0.5 1.6 0.9 1.4 6.2 1.4 6.6 -4.9-1.2-9.7-2.9-14-5.6 6.3 8 13.5 2.4 14.7 14.1 -3.6-2.9-7.7-10.8-13.1-9.9 8.9 2.7 12.6 11.6 13.4 19.6 -10.1-2.9-18.5-7.7-27.6-13 7.1 4.8 15.6 8.3 22.5 13 3 2.1 3.7 0.1 5.4 4.1 1.3 3 0.7 6.8-2.7 6.4 4.8 3 3.3 14.6 3.5 19.4 -2.2-0.2-4.1-0.6-6-1.1 2 0.8 3.7 1.6 4.7 2.6 1.4 1.4 4.7 8.7 0.4 7.8 6.5 8.2 1.9 35.2 2.2 45.6 0.6 17.5 1.4 35 2.1 52.5 0.7 16.4 2.5 32.8 3.1 49.2 0.3 7.7 0.5 15.4 0.7 23.1 0.1 2.4-0.8 10.4-0.5 16 -6.6-0.7-13.1-1.5-19.7-2.6 0 0 0 0 0 0 -1-0.2-1.9-0.3-2.9-0.5l0 0c-8.8-1.5-18.7-2.4-26.8-6.4 -5.6-2.8-10.2-7.2-15-11.1 -14.6-12-30.2-13.9-48.5-16.3 -8.8-1.2-15.9-1.3-22.9-7.1 -5.2-4.4-9.8-10.5-16.5-12.8 -7.8-2.7-19.4 0.1-28 1.9 -3.5-65.9-6.6-131.8-9.6-197.7 0.9 0 1.7 0.7 2.5 1.1 -6.2-2.4 5 12.1 5.8 9.8 0.4-0.9-1.7-2.9-1.3-3.9 0.6 0.2 1.2 0.3 1.7 0.5 0.2 0-5.3-3.9-5.2-3.8 -0.2-1.5 6.9 2.2 8.4 1.7 -0.1-0.2 0.4-1.1 0.7-1.6 -0.4-0.4-1.2-2-1.4-2.6 -0.6 0.2-1.1 0.5-1.5 1 -0.4-0.7-0.3-1.5 0.1-2.2 -0.6 0.3-1.1 0.6-1.6 0.9 0.3-0.8-0.5-3.7-0.5-3.9 -0.1 1.9-3.1-0.3-2.8-0.4 -1.9 0.1-1.2 2-4 0.8 0.3 0 1.4 0.8 2 0.1 -0.1-1.4 0.5-1.7-0.9-2.4 2.9-1.6 6.9-0.1 3.1-3.6 0.1-0.7 0.4-1.4 0.8-2 -3.8-1.7-0.3-4.3-3.9-5.3 0-0.5-0.1-0.9-0.4-1.2 0.1 0-0.3 0.5-0.8 0.9 0.7-0.8 1.1-1.8 3.2-2.3 0-1.1-4.2 0.1-4.6-0.1 -0.8-0.3 0.4-1.2 2-1.9 -1-0.1-1.8-0.4-2.1-1.1 1.2-1.4 7.9-2 9.6-1.8 -7.3-2.8 1.7-2 2.6-1.6 1.5 1.2-2.3 3.2-6 4.1 0.3 0.1 0.6 0.3 0.7 0.5 0 0.5 0 1 0 1.5 -0.8-0.6-1.5-0.4-1.9 0.4 -0.4-0.6 18.4 7.3 18.9 8.9 0.3-0.5 1.3-1.5 1.6-1.7 -0.3-0.3-0.6-0.5-1-0.8 0.7-1 1.8 1.2 1.9 1.2 1.4-0.5-1.8-2.6-4.1-3.4 -0.1-0.1-0.3-0.2-0.8-0.4 0.9 0 1.7-0.2 2.5-0.6 -0.1-2.7 2.3 1 3.8 1 1.3 0.1-1-2-1-2.3 0.2-0.8 3.7 3.8 3.5 3.3 -0.3-0.9 3.3-1.1 2-2.3 -0.5-0.2-0.8-0.1-1.1 0.3 -0.1-0.4 0-0.6 0.1-0.7 -0.8 0-1.5-0.2-2.2-0.5 0.4-0.5 0.8-1 1.3-1.3 -0.4-0.3-0.8-0.4-1.3-0.3 -0.1-0.1 1-1.9 0.6-1.9 0.1 0.1-2.4 0.2-2.2 0.1 0.8-0.3-0.1-3-1.7-2 -0.1 0-0.3 2.4-0.7 1.6 -0.6-1.2 0.1-1.3-0.3-2.5 0.4 1.3-9.9-2.5-12.5-3 0.8-0.2 2.2-0.6 2.1-0.6 -0.1-0.5-0.4-0.7-1-0.8 1.2-0.4 2.2-1.1 3-2.1 -0.4-0.8-2.5-0.4-3-0.4 0-0.2-1.1-1.7-1.3-1.6 0.3-1.1 3.6-2.4 3.7-1.6 0.1-1.4 0.7-2.6 1.8-3.5 0.3 0.9 0.8 1.8 1.3 2.6 0.2-0.2 0.7-3.7 1.4-4.1 4.6-1.6 0.6 1.3 1.3 1.6 1.7 0.8 0.5-1.1 2.1 0.4 -0.2-0.2 3.1-1.2 3.2-1.2 3.1 1.4 1.4 10.3-4.6 10.8 -0.5 0.1 4.1 2.9 4.4 2.9 2.5 0.5 4-2.8 5.1-2.6 4.5 1.3 1.1 1.7 4.1-0.7 1.8-1.3 3.5-3.5 3.4-5.1 -0.7 0.3-1.5 0.5-2.3 0.4 0.3-0.7 3.1-2.1 3.5-2.5 1.6-1.4 5.2-5.1 6.4-5.9 -1.4-1-10.4 0-11 1.1 0.2-0.8 2.2-1.3 2.6-1.9 0.9-1.3-5.8-2.4-7.3-2.4 2.1-0.6 5.7-2.3 5.4-4.1 1.2 0 2.3 0.2 3.5 0.5 1.1-0.6 0-9.1 0.2-9.1 -0.4 0-3 1.3-3.6 1.7 -1.4 0.1-1.6-5.7-1.1-6.7 -0.6 0.8-1.4 1.5-2.4 1.9 0.2-0.8 0.2-1.7 0-2.5 -0.6 0.1-1 0.4-1.4 0.8 -1-0.5-11.5-1-11.9-0.1 -0.3-0.6-0.4-1.8 0.2-2.3 -5.2-2.3 2.3-2.4 2.3-3.4 0-0.1-0.6-0.7-0.4-1.8 1.3 1.2 6.7-1.1 7.1-2.6 0.3-1.1-5.2-2.6-6.1-1.7 0.2-0.1 0.3-0.2 0.5-0.4 -1.4 0.5-5.4 0.5-4.6 0 0.5-0.3 1.2-1.8 0.8-2.3 -0.5-0.4-4.1 1.6-4.3 0.1 -0.4-3.1 4.3-3.5 5.5-3.1 0 0-2.4-4.9-1.9-4.8 4.3 0.4 3.9 5.5 6-1.4 0.3-1.1-2.3-12.8-2.2-12.9 -3.4 2.2-2.8-16.2 0.6-19.1 -2.8-1.7-6 1.8-8.9 0.5 -2.2-1-5.9-4.3-6.8-4.6 -1-0.3-3.9-5.3-4.7-6.7 -0.5 0-1.5 2.4-1.5 2.5 -1.4-3.7 1.4-4.7-1.2-6.9 -1.5-1.3-6.7 1-5.6 2 -0.9-0.4-4.7-5.2-3-6 -4.8-1.2-10.5 3.8-14.4 4 -0.8-0.7-1.4-1.5-2-2.4 0.2 0-5.2-0.3-5.2-0.2 -0.9 2.9 3.7 0.8 0.4 3.9 0.4 0.9 1.1 1.6 1.9 2.2 0 0-6.3-0.7-7.3-0.3 -2.8 1.2 2.9 3.4 4.1 2.7 -0.4 0.9-1.2 2.4 1 2 0.8-0.1-1.1 0.6-1.5 0.7 1.9 2.4 5.3-1.1 6.9 2.7 -0.9-1-6.1 3.1-6.6 3.9 -2.3 3.9-1.9 5.5-1.4 8.5 0.3 1.7-9.7 0.5-2.6 3.7 -2.1 2.3-3.1 1.5-0.4 3.9 -0.1 0.1-2.2 2.4-1 2.4 -0.6 0-2.5 0.4-2.9 1.6 -0.4 1.4 6.6 1.2 7.3 1.6 0.9 0.5-1.5 4.3-1.1 5.5 5.9-3 11.5-4.3 16-4.7 0.4 0-2.8 1.2-3 1.3 0.5 0.2 0.9 1.1 1.1 1.8 -0.5-0.4-2.6 1.2-2.2 1.4 -0.7-0.3 0.3-2.8 0.3-2.8 -1.3 0.8-3.8 3.1-4.9 3.2 -4.6-1.3-4.3 2.1-9 2.8 0.1 1.1 2.2 7.5 2.1 7.5 -1.3-0.3-3.2-4.7-5.1-3.5 -0.4 0.2-10.5 4.2-10.6 4.6 1 0.9 1.9 1.9 2.6 3 -0.1 0.2-4.9 2.1-5.3 2.3 1-0.5-3.5-3.7-3.9-3.5 -1.6 0.5 2.1 4.5 1.8 4.3 -3-2.2-5.4 6-3.7 6.5 1.5 0.4 2.6-0.4 3.8 0.1 0.9 0.3 3.1 4.6 4.3 3 -0.1-0.8-0.3-1.5-0.4-2.3 0.1-0.6 2.9 2.9 2.8 3.8 -0.5 0.5-1.2 0.8-1.9 0.9 -0.8 1.1 6.7 3.9 6.6 3.5 -0.1-2.7 0.8-2.2-1.5-3.4 -1.2-1.7 0.9-4.4-0.7-5.8 -0.1 0.1 7.1 1.8 7.1 2.3 0.1 1.3-1.2-0.3-1.6 0 -2.1 2.4 0.4 10.4 0.4 12.2 0-0.2-2.9 1.3-2.9 1.3 0.9 0.1 1.4 0.6 1.3 1.4 -0.4-0.4-0.8-0.5-1.3-0.3 0.6 1.6 1.7 7.1 2.1 8.2 0.2 0.7 4.2 0.6 4.2 0.8 0 0.3-4 0.6-3.5 1.1 0.3 0.3 1.4 2.1 1.5 2.1 1.6 0.7 2-3.2 4.2-1.1 0.5 0.5 3.7 4.4 2.3 5 -0.4-0.3-5.1-2-5.4-0.4 -0.1 0.5 2.1 2.1 2.1 3.1 -1 0.1-1.9-0.2-2.6-1 0.1 3.8 0.7 4.6-1.6 4.9 3.1-0.3-1.1 8.3-1 8 -1.4 4 9.9 0.3 11.4-2.1 2.1 0.7 6.4 1 5.9 0 0.6 0.9 2.6 4.4 2.5 4.3 -1.1 1.2-8.3 3.5-8.4 5.1 0.2 3.5 8.8 4.9 8 8.3 -0.1 0.7 3.7-0.2 3.7-0.2 1.4 0.4-2.2 2.4 0.3 2.3 0.5-0.6 0.8-1.4 1.1-2.1 0.1 0.9 0.4 1.8 0.8 2.6 0.1 0.1 2.8-2.3 3.8-2.4 -0.1 0.1-0.5-2.4-0.6-2.5 -0.3-0.9 2.8 4.1 2 4.5 1.2-0.1 1.8-0.6 1.9-1.5 0 2.9 0 5.7 0.1 8.6 -3.9-1.4-8-2.6-12.1-3.2 14 4.6 12.5 5.7 10.7 20.8 -2.1-2.3-4.2-4.6-6.3-6.9 5.3 6 6.5 8.1 6.1 16.2 -4-2.5-6.3-5.2-11.2-5.6 2.4 0.6 4.4 1.8 6.1 3.5 -1.9 1.4-3.9 2.7-5.8 4.1 10.3-6.2 10.3-0.1 9.5 9.1 -1.3 15.8-2.1 31.6-2.8 47.5 -0.8 16.7-1.1 33.3-0.9 50 0.2 21.3 0.4 42.5 0.7 63.8 -10.1-0.4-20.8-0.2-30.1-3.4 -5.2-1.8-9.1-3-14.7-2.4 -4.9 0.6-9.7 2.3-14.7 2.2 -5.5-0.1-10.2-3-15.5-3.8 -5.9-0.8-12.9 0.6-18.8 0.7 -9.8 0.2-19.6 1.7-29.4 1.2 -5.5-0.2-8.5-3.5-13.7-4.4 -4-0.6-11.5 0.1-15.3 1.3 -8.3 2.6-14.4 3.9-22.7-0.5 -6.2 2.4-11.6 3.2-18.2 3 -4.2-0.1-8.9-1.1-13.1-0.7 -4.1 0.4-8 1.6-12.3 1.9 -6.5 0.3-13.1 0.5-19.7 0.9 -0.1-1.5-0.1-3-0.2-4.5 -1-18-2.2-35.9-3.6-53.9 -1.4-17.5-2.9-35-3.4-52.6 -0.2-8.4-0.6-16.9-0.6-25.3 -0.1-9.3 0.1-5.9 4.4-12.4 -9.1 5.8-5.9-6.7-0.9-10.1 -4.2 2.1-5.9 0.3-4.5-4.7 1.1-3.9 1.8-2.3 5.4-5 -8.3 2.7-6-10.7-6.5-17.2 -0.8-10.1-0.3-13.9 9.9-18.1 -3.8 1.2-7 3.4-10.3 5.4 0.2-1.4 0.7-2.6 1.5-3.6 -6.3 5.3 2.3-9.3 2.9-10.8 -1.1 2.2-2.9 3.7-5.4 4.3 -0.3-4.3-0.6-9.6 0.3-12.5 0.7-2.4 3 2.5 3.4 1.5 0.3-1.4-0.8-2-0.8-3.5 0.3 0 1.6-0.6 1.5-0.6 -1.3-1.6-3-2.6-5-3.1 1.8-0.7 7.5 1.8 8.6 0.9 0.9-0.7-1-2.5 2.2-5 -8.2 3.7-0.9-1.2-4.9 1.7 -0.2-0.8-0.1-1.6 0.2-2.3 -0.7 0.4-1.3 0.9-2 1.3 -2.6-0.7 8.6-4.5 6.5-3.8 -3.9 1.2-9.9 0.6-12.4-2.8 4.1-0.2 2.5 0.2 4-2.2 1.2 0.6 5.3 4 5.3 4 0.6-0.3-0.3-1.1-0.5-1.3 0.2 0.1 0.7 0.6 2.1 1.5 -1-1.2-1.7-2.1-3.1-2.7 1.1 0.1 1.5-0.8 1.5 0.5 0-0.2 0.9-0.6 1.1-0.6 -0.8 0.3-0.6-2.1-0.2-2.7 0 0.3 0.2 0.8 0.2 0.7 0.5-2.4 2.5 1.2 2.7 1.7 -0.1-0.5-0.3-1-0.6-1.5 0.5 0.2 0.5 0.2 0.1-0.1 1.6-1.2 3.2 3.4 3.8 3.5 -2.1-0.6-2.4 0.9-2.9 1.2 0.4 0.2 0.8 0.2 1.2 0.1 -0.2 0.3-0.2 0.4 0.1 0.3 -0.8 1.1-0.9 0.5-1.8 0.9 0.4 0.3 0.4 0.3-0.1 0.3 1.2 1.5 1.3 0.3 2.1-0.6 -0.1 0.5 0.2 0.8 0.7 1.1 -0.1-0.3 0-0.4 0.1-0.1 0.1-1.3 0-0.6 0.1-1.6 0.1 0.3 0.3 0.3 0.4 0.1 -0.1-0.1 5.2 1.9 4.6 2.8 -0.1 0.2-3.8 1.7-2.7 2.8 0.6 0.5-0.5-0.3 0.8 0.9 0-0.1 0.7-0.7 1-0.9 -0.1 0-0.5-0.6-0.4-0.6 2.2-0.5 0.2 2.7-0.3 3.4 0.3 0.1 1.1 0.6 1.3 0.9 0.2-0.2 0.4-0.5 0.5-0.5 -0.2-0.3-0.3-0.7-0.4-1 0.7 0 0.9-0.2 1.3-1.5 0.2 0.2 0.5 0.5 0.6 0.5 -0.5 0 1.1 4.3 1.3 5 -2-1.4-1.7 0.9-2.7 1.2 0.1 0.1 0.7 0.5 0.9 0.5 -0.2 0.8-2.1 1.6-2 3.7 -1.8 0.1 0 0.8-0.2 2 -0.9 0-1.1-0.3-0.6-0.9 -0.6-0.3-1.3 1.3-1.7 1.4 0.4 0.4 1.1 0.4 0.8 0.8 -1 1.2-3.2 0.6-2.1 3.2 0.3 0.8 1.9-0.9 2.5-0.9 0.1 0.5 0.2 0.5 0.3 0 0.3 0.6 0.2 1.2-0.2 1.7 0.3-0.1 1.1 0.5 1.1 0.5 -0.1 0 0.6-3 0.5-3.7 0.6 0.2 1.1 0.3 1.7 0.3 -0.1 0.2-0.2 0.4-0.4 0.6 -0.5 0.1 2.6 0.6 3.3 1 -0.3-0.9-1.3-5.6-0.5-7.7 0.2 0.2 0.3 0.3 0.4 0.5 0-0.2 0.1-0.4 0.3-0.7 0.1-0.1 0.8 1 1 1.7 0.1-0.3 0.1-0.1 0.1 0.6 0.3 0 0.3-0.2 0.1-0.7 0.2 0.1 1.5 0.5 1.5 1 0 0 0.8 3.5 0.3 3.8 0.7 0.2 1.2 0.1 1.7-0.3 0 0.1-0.5-1.5-0.6-1.9 0.6 1.7 3.3 0 3.3 1.2 -0.1-0.3 0-0.4 0.1-0.1 0.1 0-0.5-0.5 0-0.5 0.1 0.1 0.2 0 0.3-0.3 0.4 0.2 0.8 3.2 2.1 2.2 -0.3-0.5-0.2-0.6 0.4-0.3 1.4-0.1-1.9-3.5-2-3.6 0.1-0.3-0.3-1.9-0.3-1.9 0.2 0-2.6-0.5-1.9-1.1 0.1-0.1 1.3-0.3 1.6-0.1 0 0 0.1 0 0.1 0 -0.4-0.2-0.4-0.4 0-0.5 -0.3-0.1-2.6-1.2-2.6-1.7 0.4 0.2 0.7 0.1 1-0.3 0.3 0-1.1-0.2-1.4-0.1 0.1-0.3 0.2-0.9 0.2-1.4 -2.3 1.1-9.9-4.3-7-5.9 0.2-0.1 1.9 2.2 1.1 1.4 0.4 1 1.6 1.9 2.4 3.6 0.4 0-0.6-2 0.4-0.2 0.1-0.6 0.3-0.9 0.8-0.8 0 0-1.5-1-1.5-0.5 -1.6-0.3 1.7-1.9 1.8-2.1 -0.4 0 3.9 3 4.6 3.3 -0.1 0 0.5-0.7 0.7-1.2 0.1 0.2 0.3 0.5 0.5 0.7 0.2-0.4 3-2.6 1.8-2.6 -1.1 0-4.2-1.7-6.4-2.1 -0.2 0 0.5-2 0.6-2.1 -0.2-0.1-0.4 0-0.5 0.2 1.2-0.9 0.7-1 1.6-0.9 0-0.2 0.2-1.8 0.1-1.9 0.1 0-1.8 1.1-1.7 0.7 -0.3-0.4-2.2-1.2-2.3-2.2 0.2 0.1-2.1 1.5-1.5 0.1 0 0.5 0.2-4.6 0.8-4.2 -0.3-0.2-2.7-0.3-3.4-0.5 0 0-0.9 2.5-1 2.6 0-0.2-2.9-2.3-3.4-2.8 0.2 0.2 1.2 0.3 1.4 0.4 -0.5-0.5 0.3-0.8 0.3-1.5 0.8 0.4 1.5 1 2.2 1.6 -0.1-0.7-0.1-1.4 0-2.1 0.5 0.1 1.1 0.2 1.6 0.2 -0.3-0.3-0.7-0.5-1-0.8 1-0.1 1.6 0.2 1.9 1.1 1.6-0.3-1.8-2.7-4.2-3.6 0.1 0 0.1 0 0.2 0 0-0.9 1.9-0.2 1.9-1 0-1.2 2.5-0.9 3.8 0.1 -0.5-0.4-1.2-1.1-0.9-1.4 0.6-0.6 3.3 3.1 3.7 3.6 -0.2-0.6 2.1-1.1 2.1-1.2 1.9-2.7-2.6-0.4-0.1-2 -0.9-0.1-1.8 0-2.7 0.2 -0.7-1-0.4-1.6 0.7-1.9 0.1-0.7-1.7-1.2-0.7-2.4 -0.4 0-4.3-1.3-4-2 -0.4 0.4-0.5 0.9 0 1.5 0 0.1-1.3-1.6-0.6-2.4 -0.9 1-12.7-2-13.6-2.4 0.3 0.2 0.5 0.6 0.3 1.2 -0.6 0.9-9.8 3.9-12.2 1.9 -0.5-1.2-0.1-1.9 1.3-2.1 0.1 2 13.2-2.7 13.2-2.8 -0.5-0.1-0.9-0.3-1.4-0.4 -0.2-0.4 3.8-1.2 3.2-2.2 -0.1-0.3-3.5-1.1-3.5-1.1 1.5-1.4 7.3-2 7.9-2.1 -0.7 0-6.2 0.4-7.8 0.4 0.6-0.4 1.5-1.5 1.6-1.8 0.4 0.5 0.8 0.9 1.4 1.2 0.1-1.5 0.7-2.8 1.9-3.9 0.3 0.9 0.8 1.8 1.3 2.7 0.7-0.6 0.2-3 1.5-4.4 5.1-1.9 0.7 1.6 1.4 1.7 2.8 1-0.9-1.5 2 0.3 0.1-0.3 0.2-0.6 0.2-1 0.4 0 5.8 0.3 5.4 2 0.6-1.3-1.9-2.5-2.7-3.1 -0.2-0.9 4 0.1 4.2-0.2 0 0 1.5-1.4 2-1.6 -0.7-0.1-1.4-0.2-2-0.3 0 0 2.8-2.1 2.3-3.1 -0.4 0.3-0.8 0.6-1.2 1 0.1-0.9-0.2-1.5-0.9-2 0.1 1.3-0.2 1.3-0.7 0 -1.5 0.8 0 0.4-1.9 0.5 -0.1 0.2-0.1 4-1.6 2.8 -1.4-1.2-0.1-4-1.1-5.8 -0.1-2.1-3.1-3.1-5.1-4.9 0.1 0.7 0 1.4-0.2 2.1 -0.6-0.3-1.5-2.4-1-3.6 0 0.7 1.7 1.2 2.3 1.2 -0.4-0.3-1.2-2.6-1-3 -0.5 0-0.9 0.2-1.2 0.7 -0.5-0.8-1-1.7-1.4-2.5 -0.1 0.6-2.8 2.3-2.9 2.5 -0.1-0.9-1.5-2.1-1.4-2.1 -0.4-0.2-3.9 4-4 4.4 -0.7-0.7-0.3-2.8-0.1-2.7 0.1-0.2-4.4-0.3-4.3-0.2 -1.6-2 0.9-0.3 1-1.7 0-0.7-3.1-0.2-3.5-0.5 -2.7-2.1 12-4.3 15.1-3.3 0 0 0-0.1 0-0.1 0.7 0.5 3.1 0.5 3.3-0.4 -0.5-0.5-1-0.9-1.7-1.2 0.2-0.5 0.6-0.7 1.2-0.7 -0.5-0.5-1.1-0.8-1.8-0.7 0.3-0.5 0.7-0.8 1.2-0.9 -0.6 0-1.2 0-1.8 0.1 -1.2-2.2 4.2-3.9 4.2-3.7 0 0.2-0.5-1.4-0.5-2 0.6 1.2 1.5 1.6 2.8 1.2 -0.3 0.6 4.6-5.8 4.7-4 0.5-1.5-6.2-2.1-6.2-1.8 0.4-0.2 0.6-0.5 0.8-0.8 -0.7 0.4-4.1 1.1-4.7 0.9 -0.7-0.3 1.2-2.3 0.4-3 0.3 0.3-4.4 0-4.7 0 0.3-0.4 0.4-0.8 0.4-1.2 -0.7-0.3-1.8 1.3-2.1 1.7 -0.1-0.5-0.2-1-0.5-1.5 0 0.1-3.2 1.6-3 1.7 -1.5 0.1-0.9-4.8-0.9-4.7 -1.1 0.1-1.7 0.7-1.8 1.8 0 0-1.4-1.8-1.8-2.8 3.3-1.3 10.5-3.9 10.7-3.9 0 0.6 0.2 1.1 0.5 1.6 1.6-0.1 3.9-4 4-4.2 -0.6-0.6-2-1.1-2.3-0.7 0 0 0.6-2.7 0-2.5 -0.2 0.1-2.5 1.6-2.9 1.3 0.2-0.1 1.1-2.2 1.4-2.6 -0.6 0.3-1.2 0.7-1.8 1.1 -2.3-0.7 0-8-0.5-8.5 -1.1-1-2.9 2.9-2.3-1.3 -0.7 0.2-1.4 0.3-2.2 0.4 0.6-1.3 1.5-2.4 2.6-3.3 -2.8-1.7 0.1-0.3 0-3 -0.5-0.8-1.1-0.9-1.8-0.2 -0.4-0.3 0.5-3.3 0.4-3.4 -1 0.2-1.8 0.6-2.6 1.3 0-0.4-0.9-1.6-1.6-1.9 0.6-0.4 1.1-0.9 1.4-1.6 -0.7-0.3-3.5-2.2-3.6-3 0-0.1-0.9 2.6-0.8 2.8 -0.8-0.2-1.2-0.7-1.2-1.6 -1.8 2.6-7 2.1-8.6 1 -0.1-0.4-0.5-3.1-1-4.1 0.2 0.6-1.3-0.2-1.7-0.5 -0.1 0.4-0.2 0.8-0.2 1.3 -0.3-1-0.8-1.9-1.6-2.6 0 0.7 0.1 1.2 0.1 1.6 -0.1-0.4-0.3-0.9-0.7-0.8 0.3 0.9 0.7 1.7 1.2 2.5 -0.8-0.2-1.5 0-2 0.6 0 0.1 1.4 1.2 1.7 1.1 -1.5 1.6-3-1.6-4.3-0.3 -0.2 0.2 0.6 2.9 0.6 3 -0.4 0.4-2.8 1-2.8 0.9 0.3 0.3 0.5 0.6 0.7 0.9 -0.2 0.5-4.5 2.5-4.5 2.5 0-0.1 3.2 1.1 3.7 1.7 -0.4 0-2 1.1-2.3 1.5 -0.4-0.4-0.9-0.7-1.4-1.1 0.7 0.6 0.6 0.8-0.2 0.8 1.2 1.1 0.4 0.5 2 2 0.8 0.8-2.4 0.5-3.3 0 0 0.6 0 1.7-0.1 1.9 0.2 0.5 3.5 4.9 3.9 5.6 -0.4 0-0.8-0.1-1.2-0.1 0.3 0.4 0.7 0.7 1.1 0.9 -0.2 0.8-3.8 0.6-3.8 0.6 0 0.5 0.3 0.9 0.7 1.2 -0.7 0.1-1.4-0.1-1.9-0.6 0 0.5-0.2 1.1-0.5 1.5 -0.1-0.7-0.3-1.3-0.6-1.9 -1.9 0.1-2.1 2.6-2.6 3.3 -0.8-0.1-1.5-0.4-2.1-0.9 -0.8 0.9 0.4 0.4-1 1.7 1 0.9 1.1 1.2-0.2 2.6 0.6 0.2 1.3 0.4 1.9 0.5 -0.2 0.5-0.5 0.8-1 0.9 0.4 0.8 3.4 1.2 3.4 1.4 -0.4 0.2-0.7 0.5-0.9 0.8 1.1 1.1 3.9-2 4.8-2.1 1.1 0.1-0.1 1.6 0.1 1.9 0.2 0.4 3.3-0.3 2.4 1.4 -0.1 0.1-3.5 2.5-3.9 2.8 -0.3-0.4-2.9-2.2-2.6-0.5 0 0.1 3.8 2.7 1.5 3.1 -0.7-0.5-1.4-0.9-2.2-1.1 3.2 3 2.1 4 3.8 7.8 -1.2 0.3-4.6-1.6-5 0.6 -0.2 1 4.9 3.6 5.7 3.2 1.5-0.6 9.8-1.5 10 2.3 -2.2 1.2-6.2-0.3-7.2-2.5 0 0.1 0.7 3.9 1.3 5.2 -1.6-0.8-6.5-2.3-6.4 0.5 0.7 0.3 1.4 0.6 2.1 0.9 -0.8 1.1-1.3 1.2-1.4 0.3 -0.3 0.3-1 0.8-1.3 0.9 0.1 0.5 0.1 1.8-0.2 2.3 0.5-0.1 0.9 0 1.4 0.2 0-0.2-0.7 3.6-0.6 3.5 0.8-0.6 1.6-0.6 2.3 0 -0.6 0.4-1.1 0.9-1.6 1.5 0.6 0.2 1.1 0.5 1.5 0.9 -0.5 0-1-0.1-1.5-0.3 -0.5 0.5 0.6 0.7-0.6 1.5 -1.2 2.2 2.5 3.6 3.1 3.9 -1.1 0.4-1.1 0.8 0 1.2 1.3 0.6-2.5 0.4-1.7 0 -1.8 0.7 0.1 3.2 0.1 3.2 -0.1 0.7-5.2 1.6-6.1 2.7 0.6 0.1 1.3 0.1 1.9 0.2 -1.1 0.2-2.1 0.6-2.9 1.2 0.9-0.3 1.7-0.3 2.6 0 0.1 1.4-0.3 1.6-0.5 1.6 0.1 0.1 0.4 0.3 0.8 0.7 -1.7 1.8-4.4-0.6-5.5 0.6 -0.5 0.6 1.1 0.8-0.1 2 0.1 0-3.6-1.3-4-1.6 1.2 1.1-2-0.7-2.3 1.2 0.1-0.7 1.7 1 1.8 1.5 1.6 0 9.4 1.5 9.4 1.6 1.1 2.1 1.5 5.3 1.3 6.4 0.7 0.4 1 1.1 0.7 1.9 -2.8-2.7-5.5-5.6-8-8.7 0.8 1.3 14.3 18.3 14 19.3 -0.1-0.4-3.1-2.5-2.6-0.7 0 0 8.5 4.4 7.5 4.2 5.4 0.9 5-1.3 11.4 5.5 -3.2 1.5-8.7-2.8-12.3-2.6 4.3 0.4 11.5 5.7 14.4 4.2 0.1 2.4-1.2 3.2-2.9 3.2 1.9 0.5 3.3 1.3 3.4 3 -3.1-1.2-6.3-1.6-9.7-1.1 8.2 1 9.3 1 10.4 8.8 -5.1-1.2-10.1-3-14.6-5.8 6.6 8.3 14 2.5 15.3 14.7 -3.7-3.1-8-11.2-13.7-10.3 9.2 2.8 13.1 12 13.9 20.4 -10.5-3.1-19.3-8-28.7-13.5 7.4 5 16.2 8.6 23.4 13.5 3.1 2.1 3.8 0.1 5.6 4.3 1.3 3.1 0.7 7.1-2.8 6.6 5 3.1 3.4 15.1 3.6 20.2 -1.8-0.2-3.5-0.5-5.2-0.9 1.5 0.6 2.7 1.3 3.5 2 2 1.8 5.2 9.4 0.7 8.5 4.1 5.3 1.8 19.7 1.9 25.6 0.1 7.8 0.2 15.7 0.5 23.5 0.6 16.6 1.3 33.3 2 49.9 0.8 18.1 2.7 36.1 3.4 54.2 0.1 1.3 0 3.4-0.1 5.9 -8.6 0.7-17 2.1-25.1 4.8 -18.5 6.3-34.1 14.4-54.2 14.2 -9.9-0.1-19.8-1.2-29.7-1.2 -10.5-0.1-20.3 1.8-30.4 4 0.2-2.2 0.8-5.2 0.5-7.4 -0.5-3.4-1.8-3-3.2-6.3 0.1-2.9 0.1-5.6 0.8-8.4 0.5-1.8 2-1.8 1.5-4 5.5-0.2 3.5-6.1 1-8.6 -1.1-0.6-2.2-1.1-3.3-1.5 0-6.3 0-12.5 0-18.8 0.3-55.3-2.8-111.5 0-166.7 2.1 0.9 4.3 1.9 6.4 2.8 -4.7-2.9-8.2-3.5-4.4-9.1 -2.8 2.3-1.4-2.8 2.4 0.5 -3.2-3.7-6.3-9.6-3.5-10.1 2.4-1.1 5-1.3 7.6-0.6 -2.5-0.7-5-1-7.6-0.9 0 0.1 3.1-4.6 4.1-4.6 0.6 0-1.2 4.9 2.4 3.7 -1.2 0.6 1.5-5.5 1.2-4.6 -0.1 0.2-0.4 2.4-0.3 2.5 0.4 0 4.1 1.7 3.8 1.9 0.3-0.8 0.5-1.7 0.6-2.6 0.3 0.7 0.7 1.3 1.2 1.9 1.8 0.4-0.2-1.5-0.3-1.6 -0.4-0.2 3.8-0.9 3.9-0.8 -0.8-2.2 6.6-5.2 6.5-7.4 -0.2-4.4-5.6-3.2-3.5-9.5 3.9 2.6 0.3-3.2 3.7-2.1 -1.2 0.8-1.3 1.6-0.1 2.4 0.4-0.6 12 4.4 10.9 0 0.1 1-5.4-7.7-1.7-7.9 -2.4 0.2-1.7-0.8-2.1-4.5 -0.7 0.7-1.5 1.2-2.5 1.2 0.5-3.6 3.3-1 4.1-1.6 1-1-0.8-0.7 1.1-1.5 -0.4 0.2-3.8-0.7-3.8-0.8 0.8 1.2-2.2 0.3-2.8-0.1 -0.9 0.1-1.7 0.3-2.5 0.7 -0.2-3.4 6.5-5.2 7.4-5.2 0.7-2-3 0.2-3.4-1.1 0-0.1 3.9-0.6 4.1-1.2 0.7-1.5 1.9-7.7 0-7.7 -0.1-0.7 0.2-1.2 1.2-1.4 0.1 0-3-1.1-3-0.9 0-2.3 1.4-10.6-1.2-13.2 -0.3-0.2-1.5 1.3-1.5 0.2 0-0.4 6.7-2.8 6.7-2.8 -1.6 1.6 0.7 4.1-0.1 6 -0.4 0.3-3.2 1.8-1.2 3.7 0.5 0.5 6.6-3.7 6.4-3.9 -0.7-0.1-1.4-0.3-2.1-0.6 -0.4-0.9 2.1-4.7 2.3-4.2 -0.1 0.7-0.1 1.4-0.1 2.2 1.3 1.1 3.2-3.2 3.7-3.6 3-1.7 0 0 4.1-0.7 0.6-0.1-0.1-5.5-0.6-5.6 -0.3-0.1-3.2 0.2-3.7-0.7 -0.9-1.9 4-2.5 1.6-5 -1.6-1.3-5.4 7.5-9.3 1.8 0.6-1.2 1.3-2.3 2.3-3.3 -0.1-0.4-4.1-0.7-4.9-1 0.3 0.2-1.6-2.8-2.3-2.9 -0.9-0.1-1.5 2.5-2.4 2.3 -0.6-0.5-1-1.1-1-1.9 -2.1-1.1-3.4 3.4-4.7 3.7 0.2-0.1 1.3-6.3 1.7-7.6 -3.5-0.3-11.5-6.2-15.2-5.1 0.1-1.6 11.6 1.7 13.4 2.5 0.5-1.8-2.5-3.8-1.4-5.4 0.8-1.1 7.2-0.5 6.8-2 -0.2-0.9-3.6-2.9-4.4-3.7 1.8-2.7 2.1-1.5-0.7-3.7 5.8-3.9-1.8-1.3-2.8-3.2 -1.2-2.4 1-5-1.9-8.5 1.2 1.4-5.8 2.2-5.7 1.9 0.3-1.3 2.1-3.6 2.6-3.7 -0.3 0.1 3.2 1.9 3 1.4 -0.4-3.5-7-2.6-7-2.5 0.7-4.8 4.9-0.9 6.7-3.6 -1 0.4-1.6 0.2-1.8-0.6 1.5-0.2 1.8-2.9 1.2-3.1 1.8 0.6 5.3-1.3 3.7-1.8 -1.1-0.4-6.9 1.3-7 1.2 -0.5 0 1.4-1.4 0.9-1.8 -3-2.6 1-0.9-0.1-3.7 1 2.6-20.6 0-21.3 1 0.5-0.5 0.8 5.9-1.8 5.9 0.8-0.8-4.1-2.9-5.6-1.2 -2.1 2.3 0.6 3.1-0.6 6.8 -0.1 0.3-1.3-2.4-1.7-2.3 -1.2 3-0.4 2.3-2.6 2.3 -0.8 0.5-1 4.7-1.5 4.9 -3.9 0-2.6 3.1-6.8 5.2 -2.6 1.3-5.5-1.4-8.3 0.4 3.5 2.8 5.8 20.6 2.9 18.5 -0.6-0.5-0.8 9.7-0.7 10.3 0.4 2.4-1.8 3 0.7 5 3.8 2.9 0.4-1 4.6-1.8 0.9-0.2-1.5 4.1-1.6 4.2 0.4 2.9 9-1.5 9.4-1.2 -2.4 1.8-1.7 4-2.7 4.9 -0.2 0.2-1.6-0.9-1.6-0.5 0 2.4-1.1 0.5 0.2 3.2 -1.2 0.6-3.8-1.5-4.1-1.1 0.1 0.3 0.4 0.6 0.7 0.8 -1.4-0.5-5.8 1.4-5.4 2.3 0.7 1.4 5.7 3.2 7 1.9 0.1 0.5-0.2 1.9-0.2 1.9 0.3 1.2 3.9 0.4 2.2 4.1 -1.3 2.7-1.6 1.7-4.1 2.3 0.4-0.1-4.6-1.9-7.2-1.4 -0.7 0.1-2.5 1.5-2.7 2.1 -0.4-0.4-0.8-0.6-1.4-0.7 -0.1 0.8-0.1 1.7 0.2 2.5 -1-0.3-1.9-0.9-2.6-1.7 0.6 1 1 6.6-0.4 6.6 -0.1 0-3.8-1.2-4.1-1 0 0 0.5 8.4 1 8.6 -0.4-0.2 12.4 2.7 11.4 4.7 0.2-0.8-2.7 1-2.8 1.3 -0.3-0.4-2.1-3.2-2-3.2 -0.1 0-4.4 2.8-4.1 3.4 0.2 0.3 4.2 1.1 2 2.3 1.8-1-12.5-1.4-11.8-1.3 0.2 5.4 10.7 5.3 12 7.8 -0.8 0-1.5 0-2.3-0.2 0 2.4 1.5 2.1 3.3 3.6 4.6 4 0 3.3 4.6 1.5 0.7-0.3 3.5 2.6 5.6 1.7 0.4-0.2 3.9-3.2 3.7-3.2 -5.4 1.5-6-5.9-5.9-7.5 0-0.9 4.2-4.7 4.1-3.8 0 0.6-3 1.9-2.1 3.3 -1-1.6 7.1-1.9 7-1.8 0.6-0.2-3.4-3 1.1-1.7 0.2 0 1.9 4 1.9 3.9 0.4-0.8 0.8-1.7 1-2.6 1.2 0.8 1.9 1.9 2 3.4 0.5-0.3 0.9-0.8 1.2-1.4 3.3 1.6-1.1 4.6-1.5 4.6 0.4 0.4 3.4 1.8 1.9 4 -0.3 0.4-3.7 0.7-4.5 1.3 0.3-0.2-5.7 3.2-5.3 1.8 -0.7 2.1 1.2 0.4-0.3 2 0.2-0.5 0.2-1 0-1.5 -1.5-1.3-2.5 1.7-1.7 2.1 0.2 0.1-2.2 0.2-2.2 0.1 -0.2-0.3 1 1.6 1 1.6 -0.2 0.3-0.3 0.5-0.3 0.6 0.1-0.2 0.4-0.3 0.4 1 -0.7 0.5-1.4 0.7-2.1 0.7 0.2 0.1 0.3 0.3 0.3 0.6 0 0-2.8-0.6-1.1 1.1 0.2 0.2 2.2 0.4 2 1 0.2-0.8 1.9-1.8 2.8-3.6 0.3 0.3-1.6 2.5-0.7 2.3 1.6-0.4 3.8-3.4 3.8-1.4 0 0 1.3 0.4 2.4 0.7 -2.1 0.9-5.5 3.6-4.1 4.1 0 0 0.8-2.2 1.7-1.2 -0.3 0.3-0.6 0.6-0.9 0.9 2.6 1.3-0.1 0.3 1.6 1.6 -0.3-1.2 7.3-5.2 7.2-5.5 1.7 2.9 0 11.1 0 14.2 -3-2.4-6.1-4.7-9.1-7.1 4.5 4.5 16 13.9 6 18.2 5.7-1 3.9 1.6 4.1 6.8 0.2 5.4 3 8.9-3.6 4.6 7.5 7.5 5.3 22.4 6 32.5 1 14.4 1.3 28.9 1.6 43.4 0.6 23.6 0.3 47.2 0.4 70.8 0 10.3 0.1 20.5 0.1 30.8 -1.8-0.1-2.9 0-2.9 0 -3.4 1-5.5 2.2-8.4 4.3 -2.5 1.7-6.6 3.1-8.4 5.6 -1.8 2.4-1.9 5.9-3.2 8.7 -1.3 2.9-4.9 6.1-5 9.4 -2.3-2.1-4.3 0.5-4.2 3.1 -0.1-1.6-0.5-5.3-2.1-5.2 -0.7 0-2.5 6.2-1.9 7.7 -0.1-0.3-2.8-4.4-3.3-2.5 -0.5 1.9 2.4 5.9 2.9 8.1 0.6 2.7-0.3 7.9 3 7.9 3.6 1.4 11.4-17.2 17.5-17.6 -0.7 5.8-3.4 11-5.6 16.3 -7 1.7-13.5 4.1-20.7 2.8 -4.3-0.8-10.6-3.8-14.8-1.5 0.1-5.4-5.6-7.2-6.1-12.6 -0.5-4.8 5.8-8.7 0.8-13.3 -6.9-6.4-21.6-1.3-29.5 3.3 -0.2-15.8-0.4-31.5-0.7-47.3 -0.3-22.1-0.7-44.2-1.2-66.2 -0.2-9-0.1-18-0.7-27 -0.3-4.3-2.7-12.1-0.5-16.1 3-5.3 15.3-9.1 20.2-13.1 -5.2 2.5-26.8 17.3-21.2-0.3 1.5-4.7 5.8-3.1 7.4-8.3 1.1-3.6-4.1-3-5.3-6.3 0 0 0.6-8.9 0.4-7.7 1.4-6.8 2.7-6.6 9.5-10.6 6.8-3.9 15.7-8 20.3-14.6 -8.3 7-22.1 16.4-32.7 19 0.6-0.3 1.9-16.4 6.3-19.3 3.9-2.6 1.8-1.4 6.2-1 0.7 0.1 4.7 1.7 5.5 2.7 -0.1-0.4-0.2-0.7-0.4-1.1 0.6-0.7 8.1 1.5 7.8-2.7 -0.8-0.4-1.7-0.6-2.6-0.6 0-3.4 1.1-0.4-1.7-2.7 0 0 6.1-2.3 6.1-2.6 -1.2 5.6 4.6 4.1 7 4.4 0.3 0 3.3 11.4 3.7 10.2 -0.5 2.9-4.9 13.4-7.1 11.3 2.4 2.2 6.3 1.8 8.9 2.1 -2.8-0.4 7.1-3 3.8-1.3 1.8-0.9 8.6-4.3 7.9-8.6 -0.8 0.3-1.7 0.5-2.6 0.6 1.6-0.8 15.1-10.6 13.6-11.1 -0.7 0-0.6 0-0.4 0 -2.9 0-4.3-0.9-7.8-0.3 -1.5 0.3-4.5 3.5-6.3 2.5 -1.1-0.6 2.6-2.9 2.3-4 0.2 0.8-5.5-2.6-4.6-2.6 -1.4 0-1.6 4.4-2.6 4.4 0.8-0.2-3.1-1.2-3.5-1.2 1.4 0.4 8.7-7.8 9-8.1 3.6-2.1 2.4 3.2 4.3-1.9 0.1-0.3 0-8.3-0.1-8.3 -0.4 0.6-0.8 1.2-1.1 1.8 -0.8 0.3-2-2.8-3.5 0.2 -2.5 0.7-0.5-7-0.6-7.3 -1.3-2.6-2.2 2.5-3.7 1.4 -0.2-1-0.2-2 0-2.9 0.4 0.5-6.4-1.5-8.2-1.5 -5.5-0.1-4.4 3.9-8.3 4 -0.2-0.3-3.4-2-2.7-1.4 -4.7-2.7 2.1-11.6 1-12.9 -0.1-0.1-2.1 2.5-2.5 0.7 -0.2-1.3 2.1-3.2 1.7-4 -0.4-0.8-5.9-6.1-7.3-7 3.5-2.8 4 4 6.1 3.7 -0.9 0.2 5.1-2.6 5.7-2.7 0.2-0.9-2.4-5-2.6-5.1 4 1 2.5 5.2 6.4 2.2 1.5-1.2 0.4-3.9 0.7-5.7 0.4-2.8 0-12.5-2-14.4 -1.7-1.1-2.3-1.1-2.4-1 0.1-0.1 0.5-0.8 0.1-4.1 -0.5-4.2-1.7-13.5 2.6-17.8 -3.8-1.9-7.4 1.6-10.2 0.7 -2.4-0.8-2.6-2.7-4.9-4.4 -0.3-0.2-4.4-2.8-4.4-2.2 -0.6-1.5-0.6-4.5-2.2-5 -0.6 0.4-1.1 0.8-1.7 1.2 -0.8-1.3 1.3-3.8-1.7-3.7 -1 0 0.2 3.8-1.5 3.2 -2.8-1 1.5-6.6-1.6-8.6 -2.7-1.8-5.4-0.2-6.3 2.5 -4.2-1.4-1.9-6.2-3-7.1 -1.6-1.6-12.5 1.1-16 1.8 -4.5 0.9-4.3 0-10.2-1.2 -2.3 2.3 2.3 2.7 2 4.1 -0.6 0.8-1.3 1.2-2.3 1.2 -0.9 0.9 4 2.7 1.5 3.2 -2.7 0-5.7-2.7-8.1-0.3 -1.8 1.8 5.2 3.3 5.4 1.7 -0.2 0.9-0.6 1.5-1.3 2 0.7 0.8 1.6 1.4 2.6 1.7 -0.7 0.3-1.5 0.5-2.3 0.6 2.1 2.5 4.6-2.2 6.3-1 1.9 1.3-0.4 2.5 0 4.2 0.1 0 0.2 0.1 0.3 0.1 -2.3 0.4-5.9 2.4-6.2 4.6 -0.1 0.6 2.9-1.5 3.2-1.8 0.2 0.3 3.9 2.9 3.7 3.8 -0.5 1.6-6.8-1.5-7.1-1.8 -2.7 0.5-2.3 8.5-2.4 8.7 0-0.1-4.6 5-5.3 4.6 0.6 1.3 1.6 1.8 3.1 1.7 -1.1 0.6-2 1.3-2.9 2.1 0.7 1.1 1.5 1.9 2.6 2.6 -0.3 0.3-4.6 4.6-4.6 4.9 -0.1 1.3 7.1 1.3 7.8 1.6 1.5 0.7-0.9 5.7-0.6 6.8 7.9-4.6 14.1-2.7 19.5-4.9 -2.9 1.2-8.7 2-10.3 5.2 -4.2-0.6-6.1 2.4-11 3.3 0 2 4.5 7.2 2.9 8.8 1.7-2.3-8.7-2.8-9.3-2.6 -1.3 0.3-3.5 1.2-4.5 1.6 0.6-0.2-0.2 2-0.5 2.2 -1.6 1.2-2.5-1.1-4.1-0.4 -2.8 1.1 1.7 3.6 2 4.6 1 4-10 0.3-11.2-0.8 -0.9-0.9 1 6.5 2 6.2 -1 0.7-4.3 0.8-4.5 0.9 -0.8 0.3-0.6 6.5-0.8 6.5 2.5 1.8 2.1-2.5 3.5-2.7 1.4-0.2 4.6 9.3 7 6.7 -0.2-0.9-0.4-1.7-0.5-2.6 0.5 1.1 5.5 3.9 1.1 5.6 0.6-0.2 6.2 6.5 8.2 4.5 2.4-1.9-1.2-4.1-2-4.4 -0.3-0.5-1.4-6.9-0.9-7.6 0.5-0.6 4 3 6.7 3.8 -0.2 2.5-2.5 11.7-1.4 14.6 -0.7-0.3-1.3 0.2-1.9 1.4 0.9 0 1.5 0.4 1.8 1.2 -0.3 1.4-2.2-0.5-1.5 3.1 0.4 2 2.5 5.3 1.9 7.1 0.2 0.2 5.1 0.7 5 0.9 -0.4 1.9-3.5-0.4-4.1 0.6 -0.3 0.5 1.9 3.3 2.1 3.4 0.1 0.1 2-2.9 3.2-2 0.7 0.6 1.8 2.5 2.5 3 5.3 3.8-0.1 3.7-2.5 3.1 -0.5-0.1 0.3 4.2 0.2 4.2 -1.1-0.3-2.1-0.8-3-1.5 0 1 0.7 6.1 0 6.8 -0.8-0.1-1.5-0.5-2.1-0.9 -1.3 2.3 1.9 3.6 1.5 5.5 -0.7 3.5-1.5 1.8-2.7 4.2 -2.4 4.8 19.3-1.8 13-4.2 3.8-1.7 0.8 3.3 3.3 3.7 1.3 0.2 3.4-3.6 5.4-2 1.3 1 6.4 9 1 7.2 3-4.8-3.7 1.2-5 2.6 -1.9 1.9-3.1-1.6-3.4 2.7 -0.2 1.9 3.3 0.7 3.6 1.1 2.4 4.5 4.5 7.6 10.2 7.7 1.4 0-2.2 2-0.4 2.3 1-0.5 1.7-1.3 2-2.4 -0.2 1.3 0.3 2.3 1.4 3 2.2 0 1.7-2.6 4.3-2.6 -0.1-1-0.4-2.1-0.8-3 1.2 3.7 2 7.2 5.2 2.9 0 11.2 0.9 10.8-10.3 10.8 11.4 1.9 10 2.1 10.6 13.1 -3-1-6-2-9-3 5.6 2.8 8.6 3.2 9.4 9.5 0.8 6.6-0.7 6.7-6.2 4.8 13.4 10.1 7.1 45.5 7.5 61.8 0.4 21.7 0.6 43.3 0.8 65 0 4.6 0.1 9.3 0.1 13.9 -4.1 5.6-9 17.9-11.3 17.1 -0.7-0.2 0-3.1-1.2-3.1 -1.7 0-2.8 6.9-3.3 8.1 -2 4.4-0.9 6.7-1.2 11.8 0.4 3.8 8.3-4.9 8.7-5.4 1.9-2.5 3.4-7.4 6.1-9.1 0.6-0.9 1.5-1.4 2.4-1.6 0 1.7 0 3.4 0 5 0 3.2-1.2 9.5-0.5 13.8 -4.5 1.6-9 2.8-13.6 4 -9.5 2.4-17.5-2.1-26.9-1.9 -9 0.2-13.7 10.7-21.8 14.6 -5.5 2.6-11.5 3.9-17.3 5.5 -5 1.4-11.2 4.2-16.4 4.1 -12.2 0-24-11.6-36.2-10.4 -7.7 0.7-15.3 10.5-21.8 14.2 -3.4 1.9-4 2.1-5.4 5.9 -1.4 3.6-1.4 5.4-4.8 6.9 -6.1 2.8-14.5 3.4-21 4.9 -6.5 1.5-12.9 3-19.4 4.4 -12 2.6-24.2 4.4-36.4 6.2 -5.8 0.9-11.6 1.6-17.4 2.3 -6.8 0.8-7.1 2.2-11.2 7 -6.5 7.5-23.1 4.7-32.5 5.5 -5.1 0.4-7.5 3.4-12.1 5 -5 1.8-11.4 2.9-16.6 4 -5.7 1.2-10.4 0-15.9-1.3 -6.1-1.4-11.8-1.4-18-1.6 -5.7-0.1-10.2-1.2-15.5-2.7 -4.4-1.3-8.7-3.8-13.3-4.4 -5-0.7-10.4 0.1-15.3 0.4 -6.4 0.5-7.8-2.2-13.3-4.8 -8.1-4-16.3-7.1-25-9.9 -4.1-1.3-8.1-2.1-12.1-3.3 -3.9-1.1-4.9-2.9-7.3-6.3 -2.1-3.1-4.4-7-8.3-8 -3.5-0.9-4.9 0.2-8.3-2.2 -3.6-2.4-6.5-5.7-10-8.1 -4.5-3.1-9.4-3.9-14.6-5.2 -5.4-1.4-8-3.6-12.5-6.2 -5.9-3.5-13.9-5.1-20.3-7.5 -12.3-4.7-24.6-9.8-37.1-13.9 -6.3-2.1-12.8-3.3-19.2-4.3 0-12.3 0-24.6 0.1-37 0.3-57.4-2.9-115.6 0-172.9 2.2 1 4.5 2 6.7 2.9 -4.9-3.1-8.5-3.7-4.6-9.5 -4.3 3.5-2.4-3-0.3-1.1 1.6 1.4 2.4 1.6 3.3 2.3 -3.5-3.8-7.2-10.6-4.2-11.2 2.6-1.1 5.2-1.3 7.9-0.6 -2.6-0.8-5.2-1.1-7.9-0.9 0 0.1 3.2-4.8 4.2-4.8 0.6 0-1.2 5.1 2.5 3.9 -1.3 0.6 1.5-5.8 1.3-4.8 -0.1 0.2-0.4 2.5-0.4 2.6 0.4 0 4.3 1.8 4 2 0.3-0.9 0.6-1.8 0.6-2.7 0.4 0.7 0.8 1.4 1.3 2 1.9 0.5-0.3-1.6-0.4-1.6 -0.4-0.2 4-1 4.1-0.8 -0.9-2.3 6.9-5.4 6.7-7.8 -0.2-4.5-5.9-3.3-3.7-9.9 4.1 2.7 0.3-3.3 3.9-2.2 -1.3 0.8-1.3 1.6-0.1 2.5 0.4-0.7 12.6 4.5 11.4 0 0.1 1-5.7-8-1.8-8.2 -2.5 0.2-1.8-0.8-2.2-4.7 -0.7 0.8-1.6 1.2-2.6 1.3 0.5-3.8 3.4-1 4.2-1.6 1.1-1.1-0.8-0.7 1.2-1.6 -0.4 0.2-4-0.7-4-0.8 0.9 1.3-2.3 0.3-3-0.1 -0.9 0.1-1.8 0.3-2.6 0.8 -0.3-3.6 6.8-5.4 7.8-5.4 0.7-2.1-3.1 0.2-3.5-1.2 0-0.1 4.1-0.6 4.2-1.3 0.4-0.8 0.9-7.2 1.3-8.5 -0.5-0.1-1 0-1.3 0.5 -0.2-0.8 0.2-1.3 1.2-1.4 0.1 0-3.1-1.2-3.1-0.9 0-2.4 1.5-11-1.3-13.8 -0.3-0.2-1.5 1.4-1.5 0.2 0-0.4 7-2.9 7-2.9 -1.6 1.6 0.7 4.3-0.1 6.2 -0.4 0.3-3.4 1.8-1.3 3.9 0.5 0.5 6.9-3.8 6.7-4.1 -0.8-0.1-1.5-0.3-2.2-0.6 -0.4-0.9 2.2-4.9 2.4-4.4 -0.1 0.8-0.1 1.5-0.1 2.3 1.3 1.1 3.3-3.4 3.9-3.7 3.1-1.8 0 0 4.3-0.7 0.7-0.1-0.1-5.7-0.6-5.8 -0.3-0.1-3.4 0.2-3.9-0.7 -1-1.9 4.2-2.6 1.6-5.2 -1.7-1.4-5.7 7.9-9.7 1.9 0.6-1.3 1.4-2.4 2.4-3.4 0-0.2-4.5-0.9-5.1-1.1 0.5 0.2-1.7-2.9-2.5-3 -1-0.2-1.5 2.7-2.5 2.4 -0.7-0.5-1-1.2-1.1-2 -2.2-1.1-3.5 3.5-4.9 3.9 0.2-0.1 1.4-6.6 1.7-7.9 -3.7-0.3-12-6.5-15.9-5.3 0.1-1.7 12.2 1.7 14 2.6 0.5-1.9-2.6-3.9-1.4-5.6 0.8-1.1 7.5-0.6 7.1-2.1 -0.2-1-3.8-3-4.6-3.9 1.9-2.8 2.1-1.6-0.7-3.9 6.1-4-1.8-1.4-2.9-3.3 -1.2-2.5 1-5.2-2-8.9 1.3 1.5-6.1 2.3-6 2 0.3-1.3 2.1-3.8 2.7-3.9 -0.3 0.1 3.4 2 3.2 1.4 -0.4-3.4-7.3-3-7.3-2.6 0.7-5 5.1-1 7-3.8 -1 0.4-1.6 0.2-1.9-0.6 1.5-0.3 1.9-3 1.2-3.3 1.9 0.6 5.5-1.3 3.9-1.9 -1.3-0.4-5.4 0-7 0.7 0.4-0.3 0.6-0.7 0.6-1.3 -3.2-2.7 1-0.9-0.1-3.9 0.9 2.5-21.6 0.2-22.3 1.1 0.5-0.5 0.9 6.1-1.9 6.1 0.8-0.8-4.2-3-5.8-1.2 -2.2 2.4 0.7 3.3-0.6 7.1 -0.1 0.3-1.3-2.5-1.8-2.4 -1.2 3.1-0.4 2.4-2.7 2.4 -0.8 0.5-1 4.9-1.5 5.1 -4 0-2.9 3-7.1 5.5 -2.6 1.5-5.7-1.4-8.7 0.4 3.7 2.9 6.1 21.5 3 19.3 -0.7-0.5-0.8 10.2-0.7 10.7 0.4 2.6-1.8 3 0.7 5.2 3.8 3.3 0.5-1 4.8-1.9 0.9-0.2-1.6 4.3-1.6 4.4 0.4 3 9.4-1.6 9.8-1.3 -2.5 1.9-1.8 4.2-2.8 5.1 -0.2 0.2-1.7-1-1.7-0.5 0 2.5-1.2 0.6 0.2 3.3 -1.3 0.7-4-1.6-4.2-1.2 0.1 0.4 0.4 0.6 0.7 0.8 -1.4-0.6-6.1 1.5-5.6 2.4 0.8 1.5 6.3 3 7.3 2 0.1 0.5-0.2 2-0.2 2 0.3 1.2 4.1 0.5 2.3 4.2 -1.3 2.8-1.6 1.8-4.2 2.4 0.4-0.1-4.8-2-7.5-1.5 -0.7 0.1-2.6 1.6-2.8 2.2 -0.4-0.4-0.9-0.7-1.5-0.7 -0.2 0.9-0.1 1.7 0.2 2.6 -1.1-0.4-2.1-1-2.8-1.9 0.5 0.2 1.4 7.1-0.2 7.1 -0.1 0-4-1.2-4.2-1.1 0 0 0.5 8.8 1.1 9 -0.4-0.2 13 2.8 11.9 4.9 0.2-0.9-2.9 1.1-3 1.4 -0.3-0.4-2.2-3.4-2.1-3.4 -0.4-0.1-3.2 2.3-4.3 2.6 -1.3 0.3 4.5 2 2.1 3.3 1.9-1.1-13-1.4-12.3-1.4 0.2 5.7 11.2 5.6 12.5 8.1 -0.8 0-1.6 0-2.4-0.2 0 2.5 1.6 2.2 3.4 3.8 4.8 4.2 0 3.5 4.8 1.5 -4 1.8 14.1 0.6 10-1.5 -3.4-1.8-7.9-1.5-7.3-8.1 -0.1 1 5.3-5.3 5.1-3.8 0 0.6-2.6 1.7-2.4 3 -0.2-1.7 6-1.6 5.4-1 2.2-1.4 0 0.5 2-0.5 0.6-0.2-3.5-3.1 1.2-1.8 0.2 0 2 4.1 2 4.1 0.4-0.9 0.8-1.8 1.1-2.7 1.3 0.8 2 2 2.1 3.5 0.5-0.4 1-0.8 1.3-1.4 3.4 1.7-1.1 4.8-1.6 4.8 0.4 0.4 3.5 1.9 2 4.2 -0.2 0.4-3.9 0.8-4.7 1.4 0.3-0.2-5.9 3.4-5.5 1.9 0 0.1-0.2 1.6-0.4 2.1 -0.1-0.2 0.7-3.3-1.3-1.9 -1 0.8-0.3 2.7-0.7 2.9 -0.6-0.4-1.3-0.5-2-0.2 -0.2-0.3 1 1.7 1.1 1.6 -0.5 0-0.9 0.2-1.3 0.4 0.5 0.4 1 0.8 1.4 1.3 -0.7 0.5-1.4 0.7-2.2 0.8 0.2 0.1 0.3 0.3 0.3 0.7 0 0-3-0.6-1.2 1.2 0.2 0.2 2.3 0.4 2.1 1.1 0.2-0.8 1.9-1.9 2.9-3.8 0.4 0.3-1.7 2.6-0.7 2.4 1.7-0.4 4-3.6 4-1.4 0 0 1.4 0.4 2.5 0.7 -2.2 0.9-5.8 3.7-4.3 4.2 0 0 0.8-2.3 1.8-1.3 -0.3 0.3-0.6 0.6-0.9 0.9 2.8 1.4-0.2 0.3 1.7 1.7 -0.3-1.3 7.7-5.4 7.5-5.7 1.7 3 0 11.6 0 14.8 -3.2-2.5-6.4-4.9-9.5-7.4 4.7 4.7 16.7 14.5 6.2 19 5.9-1.1 4.1 1.6 4.3 7.1 0.2 5.7 3.1 9.3-3.7 4.8 8.2 8.2 5.8 25.8 6.5 36.9 0.9 14.1 1.1 28.3 1.5 42.4 0.6 24.9 0.3 49.9 0.4 74.8 0.1 16.1 0.1 32.2 0.1 48.3 -7.9-0.9-15.9-1.8-23.9-3.5 -8.1-1.7-16-0.2-23.7-3.5 -3.3-1.4-5.8-1.4-6.6-4.8 -0.7-3.2 2.5-6.8 1.8-10 -1.4-6.5-11.9-7.8-17.7-8 -4.3-0.1-9.8 1.6-13.9 1 -3.9-0.6-4.2-2.4-8.4-0.8 -4.2 1.6-14.3 9.7-18.7 8.1 -2.8-1-1.6-5.8-3.7-7.3 -1.5-1.1-6.2-0.9-8-1.2 -3-0.5-6-1-9-1.3 -4-0.4-7.9-1.8-11.9-2.6 -0.1-1.1-0.2-2.1-0.2-2.8 0-14 0-27.9 0.1-41.9 0.3-53.6-2.7-108.1 0-161.5 2.1 0.9 4.2 1.8 6.3 2.8 -4.6-2.9-8-3.4-4.3-8.9 -2.7 2.3-1.3-2.8 2.3 0.5 -3.1-3.6-6.1-9.4-3.4-9.9 2.4-1.1 4.9-1.3 7.4-0.6 -2.4-0.7-4.9-1-7.4-0.9 0 0.1 3-4.5 4-4.5 0.6 0-1.1 4.8 2.3 3.6 -1.2 0.5 1.4-5.4 1.2-4.5 -0.1 0.2-0.4 2.4-0.3 2.4 0.4 0 4 1.7 3.7 1.9 0.3-0.8 0.5-1.7 0.6-2.5 0.3 0.7 0.7 1.3 1.2 1.9 1.7 0.4-0.2-1.5-0.3-1.5 -0.4-0.2 3.8-0.9 3.9-0.8 -0.8-2.2 6.4-5.1 6.3-7.3 -0.2-4.3-5.5-3.1-3.5-9.3 3.9 2.6 0.3-3.1 3.6-2.1 -1.2 0.8-1.2 1.5-0.1 2.3 0.4-0.6 11.8 4.3 10.7 0 -0.2-2-2.9 1.2-2.7-2.3 0.1-1.6 1.9-3.4 1.3-5 -0.8-2.1-1.6 1.4-2.3-4.9 -0.7 0.7-1.5 1.1-2.4 1.2 0.5-3.5 3.2-1 4-1.5 1-1-0.7-0.7 1.1-1.5 -0.4 0.2-3.7-0.7-3.8-0.7 0.8 1.2-2.2 0.3-2.8-0.1 -0.8 0.1-1.7 0.3-2.4 0.7 -0.2-3.3 6.3-5.1 7.3-5.1 0.7-2-2.9 0.2-3.3-1.1 0-0.1 3.8-0.6 4-1.2 0.7-1.4 1.9-7.5 0-7.5 -0.1-0.7 0.2-1.2 1.1-1.4 0.1 0-2.9-1.1-2.9-0.9 0-2.3 1.4-10.3-1.2-12.9 -0.3-0.2-1.4 1.3-1.4 0.2 0-0.4 6.6-2.7 6.5-2.8 -1.5 1.5 0.7 4-0.1 5.9 -0.4 0.3-3.1 1.7-1.2 3.6 0.5 0.5 6.5-3.6 6.3-3.9 -0.7-0.1-1.4-0.3-2.1-0.6 -0.4-0.8 2.1-4.6 2.2-4.1 -0.1 0.7-0.1 1.4-0.1 2.1 1.2 1.1 3.1-3.2 3.6-3.5 2.9-1.7 0 0 4-0.7 0.6-0.1-0.1-5.3-0.5-5.4 -0.3-0.1-3.1 0.2-3.6-0.7 -0.9-1.8 3.9-2.5 1.5-4.9 -1.6-1.3-5.3 7.4-9.1 1.8 0.6-1.2 1.3-2.3 2.2-3.2 -0.1-0.4-4-0.7-4.8-1 0.3 0.2-1.5-2.8-2.3-2.9 -0.9-0.1-1.5 2.5-2.3 2.2 -0.6-0.5-0.9-1.1-1-1.9 -2.1-1-3.3 3.3-4.6 3.6 0.2-0.1 1.3-6.2 1.6-7.4 -3.4-0.3-11.2-6.1-14.9-5 0.1-1.7 11 1.5 13.1 2.4 0.5-1.8-2.4-3.7-1.3-5.2 0.8-1.1 7-0.5 6.6-1.9 -0.2-0.9-3.5-2.9-4.3-3.6 1.8-2.7 2-1.5-0.7-3.6 5.7-3.8-1.7-1.3-2.8-3.1 -1.2-2.4 1-4.9-1.9-8.3 1.2 1.4-5.7 2.1-5.6 1.9 0.3-1.3 2-3.5 2.5-3.6 -0.3 0.1 3.1 1.9 3 1.3 -0.4-3.4-6.8-2.6-6.8-2.4 0.7-4.7 4.8-0.9 6.5-3.5 -0.9 0.4-1.5 0.2-1.8-0.6 1.4-0.2 1.8-2.9 1.2-3.1 1.8 0.6 5.1-1.2 3.6-1.7 -1-0.3-6.7 1.3-6.8 1.2 -0.5 0 1.3-1.4 0.9-1.8 -3-2.6 0.9-0.8-0.1-3.6 0.9 2.6-20.1 0-20.9 1 0.5-0.5 0.8 5.7-1.8 5.7 1-1-4.1-2.3-5.5-1.2 -2.4 2 0.6 3.2-0.6 6.6 -0.1 0.3-1.2-2.4-1.7-2.3 -0.4 1-3.4 6.7-4 7 -3.8 0-2.6 3-6.6 5.1 -2.6 1.3-5.3-1.4-8.2 0.4 1.7 1.4 6.6 16 5.4 17.7 -0.4 0-3.8 0-3.8-1.2 2.7-8.2-2.1-6.6-9.2-9 -3.8-1.3-5.2-4.2-10.1-3.4 -3.1 0.5-1.4-1.2-5.1 0.9 -2 1.1 2.3 5.3 0.3 5.8 0.1 0-5.1-3-5.1-2.8 0 3.2-3.5 1.7-5.2 5.9 -1.8 4.3 1.6 5.2 2.1 8 0-1.2-3.4 5.1-3.3 5.1 -3.3 4.1-4.1 1.7-6.2 3.2 -0.8 0.5-2.9 1.3-4.1 2.9 -1.6 2.2-0.8 7 0.5 6 -2 1.4-5 5.1-5.6 8.6 -0.5 2.6 0.1 2.5 0.9 4.7 0.1 0.3 2 3.9 3.2 4.9 -0.8 1.1-1.8 2.5-1.7 2.4 -0.3 0.2-2.1-2.6-3.8-0.3 0.3-0.4-2.2 3-1.2 2.3 1.4-1.1 0.4 3.3-0.2 4 -0.6 0.8-2.7 0-3.7 0.6 -2.3 1.5-5.3 1.2-6.9 2.2 -0.5 0.3-3.9 4.5-1.6 2.8 6.8 1.6-3.6 5-1.7 6.3 0.3-0.3 0.7-0.5 1-0.8 1.1 0.8 1.2 2.1 3.1 3.1 0-0.7 0-1.3-0.1-2 2.4-1.7 3.3 8.3 3.3 8.4 -0.2 3.1-0.4 0.8-2.5 4.2 -1.7-2.8-0.7-2.3-2.5-0.9 0.2-0.2-3.9 2.7-3.6 2.4 -1.1 1.4-2.9 10.5-2.7 11.5 0.9 4.8 18.9 2.5 20.5 3.2 -0.3-0.6-1-2.5-1-2.9 -0.9-0.2-4.4-1.5-2.9-1.5 0.6 0 1.4-0.4 1.7-0.9 0.1 0.5 0.3 1 0.6 1.4 1.1-0.3 1.6-1.1 1.4-2.2 2.5 0.8 6 3.3 6-2 0.7 0.4 2.6 3.6 2.5 4.1 1-0.6 2.1-1.2 3.2-1.8 -1.1 0-1.9-0.6-2.4-1.6 0-1.2 4.9-2.9 4.9-2.9 -0.8 0.4-1.4 0.9-1.9 1.6 0.1 0.1 0.9 2.8 1 3.2 -0.2 0.1 3.9-4.4 3.9-2.4 -0.8 0.5-1.5 1.1-2.1 1.8 0.8 0.2 1.6 0.2 2.4-0.1 -1.9 3.7-3.1 1.6-5.9 2.5 -1.7 0.5 2.6 4.7 3.9 4.3 -0.8 0.2 1-2.6 1.1-2.2 -0.2 2.2 0.4 2.8 1.7 1.9 0.5 1-1.5 1.9-1.8 2.6 2.2 1.1 4.6-0.1 2.6-1.6 1.6-0.8 4.3 1.6 4.3 3.1 -1.5 0.5-3.1 0.5-4.7 0.2 4.6 0.9 11.3 4.5 10.9 8.6 -0.1 0.6-1.8 0.6-4.3 0.2 2.9 0.9 5.4 2 6.8 3.3 4.9 4.5 3.2 9.3 3.2 16 -3.3-1.4-6.5-3.1-9.6-4.9 1.6 1.2 3.2 2.4 4.6 3.6 5.9 5.3 4.5 8.4 4.5 16.4 -2-0.8-4-1.6-6-2.4 2.1 1 4 2.2 5 3.6 1.4 1.8 0.4 2.7 1 5.1 1.7 6.5 1.1 8.1-4.9 4.1 1.6 1.6 3.2 3.2 4.9 4.9 -8.6-3.6-15.8-6.2-25.1-7.6 5.3 1.5 16.1 3.2 20.3 6.7 5.1 4.3 3.9 6.7 3.9 14 -3.7-2.1-7.4-4.2-11.1-6.3 13.2 9.8 11.2 18.2 11.8 34 -3.5-2.3-6.9-4.6-10.4-7 9.5 8.8 9.6 10.1 9.1 23 -4.2-3.4-8.3-6.9-12.5-10.4 7.8 8.2 12.4 10.9 12.4 22.1 0 13-0.6 26-0.9 39 -0.6 19.6-1.3 39.2-2.1 58.7 -0.4 0-0.8 0.1-1.3 0.1 -2.9 0-5.5-0.5-8.2 0.8 -2 1-3.4 3.2-5.4 4 -6.2 2.4-15-2.4-21.2-2.6 -6.6-0.2-13.5 1.2-20 2.1 -3.1 0.4-6.8 1.7-9.8 1.8 -2.7 0.1-5.1-1-7.8-1.2 -5-0.4-8.7 0.3-12.4 3.8 -2.7 2.6-3.3 4.7-6.7 5.6 -3.1 0.8-5.8-0.6-8.5 1.8 -2.8 2.4-2.8 5.6-6.2 7.6C14.6 406.3 0 412 0 412l0 126h1680V419.9C1680 419.9 1668.7 419.8 1662.9 419.8zM1608.3 122.5c-0.2 1.1-1.5 1.3-0.5-0.3 -0.9 0-1.7-0.3-2.5-0.8C1608.8 117.5 1611.4 125.4 1608.3 122.5zM1409 97.3C1408.8 97.7 1408.8 97.6 1409 97.3c-0.9 1-2.2-2.5-2.6-3.3 -0.6-1.3 5.7-2.7 2.7 3C1409.2 97 1409.1 97.1 1409 97.3zM1414.2 112.5c-0.3 0.3-2.8 1.6-3.5 2.1 0.6-0.5-3.1-4.3 1.6-3.9C1413.1 110.8 1415.3 111.4 1414.2 112.5zM1419.1 122.4C1419.1 122.5 1419 122.5 1419.1 122.4c-2.2 0.7-1 0.9-0.9 2.6 0-0.3-2.1 0.7-2.2 0.9 -0.9-1.5 1.3-5.3 1.4-5.8 0.3 0.1 1.3 0.5 1.9 0.7C1419 121.3 1419.5 122.3 1419.1 122.4zM1429.6 138.6c0 0 0 0.1 0 0.2 0 0.1-0.1 0.1-0.1 0.1 -1.3 3.5-1.6-5.4-1.3-3.9C1428.9 138.5 1430.9 134 1429.6 138.6zM1196.4 154.6c0.1-0.1 0.2 0.4 0.1 0.8C1196.5 155.1 1196.3 154.6 1196.4 154.6zM1196.5 155.5C1196.6 155.5 1196.6 155.5 1196.5 155.5 1196.6 155.5 1196.6 155.5 1196.5 155.5zM1188.5 82.1c0.3 0.7 0.6 1.4 1 2 -0.4 0.5-1 0.7-1.6 0.9 -0.1-0.4-1-2.2-1-0.8C1186.7 83.4 1187.7 81.4 1188.5 82.1zM1178 99.5c2.2-2.4-0.8 4.4 0.7 4.8 -1.1-0.5-1.6 1.4-3.3 1.5 -1.3 0-2.1-5.2-1.9-7 0 0.3 1.2 1.1 1.3 1.2 0.4 0 0.8-2.5 0.7-2.5C1176.6 97.9 1177.4 98.6 1178 99.5zM1178.1 54.1c-0.4 0.6-0.8 1.1-1 0.4C1177.1 54.5 1177.5 54.3 1178.1 54.1zM1177.2 59.4c3.6 1.6-1.2 3.1-2.8 2 1.7-1.8-1.2-0.6-1.2-0.6C1171.8 59.5 1177.3 59.4 1177.2 59.4zM1151.3 80.3c0 0-0.1-0.1-0.2-0.2 0.5 0 0.1-1.1 0.1-1.1 0-0.5 5.7 1.2 5.9 1.3 -0.6 0.2-1.1 0.6-1.6 1 0.6 1.5 2.2 2.1 4 4.2C1152.3 89 1156.5 83.7 1151.3 80.3zM1149.8 114c-0.1-1.7 3.3 2 3.5 2.2C1151.3 116.8 1150.1 116.1 1149.8 114zM1153.5 113.2c1.1 0.5 2.2 0.9 3.3 1.4C1157.7 116.8 1153.6 115.1 1153.5 113.2zM1157.3 113.7c-1-0.3-1.9-0.6-2.9-1 -1.4-0.6-4.3-1.8-5-2.1 0.2 0.1-2.8-1.5-2.9-1.6C1149.2 108.9 1157.9 108 1157.3 113.7zM1165.9 104.7c0-1 0.2-1.9 0.9-3.6 -0.4 0.5-1 1.1-1.7 1.6 -2.1 1.8-4.1-7.6-4.6-6.9 -0.9 0-1.8-0.3-2.6-0.8 2.4-2.6 10-0.9 10.2 2.9 0-0.1 0.1-0.1 0.1-0.2 0.7 2.6 1.6 5.2 1.7 7.8C1168.1 105 1167.3 105.5 1165.9 104.7zM1170.1 47.7c3.3-1.1 3.1 2.5 5.2 2.5 -0.5 0-0.8 0.2-1.2 0.5 0.4 0 0.9 0 1.3 0 -0.4 0.3-2.9 2.8-4.4 4.2 0.6-1.5 1.3-3.4 1.5-3.6C1171.5 51 1167.6 48.5 1170.1 47.7zM1170.2 55.6c-0.1 0.1-0.2 0.2-0.2 0.1C1170.1 55.7 1170.1 55.6 1170.2 55.6zM1170.1 56.9c0.1 0 0.4-0.6 0.7-1.5C1171.9 55.4 1170.7 58.4 1170.1 56.9zM1171.4 81.8c0.1 0 0.2 0 0.3 0C1171.5 81.8 1171.4 81.8 1171.4 81.8zM1171.7 81.8C1171.7 81.8 1171.7 81.8 1171.7 81.8 1171.7 81.8 1171.7 81.8 1171.7 81.8 1171.7 81.8 1171.7 81.8 1171.7 81.8c-2 0.1-0.2-5.9-0.8-6.1C1172.4 76 1176.4 81.6 1171.7 81.8zM1173.1 116.4c0.5-0.1 6.1-1.2 6.1 0.8 0.2-0.6 0.6-1.3-0.1 0.6C1177.6 117.8 1173 117.3 1173.1 116.4zM998.9 383.8c0 0.1 0 0.2 0 0.2C999 384 999 383.9 998.9 383.8zM942.9 133.2c-0.4 1-0.7 2-0.9 3 0.6-0.9 6.9 2 6.8 2.7 0.2-0.4 0.8-1.6 0 0 0 0 0 0.1 0 0 -1.5 2.2-6-0.5-6.8-1.9 0.3 5.1-2.9-0.7-2.4-1.4 0.7-0.5 1.2-0.5 1.7-0.1 -1.2-1.7-0.8-0.6-3-1.7C936.5 133.2 943.6 133.2 942.9 133.2zM893.4 151c0.5-0.5 6.6 0.7 6.4 1.8C897.9 153.5 891.7 151 893.4 151zM899.2 155.9C899.2 155.9 899.2 155.9 899.2 155.9 899.2 155.9 899.2 155.9 899.2 155.9 899.2 155.9 899.2 155.9 899.2 155.9c-0.3 0.2-2.1 1.5-1.8 1.5 -1.2 0-2.4-0.9-1.7-2.3C896.5 152.9 903.6 155.1 899.2 155.9zM920.2 131c3 0 8.7 2.4 8.2 5.3 -0.4 2-4.2 3.1-5.8 2.9 -2.3-0.3 0-3.1-0.4-4.1C922.2 135.4 915.6 131 920.2 131zM917.2 160.5c-9.5 2.4-2.8-6.2-4.6-8.8 -0.4 0.8-1 1.1-1.8 0.9 0.7-1.3-2.3-6.1 0.9-7.7 1.3-0.7 3 3.3 3.6 5 -0.2-0.7-0.1-1.5 0.1-2.2 0.1-0.1 3.4 0.4 3.8-0.5 -0.3 1.1-2.3 4.9-2.5 4.7 2.3 2.1 4.9-0.2 6.9 1.5 0.5 0.5-5.5 2.7-5.3 2.6 -0.6 0.5 2.1 3.4 2.4 3.5C919.5 160.1 918.4 160.4 917.2 160.5zM930.4 175.4c-0.3-0.1-0.4-0.2-0.5-0.4 -0.8-0.7-1.7-1.3-2.5-2 1.5 1.4 2.3 3.1 2.6 5.2 -2.9-1.8-7.4-3.6-8.4-4.6 0.6-1 0.3-2-0.9-2.8 0-0.9 3.2-0.2 3.6-0.4 1-0.7-5-6.5 1-5.2C929.4 165.9 930.6 171.4 930.4 175.4zM930.2 133.1c-2 0-13.2-4.5-10.2-6.7 -1 0.7 5 2.2 4.7 2.2 0.6-0.5 0.3-0.8-0.9-0.8 2.5-1.6 1.7 1.7 2.2 2.8 -0.1-0.2 3.5-3.1 5-0.8C931.3 131 931.1 132.1 930.2 133.1zM168.5 138.6c0.2 1.5 0.2 2.9 0 4.4 0 1.1-1.8-3.1-3.9-1.7C165.8 140.4 168.4 138.5 168.5 138.6zM160.8 138.1c0 0.5 3.9 0.3 3.8 1 -1.2 0.7-2.4 0.7-3.6 0 -0.7 0.3-1.3-0.2-1.8-1.4C159.1 137.1 160.8 137.7 160.8 138.1zM164.4 141.5c-0.1 0.1-0.1 0.1-0.2 0.2C164.2 141.7 164.3 141.6 164.4 141.5zM156.6 134.5c-0.3 0.2-0.5 0.3-0.6 0.4 0.1 0.1 0 0.3-0.3 0.9 -0.6 1.1-9.3-3.1-9.1-4.1C147.7 132.1 157.7 133.8 156.6 134.5zM152.3 139.1c-0.8-0.1-1.6-0.3-2.2-0.8 -0.4-1.1-1-2.1-1.8-2.9C152.7 133.9 150.7 137.4 152.3 139.1zM149.6 139.1c-0.7 1.4-8.2-2.1-7.6-3.9 1-0.1 1.8 0.3 2.4 1.3 -0.1-0.6-0.3-1.1-0.8-1.4C144.7 135.6 150.8 136.7 149.6 139.1zM141.9 148.9c-4.1 0.7-2.8-5.3-3.3-8.8 0.4 0.2 7.1 7.5 5.6 8.4C144.8 148.2 139.8 148.4 141.9 148.9zM140.8 153.1c-0.1 0.2-0.2 2.6-1.2 1.4 -0.6-1.3-0.5-2.4 0.5-3.4C140.3 151.8 140.5 152.5 140.8 153.1 140.7 153.1 140.7 153.1 140.8 153.1zM141.9 142.9c-0.6 0.6-2.4-4.1-3.3-6 1.6 1.7 4.3 2.3 5.9 4.5C142.3 139.9 142.9 141.9 141.9 142.9zM140.9 129.8c-0.4 0.2-1.9 1 0.1 0 0 2 6.6-0.4-2.4 3.7C137.8 131.2 138.6 130 140.9 129.8zM138.1 136.3C139.3 138 138.3 138 138.1 136.3L138.1 136.3zM133.2 134.9c0 1.2 0 2.2 0 3.3C131.7 137.5 129.7 135 133.2 134.9zM128.7 140.4c0.7-0.3 4.2 0.1 4.3 0.1 0 2.6 0 5.2 0 7.7 0.3 0.4-1.4-1.4-1.4-1.4C132.7 147.9 127.1 141 128.7 140.4zM122.8 136.7c3.1-6.1 8.4 8.9 1.9 3.7C124.3 140 122.7 136.9 122.8 136.7zM123.9 150.9C123.9 151 123.9 151 123.9 150.9 123.6 149.6 123.8 150.5 123.9 150.9c-0.3-1.3 2.5 0.4 2.4-2.1 -0.1-2.3-4.3 0.4-5-0.3 -0.4-0.5-0.3-0.8 0.4-0.9 -1.2-1.4-3.7-8.2-3.5-8.3 2.6 0 8 5.5 3.7 6.2 4.2-0.6 7-0.7 7.4 2.7C129 147.3 125.2 155.9 123.9 150.9zM127.6 156.9c-0.6-0.6-1.2-1.1-1.8-1.7 1-0.5 2-2.5 3.3-2.3C130.9 153.4 128.9 158.1 127.6 156.9zM128.1 163.4c0.8 0.2 3.2-1.6 5.8 1.7C132 164.6 130 164 128.1 163.4zM130 159.1c0.2-0.7 1.9-4.3 3.4-3.1 -0.5 0.5-0.9 1-1.2 1.6 0.2 0.1 2.2 3.9 2.5 5.7C133.1 161.9 131.5 160.5 130 159.1zM170 375.6c-1.1 0.4-3.5 2.2-4.4 2.1 -1.7 0-3.3-2-5-2.4 -2.5-0.6-4.8-0.7-7.2-1.5 -4.8-1.5-10.3-0.2-15.4 1.7 -0.4 0.1-0.7 0.3-1.1 0.4 0.2-3.5 0.3-7 0.5-10.4 0.7-19.5 0.8-39.1 1.1-58.7 0.6-39.2-0.4-78.6 1.4-117.8 4.2 0.5 8.3 1 12.5 1.4 -15.7-3.3-14.5-7.5-3.4-17.3 -3.2 2.3-6.5 4.6-9.7 7 0.4-6 0.7-12.1 0.7-18.1 5.4 1.7 11 3.4 16.7 4.2 -2.1-0.6-19.4-7.4-16.4-8.1 0 0 2.7 1.6 3.1 1.8 0.7-1.3 2.3-4.2 5.5-1.1 -1.9-1.8-1.9-0.6-1.7-3.5 -0.2 2.6 4.9-0.7 5.7-1.4 0.1 0.9 1.6 4.6 2.3 3.5 -0.4 0.4-1.6-4.4-1.7-5.4 0.3 0.7 3.3 2.9 3.9 4 0.7 1.3 1.3-4 2.3-2.4 0.1 1 0.6 1.9 1.4 2.6 1.6 0.3 0.3-4.6-0.3-5.5 0 0.1 2.2 3.1 3 3 0.7-0.2 0.7-0.6 0.5-1.1 2.4 2.6 8.7 7.5 1.1 10.8 5.5-1 3.8 1.5 4 6.7 0.2 5.3 2.9 8.8-3.5 4.5 7 7 5 19.7 5.7 29.1 1 15 1.4 30.1 1.8 45.2 0.6 23.2 0.3 46.4 0.4 69.6 0.1 18.7 0.1 37.5 0.1 56.2C172.6 374.9 171.1 375.2 170 375.6zM177.8 174.3c-0.6 8.9-0.9 17.9-1.4 26.8 -0.7-8.7-5-24.6-2.4-32.6 2.8-8.4 3.9 2.3 3.8 5.4C177.8 173.8 177.8 173.8 177.8 174.3zM178.1 165.1c-1.6-1-3.2-1.9-4.7-2.9 -0.5-1.8-0.2-2.5 0.8-2.3 -0.6-0.6-0.9-1.4-0.9-2.5C178.3 161.5 178.1 159.9 178.1 165.1zM179.1 155.6c-3.9 1.1 1 4.4-4.6 0.2 3-0.4 2.3-0.7 5-2.2C179.4 154.3 179.3 155 179.1 155.6 179.2 155.6 179.2 155.6 179.1 155.6zM178.5 149c0.2 0-1.7-1.7-1.6-1 0 0-0.8 3-0.3 3.8 -0.5-0.3-1-0.5-1.5-0.7 0.5 0.6 0.6 1.3 0.3 2.1 -0.5-0.4-1-0.7-1.7-0.7 1.2 0.5 1 1-0.4 1.4 -0.2-5.7-0.3-11.3-0.6-17 0.9 0.4 8.4 2.3 6.8 4.3 -5.2-1.7-0.4 4.9 0.3 6.5 0 0 0.1 0.1 0.1 0.2C179.1 148 179.2 149 178.5 149zM179.2 133.3c-1.2 0-0.2 4 0 4.3 -2.2-0.2-4.3-0.6-6.3-1.2 0-0.7 0.2-1.2 0.7-1.6 1 1.1 2.2 1.3 3.5 0.8 0.4-1.2-0.1-1.8-1.5-1.9 0.5-0.2 3.2-0.2 3.3-0.5 -0.5-0.8-1.2-0.9-2-0.3 0.6-0.7 0.8-1 0.8-1 0.1 0 0.5 0 2.5-1.2 0.3 1.9-1.1 1.7-1 2.4C179.2 132.6 181.8 134.6 179.2 133.3zM181.3 118.6c0.1-0.1-2.3 3.1-2.9 2.2 -0.1-0.2 1.3-3 0.3-3 -0.6 0.4-1.2 0.7-1.9 0.8 -0.1 0.4-0.2-6.1 1.5-4.3 1.4 1.4-1.2 1.6-1 1.8 1.6 1.6 7.5 0 5.2 4.5 -0.1-0.1-0.1-0.1-0.1-0.1C182.3 119.6 181.9 119 181.3 118.6zM326.2 155.7c0.3-0.1 0.3-0.1 0.2 0 1.6-0.2 5.6 1.6 6.8 1.7C332.7 157.5 321.3 160.6 326.2 155.7zM330.8 206.3c-0.6 9.5-1 19.1-1.5 28.6 -0.7-9.3-5.4-26.2-2.6-34.7 3-9 4.2 2.4 4.1 5.8C330.8 205.8 330.8 205.8 330.8 206.3zM331.2 196.6c-1.7-1-3.4-2-5.1-3.1 -0.5-1.9-0.2-2.7 0.8-2.4 -0.7-0.6-1-1.5-0.9-2.7C331.3 192.6 331.2 191 331.2 196.6zM332.2 186.4c-4.1 1.2 1 4.7-4.9 0.2 3.2-0.4 2.4-0.7 5.3-2.4C332.5 185 332.4 185.7 332.2 186.4 332.3 186.4 332.3 186.4 332.2 186.4zM331.5 179.4c0.2 0-1.8-1.8-1.8-1.1 0 0.2-0.9 3.2-0.3 4 -0.5-0.3-1-0.5-1.6-0.7 0.5 0.7 0.6 1.4 0.4 2.2 -0.5-0.5-1.1-0.7-1.8-0.7 1.3 0.5 1.1 1-0.5 1.5 -0.2-6-0.4-12.1-0.6-18.1 1 0.4 8.9 2.5 7.3 4.6 -0.6-0.3-1.2-0.6-1.9-0.7 0 3.8 2.2 5 2.2 7.9C332.1 178.3 332.3 179.4 331.5 179.4zM332.3 162.6c-1.3 0-0.2 4.2 0 4.6 -2.3-0.2-4.6-0.6-6.8-1.3 -2.1-2 6.5-3.5 6.4-3.4 -0.6-0.8-1.3-1-2.1-0.4 1.2-1.4 1.3-1.1 3.5-2.4 0.3 2-1.2 1.8-1.1 2.6C332.3 161.9 335 164 332.3 162.6zM334.6 146.9c0.1-0.1-2.8 3.2-2.4 3.2 -1.8-0.4-2.5-1.4-3.4-1.1 0.4-0.1 0.1-3.6-0.2-5 0.6 1.2 2.2-2.4 2.8-1.8 0.2 0.5 0.2 1 0.2 1.5 2 0.6 5.6 2.5 4.2 5.3 -0.1-0.1-0.1-0.1-0.1-0.2C335.6 148 335.2 147.4 334.6 146.9zM939.7 414.5c-0.1 0-0.2 0.1-0.3 0.1 -0.1-4.8-0.1-9.6-0.2-14.4C940.3 404.8 941.6 410.1 939.7 414.5zM960.6 403.5c-0.1 0.2-0.6 1.8-1 3.4 -6.4 2.7-13 5-16 6.3 -1-5.4-1.5-10.6-1-16.1 2.4-1.5 8.5-7.4 11.5-6.6C956.6 391.3 962.2 400.9 960.6 403.5zM962.1 405.8c0.9-2.4 2.3-5.1 2-7.8 -0.3-2.2-1.9-3.7-1.8-6.1 2.7 1.9 9 5.3 9.3 8.7C967.8 402.9 964.7 404.6 962.1 405.8zM1011.8 397.4c1.7-5.3 5.8-16.7 11.6-18.2 0.4 5 1.2 10.1 1.3 15.2C1020.4 395.4 1016.1 396.4 1011.8 397.4zM1029.6 393.3c-1.1 0.2-2.2 0.5-3.2 0.7 -0.8-6.2 0.7-11.9 0.9-18.1 0 0 1.4-1.4 2.5-2.4C1029.7 380.1 1029.7 386.7 1029.6 393.3zM1030.5 126c0.3-0.1 0.3-0.1 0.2 0 1.5-0.2 5.3 1.5 6.6 1.6C1036.8 127.8 1025.8 130.8 1030.5 126zM1034.9 174.6c-0.6 9.1-0.9 18.3-1.5 27.4 -0.7-8.9-5.1-25.1-2.5-33.3 2.8-8.6 4 2.3 3.9 5.6C1035 174 1035 174 1034.9 174.6zM1035.3 165.2c-1.6-1-3.2-2-4.9-2.9 -0.5-1.8-0.2-2.6 0.8-2.3 -0.6-0.6-0.9-1.5-0.9-2.5C1035.4 161.4 1035.3 159.9 1035.3 165.2zM1035.6 148.7c0.2 0-1.7-1.8-1.7-1 0 0.2-0.9 3.1-0.3 3.9 -0.5-0.3-1-0.5-1.5-0.7 0.5 0.7 0.6 1.4 0.3 2.1 -0.5-0.4-1-0.7-1.7-0.7 1.2 0.5 1.1 1-0.5 1.5 -0.2-5.8-0.3-11.6-0.6-17.4 0.9 0.4 8.5 2.4 7 4.4 -5.4-1.8-0.4 5.1 0.3 6.6 0 0 0.1 0.1 0.1 0.2C1036.2 147.7 1036.4 148.7 1035.6 148.7zM1036.4 132.7c-1.2 0-0.2 4.1 0 4.4 -2.2-0.2-4.4-0.6-6.5-1.3 -2-1.9 6.2-3.4 6.1-3.2 -0.5-0.8-1.2-0.9-2-0.3 1.2-1.5 1.2-1 3.4-2.3 0.3 1.9-1.2 1.7-1 2.5C1036.4 132 1039 134 1036.4 132.7zM1038.5 117.6c0.1 0-2.7 3-2.3 3 -1.8-0.4-2.4-1.3-3.3-1 0.3-0.1 0.1-3.5-0.2-4.8 0.6 1.2 2.1-2.3 2.7-1.7 0.2 0.5 0.2 0.9 0.2 1.4 1.9 0.5 5.4 2.4 4.1 5 -0.1-0.1-0.1-0.1-0.1-0.2C1039.5 118.7 1039.1 118.1 1038.5 117.6zM1440.5 129.4c0.5 0 0.8-2.5 0.8-2.5 0.8-0.8 2.7 3.6 3 0.9 0 0.3-0.2 5.6 0.1 5.6 -1.2-0.5-1.3 0.9-3.2 1.5 0.2 0-2.2-2.8-2.8-3.1 -0.5 0.5-0.9 1.2-1 1.9 0 0 0 0.1 0 0.1C1433.7 129.5 1439.6 129.5 1440.5 129.4zM1442.9 368.4c-2.2 3-5.1 4-9.6 3.9 -0.3-2.9-0.7-5.6-0.7-7.5 -0.2-13.8-0.4-27.5-0.6-41.3 -0.7-42.6-0.5-85.8 3.9-128.1 -1 43.7 3.3 87.1 5.3 130.7 0.6 13.3 1.2 26.6 1.7 40C1442.9 366.7 1442.9 367.5 1442.9 368.4zM1645.7 102.9c2.8-1.8 1.9 1.8 2.4 3 -0.1-0.2 3.8-3.4 5.5-0.9 0.4 1.4 0.1 2.6-0.8 3.7 -2.2 0-14.5-4.9-11.2-7.4 -0.9 0.6 4.8 2.4 5.5 2.4C1647.2 103.1 1646.8 102.8 1645.7 102.9zM1652.4 158.4c-3.8-2.4-8.2-4.4-9.9-7.4 0.2-0.3 1.4 0.2 1.6 0.1 -0.3-0.2-0.6-0.5-0.9-0.7 0.9-0.1 1.6 0.2 1.9 1.1 0.7-0.1 1.3-2.7-0.2-4.3 -1.1-0.5 3.2 1.4 2.2 0.3 0 0-1.6-1.3-1.3-1.7 0.6-0.6 3.2 3 3.5 3.5 -0.2-0.5 2.2-1.1 2.3-1.7 0.9 2.5 1.4 5 1.4 7.6 0 0.1 0 0.2 0 0.3 -0.5-0.1-0.7-0.3-0.6-0.5 -0.9-0.7-1.8-1.4-2.7-2.2C1651.2 154.2 1652.2 156.1 1652.4 158.4zM1644.7 114.4c0 0-0.2-0.1-0.4-0.2 -0.1 0-0.1 0 0 0 -2.7-1.2 1-0.3-0.4-3.2 0 0-8.5-8.4 2.6-3 7.2 3.5 2.5 8.5-2.3 6.3C1644.4 114.3 1644.6 114.4 1644.7 114.4zM1638.3 96.7C1638.3 96.6 1638.3 96.6 1638.3 96.7c0.1-0.5 4.3 1 3.8 2.7 -1.3 0.3-2.5 0.5-3.8 0.6 -0.4-0.3 1.2-0.9 1.1-0.9 -0.6 0-1.1 0-1.7 0.1C1637.6 99.2 1638.3 96.7 1638.3 96.7zM1632.4 135.1c1.2-0.4 2.2-1.1 3-2 -0.3 0-2.7-1-2.3-1.2 0.8-1.6 11.1-1.6 12.3-0.6 1.5 1.4-4.9 1.7-3.5 2.2 0.1 0.1 0.1 0.1 0.1 0.2 0.7 1.1-0.9 0.7-1.9 0.5 0.5 0.6 0.6 2.7 0.4 3.2 0.6 0.1 1.2 0.3 1.7 0.6 0 0.2-10.7-0.2-10.9-1.6 0.2 0 2.4-0.4 2.3-0.9C1633.2 135.3 1632.8 135.2 1632.4 135.1zM1655.6 419.7c-3.1-0.1-6.5-0.2-10.2-0.4 -3.2-0.2-6.4-0.5-9.6-0.8 0.2-3.2-0.2-6.6-0.2-7.8 -0.4-8.3-0.8-16.6-1.2-24.9 -0.8-16.7-1.9-33.5-3.1-50.2 -1.4-18.4-3.1-36.7-3.8-55.1 -0.3-8.3-0.3-16.6-0.6-24.9 -0.3-9.2-0.5-7.8 4.1-14.6 -8.8 5.6-5.7-6.5-0.9-9.7 -5.2 2.6-3.3 0-4.3-4.5 -0.7-3.3 3.2-3.3 5.2-4.8 -8 2.6-5.8-10.3-6.2-16.5 -0.7-9.7-0.3-13.3 9.5-17.4 -3.5 1.3-6.9 3-9.9 5.2 0.1-1.4 0.6-2.5 1.5-3.5 -6 5 2.3-9 2.8-10.4 -1.1 2.2-2.8 3.5-5.2 4.1 -0.3-4.1-0.6-9.2 0.3-12 0.7-2.3 2.9 2.4 3.2 1.4 0-0.1 0.4-3 0.6-3.6 -1.2-1.1-3.6-2.2-4.7-3.3 1.7-0.6 7.2 1.7 8.2 0.9 0 0 0.3-2.3-0.6-2.7 1.2-0.9 4-0.1 4.9 1.1 4.4 5.7-2.3 6.4 0.8 4.8 -4.6 1.5-4.1 1.3-7.2 4.7 -2 2.2-3.4-1.8-3.8 3 -0.2 2.1 3.6 0.7 4 1.2 2.3 4.3 0.3 3 6.3 6.2 1.3 0.7 1.1 5.6 5.3 2.9 -0.6 0.4-1.1 0.8-1.5 1.4 -0.8 2 2-0.9 2.8-1.9 -0.2 1.4 0.3 2.5 1.5 3.2 2.4 0 1.9-2.9 4.7-2.9 -0.1-1.2-0.4-2.3-0.8-3.4 1.4 4.1 2.2 7.9 5.7 3.2 0 12.4 1 11.9-11.4 11.9 12.5 2.1 11 2.3 11.7 14.4 -3.3-1.1-6.6-2.2-9.9-3.4 5.3 2.7 8.4 3.4 10.1 9 2.3 7.8-0.2 8.9-6.6 6.8 10.9 8.2 7.3 20.8 7.5 34 0.2 11.3 0.5 22.7 0.7 34 0.5 24 0.6 48.1 0.9 72.1 0.1 13 0.2 26.1 0.3 39.1C1656.4 408.9 1655.3 414.9 1655.6 419.7z"/></svg>