<svg version="1.1" xmlns="http://www.w3.org/2000/svg" x="0" y="0" width="100%" viewBox="0 0 1680 454" enable-background="new 0 0 1680 454" xml:space="preserve"><polygon fill="#2D5B61" points="873.5 93.9 873.5 93.9 873.5 93.9 "/><polygon fill="#2D5B61" points="873.5 93.9 873.5 93.9 873.5 93.9 "/><path fill="#2D5B61" d="M1659.5 311c-12.1-6.8-4.9-94.4-5.3-117.2 -0.2-10.7-0.7-69.3 0.9-71.1 0.2-0.3 5.9 1.2 5.1-0.3 -0.2-0.2-4.9-2.6-6-2.9 1.5 0.2 3.1 0.1 4.6-0.1 -0.4-0.8-0.7-1.6-0.9-2.4 0.5 1.1 3.2-1.2 3.5-1.2 -0.8 2 0.9 1.1 1.7 2.2 -2.1-3.9 1.2-1.6 1.1-1 0.7-0.1 1.3-0.5 1.7-1.2 -1 1.1-0.9 2 0.3 2.6 0.9-1.1 1.1-2.4 0.9-3.8 3.2 1.7 3.7-2.9 7.2-1.6 -2-0.8 0.4-3.2-2.8-0.8 1.6-1.5 0.8-3.7-0.1-4.6 0.1 0.1-6.2 0.4-2.9-0.5 -2-0.1-6.9-2.5-7.8-3.1 -1.6 4.4-4.8-1.3-5.6-3.9 2.1 2.5 2.6-0.7 4.8 0 -1.2-1-2.4-2-3.7-3 1.1 0.9 1.1-1.8 0.8-2.7 3 3.2 8 10.9 10.9 11.6 -0.3-0.2 4.3-0.8 4.3-2.2 0.1-0.6-3.5-0.6-3.9-0.6 1.7-0.8 3.1-2 4-3.7 -0.4 0-4.3-0.5-4.8-0.3 0.3-3.1 2-1.1 0.9-3 2.8 0.2 8.7-0.9 5.3-1.1 -0.5 0.4-1 0.7-1.7 0.7 -0.6-0.5-0.3-1.8 0.5-1.7 -0.2 0-5-3-4.6-3.2 -0.8 0.4-4.5-1.6-3.6-2.8 0.8 0.4 5.4 1.2 5.5 2.5 -0.3-1-0.1-1.7 0.8-2.3 1.4-0.5-5.7-1.8-8.3-2.3 2.1 0.1 7.2-0.5 7.8-1.2 1.6-1.9-3.3-4.2-4.6-4.1 0.9-0.8 1.3-1.7 1.2-2.9 -2.1-0.6-4.2-0.5-6.3 0.1 0.6-0.9 1.4-1.6 2.3-2.2 -0.1 0-8.6-1.2-8.7-2.2 0-0.7 6.4 0.2 7 0.6 -0.2-0.4-1.6-2.5-2.7-2.8 2-0.2 6.6 0.6 7.2 0.5 -1.6-0.2-3-0.8-4.2-1.8 0-1.9 2.4 0 3-0.9 0.9 0.5-6.5-4.4-5.8-5.6 -1.3 1.3-2.8 1.5-4.4 0.6 4.6-1.2-4-4.1-5.3-4.1 -0.6 0-7.4 2.6-7.7 2.9 -1.8 2.3 5 1.1 5.2 1.7 -0.9 0.1-4.8 0.6-2 2.2 -1-0.2-2-0.3-3-0.3 3.7 2.3 1.1 1.1 0.5 1.3 0.4-0.1 4.4 1.5 4.5 1.9 -1.6-1.6-8.2-1.6-9.4 1 0.7-0.8 3.6 1.2 4 1.2 -0.8 0-7.4 4-7.4 4.6 0 2.5 15.3 1.1 14.9 3.9 -1.4-1.5-3.3 0.7-3.5 1.9 -0.2 1.2 3.6 1.2 4 2.3 -0.6-0.1-7.5 0.2-7.5-0.6 0.4 1.3 1.3 2.1 2.7 2.4 -1 1.1-3.9 0.4-3.7 1.2 -0.9-1.2-4.1-2.8-5.2-2.5 -1.9 0.5 1.4 3.6 1.5 4.1 -1.7 1.7-3.2-4.7-5.1-0.3 -1.4-0.1-2.6-0.6-3.6-1.6 0.1-2.7 3.8-0.9 3.4-4.9 -0.1-1.3-2.9-5.9-5.1-4.5 0.1-0.5 5.6-2.9 3.8-3.5 -0.7 0-1.4 0-2.1 0.2 -0.2-1.3 3.3-2.1 2.6-5.3 0-0.1-2.6-6-4.6-4 0.2 0.2 0.9-6.4-1-8.3 -3.6-3.7-7-2.2-9.7-7.2 -0.7 2-10.2 4-11.5 3.8 -2.6-0.5-2.7-0.1-4.6-3.4 -1.6-2.7 0.6-5.6-2.4-8.3 -2.8-2.5-7-1.2-10.5-4.7 0.1 0.2-1 2.8 0 3.1 -0.9 0.2-1.7 0.2-2.6 0.1 -1.4-0.4-2.4 4.1-1.6 5 -0.7 0.5-1.5 0.6-2.3 0.2 2.3 2.2-0.6 1.8-1.4 1.7 0.2 0 1.4 1.4 0.6 1.9 0.4-0.4-3-1.3-3.6-0.4 3-4.4 0.5-2.8-4.1-2.8 0.6-0.9 1.4-1.6 2.3-2.2 -0.1 0-8.6-1.2-8.7-2.2 0-0.7 6.4 0.2 7 0.6 -0.2-0.4-1.6-2.5-2.7-2.8 2-0.2 6.6 0.6 7.2 0.5 -1.6-0.2-3-0.8-4.2-1.8 0-1.9 2.4 0 3-0.9 0.9 0.5-6.5-4.4-5.8-5.6 -1.3 1.3-2.8 1.5-4.4 0.6 4.6-1.2-4-4.1-5.3-4.1 -0.6 0-7.5 2.6-7.7 2.9 -1.8 2.3 5 1.1 5.2 1.7 -0.9 0.1-4.8 0.6-2 2.2 -1-0.2-2-0.3-3-0.3 3.7 2.3 1.1 1.1 0.5 1.3 0.4-0.1 4.4 1.5 4.5 1.9 -1.6-1.6-8.2-1.6-9.4 1 0.7-0.8 3.6 1.2 4 1.2 -0.8 0-7.4 4-7.4 4.6 0 2.5 15.3 1.1 14.9 3.9 -1.4-1.5-3.3 0.7-3.5 1.9 -0.2 1.2 3.6 1.2 4 2.3 -0.6 0-7.5 0.2-7.5-0.6 0.4 1.3 1.3 2.1 2.7 2.4 -1 1.1-4 0.3-3.7 1.3 -0.9-1.2-4.8-3.5-5.9-2.8 0.6-0.3 1.8 3.1 2.1 4.1 -0.9-0.6-6.3-0.9-7.6-1.1 1 0.4 1.9 1.1 2.6 2 -0.7 0.2-6.3 3.7-6.5 2 0.2 1.3 5.5 4.9 1.5 3.7 0.1 0.1 8.9 2.4 7.8 3.4 -0.6 0.5-2.9 0.9-3.6 1.3 -2.4 1.4-1.2 1.4-5.3 1.8 -1.3 3.9 5.4-1.2 3.3 2.9 1.1-1.6 8.6 0.1 8 1 -3.1-0.9-5.4 2.8-8.4 0.4 0.7 0.8 0.1 4.1 2.2 3 -0.5 0.4-0.6 0.9-0.4 1.5 0.1-0.3-3.9-0.2-4-0.2 -0.7 0.5 2.1 2 1.3 2.8 -2.3-2.2 0.1 1.2-0.9 0.3 0.4 0.7-0.1 1-1.5 0.9 5.2 1.7 5.6 3.9 7.9-0.2 0.5 0.1 10.8 2.4 5.6-1.1 1 0.2 2 0.4 2.9 0.7 0-0.8-0.2-1.5-0.7-2.2 0.8 0.2 1.2 0.6 1.3 1.3 0.3-1.1 6.7-6.5 6.3-5.1 -0.3 1.1-1.1 1.9-1.5 0.8 0.4 1.1-0.4 3.1-0.9 4.7 2.7-3.4 4.1 4.2 1.4 2.5 1 1 1.4 2.2 1.1 3.7 -1.7-2.7-2.3-1.3-2.1 0.9 -0.1-0.7-0.3-1.3-0.7-1.8 0.2 0.7 0.2 1.2 0.3 1.5 2.6 2.9-7.9 13.2-8.2 12.4 0.4 1.3 4.2 1 5.1 1.5 -0.3-0.1-2.7 1.2-4.4 1.7 2.1 1.3 5.1 4.1 5.2 4.2 1.2-2.3 6.2-2.3 6.2-4.8 1.1 0.9 1.4 5.5-1.3 4.7 3 1.2 1.5 26.1 1.7 29.7 0.9 16.5 0 33.2-0.1 49.8 -0.3 32.8-2 65.5-2.1 98.3 0-2.7-17.4-3.1-19.4-3.3 -7.1-0.5-18.2-4.2-18.2-4.2s-1.9-19.3-1.7-26.5c0.3-7.2 0.2-14.4 0.2-21.6 0-18.8-0.1-37.5-0.1-56.3 0-3.8-2.7-29.9 1-32.2 -3.9 1.7-0.5-4.4 0.7-5.2 -6 1.7-3.1-17 2.6-19.2 -2 0.7-3.9 1.6-5.7 2.7 0.6-2.7 1.5-5.3 2.7-7.7 -2.8 4.9-2.5-0.1-3.2-1.7 -1.1-2.4 2.4-1.9 2.4-2 0.2-1.8-0.6-3.1-2.2-4 3 0.6 4.3 1 6-2 -0.8 0.3-4-0.3-3.9 0.1 -0.3-0.8 3.6-1.7 4-1.8 -2.1 0.6-5.5 0.3-6.9-1.7 2.7 0.8 3.1-0.7 5.9 1.3 -0.1-0.1-1.5-3.2-0.4-3.1 3.4 0.3 2.8 2.3 1.4 3.9 0.3-0.3 4.8-0.5 4.3 0.8 -0.6 0.6-1 1.3-1.4 2 1 0.8 0.3-1.3 1 1.5 0.5 0.1 2-2 1.1 2 -0.1 0.3-2.6 5-2.7 3.2 0.1 1.1-1.4 3 0.8 3.3 2.7-3.7 0.5-1.1 3.1-0.6 0.3-1.4 0.3-2.9 0.2-4.3 0.2 0.6 2.3 3.4 2.5 3.3 -1.3-1.4 2.7-0.5 2.9 0.4 -0.2-1.2-2.4-5.6-4.3-8 1.1 0.5 4.2 1.1 4.5 0.2 -0.8-1-1.9-1.6-3.2-1.6 4.6 0-4.9-5.8-5.7-6.3 0.7 0.2 1.1-0.1 1.1-0.7 0.2-0.1 2-0.1 2.6 0.1 0.5-1.4-3.5-2-3.6-2 0.1-2.8 5.2 2.4 3.9-1.1 0.8 0.4 1.3 1 1.5 1.8 5.6-2.1-5.7-5-12.1-5.8 2.2-0.9 4.3-2.7 3.3-3.9 -0.4-0.5 3.8-1.1 3.7-1.1 -0.2 0-1.9-0.2-3.1-0.2 1.4-0.8 3.8-2.9 4.2-3.4 0.5 0.6 3.8 3.1 4.1 2.3 -0.8-6.5 1.2 2.3 2.1-2.6 -3.9-0.9 1-0.6 0.3-1.2 -0.9-1-1.7-1-2.5-0.3 0.9-2-5.5-4.6-4.8-4.4 -0.3-1-0.3-1.5-0.1-1.7 -0.4-0.4-0.4-0.7-0.3-1.1 -0.5 0.4-1.2 1-2.4 1.9 1.3-2.7-1.4-3-2.6-0.4 -0.6-1.9-3.4-1.7-3.8-3.1 -0.6-1.9 7.7-1.5 8.8-1.9 -0.1 0.1 5.6-7.4 6.1-6.4 -1.4-3.3-11.2-0.7-12.7-5.3 2.3-0.8 7-0.5 8.4-3.2 -2.1-2.3-4.5-4.3-5.6-7.7 -0.5-1.6 0-5.6-2.3-7.8 0.5 0.5-6.4-0.5-8.2-2.3 0.4 1 0.3 1.1-0.4 0.4 3.2 3.6-6.9 2.7-3.3 6.9 -1.5-0.2-2.6 0.5-2.2 1.9 0.1 0.2 0.2 0.4 0.3 0.6 -0.1-0.1-0.1-0.2-0.2-0.2 0 0.1 0.1 0.2 0.2 0.3 0.3 1.7-2.7 4.4-2.8 4.7 -0.4 2.1-1.2 1-1.5 4.2 0 0.5 4.4 0.6 3.8 1.8 -1.2 1-2.6 1.5-4.2 1.7 0.3-0.9 0.3-1.8 0.3-2.7 -1-0.2-2-0.3-3.1-0.4 -0.8-1.2-1.3-5.5-2.2-7.3 0.4 0.7-4.5-6.9-4-3.8 -0.2-1.1-1-6.7 1.9-5.4 0.4-0.4 0.6-0.8 0.3-1 -0.4-0.3-5.4-0.9-5-2.3 -0.7-0.6 4.9-0.2 6.3 0 0.5-0.7 3.1-2.9 3-2.8 -0.4-2-2.3-4.2-3.5-5.5 -1.1-1.3-10.4-3.5-9.7-7.2 0-0.1 2.8-2.1 2.8-3 0.2-1-24.7-1.9-24.3 1.2 -0.6-1.8-1.7-2.1-3.2-1.1 -0.8 1.2 2.4 4.9 2.1 6.5 0-0.2-1.6-0.6-2.4-0.7 0.1 0.7-2.2 4.2-3.6 5.7 1.9-0.3 2.2 0.4 1 2 0.2 1.9-0.4 2.4-1.9 1.6 0.5 0.3 1 2.9 0.2 2.3 0.4 0.3 2.1 2.8 2.6 3 -0.8 0.2-4.4 1.9-2.3 2.7 0.6 0.2 2.6-1.3 2.6-1.5 0.9 2.2 0 2.4 1.5 4.4 0-0.6 2.2-2 2.2-2 -0.1 5-3.2 1-4.3 4.1 0.7 0.8 0.9 2.3 1.2 2.2 -3.2 0.6-12.2 9.7-6.6 10.5 -1.6 2.9-3.9 3.1-4.3 0.9 -0.2-0.5-3.1 4.6-4.5 3.8 -0.6-1.2-0.4-2.3 0.8-3.2 0 0-5.9-1.8-5-2.9 0.1-0.2 2.7 0 2.6-0.4 -0.1-1.1-0.9-6.8-0.7-6.1 0.3 1 0.5-1.7 0.6-2.6 -0.3 0.6-2.3-3.2-2.7-5.6 -0.2 0.7-0.4 1.3-0.9 1.4 -1.4 0.2-1.7-4.8-2.4-3.6 0.7-4.1 1.3-11.4-1.9-9.2 0.1 1.1 0 2.2-0.1 3.3 -0.2 0.1-9.9-11.8-11-12.4 -1.8-1-14.8-3-11 1.4 -5.4-6.3-5.6 7.6-6.4 9.1 -2.8 5.2-6.8 4-8.4 10.8 -0.7 3-0.2 7.9-1.1 9.8 -2.5 5-7.9 3.5-10.7 6.6 0-0.1 5.4-5.1 7.2-6.1 -5 1.9-1.7-11.9-3.1-11.9 -2 0-1.5 2.9-4 2.2 5.3-3.8 0.6-3.4-2.4-3 0.3-0.6 4.5-5.1 4.4-4.6 0.7-3.5-2.3-2.2-2.7-5 -0.2 0.9-0.7 1.4-1.6 1.5 -1.1-4 1.6-4 2.1-8.8 -1-0.6-2-0.3-3 0.7 0.7-1.1-2.4-8.9-6.4-3.7 -4.2-3.4-4.8-2.3-10-4.1 0.9 0.3-0.6-3.7-1.7-4.5 1.2-0.7 0.1-2.9-0.1-3.8 -1.7 2.5-2.9 2.8-3.6 0.9 -0.5-1.6-1.4-1.6-2.8 0 0.4-1 0.6-2.1 0.9-3.1 -1.1 1.8-6.6-4.1-7.3-4.5 0 1.5-3.2 3.7-4.2 5.4 -0.2-0.9-2.1 0.1-3.2 0 0.4-0.3 1-1.8-1.4-0.3 -0.2 0.2-1.6 1.3-2.1 0.7 0.5 2 1.2 3.9 2.2 5.7 0.1 0.1-4-1.5-4.6-1.9 0.4 2 0.5 2.9 1.2 4.3 0.8 1.7-4.5-0.1-5.9-0.6 0 0.6-1.7 3-2.5 4.1 0.6 1.2 1.3 3.6 0.2 2.8 2.7 2.4 6.6 1.6 9.6 3.3 -3.6 2.7-1.4 0.7-5.1 1.2 -0.5 0.1-4.8-1-4.9-1.6 0.7 1.2 0.4 2-1 2.5 1 0.1-2.8-6.7-6.8-4.1 1-0.6 1 8.1 0.3 7 2.3 3.5 5.8 3.3 9.8 4.6 3.1 1 8.2 3.8 12.7 2 -1.9 1.1-1.8 1.7 0.4 1.8 -0.1 0.1-4.4 1.3-4 1.6 -0.4-0.6-0.7-1.2-0.8-1.9 -0.7 0.3-1 0.6-0.9 1 -2.3-3-1.7 2.6-2.8 3.1 -0.3-0.9-0.2-1.8 0.2-2.6 -2.9-2.1-3.6 3.3-2.6 4.6 0.9 1.2 6.2 1.2 7.7 1.3 -3.3 5.3 1.1-4.9-3.2 3.3 -0.1-1-0.3-2-0.6-3 0 0.4-0.7 0.5-1.2 0.6 0.2 0.6 0.3 1.9 0.1 2 0.2-0.1-3.1-2.5-3.2-2.8 0.3 1 0.9 1.9 1.7 2.6 -0.1 0.1-1 0.6-1.7 0.9 -1.6-1.7-4.5-0.1-5.5 1.2 0.1-0.5 0.5-3.6-0.2-3.8 0.4 0.2-2.7-1.4-3.9-1.5 0 0-1.3 4.3-1.2 4.6 1 3.5 2.4 2.9 5.1 4 1.7 0.7 12 0.3 11.1 4.3 -0.2 0.8-6.4 0.6-7.1 0.2 1.5 0.6 0.7 1.5-1.7-0.7 0.1 2.3-2.7 1.4-3.3 3.2 2.7 0.4 6 0.9 6.2 0.9 0.4 0.1-1.6 1.2-1.2 1.6 1.5 1 3 1.8 4.7 2.3 0-1 0.2-3.8 1.3-4.4 2.6-1.4 0.4 5.1 0.8 4.8 -3.4 2.3-9-1.9-12.3 2.7 2.4-3.3-2.6-1.6-1.8-0.1 1.2 2 7 3.1 6.7 5.4 -0.9 0.3-1.7 0.2-2.6-0.1 -2.7 0.5 3.6 2.4 4.7 2.3 0.6 0 6.8-3.5 5.6-2.7 1.1-0.8 8.6-1.5 8.3 1.3 0 0.4-4.9 0-5 1.8 -0.2 3.6 9.8-0.5 8.9-1.3 1.7 1.5 0.3 5.1 0.3 6.9 -2.9-0.9-5.8-1.9-8.7-2.8 3.9 1.8 8.4 3.6 8.4 8.7 -2.6-2.3-5.7-4.2-8.7-5.9 4.1 3.1 8 7 8 12.5 -2.5-2.5-5.1-5.1-7.6-7.6 1.3 1.4 11.2 12 4.5 11.1 1.6 0.6 5.4 5.3 1 4.5 1.8 0.8 3.5 4.1-0.4 3.2 3.1 1.7 3.5 6.7-0.7 2.8 3.2 3.2 5.8 26.5-1.5 23.7 5.9 4.1 3.9 12.2 3.9 18.2 -1.2-1.6-0.4 90.7-0.4 112 -7.3-1.8-14.5-3.9-22.1-3.6 -6.4 0.2-12.7 2.4-19.2 1.3 -5.7-1-10.5-4.3-16.3-4.6 -7.4-0.3-10.3 2.8-17.7 2.9 0.7-28.5 0.5-159.4 2.2-158.5 0.5-4-2.1-8.3-2.2-12.9 4.4-0.2 7.1 4.7 11.7 3.2 -1.8 0.3-5.3-1.6-7.5-3.3 1.2-2.1-2.1-7 3-4.9 -1.9-0.9-0.8-5.2 0.9-2.4 -0.7-3.1-1.2-2.6 1.9-3 -1.1-1.8-7.1-1.2-1.6-3 -1.1 0.5-2.1-1.3 1.1-2.1 1.2-0.3 3.1 1.9 4.4 2.4 0.5 0.7 2 1.5 2.8 1.8 -1.2-1.3-2-7 2.9-3.6 2 1.4 2 4.1 0.7 5.5 2.3-0.5 5.6 0.7 2.8 3.9 0.4-0.2 3 0.1 0.3 0.1 3.1 0.3-0.6 0.1-0.6 0.1 -0.1 2 2 2.8 1.5 4.8 2.4-1.8 0.3-0.8 1.1-2.3 0.3-0.3 0.6-0.2 0.8 0 0-0.6 0.3-1.3 1.2-2.1 1.8 0 3 6.2 4.6 0.9 -0.5 4.2 3.4 2.1 4.8 4.9 0.7-1.2 1.8-2.1 3.1-2.8 0.9-1.4 0.2-2.3-2.1-2.6 0 0.2-7.1-3.3-0.8-5 -3.7-2.6-4.3-5-7.8-7.2 1.5 5.5-6.4-0.7-6.2-1.6 0.3-1.2 2.7 1.4 2.3-1.7 -0.5-3.8-1.5-5-2.9-5.9 0.8-1.1 0.8-2.1 0-3.2 -0.9-0.6-6.9-1.9-7.8-2.8 0.1 0-0.3-1.6 1.6-2.6 0-0.2-4.1-0.1-4.4-0.1 2-1.2-1.3-4-1.2-5.3 1-0.9 2.3 0.6 2.7 1.7 0.5-3.9 1.8-3.6 4.1-2.7 1.5 0.6 0.7-3.7 0.8-4 -1.1 0.3-2.1 0.2-3.1-0.3 1.2-0.7 5-2.3 1.5-3.4 0 0 1.9-0.4 2.7-0.8 0-0.5 0.4-2.2 0.4-2.5 -0.9 1.6-3.1-1.2-2.4-2.9 -0.5 0.1-1 0-1.2-0.6 0.4 0.2 0.9 0.4 1.3 0.5 0.3-0.6 1-1 2.4-1 1.6-0.8-6.2-3.7-6-3.6 0.6-0.8-1.5-1.3-1.2-2.6 0.9-0.2 1.6-0.6 2.2-1.2 -1 0.6-4.5 0.5-5-0.7 -0.8-1.9 4.3-6.1 3.4-8.3 -1.2-1.2-2.3-0.9-3.3 1 -0.1-4.4-4.3-2.1-5.9-2.3 -4.8-0.6-8.5 0.6-12.2-0.2 -3-0.6-10.6-4.8-13.6-0.6 -0.2 0.3 2.3 5.2 3.7 5.9 -0.6 1.2-0.3 6.6 1 6.4 -0.5 0.1-6.2 2.9-5.5 3.7 1.3 0.1 2.6 0.1 3.9-0.1 -1.6 1.4-3.4 2-5.5 1.9 0 1.1 3.1 2.9 3.8 3.8 -0.9-1.2-4.6-0.1-5.3 1 -1.7 2.7 2.1 1.6 2.1 2.2 -1.1 0.1-1.6 0.7-1.5 1.8 8.7-4.1-0.7 1.2-0.1 1.4 0.8 0.3 5.5-1.6 5.4 0.8 -0.1 2.2-1.6 4.7-4.1 4.7 0.9 0.4 1.8 0.9 2.7 1.4 -1.7 1.2-0.8 4.7-1.4 4.5 -3.1 6.3-5.5-4.1-9.1-1.3 -0.3-3.2 4.5-2.1 3.6-6.4 -0.4-1.8-5.7-5.1-5.7-4.8 0.1-2 4.7-1 4.7-3 -0.5-0.7-0.9-1-1.1-1 0-0.2 0-0.3 0.1-0.5 0.2-1.7 2.1 0 1.7-2.7 -0.2-1.1-3.2-8.3-5.5-6 0.1 0.1 0.4-7.2-2.8-10 -3.7-3.4-6.6-2.8-8.8-6.8 -1.2 3.4-4.6 1.5-5 1.5 -2.5 0.1-22.8 10.4-19.7 14.1 -2.4-0.7 1.9 3.9 1.9 4.3 0-3 11.8 2.1 11.6 2.6 -1.1 1.2-1.9 1.8-2.3 2.1 0.5-0.1 1.3-0.1 2.2 0.6 0.6 0.5-4.7 1-5.1 1.8 4.2-6.8-8.5-4.2-4-1.7 -0.6-0.1-1.2-0.1-1.9-0.1 1.8 2.2 3.2-0.5 5.2 0.8 1.2 1.2-3.5 10.8-6.4 5.1 0.9 1.8-2 2.5-2.2 1.8 -0.1 1.5 0.6 11.1-2.7 9.4 -0.4 0.9 0.7 1.1 1.7 1.3 -1-0.1-2-0.1-2.4-0.8 0.1 0.9 0.3 1.8 0.6 2.6 -4.1-1.8-4.6 0.5-2.5 2.8 -2.9-2.1-8.4 3.7-8.8 3.3 5.2 4.9 9.3 6.1 14.3 11.8 -1.8 1.1-4 0.4-3.9 2.8 0 0.5 1.5 1.8 2.7 2.4 -0.7-0.2-1.4-0.5-2.1-0.8 -2.4 4.8 9.8 0 10.6 0 -1.9-1.7-1.5-2.1 1.1-1.4 1.8 0.6 3.5 1.3 5.2 2.1 -1.6 0.7-1.8 1.8-0.6 3.2 -1.7-0.9-3.4-1.9-5-2.9 3 2.3 4 8 1.8 6.3 2.9 3.3 8.2 9.8 2.9 9.1 1.5 0.6 5.2 5.1 1 4.4 1.7 0.7 3.3 3.9-0.4 3.1 3 1.6 3.3 6.5-0.6 2.7 3.2 3.2 5.6 25.7-1.4 23 5.7 4 3.7 11.8 3.7 17.6 -1.1-1.6-2.3-3.2-3.4-4.7 8.3 14.2 2.8 47.4 2.8 47.4l-0.5 52.6c0 0 2.7 18.7-12.5 19.6 -17.6 1-34.8 5.5-52.1 8.5 0.1-27.2-0.9-54.5-2-81.7 -0.5-14.1-1-42.6-1-42.8 -0.1-4.3-1.1-32.6-0.7-34.3 0.5-2.3 0.4-4.5 2-6.3 0.2-0.3 5.9 1.2 5.1-0.3 -0.2-0.2-4.9-2.6-5.9-2.9 1.5 0.2 3.1 0.1 4.6-0.1 -0.4-0.8-0.7-1.6-0.9-2.4 0.5 1.1 3.2-1.2 3.5-1.2 -0.8 2 0.9 1.1 1.7 2.2 -2.1-3.9 1.2-1.6 1.1-1 0.7-0.1 1.3-0.5 1.7-1.2 -1 1.1-0.9 2 0.3 2.6 0.9-1.1 1.2-2.4 0.9-3.8 0.8 0.4 6.8 0.1 7.4-1.3 -1.1 0-1.5-2.5-2.6-1.6 0.9-1.4 0.2-3.2-0.6-4 0.1 0.1-6.2 0.4-2.9-0.5 -2-0.1-6.9-2.5-7.8-3.1 -1.6 4.4-4.8-1.3-5.6-3.9 2.1 2.5 2.6-0.7 4.8 0 -1.2-1-2.4-2-3.7-3 1.1 0.9 1.1-1.8 0.8-2.7 3 3.2 8 10.9 10.9 11.6 -0.3-0.2 4.3-0.8 4.3-2.2 0.1-0.6-3.5-0.6-3.9-0.6 1.7-0.8 3.1-2 4-3.7 -0.4 0-4.3-0.5-4.8-0.3 0.3-3.1 2-1.1 0.9-3 2.8 0.2 8.7-0.9 5.3-1.1 -0.5 0.4-1 0.7-1.7 0.7 -0.6-0.5-0.3-1.8 0.5-1.7 -0.2 0-5-3-4.6-3.2 -0.8 0.4-4.5-1.6-3.6-2.8 0.8 0.4 5.4 1.2 5.5 2.5 -0.3-1-0.1-1.7 0.8-2.3 1.4-0.5-5.7-1.8-8.3-2.3 2.1 0.1 7.2-0.5 7.8-1.2 1.6-1.9-3.3-4.2-4.6-4.1 0.9-0.8 1.3-1.7 1.2-2.9 -2.1-0.6-4.2-0.5-6.3 0.1 0.6-0.9 1.4-1.6 2.3-2.2 -0.1 0-8.6-1.2-8.7-2.2 0-0.7 6.4 0.2 7 0.6 -0.2-0.4-1.6-2.5-2.7-2.8 2-0.2 6.6 0.6 7.2 0.5 -1.6-0.2-3-0.8-4.2-1.8 0-1.9 2.4 0 3-0.9 0.9 0.5-6.5-4.4-5.8-5.6 -1.3 1.3-2.8 1.5-4.4 0.6 4.6-1.2-4-4.1-5.3-4.1 -0.6 0-7.4 2.6-7.7 2.9 -1.8 2.3 5 1.1 5.2 1.7 -0.9 0.1-4.8 0.6-2 2.2 -1-0.2-2-0.3-3-0.3 3.7 2.3 1.1 1.1 0.5 1.3 0.4-0.1 4.4 1.5 4.5 1.9 -1.6-1.6-8.2-1.6-9.4 1 0.7-0.8 3.6 1.2 4 1.2 -0.8 0-7.4 4-7.4 4.6 0 2.5 15.3 1.1 14.9 3.9 -1.4-1.5-3.3 0.7-3.5 1.9 -0.2 1.2 3.6 1.2 4 2.3 -0.6 0-7.5 0.2-7.5-0.6 0.4 1.3 1.3 2.1 2.7 2.4 -1 1.1-3.9 0.4-3.7 1.2 -0.9-1.2-4.1-2.8-5.2-2.5 -1.7 0.5 0.6 2.8 1.3 3.8 -1.2-0.5-6.2-0.8-7.5-1 1 0.4 1.9 1.1 2.6 2 -0.7 0.2-6.3 3.7-6.5 2 0.2 1.3 5.5 4.9 1.5 3.7 0.1 0.1 8.9 2.4 7.8 3.4 -0.6 0.5-2.9 0.9-3.6 1.3 -2.4 1.4-1.3 1.4-5.3 1.8 -1.3 3.9 5.4-1.2 3.3 2.9 1.1-1.6 8.5 0.2 8 1 -3.1-0.9-5.4 2.8-8.4 0.4 0.7 0.8 0.1 4.1 2.2 3 -0.5 0.4-0.6 0.9-0.4 1.5 0.1-0.3-3.9-0.2-4-0.2 -0.7 0.5 2.1 2 1.3 2.8 -2.3-2.2 0.1 1.2-0.9 0.3 0.4 0.7-0.1 1-1.5 0.9 5.2 1.7 5.6 3.9 7.9-0.2 0.5 0.1 10.8 2.4 5.6-1.1 1 0.2 2 0.4 2.9 0.7 0-0.8-0.2-1.5-0.7-2.2 0.8 0.2 1.2 0.6 1.3 1.3 0.3-1.1 6.7-6.5 6.3-5.1 -0.3 1.1-1.1 1.9-1.5 0.8 0.4 1.1-0.4 3.1-0.9 4.7 2.9-3.7 2.8 4.4 2.5 6.2 -1.7-2.7-2.3-1.2-2.1 0.9 -0.1-0.7-0.3-1.3-0.7-1.8 0.2 0.7 0.2 1.2 0.3 1.5 2.6 2.9-7.9 13.2-8.2 12.4 0.4 1.3 4.2 1 5.1 1.5 -0.3-0.1-2.7 1.2-4.4 1.7 2.1 1.3 5.1 4.1 5.2 4.2 1.2-2.3 6.2-2.3 6.2-4.8 1.1 0.9 0 33.7 0 37.7 0 15.3 0.2 30.6 0.2 45.9 0.1 10.2 0.2 20.3 0.5 30.4 0.3 10-1.7 37.9-1.7 37.9s-10.5 2.7-18.7 3.8c-11.6 1.5-20 5.4-29.7 11.7 -9.5 6.2-18 11.5-29.5 13.4 -10.8 1.8-21.8 1.3-32.6 3 -24.2 3.8-77.7 7-77.7 7s-3.3-1.9-4-12.5c-0.7-10.8-1.7-21.6-2.8-32.4 -1.2-11.5-7-98-8.8-96.6 0.4-3 1.1-5.8 2.3-8.6 -4 8.6-3.9-4.9-3.8-6.1 1.1 0.5 2 1.2 2.6 2.2 0-2-0.9-3.3-2.7-4.1 3.3 0.3 4.7 0.6 6.3-2.7 -1.3 1.1-2.4 1-3.3-0.4 1.1-0.7 3.1-1.4 3.3-1.5 -2.2 0.9-5.9 0.8-7.5-1.3 3.4-0.3 2.7-1.4 6.5 0.9 -0.1-0.2-1.8-3.5-0.7-3.7 1.1 0.6 2.8 2.7 3.9 2.8 -0.8-0.2-1.8 0.9-2.1 1.8 0.4-1.1 5.1-0.7 4.7 0.4 -0.6 0.7-1 1.5-1.3 2.3 0.3-0.1 0.6-0.2 0.8-0.5 -0.3 0.8-0.3 2.4 1.8 0.8 0.5-0.2-2.6 6.8-2.8 7.1 0 0.3-0.2 3.1-0.5 2.8 0.4 0.5 4.2-1.2 5.1-0.5 -0.5-1.6-0.5-3.1-0.1-4.7 -0.2 0.3 2.9 3.5 3 3.4 -2-1.8 2.1-0.4 3 0.1 -0.8-1.1-4.4-5.8-6.2-8.2 0.8 0.7 1.6 1.5 1.5 1.4 -0.3-2.6 4.4-0.4 4-1.9 -0.8-0.8-1.9-1.2-3.1-1.1 2.9-0.2-1.8-4.7-2.1-5 -1.7-1.6-1.2 0.5-4.5-1.2 0.8 0.1 1.2-0.1 1.2-0.8 1.1-0.4 1.2-0.3 1.1-0.1 0.1-0.1 0.3-0.2 0.6-0.5 0.1-0.1 0.4-0.8-2-1.5 0.3-0.1 6.2-0.2 6.1 0 3.2-5.3-10.9-5.1-16.8-4.7 2-0.8 4.4-2.1 4.6-2.3 4.7-2.6-4-3.4 5-3.9 -0.4 0-3.6-0.1-4.6 0.2 1.2-0.7 6.3-3.1 5.8-4.1 -0.2-0.4 3.5 3.3 3.9 2 -1.4-6.1 1.6 1.3 1.4-2.7 0 0.3 0.5-2.3 0.6-2.3 -0.3-0.1-4.7-0.1-3.9 1.2 -2.3-4 4 1.9-1-3.8 -0.8-0.9-3.6-0.5-3.4-2.2 0.5-0.2 1.1-0.3 1.6-0.1 -0.8-0.8-1.6-1.8-2.3-2.7 -0.2 1.4-0.9 2.5-2 3.3 -0.2 0.6 0.3-2.1 0.3-2.3 0.3-1.6-3.1 1.9-3.2 2 -0.3-0.9-4.6-2.7-4.3-3.3 1.2-3.2 8.8-0.2 10.8-2.6 -0.2 0.2-1-2.7-0.1-4.2 0.4-0.7 5.9-0.5 4.6-3.1 0 0-7.4-2-7.8-2.1 -0.5-0.1-3.5 0.8-3.7 0.6 -1.1-1.2 0.3-2.3-2.2-2.5 1.9 0.1 6.9-5.3 8.2-4.8 -2.3-0.9-2.9-0.9-2.2-2.9 -0.7 2-6.2-14.5-7.9-13.2 -3.5 2.5-3.8 2.3-8.7-1.7 0.5 1 0.4 1.2-0.4 0.5 3 2.9-7 3.8-3 7.7 -1.5 0-0.6 1.3-2.2 0.4 0.3 0.7 0.6 1.4 0.9 2.1 -3.1-0.7 0.8 4.2 0.2 5.1 -0.5 0.7-5.3 1.3-5.6 1.3 -3.4 2 3.2 5.3 4.8 5 -0.8 0.7-1.7 1.1-2.8 1.3 0 0 3.2 4.6-0.5 1.6 3.1 3.6 2.7 3.6-0.5 4.8 -0.1 0.1 8.9 2.2 9.2 2.8 0 0-2.8-0.1-3.8-0.7 0.9 1 1.1 2 0.7 3.1 -7.4 0.2 0.6 8.8-6.6 14.3 2.1-0.9 0.7 0.4 1.8 1.3 -1.3 0.6-6.8 1.9-6.8 1.9 0.2 1 1.6 1.4 3.4 1.6 0.3 0.3 0.7 0.7 1.1 1.1 -0.4-0.4-0.7-0.7-1-1.1 4.1 0.4 10.4-0.1 10.2 3.7 -5.4-1.3-4.4-3-5.6 0.5 2.3 2 4.3 4.3 3.7 6.4 -0.5-0.6-1-0.7-1.6-0.3 0.2 2.4 9.7 3.6 11.4 5.2 -2.5 1.3-4.8-1.4-7.3-1.2 2.7 0.1 5.7 3.8 8.6 2.1 0.1 1.1-0.5 1.6-1.3 1.7 0.9 0.3 1.7 0.8 1.7 1.9 -1.9-0.6-3.8-0.7-5.7-0.4 3.1 0.2 5.7 1.6 6.3 4.9 -3.1-0.6-6-1.6-8.7-3.1 2.7 3.2 8.6 3.3 9.4 8.3 -2.5-1.9-4.4-6.5-8.3-5.7 4.6 1.2 14.3 14 3.8 10.2 1.6 0.9 7.7 8.3 3.7 8 3.5 1.9 5 46.9 5.6 54.3 1.6 20.3 5.1 82 5.1 82s-10.9 3.6-16.1 4.7c-20.5 4.4-41.4 12.5-60.7 20.6 0-27.9-0.5-55.9-1.1-83.8 -0.2-12.9 1.1-25.8 0.3-38.6 -0.4-6.6 1.3-43.1-0.7-41.8 0.2-1.2 1-3.3-0.2-1.7 1.4-2 2.2-4.7 3.2-6.9 -0.8 1.3-1.9 2.1-3.4 2.5 -0.3-3-0.3-6-0.1-9 1.1 0.6 2 1.4 2.5 2.5 0.2-2-0.6-3.5-2.5-4.4 3.7-1.2 3 0.4 6.6-2.2 -1.4 1-2.6 0.8-3.4-0.7 1.2-0.6 3.3-1.2 3.5-1.2 -2.4 0.7-6.1 0.4-7.6-1.9 3.1 0.8 3.4-0.8 6.6 1.5 -0.2-0.3-1.8-3.6-0.4-3.7 1.1 0.7 2.5 2.9 3.7 3 -0.8-0.3-1.9 0.8-2.3 1.7 0.5-1.2 5.2-0.2 4.8 0.8 -0.6 0.7-1.1 1.4-1.5 2.3 0.3 0.3 0.4 0.3 0.5 0.3 0 0 0 0.3 0.8 1.6 0.7-2.5 2.2 0 1.9 1.5 -0.1 0.4-2 2.2-2.4 3.6 -0.1 0.2-2.4 1.9-2.5 3.1 0.3-0.1 2.2 1.1 2.4 1.2 0.4-2.2 1.4-2.5 3-0.9 -0.3-1.6-0.2-3.1 0.2-4.7 0 0.9 2.7 3 2.7 3.7 0.4-1.1 3.3-1.1 3.5 0.2 -0.2-1.1-2.9-4.7-4.9-7.3 0.1-0.4 0.2-1.3-0.1-1.4 0.9 0.1 5.7 1.4 5-0.2 -1-0.9-2.1-1.4-3.4-1.5 0.6-0.8 1-1.8 1.1-2.8 -4.2-3.2-3.7-1.9-7.5-4.2 2.3 1 0-2.8 2.3 0.4 2.4-1.1-1.7-2.1 1.9-1.1 -3.4-1.3-4.1-2.1-2-2.5 0.9-0.5 1.8-0.5 2.7 0 0.3 0.3 1.7 1.3 1.7 1.4 -0.5-1.1 1.4-1 0-2.8 -1.6-2-3.2-2.2-4.6-2.9 -2.2-1-9.2-0.6-12.3-0.7 2.1-0.4 5.5-2.1 5.9-2.3 4-1.9-0.9-3.2 1.7-3.6 -4.1-0.2 5.9-2 5.3-3.9 0 0.1 3.6 3.2 3.9 2.3 -0.4-3.2-2.1-1.2 2.2-2.9 -3.2 0.6 0.8-1.5 0.5-2 -0.7 0-3.1 0.8-3.8 1.1 0.3-0.8-3.4-6.3-4.4-6.7 0.5-0.1 1-0.1 1.5 0 -0.8-0.9-1.7-1.8-2.6-2.6 -0.4 0.8-0.7 1.7-0.9 2.6 -0.5-0.1-0.9-0.2-1.4-0.3 0.3-0.6 0.6-1.2 1-1.7 0.5-1.7-3.3 1.4-3.4 1.7 -0.5-0.5-4.2-3.4-3.6-4 2.2-2.3 8.8 1.2 10.6-1.4 0.7-1-2.2-1.7 0.2-4.4 2.8-3 6.5 0.6 2.1-3.5 -0.8-0.7-11.7-3.4-10.9-4.6 0.6-0.8 8.3-4.4 9-4.1 -2.8-1.3 0.1-1.8-3.1-1.3 0.7-1.2-1.7-8.7-2.1-9.5 -3.2-6.8-7.4-3.9-12.6-9.1 0.1 0.2-1 2.8 0 3.1 -0.9 0.2-1.7 0.2-2.6 0.1 -1.4-0.4-2.4 4.1-1.6 5 -0.7 0.5-1.5 0.6-2.3 0.2 0.2 0.7 0.5 1.5 0.7 2.2 -3.8-2 0.1 4.1-0.1 5.2 -0.3 1.4-7.7-1.2-6.5 3.7 0.6 2.4 6.6 1.9 5.9 3.1 -1.2 0.9-2.5 1.3-4 1.1 0.6 0.5 1.1 1.1 1.6 1.7 -3.4 0.2-0.6 0.9 0.1 4.4 -1.1-0.2-2 0.1-2.7 0.9 1.8 2.1 9-0.7 9 3 -1.6 0.4-2.9 0-3.9-1.2 0.6 0.9 0.8 1.8 0.5 2.8 -1-0.2-2.8-1-3.9-0.8 -0.4 0.1 0.5 6.7 0.5 6.1 0 5.7 1.1 5.4-4.7 9.2 1.1-0.2 1.7 0.3 1.7 1.5 -1 1-7.1 0-7.2 1.1 -0.2 1 1.2 1.5 3.3 2 0.3 0.4 0.7 0.9 1.2 1.5 -0.4-0.5-0.8-1-1.2-1.4 4.2 1 10.8 1.6 10.4 4.9 -5.6-2-4.2-3.8-5.8 0 2.2 2.3 4.1 4.7 3.3 6.9 -0.4-0.6-1-0.8-1.6-0.5 0 2.2 9.8 4.6 11.2 6.3 -2.7 1.1-4.8-1.9-7.4-1.9 2.7 0.3 5.6 4.4 8.6 2.9 0 1.1-0.6 1.6-1.5 1.6 0.9 0.4 1.6 1 1.6 2.1 -1.9-0.8-3.8-1.1-5.8-0.9 3.1 0.5 5.8 2.2 6.1 5.6 -3.1-0.8-6-2.1-8.7-3.9 2.6 3.5 8.6 4.2 8.9 9.3 -2.4-2.2-4-7-8-6.6 5.1 1.8 7.7 7.7 8 12.7 -4.2-1.4-8.3-3.3-12.1-5.6 2.2-1.3 6.2-5.3-1.1-4.7 0.4-0.2 0.6-2.8-0.4-3.4 -1.5-0.9-3.2 1.7-4.9 0.8 2.5-1.1-0.3-1.4 2.3-2.3 -0.2 0.2-8.8-1.3-8.8-1.9 -0.1-0.7 6.4 0 7.1 0.4 -0.2-0.4-2.1-2.7-3.2-2.7 1.7-0.4 7 0.3 7.6 0.2 -1.6-0.1-3.1-0.7-4.3-1.7 -0.1-1.9 2.4-0.1 3-1 0.9 0.5-6.7-4.2-6.1-5.4 -1.3 1.4-2.7 1.6-4.4 0.8 4.6-1.4-4.1-4-5.5-4 -0.6 0-7.5 2.9-7.7 3.3 -1.6 2.5 5 0.8 5.4 1.5 -0.9 0.1-4.8 0.8-1.9 2.3 -1-0.2-2-0.2-3.1-0.2 1.6 0.9 1.9 1.4 0.9 1.4 1.1 0.2 4.2 1.2 4.2 1.6 -1.7-1.5-8.3-0.5-9.4 1.3 0.7-0.7 3.7 1.1 4.1 1.1 -0.8 0-7.3 4.3-7.3 4.9 0.1 3.6 15.5 0.8 15.2 3.4 -1.5-1.4-3.4 0.8-3.5 2 -0.1 1.3 3.6 1 4.1 2.2 -0.6 0-7.5 0.4-7.6-0.3 0.5 1.3 1.4 2.1 2.8 2.4 -0.9 1.2-4 0.5-3.7 1.4 -1-1.2-4.9-3.3-6-2.6 -0.7 0.4 2.5 2.6 2.5 2.8 -1.1-0.4-1.2-0.1-0.4 0.7 -1.3-0.7-3.3-2.1-4.9-1.2 0.2 0.3 0.2 0.7 0.1 1.1 0.1 0.8-0.1 1.1-0.6 1.1 0.2 0.2 0.4 0.4 0.5 0.6 -0.7 0.2-6.2 4-6.5 2.2 0.2 1.3 5.8 4.7 1.6 3.6 0.5 0.4 9.1 2.1 8 3.1 -0.6 0.6-2.8 1-3.6 1.5 -2.4 1.5-1.2 1.5-5.3 2 -1.2 4 5.4-1.4 3.5 2.8 1.1-1.6 8.6-0.1 8.1 0.7 -3.1-0.8-5.4 3.1-8.5 0.7 0.7 0.8 0.2 4.2 2.3 3 -0.5 0.4-0.6 0.9-0.3 1.5 0.1-0.3-3.9-0.1-4-0.1 -0.7 0.6 2.2 1.9 1.4 2.8 -0.5 0.1-0.9 0.1-1.3-0.1 1 1 0.6 1.5-1.1 1.4 5.3 1.6 5.8 3.7 7.9-0.4 0.5 0.1 11 2.1 5.6-1.3 1 0.1 2 0.3 3 0.6 0-0.8-0.3-1.5-0.8-2.2 0.8 0.1 1.2 0.6 1.4 1.3 0.2-1.1 6.5-6.8 6.2-5.4 -0.3 1.1-1 2-1.5 0.9 0.5 1.1-0.3 3.1-0.8 4.7 0.8-0.2 1.6-0.4 2.5-0.6 0 0.6 1.4 4.6-0.8 3.2 0.9 0.9 1.3 2.1 1.1 3.5 -3.2-4.6-2.1 1-2.1 1 -0.1-0.7-0.4-1.3-0.9-1.9 -0.2 0.5-0.4 0.8-0.6 1 5.7 1.4-6.2 14.4-6.7 13.4 0.7 1.4 4.1 0.8 5.2 1.3 -0.4-0.1-2.7 1.4-4.4 1.9 2.2 1.2 5.3 3.9 5.4 4 1-2.2 6.1-5.1 6.1-5.1s2 32.6 2.2 38.5c0.7 21.8 1.8 43.6 2.1 65.5 0.1 5.7-1.4 22.3-1.4 22.3s-23.4 6.9-32.2 10.7c-25.1 10.7-46.5 35.3-75.1 33.8 -12.7-0.7-24.4-3-35.7 4.3 -10.4 6.8-18 14.5-30.8 17 -11.5 2.2-20.9 0.1-30.8-5.9 -13.7-8.4-21.5-8.8-37.4-8.5 -13.3 0.2-26.7 0.2-40 0.4 -14.7 0.2-24.3-6.8-37.1-12.8 -5.1-2.4-10.8-3.1-15.8-5.5 -4.7-2.2-7.6-6.2-11.8-9.2 -7.6-5.3-25-15.1-25-15.1s1.1-16 1.6-22.6c0.6-7.7 0.8-15.4 1.3-23.2 1-15.4 2.3-30.7 3.4-46 1.3-17.2 2.7-34.5 3.1-51.7 0.2-6.7 1.3-13.6 1.5-20.2 0.1-4.7-0.6-4.8-0.6-10.2 1.6 0.9 3.3 1.8 4.9 2.7 -3.6-2.7-4.8-6.7-4.7-11 2.9 2.7 7.9 3.2 11.6 2.1 -2.1 0.3-8.4 0.9-8.9-2.3 0.3 1.7 2.4-3.9 2.5-4.1 0.5-2.3-2.2-4 2.2-1.9 -2-1-0.2-5.3 1-2.3 0-0.2 0.5-4.7 0.8-4.6 0.5 0.3 1.7 4.1 2.5 1.9 0.1-0.4-3.1-2.1-2.9-3.5 -0.4 1-1.3 1.4-2.5 1.3 2.9-4.6 5.3-1 7.8-1.3 -0.4 0.9 1.7 2 2.8 2.6 -1.1-1.4-1.8-7.1 3.1-3.5 1.6 1.2 1.9 3.3 1.1 4.7 2.8-0.6 4.4 4.8 3.7 4.8 -3-0.4-0.1 3.2-0.6 4.9 2.4-1.7 0.3-0.8 1.2-2.3 0.4-0.3 0.7-0.3 1 0.1 -0.1-0.7 0.2-1.4 1.1-2.1 1.8 0.1 2.8 6.3 4.6 1.1 -0.6 4 4.7 4.8 6.7 3.6 5.6-3.2-3.2-4.8-3.3-4.2 -0.3-0.5 0.2-5.8 1.6-5.2 -4.4-1.9-3.9-4.7-7.4-6.9 1.3 5.5-6.4-0.9-6.1-1.7 0.3-0.9 2.2 0.1 1.5-3.5 -0.6-3.4-1.1-2.9-2.3-4.2 0.3-1.1 0.8-2.3 1.3-3.3 -0.1-1.5-7.5-1.8-8.5-2.8 0.1 0-0.2-1.6 1.7-2.6 0-0.2-4.1-0.2-4.4-0.2 2-1.1-1.2-4-1-5.3 1.1-0.9 2.4 0.9 2.7 2 0.6-1.6 2.2-3.7 1.8-4.9 0.8 0.8 1.7 1.6 2.6 2.2 3.6-0.4-2-4.2-2.5-4.4 1.2-0.7 5-2.2 1.6-3.4 0 0 1.9-0.4 2.7-0.7 0-0.5 0.5-2.2 0.5-2.5 -0.9 1.5-3.1-1.3-2.3-3 -0.5 0-1 0-1.2-0.7 0.4 0.2 0.8 0.4 1.3 0.6 0.3-0.6 1.1-1 2.4-0.9 1.6-0.7-6.1-3.9-5.9-3.8 0.6-0.8-1.5-1.4-1.1-2.6 0.9-0.1 1.6-0.5 2.2-1.2 -1.1 0.5-4.5 0.3-5-0.8 -0.8-1.9 4.5-6 3.7-8.2 -1.1-1.2-2.3-1-3.4 0.9 0-4.4-4.2-2.2-5.9-2.5 -4.8-0.8-8.5 0.3-12.2-0.6 -3-0.7-10.4-5.1-13.5-1 -0.2 0.3 3 7.1 4.1 6 3.6 5-3.1 9.3-8.8 10 0.1 0.2 1-3.3 1.1-3.4 -3.3 3-4.6-2.3-7-3.5 -0.6 2.3-1.7 4.2-3.3 5.9 0.5-0.8-6.9-1.5-6.9-1.4 0.9 0.3 0.7 4.9 1.8 6 -0.3 0-3.1-0.8-4-1.3 0.6 0.7-0.2 1.4 0.8 3.2 0-0.1-2.5 1.6-2.7 2 -0.5-1.2-1.4-2-2.5-2.6 0.3 0.7-2.4 5.4-2.4 4.4 0 0 0.1 2.2 0.1 2.5 2.6-1.8 7.2 2.5 9.4 3.4 -1.6 1.2-6.5 2-9.2-0.5 0.2 0.4-0.1 3.6-1.2 2.5 -1.1-1.1-1.4-7.2-5.9-4 -1.5 1.1 3.3 4.7-1.4 6.6 2.7 2.6 10 8.3 13.6 4.3 -1.8 2 10.2 5.1 11.4 3.7 -1.2 2.7-6.9 0.5-6.8 0.3 0.1-0.2-2.8 2.3-3.8 3.3 0.1-0.2 0.2-0.5 0.2-0.8 -0.9-0.1-1.6-0.5-2.1-1.2 0.1 0.6-0.5 3.7-1.2 3.2 1 1.2 3.8 1.6 6.1 1.8 0.1 1.1-0.1 2.1-0.7 3 -0.1-0.9-0.3-1.8-0.6-2.7 0.2 1-2.1-0.7-2.2-0.3 -0.7 2.1 2.8 1.2 1.1 2.9 -0.5-0.5-1-1-1.5-1.5 -0.1 0.7-0.6 1.5-1.1 2.1 0.1-0.1 0.2-0.1 0.3-0.2 0 0.5 0 1-0.1 1.5 -0.4 0-0.7-0.1-1.1-0.3 0 0 0 0.1 0 0.1 0 0 0-0.1 0-0.1 -1.7-1-2.4-3.8-4.5 0.3 0.1-1.2-0.8-4.4-1.7-4.4 -0.5 0.4-0.6 1.5-0.7 1.1 0.1 0.7 0.2 1.5 0.1 2.2 -0.3-0.8-0.6-0.9-0.8-0.2 0.1-0.9 0-3.8-0.7-3.8 -3.3-0.4 1.8 7.3 2.3 7.7 2.7 1.9 10.1-0.5 11.7 3.3 1.5 3.5-8.5-2.3-5.8 2.6 -0.1 0.1-2.9-1-3.2-0.9 -1.1 0.3-1.7 2.3-2.8 2.6 -0.7 0.2-1.4-3-2.4-1.3 -0.7 1.2 8 3 9.1 1.8 -0.4 1.8-1.4 1.7 1.4 2.8 -0.7-2.4 8.1-3.9 5.4-0.4 0 0.1-0.1 0.1-0.2 0.2 0 0 0 0.1-0.1 0.1 0 0 0.1-0.1 0.1-0.2 0 0 0 0 0 0 0 0 0 0 0.1-0.1 0 0 0 0 0.1-0.1 0 0-0.1 0.1-0.1 0.2 0 0 0 0 0 0 -0.1 0.1-0.2 0.2-0.3 0.3 0 0-0.1 0.1-0.1 0.1 0 0 0 0 0 0 -0.1 0.1-0.1 0.1 0 0 0 0 0 0 0 0 0 0 0 0 0 0 0 0 0 0 0 0 0 0 0 0 0 0 -0.6-0.1-1.1-0.2-1.7-0.4 0.6 0.9 0.4 1.7-0.4 2.3 -1.5-0.5-2.3-1.1-2.7-1.6 -2.6 0.9-5.1 2-7.5 3.2 0.2-0.1-1.7-2-0.1-1.7 -1.1-0.5-1.8-0.3-2.1 0.6 0.5 2.1 11.3 7.6 3.4 5.7 5.7 3.1 11.8-1.7 17.6 0 -0.1 0.2 0.6 1-0.9 1.8 -0.2-0.5-0.6-1-1-1.4 -0.2 0.2-1.8 3.8-2.7 2.6 2.2 3.1 9.7-2 9.6-2.2 1.5 2.3 0.4 5 0.4 7.4 -2.3-0.4-4.7-0.8-7-1.2 1.4 0.5 4.9 1.6 5.6 2.9 0.1 0.2 3.1 6-0.1 2.2 1.8 2 1.6 3.1-1.3 2.1 3.8 1.8 2.4 6.3 2.4 9.6 -3.2-1-6.4-2.1-9.7-3.1 4.3 2 9.3 4.1 9.3 9.7 -2.9-2.6-6.3-4.7-9.7-6.6 4.5 3.4 8.9 7.9 8.9 13.9 -2.8-2.8-5.7-5.7-8.5-8.5 1.6 1.7 12.4 13.3 5 12.4 1.7 0.7 6.1 5.9 1.2 5 1.9 0.8 3.8 4.5-0.4 3.5 1.9 1.1 7.6 8.1-0.7 3.1 4.5 4.5 1.7 110.2 1.4 125.7 -15-2-54.6-9.1-54.6-9.1S401 192.1 405.9 193c-6.5-2.8 1.6-9.7 4-12.1 -2 1.6-4.1 3.2-6.1 4.7 0-2.3-2.5-7.1-0.2-9 -0.5 0.4 6.1 2 6.6 2.1 -0.2-0.1-2.2-2.4-2.8-2.6 3.4-0.8 4.3 1.2 3.8-1 0.1 0.1 4.2 3.1 3.7 1.6 -1.3-4-3.9-3.5-5.6-5.1 -3.1-2.8-3.2-1.8-4.1-5.2 0 0-0.4-7.2 1.8-2.7 0.1-0.4 2.3-4.2 2.8-2.9 -0.1-0.3 2.1 2.9 3.4 2.9 1.2 2.9 2.8 6.4-2.1 5 3.3 1 5.8 2.2 9.3 0.7 1.2-0.5 2.5-4 0.7-3 2.3-1.3 7.8-2 8-5.2 -2.3 1.5-6.4-2.2-8.3 0.3 0.9-1 0.9-1.9-0.3-2.6 -1.7 0.6-2.1 2.7-4 0.7 0 0 8.6-4 8.9-5.5 0.9-4.4-6.2-3-3.6-7.1 -0.5 1.1-11.9-0.1-10.5-6 0.6 0.6 5.1 0.2 4.4-1.5 -0.8-1.7-4.3-0.6-4.9-1.4 -0.2-0.3-2.3-3.2-3.1-4.3 2.2 0.2 10.1-1.2 4.8-2.4 9.6 1.9-2-15.7 5-21.3 -2.8-1.7-6.6-2.2-9.6-3.8 -1-0.5-2.9-6.6-4.4-3.2 -0.6-1.8-4-7-5.9-7.5 -1.7-0.5-13.5-1.4-13.7-0.8 0 1.3 0.2 2.5 0.5 3.7 -0.7 0.7-4-0.8-4.9-0.7 2-0.1 3.5 4.8 2.2 3.6 1.1 1.7 4.1-0.2 4.4 2.4 0-0.2-2.6 0.1-3.9 0.9 1.1-0.1 2.9 1.8 3 2.4 0 0.1-4.4-0.6-3.8-1.3 -0.3 0.4-2.9 8.7-4.4 6.8 1.7 2.2-1.8 4-1.3 6.2 0-0.2 2.4 3 2.8 4.6 0.5-0.2 8.9-2.8 9-1.7 -4.2-1.2-14.1 6.8-9 8.4 -4.5-1.2-7.5-3.1-9.2 2.1 -0.5 1.7-5.9-1.1-6-0.9 0.1 3.7-1.3 4.4 0.4 7.7 -0.1-0.2 7.9 4.5 3.2 4 -0.2 0.3 3.7 2.9 4.3 2.6 0.4-0.2-0.4-6-0.9-6.5 0.3-0.4 4.4 1.3 4.4 1.9 0.1 1.4-2 3.5-2.3 5 -0.4 2.5-0.7 4.6-0.8 7.1 0 0.5 1.4 3.4 2.3 4.1 -0.7 0.1-1.3 0.3-1.8 0.7 1.7 0 5.1 1.1 5 3.5 -2-0.1-4.1-0.1-6.1 0.1 1.4 0.3 2.5 1 3.5 2.1 -2.4-0.2-3.9 4.4-3.2 6.2 2.3 6.8 3.9-2.1 7.4-0.5 1.2 0.6 0.5 9.4 1.4 11.1 1.5 2.7 4.2 1.6 3.8 3.3 0.6-0.2 1.1-0.6 1.3-1.2 0.3 3.6 3 0.6 2.9-0.9 0.3 1 0.7 1.9 1.2 2.8 1.3 0.8 0.6-2.5 1-2.5 1 0.5 1.7 1.2 2.2 2.2 0.9 1.2 0.8 1.9-0.5 2 1.4 1.4 0.6 4.5-1.3 6.7 0.2-0.2 3.2-1.8 3-0.3 -1 1.2-1.2 4-4.4 6 7.9-3.5 4.7 5.6 4.8 11.7 0.2 5.4 0.3 10.9 0.4 16.3 0.2 11.8-0.9 82.6-0.7 106.2 -17.2-7.7-36.6-6.5-54.7-9.7 -6.5-1.1-21.9-6-21.9-6s-5.2-145-5.2-146.6c3.3 0.7 6.6 1.4 9.9 2.1 -4.9-1.7-9.3-3.4-9.9-9.2 3.1 0.2 6.1 0.5 9.2 0.7 -9.9-1.6-10.2-4.4-0.3-5.9 -2.8 0.1-5.7 0.3-8.5 0.4 0.1-2.3 0-4.6-0.1-6.9 0.5 0.5 2.7 0.3 2.3-0.4 0.6 0.9 0.9 1.6 0.9 2 1.7-0.3 3.3-0.8 1.5-2.2 7.3 0 8.3 18.4 20.2 15.4 -0.7 0.2-4.3-3.3-4.9-2.3 0.9-1.4 5.1-0.5 5.2-1.8 0.1-1 0-1.7 0.4-2.5 -0.6 0.4-4.9-0.7-5.4-1 2.4-0.4-2-3.3 1.2-2.5 -1.5-0.8-1.9-3.9-3.2-4.9 -1.4-1.1-5.7 2.4-6.2-0.3 -0.3-1.6 3.9-6.5 5.6-4.5 -1.7-2-6.8-5.5-8.5-6.1 2.7-2.2 0.9-5 4.3-5.5 1.8-0.3 6.8 3.2 8.6 3.9 4 1.5 14.9 5.5 10.5-3.2 -0.8 1.2-4.7 1.8-6.9 1.9 4.4-0.5 10.9-7.1 11.3-11.1 -0.7 3.3-9.1 0.7-8.3 0.1 2.2-1.5 6.7 0.1 7.6-3 1-3.3-3.4-4-3.5-6.3 -0.1-3.6 2.6-3.6 1.1-7.1 0.4 1-4.2 2-4.6 1.9 5.4-3.8 0.6-3.5-2.4-3 0.3-0.5 4.8-5.5 4.7-4.9 0.6-3.6-2.5-1.9-3-4.8 -0.2 0.9-0.7 1.4-1.6 1.5 -1.1-4.1 1.6-4.1 2.1-8.9 -0.6-0.3-1.2-0.4-1.8-0.1 2.2-2.9-9.9-5.1-7.7-2.9 -1.1-0.9-5.3-4.5-4.9-5.8 -1.7 1.6-3.6 1.9-5.7 1 0.7 0.1-0.3-3.1-1.2-3.9 1-0.7 0-2.9-0.2-3.7 -1.7 2.6-3 2.8-3.7 0.9 -0.5-1.6-1.4-1.6-2.9 0 0.4-1 0.7-2.1 0.9-3.1 -1.1 1.9-6.7-4.2-7.4-4.5 0 1.5-3.2 3.8-4.2 5.5 -0.2-0.9-2.2 0.1-3.2 0 0.4-0.3 1-1.8-1.5-0.3 -0.3 0.2-1.6 1.3-2.2 0.7 0.5 2 1.2 3.9 2.2 5.7 -2.2 1.1-2.9-1.9-4.1-2.6 -2.6 2.1-4.3 1.9-8.4 2.8 -6.2 1.3-3.4 2.8-6.6 4.5 -2.1 1.1-13.8 3.1-9.6 8.2 -3.7-1 2 3.8 2.4 4.3 1.4 0.4 13.6 1.5 8.1 4.7 1 0 2 0.2 2.9 0.6 0.7 0.5-4.7 1-5.1 1.8 4.2-6.8-8.4-4.1-3.9-1.7 -0.6-0.1-1.2-0.1-1.9-0.1 0.5 0.6 4.5 0.9 4.5 1 3.6 10.1-15.1 3.2-17.7 0 0.3 0.3 7.5-3 7.9-3.9 -0.7-1.2-1.6-1.6-2.9-1.1 1.5-2.5-2.1-4.9-2.9-6.8 -0.7-1.7 0.4-5.4-2.3-8.1 0.3 0.3-6.5-0.4-8.4-2.4 1.3 4.1-6.9 4-3.8 7.5 -0.7 0.5-1.4 0.6-2.1 0.2 0.2 0.7 0.4 1.4 0.7 2 -4.2-2.2 0 3.2-0.1 3.3 -2.1 3.8-5.6 1.7-4.9 6.9 -0.2-1.3 5.3 0.1 4.8 1.4 -0.3 1-4.9 1.6-4.7 1.6 1.1 1.4 1.2 5.4 0.3 5.8 2.3 0.6 7.5-0.2 7.5 2.3 -1.7 0.3-3-0.2-4-1.6 2 4.9-1.8 1.3-3.1 5.2 -1.7 5.5 2.3 7.3-3.6 11.2 2-0.7 0.6 0.4 1.6 1.4 -1.1 0.4-6.4 1.8-6.6 1.1 0.3 0.9 1.5 1.4 3 1.7 0.5 0.7 1.1 1.4 1.8 2.1 -0.6-0.7-1.2-1.4-1.7-2.1 3.9 0.9 10 1 9.5 4.5 -5.2-2-3.9-3.6-5.4 0.1 2.2 2.2 3.9 4.3 1.6 5.9 0 3.4 8.5 3.7 10.4 5.8 -2.5 1.1-4.4-1.7-6.8-1.7 2.5 0.3 5.1 4.1 8 2.6 0 1.1-0.6 1.5-1.4 1.5 0.9 0.3 1.5 0.9 1.5 2 -1.7-0.7-3.5-1-5.4-0.8 2.9 0.5 5.3 2 5.6 5.1 -2.9-0.8-5.5-1.9-8-3.6 2.4 3.3 7.9 3.7 8.3 8.6 -2.2-2 0.2 117.1 0 139.1 -15.4-1.7-30.8-2.8-46.3-3.9 -7.3-0.5-14.5-1.1-21.8-1.7 -4.8-0.4-13.4-3.2-18-1.4 -4.7 1.8-17.3 7.9-17.3 7.9s-1.9-97.5-0.9-130c3.3 0.7 6.6 1.4 9.9 2.1 -4.9-1.7-9.3-3.4-9.9-9.2 3.1 0.2 6.1 0.5 9.2 0.7 -9.9-1.6-10.2-4.4-0.3-5.9 -11.6 0.5-9.3-10.5-1.1-4.5 5.7 4.1 7.3 15.3 17.3 12.8 -0.7 0.2-4.3-3.3-4.9-2.3 0.9-1.4 5.1-0.5 5.2-1.8 0.1-1 0-1.7 0.4-2.5 -0.6 0.4-4.9-0.7-5.4-1 2.4-0.4-2-3.3 1.2-2.5 -4.1-2.1-3.3-4.1-8.5-5.2 -3.4-0.7-8.2 0.1-10.7-3 -6.6-8.4 6.7-3.6 6.5-4.3 1.4 5.9 6.3-0.3 8.9 2.8 -2.4-2.9-6.3-5.2-9.6-6.7 1.9 0.8 3.1-4.4 4-5.2 0.3-0.3 27.2 14.5 20.5 1 -0.8 1.2-4.7 1.8-6.9 1.9 4.4-0.5 10.9-7.1 11.3-11.1 -0.7 3.3-9.1 0.7-8.3 0.1 2.2-1.5 6.7 0.1 7.6-3 1-3.2-3.4-4-3.5-6.3 -0.1-3.6 2.6-3.6 1.1-7.1 0.4 1-4.2 2-4.6 1.9 5.4-3.8 0.6-3.5-2.4-3 0.3-0.5 4.8-5.5 4.7-4.9 0.6-3.6-2.5-1.9-3-4.8 -0.2 0.9-0.7 1.4-1.6 1.5 -1.1-4.1 1.6-4.1 2.1-8.9 -0.6-0.3-1.2-0.4-1.8-0.1 2.2-2.9-9.9-5.1-7.7-2.9 -1.1-0.9-5.3-4.5-4.9-5.8 -1.7 1.6-3.6 1.9-5.7 1 0.7 0.1-0.3-3.1-1.2-3.9 1-0.7 0-2.9-0.2-3.7 -1.7 2.6-3 2.8-3.7 0.9 -0.5-1.6-1.4-1.6-2.9 0 0.4-1 0.7-2.1 0.9-3.1 -1.1 1.9-6.7-4.2-7.4-4.5 0 1.5-3.2 3.8-4.2 5.5 -0.2-0.9-2.2 0.1-3.2 0 0.4-0.3 1-1.8-1.5-0.3 -0.3 0.2-1.6 1.3-2.2 0.7 0.5 2 1.2 3.9 2.2 5.7 0.1 0.1-4.1-1.5-4.7-1.9 0.5 2 0.5 3 1.2 4.4 0.5 1.1-5.3 0-4.8-0.3 -0.2 0.1-3.1 2.7-4.1 4.4 0.5 3 6.3 4.5 9.9 5.9 -1.1 1-9.4 0.9-9.8-0.7 0.5 1.2 0.3 2-0.9 2.4 0.6-0.7-4.4-8.4-7.4-4.1 0.6-0.9 1.3 6.4 1 5.1 0.8 3.3-0.4 3 3.9 5.2 3.1 1.6 6.4 0.8 8.8 1.4 3.5 0.9 4.4 4.3 9.9 2 -1.9 1.1-1.8 1.7 0.4 1.8 -0.1 0.1-4.4 1.3-4.1 1.7 -0.4-0.6-0.7-1.2-0.8-1.9 -0.7 0.3-1 0.6-0.9 1.1 -2.3-3.1-1.8 2.6-2.8 3.2 -0.3-0.9-0.2-1.8 0.2-2.7 -2.9-2.2-3.6 3.3-2.6 4.6 0.9 1.2 6.2 1.3 7.7 1.4 -3.3 5.4 1.1-5-3.3 3.3 -0.1-1-0.3-2-0.6-3 0 0.4-0.7 0.5-1.2 0.6 0.2 0.6 0.3 1.9 0.1 2 0.2-0.1-3.2-2.6-3.2-2.8 0.3 1 0.9 1.9 1.7 2.6 -0.9 0.6-1.4 0.9-1.9 1 -1.8-0.7-4.5-0.2-5.4 1.2 0.1-0.5 0.5-3.6-0.2-3.9 0.4 0.2-2.8-1.4-3.9-1.5 -3.4-0.5 2.2 8.5 2.2 8.5 3.8 2.7 10-0.9 12.8 4.3 -0.4-0.7-5.9 1-7 0.5 1.5 0.6 0.7 1.5-1.7-0.7 0.1 2.5-3.2 1.2-3.4 3.7 -1.1 0.8-2.3-4-3.4-0.9 -0.9 2.4 9.3 0.9 10.1 1.3 -0.2 0.9-0.7 1.4-1.5 1.7 1.5 1 3.1 1.8 4.8 2.3 -0.3-1.6 0-2.9 1.1-4 1.7-0.5 1.4 4.6 1.4 4.7 0.2-0.8-11.6 0.8-12.8 2.5 2.4-3.4-2.7-1.5-1.8-0.1 1.2 2.1 7.1 3.1 6.8 5.5 -0.9 0.3-1.8 0.2-2.6-0.1 -2.7 0.4 3.6 2.4 4.8 2.3 0.7-0.1 6.7-3.6 5.7-2.7 0.9-0.8 8.7-1.1 8.4 1.2 -0.2-0.9-7.6 2.5-4.8 3.2 2.2 0.6 9.2-2.4 8.6-2.6 1.9 0.7 0.5 5.8 0.5 7 -2.9-1-5.9-1.9-8.8-2.9 3.9 1.8 8.5 3.6 8.5 8.8 -2.7-2.3-5.8-4.3-8.9-6 4.1 3.2 8.1 7.1 8.1 12.7 -1.4-1.4-2.7-2.7-4.1-4.1 1.5 1.6 6.9 8.4 1 7.6 1.6 0.6 5.5 5.4 1.1 4.6 1.8 0.8 3.5 4.1-0.4 3.2 1.3 0.6 2.1 1.6 2.4 3 -0.7 1.2-1.2 121.4-1.2 121.4s-44.5-10.9-66.6-13.2c-5.5-0.6-13.3-3.6-13.3-3.6s-0.1-12.1 0-15.2c0.4-20 0.7-39.9 0.4-59.9 -0.1-9.5 0.3-19.1-0.3-28.6 -0.4-5.5-3.8-16.4 2-20.1 -4.3 1-1.7-11.2-1.7-12.8 3.2 0.7 6.3 1.3 9.5 2 -4.5-1.5-8.9-3.4-9.5-8.8 0.6 0 1.3 0.1 1.9 0.1 -0.7-0.4-1.2-1-1.5-1.9 -0.4-1.5 1.2-2.8 3-3.4 -0.7 0-1.3 0-1.7 0 0.1-0.7 0.3-0.8 0.5-0.8 1 1 0.7 0.7 0 0 0.1 0.1 0.1 0.1 0.2 0.2 0 0-0.1-0.1-0.2-0.2 0 0 0 0 0 0 -0.1 0-0.2-0.1-0.3-0.3 0.2 0.2 8.1-3.4 6.8-0.6 -0.4 0.7-1.4 1.1-2.6 1.3 0.4 0.1 0.7 0.2 0.9 0.5 -0.1 0.6-3.8 1.2-3.2 1.5 0-0.1 11.4 3.4 12.3 3.2 1.7-0.3 8.3-4.7 3.8-4.6 0-0.1 10.8-6 4.2-0.1 0.1-0.1 3.8-0.1 4.1-0.2 0.5-0.1 0.9-3.5-0.1-2.9 2.1-1.1 2.6 3.1 6.4 0.5 4.6-3.1 1.5-8.1-3.2-9.3 1.7 0.4 3.2-3.6 3-4.7 -0.7-4.6-3.5-0.1-1.8-4.8 -0.1-0.4-3.1-0.3-3.1-0.2 0.4-0.5 1.7-3.2-2.1-3 0.6-0.1 1-0.4 1.2-1 -0.6-0.9-1.2-0.7-1.7 0.3 -0.5-2-5-11.3-7.8-9.1 -0.3-3.2 4.5-2.1 3.6-6.4 -0.4-1.8-5.7-5.1-5.7-4.8 0.1-2 4.7-1 4.7-3 -0.5-0.7-0.9-1-1.1-1 0-0.2 0-0.3 0.1-0.5 0.2-1.7 2.1 0 1.7-2.7 -0.2-1.1-3.2-8.3-5.5-6 0.1 0 0.4-7.2-2.8-10 -3.7-3.4-6.6-2.8-8.8-6.8 -1.2 3.4-4.6 1.5-5 1.5C61.5 62.6 41.2 73 44.3 76.7c-2.4-0.7 1.9 3.9 1.9 4.3 0-3 11.8 2.1 11.6 2.6 -1.1 1.2-1.9 1.8-2.3 2.1 0.5-0.1 1.3-0.1 2.2 0.6 0.6 0.5-4.7 1-5.1 1.8 4.2-6.8-8.5-4.2-4-1.7 -0.6-0.1-1.2-0.1-1.9-0.1 1.8 2.2 3.2-0.5 5.2 0.8 1.2 1.2-3.5 10.8-6.4 5.1 0.9 1.8-2 2.5-2.2 1.8 -0.9 14-11.6 1.5-11.8 1.9 -0.9-2.7-4.3-6.3-7.2-6.9 -1.5-0.3-15.5 0.1-10.1 4.1 0 0.1-4.2-0.7-4.6-0.2 0 0 4.2 3 2.3 3.2 0.6 0.2 3.9 2 4.1 2.1 0 0.2-4 0.6-4.1 1.9 1-0.3 1.9-0.3 2.8 0 -1.9 0.8-5.8 4.8-5.8 4.9 -0.5 0.7-1.9 7.1-1.8 7.2 0.8 1.7 1.9 1.5 2.8 4.2 0.8-0.4 1.9-0.5 3-0.5 -2.8 1.9-5.6 6.1-3.1 6.8 -5.1-1.4-6 1.1-8.7 1.6 0.5 1.3 0 1.9-1.5 1.8l4.1 10.5c0.1-2-0.2-3.8-1.1-5.6 0.2-0.3 4.2 1.1 4.2 1.6 0 2.8-5.8 13.3 0.7 14.2 -4 0.6 1.1 3.9 2.9 4.1 -1.1 0.1-2.2-0.1-3.3-0.6 -0.2 0.9 0.1 1.7 0.8 2.4 -2.1-1.7-4 6.2-3 7.4 2.4 2.8 9.5-4.5 11.3-0.3 0.9 2.2-4.6 2.6-4.6 4.8 0.1 1.7 6.4 5.5 5.8 6.3 0.9-1.6 1.6-1.5 2.1 0.3 1.3-0.4 1.8-1.3 1.6-2.7 0.1 0.4 2.1 4.8 2.3 1.5 -0.3 8.2-1.2 4.6-7.4 3.2 3.2 1.2 5.1 2.8 6.1 6 1.6 5 1.6 8.9-3.8 2.5 2.2 2.7 3.6 6.4 3.2 9.9 -1.9-1.7-4.1-3-6.6-3.7 3.1 1 2.2 3.2 0 4.6 8.2-4.4 5.1 9.7 4.6 13.3 -2.3 16.6-3.7 33.2-4 50 -0.2 8.3 0.2 16.6-0.3 24.8 -0.1 2.6 0.3 7.4-1.1 9.7 -3 4.9-14.2 6.6-14.2 6.6V454c0 0 1529.4 0.7 1680.2 0.7V321.3C1680.2 321.3 1665.9 314.7 1659.5 311zM1642.3 78.4C1642.3 78.4 1642.2 78.4 1642.3 78.4 1642.2 78.4 1642.2 78.4 1642.3 78.4c-0.3-0.2-0.3-0.3-0.3-0.3 -0.3-0.4-0.1-0.8 0.5-1C1642.4 77.9 1642.3 78.2 1642.3 78.4 1642.3 78.3 1642.3 78.4 1642.3 78.4zM1644.1 77.8C1644.1 77.8 1644.1 77.9 1644.1 77.8c-2-0.7-1.4-0.8-0.7-0.5 -0.3-0.2-0.5-0.4-0.8-0.6 0.5-1.1 1.4-1.8 2.7-2 -0.3 1-0.2 1.9 0.2 2.8C1644 77.1 1644 77.6 1644.1 77.8zM1549.5 64.8c-2 0 6.8-11.9 7.6-8.4 -0.1-0.5-3.5 2-3.5 2.1 0.3 0.4 4.3 0.6 4.3 0.6C1555.4 60.9 1553 64.8 1549.5 64.8zM1555 75.2c0 0 0.1 0 0.1 0.1C1554.5 75 1553.9 74.8 1555 75.2zM1554.7 75.1c0.1 0 0.2 0.1 0.3 0.1C1553.8 74.7 1554.2 74.9 1554.7 75.1zM1560.1 72.8c-0.4 1.5-3.7 2.4-5.4 2.2 -1.8-1.5 0.8-4.4 1.9-5.3 -3.2 4.9 3.5-0.8 3.7 0.3C1560.9 72.7 1557.2 73.2 1560.1 72.8zM1560.9 97.8c0.5 1.6 0.7 3.4 0.7 5.1C1561 102.4 1559.4 98.3 1560.9 97.8zM1560.6 94.9c-0.8-0.4-1.7-0.7-2.1-0.9 0 0 0.1 0 0.1 0.1 -0.1 0-0.2-0.1-0.3-0.1 1.3 1 2.1 2.3 2.6 3.8 -1.2 0.3-5.3 1.9-5.3 3.5 -3.1 0.6 6.2-16.2 6.1-7.1C1561.4 94.6 1561 94.8 1560.6 94.9zM1522.9 80.2c3.9 0.4-0.3 2.8 0.7 3.5 -1.4-0.9-0.5-2.3-0.9-2.5C1524.2 81.1 1524.2 80.7 1522.9 80.2zM1521.6 56.9c-0.2 0.3-0.5 0.6-0.6 0.2C1521 57.1 1521.2 57.1 1521.6 56.9zM1345.2 30.9c0.9-2.1 3.1 1 3.6 1C1348.3 31.9 1343.7 34.4 1345.2 30.9zM1329.9 48C1330 48 1330 48 1329.9 48 1330 48 1330 47.9 1329.9 48 1329.9 47.9 1329.9 47.9 1329.9 48 1329.9 48 1329.9 48 1329.9 48c-1-2.5-1.5 4.6-0.6-2.5 0.5 0.7 0.7 1.5 0.6 2.4C1330 47.9 1330 47.9 1329.9 48c0.1-0.1 0.1-0.1 0.1 0.4C1330 48.2 1330 48.1 1329.9 48zM1307.1 79.7C1307.1 79.7 1307.1 79.7 1307.1 79.7 1307.1 79.7 1307.1 79.7 1307.1 79.7 1307.1 79.7 1307.1 79.7 1307.1 79.7zM1307.1 79.8C1307.1 79.8 1307.1 79.8 1307.1 79.8c0-0.1 0.1-0.1 0-0.1 0 0 0 0 0 0 0-0.1 0-0.1 0 0 0.2 0.2 2.8 2.4 2.8 2.5 -0.6-0.1-0.8 0.1-0.5 0.5 -1.1 1-2-1.3-2.5-2.6 0-0.1 0-0.1 0-0.2 0 0 0 0.1-0.1 0.1 0 0 0 0 0 0C1307 80.1 1307 79.9 1307.1 79.8zM1306.9 80.3c0 0 0 0.1 0 0.1C1306.7 80.9 1306.6 81.1 1306.9 80.3zM1304.6 81.6c-0.5 0.1-0.7-0.7-0.2-1.1C1304.5 80.7 1304.7 81.6 1304.6 81.6zM1304.8 73.3c0.5 1.2-1.6 0.3-1.5 0.3C1303.5 73.4 1304.4 72.6 1304.8 73.3zM1293.2 69c-0.2-0.1-0.4-0.3-0.1-0.3 0 0.1 0.1 0.1 0.1 0.2 0 0 0 0 0 0C1293.3 68.9 1293.3 69 1293.2 69c0.7 1.1 0.4 1.9-0.8 2.4C1291.5 71.2 1292.9 69.6 1293.2 69zM1291.3 68.5c0.1-0.1 0.2-0.1 0 0.3C1289.1 68.8 1291 68 1291.3 68.5zM1290.4 55.5c-0.4 0.2-0.4 0.2-0.3 0.2C1290 55.8 1290.3 55.7 1290.4 55.5c0.1 0.6 0.2 1 0.4 1.4 -0.8-0.2-1.7 0.1-2.2-1.5C1289.2 55.2 1289.8 55.3 1290.4 55.5zM1288.7 39.8c1.9-1.3 2.1-0.7 0.6 1.8 0-0.3-0.9-1.7-0.8-1.7C1288.7 39.8 1288.7 39.8 1288.7 39.8zM1283.6 74.8c0.9 0.2 0.3 0.4-0.3 0.5C1283.4 75.3 1283.5 75.1 1283.6 74.8zM1280.8 83.8c0.2-0.1 0.3 0.3 0.3 0.8C1280.7 84.1 1280.6 83.8 1280.8 83.8zM1281 77.8c0 0 0 0-0.2-0.1C1282 77.8 1281.9 78.3 1281 77.8zM1280.5 82.2c0-0.1 0.1-0.1 0.2-0.2 0.1-0.1 0.1-0.1 0.1-0.1 0 0.8 0 2.2-0.3 1.5C1280.3 82.8 1280.4 82.4 1280.5 82.2zM1279.7 85.3c-0.7-1.5-0.5-0.8-0.4-2.2C1279.6 83.6 1279.7 84.9 1279.7 85.3zM1279.3 82C1279.3 81.8 1279.3 81.9 1279.3 82c0-0.5-0.3-0.9-0.3-1.4C1279.8 80.5 1279.2 82.2 1279.3 82zM1206.9 62.7C1206.8 62.7 1206.8 62.7 1206.9 62.7 1207.2 62.1 1207.4 62 1206.9 62.7zM1206.7 63c-0.1 0.1-0.2 0.2-0.3 0.4C1206.4 63.2 1206.5 63.1 1206.7 63zM1211.1 64.8c0 0 0.1 0 0.1 0.1C1211.2 64.9 1211.2 64.9 1211.1 64.8 1211.2 64.9 1211.2 64.9 1211.1 64.8c-2-0.3-5 0.4-6.7 0.6 0 0 0.6-0.7 1.2-1.4 1.8-0.6 5.8-2 5.8-0.4C1209.9 63.6 1210.8 64.5 1211.1 64.8zM1217.7 61.6c0 0-0.1 0-0.1 0 0 0 0 0 0 0 -2.5-0.6-6.4 1-8.7-0.3 2.3-1.2 4.6-2.2 7-3 -1.8-0.8-2.7-0.8-4.5-1.4 2.3-1.1-0.1-0.4-0.6-1 0.3-0.3 2.6-3.6 3.4-2.7 0.1 0.4 0.1 0.7 0.1 1 2.3-0.4 5.3 0.7 3 3.2 2.6-0.5 1.8-3.9 2.6 0.4 0.4 2.5-5.7 0.9-0.4 2.2 -0.4 0-0.9 0-1.3 0.3 0.4 0.5 0.8 0.7 1.4 0.6C1219.6 60.8 1218.3 61.3 1217.7 61.6 1217.9 61.5 1217.9 61.6 1217.7 61.6zM1219.2 85c2.9-1.7 4.5 2.2 4.5 4.5C1222.2 88 1220.7 86.5 1219.2 85zM1223.6 75.8c0 0 0 0 0 0.2 0 0.1-4.4-0.4-4.6-0.4 1.4-0.5 2.5-1.4 3.4-2.7 -2.2 0.4-3.6-0.5-4.1-2.7 0 0.2 1.7-0.1 1.7 1.9 0-0.2 3.5-1.7 3.1-2.4C1224.2 71.5 1223.5 74.1 1223.6 75.8zM1142.6 58C1142.6 58 1142.6 58 1142.6 58 1142.6 58 1142.5 58 1142.6 58c-0.3-0.2-0.3-0.3-0.3-0.3 -0.3-0.4-0.1-0.8 0.5-1C1142.7 57.5 1142.6 57.8 1142.6 58 1142.6 57.9 1142.6 57.9 1142.6 58zM1144.4 57.4C1144.4 57.4 1144.4 57.4 1144.4 57.4c-2-0.7-1.4-0.8-0.7-0.5 -0.3-0.2-0.5-0.4-0.8-0.6 0.5-1.1 1.4-1.8 2.7-2 -0.3 1-0.2 1.9 0.2 2.8C1144.3 56.7 1144.3 57.2 1144.4 57.4zM1147.7 71.5C1147.7 71.5 1147.7 71.5 1147.7 71.5c0 0-0.1 0-0.1 0C1147.6 71.5 1147.7 71.5 1147.7 71.5zM1147.8 71.5C1147.8 71.5 1147.8 71.5 1147.8 71.5 1147.8 71.5 1147.8 71.5 1147.8 71.5 1147.8 71.5 1147.8 71.5 1147.8 71.5c0.1 0 0.1 0 0.2 0 0.2 0 0.4 0 0.7 0 2 0.1 1.2 0.1 0.3 0.1 0.7 0.6-4.8 3.7-4.8 6 -4.7-3.1 4.5-5.2 3.9-6C1147.7 71.6 1147.1 71.5 1147.8 71.5zM1138.8 76.6c-2 0 6.8-11.9 7.6-8.4 -0.1-0.5-3.5 2-3.5 2.1 0.3 0.4 4.3 0.6 4.3 0.6C1144.7 72.7 1142.3 76.6 1138.8 76.6zM1142.4 87.9c-0.6 0.5-1.3 0.9-1.9 1.4 -0.4-1 1.5-4.4 2.1-5.1C1143.7 85.5 1143.6 86.7 1142.4 87.9zM1144.3 87c0 0 0.1 0 0.1 0.1C1143.9 86.8 1143.2 86.5 1144.3 87zM1144 86.9c0.1 0 0.2 0.1 0.2 0.1C1143.2 86.5 1143.5 86.7 1144 86.9zM1144.1 86.8c-1.8-1.5 0.8-4.4 1.9-5.3 -3.2 4.9 3.5-0.8 3.7 0.3 0.5 2.6-3.2 3.1-0.3 2.7C1149.1 86.1 1145.7 87 1144.1 86.8zM1150.9 114.6c-0.6-0.5-2.3-4.7-0.6-5.1 -1.2 0.3-5.4 1.9-5.4 3.5 -3.1 0.6 6.2-16.2 6.1-7.1C1150.1 107 1150.9 111.5 1150.9 114.6zM956.7 155.6c0-0.1-0.2-0.1 0-0.5C956.8 155.2 956.8 155.4 956.7 155.6zM946.8 122.5C946.8 122.5 946.9 122.4 946.8 122.5 946.8 122.5 946.8 122.5 946.8 122.5 947 122.4 946.9 122.5 946.8 122.5 946.8 122.5 946.8 122.5 946.8 122.5c0.7 0.1 1.1 0.1 1.3 0 0.3 0.5 0.2 1.1-0.1 1.8C947.4 124.3 946.9 122.9 946.8 122.5 946.8 122.5 946.8 122.5 946.8 122.5 946.8 122.5 946.8 122.5 946.8 122.5 946.7 122.4 946.7 122.3 946.8 122.5zM943.2 96.7c-0.2 0.2-0.3 0.4-0.5 0.1C942.8 96.8 943 96.8 943.2 96.7zM939.3 96.8c-0.2 0.2-0.3 0.4-0.4 0.5C939.3 96.4 939.4 96.5 939.3 96.8zM939.2 97c-0.1 0.1-0.2 0.3-0.3 0.4C939 97.3 939.1 97.2 939.2 97zM938.8 92.9c-0.1 0.1-0.1 1.3 0 2.5C938.6 94.4 938.3 93.6 938.8 92.9zM938.7 98.3c1.1-0.7 1-0.6-0.3 0.4C938.5 98.7 937.9 97.6 938.7 98.3zM938.2 109.5c0.2 0.1 0.2 0.1 0.1 0.2 0.3 0.6 0.2 2.9 0.1 3.2C937.4 111.2 937.9 110.4 938.2 109.5zM928.3 112.6c-0.6-3 4.8 2.8 4.8 2.8C930.4 116.8 930 113.6 928.3 112.6zM938.9 127.1c-1-0.9-5-3.3-5.1-5.1C930.8 119.8 942.2 120.2 938.9 127.1zM936 129.5C936 129.5 936 129.5 936 129.5 936 129.5 936 129.5 936 129.5 936 129.5 936 129.5 936 129.5 936 129.5 936 129.5 936 129.5c-0.2 0-0.3 0-0.3 0 -1 0-1.5-0.6-1.5-1.8 1.2 0.4 1.7 1.8 2.4 1.6 -0.2 0.1-0.4 0.1-0.5 0.2C936.1 129.5 936.1 129.5 936 129.5 936.1 129.5 936.2 129.5 936 129.5zM939.6 142.5c0 0-0.1-0.1-0.1-0.1 0 0 0 0 0 0 -0.5-0.6-2.7-3.6-2.9-3.1 1-2.5 2.6 3.3 3 2.8C939.8 141.6 940.1 140.9 939.6 142.5zM939.7 109.5c0.4 0.6 1.5 1.1 1.9 1.8 -0.1 0-0.1 0-0.2 0 -0.3 0.5-0.6 1-0.9 1.6C940 111.8 939.7 110.7 939.7 109.5zM941.1 113c0.5-0.5 0.6-1.1 0.5-1.5 0.1 0 0.1 0 0.2 0C941.8 111.9 941.7 112.4 941.1 113zM941.8 123.2c0-0.1 0-0.2 0-0.3 0 0 0 0 0 0 0 0 0 0 0 0 0.7 1 1.1 0.8 1.1-0.6 1.5 1.2 1.7 2.2 0.6 3.1C942.1 125.4 941.9 123.9 941.8 123.2zM947.2 144.9c0.1 0.7-0.2 1-0.8 0.9C946.3 145.5 946.7 145.2 947.2 144.9zM944 146.3c-0.6-0.4 0.6-1.6 0.8-0.5C944.8 146.1 944.2 146.4 944 146.3zM886.9 159.7c0-0.1-0.2-0.1 0-0.6C887.1 159.2 887 159.5 886.9 159.7zM889.4 151.7c-0.9-1.2-1.6-2-1.5-2C888.5 150.2 889 150.9 889.4 151.7zM879.5 124.8C879.5 124.8 879.6 124.8 879.5 124.8 879.5 124.8 879.5 124.8 879.5 124.8 879.7 124.8 879.6 124.8 879.5 124.8 879.5 124.9 879.5 124.9 879.5 124.8c0.8 0.2 1.2 0.2 1.3 0.1 0.2 0.6 0.2 1.2-0.3 1.9C880 126.7 879.5 125.3 879.5 124.8 879.4 124.9 879.4 124.9 879.5 124.8 879.5 124.9 879.5 124.9 879.5 124.8 879.4 124.7 879.4 124.7 879.5 124.8zM878 98c-0.2 0.2-0.4 0.4-0.5 0C877.5 98.1 877.7 98.1 878 98zM861.3 113.1c-0.4-3.1 4.7 3.3 4.7 3.3C863.1 117.7 862.9 114.3 861.3 113.1zM870.5 124.8c1 1.1-0.7 1.9-1.9 2.3 0.5-0.2-3.7-5-3.7-4.9C867.9 119.1 869.4 123.5 870.5 124.8zM870.3 126.6c-0.1 0-0.2 0.1-0.3 0.1 0.1 0 0.3-0.1 0.4-0.1C870.4 126.6 870.4 126.6 870.3 126.6zM870.4 126.6c-0.4 0.1-1.7 0.4-0.9 0.2C870 126.7 870.3 126.6 870.4 126.6zM866.2 129c0.1-0.1 0.2-0.1 0.2-0.1 0.3-0.1 0.3-0.1 0.2 0 0.6 0.1 1.2 0.8 1.7 1.2 -0.7-0.4-1.3-0.7-2-1.1C866.3 129 866.3 129 866.2 129zM870.4 144.8c0 0-0.1-0.1-0.1-0.1 0 0 0 0 0 0 -0.5-0.7-2.5-3.9-2.8-3.4 1.3-2.5 2.4 3.7 2.9 3.1C870.7 143.9 871.1 143.2 870.4 144.8zM834.8 155.4C834.8 155.4 834.8 155.4 834.8 155.4 834.7 155.4 834.7 155.4 834.8 155.4zM836 155.3C836 155.3 836 155.3 836 155.3 836 155.3 836 155.3 836 155.3c-0.3-0.2-0.3-0.3-0.3-0.3 -0.3-0.4-0.2-0.8 0.5-1.1C836.1 154.8 836 155.1 836 155.3 836 155.3 836 155.3 836 155.3zM837.8 154.7C837.8 154.7 837.8 154.7 837.8 154.7c-2.1-0.6-1.4-0.7-0.7-0.5 -0.3-0.2-0.6-0.4-0.8-0.6 0.5-1.1 1.4-1.8 2.7-2.1 -0.2 1-0.1 1.9 0.3 2.8C837.6 153.9 837.7 154.5 837.8 154.7zM513.6 154.7c0.3 0 0.4 0.1 0.3 0.1 0.7 0.5 0.3 2.6 0.3 2.6 -1.5-0.5-0.8-2.1-0.6-2.6C513.3 154.8 513.1 154.8 513.6 154.7zM452.4 128c-1.6 1.1-2.8 0.8-3.5-0.7C448.6 125.4 452.8 128 452.4 128zM449.3 157.8C449.3 157.8 449.3 157.8 449.3 157.8c0.1-0.1 0.1-0.1 0.1-0.2C449.4 157.7 449.3 157.8 449.3 157.8zM449.4 157.7C449.4 157.7 449.4 157.7 449.4 157.7 449.5 157.6 449.5 157.6 449.4 157.7zM447.8 139.9c1 0.1 1.8 0.1 2.4 0.2C449.1 141.6 448.3 141.5 447.8 139.9zM336.6 137.6c0.1 0 0.3 0.1 0.4 0.1C336.8 137.7 336.6 137.7 336.6 137.6zM327.4 113.1c1.7 0.9 5.8 3 7.1 4.6 0 1-7.1-0.5-7.6-1C325.6 115.3 327.7 113.4 327.4 113.1zM322.4 102.9c0 0 0 0 0.1-0.1 2.2-0.5 0.7-0.1 0.1 0 0.7 0.2 5.6 1 4 2.4C324.8 106.8 320.6 103.7 322.4 102.9zM325.3 126.3C325.3 126.3 325.3 126.3 325.3 126.3 325.3 126.3 325.3 126.3 325.3 126.3 325.3 126.3 325.3 126.3 325.3 126.3zM317.6 123.6c1.5-1.2 6.9 2.7 7.7 3.1 0 0.1 0.1 0.1 0.1 0 0-0.1 0-0.2-0.1-0.3 2.5 2 9.2-1.7 8-3.1 1.1 0.8 6.5 4.3 6 1.9 0.6 2.7-3.2 6.3-5 1.7 -0.8 0.4-6.4 2-6.1 3.6C328.3 130.9 315.5 125.3 317.6 123.6zM242.7 122c0.9-0.1 1.6-0.4 2-0.5 0.2 0 0.6-0.1 0.3-0.1 -3.3 0.5-2.2-4.1-1.6-3.5C245.3 119.9 249.9 121.4 242.7 122zM249.6 131.1c-0.2 0.2-3.6-4.2-3.9-4.5 4-4 4.3 3 4.7 3.2C250.9 130.1 251.6 129.2 249.6 131.1zM173.4 139.7c0.1 0 0.3 0.1 0.4 0.1C173.6 139.8 173.4 139.8 173.4 139.7zM164.2 115.2c1.7 0.9 5.8 3 7.1 4.6 0 1-7.1-0.5-7.6-1C162.4 117.4 164.4 115.5 164.2 115.2zM159.2 105c0 0 0 0 0.1-0.1 2.2-0.5 0.7-0.1 0.1 0 0.7 0.1 5.6 1 4 2.4C161.6 108.9 157.4 105.8 159.2 105zM162.1 128.4C162.1 128.4 162.1 128.4 162.1 128.4 162.1 128.4 162.1 128.4 162.1 128.4 162.1 128.4 162.1 128.4 162.1 128.4zM154.4 125.7c1.5-1.2 6.9 2.7 7.7 3.1 0 0.1 0.1 0.1 0.1 0 0-0.1 0-0.2-0.1-0.3 2.5 2 9.2-1.7 8-3.1 1.1 0.8 6.5 4.3 6 1.9 0.6 2.7-3.2 6.3-5 1.7 -0.8 0.4-6.4 2-6.1 3.6C165.1 133 152.3 127.4 154.4 125.7zM118.8 119.6C118.8 119.6 118.9 119.6 118.8 119.6 118.9 119.6 118.8 119.6 118.8 119.6 118.8 119.6 118.8 119.6 118.8 119.6 118.8 119.6 118.8 119.6 118.8 119.6c-1-2.5-1.5 4.7-0.6-2.6 0.5 0.7 0.7 1.5 0.6 2.4C118.9 119.5 118.9 119.5 118.8 119.6c0.1-0.1 0.1-0.1 0.1 0.4C118.9 119.9 118.9 119.8 118.8 119.6zM84.6 132.4C84.6 132.4 84.6 132.4 84.6 132.4 84.6 132.4 84.6 132.4 84.6 132.4 84.6 132.4 84.6 132.4 84.6 132.4zM84.6 132.4C84.6 132.4 84.6 132.4 84.6 132.4 84.6 132.4 84.6 132.4 84.6 132.4 84.6 132.4 84.7 132.4 84.6 132.4 84.7 132.4 84.7 132.4 84.6 132.4zM85.3 131.7C85.3 131.7 85.3 131.7 85.3 131.7 85.3 131.7 85.3 131.7 85.3 131.7 85.3 131.7 85.3 131.7 85.3 131.7 85.3 131.7 85.3 131.7 85.3 131.7zM85.1 132C85.1 132 85 132 85.1 132 85.1 132 85.1 132 85.1 132c0.1-0.1 0.1-0.1 0.1-0.1 0 0 0 0 0 0C85.2 131.9 85.1 131.9 85.1 132c0.1-0.1 0.1-0.1 0.2-0.2 0 0 0 0 0 0 0 0 0 0 0 0 0 0 0 0 0 0 0 0 0 0 0 0 0 0 0 0 0 0 0 0 0 0 0 0 0 0 0 0 0 0 0 0 0 0 0 0 0 0 0 0 0 0 0 0 0 0 0 0C85.2 131.8 85.1 131.9 85.1 132 85 132 85 132.1 85.1 132c-0.1 0.1-0.1 0.2-0.2 0.2 0 0 0 0 0 0C84.9 132.1 85 132 85.1 132zM84.7 132.3C84.7 132.3 84.7 132.3 84.7 132.3 84.7 132.3 84.7 132.3 84.7 132.3 84.8 132.3 84.8 132.3 84.7 132.3 84.8 132.3 84.8 132.3 84.7 132.3 84.8 132.2 84.8 132.2 84.7 132.3c0.1-0.1 0.1-0.1 0.1-0.1C84.8 132.2 84.8 132.3 84.7 132.3zM82.3 119.2c1.2 1 0.5 3.2 2.2 4C80.9 126.8 81.3 120 82.3 119.2zM78 130.7c1.9-1.5 8.6-0.2 6.5 1.9 0 0 0.1-0.1 0.1-0.1 0 0 0 0 0 0 0 0 0 0 0 0 0 0 0 0 0 0 0 0 0 0 0 0 0 0 0 0 0 0h0c0 0-0.1 0.1-0.1 0.1 -0.1-1-0.7-1.7-1.7-1.9C85.5 134.4 76.5 131.9 78 130.7zM70.8 114.8c3.1-0.8 2.7 2.6 1.6 3.4 0.1 0.2 2 2.2 2.5 1.9 -4.7 2.7-5.2-3-7.4-5.8C68 114.7 71.6 114.9 70.8 114.8zM11.2 137c0 0 0 0.1-0.3 0.1 0 0 0 0 0 0 0 0 0 0 0 0 -0.2-0.1-0.2-0.1-0.1-0.2 0-0.6 1.6-2.4 2.1-1.5C13.2 136.3 11.8 136.8 11.2 137zM16.9 144.3c-0.8 0.5-1.4 1.2-2 2C15.9 136.2 15.7 144.5 16.9 144.3 16.4 144.4 16.7 144.3 16.9 144.3zM17 116.3c-0.1-0.3-0.2-0.5-0.3-0.8 0.4-0.1 0.7-0.1 1-0.2C17.4 115.6 17.2 116 17 116.3zM21.7 152.9c-0.1-0.6 0-1.1 0.4-1.5C21.9 151.6 21.7 152.3 21.7 152.9zM22.3 154.5c0.1 0 0.3-0.1 0.4-0.2C22.6 154.8 22.5 154.8 22.3 154.5zM50.7 110.9c0 0 0.1 0 0.3-0.1 0 0 0.1 0 0.1 0 0 0 0 0 0 0 0.1-0.1 0.3-0.1 0.5-0.2 0 0 0 0 0.1 0 0 0 0.1 0 0.1-0.1 -2.3-1-2.3-0.6-4.5-1.4 2.3-1.1-0.1-0.4-0.6-1 0.7-0.7 1.8-3.5 3.4-2.2 0.1 0.2 0.1 0.3 0.1 0.5 2.3-0.3 5.2 0.7 2.9 3.2 2.6-0.5 1.8-3.9 2.6 0.4 0.4 2.5-5.7 0.9-0.4 2.2 -0.4 0-0.9 0-1.3 0.3 0.1 0.7 0.2 1 0.3 1.1 -0.1-0.2-0.8-0.7-2.6-0.5 -2 0.3-4.8 1.6-6.9 0.4C46.7 112.5 48.7 111.7 50.7 110.9zM41.7 124.5c-0.3-0.2-1-0.7-0.6-0.6 0.2 0.1 0.4 0.2 0.8 0.3 -0.2-0.5-0.4-1.1-0.7-1.6 5.6 3.3-1.8 2.6-2.5 3.4C40.1 124.5 40.5 123.9 41.7 124.5zM42.4 131.2C42.3 131.2 42.3 131.2 42.4 131.2c-0.3 0-0.4-0.1-0.4-0.3C42.1 131 42.2 131.1 42.4 131.2 42.4 131.2 42.4 131.2 42.4 131.2zM33 149c-0.3-1.4 3.7 2.1 1.9-0.4 0.6 0.3 1 0.6 0.1 1.8 -1.9 2.6-1.5-2.7-2.2-1C33.3 148.4 33.1 148.6 33 149zM29.5 149c0.3-0.3 2.4-1.4 2.4-0.8 -0.4 1.2-0.4 2.3 0.1 3.4C29.3 150.6 25.5 149 29.5 149zM24.7 288.9C24.7 288.9 24.7 288.9 24.7 288.9 24.7 288.9 24.7 288.8 24.7 288.9c0 2.5-4.9 2.1-6.3 2.3 0.8-34.1 1.3-68.3 6.4-102.1L24.7 288.9C24.7 288.8 24.7 288.8 24.7 288.9zM58.6 196.2c-1.1-1.6-1.3 45-0.5 66.2 0.2 6-0.8 23.4-0.8 23.4s-21.4 3.1-29.2 4c-0.4-39.6-0.8-79.2-0.8-118.9 -0.3 0 4.7 6.7 4.7 6.8 0.4-0.8-1.7-2.6 0.3-2 -1-0.4-1.9-1-2.6-1.8 1.3 0.6 4.6-0.3 5.1-0.5 -1.9-1.4-3.2-1-2.9-4 -0.3 2.5-2.6-0.9-2.7-1.5 -0.1-0.2 0.8-8.2 0.7-8.1 -0.8 0.1-1.6 0.1-2.5 0.1 2.6-2.4 14.5 7.2 15.6 4.9 -1.1-1-2.4-1.6-3.8-1.7 -0.6-2.3 4.5 1.1 4.4-0.4 0.9 0.9 3 1.4 3.3 0.1 1.8-8.5-17.5-3.5-19.1-5.1 -0.4-0.3 4.8-1.3 5.5-1.1 -2.9-1.2 3.4-1.9 4.1-2.8 -0.6-1.2-4.4-0.4-1.3-2.7 0.3-0.2 4.5-2.9 4.6-2.9 1.2 0.5 7.9 7.2 0.1 7.6 2.2-0.1 4.6 1.1 6.8 0.4 1-0.3 5.9-3.6 2.2-3 1.2-2.4 6.8-1.1 6.9-4.1 0.1-2.1-4.3-2.3-6.3-1.5 0.2-0.2 0.4-0.4 0.6-0.5 -1.3-0.9-2.7-1.4-4.2-1.4 8.9-2.2 2.7-9.7 3.1-10.5 -2.1 2.3-14.6-2.8-8-3.5 -2.4 2.3 7.2 0.5 2.9-1.5 0.8 0.3 5.2-1.2 5.7-1.2 -1.9-1.7-1.5-2.1 1.1-1.4 1.8 0.6 3.5 1.3 5.2 2.1 -1.6 0.7-1.8 1.8-0.6 3.2 -1.7-0.9-3.4-1.9-5-2.9 3 2.3 4 8 1.8 6.3 2.9 3.3 8.2 9.8 2.9 9.1 1.5 0.6 5.2 5.1 1 4.4 1.7 0.7 3.3 3.9-0.4 3.1 2.1 1.1 2.9 3.8 1.8 4.1 -0.7-0.6-1.5-1.1-2.5-1.4 0.1 0.1 0.2 0.3 0.3 0.4 -0.2-0.2-0.4-0.3-0.6-0.5 0.2 0.2 0.5 0.5 0.7 0.7 2.9 4.6 4.8 25-1.9 22.4C60.6 182.5 58.6 190.4 58.6 196.2zM27.5 161.8c0.1 0 0.3-0.2 0.6-0.3C27.9 161.6 27.7 161.8 27.5 161.8zM41.1 146.9c0.6-1.9 2.2 0.2 2.9 0.9C43.3 148.3 40.9 147.2 41.1 146.9zM44 146.9c0.5 1.2 0.6 1.3 0.4 1C44.5 148.2 44.1 147.4 44 146.9zM46.4 152.6c0.1-0.1 0.9-2.5 0.9-2.5C48.8 151.3 44.8 154.2 46.4 152.6zM55 137.3c2.9-1.7 4.5 2.2 4.5 4.5C58 140.3 56.5 138.8 55 137.3zM54.8 127.9c1.4-0.5 2.5-1.4 3.4-2.7 -2.2 0.4-3.5-0.4-4-2.5 0.3 0.4 1.9-0.8 1.8 1.4 0 0.3 3.2-1 2.9-0.8C60.5 122.7 60.5 129.7 54.8 127.9zM272.7 126.4c2.3-1.1-0.1-0.4-0.6-1 0.7-0.7 1.8-3.5 3.4-2.2 0.1 0.2 0.1 0.3 0.1 0.5 2.3-0.3 5.2 0.7 2.9 3.2 2.6-0.5 1.8-3.9 2.6 0.4 0.4 2.5-5.7 0.9-0.4 2.2 -0.4 0-0.9 0-1.3 0.3 0.2 1.5 1.4 0.8-2.6 1.6 -0.7 0.1-6.2 0.6-6.1-0.6 2.5 0.1 5.7-2.8 6.6-3.5C275.6 127.2 274.1 126.9 272.7 126.4zM272.3 134.4c0 0 0.1 0 0.1 0.1C272.4 134.4 272.4 134.4 272.3 134.4 272.4 134.4 272.4 134.4 272.3 134.4c-4.1-0.7-3.8 1.9-6.4-0.1 -1.8-1.3 3.3-4.2 2.1-2 -1.3-0.6-2 0-2 1.6 0.7-0.2 6.7-2.6 6.7-0.7C271.1 133.1 272 134.1 272.3 134.4zM268.7 154.7c-1.4-1.1-2.7-2.3-1.8-2.7C267.7 152.8 268.3 153.7 268.7 154.7zM267.8 132.6c-0.1 0.1-0.1 0.2-0.2 0.3C267.6 132.8 267.7 132.7 267.8 132.6zM257.7 104.3c-0.2 0.2-0.3 0.3-0.4 0C257.3 104.4 257.5 104.4 257.7 104.3zM264.2 116.4c0.1 0 0.2 0.1 0.5 0.2 -0.4-1.9 4.1-5.2 4.1-5 1.1 4.8-1.5 5.1-2.2 9.2 -3.5-1.7-0.2 0.3-3.9 0.7 -0.8-0.6-0.7-1.2 0.5-2 0.3-0.8-3 1.1-3.2 1.5 -0.1-0.2-3.4-4.1-3.8-3.6C257.9 115.5 262.4 116 264.2 116.4zM257.1 131.9C257.1 131.9 257.1 131.9 257.1 131.9 257.1 131.9 257.1 131.9 257.1 131.9 257.1 131.9 257.1 131.9 257.1 131.9zM254.3 129.1c0.1 0.2 2.5 2.1 2.2 2.9C254.6 132.3 253.9 131.4 254.3 129.1zM256.3 132.2C256.3 132.2 256.3 132.2 256.3 132.2 255.7 132.5 255.9 132.4 256.3 132.2zM253.5 104.8c0.3-0.7 1-4.5-0.2-4.2C257.8 99.3 254.8 103.7 253.5 104.8zM253.4 104.8c-0.1 0.1-0.2 0.1-0.2 0.1C253.3 104.8 253.4 104.8 253.4 104.8zM253.5 105.1c-0.1 0.2-0.1 0.3-0.1 0.5 0.1 0.2 0.1 0.7 0 0.2 0 0 0 0 0 0 0-0.1 0-0.2-0.1-0.3C253.4 105.3 253.4 105.2 253.5 105.1zM253.5 137.5c-0.1 0.2-0.2 0.5-0.3 0.6C253.2 136.6 253.1 138.1 253.5 137.5zM253.2 138.1c0.1-0.1 0.2-0.4 0.4-0.9 0.1-0.2 0.2-0.3 0.2-0.3 1.7-1.9 8.3-4.2 8.7-2.1C260 135.7 253.7 137.5 253.2 138.1zM282.8 305.6c-6.2-1-23.4-4.1-23.4-4.1s-4-95-4.2-108.6c-0.1-7.3 1.8-25.2 0-24 0.6-2.8 1.5-5.4 2.8-8 -3 5.2-2.6-0.3-3.4-2 -1.2-2.6 2.6-1.9 2.5-1.8 0.1-1.9-0.6-3.2-2.3-4.1 3.1 0.6 4.4 1 6.1-2 -0.9 0.3-4.1-0.3-4 0.1 -0.3-0.9 3.7-1.8 4.1-1.9 -2.2 0.7-5.6 0.3-7-1.8 3.2 0 2.6-1.1 6.1 1.4 -0.9-1.5-1.6-1.6-0.2-3.1 1.8 1 1.2 1.5 2.9 2.2 -0.5-0.2-1.1 1.1-1.7 1.8 0.3-0.3 4.9-0.5 4.4 0.8 -0.6 0.6-1 1.3-1.4 2.1 0.3 0.3 1.6 2.8 2 0.1 3.2 3.2-3 6.9-3.5 9.6 0.5 1.4 2.5-3 1.6 0.6 0.9-1.3 2-1.5 3.3-0.6 -0.3-1.5-0.2-3 0.3-4.5 -0.2 0.3 2.4 3.6 2.5 3.5 -1.9-2 2.5 0.4 2.9 0.4 -1.1-0.2-1.8-5.1-1.8-5.1 0.1 0.1-1.3-0.8-2.7-1.7 0.8-0.4 0.8-0.7-0.1-1.1 0.6-0.2 4.5 0.9 4.7-0.1 -0.7-1.1-1.7-1.6-3.1-1.6 1.3 0 0.7-4.3 0.1-4.6 0.8 0.3 5.2-1.2 5.7-1.2 -1.9-1.6-1.5-2.1 1.1-1.4 1.8 0.6 3.5 1.3 5.2 2.1 -1.6 0.7-1.8 1.8-0.6 3.1 -1.7-0.9-3.4-1.9-5-2.9 3 2.3 4 8 1.8 6.3 2.9 3.3 8.2 9.8 2.9 9.1 1.5 0.6 5.2 5.1 1 4.4 1.7 0.7 3.3 3.9-0.4 3.1 2 1.1 2.9 3.8 1.8 4.1C283.4 173.5 283 287.6 282.8 305.6zM266 161.3c0-0.1-0.1-0.1 0-0.5C266.1 160.9 266.1 161.1 266 161.3zM280.3 154.5c2.9-1.7 4.5 2.2 4.5 4.5C283.3 157.5 281.8 156 280.3 154.5zM280.1 145.1c1.4-0.5 2.5-1.4 3.4-2.6 -2.1 0.4-3.4-0.4-4-2.4 0.4 0.4 1.9-1.3 1.7 1.6 0.2-2.3 2.4-1.3 3.7-0.5C286.9 143.9 283.2 146.1 280.1 145.1zM284.6 140.6c0 0 0.1 0.1 0.1 0.1 -0.4-0.3-0.7-0.7-0.7-0.7 1.1 0.9 1.5 1.3 1.6 1.4C285.4 141.3 285 140.9 284.6 140.6zM308 149.3c-1.6 0.4-3.1 0.2-4.5-0.6C303.1 147.9 307.9 147.6 308 149.3zM302.2 157.1c5.1 0.1 5.9 1.4 5.4 6.7 -1.5-1.5-2.9-5.6-5.4-6.3 -0.1-0.1-0.2-0.1-0.3-0.2 -0.1 0-0.2-0.1-0.2-0.2C302 157.1 302.1 157.1 302.2 157.1zM301.7 157.4c-0.1 0-0.1 0-0.2 0C301.4 157.2 301.5 157.3 301.7 157.4zM297.4 132.7C295.8 133 298.2 129.8 297.4 132.7L297.4 132.7zM295 132.4c1.6 0 0.4-0.1 2.3 0.4C296.7 134.8 292.4 132.4 295 132.4zM290 108.3c-0.2-0.1-0.5-0.4 0.1-0.1 0.8 1.6 0.1 2.2-2.2 2 0.9 0.3 1.7 0.2 2.5-0.4 -0.3 1.6-1.2 2.2-2.8 1.9C285.8 110 289.3 108.7 290 108.3zM309.1 312.7c-4.8-1.7-18.9-6.2-18.9-6.2S289 167 289 165.4c3.1 0.7 6.3 1.3 9.4 2 -4.4-1.5-8.9-3.4-9.4-8.7 0.6 0 1.3 0.1 1.9 0.1 -0.7-0.4-1.2-0.9-1.5-1.9 -0.4-1.4 1.2-2.8 3-3.4 -0.7 0-1.3 0-1.7 0 0.1-0.7 0.3-0.8 0.5-0.7 0 0 0 0 0 0 0 0 0 0 0 0 -0.1 0-0.2-0.1-0.3-0.3 0.2 0.2 8.1-3.4 6.7-0.6 -0.4 0.7-1.4 1.1-2.6 1.3 0.4 0.1 0.7 0.2 0.9 0.5 -0.7 0.8-1.5 1.1-2.5 0.9 3.6 1.8 21.5 14 10.8 12.7 1.4 0.6 4.6 4.4 2.2 4.6 -1.5-0.5-1.5-0.3-1 0 -0.1 0-0.1 0-0.2 0 0.1 0 0.2 0 0.3 0 0 0 0 0 0 0 -0.1 0-0.2 0-0.3-0.1 1.8 0.8 3.5 4.1-0.4 3.2 1.3 0.6 2.1 1.6 2.4 3C306.8 179.3 309 295 309.1 312.7zM399.5 201.3c0-0.2 0-0.4 0-0.7C399.5 200.9 399.5 201.1 399.5 201.3zM397.3 193.4c0-0.1 0.1-0.3 0.1-0.4 0.2-0.1 0.4-0.2 0.5-0.2 0.1 0.1 0.1 0.2 0.1 0.3 0.4 0.2 0.5 1-0.9 1.1C397.2 193.8 397.2 193.6 397.3 193.4zM396.3 186.3c1.8 1 1.4 1.3 3.4 1.5C397.4 189.6 397.1 188.6 396.3 186.3zM397.4 192.9c0.4-1.7 1.5-3 3.1-4C400.5 191.5 398.2 192.7 397.4 192.9zM401 168.6c0.1 3.6 0 1.3 0 0.4 -0.2 3.3-4.1 0.5-5.1 0.2C397.6 169 399.3 168.8 401 168.6zM395.5 160.5c0.9 0.1 4.1 1.5 3.4 1.4 -0.5 0-1.7 1.9-3.9 0.4C392.9 165.7 394.3 160.4 395.5 160.5zM395.6 172.5C395.6 172.1 395.7 172.2 395.6 172.5c0.4-0.5 0.7-1 1-1.4 -0.4 0 4.8 2.7 3.5 3.8C396.6 177.8 395.4 171.8 395.6 172.5zM396.1 177.6c-0.1-0.2 0-0.3 0.1-0.4 0 0 0 0 0-0.1 0 0 0 0 0 0 0 0 0 0 0.1-0.1 0 0-0.1 0-0.1 0 0.8-1.1 4.4-2 4.7-2.2 -0.2 3.9-0.2 7.7-0.4 11.6 -0.3-0.4-4.5-3.8-4.3-3.5 -0.1-0.1 1.2-4 0.9-5.5 0 0-0.1 0-0.1 0 -0.5 0.4-0.7 0.5-0.8 0.3 0 0 0 0 0 0 0 0 0-0.1-0.1-0.1C396 177.9 396 177.8 396.1 177.6zM398.1 195c3.1-0.5 1 11.4 1.5 3.7 -0.5 6.7-1 5.1-1.5 11.8C398 208.6 393.6 195.7 398.1 195zM495.6 134C495.8 133.9 495.8 133.9 495.6 134 495.6 134 495.6 134 495.6 134zM495.4 134c-0.2 0-0.4 0.1-0.6 0.1 -0.1 0-0.1 0-0.2 0C494.8 134.1 495.1 134.1 495.4 134 495.4 134 495.4 134 495.4 134zM494.3 134.2c0.1 0 0.3 0 0.6-0.1 -0.1 0-0.2 0-0.3 0.1C494.4 134.2 494.4 134.2 494.3 134.2 494.3 134.2 494.3 134.2 494.3 134.2zM494.3 134.2C494.2 134.2 494.2 134.2 494.3 134.2 494.1 134.3 494.1 134.3 494.3 134.2zM495.2 134.2c-0.4 0.7-0.2 2.5-0.3 2.6 -0.7 0.5-5.2 1.5-5.3 1.4C491.3 136.6 493.2 135.3 495.2 134.2zM489.9 116.4c-0.4 1.9 3.2 0.7-0.6 2.4C489.4 117.2 489.8 117.4 489.9 116.4zM484.4 114.8c0.2-0.2 3.3-3.6 3.5-2.6 0.2 1-1.1 2.2-1.6 3.5C486.9 114.2 482.4 116 484.4 114.8zM483.4 167c0-0.1 0-0.1 0-0.2 0 0 0 0 0 0.1 0 0 0 0 0 0 0 0 0 0 0 0 0 0.2 0 0.4 0 0.6 0 0 0 0 0 0 0 0 0 0 0-0.1 0 0 0 0 0 0.1 -0.1 1.1-0.1 0.8-0.6 2.1 -1.9-1.3 0.1-2 0.6-3.2 0 0 0 0 0 0 0 0 0 0 0 0 0 0 0 0.1 0 0.1 0 0 0 0.1 0 0.2 0 0 0 0 0 0C483.4 166.8 483.4 166.9 483.4 167zM481.9 151.2c-0.2 0.6 0.1 0 0-0.1 1.5 2 0.2 2.3-3.8 1C479.8 151.9 481.6 151.5 481.9 151.2zM481 164.6c0.1 0.2-1 3.5-1.3 0.2 -0.3 8.3-6.7 0.9-9.2-0.5 1 0.6 4.1-4.8 5.8-4.6C477.9 160 481.1 164.6 481 164.6zM472.2 149.1c-0.2-0.1-0.4-0.2-0.5-0.2 1.6 1.1 3.1 2.1 4.8 3 -2.4-0.2-6.8 2.8-8.2-0.8C467 148 470 147.7 472.2 149.1zM465 345.9c0 0-0.4-51.6-0.4-64.6 0-11.3-0.2-67.6-0.1-69.7 3.6 0.8 7.3 1.5 10.9 2.3 -5.4-1.9-10.2-3.6-10.9-10.1 3.4 0.2 6.7 0.5 10.1 0.7 -10.7-1.7-12.1-4.7-0.3-6.5 -3.1 0.1-6.2 0.3-9.3 0.4 0-3.2 0-6.4 0-9.7 3.9 0.7 7.8 1.6 11.6 2.3 -9.1-3-12-8.5-4.3-15.5 -2.3 1.6-4.6 3.1-7 4.6 0-3.9-2-8.1 2.1-10.5 3.8-2.2 6.8 1.9 10 2.3 3.1 0.4 3.7-3.1 6.6-1.1 4.6 3.1-1 10.4-3.9 12.3 1.7-0.8 3.4-1.6 5-2.6 -5.3 56.1-9.3 112.5-12.8 168.8C469.5 348.3 465 345.9 465 345.9zM876.9 125.2c0 0 0.1 0 0.1 0.1 0.4 1.2 0.2 2.3-0.7 3.2 -2.1 0.7-2.2-2.8-2-3.7C874.7 125.5 876.2 124.6 876.9 125.2zM873.4 111.2c0.5 0.8 1.3 2.5 1.2 3.2C874.4 115 873.7 112.1 873.4 111.2zM873.5 93.9C873.5 93.9 873.5 93.9 873.5 93.9 873.5 93.9 873.5 93.9 873.5 93.9c0.1-0.1 0.3-0.1 0.5-0.1C873.8 93.8 873.6 93.8 873.5 93.9 873.5 93.9 873.5 93.9 873.5 93.9 873.5 93.9 873.5 93.9 873.5 93.9 873.5 93.9 873.5 93.9 873.5 93.9L873.5 93.9zM873.5 93.9c4.6-1.1 1.1 3.6-0.1 4.6C874.7 97.3 872.8 94.6 873.5 93.9zM873.3 98.6c0.1 0 0.2 0 0.3 0 0.6 0.1 0.5 0.5-0.4 1C872.8 99.1 873.5 98.3 873.3 98.6zM850.9 170.3c-0.1-0.1-0.1-0.1-0.2-0.2 0 0 0 0 0 0 0 0 0 0 0 0 -0.2-0.1-0.3-0.3-0.4-0.4 0 0 0 0 0.1 0.1 0 0-0.1-0.1-0.1-0.1 0 0 0 0 0 0 -0.1-0.1-0.1-0.1-0.1-0.1 -0.1-0.1 0 0 0.3 0.2 0 0 0 0 0 0 0.1 0.1 0.2 0.2 0.4 0.3 0.1 0.1 0.2 0.2 0.3 0.2 0 0 0 0 0 0 0 0 0 0 0.1 0.1 0.2 0.1 0.2 0.2 0.2 0.2 0 0 0 0 0 0 -1.4 0.1-5 1.4-5.2-1C846.7 168.2 849.7 169.5 850.9 170.3zM832.6 174.3C832.1 174.5 830.4 174.4 832.6 174.3L832.6 174.3zM832.6 174.2c-2.2-0.2 2.5-5.3 4-5.4 -2.4 0.2 2.4-7.8 3.6-3.3 -0.1-0.2-3.9 1.9-3.4 2.2 0.3 0.4 4.3 0.4 4.3 0.5C838.6 170.2 834.4 172.8 832.6 174.2zM840.3 179c-0.1 0.2-0.3 0.4-0.4 0.6C840.1 179.3 840.2 179.1 840.3 179zM839 185.5c0.8-0.8 0.7-0.6 0.6-0.5C839.5 185.2 839.3 185.3 839 185.5zM839.4 185.4c0.1-0.1 0.2-0.2 0.3-0.2 0 0 0.1-0.1 0.3-0.2 0 0 0.1-0.1 0.1-0.1 0 0 0 0 0 0 0.1-0.1-0.2-2.1-0.2-3.8 0.9 0 4.1-2.6 4.3-1.9 0.3 1.3-0.2 2.1-0.8 2.5 0.3-0.1 0.7-0.3 1.2-0.4C842.7 181.8 841.4 184.8 839.4 185.4zM840.4 210.8c-3.1 0.7 5.7-16.5 5.9-7.4 -0.3 0.4-0.7 0.7-1.1 0.8 -0.9-0.4-1.8-0.6-2.2-0.8 0 0 0.1 0 0.1 0.1 -0.1 0-0.2-0.1-0.3-0.1 1.3 1 2.2 2.3 2.7 3.8C844.4 207.5 840.4 209.2 840.4 210.8zM845.6 207.1 845.9 205.2c0.4 0.1 0.7 0.2 1.1 0.3C846.8 205.6 846.4 205.5 845.9 205.2zM847.5 181.2c0.7-0.1 0.5-0.1 0.1 0 0.1 0-0.1 0.1-0.2 0.1 0 0-0.2 0.1-0.4 0.2 1.5 0.4 2.7 1.4 3.5 2.8 -1.1-0.5-1.5-0.2-1.3 1C849.2 184.4 843.7 181.3 847.5 181.2zM872.6 209.2l-0.4 98.8c0.3 6.9-0.6 21.5-0.6 21.5s-6.9 5.5-16 7.7c-0.9-27.2-5.1-107.3-5.6-121.9 -0.1-4.3-2.6-15-0.6-19.1 1.6 0.1 3.3 0 4.9-0.3 -0.5-0.7-0.8-1.6-1-2.4 0.5 1.1 3.2-1.4 3.5-1.4 -0.7 2 0.9 1.1 1.8 2.2 -2.2-3.8 1.1-1.7 1.1-1.1 0.7-0.2 1.3-0.6 1.7-1.2 -0.9 1.2-0.8 2 0.4 2.6 1-0.6 0.5-3.7 0.8-3.8 1.3 0.6 5.8 0.2 7.1-1.7 -0.6 0.9 0-4.4-2.8-0.8 2.1-7.5 5.5 3.5 5.6 3.7C874 196.4 872.6 204.5 872.6 209.2zM873.1 186.1c-4-0.6-7.9-2.5-11.4-4.5 5 3.4-4.5-0.2-5.9-1.1 -1.4 4.5-4.9-1.1-5.8-3.7 2.3 2.4 2.6-0.8 4.9-0.2 -1.2-1-2.5-2-3.8-2.9 1.1 0.9 1-1.9 0.7-2.8 2.3 2.2 5.5 6.3 4.8 6.5 3.7 0.1 5.2 4.2 6.7 4.7 -0.2-0.2 4.3-1 4.2-2.4 0.1-0.6-4.1-0.4-4-0.5 1.9-0.7 3.2-2 4-3.9 -0.3 0-4.4-0.3-4.9-0.1 0.1-1.8 1.1-2.1 0.5-3.5 1.8 1.2 7.7 2.8 6.4 0.4 -0.9-1.8-1.6 0-2.7-0.5 3.4-5.7-1.6-0.3-1.3-1.7 0.4-1.9-3.5-2.7-2.8-3.1 -0.8 0.4-4.6-1.5-3.7-2.7 0.9 0.4 5.4 0.9 5.6 2.3 -0.2-0.1 4.4 0 5.9 1.4 0.9 0.8 4.4 6.4 0.9 5.7C875.3 176.5 873.1 182.4 873.1 186.1zM873.6 135.4c1.4-0.6 2.6-0.4 3.6 0.6 0-0.3 0.1-0.7 0.1 0.1 0 0.1-0.1 0.1-0.1 0.1C876.7 136.5 873.5 136.3 873.6 135.4zM878.1 147.8c0.1 0.7-0.2 1-0.9 0.8C877.1 148.4 877.5 148.1 878.1 147.8zM875.4 148.6c0 0.3-0.6 0.7-0.8 0.5C874 148.6 875.4 147.5 875.4 148.6zM1152.1 72.5c0.6-1.3 3.5 0.1 4.7 0.9 -0.1-0.1-0.1-0.1-0.2-0.2 0 0 0 0 0 0 0 0 0 0 0 0 -0.1-0.1-0.3-0.3-0.4-0.4 0 0 0 0 0.1 0.1 0 0-0.1-0.1-0.1-0.1 0 0 0 0 0 0 -0.1-0.1-0.1-0.1-0.1-0.1 -0.1-0.1 0 0 0.3 0.3 0 0 0 0 0 0 0.1 0.1 0.2 0.2 0.4 0.4 0.1 0.1 0.2 0.2 0.2 0.2l0 0c0 0 0 0 0.1 0.1 0.2 0.1 0.2 0.2 0.2 0.2 0 0 0 0 0 0C1155.9 73.7 1152.3 74.9 1152.1 72.5zM1162.4 73.6c-2.3 1.2-5.7-2-7.6-2.6 0.9-0.7 1.7-1.6 2.1-2.7C1156.7 68.9 1163.4 73.3 1162.4 73.6zM1154.9 56.8c0.2 0.2 0.3 0.3 0.5 0.4 -0.7 0.8-1.3 1.6-1.8 2.4C1151.2 58.3 1156.6 55.1 1154.9 56.8zM1151.2 64.4c-0.2-4.3 5.5 1.1 5.2 1C1155.5 66.1 1151.2 64.3 1151.2 64.4zM1152.9 84c0.7-0.1 0.6-0.1 0.2 0 0.1 0-0.1 0.1-0.2 0.1 0 0-0.2 0.1-0.4 0.2 1.5 0.5 2.6 1.4 3.4 2.9 -1.1-0.5-1.5-0.2-1.3 0.9C1154.5 87.2 1149.3 84 1152.9 84zM1276.5 34.2c0 0.7 0 1.3 0.2 1.9 -0.6-0.5-1.1-1.1-1.3-1.8C1275.9 34.1 1276.3 34 1276.5 34.2zM1275.1 72.5C1275.2 72.5 1275.2 72.4 1275.1 72.5c0 0-0.9-2.8-0.8-2.7C1277.3 72.4 1274.9 70.4 1275.1 72.5zM1275.8 37.9c-0.1 0.6-0.3 0.6-0.5 0.3C1275.4 38.2 1275.6 38.1 1275.8 37.9zM1275.2 34.4c-0.4 0.7-0.2 2.7-0.3 3.4 -1.1-1.8-2.2-1.4-2.2-1.3C1272.9 36 1274.1 34.9 1275.2 34.4zM1273.6 37.3C1273.3 37.9 1273.4 37.5 1273.6 37.3L1273.6 37.3zM1271.4 41.3c-0.1 2 4 1.4 4.2 5 -1.1-0.7-4.6-2.7-4.4-2.5C1271.2 42.9 1271.3 42.1 1271.4 41.3zM1268.5 47.3c-0.4-0.7-0.3-1.4 0.2-1.9 0.7 0.9 1.3 1.7 1.8 2.6 0.9-3.4-1.5-0.6-1.7-3.3 -0.1-0.9 5.1 1.6 5.5 1.8 -2.2 0.7-4.3 1.8-6.2 3.2C1267.4 48.6 1267.5 47.8 1268.5 47.3zM1269.9 70.1c-0.1-1.3-0.1-1.7 0-1.7 0 0 0-0.1 0-0.1 0.7 0.5 1.4 0.4 2.1-0.2C1270.9 70 1271.5 70.3 1269.9 70.1zM1270.6 70.5c-0.9 0-1.8-0.1-1.2-0.4C1269.7 70 1270.1 70.4 1270.6 70.5zM1265.4 56.9c0.2-0.3-0.6-4.9 0.1-4.4 0.4 0 5 5.5 5.8 6.3 -3.2 1.5-4.3 2.5-6.2 3.4 2.8-0.3-0.8 1.6 0.4 4.8 -3.6 0-2.6-1.5-6.4-2.3 0.6-0.8 3.7-2.9 4.6-3.9C1264 59.7 1263.1 54.9 1265.4 56.9zM1266.3 65.9C1264.4 65.1 1266.7 66 1266.3 65.9L1266.3 65.9zM1261.9 56.8c0 0 0.1-0.1 0.1-0.1C1261.9 56.8 1261.9 56.8 1261.9 56.8 1261.8 56.9 1261.9 56.9 1261.9 56.8zM1257.1 61.8c0.4-2.9 3.5-3.9 4.6-4.7C1260.3 58.5 1258.2 60 1257.1 61.8zM1257 62.3C1257 62.2 1257.2 62.6 1257 62.3L1257 62.3zM1261.5 37c-1.1 0-1.8 1.2-1.8 1.6 0.2 0.1 0.4 0.2 0.1 0.2 -0.8-0.4-0.7-0.4-0.4-0.3C1258.2 37.4 1259.1 35.3 1261.5 37zM1254 56.6c0.1-0.1 0.3-0.3 0.6-0.8 0.2-0.2 0.3-0.3 0.3-0.3 1.3-1 5.8-4.2 6.3-2.9 1.5 3.6-5.7 3.4-6.6 3.2C1254.4 56.3 1253.8 56.8 1254 56.6 1253.9 56.7 1253.9 56.7 1254 56.6 1253.9 56.7 1253.9 56.6 1254 56.6zM1251.4 52.2C1251.4 52.3 1251.4 52.3 1251.4 52.2 1251.3 52.2 1251.2 52 1251.4 52.2zM1245.9 77.1c-0.4-0.2-0.5-0.3 0-0.2 -0.4-0.2-0.5-0.3 0.9 0.4 -0.8-0.2 0.3 2.8-0.1 3.1 -0.5 0.4-4.7-1.7-4.7-1.8C1243 77.3 1244.4 76.7 1245.9 77.1zM1235 62.5c3.1-0.8 2.7 2.6 1.6 3.4 0 0.1 2.5 2 2.5 1.9 -4.8 2.4-5.1-2.9-7.3-5.9C1232.1 62.4 1235.7 62.6 1235 62.5zM1268.6 258.1c-2.6 1.2-11.1-0.2-13.6-0.3 -9.1-0.3-18.1-0.7-27.2-0.4 0.2-30.9 0.9-58.2 0.4-87.4 -0.2-13-0.2-26.1-1.3-39 -0.5-6-3.7-18.3 2.6-22.3 -4.3 1-1.7-11.2-1.7-12.8 3.2 0.7 6.3 1.3 9.5 2 -4.5-1.5-8.9-3.4-9.5-8.8 0.6 0 1.3 0.1 1.9 0.1 -0.7-0.4-1.2-1-1.5-1.9 -0.3-1.4 1.2-2.7 2.9-3.4 -0.6 0-1.2 0-1.6 0 0.1-0.7 0.3-0.8 0.5-0.8 -0.1-0.1-0.1-0.1-0.3-0.3 0.1 0.1 8-3.7 6.6-0.4 -0.3 0.7-1.2 1.1-2.2 1.3 0.3 0.1 0.5 0.2 0.7 0.4 -0.1 0.6-3.8 1.2-3.2 1.5 0-0.1 11.4 3.4 12.3 3.2 1.7-0.3 8.3-4.7 3.8-4.6 0-0.1 10.8-6 4.2-0.1 0.1-0.1 3.8-0.1 4.1-0.2 0.5-0.1 0.9-3.5-0.1-2.9 2.6-1.4 4.6 4.2 8.3-0.6 2.9-3.8-1-7.2-5.1-8.2 0.7 0.2 5.7-3.8 6.4-4 -1 0.7-2.5 3.1-2.5 3.1 -1.3 2.6 13.7 0.9 12.9 2.9 -3.1 2.8-0.3-0.4-0.1 3.8 0.1 0.9-2.4 2.6-2.7 2.6 -0.3 0.8 0.9 0.5 1.8 0.2 -0.7 0.8-1.1 2.8-0.7 3.1 -2.3 2.1-7.5 6.1-6.3 7.3 0.7-0.2 3.7-0.8 3-2.1 0.9 1.6-2 3.2-1.7 4.9 0.1-3.6 13.9 2.3 2 10.9 1.7-0.8 3.3-1.7 4.9-2.8C1274.3 136.1 1272.6 256.2 1268.6 258.1zM1276 92.7C1275.6 92.3 1276 90.8 1276 92.7L1276 92.7zM1274.3 89.6c-0.7 0-1.5-1.1-0.6 1.9 -1.4-1.6-1.1-2.6 1-3.1 0 0.3-0.1 0.6-0.3 0.9 0.1-0.1 0.2-0.1 0.3-0.2 0 0 0 0 0.1-0.1 0 0 0 0 0 0 0 0 0 0 0.1 0 0 0 0 0.1-0.1 0.1 -0.3 1.4-0.7 1.4-0.6 0.9C1274.1 90 1274.1 89.8 1274.3 89.6zM1520.9 81.3c-0.2 0-0.4 0.3-0.3 0.4 -0.8 0.8 0.8 3.5-1.5 3.1 -1.1-1-1.4-2.1-1-3.5C1519.4 83.2 1518.1 79 1520.9 81.3zM1515.8 68.8c0-0.1 0-0.1 0.1-0.3 0 0 0.1 0.1 0.1 0.1 0.2 0.5 0 2.8-0.1 3C1515.3 70.7 1515.6 69.4 1515.8 68.8zM1514.4 80.6c1.4 1.2-1 1.7-2 1.9 -0.3-0.9-2.7-3.7-2.6-3.7C1512.3 76.3 1513.1 79.4 1514.4 80.6zM1512.9 82.9C1512.9 82.9 1512.9 82.9 1512.9 82.9c-0.1 0-0.1 0-0.1 0C1512.8 82.9 1512.9 82.9 1512.9 82.9c-0.1 0-0.1 0-0.1 0 -0.1 0-0.2 0-0.2 0 0 0-0.1 0-0.1 0 0 0-0.1 0-0.1 0 0 0 0 0 0 0 0 0 0 0 0 0 0 0-0.1 0-0.1 0 0 0 0.1 0 0.1 0 0.4 0.1 1.1 0.1 2.3 0.2 -0.1 0-0.1 0-0.2 0 -0.1 0-0.3 0-0.4 0 -0.1 0-0.1 0-0.2 0 -0.1 0-0.3 0-0.4 0 0 0-0.1 0-0.1 0 -0.1 0-0.2 0-0.3 0C1513.1 82.9 1513 82.9 1512.9 82.9 1513 82.9 1512.9 82.9 1512.9 82.9 1512.9 82.9 1512.9 82.9 1512.9 82.9zM1512.8 86.4c-1.2 0.4-2.1 1.7-2.1-1.3C1512.5 85.9 1513.2 86.3 1512.8 86.4 1512.8 86.4 1512.8 86.4 1512.8 86.4zM1507.7 72L1507.7 72C1507.7 72.1 1507.6 72.1 1507.7 72c-0.5-0.6-0.9-1.2-1.4-1.7 -0.7-1.9 3.7 2.8 4.4 3.4C1510.1 73.9 1505.9 73.8 1507.7 72zM1509 89C1509 89 1509 89 1509 89 1509 89 1509 89 1509 89 1509 89 1509 89 1509 89 1509 89 1509 89 1509 89 1509 89 1509 89 1509 89c-1.5-0.5-4.8-1.5-5.8-2.8 2.4 0 4.3 1.4 5.2 1.7 0.1-0.2 0.2-0.4 0.4-0.3 0.1 0 0.2 0 0.2 0.2 0 0 0-0.1 0-0.1C1509.1 88.5 1509.1 88.9 1509 89zM1499.8 53.7c-0.5 0.3-1 0.6-1.6 0.3C1498.3 54.1 1499 54 1499.8 53.7zM1492.5 39c0.2 0.7 1.6 0.5 1.1 1.3 0.2-0.3-0.7-0.8-1-1.1 0 0.1 0 0.1 0 0C1492.4 39.1 1492.4 39.1 1492.5 39zM1491.3 57.8c0 1 0.5 1.5 1.4 1.6C1490.8 60.9 1491.3 59.1 1491.3 57.8zM1490.6 74.5c0.3-0.2 0.6-0.1 0.8 0.1 0 0.1 0.1 0.1 0.1 0.1 -0.4-1.5 0-2.7 1-3.7 4.5 7.6 8.4-3.3 4-2.8 1.4-0.6 4.2-3.5 4.7-4.1 -0.1-0.1 0-0.3 0.1-0.1 0 0 0 0 0 0 1.4-0.5 10.7-1.8 10.7 2.1 -1.3-0.6-2.7-1-4.1-1.4 0.2 1 0.6 2.1 1 3 -1.2-0.2-2.5-0.4-3.8-0.4 0 0 0.5 7.8 0.2 8.5 -1 2.8-0.2 2.4-3.8 4.8 4.1 0.1-2.2 1.9-4.2 1.6 3.2 0-2.9-5.9-1.5-6.8C1495.7 75.3 1490.1 74.9 1490.6 74.5zM1487.5 76.2c-0.2-0.1 0-0.2 0.2 0C1487 76.1 1487.2 76.1 1487.5 76.2zM1487 63c0.2 0.6-0.1 1-1 1.2C1485.1 64.2 1486.6 63.4 1487 63zM1487.1 76.4c-0.1 0-0.1-0.1-0.1-0.2C1487.2 76.3 1487.2 76.3 1487.1 76.4zM1478.8 63.5c0.2-0.4 0.3-0.6 0.3-0.6 0.4-0.8 1-0.9 1.6-0.1 0 0.5-1.4 0.8-2 0.9C1478.9 63.6 1479 63.5 1478.8 63.5zM1478.6 63.7c0.3 0 0.9 0 2.1 0 -1 0.4-2.1 0.6-3.2 0.7C1477.2 64.3 1478.1 64 1478.6 63.7zM1477.1 77.3c0.3-0.4 0.3-1.3 0.1-1.9 1.7 3.1 7.3 9.5-0.6 7.3 1.7 1.3 2.4 3.1 2.3 5.2 1.7-8.9 0.6 7 0.1 9.5 -2.3-2.2-0.9-5.2-0.5-7.7 -0.1 0.8-0.5 1.3-1.3 1.5C1474 90 1476.2 76.8 1477.1 77.3zM1475.2 97.7c0.1 0 0.1 0.1 0.2 0.1C1475.3 97.8 1475.2 97.7 1475.2 97.7c-0.1 0-0.2-0.1-0.2-0.1C1475 97.6 1475.1 97.7 1475.2 97.7zM1469.9 71.6c-0.6-0.2-3.2 1.9-3.6 0.3C1464.8 66.9 1471.2 72 1469.9 71.6zM1457 63.6C1456.9 63.5 1456.9 63.5 1457 63.6 1457.3 63.6 1457.2 63.6 1457 63.6zM1456.2 63.4c0.1 0 0.1 0 0.1 0C1456.2 63.4 1456.1 63.4 1456.2 63.4zM1456.9 63.8c0.5 0.9-1.1 2.9-2.4 2C1453.6 65.3 1456.4 64.4 1456.9 63.8zM1455 63.5c-0.1 0.8-0.5 1.4-1.3 1.7C1453.9 64.4 1454.3 63.9 1455 63.5zM1448.2 69.7c0.1 0 0.1-0.1 0.2-0.2 0 0 0 0 0 0 0 0 0 0 0 0 -0.3-0.8-0.2-1.5 0.3-2.1 0.1 1.1 0.8 1.7 1.9 1.9 0.1-0.6 1.4-4.2 2.7-2.7 -1 0.8-2.8 7.5-6 5.4C1446.5 71.5 1447.7 70.2 1448.2 69.7zM1441.6 66.7c0.2 0.1 0.3 0.4 0.4 0.8C1441.1 67.6 1441 67.3 1441.6 66.7zM1442 67.8c0.3 1.7-0.2 4.5-2 1.4C1440.9 68.6 1441.6 68.1 1442 67.8zM1424.6 55.4C1424.6 55.4 1424.6 55.3 1424.6 55.4c0-0.2 0-0.4 0-0.6 0-0.4 0-0.4 0.1-0.3 0.7-7.4 7.9 7.2 7 6.5 -1-0.8-4.9-0.9-4.3-3.2 -1.6 4.5-2.6 0.6-2.8-1.9 0 0 0 0 0 0C1424.6 55.7 1424.6 55.5 1424.6 55.4zM1418.5 71.6c-1 2.8-0.9 0.2-1.4-0.1 -0.1 0-0.2 0-0.1 0C1417.5 71.5 1418 71.6 1418.5 71.6zM1417.2 74.4c3.7 2.6-5.4 0.9-3.3 0.4C1412.3 75.1 1418.1 73.1 1417.2 74.4zM1416.5 77.2c0 0.1 0.8 3.8 0.5 4.6 0.1 0.1 0.2 0.3 0.1 0.4 -0.1-0.1-0.2-0.1-0.2-0.2 -1.2-0.9-2.5-1.8-3.7-2.7C1414.4 78.8 1415.5 78 1416.5 77.2zM1411.2 76.2c0.9 0.2 2.4 0.5 2.9 1.4C1415 79.7 1408.7 76.2 1411.2 76.2zM1416.1 31.5c-0.9 0.6-1.4-1.6-1.7-1.5C1416.3 28.2 1416.9 28.7 1416.1 31.5zM1403.5 52.9c0.8-0.2 1.7-0.4 2.5-0.4 0 0.2 0 0.2 0 0.2 0.1 1.6 5.4-0.6 7.8 1.4 -1.7-0.8-2.6-0.3-2.7 1.5 -1.2-1.1-2.5-1.5-4.1-1.1 1 1.1 1 2-0.1 2.9C1406.3 57.4 1403.2 53.3 1403.5 52.9zM1397.1 64.6c-3.6 2.4-3.2-1.9-3.1-2.6C1395 61.5 1396.3 65.2 1397.1 64.6zM1393.3 62.9c0.1-0.2 0.3-0.4 0.4-0.6 0 0 0 0 0.1-0.1 0.2-0.3 0.3-0.4 0.3-0.3 0 0 0 0 0 0 -0.1 0.1-0.1 0.2-0.2 0.3 0 0 0 0 0-0.1 0 0 0 0 0 0 0 0 0 0 0 0 -0.1 0.1-0.2 0.3-0.4 0.5C1393.3 62.9 1393.2 63 1393.3 62.9 1393.2 63 1393.2 63 1393.3 62.9 1393.2 63 1393.2 63 1393.3 62.9 1393.2 63 1393.2 63 1393.3 62.9 1393.1 63.1 1393.1 63.1 1393.3 62.9zM1390 64.7c0.1 0 0.2 0 0.3 0 0 0 0 0 0 0 0.6 0.1 0.8 0.1 0.7 0 0 0 0 0 0 0 -0.6-1.4-0.1-1.7 1.4-0.9 1.1 1.3 0.2 3.7 0.3 5.1 -0.4-0.8-0.7-1.7-0.7-2.6 -1.2 1.2-8.2 1.6-8.2 1.5C1384.5 68 1392.2 65.4 1390 64.7zM1374.7 43.7c0.1 0.1 0.2 0.1 0.3 0.1 2.1 1 5.5 2.4 6.7 4.4 0 1.2-6.3-0.6-7.1-1.4C1373.6 45.9 1375.1 44 1374.7 43.7zM1372.7 56.9c0 0.1 0 0.1 0.1 0.1C1372.8 57 1372.8 57 1372.7 56.9 1372.8 56.9 1372.8 56.9 1372.7 56.9 1372.7 56.4 1372.7 56.6 1372.7 56.9c-0.1-0.4-0.2-0.6-0.3-0.9 2.2 2 9.7-2 10.8-2.1 -2.6 3.6 3.7 3 3.3 1.7 5.4 3.1-11.4 2.8-11 5.2 -0.4-2.2-8.3-1.6-10-5.3C1363.9 51.8 1372 56.1 1372.7 56.9zM1418.9 106c-1.2-0.6-2.4-1.2-3.6-1.8 1.7 1.1 3 2.5 3.6 4.4 0.7 2.2 1.1 8.1-3.1 5.6 0.7 0.6 1.3 1.3 1.7 2.2 -0.4 0.3-1.7-0.2-3-0.9 2.9 2.7 4.1 6.3 3.8 10.8 -4.5-2.5-9.1-4.8-13.6-7.3 6.8 4.2 13.7 8.1 14 17.1 -2.1-1.4-4.3-2.8-6.4-4.2 9.3 10.1 6.2 24.2 5.8 36.7 -0.6 17.6-3.3 96.5-3.3 96.5s-18.5 2.5-30.7 2c-11.1-0.4-22.6-5.3-22.6-5.3s-1-40-1.1-56.6c-0.1-18.3-0.7-36.5-0.9-54.8 -0.1-6.6-4.7-32.6 2-36.9 -4 0.9-1.8-11.7-1.7-13.2 3.3 0.7 6.5 1.4 9.8 2.1 -4.6-1.6-9.2-3.6-9.8-9 3 0.2 6 0.4 9 0.7 -9.6-1.5-10.4-4.3-0.3-5.9 -11.5 0.5-9.2-10.4-1-4.5 5.6 4.1 7.1 15.2 17.1 12.7 -0.2 0-2.3-1.2-3.7-1.9 1.1-0.8 2.7-2.7 3.6-3.9 -2.4-0.7-8.1-5.4-3.4-4.2 -1.7-0.9-1.8-3.2-3.4-4.2 -2.6-1.7-5.1-0.5-8.1-1.1 -2.8-0.6-14.2-8.7-6.5-9 -0.2 0 6.6 7.3 5.4 2 1.2 5.3 5.6 0.6 8.2 2.3 -2.2-1.7-9-5.6-9.1-6.5 -1.3-6.6 19.5 0 20.8 2.3 -2.4-0.1-1.5 7.6-0.8 8.4 2.3 2.6 8 1.1 11 1.2 -0.1-0.1-2.5-3.3-2.8-2.6 1.1-2.6 6.1 1.3 6.5-2.8 2 1.2 0.7 2.6 3.4 1.6 -4.3 1.1 1.9-3.3 1.6-2.8 -2.3 3.3 0.4 1.7 1.8 1.3 1.3-0.4-2.4 4.4-3.1 3.6 0.5 1.2 3.1 2.7 3 0.6 1 1 1 1.9-0.1 2.8 0.3 0.2 2 0.3 2.1-0.3 1.8 0.7 6.9 1.3 6.9 1.3 -0.1 0-1.4 5.8-2.3 6.2 0.4 1.1 4.2-1.2 3.7 1.1 -0.1 0.6-0.7 3.6 0.1 4 -2.5-1.5-5.1-2.9-7.7-4.3C1417.5 94.5 1419.2 99.7 1418.9 106zM1471.9 144.3c-0.9 45.3-1.6 90.6-2.1 135.8 -10.1-2.6-19.7-7.7-30.1-9.1 -5.3-0.7-16.6-3.1-16.6-3.1s-1.8-41.1-1.6-51.3c0.3-22.6 1-45.2 1.6-67.7 0.2-9.4 0.4-18.7 0.1-28 -0.1-2.2-2.1-13.2 3.5-10 -4.2-3.9-0.8-7.5 2.5-10.3 -2 1.2-4 2.5-6 3.8 0-4.2 0-8.4 0-12.6 1.9 1.3 4.1 1.9 6.4 1.8 -5.5-2.4-9.9-13.1-7.6-18.9 0.9-2.2 1.3-5.4 4.3-3.9 3.4 1.7-0.5 5.5 0.8 7.4 0.7 1 4.4-1 4.4 0.9 -1 0-2 0.2-2.9 0.6 0.5 0 3.8 0.7 3.4-0.6 -0.3-0.9-2.3-3.4-2.7-3.6 0.2-0.7 0.5-5.1-0.2-5 1.9-1 8.4 3.4 9.1 4.6 -1.1-2 7.5-1.7 8.4-1.6 -1 0.6-3.9 4.3-3.6 5.6 0.5 2.5 5-0.4 5.4-1.1 -1.4 2.7 2.5-1.9-0.6 1.9 1 0.4 3.7-4.7 3.9-5.6 2 4 3.7 5.2 4.8 8 -0.7-1.6 2.2-1.2 2.3-2.4 0.2-2.4-2.8-2-3-2 1-3.6-3.8-4.3-3.3-7.6 0.6 0.7 6.5 2.7 6.2 0.7 0.6 2.9 0.5 2 1.2 2 0.1-0.5 0.1-1 0.1-1.5 -0.2 2.1 7.1 5.5 8.1 6.2 2.4 1.7 3.6-0.6 5 3.6 1 3-1.9 6.9-1.9 10 -1.7-1.5-3.5-3-5.2-4.5 0.5 0.5 2.4 3.5 3.6 4.8 -0.5 0-0.5 1.2-1.9 1.2 1.2 1.9 6.2 4 1.6 5.7 4.7-0.9 3.5 10.1 0 7.2C1478.2 116.5 1472.3 131.9 1471.9 144.3zM1474.8 105.5C1474.8 105.5 1474.8 105.4 1474.8 105.5c0-0.1 0.1-0.1 0.1-0.2 0.2-0.6 0.5-1.3 0.7-1.9 -0.1 0.2-0.1 0.3-0.2 0.5 0.1-0.2 0.1-0.3 0.2-0.5 0 0 0 0 0 0l0 0c0.1-0.1 0 0 0 0.2 0 0 0 0.1-0.1 0.3C1475.1 104.6 1474.6 105.9 1474.8 105.5zM1476.1 124.8c-0.1-5.4-1.5-10.8-1.1-16.2 0-1.9 0.2-3.7 0.8-5.5 0.1-0.2 0.2-0.4 0.4-0.7C1474.9 106.1 1476.3 122.6 1476.1 124.8zM1475.7 103.1c0.1-0.3 0.2-0.6 0.4-0.9 0 0.1-0.1 0.2-0.1 0.4C1475.8 102.7 1475.8 102.9 1475.7 103.1zM1475.4 97.8c0.9 0.4 1.4 0.6 1.3 0.5 0 0 0 0-0.1 0 0 0 0.1 0 0.1 0 0 0 0 0 0 0 0 0 0 0 0 0 0 0 0 0 0 0 -0.3-0.7-0.7-1.4-1-2.1 1.8 1.2 2.8 2.9 2.9 5.1C1475.4 99.3 1476.6 98.5 1475.4 97.8zM1512.8 117.7c4 2.6 3.3 6.8 3.5 8.6 0.4 3.3 0.4 57.7 0.6 71.3 0.4 27.5-2.3 55.6-0.6 83 -9.7-0.6-39.2-0.7-39.2-0.7s0.3-23.8 0.4-31.1c0.1-9.5 0.2-19.1 0.2-28.6 0-20.1-0.3-40.2-0.1-60.2 0.1-10 0.4-20.1 0.9-30.1 0.3-5.5 0.6-10.9 1.1-16.4 0.5-5.4-2.2-12.5 5.1-8.9 -3-2.2-2.9-4.4-3.6-6.3 4.5-2.4-1.2 1.4 1-3.2 1-2 1.3-3.6 4.6-3.1 -6.6-2.3-4.2-10.8-1.2-8.9 -2.1-2.8-1.4-4.4-1-5 -0.1 0.1 0.4-1.2 0.8-0.6 0.1-1.7 4.2-0.9 4.1 0.7 0-0.1-2.3 1.5-2.2 1.5 -0.1 0 5.5-0.2 4.4 1.4 -0.9 0.3-1.5 1-1.8 1.9 0.6 0.4 1.3 0.3 1.9-0.2 -1.1 0.7-1.3 1.5-0.6 2.6 0.3-0.6 0.7-1.3 1-1.9 1.4 3-5.9 11.6-2.1 12 2.1 0.2 2.3-5.7 2.9-5.7 0.7 0 3.6 3.9 3.7 3.8 -2.9-3 3.6 0.3 3 0.7 2.5-1.6-2.1-5.2-1.7-6.5 -2.2 1.4-3.5-2-4.2-4.3 0.2 0.4 0.4 0.8 0.8 1.2 0.8-0.9 2.2-0.7 3.9 0.3 0 0 0 0 0 0 0 0 0 0 0 0 3.3 1.9 7.4 6.6 8.5 10.2 -0.2-0.4-1.6-0.2 1.7 2.2 2 1.4 5.3 1.1 7 3.1 -2.4 1-4.3-1.7-6.6-1.7 2.4 0.3 5 3.9 7.7 2.6 0 1.1-0.6 1.5-1.4 1.5 0.9 0.4 1.6 0.9 1.6 1.9 -1.7-0.7-3.4-1-5.2-0.8 2.8 0.4 5.2 1.9 5.5 5 -2.8-0.7-5.4-1.9-7.8-3.5 2.3 3.2 7.7 3.6 8 8.3 -2.2-1.9-3.6-6.3-7.2-5.9C1514 109.4 1522 121.9 1512.8 117.7zM1517.6 58.5C1516.7 59.6 1518 57.9 1517.6 58.5L1517.6 58.5zM1517.3 57.5c0.9-1.3-0.6-3 0.2-4 0.6 0.1 1.1 0.1 1.7 0.2C1519.2 55.3 1518.6 56.6 1517.3 57.5zM1657.9 86.9c0-0.2 0-0.4 0-0.3C1657.9 86.7 1657.9 86.8 1657.9 86.9 1657.9 86.9 1657.9 87 1657.9 86.9c0.1 1 0 0.6 0 0.1 0 1.4-1.1-1.1-1.3-1.4C1657.3 85.7 1657.7 86.4 1657.9 86.9zM1655.7 89.6c1.2-1.2 6.2 4.5 6.4 4.4 -2.3 1.2-5.7-2-7.6-2.6C1655 90.9 1655.4 90.3 1655.7 89.6zM1656.5 93.8c-0.1-0.1-0.1-0.1-0.2-0.2 0 0 0 0 0 0 0 0 0 0 0 0 -0.1-0.1-0.3-0.3-0.4-0.4 0 0 0 0 0.1 0.1 0 0-0.1-0.1-0.1-0.1 0 0 0 0 0 0 -0.1-0.1-0.1-0.1-0.1-0.1 -0.1-0.1 0 0 0.3 0.3 0 0 0 0 0 0 0.1 0.1 0.2 0.2 0.4 0.4 0.1 0.1 0.2 0.2 0.2 0.2 0 0 0 0 0 0 0 0 0 0 0.1 0.1 0.2 0.1 0.2 0.2 0.2 0.2 0 0 0 0 0 0 -1.3 0-5 1.2-5.1-1.2C1652.4 91.5 1655.3 93 1656.5 93.8zM1650.7 126.4c-0.3 0.4-0.7 0.6-1.1 0.7 -0.8-0.4-1.7-0.7-2.1-0.9 0 0 0.1 0 0.1 0.1 -0.1 0-0.2-0.1-0.3-0.1 1.3 1 2.1 2.3 2.6 3.8 -1.2 0.3-5.3 1.9-5.3 3.5C1641.5 134 1650.8 117.3 1650.7 126.4zM1647.4 91.9C1647.4 91.9 1647.4 91.9 1647.4 91.9c0 0-0.1 0-0.1 0C1647.3 91.9 1647.3 91.9 1647.4 91.9zM1647.4 91.9C1647.4 91.9 1647.4 91.9 1647.4 91.9 1647.4 91.9 1647.4 91.9 1647.4 91.9 1647.5 91.9 1647.5 91.9 1647.4 91.9c0.1 0 0.1 0 0.2 0 0.2 0 0.4 0 0.7 0 2 0.1 1.2 0.1 0.3 0.1 0.7 0.6-4.8 3.7-4.8 6 -4.6-3.2 4.4-5.3 3.9-6C1647.4 92 1646.8 92 1647.4 91.9zM1649.5 117c-0.3-0.2-0.7-0.4-1-0.6 0.1 0 0.1 0.1 0.2 0.1C1649 116.7 1649.2 116.8 1649.5 117zM1642.1 108.3c-1.7 3.9-0.5-3.5 0.3-3.5C1644.4 104.8 1641.4 109 1642.1 108.3zM1638.2 93c2.3 3.5 6.7-9.5 7.9-4.4 -0.1-0.5-3.5 2-3.5 2.1 0.3 0.4 4.3 0.6 4.3 0.6C1645.3 92.5 1633.4 97.9 1638.2 93zM1627.4 103.3c0.8 1.4 1.2 2.9 1.1 4.6C1628.7 107.5 1625.9 103.9 1627.4 103.3zM1617.4 99.5c2.6-0.6 2.5 4.1 3.8 4.9 -5.9 2.9-2.3-4.1-5.7-5C1616.6 99.5 1618.1 99.6 1617.4 99.5zM1612.9 118.6C1613.3 119 1612.7 118.7 1612.9 118.6L1612.9 118.6zM1601 91.9c-0.1 0-0.1 0-0.2 0.1 0 0 0 0 0 0 0.2 0 0.4 0 0.6 0 0.2 0.1 0 0.1-0.3 0.1 1 0.5 1.1 1.1 0.4 2 1.6-0.8 4.6-1.7 1.7 1 -1.3 1.2-2.5 1.4-5.3 0.8 1.4-0.2 4.1-3.3 0.3-3 0.7-0.6 1.5-0.8 2.4-0.9 0 0-0.1-0.1-0.1-0.1C1600.7 91.8 1600.8 91.9 1601 91.9zM1603.6 122.6c0-0.1-0.2-0.1 0-0.6C1603.8 122.2 1603.7 122.4 1603.6 122.6zM1595.8 74.5C1595.5 74.7 1595.5 74.6 1595.8 74.5c0-0.1 0.3-0.4 0.7-0.6 0 0 0.1 0 0.1 0 -0.9 0.7 3.3 0.2 3.2 0.2 -1.2 1.5-2.1 3.2-2.7 5.1 -1.3-1.3-2.6-2.1-4.1-3.3C1593.6 76.4 1594.9 75.3 1595.8 74.5zM1590.7 56.7c-0.2 0-0.3 0.1-0.4 0.1 0 0 0 0 0 0 0 0 0 0-0.1 0C1590.3 56.7 1590.4 56.7 1590.7 56.7zM1587.2 87.7c1 1.1-0.7 1.9-1.9 2.3 0.5-0.2-3.7-5-3.7-4.9C1584.7 82.1 1586.1 86.5 1587.2 87.7zM1587.3 89.5c0 0-0.1 0-0.1 0C1587.2 89.5 1587.2 89.5 1587.3 89.5 1587.3 89.5 1587.3 89.5 1587.3 89.5zM1585.6 89.9c-0.1 0-0.2 0-0.3 0.1 0.3-0.1 0.5-0.1 0.7-0.2 0 0 0.2 0 0.8-0.2 -0.2 0.1-0.5 0.1-0.8 0.2C1585.9 89.9 1585.7 89.9 1585.6 89.9 1585.6 89.9 1585.5 89.9 1585.6 89.9 1585.5 89.9 1585.5 89.9 1585.6 89.9zM1579.8 49.1c0.5 0.9 1 1.8 1.6 2.7 -0.6 0.6-1.2-1.5-1.5-2.5C1579.9 49.3 1579.8 49.2 1579.8 49.1 1579.8 49.1 1579.8 49.1 1579.8 49.1 1579.8 49.1 1579.8 49.1 1579.8 49.1zM1578.3 71.4c0.2 0.1-4.1 2-6.4 0.4 -1.6 4.4-4.8-1.3-5.6-3.9 2.1 2.5 2.6-0.7 4.8 0 -1.2-1-2.4-2-3.7-3 1.1 0.9 1.1-1.8 0.8-2.7 2.7 2.8 4.5 6.2 7.2 9C1576.4 71.3 1577.3 71.3 1578.3 71.4zM1574.4 86.3c-0.6 0.2-1.2 0.4-1.8 0.7 1.1-0.2 1.7 0.3 1.7 1.5 0.2-0.2-2.7 0.5-3.6 1 -0.6-0.9-4-1.9-5.3-2.2 1.5 0.1 2.9 0.1 4.4-0.2 -0.4-0.8-0.7-1.6-0.9-2.4 0.5 1.1 3.2-1.2 3.5-1.2 -0.8 1.9 0.9 1.1 1.7 2.2 -0.8 0.2-1.2 0.4 0.6 0.7C1574 86.2 1574.2 86.3 1574.4 86.3zM1574.3 85.7c-1-1.8-0.5-2.4 1.4-1.9 -1 0.6-1.6 1.5 0.3 1.4C1575.6 85.3 1574.9 85.5 1574.3 85.7zM1566.7 57.4c1.3-1.2 6.2 4.5 6.4 4.4 -2.3 1.2-5.7-2-7.6-2.6C1566 58.7 1566.4 58.1 1566.7 57.4zM1562.7 60.7c0 0.3-0.1 0.6-0.1 0.5 0 0 0 0 0 0 0 0 0 0 0 0 0-0.2 0.1-0.4 0.1-0.6 0 0 0 0 0 0 0 0 0 0 0 0 0 0 0-0.1 0-0.1 0 0 0 0 0-0.1 0 0.1 0 0.1 0 0.2C1562.6 60.6 1562.6 60.6 1562.7 60.7c0-1 0.1-1.1 0.1-1 0 0 0 0 0-0.1 0 0.3 0 0.5 0 0.6 0 0 0 0.1 0 0.1 0.9-2.3 4.4 0.7 5.2 1.4C1567 61.9 1563.1 62.5 1562.7 60.7zM1589.8 130.2c-6.1-2-3.6-1.8-0.5 2.8 0.6 0.9 0 68.5 0.1 88.8 0.2 23.2 0.5 46.3 0.4 69.5 -6.2-0.7-23.7-4.5-23.7-4.5s-0.6-110-1-129.2c-0.2-9.6 0-61.2 0.7-62.9 1.9-4.6 2-4.6 4.6-3.4 0.3 0.5 0.4 0.6 0 0 1.7 0.8 3.6 2.1 5.5 3.2 -0.1 0.3-0.3 0.9-0.7 1.9 2.2 2.3 4.1 4.7 3.2 6.9 -0.4-0.6-1-0.8-1.6-0.5 0-0.3 16.1 9.5 9.8 8.9 1.5 0.1 2.4 0.8 2.9 2.2 -1.9-0.8-3.8-1.1-5.8-0.9 3.1 0.5 5.8 2.2 6.1 5.6 -3.1-0.8-6-2.1-8.7-3.9 2.6 3.5 8.6 4.2 8.9 9.3 -2.4-2.2-4-7-8-6.6C1586.9 119.3 1589.5 125.1 1589.8 130.2zM1590.2 62.9C1590.5 62.7 1590.2 63 1590.2 62.9L1590.2 62.9zM1590.3 62.8c0.1-0.2 0.1-0.3 0-0.2 0 0 0 0 0-0.1 0 0.1-0.1 0.1-0.1 0.1 -0.1 0.1-0.2 0.2-0.3 0.4 0 0 0.2-0.3 0.4-0.5 -0.8 0.2-0.8-0.1-0.3-1C1590.8 61.6 1590.9 62 1590.3 62.8zM1590.1 61.4c1.4-1.1-0.5-3.9 0.1-4.6C1594.8 55.7 1591.3 60.4 1590.1 61.4zM1606.4 167.7c0.4 4.6-0.5 46.1-1.3 65.9 -0.5 12.5-0.6 44.3-0.5 56.7 0 6.3-7.5 2.8-7.5 2.8s-3.7-19-3.6-24.2c0.2-11.7 0-23.4-0.4-35 -0.9-24.2 0.3-116.6 1.1-115.8 0.5-1.5 0.4-2.9-0.2-4.4 1.3 0.5 5.8-1.7 4-2.6 3.1-1.4 2.4 3.3 4.9 1.4 -1.6 0.8-0.6 7.9-0.5 8.6 -1.3 0.1-1.8 0.3-2.2 2.6 3.9-2.5-0.2 0.8 2.1 0.9 3.4-4.2 5.5 3.6 1.8 3.2 1.4 0.6 4.8 4.8 0.9 4.1 1.6 0.7 3 3.6-0.3 2.9 1.7 0.9 2.3 3.3 1.4 3.5 -0.6-0.4-1.3-0.8-2-1 0 0 0.1 0.1 0.1 0.1 0 0 0 0 0 0 0.2 0.2 0.3 0.4 0.5 0.5 -0.1-0.1-0.2-0.2-0.3-0.2 3.1 4.4 3.9 24.2-1.7 20.9C1605.9 160.7 1606.1 164.2 1606.4 167.7zM1604.7 120.4c1.4 1.3 2.3 0.8 2.3 4C1604.1 121.6 1604.7 122.9 1604.7 120.4zM1608.6 79.1c-0.1 0-0.1 0.1-0.2 0.1 -0.1 0.1-0.3 0.2-0.6 0.3 0 0 0 0-0.1 0 0 0-0.1 0 0 0 0 0 0 0 0 0 0 0-0.1 0 0 0 -0.6 0.1-2.5-3-2.4-3.5C1605.8 74.8 1609.3 78.7 1608.6 79.1zM1646.4 307.3c-8.8-2.2-11.7-6.8-20.1-9.7 -5.2-1.9-10.3-0.1-13.2-5.7 -2.8-5.5-2.5-17.8-2.2-23.7 0.3-9 0.1-18 0.1-27 0-19.1-0.3-38.2-0.2-57.4 0-8.4 0.3-16.9-0.3-25.3 -0.3-4.6-3-13 1.9-16.1 -4 0.9-1.6-10.3-1.5-11.8 2.9 0.6 5.8 1.2 8.8 1.9 -4.2-1.4-8.3-3.1-8.8-8.1 2.7 0.2 5.4 0.4 8.1 0.6 -0.6-0.1-8.7-0.8-7.7-2.9 0.6-1.1 3.1-1.1-0.2-1.5 1.2 0 3.3-1.3 4.9-1.3 -1.1-0.1-2.2-0.5-2.7-0.5 1.3-0.5 5.6-3.6 5.6-0.9 -0.4 1.1-1.3 1.5-2.3 1.5 0.3 0.1 0.7 0.2 0.9 0.5 -0.8 0.9-1.8 1.1-2.9 0.7 2.4 5.3 11 0.1 14.9 2.7 -1.6-1.1 4.3-3.6 0.3-3.2 3.1-1.3 7.1-3.2 3.5-0.1 1.4-1.4 2.4 1.7 3 2.3 -1-0.5-2-0.8-3.1-0.8 -1.6 0.8 3.6 3.4 3.6 4.2 1.1-1.3 2.5-2.3 4.1-3.1 -0.4 0.6-0.5 1.2-0.3 1.9 2 1 4.1-1.8 3.6-4.5 0.3 0 0.5 0 0.8 0 -0.2-0.1-0.3-0.3-0.3-0.6 0.3-0.9 1.4-5.8 1-4.6 0.8-2.6 0-5.3 2.8-7.1 0.5 0.7 0.7 1.5 0.4 2.4 -1.3-1.8-1.7 2.5-2.1 3.8 1.2-1.6 2.6-0.2 2.8 1 0.1 1.1-0.5 1.3-1.1 1.4 -0.3-0.2-0.6-0.3-0.9-0.4 0 0 0.1 0.1 0.2 0.1 -0.1 0-0.1-0.1-0.2-0.1 0 0 0 0 0 0 0 0 0 0 0 0 0 0 0 0 0 0v0c0 0 0 0 0 0 0.2 0.1 0.5 0.3 0.7 0.5 0 0 0 0 0 0 -0.4-0.2-0.6-0.4-0.7-0.4 0.2 0.1 0.4 0.3 0.5 0.4 -0.7 0-1.2-0.3 0.4 0.4 0.8 0.9 1.1 2.1 0.8 3.4 -1.7-2.7-2.3-1.3-2.1 0.9 -0.1-0.7-0.3-1.3-0.7-1.8 0.2 0.7 0.2 1.2 0.3 1.5 2.6 2.9-7.9 13.2-8.2 12.4 0.4 1.3 4.2 1 5.1 1.5 -0.3-0.1-2.7 1.2-4.4 1.7 2.1 1.3 5.1 4.1 5.2 4.2 1.2-2.3 6.2-2.3 6.2-4.8L1646.4 307.3zM1648 116.1C1648 116.1 1648 116.1 1648 116.1c-0.3-0.1-0.5-0.3-0.8-0.4 0.2 0.1 0.4 0.2 0.6 0.3C1647.8 116 1647.9 116 1648 116.1zM1649.9 130c0.5 1.6 0.7 3.4 0.7 5.1C1650 134.6 1648.4 130.5 1649.9 130zM1650.3 128.1c0.4 0.1 0.7 0.3 1.1 0.4C1651.1 128.5 1650.7 128.4 1650.3 128.1zM1652 104.6c1.6-0.8 2.7 2.5 3.6 3.1 -0.2-0.1-0.4-0.1-0.6-0.2 -0.7-0.1-0.9 0.2-0.8 1.1C1654.2 107.8 1649.9 105.6 1652 104.6z"/><path fill="#2D5B61" d="M85 132C85 132 85.1 132 85 132 85 132 85 132 85 132 85 132 85 132 85 132z"/></svg>