<svg version="1.1" xmlns="http://www.w3.org/2000/svg" x="0" y="0" width="100%" viewBox="0 0 1680 868" enable-background="new 0 0 1680 868" xml:space="preserve"><path fill="#161C1E" d="M1676.5 241.1c1.1-0.4 3.5-0.1 3.5-0.1v-68.2 -44.9c0 0-0.6-17.8-1.4-16.9 0.4 0.4-6.4 1-7.7 1.5 -0.7 0.3-0.2 1.9 0.2 2 -1.6-0.5-2.5-1.6-2.8 0.4 0.5 0.4 1 0.7 1.7 0.9 -0.7 0.2-1.3 0.7-1.7 1.3 0.6 0.3 1.1 0.5 1.7 0.8 -0.2 0.6-10.9 0-11.1-0.4 0.4 0.1 0.8 0.3 1.1 0.6 -1.7 1.3-3.2-0.6-3.5-0.6 0.1 0-2.5 2.5-4.2 2.6 -0.3 0-4-2.9-4.4-3 -5.1-0.8-4.6 9-5.4 10.2 -0.7-0.4-1.5-0.5-2.4-0.4 0.2 0.8 0.4 1.7 0.5 2.5 -4.7 3.5-7.6-13.9-5.1-13.5 -1.6-0.2-2.5-2.3-2.8-5.7 0 0.1 2.1-0.3 1.5-0.8 -1.7-1.5-8.6-4.2-9.8-3.5 -2.5 1.4-1.8 4.7-1.7 7.4 0.9 0.1 1.8 0 2.7-0.2 -0.5 0.6-0.8 1.3-1.1 2 -2.2-1.7-1.2 1-3.2 0.7 1.4-0.1-1.4-3.3-1.3-3.2 -0.1 0.6-0.3 1.1-0.5 1.7 -0.5-1-0.3-2 0.4-2.9 -0.7 0-1.4-0.2-2.1-0.4 0.5-1.2 1-2.5 1.6-3.7 0.2 0.4-2.9-0.9-2.8-0.8 0 0.1 3.5-1.1 3.1-3.4 -0.4 0.2-5.4-1.7-5.5-0.6 0.5 0.7 1.1 1 2 0.7 0.1 0.4-4 2.3-3.6 2.3 -0.8 0-6-3.1-7.6 1.4 -0.7-1.2-0.2-1.7 0.7-3 -0.8 0.4-1.5 0.9-2.1 1.6 -0.2-0.8-0.6-1.1-1.2-0.9 0.4-1-0.5-5.9-1.9-3.3 0.7-1.5 1.2-3.1 1.5-4.7 -0.8-0.9-1.8-1.7-2.9-2.4 -0.5-1-2-1.2-3.5-1.6 0.7-0.4 1.1-0.9 1.1-1.7 1 1-7-2.6-5.7-2 -2.2 0.8-3.4 1.4-5.2 1.4 -0.7 0-2.7-3.1-3.2-3 0.8-0.1-2.6 15-6.3 11.9 -7.8-6.4-0.8 0.5-6 1.9 -2.9 0.7-1.1-3.7-2.6-4.3 -3.1-1.3-3.2 9.8-6.5 10.4 0.1-1.7 3.4-8 2.4-9.3 -2.5-3.3-5.2 5.3-8 3 0.1-1.1 0.4-2 1.2-2.9 -1.7 0.2-4.9-3-5-3 -2.4 0-3.5 3.1-5.7 3.5 -1.7 0.3-6.3-0.2-7.5 0.8 -0.9 0.7-3.8 16.7-9.1 11.9 -0.9-0.9 2-4.3 1.3-5.6 -0.9 0-1.7 0.3-2.4 0.9 -1.5-6.6-8.7-2.4-9.6-6 -1-4 6.9-1.7 6-1.2 1.1-0.6 3-2.4 4.8-3.4 1.5-0.9 5.3-4.3 6.3-4.7 6.4-2.5 0 0.9 4.9 1.8 -4.3-0.8 11.9-6.1 10-5.2 0-5.5 2.8-1.2 4.8-0.9 -0.1 0 7.5-4.5 7.3-2.8 0.3-2.1-7.3-5.1-5.6-6.9 0.4-0.5 5.2-0.1 5.9-0.3 -3.3 0.7-0.8-5.6-0.8-5.6 -2.4-2.5-7.9 0.9-9.6-1.7 -0.7-1.1 6-5.1 4.8-5.9 -1.9 0.2-3.7 0.1-5.5-0.3 -0.7-1.1 5.5-6.9 2.6-7.7 -2.2-0.6-0.2 2-2.2 1.7 -1.9-0.3 0.3-3.8-1.9-4.2 -3.8-0.7-8.8 12.2-12.1 12.7 0.2 0-2.1-8-2.4-8.3 0.1 0.1-10.4 1.9-8.8-0.3 5.2-6.9 2.9-2.6-2.4-5.5 2.1-2.5 6.9-0.7 8.5-3.6 2.3-4.1-4.4-2.1-4.8-2.5 -0.6-0.6 4.7-4.7 3.9-6.2 -3.1-6.3-12.5 9.2-11.7 9 -1.4 0.3-3.2-3.7-3.3-4.1 -1.7-1.3-3.5 4-5.4 3.2 -0.3-0.1 5-6.2 2.6-6.8 -1.3-0.3-1.2 2.7-2.6 1.5 -7.4-5.9 9.3-9.1 9.1-8 0.2-0.6-6.3-2.4-6.7-2.7 1.6 0 2.9-0.5 4.1-1.5 -0.9-0.5-1.6-1.1-2.3-1.8 0-1 4.6-0.6 5.1-0.9 -2.1-1.4-3.7-8 0.6-7.2 -6.5-1.1-4.5 6-8.6 5.5 -3-0.3-2.8-5.1-4.5-6.3 -2.5-1.8-4.2-3.5-7.3-2.1 -1.7 0.8 2.2 3.3 2.3 3 -1.1 4 6.8-7.9 0.7 3.8 -0.2-2.1-11-4.6-11-4.6 -4.3 3.3 2.4 10.4-3.5 5.6 -0.4-0.4-0.8-3.7-3.2-5.2 -1.5-1-3.6 1.8-4.5 1.3 -9-4.9 3.5-7.4-5.2-10.5 1.3-0.5 2.4-1.4 3.1-2.6 -1.3-1.4-4.3 1.9-5.6 0.4 -0.9-1-1.1-8.1-1.1-9.4 -1 0-6.8 3.2-6.9 4.2 0.7 1.3 1.7 1.9 3.2 1.7 -2.9 0-4.1 5.8-6.1 7.1 -0.6-0.7-1.4-1.1-2.3-1.2 -0.7 0.8 4.1 4.2 1.2 4.6 -2.3 0.3-1-4.3-3.3-4.1 0.8-0.1-5.4 2.6-5.4 2.6 -2.4 1.4-0.9 4.4-1.7 5 -2.7 2.2-3.2-3.1-6.9 1.8 -0.9-2.6-4.2-5.6-4.2-5.7 0.6 0.9-1.6 4.4-0.3 5.8 -2.2-2.4-2.5 6.5-0.1 6.7 3 0.2-0.6-2.1 0.1-2.3 1.3-0.4 6.6 6 5.5 6.5 0.1-0.1-4-1.7-3.9-1.7 -1.1 0 0.5 2.8-1 2.9 -1.6 0.2-2.5-4.4-3.3-5.2 0 1.6 0.1 3.3 0.2 4.9 -1.6 0.8-2.5-6.7-4.9-6.3 -3 0.5 0.8 2.5 0 3.6 -1 0.5-2.1 0.7-3.3 0.7 -0.5 0.7 2.4 6.2 0.3 6.4 -0.1 0-3.6-3.7-2.5-3 -2.3-1.3-1.5 0.4-3.2-0.4 -2-1-3.6-3-5.8-4.1 0.1 1.9 0.2 3.9 0.3 5.8 -1-0.5-2-0.7-3.1-0.5 3.3-2.2-1.5 10.9-1.3 6.9 0 1.2 4.5 5.4 5.2 3.5 -1.2 3.6 0.1 0.2-2 3.6 1.1-1.6-5.8 1.8-4.7 1.2 0.4-0.3-4.8 6.3-4.9 4.9 0.2 3.7 6.1 3.9 5.9 7.6 -0.7 9.8-6.4-1-6-0.9 -2.6-0.7-6.1-1.4-8.4-2 -1.4-0.3-2.1-3-3.9-3.3 -4.3-0.7-1.2 2.8-2.7 4.1 -2.5 2.1-2.4-3.8-4.5-3.2 2.2-1.4-2.3 4-2.1 2 -0.2 2.2 3.3 1.9 1.2 4.8 -1.6 2.2-4.8 0.2-5.6 1.4 -0.4 0.5 1.4 4.6 1.3 4.7 -2.5 1-2.5-4.9-4.3 0.5 -0.4 1 2 5.7 2.6 5.6 -2.4 0.6-4.1-4.7-6.3-3.2 0.6 1 0.6 2.1 0.2 3.2 -1.8 0.4-1.1-4.9-3.6-3.8 -2.8 1.2-2.4 10.1-4.6 11.1 -3.9 1.9-3.3-7-4.2-8 1.4 1.6-9.4-1.5-7-2.7 -4.4 2.1-0.2 4.7-2.2 6.9 -1.7 1.9-2.8-3-4.4-2.4 -1.1 0.4 1.7 3.1 0.6 3.4 -1.8 0.5-1.8-6-5-2.7 -4.9 5 2.1 5.3 0.3 8.5 -0.7 1.3-4.2-0.9-4.2 1.6 -0.1 3.5 8.1 9.9-0.8 10.6 -2.6 0.2-9.2-8.6-10.9-8.3 1.8-0.3-4.8 7.8-4.6 6.3 -0.4 3.3 2.4 7.2 3.9 10 0.2 0.4 8.3 13.9 8.3 13.9 -1.2 0.4-5.4-4-6-0.1 -0.7 4.5 1.2 6.3 3.8 10.1 -1 0.3-6.5-4-6.7-2.8 0.4-0.7 0.9-1.2 1.5-1.6 -0.6 3.1-11.9-5.4-13.6-5.4 0 2.2-0.1 6.4-1.2 8.4 -1.4 2.6-3.9-1.2-5.5 0.6 0.7 1.2 1.7 2.1 3.1 2.6 -1.3 0.8-2.6 1.1-4 0.9 -1.3 1.6 2.8 5.6 1.5 6.6 -1.1 0.8-5.9 1.9-5.7 1.7 -0.3 0.3-5 2.9-5.4 3.1 -2 1.1 2.1 3.5 2.1 3.6 -4.4 6.6-5.1-5.7-3.6-4.7 -0.7-0.5-1.5-2.3-3.2-2.8 -0.2 0-9.1 4.4-9.2 5 -1.3-2.5 3.8-6.6 3.3-7 -5.8-4.6-8.5 7.5-10 7.8 -7 1.7-2.4-6.3-10.5-4.9 5-0.9 2.4 6 0.6 7.2 0.5 0.3 5-0.1 5.1 0.9 -0.6 0.8-1.4 1.4-2.3 1.8 1.2 1 2.5 1.5 4.1 1.5 -0.7 0.5-6.9 1.8-6.7 2.7 1 3.8 6.1-2 7.4 0.6 0.7 1.4-4.1 7.7-5.5 7.7 -0.7 0.1-0.8-5-1.3-5.2 -0.5-0.2-6.7-0.1-7.1-0.3 -0.6-0.3 3.1-4.1 3-4.7 -1.5-0.7-3.1-0.8-4.7-0.4 -0.3 0.4 9.9-4 6.1-4.9 -1.1 0.4-2.2 0.5-3.3 0.4 0 0 2.4-4.8 2.6-4.9 -1.2 0.6-8.4 6.8-8.5 6.8 -1.5 0-2.1-2.7-3.2-2.9 -1.3-0.2-1.8 3-3.4 2.2 1.6 0 1.6-4.9 1.8-5 -3.2 3.8-1.8-2.2-1.6-2.6 0.5-1.3 5.3-1.1 6.3-1.6 1-0.6-4.9-2.7-4.9-2.7 3.5-0.3 4-1.2 1.4-2.6 1.2-0.5 2.4-0.8 3.8-0.7 -4.9-3.1 0.7-2 0.7-5.2 0 2.8-6.6 2.2-8.1 1.9 -2.2-0.4-3.8-6.7-7.4-4.5 -3.1 1.9 3.8 2.9 3.5 2.4 0 1.2-0.4 2.2-1.2 3.1 -0.2-2.2-7.1-4.2-8.8-4 -0.6 0.1 0.5 7.7-1.9 7.3 -4.5-0.9 2-3.3 0.8-3.8 1.9 0.8-7.1-4.4-5.4-1.8 -2.2-3.5-3.7-7.4-2.6-9.4 -3.2-3.2-4.9 1.2-4.9-6.8 -0.9 0-5.2 2.1-5.2 3.3 0.8 0.5 1.6 0.9 2.5 1.3 -1.7 1.8-4.6 4.8-6.2 4.2 0.6 1 1 2.1 1.3 3.2 0.4-2.5-11.2-3.5-8 2.6 -2.4 1.2-0.7-1.6-2.5-1.8 -1.2 0.8-2.1 1.9-2.7 3.2 -0.1-0.2-3.9-5.1-4.3-4.3 -1.7 3.7-0.1 8 0.1 8.1 1.6 0.2 3.3 1.5 3.9 3.5 -1.5-1-3.4 1.5-3.2 1.6 -1.1-0.9-1.9-2.1-2.4-3.5 0.1 1.2 0.2 2.5 0.2 3.8 -1.5 0.7-1.7-6.4-4-3.9 0.3 0.9 0.3 1.8 0 2.7 -0.7-0.1-1.4-0.2-2.1-0.2 0.5 1.6 0.7 3.2 0.6 4.8 -0.2 2-11.7-8.4-7.9-9.3 -1.7 0.4-15.7-3.8-15.7-0.8 0.4-2.3-0.5-2.7-2.7-1.5 1.4-1.8 0.5-10.5-3.2-5.9 -0.6-0.8-0.7-1.7-1.7-0.5 -0.7-1.6-1.1-3.4-1.2-5.1 -0.6 0.5-2 1.1-2-1 0-1.8-0.6 5.8 0.1 2.9 -0.8 3.4-5 0.3-5.5-0.7 0.5 0.1-3.8 3.5-5.1 3.6 -2.7 0.3-3.1-2-4-3.3 0 0.1-3.5 6.1-4.1 6.1 -0.2-1.2-0.5-1-0.9 0.5 -3.6-7.4-11.5-0.2-13.3-0.8 -0.1 1.4-0.1 2.8 0 4.2 -5.5-6.1-9 8-7.6 9.4 -1.2-1.2-2.8-2.7-3.2-3.8 0 0.8-2 6.6-2.7 6.8 -1.4-2.1-2.3-1.9-2.7 0.5 -0.5-0.7-1.2-1.3-2-1.7 -0.3 1.2-1 3.7-1.2 3.7 -2 0.3-2.4-3.5-3.2-4.2 -0.7 0.7-2 5.2-1.7 5.1 -1.4-1.9-6.4 2-6.9 0.5 -0.4 0.1-0.7 6.4-1.5 7.1 0-1.2-0.9 0.4-2-1 -0.3 0.1 2.2 6.5 2.9 6.9 -1-0.5-2-1.1-2.9-1.8 -3.6 3.6 3.9 4.8 5.5 6.1 -1 0.7-2 1.3-3.1 1.8 0.7 0.4 8.3 2.6 8.4 2.3 0 1.2-3.5 0.5-3.2 1.5 0.7 2.2 5.1-0.2 4.2-0.2 1.1 0.1 1.9 0.7 2.4 1.7 -1.2-2.1 4.9-1 4-2.9 0.5 0.9 1.2 1.5 2.2 1.9 0.2-0.2-2.9-2.2-0.6-2.4 5.3-0.5 3.5 8.8 10.2 4.9 3.7 4.7-2.4 0.5-1.4 2.2 1.8 3 5.3 6 8.6 4.2 0.3 0.7-7.8 1.9-7.8 1.9 0.7 0.5 1.5 0.6 2.3 0.4 0.6 2.2-4.5 2.4-5.4 1.7 -1.4 0-1.3-6.4-0.5-7.3 -0.2-2-4.3 1.7-2.7-1 -2.2 0.7-5.2 0-8.2 1.1 -0.3-0.3 2.1 0.9 2.1 0.9 -1.9 2.3-3.4-0.2-5.4-0.2 1.3 0-2.9 3.8-2.2 3.2 -0.3-0.4 6 3.3 4.6 3.5 -0.3 0-4.4-1.6-4.1-1.8 -1.3 0.9 3 4.7 3.9 3.2 -0.6 2.4 2.1 1.5 2.7 1.7 1.6 1.1 6.6-1.7 8.2-2 -0.3 1.4-1 2.5-2.1 3.3 -1-2.8 1.7-0.8-1.1-0.6 3.4-0.2-3.2 2.2-2.8 2 0.8 1.2 1.5 4.4 1.7 5.6 -3-1.2 0.1 4.8-1.7 6.6 -1.8-2.1-2.9-0.1-2.6-2.1 -1 1.5-2.7 1.1-2.5-1 -1 6.1-0.2-1.5-1.4 0.3 0.1 0.9 0 1.8-0.1 2.6 0.1 0.2-5.5-3.7-5.1-3.7 0.3 1.3 0.1 1.6-0.5 0.7 1.8 1.9 1.4 3-1.1 3.4 -0.2-1.5-0.8-2.8-2-3.9 -1.3 4-2.8 0.5-5.1 2.3 -0.1 0 0.6-4.1-0.9-5.4 -0.9 1.7-1.1 3.1-2.6 1.6 -1.5 0.7 0.6 5.3-1.3 6.2 -1.7-2.7-1.1 0.5-2.6 0.5 -0.8-0.8-1.2-1.7-1.3-2.9 -1.7-0.7-3.2 8.6-2.6 9.8 -1.3 1.3-3.8-2.7-3.8 0.8 0-4.6-6.4 3.1-8.7-0.3 2.9 4.1-5.2 1.4-7.6 3.6 -2.3 2-1.7 4.5-3.1 7 -0.3 1.5-0.5 2.9-0.9 4.4 -1.1 0-2.1-0.3-3.1-0.8 -1.2 1.2 3.3 3.3 1.3 4.7 -0.5-0.9-1.1-1.8-1.8-2.6 -0.2 1-3.8 4-7.4 2.4 -2.7-1.2-8.3-7.3-6.8-10 -0.9-0.9-6.7 0.1-5.9 1 -1.8-1.8-1.9-6.1-3.4-8.4 -0.9-1.3-3.3 1.5-3.6 1.2 0 0.1 0.1-8.5-2.8-6.3 -0.9 0.6-0.6 6-2.2 6 -4.7-0.1 1.4-11.2-0.9-13.7 -4.1-4.3-10.4-0.4-12.1 3.4 -6.7-2.2-1.6-8.7-4.9-11.6 -4.9-4.3-1.6 1.9-5.7 1.7 -2.1-0.1-2.5-2.5-4.9-2.3 -5.4 0.5-10.9 3.3-15.9 4.2 -1.2 0.2-1.1 2.5-3.1 2.7 -2 0.2-2.6-3.3-3-3.2 -1.5 0.1-7.7-2.8-9.2-1.9 -4.4 2.4 1.9 3.4 1.6 5.4 -0.1 0.7-2 3.3-2 2.7 0 1.2 2.3 4.5 2.5 4 -1.3 3.3-11.6-3.3-13.7 0.6 -3.8 7.1 8.9 3.3 8.4 2.4 -0.1 1.6-0.8 2.9-2 4 1.3 1 2.7 1.9 4.2 2.7 -1.2 0.6-2.4 0.9-3.7 1 3 3.6 7.8-2.9 11-1.1 -1.4-0.8 2.5 10.1 3.1 8.2 0.2-0.7-10.2-0.6-11.5 0.4 -0.7 0.5-0.2 5.8-1.6 5.8 1.7-1 3.4-2.2 5-3.4 -0.2 0 7.8 7.8 4.8 7.1 -13.2-3-11-2-14.3 8.2 -0.1 0.3 0.6 3.1 0 4.1 -0.1 0.2-4 2.5-4.3 2.9 -2.6 4-7.5 1.1 0.6 5.1 -3.5 3.5-6 4.1-0.5 7.7 -1.4 1-7.1 6.4-6.5 8.8 0.9 3.1 9-0.2 10.5 1.2 4.8 4.4-1.2 7 0.2 11.8 2.2-1.3 24.4-10 24.2-6.9 -1.1 0.7-2.3 0.9-3.6 0.6 -0.4 0.9-0.1 1.4 1 1.4 0.3 0.4-6.6 5.1-6.7 5.4 -3.6-0.5-1.4-4.1-8.2-0.8 -6 2.9-1 4.6-9.6 6.3 0 3.4 7.7 11.3 4.7 14.3 2.5-3.5-16.3-4.8-16.8-4.5 -2.8 1.2-4.6 4.8-7.1 5.9 -3.7 1.6-2.4-0.9-3.5-1.7 -1.9-2.6-1.6 6.3-3.8-1 -1.4-4.7 0.6-6.3 0-11.3 -1.5 1.3-3.1 1.6-4.9 0.9 -0.1-1.2 0.3-2.2 1-3.1 -1.2 0.4-2.4 0.6-3.6 0.6 -0.8-1.5 3.6-4.9 4.3-5.6 -3.2-0.4-0.2-9.6-3.5-6 0.3-0.4 1.7-4.7 1.3-5.1 -1-1.2-3.9 2.4-4.7 2.5 0.5 1.4-2.6-6.6-3.8-2.8 0.2-0.1 4.5-2.9 3.7-3.3 -1.1-0.5-6.1-5-6.1-5 0 0-1.5 5-1.2 4.8 -1.4-0.3-2.1-1.2-2.2-2.6 -2.7 3.9-11.1 4-14.5 1.7 0-3.4-0.4-1.7-1.5-1.6 -1.9-2 1-4.1-0.4-5.8 -1.6 0.6-3.3-1.6-2.9 1.7 -3.6-6.5-0.5-1.6-3.8-3 -0.5 0.2 2.2 3.9 2 4.2 -0.6 1-3.7-1-3.4 1 0.8 0.9 1.8 1.5 2.9 1.8 -2.6 2.9-4.8-3.1-7.2-0.5 -1.1 1.2 1.8 4.1 0.6 5.5 -1.2 1.4-3.9 0.6-4.3 1 2.1 2.2-2.3 4-4.2 3.8 0 0.8 0.3 1.4 0.8 2 -1-0.5-2-0.5-3-0.1 0 0.2 7 2.4 6.3 3.2 -1.3 0.1-2.6 0.2-4 0.4 1.5 0.7 1.7 1.4 0.6 2.1 -1-0.5-1.9-1.1-2.6-1.8 -1.3 3.3 3.1 2.7 2.9 5.1 -0.3 2.4-5.5-1.6-6-1 0.3 1.8 8 13.3 4.6 13 4.1 4.9-2.5 0.3-4.5 2.4 0.2 3.8-0.3-0.3-2.8 3.5 -0.6-8.1-3.7 0.7-4.9 1.5 -0.9 0.6-4.1-0.2-3.9-0.5 -3.3 3.6 7.9 0.9-1.7 2.8 5.4 1.5-4.7 3.8 2.9 5.1 -2 4.9 4.7 1.1 2.5 5.1 0.7 0.8 8.9-3.2 8.9-3.2 0.3 2 2.4 4.1 2.4 3.8 1.2 8.1-7.6 3.7-9.6 3.9 -2.1 0.2 3.7 4.7 3.1 5.9 -1.8 0.5-3.5 0-4.9-1.3 4.5 4.2 4 7.8 6.4 13.2 -4.5 1.1-8.8-2.4-6 2.8 1 1.8 1.5 2.1 4.5 2.5 2.6 0.4 5-1.2 7.2-0.8 4.9 0.9 6 4 11.9 5 -0.8 1.2-1.9 1.9-3.4 2.3 -3 0.3-3.8-0.6-2.4-2.6 -1.7-0.1-3.8-4.8-5.7-2.4 -1.7 2.1 0.9 6.5 2.7 7.8 -5.2-3.8-7.1 3.6-11.4 1.2 1.2 0.3 2.3 0.7 3.3 1.3 -2.1 2.3-3.3-1.3-4.9 1.8 -1.3 2.7 2.9 1.5-1.2 3.6 -0.2 0.2 3.4 0.8 3.4 0.8 -0.3 2-0.7 3.9-1.1 5.8 0.4-0.2 4.1-0.4 3.8 0 -3.5 1.8-3.5 3.2-0.1 4.1 -8.5 0.2 2.1 11.5 1.6 11.5 -1-0.1-1.9-0.4-2.8-0.9 -0.5 4.2-2.8 2.4 0.1 5.3 -0.1 1.2-15.8 3.8-7.1 4.8 0-0.1-5.2 1.7-4.9 2 0.5 0.4 4.3-1.5 4.3 0.1 0.1 3-3.8 3.3 0.6 3.8 -4 2-0.4 1.5-2.1 2.4 -2.1 1.1-5.3-3.5-7.2-1.4 -1.7 1.9 1.9 1.1 1.4 2 0.1 3.5-5.3-1.1-5.3-1.2 1.9 3-6.3-2.5-6.8 1.9 0.3-1.3 2.9 2.8 2.6 2.6 0.8-0.9 1.7-1.5 2.8-1.9 1.7 1.4 3.6 2.5 5.6 3.3 0.6 0.1 7.9 3 7.8 1.2 0.3 0.5 0.2 2.5 1.6 4.8 1.4 2.3 2.8 1.9 3.4 4.3 0.8 3.3-2.5-0.3-2.8 1.7 -0.2 1.8 3.2 1.1 1.3 3.1 -4.8-4.6-9.2-9.5-13.4-14.6 7.3 11.1 16 20.1 22.6 31.6 -0.9-0.8-2-1.2-3.2-1.3 -3.1 0.7 8.9 4.7 8.7 4.6 2.7 0.8 3.3 3.4 3.5 3.5 2.6 0.4 0.9-2.5 6-1.3 6.1 1.5 9.2 6.3 13.2 10.5 -5.2 2.5-14.4-4.7-20.7-4.4 4.1 0.3 21.9 10.9 24.2 7 0.4 9.3-14.6 2.8-18.2 0.2 4.4 5 18.8 3.8 19.1 10.2 -4.8-2.4-11-2.3-16.2-1.9 12.9 1.5 15.7 1.3 17.4 14.8 -8.6-2.1-17-5.1-24.5-9.8 10.1 12.8 23.9 6.5 25.8 24.7 -6.5-5.4-12.8-19-23-17.3 14.7 4.5 22.1 20.5 23.4 34.4 -17.2-5-32.9-13.8-48.2-22.7 12.3 8.4 23.9 16.4 37.6 22.3 5.5 2.4 9.6 1.2 11.6 7.9 1.8 5.8 0.8 11.8-5 10.8 9.8 6 5.7 24.6 6.1 33.9 -11.5-1.1-21.9-6-32.1-11.3 5.3 4 11 7.6 17.2 10.1 3.7 1.4 9.8 1.4 12.8 3.6 3.7 2.8 7.1 15.3 0.4 13.9 6.3 8 2.8 23.8 3 33.2 0.2 13.8 0.4 27.5 0.8 41.3 0.9 30.7 2.3 61.4 4.2 92 0.4 6.7 0.8 13.4 1.3 20.1 0.3 4.4 4.2 23.6 1.7 26.8 -1.5 1.9-13.2 5.1-15.6 6 -7 2.8-13.9 6.1-21.1 8.3 -12.8 4-25.5 2.7-38.6 4.8 -11.3 1.8-22.5 9.1-33.9 9.3 -11.6 0.1-17.9-8-30.1-4.4 -11.6 3.5-22.5 9.3-34.3 12.9 -27.4 8.3-55.5 13.8-83.5 19.6 -25.2 5.2-52 9.1-77.7 10.1 -27.1 1.1-54.3-4.3-81.2-2.4 2.4-50 4.9-100 7.1-150.1 1-24.1 1.7-48.3 2.7-72.4 0.5-11.9 1.4-23.7 1.1-35.6 -0.2-7.6-3.3-17.8 4.7-22.4 -8 0.8-5.1-4.8-5.1-12.4 0-5.5 0.1-11 0.3-16.5 0.3-12.1 0.7-24.1 0.5-36.2 4.5 3 3.7-3.7 4.2-3.6 3.7-0.7 7.3-0.9 7.7-0.7 2.2 1 0.8 1.1 2.5 2.9 -0.1-0.1 4.6 1.5 2.3-3.7 1.3 1.3 2.5 2.7 3.4 4.2 0.9 0.4 4.5-8 5.8-6.5 -1-1.9-7.3 1.6-7.5-1.1 0-0.8 3.6 0.7 3.7-0.6 0 0.9-2.9-1.6-3-2.7 0.4 0.2-16.7 2.6-13.2-3.3 1.8-0.3 3.4 0.2 4.7 1.5 -1.8-8.5 11.6 2.8 12.8-1.8 0.2-0.9-7.8-7-4.2-8.6 -0.4 8.5 10.9-2.4 11.9-2.3 0 0-0.4 6 0 6.3 0.4-0.6 0.8-1.3 1.1-2 1.3 1.2 2.5 2.5 3.7 3.8 -3.2-0.9 0.1-6.8-1.1-8.1 0.2 0.2 9.5 0.7 5.1 3.6 -0.8-0.6-1.5-1.2-2.3-1.9 -1 0.7-1.2 1.7-0.6 2.9 3.5 2.7 9.9-2.9 8.8-4.2 1.7 2.2-1.9 6.4-0.9 7.6 -0.2-0.8 3.3 0.7 3.6 0.9 -0.8-0.5 4.7-5 4.8-5.4 0.3-0.9-3.2-5.5-1.8-1.2 -2 0.9-3.3-5-0.7-4.7 2.8 0.3 2 4.2 4.6 4.7 3.6 1.1 1.3-6.9 0.8-6.2 0.8-1.4 7.7 5.6 4.5-1.4 0.9-0.2 14.7 0.6 13.8-1.1 -0.8-1.5-3.5-0.4-4.6-1.1 -0.7-0.7 1.8-3.7 0-5.6 -1.5-1.5-2.8 4.4-5.1 3.3 0.7-5 4.1-4.2 4.2-8.7 0-0.2-8.6-2-2.6-3.5 -0.2-0.5-4.9-5.3-4.8-1.6 0.2 0.1-9.4-3.4-9.3-3.6 0.4-0.5 5.3-0.2 5.9-0.4 1.1-1.5-8.6-4.5-5.4-1 -1.7-0.5-3.4-1.1-5.1-1.8 4.7 0.1-7.6-4.9-8.8-5.1 1.5 0.3-3.2 1.2-2.9 1.2 0.5 0-5.4-3.9-5.4-3.9 -3.2 2.9 1.1 4.5 0.2 7.6 -8-0.9-15.5-15.1-18.1-21.2 1.2 1.6 1.8 1.6 1.9-0.2 2.2 7.4 6 1.6 9.9 4.1 -0.1-0.1-0.1-5.6-0.5-5.5 0.7 2.7 2.3 3.5 4.6 2.2 1.2-2-4.8-3.8-4-5.4 1 0.4 2.1 0.7 3.1 0.9 0.4-2.4-9.4-3.8-10.7-6 -0.3-0.3 5-4 4.9-3.4 -1.4-1.9-3.7-6.2-2.1-6.4 0.1 0.4-11.7-1.3-11.1-2.1 -0.9 1.3 3.6 1.4 0.9 2.9 0.8-0.8-7.6-3.6-5.2-1.3 -7-5.1 12.1-3.8 15.8-1.3 7.5 5 11 12.8 13.7 20.6 2.2 6.4-0.9 1.9 2.7 5.9 1 1.1 8.9 4.8 7.6 6.8 1.7-1.5 1.7-2.7 0.1-3.4 4.8 2.4 4.5 5.4 7.9 5 -1 0 1.1 6 1.1 6 0.8-0.8 4.8-1.2 4.4 0.5 -0.3-0.9-0.7-1.7-1.2-2.4 2.2 1.7 3.1 1.3 2.8-1.1 0.4-0.7 3.7 3.9 3.9 4.3 -0.1-0.5 7.1-6.6 5.2-7.4 -2.5-1-2.5 2.3-4.9 0.1 0.9-0.5 1.9-0.7 2.9-0.7 0.3-1.1-10.8-1.3-10.9-1 0.8-3 6.5 0.3 8.1-0.7 0-1-0.1-1.9-0.4-2.9 1.4-1.3 4.2 3.2 5.5 0.2 -0.8-1.1 1.1-6.1 1.8-6.2 0 0-3.6-2.5-1-1.9 -1.6-1.8-5.6 3.1-6.7 3.5 -0.5 0.2-3.3-11-7.3-3.3 -0.3-0.8-0.7-1.4-1.3-2 6.5-0.6 2.2-2.4 2.4-6.4 0.3-0.7 3.8 2 4.4 1.5 -3.2 3-5.9-8.7-5.9-8.6 0.5-0.4 2.1 3.7 2.5 3.9 0.8-0.4 1.1-1 0.9-1.8 3-0.7 5.1 8.8 8.7 9.2 -0.3-0.4-0.5-0.8-0.5-1.3 0.8-0.3 3.1 2.7 3.6 1.7 0-1.1-0.5-2-1.5-2.7 1.4 0.8 5.1-0.3 6.3-1.1 -0.2 0.1-0.4-6.7-0.7-6.7 -0.1 1.4-6.4 4-6 2.3 0.4-1 1-2 1.8-2.8 -0.9 0.4-1.5 0.1-1.8-0.8 0 0.4 3.6-3.8 2.8-3.7 -2.2 0.2-3.6 4-6.3 1.9 -0.4-0.3 4.1-4.7 4.1-5 -1.2 3-10.2-1.8-4.4-2 0.1-1.5-10.3-3.8-11.8-1.6 -0.7-0.8-1.3-1.7-1.7-2.7 -0.4-1.6 7 1.1 5.9-0.8 -0.8-1.3-16.6-3.1-11.8-8.9 4.4 2.1 8.5 4.9 12.8 7.2 2.9 4.4 7.4-6.1 7-6 -0.6 0.9-1.4 1.3-2.5 1.1 -1.4-2.6 3.6-2.5 2.4-4.5 -2.1-3.5-8.1 0.6-9 0.4 -2.7-0.6-5.6-3-9.8-3.5 -2.2-0.3-6.3 1.6-8.7-1.2 -3.9-4.5 14.2-2.2 17.4-2.2 2.5 0 4.8 1.7 7.8 0.2 4.5-2.3-0.6-1.7 1.8-3.9 -0.9-0.6-1.8-0.9-2.8-1.1 0.9-0.2 1.4-0.7 1.6-1.6 -0.7-0.8-3.8-4.6-4.4-5 2.1 0.8 2.6 0 1.3-2.5 -0.9 0.5-1.9 0.8-2.9 0.9 0.5-0.2 0.7-4.5 0.5-4.9 -1.1 1-5.8 4.2-7.4 2.8 -1.8-1 5.1-4.8 4-5 -0.2 0.2-0.4 0.5-0.7 0.7 -1.3-3.1 3.7-3.2 0.5-5.5 -3-2.2-1.8-0.5-6.5 0.3 -0.2 0-6.4 2.1-6.4 2 0.4-0.7 0.4-1.3 0.1-2 -4.7 0.1-3.3-0.1-7.3-0.3 2-0.9 10.9-3.2 2.9-5.2 0.5-0.5 4.2-3.1 5-1.9 -1.5-2.3-6.7-0.2-8.3 0.5 1.6-1.1-1.9-0.2 0.7-2.4 -1 1.4-20.5-9.5-20.8-6.4 0.3-3.7 10-1.5 11.8-0.9 2.7 0.9 15.3 5.3 8.4 3.5 0.9-0.3 1.7-0.3 2.5 0.2 0.2-1.3-1.5-6.6 0-6 -0.5-0.2-5.8 1.2-6 0.9 0.6-1.2 0.5-2.3-0.4-3.4 -0.6 0.1-5 2.6-5.3 1.3 -1.4-6.3 17.8 3.4 17.4 3.5 0.8-2.9 2.8-2.7 5.8 0 -1.2-1.4 1.3-2.6-1.7-2.7 17.4-0.3-5.3-6.3-6.2-7 -5.4-4.2 7.7-1.6 8.5-2.6 -0.2-1.6-1.1-2.5-2.8-2.7 0.8-0.8 1.8-1.3 2.9-1.6 -2.4-1.4-7.6-3.5-9.2-4.7 -1.3-1 1.2-4.4 0-4.9 -4.1-1.9-6.5 1-10.4-0.1 1.1-0.7 3.7-4.7 1.8-6 -2.8-2-2 4-3.4 3.9 -1.3-5-10.4-1.2-9.2 0.1 -1.2-1.2-2.3-2.4-3.3-3.7 0.9-1 5.7 2.2 5.1-3.7 -0.3-3.1-3.2 0.3-4.9-0.7 -1.5-0.9-1.3-2.4-3-3.6 -1.9-1.1-3.2 4.1-3.4-0.7 -2.2 1.2-3.1 0.6-2.5-1.7 -2.9 3.3-0.8-1.7-2.8-2.2 -3.7-1-1.5 2.1-3.5 3.2 -0.7-1.3-4.2-3.3-6.4-3.4 -0.4-0.2-0.6 6.8-1.1 7 -2.7-5.7-16.7-2-17.5 4.5 -1.4 10.6 11.6-2.7 15.1 3.5 -1.4 0.5-6.4-0.2-7.4 1 2.4 3.8-1.1 0.9-2.8 2.7 0.1 1.7 1.2 2.7 3.1 3.3 -0.3-0.1-9.7-1.7-9.7-1.4 0.8 1.2 1.9 1.9 3.3 2.1 -5 4.3-2.4 0-5-0.1 -4.2-0.1-4.9 6.1-8.4 5.4 -0.2-5.1 1.3-7.4 2.8-12.6 -6.1-0.5-5.2-3.3-10.8-5.7 -1.5-0.7-4.6 1.6-6.9 1 -2.8-0.7-5.7-5.1-8.9-4.2 0.3-3.3 21.6 3.5 23.5 4.3 1-3.3-3-6.6-1.4-9 2-3 9.9 0.2 10.9-3.8 0.4-1.7-4.7-2.6-5-3.6 -1.4-4.3 0.3-6.1-3.8-9.4 1.7-0.7 2.9-1.9 3.7-3.4 -0.3-1.6-7.4 0-8.6-2.1 -0.3 1.3-0.3-17.5-3.6-14.8 -1.5 1.2-7.3 5.7-9.8 3.5 -2.8-2.4 9.2-10.6 9.1-4.7 0-7.8-11.6-2.9-11.6-4 -0.5 3.3 6.3-7.9 2-4.6 1.4-1.1 8.5 0 9.7-1.7 -1.3 0.2-2.4-0.1-3.4-0.9 -0.4 1 5.1-6.4 2-5.6 -1.5 0.4 12.5 3.2 6.4-1.8 -2.9-2.4-9.1-1.8-12.2 0.3 1.2-0.5 1.9-1.4 1.9-2.7 -1.1-0.1-2.2-0.2-3.3-0.4 -0.4-0.9 5.2-6.8 2.2-7.1 -3.7-0.4-9 6-9.4 5.9 -5.5-0.3-11.5-3.8-17.3-4.2 0.5 0-10 1.4-9.7 1 -1.5 1.5 1.8 7.5-2.2 9.9 0.8-0.5-8-2-10.1-1.7 0.9-6.3-2.7-6-3-10.4 -0.1-1.9 4-9.6 2.9-10.6 0.4 0.4-5.5 2-6.7 1.5 -4-1.4 1.9-3.6 0.3-5.2 -0.3 0.5-4.8 1.7-5.3 1.1 -1-1.6 5.8-7.4 7-8.5 -1.1-0.1-2.3-0.3-3.4-0.5 -0.7-0.7 3.6-4.1 3.4-5.8 -0.5-3.4-3.1 1.1-4.6-0.2 -2.3-1.9 3.5-7 1.7-9.1 -1.7-2-6 4.1-7.5 3.7 -0.2-1.3-0.3-2.7-0.2-4 -0.2-0.1-5.7 0.2-5.6-0.3 0.1-0.5 7.8-3.6 6-5.2 -1.5-0.4-3-1-4.5-1.6 -0.1-1.8-0.2-3.6-0.5-5.4 -2.8-1.5-3.3 4.3-4.7-1.2 -0.2-0.9-2.9 7.8-1.8 7.4 -2.2 0.8-2.8-3.2-3.4-4.3 -3.8 5.3-8.9 5.3-14.2 4.3 0.1 0-4.7-2.6-3.9-2.2 -1.1-0.5-4.1 0.9-4.6 0.6 -3.7-2.2-0.5-8.3-3.1-11.5 -1 0.4-1.5 1.2-1.5 2.3 -0.2 0.3-1.6-3.2-1.6-3.2 -0.5 1.3-0.7 2.6-0.7 4 -0.6-1.1-2-7-4-7 0.6 1.6 0.7 3.2 0.4 4.9 -0.3-1.3-1-2.2-2.2-2.7 -0.9 0.2 3.4 6 3.1 6.8 -1.4 0.4-2.8 0.3-4.2-0.3 -1.4 0 1.2 2.8 4.6 2.2 1-0.2-3 3.6-4.3 3.9 -1 0.3-4.9-4.9-7.2-2.8 -2.4 2.3 3.3 7.3 1.5 9.6 -2.8 3.7-6.4-1.3-7.7 0.6 0.6 0.8 1.2 1.6 1.8 2.5 -1.5 3.3-4.8-2.1-4.7 4.3 -1.1-0.4-2.2-0.7-3.3-1 -1.9 1.5 1.7 1.7 0.7 3.1 -0.1 0.1-4.7-1.5-4.4-0.4 0.1 0.6 10.8 3 9.7 5 0.2-0.5-5.4 0.6-6 0.5 0.7 0.7 1.4 1.4 2 2.2 0 3.3-5.3-2.3-5.6-2.1 -2.2 1.6 4.6-0.4-0.9 2.2 0.9 0.5 1.8 1 2.6 1.6 -4.1 2.7 4 3 3.2 4.4 -1.2 1.8-9.6-0.9-9.3-1.8 0.3 1.8 1 3.5 2.2 4.9 -0.7 0.3-1.4 0.6-2.1 0.7 -0.1 0.8 6.9 6 7.6 7.7 -0.6-1.7-7.5-0.5-6.4 0.6 -1.8-1.8-1-5.3-2.8-7.5 -1.5-1.8-4.5-0.4-4.1 0.1 -0.2-0.4 0.4-5.5-0.5-5.4 2.7-0.4-8.1-0.1-3.1 2.5 0.4 0.2-0.9 4-2.7 1.5 -2.1-2.9 0.7-3.8 0.4-6.5 -0.6-5.1 2.6-7.1-5.6-7.4 -1.2 0-2.9-1.1-3.8-1 -1.4 0.1-2.5 5.8-3.3 5.4 -6.7-2.5-3.1-9.8-4.9-11.6 -3-3-8.2 4.4-9.1-0.6 -0.6 0-15.6 4.9-14 0 0.2-0.5 4.5-5.4 4.8-5.7 -0.5 0-1.1 0.1-1.6 0.1 0.2 0.2 0.2-5.9-2.9-4.5 1.6-0.8 12.1 4.7 11.4-1.4 -0.4-3.5-13.2-4.9-9.4-8.9 -3.8 4-4.1 1.9-5.8-0.5 -0.3 0.3-4.5 2.4-4.7 2.2 0.1 0.1-0.3-3.3-0.3-4.6 0 1.1-3.1 2-3 1.5 0.2-1.2 2-6.2-0.7-6.6 -0.7-0.1-4.1 4-4.7 1.1 -0.6-3 8.2-4.3 9.1-6.5 3-7.3-8.5-2.7-8.2 1.2 0.8-1.2 0.9-2.2 0.1-3.1 -2 0.2-3.6 2.3-5.5 2.5 0.9 0.4 1.3 1.1 1.1 2 -2.7 0.2-1.1-4-5-3.9 1.9 0-2.5-2.4-1.7-2.1 0.9-1.9 6.2-0.8 7.4-2.6 1.9-2.8 1-1.9 2-4.6 -0.3 0.7-0.1-14.5 0.4-14.3 4 1.9 11.6-1.7 7.3-7.5 -1.6-2.1-8.1 0.6-8.3-0.5 0.6-0.6 0.8-1.3 0.5-2.1 -1 0.4-3.5 1.2-4.9 2 -2.2 1.3-3.3 5.1-2.4 4.3 -6 5.1-1.7-5.1-3.1-6.4 -3.1-3-3.7 3.5-5.4 3.7 -0.1 0-4.2-8-5.8-8.6 -1.7-0.7-4.2 0.9-1.7 3.1 -1.2-1.1-1.9-0.5-2.8 0.4 -0.5-1-0.3-1.9 0.4-2.8 -1.3-6.2-8.4 8-8 6.6 0-0.1-1.9 2-2.3 1.3 -3-5-4.1-4.4-10.8-3.5 -2.3 0.3-5.2 0.9-7.5 1.2 -1.8 0.2-3.6-1.1-3.4-1.2 -3 0.3-4.9 7.8-7.5 6.5 0.7-1.1-5.4-10.9-7.5-11.2 -0.6-0.1-7.2 6.5-8.4 4.6 0.6-1.2 1.5-1.9 2.9-1.9 -5.3-3.3-7.9 1.5-9 1.2 -2.6-0.8-5.5-8.5-7.1-6.2 0-0.7 0.1-1.3 0.4-1.9 0.1 0.5-7 3-7.7 3.1 -3.7 1.2-2.8 1.3-6.8 1.5 -0.8 0.1-3.5 0.8-4.1 0.8 -0.8 0-3.8-2-4.2-1.8 -3.6 1.7-5.9 3.4-4.8 8.2 0.2 0.7 3.6-2.2 3.7-1.8 0.1 0.7 3.8 8.2 5.3 5.9 -1.2 1.8-2.5 3.6-3.9 5.3 0.7-0.1 1.3-0.1 2 0.2 -0.4 0.7-0.7 1.5-1.2 2.2 0.9 1.4 2.2-0.8 2-0.9 0.6 0.5 0.8 1.1 0.8 1.9 -1.9-3.7 10.7-1.6 6.7 2.9 -6.8-8.1-5.6 12.5-6.6 13.2 -1.7-1.2-2.6-2.8-2.9-4.8 -3.8 5.3-8.9 5.3-14.2 4.3 0.1 0-4.7-2.6-3.9-2.2 -1.1-0.5-4.1 0.9-4.6 0.6 -3.7-2.2-0.5-8.3-3.1-11.5 -1 0.4-1.5 1.2-1.5 2.3 -0.2 0.3-1.6-3.2-1.6-3.2 -0.5 1.3-0.7 2.6-0.7 4 -0.6-1.1-2-7-4-7 0.6 1.6 0.7 3.2 0.4 4.9 -2.3-2.3-4-8.8-6.6-9.6 0.4 0.1-1.7-4.3-0.5-3 -3-3.1-3.1-6.4-3.4-10.1 -0.4-4.2 2.5-4.7-2.5-7.8 -1.9-1.2-4.1-0.9-4.8-0.2 -0.6 0.5 0.2 4.4-0.2 5.2 0.1-0.2-2.6-0.2-2.5-0.3 0.4 0.4 0.6 0.9 0.9 1.4 -2.9 1-7.3-0.4-8.5 0.1 -0.7 0.3-0.2 1.9 0.2 2 -1.6-0.5-2.5-1.6-2.8 0.4 0.5 0.4 1 0.7 1.7 0.9 -0.7 0.2-1.3 0.7-1.7 1.3 0.6 0.3 1.1 0.5 1.7 0.8 -0.2 0.6-10.9 0-11.1-0.4 0.4 0.1 0.8 0.3 1.1 0.6 -1.7 1.3-3.2-0.6-3.5-0.6 0.1 0-2.5 2.5-4.2 2.6 -0.3 0-4-2.9-4.4-3 -5.1-0.8-4.6 9-5.4 10.2 -0.7-0.4-1.5-0.5-2.4-0.4 0.2 0.8 0.4 1.7 0.5 2.5 -4.7 3.5-7.6-13.9-5.1-13.5 -1.6-0.2-2.5-2.3-2.8-5.7 0 0.1 2.1-0.3 1.5-0.8 -1.7-1.5-8.6-4.2-9.8-3.5 -2.5 1.4-1.8 4.7-1.7 7.4 0.9 0.1 1.8 0 2.7-0.2 -0.5 0.6-0.8 1.3-1.1 2 -2.2-1.7-1.2 1-3.2 0.7 1.4-0.1-1.4-3.3-1.3-3.2 -0.1 0.6-0.3 1.1-0.5 1.7 -0.5-1-0.3-2 0.4-2.9 -0.7 0-1.4-0.2-2.1-0.4 0.5-1.2 1-2.5 1.6-3.7 0.2 0.4-2.9-0.9-2.8-0.8 0 0.1 3.5-1.1 3.1-3.4 -0.4 0.2-5.4-1.7-5.5-0.6 0.5 0.7 1.1 1 2 0.7 0.1 0.4-4 2.3-3.6 2.3 -0.9 0-1.9-2.1-1.9-2.1v342.9c0 0 6.2-1 5.8-0.3 -0.9 0.7-1.6 1.6-2 2.7 -0.5 3.4 5.5-4.7 4.1-3.4 3.6 8 3.6 0.9 9.5 0.9 0.3-0.3-0.8-4.7-0.9-5.2 -0.8-3.4 5.3 7.6 3.3 4.1 0.6 1.1-1.4 3.5-1.4 4.2 -0.1 3.4 4.3-0.3 4.8-1.9 -0.6-0.1 0.5 15.9 0.4 17.7 -6.5-2.6-13.1-4.9-19.9-6.7 7.4 3.6 18.2 3.8 20.6 13.3 2.3 9-3.7 20.5-5.2 29.3 -1.7-2.1-3.4-4.1-5.1-6.1 6.6 8.4 4.9 15.3 3.9 25.3 -4.6-3.2-8.8-7.2-13.8-9.8 2.2 3.1 4.8 5.5 0.1 7.6 20.6-8.9 7.7 44.2 6.8 51.7 -2.3 19.6-4.8 39.4-6 59.1 -1.1 18.1-1.1 36.3-1.7 54.5C2 742.1 0 781.4 0 820.7c0 13 0 47.1 0 47.1l1680 0.1v-83.2c0 0-13-7.3-16.9-8.9 -3.2-1.3-6.9-2.1-9.9-3.8 -2.7-1.5-4.3-3.6-6.1-4.7 -3.2-2-5.3-4-9.3-4.2 -2.7-0.1-3.8 2.4-6.3 2.3 -7.6-0.3-6.1-1.6-6.3-9.1 -0.2-7.1-0.5-14.2-0.7-21.3 -1.1-27.9-1.7-55.9-1.5-83.8 0.1-13.5 0.8-27.1 0.6-40.6 -0.2-7.8-2.9-19.9 5.2-25 -9.8 1.7-5.4-6.7-5.2-14.4 0.2-7.2 0.3-14.4 0.6-21.5 8.9 1.8 17.7 3.8 26.6 5.6 -6.3-2.1-14.3-2.1-20-5.7 -7.7-4.8-5.8-10.6-6.7-18.9 8.2 0.6 16.4 1.2 24.6 1.8 -6.3-1-19.6 0.9-23.1-6.1 -5.4-11 16.8-9 22.3-9.8 -7.6 0.4-15.2 0.6-22.8 1 0-7.9 0-15.7 0-23.6 9.5 1.8 18.9 3.8 28.4 5.6 -8.1-2.7-24.2-4.3-27.5-13.1 -4.2-11.1 10.5-18.9 17.1-24.8 -5.7 3.8-11.3 7.7-17.1 11.3 0-5.6-3.9-22 0.9-26 2.9-2.4 7.8-0.3 10.3 2.3 2 2 0.5 5.4 0.7 5.6 1 1 3.6-0.3 4 0.3 0.5 0.9 3.5 4.9 4.1 5.6 0.5 0.6 0.9 4.3 1.3 5 1 1.7 6.7 1.6 5.4 5.2 2.7-6.7 7.5 5.1 7.9 5 0.4-0.8 4.4-1.5 3.2-2.6 0.7 0 5.5 3 6.4 1.3 1.6-3-8.6-5.4-7.4-2.5 -3.5-2.4 5.1-1 3.6-4 -1.9 0.6 6.5-2.2 4.9-2.3 -2.4-1.7-2.4-2.6 0-2.7 -0.6-0.1-5.2 0.7-5.6 1.3 3.1-3.4-4-2.1-4.6-2.5 2.1 1.2-5-2.1-3.7-2.4 0.8 0 4.5 1.1 5 1.6 -0.1-0.6-0.9-4.2-0.8-4.4 1.2 0.2 2.3 0.5 3.4 0.8 -0.9 2.8-5.2-7.8-4.4-7 -1.4-1.5-4-1.4-5.6-2.3 -3.4-1.9 0.9-2.8-3.4-3.5 -0.4-0.1-4.2 6.9-6 2.2 -1.3-3.5 2.4-0.5-0.4-5 -0.2-0.3-3.7 4.4-4.7 0.1 -0.3-1.6 5.4-2.2 6.3-2.7 0.4-0.2-2.4-3.6-0.4-3.6 1.6 2 6.1 3.1 9.3 3.7 0.8 0.1 3.5 2.6 4.8 3.2 1 0.4 3.2-2.2 5.2-0.9 2.2 1.4 1.9 4.9 5.1 6.9 0.4 0.2 9.5 1.4 9.5 1.4v-29.9c0 0-9.1 0.2-9.1 3.9 -1.4-2.9-4.2-3.5-1.4-7.1 -1.8-0.2-3.3 0.3-4.6 1.4 -6.9-6.9 3.8-11 7.2-9.2 0.8 0.4 6.9 7.3 5.6 8 -1.2-0.3-3.7 0-3.7 2.2 6.8-2.8 6-10.5 6-10.5s-7.6-10.6-8.1-12.7c-0.3 1-0.9 1.9-1.7 2.6 -3.9 1.7 1.7-7.1 2.4-7.7 2.2-1.8 7.4-2.2 7.4-2.2v-22.6c0 0-4.5 7.6-5.6 6.7 -0.8-0.8 0.1-5.2-0.1-6.2 2.4-1.6 1.3 3 1.7 3.4 -1.5-2.4 3.1-5.3-1.7-4.8 -1.2-5.5 5.7-9.6 5.7-9.6s-2.6-6.9-3.6-6.7c-2.8 0.4 1.1 7.9 0.4 7.6 -3.9-1.9-2.4-14.2-2.4-14.2l5.6-23.9v-38.2c0 0-4.4-0.7-5.4-1.7 -2.3-2.4 2.6-11.3 2.5-13.2 -0.3-8.1-2.5-16.6-2.4-25.7C1675.6 239.8 1676.2 240.2 1676.5 241.1 1676.5 240.7 1676.5 239.6 1676.5 241.1zM1618 108.3c-0.1-0.1-0.1-0.2-0.2-0.3C1618 108 1618.2 108.1 1618 108.3zM569.2 444.1c0 0.5-0.3 0.5-0.6 0.8C568.4 444.7 568.7 444.4 569.2 444.1zM552.3 433.1c0.9 1 1.7 2 2.6 2.9C551.3 436.4 550.4 435.4 552.3 433.1 553 434.3 551.8 433.7 552.3 433.1zM544.3 341.5c0.6 0.5 1.3 0.8 2 1C545.2 343.4 544.1 341.6 544.3 341.5zM508.9 443.2c2.7 0.1 18 8.9 15.5 13 -2.5 4.1-16.9-5-14.4-8.7 0.7-0.9 5.2 4 5 4.1 2.3-2.1-3.7-1.9-0.3-3.3C512.9 448.1 508.6 443.2 508.9 443.2 512 443.3 506.3 443.1 508.9 443.2zM508.2 443.2c-0.1 0-0.2 0-0.3 0C507.9 443.2 508 443.2 508.2 443.2zM523.4 405.2c0.4 1.5-3.9 1.2-2 3.3 0.8-0.4 1.6-0.8 2.3-1.1 -0.1 1.5 0.4 2.9 1.3 4.1 0.8-0.3 2.2-2.5 2.5-3.7 3.8 6.3 3.9-0.9 5.8-0.8 1.1 0.5 6.3 10.1 4.7 11.2 -0.5 0.2-12.1-5.4-12.7-5.6 -2.3-0.8-11.3-1.9-11.8-5.2 1.2-1.7 2.9-2.3 5.2-1.9 -0.1-1-0.5-1.9-1.2-2.7 0.9-0.1 1.8 0.1 2.6 0.6 -1.7-1.6-1.5-2.8 0.7-3.6C520.4 402.9 522.4 404.3 523.4 405.2 523.8 406.4 522.9 404.7 523.4 405.2zM507.1 366c0.4-0.9 12-6.8 10.3-1.2 0.4-0.7 2.3-4.3 2.6-4.5 4.2-1.9-10.2 12.2-10 8.2 0.6 0.5 1.2 0.9 1.9 1.2C512.2 370.6 506.4 368.2 507.1 366 507.2 365.8 506.7 367.2 507.1 366zM507.1 383c1.1-0.1 1.9 0.4 2.3 1.4 -0.7 0 12.9-4.2 9.2 3.8 -0.8-0.4-1.7-0.6-2.6-0.6 0.3 1.7 1.3 2.7 3 3 -1 0.8-2 1.4-3.2 1.7 -0.4 0 1-3.3-1.2-3.2 0 0-2.5 4.2-3.1 2.6 -1.7-4.9 0.7-2.5-3.2-2.1 0.5 0-2.3-6.1-3-4.4 0.2 0.8 0 1.5-0.5 2.1 -0.2-0.1-2.5-2.5-2.6-0.9C502.2 382.2 504.6 383.9 507.1 383 509.4 382.3 505 383.7 507.1 383zM502.6 451.3c2.5-1.2 13.7 7.1 11.2 9.4 0.5-0.3 1-0.6 1.5-0.8 -4.6 2.9-0.7 0.1-0.8 2.1 -1.4-0.5-2.8-0.8-4.3-1 -0.7 1.2-1.1 2.5-1.3 3.9C507.5 465.5 499.2 453 502.6 451.3 504.9 450.3 499.2 453 502.6 451.3zM448.9 249.8c-0.1 0.1-0.2 0.1-0.2 0.2C448.7 250 448.8 249.9 448.9 249.8zM7.7 127.4c-0.1-0.1-0.1-0.2-0.2-0.3C7.7 127.1 7.9 127.2 7.7 127.4zM27.6 785.5c0.1 10.8 3.8 28.7-4.1 37.4 -2.7 2.9-11.3 7.9-15.5 4.4 -1.8-1.4 0.5-16 0.6-19.4 1-31.2 2.2-62.4 3.9-93.6 3.3-61.1 7.3-122.4 16.4-182.9C23 616 27.1 700.8 27.6 785.5 27.6 795.3 27.1 700.7 27.6 785.5zM109.1 487.5c1.3 2.4-3.7 4.7-2.7 6.5C95.6 488.6 108.9 487.2 109.1 487.5zM89.2 463.7c10.7 0 6.4 10.6 6 10.4 -0.7-0.4 19.9-4.3 12.8 6 0.3-5.6-6.7 12.9-9.3 2.1 -0.1-0.4 2.2 0.8 4.1-0.6 3.8-2.7-9.1-3.6-8.8-3.3 2-0.7-2.3-3.2-3.8-6.6C90.3 471.8 93.9 463 89.2 463.7 91.2 463.7 88.2 463.8 89.2 463.7zM103.5 531.5c15 8 11.1 14.2 11.1 29.4 -10.9-4.2-21.8-8.6-32.8-12.8 8.7 4.2 21.5 6.8 28.6 13.6 6.5 6.3 4.2 14.3 4.2 22.7 -2.7-2-5.4-3.9-8.2-5.8 2.7 2.7 5.5 5.5 8.2 8.2 -13.7-5.7-27.6-10.6-42.3-12.8 10.7 3 27.3 5.6 36.1 12.3 7.7 5.9 4.8 14 4.8 22.6 -6.3-3.6-12.6-7.1-18.8-10.6 8.8 6.5 16.4 10.1 19 21.5 2.6 11.5 0.5 24.2 0.9 35.8 -5.8-4-11.7-7.7-17.5-11.7 5.2 4.8 13.5 8.4 16.4 15.3 3 7.1-0.8 16.1-1.1 23.5 -7.1-5.7-14-11.6-21-17.5 6.8 7.2 17.3 13.1 20.8 22.8 3.5 9.7-0.1 23.6-0.4 33.6 -0.9 29.9-1.4 59.9-2.5 89.8 -10.8-1.8-31.3-7.7-40.4 0.6 -3.9 3.5-0.8 7.2-7.5 8.4 -3.4 0.6-17.6-4.8-19.9-7.2 -7.5-7.8-2.7-45-2.8-57.2C38.3 735.9 38 716 37.8 696c-0.5-37.6-1.7-75.2-1.5-112.7 0.1-18.2 0.9-36.5 1.5-54.7 0.3-9.1 0.4-18.2 0.4-27.3 0-6.2-2.4-16.2 0.8-21.8 -1.3 2.3 16.8 9 15.1 13.1 -0.2-0.7-2.8-7.1-2.4-8 0.3-0.8 3 2.1 3.5 1.2 -0.8 0-2.7-3.6-3.4-4.1 2.4-1.4 9.2 1.2 10.5-0.1 2-2-2.8-6.9-1.4-8.5 -4.3 1.3-4.6 2.4-2.9-2.2 3.9 1.7 7.9 1 7.9-4.9 1.2 0.8 4.9 7.4 4 7.1 0.2 0.2 5.3-2.8 5.5-3.1 -1.9-0.1-3.2-1-4-2.7 0.3-1.2 7.1-7.5 8.4-5.3 -1.7-2.8-2.1 10.5-1.5 8.2 0.5-0.7 6.6-6.4 6.6-3.8 0 1.7-4.1 1.2-3.5 3.1 1.4 0.4 2.7 0.4 4-0.2 -1.5 1.7-0.4 3.4-0.3 3.2 -1.5 2.1-3.6 0.4-5 1.5 -2.1 1.5-4.2-0.6-4.7-0.4 -2.6 0.8 4.1 8 6.6 7.3 -1.1-1.9-0.4-3.1 1.9-3.7 1.2 2.3 0.2 3.2 2.9 3.2 -0.4 1.9-1.5 3.4-3.1 4.4 1.9 0.9 10.9-2 4.4-2.7 1.6-0.8 7.3 2.8 7.3 5.3 0 1.3-7.1 0.4-8 0.3 6.5 1.3 18.6 6.5 16.7 13.3 -0.2 0.6 3.4 0.6 0.2 2.4 -2.8 1.6-5.1-0.3-7.8-0.8 -10.1-2-20.2-5-30.3-7.3 13.1 3.3 31.8 5.5 43.2 12.9 9.8 6.4 6 16.8 6 26.9 -16.6-7-31.2-18-46.7-27C80.6 515.6 91.2 524.9 103.5 531.5zM109.3 497.1c0.4-1.3 3.1-7.3 5.7-5.2 -2.3 2.6 1.3 7.5 2.1 12.3C114.5 501.7 111.9 499.4 109.3 497.1 109.8 495.5 112 499.3 109.3 497.1zM125.9 497.5c1.3-1 2.6-0.6 4 1.1 -0.1-0.7-0.5-1.3-1.2-1.6 1.2 0 2.3 0.5 3.1 1.4 0.2-1.3 0.4-2.5 0.7-3.8 0 2.9 7.4 0.8 8.6 1.9 -4-3.9-1.6-0.5-2.9-5.8 0.5 2 4.5 0 6.2 2.8 1.9 3-0.3 9.5-0.6 12.7C140.1 505.3 124.5 502.3 125.9 497.5 126.7 498.3 125.4 499.3 125.9 497.5zM126.1 502c3.4 1.1 25.3 8.3 12.5 5.6 2.2 1 3.8 2.6 5 4.7 -0.1-0.2-0.1-0.4-0.2-0.5 3.7 11.2 0.7 23.6 0.7 35 -5.3-0.7-15.9-0.2-18.1-6.3 -3.1-8.8 10.4-15.3 15.4-19.6 -5.5 3.9-10.9 7.8-16.4 11.7C125.7 522.3 126.1 512.1 126.1 502 129.6 503 126.1 512.1 126.1 502zM141.5 565.3c8.4 11.6 2 38.9 1.6 52.2 -0.6 23.3-0.8 46.7-0.7 70 0.1 22.4 0.3 44.9 0.8 67.3 0.3 11.9 0.6 23.8 0.9 35.8 0.3 10.2 4.4 24.4-10.7 23.1 -17.9-1.6-10-38.9-9.8-51.7 0.3-23.9 0.6-47.8 0.6-71.7 0.1-47.5-0.3-95.1 1.9-142.6 6.5 0.8 15.2-0.9 19 5.7C147.4 557.1 147.2 566.7 141.5 565.3 147.4 573.3 146.7 566.6 141.5 565.3zM163.8 459.2c0.1 0.9 0.2 1.7 0.3 2.6 1.4 0.8 4.3-5.4 5.6-5.8 0.6-0.2 6.8 2.3 5.6 3 0.5-0.3-2.7-0.8-3-0.4 2.1 1.8 1.3 2.2-0.4 3 5.7 3.9-1.2 1.8-2.7 3 1.1-0.3 1.7 0.1 2 1.1 -1.3 0.3-13.6 2.3-10.7-4.3 -0.8 1-1.6 0.8-2.4-0.6C160.1 460.3 161.9 459.7 163.8 459.2 163.8 462.4 161.9 459.8 163.8 459.2zM166 814.4c-16.5-6-11.9-25.6-12.4-39.9 -0.8-24.1-2-48.2-2.7-72.3 -0.7-23.6-0.3-47 0.1-70.6 0.2-8.7-0.6-17.4-0.5-26.1 0.1-11.3 4-12.3 10-20.5 -3.2 1.9-6.4 3.7-9.7 5.5 0-11.6-2.3-18.3 8.6-25.1 -2.4 1-4.9 2-7.3 2.9 -1-16-2.8-12.9 9.9-21.4 -11 3.1-9.7-2.2-10.1-11.6 -0.2-3.4-4.6-27.3 2.2-26.4 -5.4-1.5-4.2-11.9-3.8-15.9 1.3 2.9 0.6-4.2 3.6-4.7 -0.6 0.1 1.8 2.3 3.1 2.2 1.2 0-0.5-3.6 1.8-3.3 1.6 0.2 0.9 7.6 4.7 3.8 0.2-1.2-0.2-2.3-1.1-3.2 0.8 2.2-3.7-3-1.9-3.8 2.8-1.2 3.7 3.8 5.7 3.6 3.2-0.2-0.5-3.3-0.5-4.1 0-1.6 3.2 0.9 3.3 0.9 4.4-2.2 3.2-1.9 10.2-2.4 -2.6-0.5-0.9-4.6-1.2-4.9 -1.9-0.6-3.7-0.3-5.4 0.7 0-1.6 3.8-4.3 4.8-5.3 -1.8-0.4-3.5-0.5-5.3-0.4 2 0 1.4-7.5 4.1-8.7 -0.1 1.1-0.6 2.2-1.2 3.1 0.1-0.6 7.4-1.8 7.2-2.1 -0.6 2.1-1.3 4.1-2.2 6.1 0.6-0.7 3.1-1.7 0.4 1.1 7-0.5-1 1.2 2.7 2.7 1.4 0.3 10-7.7 10.4-9 0.5 7.5 0.7 15.1 0.7 22.7 -4.8-3.7-9.6-7.4-14.4-11.2 6.3 6.3 25.5 21.7 9.4 28.6 7.7-1.6 5.9 0.2 6.3 7.7 0.3 5 0.6 9.9 0.8 14.9 -2-1.6-4.1-3.1-6.2-4.6 12.7 12.7 8.7 39.2 9.6 55.5 1.6 27.4 2.1 54.8 2.5 82.2 0.7 53.2 0.6 106.4 0.7 159.7C190.9 819 177.8 818.7 166 814.4 163.1 813.4 175.9 818 166 814.4zM202.3 503.7c-1.3-3-0.6-4.1 2-3.3 -1.6-1-2.3-2.4-2.2-4.3 5.6 4.4 7.8 4.9 7.8 12.2C207.4 506.6 204.9 505.1 202.3 503.7 201.4 500.3 204.9 505.1 202.3 503.7zM209.4 523c-0.9 14.4-1.4 28.7-2.3 43.1 -1.2-15.2-5.8-35.5-3.4-50.6 0.4-2.7-0.3-8.7 4.6-6.1C212.4 511.5 209.6 519.6 209.4 523 208.5 537.4 209.6 519.8 209.4 523zM211.5 493c-5.3 2.4 0.1 6.4-7.4 0.4 3.5-0.4 5.1-1.9 8-3.5C211.9 490.9 211.8 492 211.5 493 209.9 493.8 211.6 493 211.5 493zM212.8 480.8c0.5 0-6.3 1.1-4.9-0.2 -0.3 0.3-1 6.6 0.1 6.6 -1-0.6-2-1-3-1.4 -3 3 6 2.4-2.1 2.3 1.9 0.8 1.7 1.5-0.7 2.3 -0.4-9.1-0.5-18.2-0.9-27.3 1.9 0.3 13.2 4 11 6.9C203.7 465.4 212.7 481.3 212.8 480.8 211 480.8 212.8 479.9 212.8 480.8zM345.6 538.1c-3.7-2-7.4-4-11.1-6 12.6 9.9 11.1 15.3 11.1 30.4 -3.9-3.1-8.4-5.5-7.3-11.2 0.4-2 7.7-3.8 5.9-6.3 -1.3-1.9-8.6 7.2-9.5 7.5 -0.1-1.1-0.4-2.1-1.1-3 -3.4 1.4 1.1 1.7-0.3 3.5 -0.7 1.1-2.1-1.8-2.4-1.4 -0.9 4-6.2 1.2-6.2 1.4 0.2 1.4 0.3 2.7 0.3 4.1 -4.7 0.8 1.9-8.8 2.6-8 -1.7-5.2-0.5-17.7 4.6-22.4C341.1 518.4 345.6 529.7 345.6 538.1 341.8 536.2 345.6 530.9 345.6 538.1zM335.7 475.1c-0.8-0.5-1.5-0.5-2.2 0.2 -0.1 0.1 4.1 3.5 2.6 4.4 -2.5 1.3-8.4-2.5-2.4 4.9 -1.1 0.6-5.1 3.6-3.3 5.4 1.5 1.5 3-3.5 4.6-3 -0.2 0.8-0.3 1.5-0.3 2.3 0.2 1.1 4.7-1.7 5.2-1.5 -0.8 0.2-1.3 0.8-1.4 1.6 1 0.1 1.7-0.2 2.2-1.1 3.1 0.9 5.3 14.3-6.8 7.6 4.8 4.1 8 8 6.1 14.6 -0.3-0.8-6-5.7-6-5.8 -1.8 2.1 2.3 8.2-1.3 8.8 -0.4-0.7-0.7-6.2-1.9-6.2 -0.9 3.3-0.5-0.6-2.3-0.4 -2.5 0.3 5.4 4.4 0.1 4 0.6 1.2 1.3 2.4 2.2 3.5 0-1.4-5.8-7.5-6.8-4.6 -1.3 0-0.2-4.1 0.5-4.1 -0.8 0.4 2.6 4.9 3.3 3.5 1.7-1.7-4.8-6.3-3-8.7 0.6 0.1 4-0.2 3-2.2 -0.7-2.1-1.3-2.3-1.2-6.5 0.2-5.4 4.3-13.6 5.8-19.1C333.6 473.4 334.7 474.2 335.7 475.1 335 474.3 335.6 474.8 335.7 475.1zM348.3 663.4c0 55.2-3.3 110.3-2.8 165.5 0 2.4 1.8 13.3 0.1 15.4 -1.5 1.8-14.8 1.3-18 1.2 -11.3-0.6-21.1-5.6-31.6-9.4 -22.3-7.9-46.5-1.3-68.3-9 -10.9-3.9-10.1-7.5-10.1-18.7 0-13.4 0-26.7 0.1-40.1 0.1-29.1 0.3-58.2 0.5-87.3 0.3-55.5-3.2-111.5-0.4-166.9 3.4 1.5 6.7 3 10.1 4.4 -6.3-4-12.4-6.2-6.9-14.4 -4.6 3.9-3 0.5-3-3 19 6.3 5.4 22.2 17 28 -1.3-0.7 9.7-4.7 9.6-4.6 0.7 1.8 2.7 2.6 3.2 1.8 0-0.5 5.9 4.1 5.7 4.1 0.2-0.9 0.2-1.9 0.2-2.8 2.4 4.1 7.1 0.7 8 1.6 0.5 1.5-4.5-2.2-4.4-2.1 -0.2-0.4 6.7 1.3 7.6 1.8 2 0-0.1-2.7-0.4-2.8 -0.3-0.7 5.1-2.6 5-3.9 -2.6 0.7-6.8 1.6-10.3 1.1 0.3-1.6 0.6-3.1 0.8-4.7 0.3 0.5-7-0.3-6.1-1.2 2 0.1 1.4-1.2 1.5-2.8 -2.1 0.5-4.3 0.7-6.5 0.6 2.5-0.9-7.3-6.4-7.8-7.1 -0.5 1.3-1.2 2.6-2.1 3.7 1.8-0.2-4.7-2.6-4.6-2.5 -3-1.1-2.4-1.3-6.2-3.5 -1.9-1.1-9.4-3.9-10.3-6.1 -0.2-0.5 3.2-11 1.4-10.6 3.1-2.7 8.4-1.3 11.9-0.9 -3.9-1.1-7.8-1.6-11.9-1.4 0.5-2 6.9-4.4 7.3-6.6 -0.2 0.9-0.4 8.1 3.2 4.9 -2 1.8 1.8-8 1.6-6.9 -0.4 1.3-0.5 2.6-0.5 3.9 3.4-2.1 2.5 1.4 4.6 2.2 1.3-0.6 2.1-1.7 2.3-3.3 0.4 0.4 1.6 3.9 2.8 2.9 0.4-1.3-0.1-2.1-1.4-2.4 2.6 1.3 9.2-4.2 10.3-5.4 -0.9 1 3.4-5.2 2.1-4.4 0.1-0.1 4.4-3.3 4.3-3.2 0.1 1.1-0.3 1.9-1.2 2.5 -0.4 1.6 7.3 0.6 7.7 0.6 0.1 0-3.2 2.7-0.5 4 0.7 0.3 2.4-4.1 2.6-4.4 5.5 9.9 1.3-0.2 5.6 0.7 1.2 0.3 9.7 3.8 7.4 8.3 -1.3 2.3-4-3.2-4.3-3.5 1.3 2.2-3.6 1-3.5 0.8 0.1 0.9 0.5 1.7 1.1 2.4 0.5-0.2-7.5 0.2-6.8-0.5 -2.7 2 8.3 7.6 4.2 9.9 -1.4 0.8-2.4-2.7-3.4-2.3 0.1 1.1 0.3 2.2 0.8 3.3 -0.3-0.3-4.1-4.6-4.3-4.3 -0.5-0.4 2.7 9.6 5.7 8.4 -0.9 0-6.5-3.3-6.6-0.2 -0.1 3.4 9 7.9 10.6 8.4 4.9 1.4 7.2-4.1 11.1-2.4 0.2-2.2 0.7-4.3 1.6-6.3 -1.3 1.2 1.7 2.5 1.7 2.8 1.5 0.5 1.3-4.8 2.2-5 0-0.5 5.6 6.6 3.2 5.7 6.3 2.4 0.9-2 6.3-3.5 -3.1 0.9 8.5-0.2 5.2-0.6 -0.2 0.8-0.1 1.5 0.3 2.2 2.3-2.3 1.8-1.2 5.2 1.6 0.6-1.1 2.1-7.7 4.6-6 -1.5-1-3.1-1.9-4.8-2.7 1.7 0.6 2.2 0.1 1.8-0.9 1.9-1.9 4 4.7 6.4 2.7 3.6-3-3-4.3-1.6-6.6 2.7-4.4 2.7 2.4 3.9 1.9 3.4-1.4 0.7-1.5 2.7-3.5 1.7-1.7 7.4-0.5 8.7-1.9 2.5 2.5-4.3 13.1-6.5 14.4 -3 1.8-4.7 0.4-7.6 1.4 -3.2 1.1-3.7 2.3-6.6 3.7 -0.3-0.8-0.9-1.4-1.6-1.9 -0.1 6.5-2.5-5.2-4.3 2.7 -0.4 0.3-3.8-3-5.2-1.6 0 2.4 3.4 3.8-0.8 2.7 -0.8 2.2 5.9 3.3 6.7 5.1 -0.6-1.4-3.4 4-3.4 4 -0.3-1-0.8-1.9-1.7-2.5 -0.9 6.5-2.1-0.3-4.7 3.3 -1.9 2.5 4 1.8 3.6 5.2 -3.2-1.1-7.6-5.3-11.4-4.1 0.5 1 0.6 2 0.3 3 -2.6-1.3-2.9 0.5-2.1 2.3 -3-5.4-0.6 8.6 5.3 3.7 -3.7 3.8 5 0.6 4.7 0.5 0 0 0.3 4.4 0.9 3.8 0.3-1.1 0.5-2.2 0.6-3.3 -0.3 0.6 3.9 5.8 2.7 6.3 1.4-0.6 7.3-7.9 5.7-7.9 0.6 0.8 1 1.7 1.1 2.7 0.8 0.4 5.8-4 6.8-4.6 1 1.3-3.4 2.4-2.7 3.8 3.2 0.3-1.1 1.6 1.4 3.3 1.5-0.7 2.8-1.7 3.8-3 -0.6 0.3-1.3 6.1-0.4 6.3 -1.6-0.4 8.8-7.8 8.3-6.6 0-1.5-5.2 1.2-3.8-2.7 0-0.2 5.1 0.6 5.4 0 0.7-1.2-3.6-2.4-3.8-3.3 2.5 0 6.6 1.5 2.7-2.4 0.9 0 1.7 0.3 2.4 0.8 0.5-0.2-2.8-4.5-2.8-4.8 -0.1 1.5 5.6 5.6 4.5 9.1 -0.6 1.8 4.6 2.3 4.6 2.9 0.3 2.9-0.6 4.5-1.4 7.3 -1.2 4.7-3.9 13.5-8.1 16.2 -1.8 1.1-5-1.3-5.6-1 -1.9 0.7-3.9 2.2-5.9 2.9 -0.7 0.2-8.9 3.8-6.4 5.4 -0.9-0.7-1.9-1.1-2.9-1.1 -2.3 8.4 12.8 5.2 13.9 4.7 1.9 1.1 3.8 2.2 5.7 3.3 -1.7-0.5-3.4-0.9-5.2-1.4 -0.4 1.9-1.3 3.5-2.7 4.9 -2 1.3-7.1-2.1-2.2 3.5 -0.9-0.3-3.8-5.1-5.2-4.1 1.8 6-6.5 2.2-6.5 1.1 -3.1 3.1 4.4 5.6 5.9 6.4 4.6 2.6-1.1 0.1 6 1.5 2.8 0.5 12.9-0.2 12.9 0.5 -0.7 0.9-1.6 1.7-2.7 2.2 0.8 0.7 1.7 1 2.7 0.8 -0.2 1.6-0.3 3.3-0.3 4.9 5.4-2.6-1.2-5.1 1.6-7.3 2 3.9 4.8 1.4 4.6-1.4 0.3 0.2 1 3.2 1.7 2.5 2.7-2.4 13.3-3 13.3-10.4 4.4 3.8 4.3 18.4-4.1 16.2 7.2 2.9 5.5 9.1 5.5 15.3 -4.4-3-8.8-6-13-9.2 5.6 5.2 11.4 8.5 13.9 16.2 1 2.9 1.3 6.8 1.1 9.8 -0.5 5.1 3.2 9.6-3.8 4.4C351.9 630.7 348.3 648.1 348.3 663.4zM247.9 514.5c0.2 0.2 0.3 0.4 0.5 0.5C247.7 514.9 247.4 514.7 247.9 514.5zM373.3 455.3c0.2 0.9 0.5 1.7 1 2.4 -0.4-0.2 5.1-6.7 5.5-6.8 -0.4 1.4-1 2.6-2 3.7 0.5-2.2 7.1-3.5 8.7-2.5 -3.8 0.4 3.5 1.2 3.2 1 -3.6 0 2.2 1.8 2.4 1.2 -0.1 0.3-11.1 2.1-11.2 2 -3.1 3.1 1.3 4.7 0.5 7.9 -3-0.2-10.6-5.7-10.6-9.2C371.6 455.4 372.4 455.5 373.3 455.3 373.6 455.5 372.5 454.7 373.3 455.3zM376.3 468.2c-0.1-0.3-2.4-3.3-2.7-3.3C376.3 464 377.2 468.2 376.3 468.2zM369.1 457.7c2.3 1.4 4.5 5 4.6 4.9C370.1 464.7 365.6 461.2 369.1 457.7 370 458.2 368.9 457.8 369.1 457.7zM388.4 848.3c-7.6-1.6-23.4 0.9-29.2-4.7 -6-5.8-2.2-24.8-2.2-33.4 0.1-26.1 0.2-52.2 0.1-78.2 -0.1-25.3-0.4-50.6-0.5-75.9 -0.1-11.7 0.3-23.4-0.3-35 -0.4-8.3-5.2-22.8 3.6-28.4 -8.1 1.2-5.5-3.7-5.9-11.4 -0.3-6.2-0.4-12.5-0.6-18.7 -0.3-12.5-0.4-24.9-1.2-37.4 4.8 2.9 3.7-4.1 4.2-4 3.2-0.7 6.6 0.2 8.9-0.4 -1.3-0.6-1.2-1.1 0.4-1.5 0.9 1 1.4 2.2 1.4 3.7 1.7-1 3.7-0.7 2.2-4 0.9 0.5 9.2 8.7 9.6 7.6 0.1-0.3-0.8-10-1-10 0.7 0.8 1.5 1.1 2.5 0.7 -1.1-0.5-13-9.2-13.6-10.1 1.2 0.3 23.4 4.1 23.5 3.7 0.4-1.7-2.7-0.8-1.9-2.9 0.5-1.4 4.9 2.3 3.9-2 -0.3-1.1-3.1-1.9-3.4-3.2 -0.1-0.2-2.9-8-2-7 2 1 4.1 1.3 6.2 0.8 0.3 1.1 0 2-0.8 2.7 0.8-1-4.2-2.1-4.3-0.3 -0.3 7.5 11.6-2.9 10.7-2.7 0.3 2.2-1.9 6.4-1 7.3 4.7 1.1 3.2 12.9 3.5 18.9 -2.3-1.8-4.6-3.5-6.9-5.1 15.1 15.1 10.1 49.4 11.1 68.8 1.5 28.7 2 57.5 2.4 86.2 0.8 59.2 0.6 118.4 0.8 177.5C402.1 850 395.1 849.8 388.4 848.3 381.4 846.8 395.3 849.8 388.4 848.3zM408.8 496.2c3-1.4 3.5-2.7 1.3-3.8 0.6 0.2 1.3 0.5 1.9 0.7 -1.3-0.3-2.3-1.1-2.8-2.4 0.2-0.3 4.8 1.6 5.1 2.1 3.2 5.8 2.1-11.8 2.1 7.9C413.8 499.2 411.3 497.7 408.8 496.2 409.5 495.2 411.3 497.6 408.8 496.2zM415.7 517.2c-1 16-1.6 32-2.6 47.9 -1.4-17.5-5.7-38.3-3.8-55.8 0.4-3.2-0.7-10.1 5.1-7.3C419.4 504.4 415.9 513.4 415.7 517.2 414.7 533.2 415.9 513.5 415.7 517.2zM491.7 495.4c0.1 0.9 0.7 6-0.8 6.4 -0.1-0.9-5.1-6.5-5.3-6.4 -1.9 2 1.9 7.9-1.6 8.4 -0.4-0.7-0.4-6-1.6-6.1 -1 3.2-0.5-0.6-2.2-0.5 -2.5 0.2 5 4.5 0 3.8 0.5 1.2 1.2 2.4 1.9 3.5 0.1-1.3-5.3-7.5-6.3-4.7 -1.3-0.1 0-3.9 0.7-3.9 -0.8 0.4 2.2 4.9 3 3.5 1.7-1.5-4.3-6.3-2.5-8.5 0.6 0.1 3.8 0 3-2 -0.8-2.8-1.2-2.1-0.5-7.1 0.7-4.5 3.8-12.9 6-17 8.2-15 5.8 1.9 7 2.4 -0.5-1.2-1.3-2.1-2.2-3 -2.6 1 1.2 2.9 1.1 4 -0.6 0.8-3.3-1.9-5-1.3 -0.1 0.1 3.8 3.6 2.3 4.3 -4.7 2.1-0.8-3.4-4.2 1.9 0.5-0.8-0.5 8.5-1.7 7.8 2.3 1.4 2.4-3.5 4.6-2.7 -0.4 0.9-0.4 1.8 0.2 2.7 -0.5-0.6 3.7-2 4.5-1.7 -0.8 0.2-1.3 0.7-1.4 1.5 0.9 0.2 1.6-0.2 2.1-0.9 3 1 4.4 13.9-6.9 7C488.6 489.5 491.1 491.3 491.7 495.4 491.8 496.3 491 490.9 491.7 495.4zM478.3 517c0.2-3.6-4.5 0.6-7.3 0.2 -1.3-0.2 2.5-5.2 2.4-5 0.1-1.5-5.1 0.9-3.5-2.8 0-0.2 4.9 0.8 5.2 0.2 0.7-1-3.4-2.6-3.5-3.3 2.4 0.1 6.2 1.7 2.7-2.2 0.9 0.1 1.6 0.4 2.3 0.9 0.2-0.1-2.6-5.1-1.9-5.1 2.4 0.1 8 15.6 7.7 16.2C482.4 516.1 478.5 517.1 478.3 517 478.3 516.3 479.1 517.4 478.3 517zM490.7 457.7c-16.2 8.5-22.9-11.3-7.8-14.2 -0.9 2.3-2.4 4.2-4.4 5.7 0.9-0.6 6-6.3 7-5.2 0.1 1.3-0.2 2.5-0.9 3.6 1.8-0.7 1.4-5.4 3.6-5.3 2.3-0.1 0 2.8 0.6 3.7 1 1.1 2.2-2.4 2.5-2.5 -0.8-0.1 4.2 2.1 4.2 1.5 -0.1 1.3-5.9 9.5-6 9.4 0-0.4 5.7-4.6 5.4-4.7C498.6 451.2 492.1 456.9 490.7 457.7 488.7 458.7 492.1 456.9 490.7 457.7zM496.7 411c-4.6-1.8 0.8 2.7-0.1 3.1 -1.3 0.4-3.2-3.3-4.9-1.8 -1.4 1.6-1.2 3.9-3.5 6.3 -1-0.4-1.2-5.3-3.4-3.3 -1.4 1.4 2.7 4.3 1.6 5 -0.1-1.1-0.7-1.8-1.9-2 0.6 0.1-3.5 3.5-4.6 3.5 -0.1-1.2-0.3-2.3-0.4-3.5 0 0-4.4 2.8-4.3 2.2 0 0 13.1-8 7.3-6.8C483.1 413.4 498.2 404 496.7 411 496.2 410.8 497.7 406.3 496.7 411zM496.1 385.4c-0.3-0.2-2.3-5.1-3.5-3.5 0.1 1.2 0.5 2.3 0.9 3.3 -0.5 1.3-4.9-3.2-5.1-3.4 -0.8 3.4-3.4-0.3-4.4-0.3 -0.5 1.2-0.6 2.4 0 3.7 -2-3.3-4.4-8.4 1.1-10.7 0.4 6.7 2.8 3.5 7.8 6 1.3 0.6 1.9-3.4 3.9 0.2C497.1 381.4 498 386.3 496.1 385.4 495.9 385.2 498.6 386.5 496.1 385.4zM483.5 396.2c6.2 1.5-1.2 3.7-1.2 4.5C481.3 401.3 483.8 396.9 483.5 396.2 484.7 396.5 483.7 396.6 483.5 396.2zM484 386.5C484.4 386.1 484.2 386.5 484 386.5 484.1 386.4 484.1 386.5 484 386.5zM485.1 374.5c1.4-0.6 2.2-0.8 2.1-0.5C487.1 374.8 485.5 375 485.1 374.5zM495.7 372.7c-1.3 0.2-1.7-2-2.5-3.3C495.4 370.9 497.2 372.5 495.7 372.7zM491.1 334.3c0.2-2.8 2.7 0.4 3.4 0 -2.7-1.4-4-0.7-3.8 2.2C490.2 335.8 490.4 335.1 491.1 334.3 491.1 334 491 335.2 491.1 334.3zM490.5 370.6c-0.2 2.5-1.5 3.3-4 2.5C487.9 372.2 489.2 371.4 490.5 370.6 490.5 371.5 489.2 371.5 490.5 370.6zM485.9 366.2c0.5 1.7-0.3 2-2.3 0.9 0.1 1.9 0 3.7-0.4 5.6 -4-0.6-3.5-1.9-5.6-5.7C480.4 366.4 483.1 366.2 485.9 366.2 486 366.8 483 366 485.9 366.2zM477.4 404.4C475.2 404.3 477 404 477.4 404.4 477.5 404.4 477.3 404.2 477.4 404.4zM471.4 408.8c0.5-0.4 3.2 1.1 2.3-1.3 1.5-0.3 1.9 2.3 3.6 1.9 0.3-0.1 4.4-3.1 3.3-3.1 -0.7 0 7.6 0.1 7.6 0.6 -1.9 1.2-12.5 10.5-15.7 8.8 0 0.1-1.3-4.8-4.4-0.6C468.1 413.8 470.4 409.7 471.4 408.8zM466.9 458.3c1 0 2 0.2 2.8 0.7 2.6-4.6-3.3-4.2 1.7-8.8 2.3 5.6 0.8 10.6-2.9 15.2 -2.2 2.8-8-2.5-2.5-0.6 0.7-0.6-1.9-4.6-0.6-5 0.7 0.9 1.5 1.2 2.6 0.9C467.7 459.9 467.3 459.1 466.9 458.3 467.6 457.5 467.3 459.1 466.9 458.3zM470.3 461.9C470.4 461.8 470.5 461.8 470.3 461.9L470.3 461.9zM460.3 445.7c2.2 0.9 2.6 1.5 3.1 4.1 0.5-0.6 0.7-1.3 0.6-2.1 1.1 0.2 1.7 0.8 1.9 1.9 -1.9 3.7-6.3-2-7.3-1.2C458.6 447.1 459.1 446.2 460.3 445.7 461.1 446 459.6 446.6 460.3 445.7zM429.6 489.7c0-0.2 4.6-1.9 6.1-1.2 0.2-2.1 0.8-4.1 1.8-6 -1.3 1.1 1.5 2.5 1.5 2.7 1.4 0.5 1.5-4.6 2.3-4.7 0-0.1 4.4 5.6 3.2 4.9 5.1 3.1 0.2-1 5.8-2.3 -3 0.7 8.1 0.2 5-0.3 -0.2 0.7-0.2 1.4 0.2 2.1 2.3-2.1 1.7-1.1 4.9 1.8 0.6-1.1 2.3-7.3 4.7-5.5 -1.4-1-2.9-1.9-4.5-2.8 1.6 0.6 2.1 0.2 1.8-0.7 1.9-1.7 3.8 4.8 6 2.9 3.1-2.7-2.6-4.4-1.2-6.4 2.1-3 3.7 3.4 5 3 2.7-0.9-0.2-3 1.4-4.2 2.3-1.7 6.8 0.1 8.4-1.5 2.6 2.9-5.2 13.1-7.8 14.4 -2.7 1.4-14.3 1.6-14.3 1.6 -0.4 6.3-2.2-5.1-4.3 2.4 -0.4 0.3-3.5-3-4.9-1.8 -0.1 2.3 3.1 3.8-0.9 2.6 -0.7 1.7 5.7 3.9 6.2 5.2 -0.5-1.4-3.4 3.7-3.4 3.7 -0.2-1-0.7-1.8-1.5-2.5 -0.5 2.5-3 3.4-5.2 4 -1.1 0.3 1.5 0.8-2.8 0.3 -4.4-0.6-12.7-6.3-16.6-10.2C427.7 491.1 428.8 490.6 429.6 489.7 429.6 490.1 429.2 490.4 429.6 489.7zM463.7 508.3C462.5 508.4 463.6 508 463.7 508.3 463.5 508.3 463.7 508.2 463.7 508.3zM449.5 503.6c-1.3 3.1-1.8-1.5-1.7-1.4C448.3 502.7 448.9 503.2 449.5 503.6 449.3 504.1 449.1 502.9 449.5 503.6zM488.9 702c-4.4 47.3-5.4 94.6-8.2 142 -0.1 2 0.2 16.9-1.1 18.2 -1.7 1.7-13.4-0.9-15.4-1.2 -8.8-1-17.8-1.7-26.6-3.4 -2.4-0.5-11.2-1.2-12.8-3.7 -1.5-2.4 0-16.2 0-19.1 0-12.1 0-24.1 0.1-36.2 0.2-48.6 0.5-97.2 0.8-145.8 0.2-48.6-3.2-97.2-0.7-145.7 3.7 1.6 7.5 3.3 11.2 4.9 -7-4.4-13.8-6.9-7.7-16 -4 4.6-5.1 3.5-3.4-3.4 2.1 0.7 4 1.7 5.8 2.9 3 1.4 6.1 4.7 7.5 7.6 -2.2-1-2 1.1-1.6 2.4 -2.4-4.8 1.8 4.4 2.2 5.3 1 2.2-0.7 3.5 0 6 2.7 9.2 8.4 3.7 15.8 1.8 0.8 2 3 2.9 3.6 2 0-0.9 6.4 4.5 6.3 4.5 0.2-1 0.2-2.1 0.2-3.2 2.7 4.5 7.9 0.8 8.9 1.8 0.6 1.7-5-2.5-4.9-2.4 -0.2-0.4 7.4 1.5 8.5 2 2.3 0-0.1-3-0.4-3.2 0.3 0.5 19.3-15.9 18.3 7.4 -3.5-2.1-7-4.1-10.4-6.2 3.1 2.7 9.7 7.8 9.9 9.5 0.3 0.9 0.5 1.8 0.7 2.8 -1.3-3.8 0.1 4.6 0 5.8 -0.2 3.9-1.1 7.7-1.2 11.6 -3.6-3.2-7.8-5.6-6.5-11.1 0.5-1.9 7.5-3.3 6-5.8 -1.2-1.9-8.6 6.6-9.5 6.8 0-1.1-0.3-2-0.9-2.9 -3.3 1.2 1 1.7-0.4 3.4 -0.9-0.2-1.7-0.7-2.3-1.4 -1 3.8-6 0.9-6.1 1 0.1 1.3 0.2 2.6 0.1 3.9 0.3 0 3.4-20.3 4.8-23.5 -1.8 3.2-2.3 10.5-6.3 12.2 -4 1.8-3.3-1.7-6.7-0.8 -3 0.9-12.8 6.5-11.6 7.4 -0.8-0.7-1.7-1.1-2.8-1.2 -1.8 5.7 11.9 8.4 13.2 5.1 1.8 1.2 3.5 2.3 5.3 3.4 -1.6-0.5-3.3-1-4.9-1.5 -0.6 1.8-1.5 3.3-2.8 4.6 -2.1 1-6.5-2.1-2.2 3.3 -0.9-0.3-3.4-5.1-4.8-4.1 1.5 5.8-6.4 1.8-6.3 0.8 -3.1 2.9 4 5.6 5.4 6.4 4.2 2.6-1 0.2 5.6 1.8 2.7 0.6 12.4 0.3 12.4 1 -0.7 0.9-1.6 1.5-2.7 2 0.7 0.7 1.6 1 2.6 0.9 -0.3 1.5-0.5 3.1-0.5 4.7 6.4-1.8-1.2-4.7 1.9-7 2 4.5 6.3-0.8 5.8-0.1 -0.9 0-1.3 0.5-1.1 1.4 1.1 1.8 2.7-1.7 3-2.2 -0.9 1.3 5.4 0.1 5.9-0.2 0.7-0.4 5.5-4.6 5.6-6.9 4.1 3.9 3.3 17.9-4.7 15.4 6.8 3.1 4.9 8.9 4.6 14.9 -4.1-3.1-8.2-6.2-12.1-9.4 4.8 4.9 10 8.2 12.3 15 1 3.1 1.3 6.9 1 10.2 -0.6 5 2.7 9.8-3.9 4.6 6.8 14 2.6 31.4 1.8 46.2C491.3 666.9 490.5 684.5 488.9 702 485.6 737.2 490.6 683.4 488.9 702zM948.2 388.9C947.2 389.8 946.5 386.7 948.2 388.9 948 389.1 947.9 388.5 948.2 388.9zM946.1 387.3C945.9 388 945.4 387.2 946.1 387.3 946.1 387.4 946 387.3 946.1 387.3zM943.9 384.4c-0.6 1.3-1.6 1.7-3 1.1 0-0.6 0-1.1-0.1-1.7C941.9 383.8 942.9 384 943.9 384.4 943.6 385.9 943.9 384.2 943.9 384.4zM944.2 387.9C943.9 388.8 941.1 389.6 944.2 387.9 944.1 388.2 943.7 388.1 944.2 387.9zM938 387.9c1.3 2.1 1.8 3.3 3.6 1.8C940.6 392.8 935.8 390.6 938 387.9 938.9 389.2 937.2 388.9 938 387.9zM917 310.2c1.4-3.1 5.6 0.5 6.3 1.9C921.5 314.3 915.6 313.2 917 310.2 918.1 307.7 915.6 313.2 917 310.2zM914 356.4c2.3 0.8 8.3 6.9 10.9 4.1 -0.4-0.8-0.7-1.6-0.8-2.5 -0.5 0.5 5.1 2.8 5.7 0 -0.8-0.8-1.7-1.5-2.8-1.9 0.4-0.8 1.1-1.2 2-1.2 0.2-1-6.8-1.6-1-2.7 -2.7 1.1-3.7 0.4-3-2.1 5.3 3.7 4.9 0.7 7.5-2.5 -0.2 0.2 1.9 1.9 1.8 1.9 0-0.6 0.1-1.1 0.2-1.7 -0.9-0.3 2.7 15.1 2.7 15.4 -2.1-2.1-3.7-1.7-5 1.2 0.6 0.7 3.6 0.2 3 2 -1 0.3-2 0.2-3-0.2 0.6 0.7 2.4 10.6 3.1 13.4 -1.2-0.5-6.5-6.4-6.1-7.1 0.7 0.3 1.4 0.5 2.1 0.6 0 0.1-2.4-4-2.1-4.9 -3.4 0-2 1.2-4.3-3.1 -0.4 1.8-3.9 2.8-4.9 4.3 -0.2-3.7-2.2-0.8-2.4-3.5 -0.8-0.4-6.3 6.2-6.8 7.3 -0.8-1.5-0.9-3-0.2-4.5 -0.2 0.6-8.3-0.1-8.1-1.9 0.9-0.3 1.7-0.7 2.5-1.3 0.1-2.5-5.3 1.4-6.3-1.3C898.5 364 911.9 355.7 914 356.4 916.2 357.1 914.3 356.5 914 356.4zM918.7 372.1c-4.3 1.7 0.8-2.4 1-2.8 -0.5 0.8 2.3 4.7 0.4 5.6C918.4 374.7 917.9 373.8 918.7 372.1 918.1 372.3 918.9 372.8 918.7 372.1zM908.9 397.1c1.8-0.7 2.1 1.8 3.9 0.1 -1-1.2-2.2-2.3-3.5-3.3 10.3 0.5 2.7 5.3 1.8 10.2 0.1-1.5-0.6-1.4-2.1 0.3 -4.8-2.9-4.9-9.4-1.1-11.6 0.9 0.2-2.3 7.7-0.6 7.1C908 399 908.5 398.1 908.9 397.1 910.7 396.4 908.6 397.3 908.9 397.1zM903.4 406.9c-0.2-0.1-0.2-0.3-0.1-0.6C903.3 406.6 903.4 406.8 903.4 406.9zM897.7 406.6c-3-2.8-3.9-1.6-3.1-9 0.5 0.9 1.2 1.5 2.1 2 0.8-1.3 1.2-2.6 1.2-4.1 1-1.1 3.8 2.9 4.2 3.3 0.1-0.6 0.3-1.3 0.6-1.8 2.8 0.6-0.2 12.3-5 12.5C897.5 408.5 897.4 407.5 897.7 406.6 896.4 405.4 897.9 406.9 897.7 406.6zM896.2 333.4c-2.6 0.1 4-3.5-2.3 0.1 -1.2-1.1 9.4-2.9 8.5-1.2 2.6 2.9-5.8 2.6-6.4 2.2C897.5 334.1 897.5 333.7 896.2 333.4 896.7 333.3 897.8 334.3 896.2 333.4zM904 319c2.7-1.4 4.3-1.3 4.9 0.3 0.4 1.7-6.4 2.2-7.1 3.9C900.5 322.1 902.7 319.5 904 319zM900.1 308.9c0.6-0.6 1.2-1.3 1.7-1.9C908.6 315.3 889.7 310.4 900.1 308.9 900.3 308.8 896 309.5 900.1 308.9zM886.1 358.8c0.9 0.4 0.7 8.6 0.1 9.6 0 1.3-5.5-6-5.3-6 1.8-0.2 3.4-0.9 4.7-2.1C883.7 360.4 883.9 359.9 886.1 358.8 886.2 358.9 885.8 359.6 886.1 358.8zM880.7 362.4c-0.9 5.3-8-8.7 1.4-3.9C879.1 360.2 881.6 360.5 880.7 362.4 880.8 362.2 881 361.9 880.7 362.4zM881.5 334.2c4.7-5.1 3.4 6.1-0.2 4.4 -1.3-1.1-1.4-2.5-0.1-4 -0.4 0.5-0.8 0.9-1.3 1.4C880.4 335.4 880.9 334.8 881.5 334.2 882.2 333.3 878.6 337.4 881.5 334.2zM878.1 264.8c0.7-0.2 0.2 0.6-0.4 1.3C877.9 265.8 877.8 265 878.1 264.8zM875.9 314.1c0.9-1.5 0.8-2.8 3.5-2.5C885.6 312.4 873.9 316.2 875.9 314.1zM856.7 366.1c-2 0.1 2 0.2 0.2-1.8 0-0.3 8.9 1.5 9.9 2.1 -1 0.4-1.9 0.9-2.7 1.7 0.8 2.2 4 4 6.6 7 -3.7 1.8-5.8-1.6-4.9 2.5 -1.5 5.3-4.7-4.2-4.1-3.4C858.8 370.5 862.1 369.4 856.7 366.1 854.3 366.2 861.9 369.3 856.7 366.1zM854.6 423.1c-0.8-1.8 5.6 3.4 5.8 3.6C858.6 428.8 853.8 425.5 854.6 423.1 854.5 422.8 853.7 425.7 854.6 423.1zM867.4 422.6c-4.9-1-6.5-4.4-10.2-6 -2.6-1.1-5 1.6-7.9-1.9 0.6 0.1 3.2 1.2 3.7 1.2 2-2.3 5.6-2.7 9.2-0.8C861.2 414.6 867.3 423 867.4 422.6 865.7 422.2 867.7 419 867.4 422.6zM871.9 394c-0.2-4-1.5 0.9-3.5-2.8 5-5.4 18.1-0.8 15.9 7.1 -1.2 4.4-4.1 7-7.7 5.2C878.2 404.2 871.9 392.4 871.9 394 871.9 393.9 872 395.7 871.9 394zM872.8 409.9c1.2-0.7 8 1.3 8.1 3C881 414.8 873.4 410.8 872.8 409.9 873.2 409.6 873.5 410.9 872.8 409.9zM886.1 453.3c-0.1-0.1-7.8-11.6-8.2-9C878.6 439.3 888.9 445.9 886.1 453.3 885.9 453.2 886.9 451 886.1 453.3zM884.5 406.9c-0.7 1.9-1.6 2-2.7 0.6 -0.1-2.3 2-7.1 3.9-11.8 1.3 4.6 2.6 8.7 2.8 13.1C885.2 407.8 887.3 409.5 884.5 406.9 883 409.4 887.7 409.9 884.5 406.9zM889.4 426.3c-1.1 2.1-3.6-0.6-1.7-2.7C888.9 424.1 889.5 425 889.4 426.3zM888.7 326.8c0.1 3.2-1.2-2.3-0.8-3.8 0.5-2.1 5.1-4.3 5-5.4 -3.7-0.9-4.7-0.7-5.3-4.3 -0.8-4.4 9.3-0.6 10 1.3 0.7 2.1-2.2 0.8-2 1.9 0.8 0.1 1.7 0.1 2.5 0.1 0.2 4-10.1 4.6-9.5 8.3C892.6 322.4 889.7 330.1 888.7 326.8 888.7 327 889.9 330.5 888.7 326.8zM890.1 450.9c0.2-0.2 0.6-3.4 1.2-3C893.2 448.7 889.6 451.3 890.1 450.9zM892 396.6c0.2 2.2-4.7-6.9 0.5-7.1C893 391.9 892.8 394.3 892 396.6 892 396.9 893.4 394.8 892 396.6zM891.5 368.8c-4.3 0.2 0-9.8-1.3-10.2C892.7 359.2 899.9 368.5 891.5 368.8zM896 420.6c0.2 5.4 10.1-1.6 12.6-2.3 1.2-0.4 13.8-1.6 7.2-3 -0.4-1 6.5-1.7 5.3-3.6 -2.3 0.2-2.6-0.3-3.7-2.1 -0.5 0.7-1.1 1.3-1.9 1.7 1.8-0.6 8.2-4 13-4.9 -4.4 0.2-8.7 0.7-13.1 0.6 1.1-0.9 1.9-1.9 2.6-3.1 0.6 0.8 1.4 1.5 2.3 2.1 0.5-1.2 0.8-6.7 3.2-6.5 0.3 0.1 1.9 4.7 2.2 4.5 0 0.1 2.2-8.7 4.2-7 0.5 0.8 0.7 1.6 0.6 2.5 2.1-2.3 3.2-2.1 3.4 0.6 0-0.1 10.8-3 9.4 1.7 1-2.2-3.4-4.5-4.5-5.3 0.4 1.7 10.5-2.1 10.6-2.9 -1.2-0.3-2.4-0.4-3.7-0.5 0.9-1.1 2.1-2.1 3.4-2.7 2.5 3.9 4.9 5.3 2.8 9.2 -2.6 4.9-4.5-2.9-6.3-1.8 -1.3 0.8 1.7 6.4 0.5 6.8 -1.9-0.4-3.5-1.2-4.9-2.5 0 2.6 2.1 9.1 0 11.1 -1.5 1.5-4-3.7-4 0.7 0 3.2 4.5 6.9 3.2 10.2 -2.3-2-2.9 2.3-3.6 2.7 -0.4-1.3-0.5-2.5-0.2-3.8 -1.4-0.2-5.2 1.5-6.2 0.8 -1.3-0.8-3.7-3.5-4.7-3.8 -2.3-0.7-3.9-0.6-6.5-0.9 -4.3-0.5-3.8 0.7-5.2 2.2 0 1.1-22.2 6.3-20.6 0.9C894.2 421.6 895.1 421.1 896 420.6 896.1 425 890.7 421.8 896 420.6zM925.9 429.2c-0.1 0 1.2-2.7 1.5-2.8 1.8-0.5 1.8 4.3-0.1 4.1C926.2 430.6 927.9 427 925.9 429.2 925.4 429.2 927.7 427.2 925.9 429.2zM903.9 425.7c-0.4 0.2-2.1-0.1-2.5-0.4C902.1 425.3 904.6 425.5 903.9 425.7zM898.1 464.7c-1.6-1.1 1.9-4.4 2.2-1.5C900.4 464.1 898.8 465.1 898.1 464.7zM899 474.9c1.2 1.1 0.4-1.2 1.6-0.3C906.2 478.7 898.5 480.4 899 474.9zM984.2 771.7c-22.9 7.6-45.5 15.6-68.6 22.7 -2.4-35.5-5.7-71-7.7-106.6 -0.9-16.8-1.1-33.6-1.6-50.4 -0.2-7.2-1.8-15-1.2-22.1 0.7-8 4-8.5 8.2-14.8 -2.7 1.7-5.5 3.4-8.2 5.1 -0.3-8.9-1.7-16.4 6.7-22.1 -2.1 1-4.2 1.9-6.3 2.7 -1.4-13.9-2.8-11.2 7.9-19 -15.1 5-10.2-19.2-11-28.8 -1.3-17.5-0.5-23.4 16.6-30.6 -6.3 1.9-11.8 5.7-17.4 9.1 -1.1-3.2 3.1-6 4.7-7.9 -1.7 1.6-3.4 3.2-5.1 4.7 -0.5-4.3-1.8-7.8-0.2-12.1 1.4-3.7 6.5-5 8.1-9 -1.8 3.6-5.3 5.9-9.1 7.2 -0.2-2.6-3.2-18.8-1.7-20.2 1.9-1.7 8.4 0.1 7.8 1.7 0.6-3.1-3.8-6.2 1.1-6.2 -2.8-1.9-5.6-3.9-8.4-5.8 3.9-1.5 11.1 4.2 14.4 1.5 -1.3-2.9 0.8-6.1 3.8-8.3 -2.1 1-4.3 1.9-6.5 2.8 0.6-0.5 0.9-1.1 0.8-1.9 -8.1 2.9 0.7 0.8-2.4-2 0.2 0.1-4.3 2.9-3.8 1.6 0.9-2.6 9-4.9 11.4-5.8 -2 0.6-12 3.8-11.7-1.2 -0.2 2.9-8.4-2.3-9.2-3.5 3.9-0.1 8.7 1.6 6.7-3.7 0.5 0.3 10.1 5.4 7.8 6.5 1.9-1.1 0.5-1.8 3.9 0.5 -1.5-1.8-1.6-1.6-1.7-3.6 0.4 0.9 1 1.4 1.9 1.4 -0.7-0.8-1.5-1.5-2.4-2.1 0.6-0.3 1.3-5.6 1.2-5.7 1.1 1 3 1.8 4.2 3.4 -0.2-0.6-0.4-1.6-0.4-1.6 1.8-1.3 6.7 5.4 6.5 4.6 0.1 0.3-5.3 3.3-5.1 3.3 5.8 2.9-3.1-0.2-1.1 2.7 0.7 0.9 1.6 1.3 2.7 1.2 0.9-0.3 0.2-2.5 0.5-2.3 0.6 0.5 1.2 1 1.6 1.7 -0.1-0.6 0-0.7 0.2-0.2 -0.2-1.1 0.1-1.8 0.1-2.7 0.2 0.1 8.7 1.4 8.6 4.6 -0.1 1.2-6.9 3.1-4.8 5.1 1.6 1.5 0.1-4.2 1.4 1.5 0.4-0.9 2.7-1.2 1-2.5 3.1-0.7-0.6 5.5-0.7 5.9 2.4 0.1 1.4 2 1.9 2 0.3-0.9 0.8-1.2 1.6-1 -0.4-0.7-0.7-1.5-1-2.2 1 0.8 2.4-1.2 2.2-2.6 2.2 2 2.4 6.6 3.1 9.2 -3-1.9-5.1 2.7-3.2 2.6 -3.5 3.2-2.7 4.8-3.4 9.9 -1.5 0.1-1.8-0.4-1-1.5 -1 1.9-3 1.8-3.1 1.6 0 1.4 0.5 1.7 1.6 1.1 0.1 0.2-7 5.3-3.3 6.5 4.9 1.7 3.6-5.4 3.8 1.4 -2-0.9 3.6 0.5 2.1 0.6 2.5-0.1-2.7-6.3 3.9-5.6 -0.9 0-0.9-0.4 0-0.9 -0.6-1.1 2.9 5.8 4.9 3.7 0.3-0.6-2.6-2.1-2.4-2.6 0.8-3.3 0.1-7.1 1.5-10.6 0.9 3.1 0.3 0.6 1.5-0.5 2.1 0.8 0.7 2.2 1.2 3.8 0.3-1.5 0.5-1.5 0.7 0 0.3-1.1 2.5-1.4 2.5 0.6 -3.4 0.3 3.4 4.8 0.5 6.4 8.8 3.2 2.2-0.2 2.9-1 -1.3-0.6-0.7-2.7-1.2-3 1.3 0.9 5.8 2.9 6 1.4 1.3 4 1.8 2.7 4.6 2.6 2.5-0.1-4.9-8.2-4-9.2 0 0.7-0.4 1.1-1.1 1.2 -0.1-0.5-2.2-3.1-2.2-3.1 1.1-1.1 2.3 0.4 3.2-0.1 -2.9-2.5-4.7-2.6-3-4.2 -1.3 0.2-5.3-1.7-5-3.5 -1.2 7.2-12.1-7.2-8.8-9 0.3-0.1 5.7 7.7 6 8.4 1.3 0-1.6-0.7 1.1-0.5 -0.1-0.4 0-0.8 0.4-1.1 -0.8-1.6-1.5-1.8-2.1-0.9 -2.2-0.4 3.1-3.6 3.1-3.5 1.7 1.9 9.9 8.6 8.5 3.1 0.8 2.6 6.2-1.3 0.9-5.7 -0.6-0.5-6.5-0.4-7.5-0.5 -0.3 0 0.9-7.3 2.8-4.7 0.3-1.1 0.3-2.1 0.1-3.2 -0.8 0.7-1.8 1.2-2.9 1.3 2.8-0.7-3.8-2-4.2-2.1 2.7-1.8-1.2-1.2-2.3-1.9 -0.1 0 1.7-6.6 1.5-6.7 0 0-5.8-0.9-5.7-0.9 0 0.1-1 4-1.8 4.4 -0.5 0.6-5.2-4.2-5.8-4.8 0.8 0.3 1.6 0.5 2.4 0.6 -0.2-0.9 0-1.8 0.5-2.6 1.3 0.7 2.5 1.6 3.6 2.6 -1.1-3.3-0.2-4.3 2.7-3 -3.6-2.9 0.4-0.6 1.6 0.6 3.6-0.7-11.9-9.3-10.5-5.5 0.2 0.6 6.2-1.7 2.2-1.2 1.6 0.1 3.1-0.3 4.5-1.1 -5.4-3.3 8.1 2 7 1.8 1.2 0.2-2.3-3.8-2-4 1.6-1.8 5.9 7.9 7 6.4 1-1.4 2.2-5.4 2.6-5.7 0.2 0.1-6.6 0.2-5.5-1.2 0.8-0.5 1.5-1 2.2-1.7 -0.4-0.8-1-1-1.8-0.6 2.2-0.8 19.3-8.2 13.2-10.5 5.5-2.5 1.7 4.3 4.1 4.6 2.9 0.4 6.1-2.8 9.2-2.3 4.4 0.8 5 4.9 6.1 8.4 1.5 4.5-7.8 5.1-1.1 0.9 -4.5 1.4-6.3 2.1-10 4.2 3.9-2.3-6.8 5.9-5.8 3.1 -2.1 6 3.3 4.4 5.3 6.9 1.2 1.5-0.7 4.5 1.3 6.5 1.6 1.6 6.4 0.9 8.5 1.6 1.6 0.5-0.6 2.9 0.8 3.6 1.2 0.6 6.4-1.3 6.9 0 -0.3-0.8-4 4.5-1.9 3.8 1.2-0.4 3-3 3.4-4.2 0.6 1.3 1.1 2.7 1.7 4 0.9 0.4 5.7-3.3 7.4-3.3 0-1.7-0.5-3.4-1.2-4.9 -0.4-1.1 4.7 7.7 2.9 6.5 3.2 2.1 2 2.8 5.5-1.8 0 5.2 4.6 18.1-3.8 18.8 8.4 2.4 4 14.1 4.3 20 -4.8-1.7-9.7-3.3-14.6-4.9 7.1 3.6 12.6 5.5 15 13.6 3.3 10.8-0.7 12.7-9.8 9.7 8.5 6.4 10.7 8.6 11.1 19.7 0.4 11.7 0 23.5 0.2 35.2 0.4 25.2 1 50.3 1.3 75.5 0.3 25.5 0.6 51 0.8 76.6 0.1 11 2.8 25.7 0.3 36.3 -1.6 6.6 0.4 4.8-6 8.6C994.9 769.6 988.9 770.2 984.2 771.7 963.7 778.5 990.4 769.7 984.2 771.7zM922.3 457.7c-0.1 0-0.2 0.1-0.3 0.1C921.8 457.5 922.1 457.6 922.3 457.7zM919.9 455.6c-0.1 0.1-0.3 0.2-0.4 0.2C919.5 455.7 919.7 455.6 919.9 455.6zM930.7 482.1c-0.1-0.1-0.1-0.1-0.1-0.2C930.6 482 930.6 482 930.7 482.1zM936.4 494.6c0 0 0 0.1 0.1 0.1C936.4 494.7 936.4 494.7 936.4 494.6zM948.3 479.3c0.1-0.1 0.2-0.1 0.3-0.2C948.5 479.3 948.4 479.3 948.3 479.3zM949.7 480.7c0.3-0.3 0.4-0.1 0.6 0.1C949.9 480.8 949.5 480.8 949.7 480.7zM1090.8 406.5c5.8 3.3-3.5 5.5-3.5 5.6 0-1.2-4.4 0.9-2.7-2.6C1085.6 407.5 1088.6 405.3 1090.8 406.5 1095.9 409.4 1087.2 404.5 1090.8 406.5zM1060.6 432.7c-1.3 1.5 5.2-3.2 4-2.8 0.4-0.1-1.3 6.4-4.4 4.9C1060.8 434.1 1060.9 433.4 1060.6 432.7 1061.3 431.8 1061.5 432.7 1060.6 432.7zM1040 391.2c0.6 0.3 1.2 0.5 1.8 0.8 -2.2-0.8-2.7-2-1.3-3.7 2-2.8 3.5-3.5 6.9-5.7 -1 2.3-0.6 6-2.7 7.3 1 0 2.2 2 2.1 2.2 0 0.1-0.9 2.3 0.5 1.4 -3 1.2-7 2.3-9.2-0.9C1039.5 393 1040.2 392.5 1040 391.2 1040.2 390.5 1040 392.5 1040 391.2zM1035.5 420c2.7-3 3.3-6 9.7-7.2 3.6-0.7 10.6 0.2 12.9 4.4 -1.1 3.2-21.8 9.7-15-0.6 2-0.7-6.5 1.5-3.9 2.3 0.3-0.9 0-1.2-0.8-1 -0.4 1.3-0.6 2.7-0.5 4.1C1037.2 422.8 1034.6 420.6 1035.5 420 1035.8 419.8 1034.4 420.7 1035.5 420zM1085.8 481.9c5.7 2.6 13.4 3.6 17.1 9 4.2 6 1.6 14.9 1.6 21.6 -2.8-2.1-5.6-4.1-8.6-6 2.9 2.9 5.7 5.7 8.6 8.6 -14.2-5.9-28.7-10.6-43.8-13.5 10.6 3 27.8 5.2 36.9 12 8.8 6.6 5.6 14.2 5.6 24.3 -6.5-3.6-13-7.3-19.4-10.9 7.5 5.6 16 9.4 18.9 18.9 3.8 12.1 1.3 28.5 1.5 41 -6-4.2-12.2-8-18.1-12.2 5.3 4.8 13.4 8.5 16.5 15.3 3.6 7.7-0.4 16.8-0.4 24.9 -7.4-6-14.6-12.2-22-18.1 14.4 15.5 23.7 20.8 22.1 43.7 -1.7 22.5-1.5 45.2-2.1 67.7 -0.3 9.5 1 20.7-0.9 30 -1.6 7.9-1.1 6.8-9.2 8.9 -5.1 1.3-10.5 1.9-15.7 2.8 -19 3.2-39.3 4.8-57.2 12.5 -0.1-4.8-2-8-2.7-12.9 -0.9-6.3-0.2-13.3-0.2-19.6 -0.2-15.3-0.4-30.5-0.6-45.8 -0.4-28.3-0.8-56.6-1.4-85 -0.5-27.7-0.5-55.5-1.7-83.1 -0.4-9.4-5.2-25.5 0.2-34.1 6.2-9.8 22.8-13.1 31.6-20.1 -6.4 3-25.9 18.5-32.8 12.9 -2.4-1.9-3.1-14.3-1.5-17 1.5-2.6 6.1-3 8.3-5.2 11.7-11.4-7.4-6.9-5.2-14.9 0.1-0.4 15.6-1.4 15.6-3.3 -2.4-3.7-7.8 0-8.6-0.8 0.3 0.3 2.7-6.7 2.9-7.5 1.3 0.5 2.4 1.3 3.4 2.3 -1.1-0.6-1.2-0.2-0.4 1.4 1.8 1.7 2.5-2.8 4.1-2.1 0.9 0.4 0.8 3.3 2.5 3.8 1.1 0.4 9.1 1.3 9.1 2.9 0 0-5.4 0.4-6.2 2 0.7-1.3 1.1 5.7 0.4 4.9 1.2 1.4 7.8 2.1 8.2 3.2 0.4 1-3.2 0.3-3.4 0.3 0.1-0.9 11.4 3.8 12.7 3.7 1.2-0.1 13-4.5 10.4-1.6 0 0 4.4-0.1 4.4-1.6 -1.5 0.6-2.1 0.3-1.8-0.8 11.4-1.3 21.1 8.3 31 14.8 12.2 8 9.4 15.4 9.4 29.3 -11.4-4.4-22.9-8.8-34.2-13.5C1075.6 477.3 1080.7 479.6 1085.8 481.9 1090.2 484 1080.7 479.6 1085.8 481.9zM1106.1 461.5c-3.4-0.9-30.3-11.9-30.3-17.6 1.4-1.4 11.3 3.1 6.5-2.3 1.2 0.8 8.1-1.6 7.4-2.3 -2.9-2.6-4.1 1.3-0.6-2.5 -1.2-0.1-2.3-0.5-3.2-1.3 1.1 0.5 1.1 0.3 0-0.8 -1 0.9-1.8 2-2.6 3.1 0.5-2.2-3-0.4-3.6-1 1.3 0.9-1.2-8.9-2.8-6.8 1-1.4 1.5 0.2 2 1.1 1.7-1.6-2.9-2.2-3.1-2.9 0-5 14 0 14 3.6 2.2-4.4 12.2 4.7 5.2 4.7 1 2.5 8.5 1.9 9.3 2.8C1108.5 444 1106.1 455 1106.1 461.5 1099.1 459.6 1106.1 456.3 1106.1 461.5zM1136.1 415.8c-2.7-0.7-5.4-1.5-8.1-2.2 7 5.3 9.2 9.9 9.5 18.7 -2.7-0.6-5.1-1.8-7.3-3.5 1.3 1.2-2.2 0.6-3 0.2 1.2-3 1.5-0.6 1.1-0.2 0.7-0.3 6.8-4.4 5.3-5.2 -1.3 1.7-1.1 0.6-2.8 0 -4.8-1.6-2 0.2-6.5 0.2 -0.3-0.7-0.8-1.1-1.6-1 1.4-2.7 3.8-3.7 4.9-6.8 -3-0.1-1.2-3.9-1-4.7 -1.1 1.6-5.8-0.9-4.4 0.7 -0.2-0.3-3.3-0.8-5.4-2.4C1124.5 407.3 1135.8 403.7 1136.1 415.8 1133.4 415 1135.8 403.3 1136.1 415.8zM1117.2 388.4c1.4 0-0.1 0.2 2.6 2.1 -6-1.5 10.9 8.2 9.1 1.8 -0.9 0.9-1.9 1.4-3 1.7 0.3 0.1-0.4-2.7-2.1-2.7 1.7-1.7 7.3-2.2 9.5-1.6 -2.4 0.7-1.8 7.1-2.2 7.1 0.1-0.1-2.3-0.3-2.3-0.3 -2.6-1.1-4.9-1.4-6.3 1.1 -0.8-0.3-1.6-0.2-2.3 0.2 1.3 3 9.4 1 5.3 6.7 -1.7 2.4-6 1.8-7.6 0.2C1116 402.9 1116.2 388.4 1117.2 388.4zM1118.8 438c3.4-3.4 17-4.6 19.1-2.5 4.9 5-0.7 34 0.4 41.7 -5.5-1.2-11.2-2.3-16.6-3.8 -17.2-4.8 4.9-21.6 10.8-26.7 -5.7 4.1-11.4 8.1-17.1 12.2C1116 452.4 1113.7 443.1 1118.8 438 1120.7 436.1 1114.1 442.6 1118.8 438zM1139 625.6c-0.6 23.2-1.8 46.5-3.2 69.7 -0.7 11-1.4 22.1-2.1 33.1 -0.5 7.7 0.9 8-5.3 10.1 -4 1.4-10.8-0.7-15.1-0.3 1.3-87.7-1-175.7 3.4-263.3 6.7 0.7 17.9-1 22.1 5.3 4.5 6.7 0.7 28 0.7 35.5 -2.7-1.1-5.4-2.3-8.1-3.4 13.2 10.3 9.1 29 9.2 44.4C1140.9 579.6 1139.7 602.6 1139 625.6 1138 663.3 1139.6 603.7 1139 625.6zM1169.3 394.1c2.5-2.5 13.5-4.6 14.3-6.3 1.1 1 1.9 2.1 2.5 3.4 -0.7 1.8-6.1-0.3-7.1-0.3 0.2-1.3-1.3 6-1.3 6 -0.7 0.9-4.5 7.7-6.1 0.1C1161.9 402.8 1168.7 393.5 1169.3 394.1 1171.4 392 1171.7 396.5 1169.3 394.1zM1193.6 490.8c-3-0.7-5.9-1.4-8.9-2.1 7.3 4 7.6 7.7 8.9 15.5 -3.7-2.2-7.4-4.4-11-6.6 10.6 10.6 9 17.4 9 31.8 0 6.8 0.3 13.5 0.5 20.3 0.2 6.5 4.8 20.6-4 14.1 1.7 4.6 3.1 9.4 2.1 14.3 -4-1.9-8.1-3.8-12.2-5.4 7.1 4.9 11.1 7 12.1 16 1.5 13.3 0.1 28.1 0.1 41.5 -3.7-5.1-7.3-10.4-11-15.5 3.9 6.8 9.4 12.7 11.2 20.6 1.8 7.6 0.6 16.8 0.7 24.6 0.3 19.3 0.1 38.5-0.6 57.8 -0.2 4.9 0.4 10.9-0.6 15.6 -1.3 6.5 0.6 4.7-5.2 7.4 -6.6 3.1-20.3 2.3-26.3-2.1 -10.3-7.7-3.1-40.8-2.7-53.3 1.4-42.1 3.1-84.1 2.2-126.2 -0.5-21.9-1-43.7-1.3-65.6 -0.1-7.8-2.2-17.9 0.4-25.3 3-8.4 11.5-13.3 17.6-19.4 -6.6 4.9-13 10.1-19.6 14.9 0-10.1 2.7-20 4.7-29.9 -2 6.9-3.9 13.8-5.6 20.8 -0.3-9.5-3.2-21.3-1.7-30.6 0.5-3 8.8-13.1 8.8-9.3 -2.7 2.2-3.2 4.9 1.5 7 7 3.1 1.8 0.4 9.1-2 -1.9-0.3-1.9-2.3-1.8-4.1 15.9 12.2 22.6 17.4 22.6 37.5 -8.1-8.1-16.1-16.1-24.2-24.2 10 10.8 24.2 20.9 25.4 36.4 -3.7-0.4-7.4-0.8-11-1.2 8.8 3.5 10.2 6.2 11 15.5 -2.6-0.4-5.2-0.8-7.7-1.2C1192.7 481.5 1193.6 483.3 1193.6 490.8 1190.6 490.1 1193.6 482.1 1193.6 490.8zM1194.7 432.3c-7.2-6.3-15-11.9-23.4-16.4 1.1-1 6.9-3.4 4.7-6 -0.3-0.6-8.8 3.8-8 4.4 -1.2-0.2-2-0.8-2.6-1.8 1.2 0.2 6.5-3.5 11.4-3.2 2.5 0.2 7.7 2.5 9.4 4.3 2.6 2.8-2.7 1.8-2.8 3.2 -0.1 2.2 5.8 3.4 6.7 1.6 -0.6-1.4-1.4-2.6-2.5-3.7C1194.2 408.2 1194.7 429.4 1194.7 432.3 1187.2 425.7 1194.7 431 1194.7 432.3zM1261.7 392c1.3-0.6 2.8 1.1 3.7-0.5 -1.7-0.5-3.5-0.8-5.3-0.9 0 0.3 1-7.8 1.6-7.8 0.2 5.9 7.3 3.9 6.7 1.6 -0.1 1.8-0.8 3.4-2.1 4.7 3.3-3.3 2.1 3.6 0.8 4.6 -4 3.2-9.2-2-8.8-2.3C1259.5 391.5 1260.6 391.7 1261.7 392 1263.8 391.1 1261.1 392.2 1261.7 392zM1246.2 427c1-1.2 8.6-1.3 9.9 0.4 0.2 0.3-9.1 8.1-10.5 3.9C1248.5 430.1 1244.8 428.7 1246.2 427 1247.8 425.1 1244.8 428.7 1246.2 427zM1216.6 363.3c1.4-2.2 1.8-4.9 4.2-6.4 1.1-0.6 4.8 1.6 4.1 3.1 -1.1-0.1-5.1 0-2.2 2.1 -1.6-1-2.8 0.4-1.9 2 1.1 2 3.3-0.4 4.8 1.4 0.6 0.7 6.8 3.9 3.5 4.6 -1.6 0.4-0.7-2.4-2.3-2.5 1 0.1-1.5 6.4-2.1 6.7 -1.2 0.5-3.8-1.3-5.6-0.3 -1.2-1.3-0.9-2.4 0.8-3.2 -2 1.7-2.4 1.2-1.2-1.5 -1.7 0.4-2.8 1.5-3.2 3.3C1210.5 370.7 1215.1 365.8 1216.6 363.3 1217.4 362 1214.9 366.1 1216.6 363.3zM1228.8 370.1C1228.7 370.2 1228.7 370.2 1228.8 370.1L1228.8 370.1zM1208.8 395.5c0-3 0-6.1 2.4-8.3 -1.1 1-1.6 2.3-1.5 3.8 -0.1-0.7 8.3 0.1 9.1 0.5 0 0.2-0.4-6.2 1.5-5 -1.5-0.5-2-1.4-1.4-2.7 1.7-1.8 1.6 3.1 2.8 3.1 0.6-3.2 13.1-4.5 15.5-2 -2.2 3.4-1.2-1.4-2.6 0.9 -1.2 2.1 4.3 1 4.3 1 0.9-0.1-0.1 13-0.1 13.6 -4.6-0.8-10.1-0.6-14.2-3.2 -0.6 1.3-4.5 7.2-4.5 8.6 -0.2 0-5.2 1-6.3 0.6 -0.1-1.1 0.1-2 0.6-3 -1-1.9-3.3 2.3-4.1 1C1208.6 401.6 1208.8 398.6 1208.8 395.5 1208.8 391.7 1208.8 397.8 1208.8 395.5zM1208.1 413.7c5.5 1.8 2.7 4.4 5.9 7 0.8-0.5 1.3-1.3 1.5-2.2 4.2 1.3 6.4 1.2 2.9 4.2 1.7 1.7 2.7 0.1 3.8 2.8 -3.8-2.1-7.6-4.2-11.3-6.4 4 3.3 11.6 10.2 15.8 11.6 -0.4-0.1 14.3-0.1 11.2 3.7 -1.7 2-26.5 1.8-29.7 2C1208.1 428.8 1208.1 421.2 1208.1 413.7 1211.9 415 1208.1 421.2 1208.1 413.7zM1239.7 723.2c-0.1 6.3-1.7 12.5-1.4 18.8 -6.2-1.1-24-1.4-28.6-5.2 -3.8-3-1.4-26.8-1.6-33 -0.8-22.6-1.7-45.3-2.1-67.9 -0.4-22.4-0.3-44.7 0.1-67.1 0.2-11.9-5.8-45.7 6.3-53.4 -6.5 3.4-8.6 1.7-6.4-5 0.1-4.1 0.2-8.2 0.3-12.3 0.2-8.2 0.4-16.4 0.7-24.6 10.3 2.1 20.6 4.5 31 6.6 -7.1-2.4-19.3-3.5-25.3-7.9 -7.1-5.2-4.9-12.9-5.7-20.8 9.5 0.7 19.1 1.4 28.6 2.1 -4.6-0.7-37.5-1.9-26.6-14.5 1.9-2.2 11-3.2 13.9-2.5 1.3 0.3 5.9 4.1 5.4 4.9 -0.1-0.9-0.1-1.8-0.2-2.7 -0.2 0.2 7.9 5.2 8.8 6.3 5.1 6.2 2 20.3 1.7 27.6 -0.8 27-0.8 54-0.6 81C1238.3 610.3 1240.5 666.7 1239.7 723.2 1239.7 726.4 1240 701 1239.7 723.2zM1281.6 735.6c-0.2 7-21.2 9.4-26.4 8.4 -8.5-1.7-6-4.4-6.2-13.5 -0.1-6.5-0.1-13.1-0.1-19.6 -0.3-30.5-0.8-61-1.8-91.5 -1-30.4-2.8-60.8-2.9-91.2 -0.1-14.3 1-28.6 0.6-42.9 -0.1-4.2-1.4-9-0.6-13.1 1.3-6.4 4.5-6.9 8-11.8 -2.5 1.5-5 2.9-7.6 4.3 0-7.9-0.9-14.9 6.8-19.7 -12 5-5.1-1.9-5-2 0.8 2.7 10.8-2.2 16.2-2.7 3-0.3 1.7 2.9 4.8 1.1 1.2-0.7 6.3-10.1 3.3-9.7 -0.5 0.9-1.3 1.6-2.4 2.1 1.6-0.7 3.2-5.6 8.4-3.2 -0.5 2.9-2.7 3.6-0.9 5.4 1.1 1.1 3.4 0.4 3.4-2.2 0.4-0.3-0.6 5.6 0.8 4.5 -0.4 0.3-2.6 1.1-3.1 1.6 -1 0.9-4 0.1-5.3 0.7 -2.8 1.3-5.2 4.6-6 5.9 0.8-0.1 1 0.2 0.6 0.9 -1.1-0.5-1.9-1.4-2.5-2.5 -0.2 2 0.9 9.7-3.7 6.2 -0.2 0.9-5.5 8.6-2.1 9.3 2.3 0.5 0.5-4.5 3.7-3.8 -1.1 1.4-1.7 2.9-1.9 4.6 0.3-0.9 6.6-7.7 6.5-7.8 2.9 2-2 2-1.5 2.5 1 0 2.1 0 3.1 0 0 1.3-3.5 2.3-2.3 0.1 -1.3 1.5-5.2 5.8-5.6 7 -1.6 4 1.1 6.4 1.1 6.3 -3.2 2.8 3-5.8 4-0.9 1.3 0 1.7-6.9 0.6-7.5 5.2 2.8 4-1.1 4-3.7 10.1 2 13.6 15.5 13.7 23.6 0.3 14-4.9 16-15.3 23.8 5.5-2.7 10.7-6 15.8-9.3C1280.5 575.5 1284.3 655.6 1281.6 735.6 1281.6 735.8 1284.3 655.6 1281.6 735.6zM1278.1 451.8c-0.4 1.3-0.8 2.7-1.2 4 -2.4-3.4-0.8 0-2.2 4 -5.9-3.5-3.5-10.2 3.1-10.2 2 0.5-1.5 3-1.5 3.4C1276.8 452.7 1277.5 452.3 1278.1 451.8 1277.8 453.2 1277.6 452.4 1278.1 451.8zM1370.3 729.7c-14.5-0.2-28.9 0.1-43.4 0.3 -10.6 0.1-24.8-4.8-34.9-1.6 1.5-52.4 0.2-104.7 0.3-157.1 0-21.2-3.5-46.4 0.1-67.3 3.1-18.3 31.4-21.8 46.4-21.8 -18.8-0.6-30.3 4.2-46.4 13.3 -0.3-7.2-0.6-14.4-0.9-21.7 5.4 2.7 10.9 5.5 16.4 8 -7.3-4.9-21.1-12-16.9-23.6 1-2.9 10.2-8.2 9.4-9.4 8.2 8.1 18.3 6.6 28.3 3 -7.1 1.4-14.7 3.1-21.5-0.4 5.2-2.2 5.4 3.5 8.9-1.6 0.2-0.3-3.2-3.1-2.8-3.9 0.9-1.9 3.3-2 4-3.4 0.5-1 4.1-1.5 5.2-2.6 0.6-0.6-0.6-4.1 0-5.1 0.8-1.3 4.2-2.2 4.5-3.5 0.3-1.4-0.8-3.3-0.9-2.9 1.3-6.5-2.9-7.4 5.9-8.9 4-0.7 10.4-0.6 13.6 1.8 4.2 3.2 1.2 4.4 2.3 6.3 1 1.5 4.5 1 5.9 3.4 3.5 6.3 2.5 9.1 7.5 14.7 4.4 4.9 7.1 6.1 6.3 13.9 -0.1 0.6-1.6 9.5-2.7 7 -0.2 2.2 3.7 4.9 1.2 7 -0.8-0.7-1.7-1-2.8-0.9 0.6-1 1-2 1.2-3.1 -2.4 2.8-3.8 5.5-6.5 2.8 -1.5 2.4 3.7 3.4 3.3 3.8 -0.8 0.8-3.3 3.8-3.3 4.8 -0.1 0.4-2.8-2.8-2.8-2.8 -1.2 1.2-4 9.9-0.3 9.9 -0.2 0.3 1.9-1.9 2.7-1.7 1.6 0.4 3.6-0.8 5-0.4 2.8 0.7-1 4.9 0.3 6.1 0.6-1.6 1.5-1.7 2.9-0.5 -0.1-0.8 1.7-5.4-1.4-2.6 0.4-1.2 0.9-2.3 1.5-3.4 -2.8 2.2 0.5-4.9 1.3-5.7 -0.6 1.8-0.8 3.6-0.7 5.4 1.6-2.5 0.9 11.5 0.9 12.9 0.1 11.3 0.5 22.6 0.7 33.9 0.5 23.7 0.8 47.3 1.1 71 0.2 23.4 0.4 46.9 0.6 70.3C1370.1 691.9 1372.2 711.8 1370.3 729.7 1363.2 729.6 1370.3 729.2 1370.3 729.7zM1407.5 411.6c3.3-3.3 13.5 5.1 16.1 7 5.9 4.4 11.4 3.6 12.2 13.3 -8.4-2.5-16.7-6-23.9-11.1 1.4 1.8 3 3.4 4.8 4.7 -4.6 0.9-4.3-1.6-6.9-1.6 -0.3 1.1-1 1.7-2.1 2 -0.2-0.9 0.1-1.5 0.9-2 -9.3-2.8 0.4 1.5-3.7 1.5C1399.3 425.5 1404.8 411.6 1407.5 411.6 1409.9 409.1 1409.4 411.6 1407.5 411.6zM1413.3 448.4c-4-0.9-3.9-7.3-3-8.4 4 0.6 9.1 1.5 12.2-6.1 9.5 10.5 12.5 16.1 13.1 30 -9.5-3.3-19-7.2-27.6-12.5C1411.6 453.4 1414.9 453.4 1413.3 448.4 1412 448.2 1414.8 453 1413.3 448.4zM1400.2 440.9c1.4 1.7 0.3 0.8 1.7-0.2 -1.1 8.5-9.4-8-7.7-13 0.2 1.2 2.4 1.8 2.3 1.9 -0.6 0.3-1.3 0.4-2 0.3C1394.5 433 1398.9 437.8 1400.2 440.9 1400.5 441.3 1399.7 439.8 1400.2 440.9zM1377.1 351.8c-0.1 1.3 0.3 1.5 1 0.6 -0.1 0.8-0.4 1.6-0.8 2.3 4.8 3.1 2.7 3.3 5.2 6.2 1 0.1 1.8-0.3 2.4-1 1.1 1.8 2.4 3.6 3.7 5.2 3.8 3.2 6.2 7.7 10.5 10.5 -1.1 0.9-9.1 3.1-10.2 2.7 1.1-0.4 2.1-1 2.9-1.8 -5.6-2.1 0.9-3.1-2-5.4 2.5 2-9.4-3.3-6.9-3.3 -2.6 0-0.1 2.9-3.2 2.8 -2.1 0-0.3-6.6-3.8-2.2 -1-4 3.7-8.5 3.5-12.8C1379.4 355.7 1371.9 352.5 1377.1 351.8 1376.9 353 1374.3 352.2 1377.1 351.8zM1376.1 458.5c6-4.6 1.7 3.7 2.6 4.4 -0.3 0-0.6-0.2-0.7-0.4 0.7-1.1 1-2.3 1-3.6 -0.7 1-1.6 1.8-2.6 2.4C1375.9 460.5 1375.8 459.5 1376.1 458.5 1381.8 454.1 1375.5 459 1376.1 458.5zM1434.8 516.3c-11.5-1.8-21.5-7.2-31.4-13 5.1 4.3 10.5 8.2 16.6 11 3.6 1.6 9.7 1.9 12.6 4.3 3.6 3 6.3 15.7-0.3 13.9 6.5 9.2 1.4 26.7 1 37.1 -0.7 17.8-1.4 35.7-1.7 53.5 -0.6 37.1-0.6 74.2-0.3 111.4 -10.2-0.6-20.2-2.3-30.3-3.3 -3.9-0.4-12.4 0.3-15.9-1.1 -1.7-0.1-3.5-0.1-5.2-0.2 -0.1-4.4-0.1-8.9-0.2-13.3 -0.3-25.6-0.6-51.2-0.9-76.7 -0.7-52.3-1.5-104.5-2.6-156.8 0.5 1.6 1.6 2.4 3.2 2.6 -1.9-1.5-3.2-1.5 0-2 -1 0-1.6-0.5-1.9-1.4 0.7 0.2 2-5.8 1.6-8.5 -0.2 1-0.2 2.1-0.1 3.1 0-2.8 1.9-16 4.4-14.1 -0.3-1.5 0-2.7 1.1-3.6 -0.1 0.4 2.3 7.4 2.3 7.4 0-4.4 3.9-0.6 4.9 1.2 2.3 3.9-0.9 1.2 0 4.9 0.6 2.4 1.1 5.4 2.4 7.5 1.9 3.2 4.7-0.4 4.3-0.8 -1.3-0.3-2.6-0.5-3.9-0.6 -0.1-2.3 0.3-2.7 1-1.2 -0.6-1.5-0.4-2.9 0.3-4.3 -1.5 0.7 15.3 7.1 13.7 4.4 1.2 2 2.9 9 8 6.4 -0.1-3.3 0.4-8.3-1.5-14.2 -0.1-0.4-5.7 1.5-3.1-3.7 -1.8 3.8-6.6-2.7-4.6-4.3 -6.6 4.4 2-4.8 1.2-5.6 -2.8-0.9-4.5 0.4-6.5-2.9 -2.8-4.5 9.7 2 9.7 2 4.9 2.8 16.3 6.6 20 10.2 4.8 4.6 6.1 18.4-2 16.6C1440 488.7 1434.9 507 1434.8 516.3 1422.7 514.5 1434.9 507.4 1434.8 516.3zM1558.6 418c2.8 2.8 1.4-1.6 3.8-1.2 3.6 1.3-3.7 9.8-4.6 8.1C1557.5 424.2 1553.7 418 1558.6 418 1561.2 420.7 1558.7 418 1558.6 418zM1474.8 400.6c1.3-0.8-1.1-9.4 2.5-3.4 -1-3.5 0-4.5 2.9-3.1 -3.4-3 0.4-0.6 1.6 0.7 -0.5 0.1-2.4-4.5-1.2-5.5 0.9-0.8 7.8 0.1 4.2-2.3 2.1-1.3 4.5 5.7 5.4 4.6 2.3-2.8 5.4-4.4 5.9-8.5 0.1 1.1 1.5 7.7 3 8.1 -1.3 1.5-17.6 9.5-17.8 7.5 -0.9-1-0.1-0.6-2.9-1.9 0.1 2.5-1.9 3.1-3.7 3.8C1474.6 400.7 1474.7 400.7 1474.8 400.6 1474.9 400.5 1474.7 400.7 1474.8 400.6zM1520.5 486.8c-7-4.4-13-10-21.5-10.8 4.4 1.3 8.4 3.7 11.8 6.8 -3.7 2.6-7.5 5.2-11.2 7.8 8.2-4.9 17.7-10.4 19.8 2.8 1.7 10.9-2.3 25.7-3.1 36.6 -2 27.7-3.3 55.5-4.5 83.2 -1.2 29.1-1.4 58.1-1.2 87.2 0.1 7.8 0.1 15.6 0.2 23.4 0 2 1.5 18.8 0.2 20.1 -1.5 1.5-13.5 1.2-15.6 0.4 -5.6-2.1-4.1-2.1-7.1-6.9 -4.8-7.7-6-9.5-16.7-11.5 -9.3-1.7-9.3-1-13.2 5.5 -3 4.9 0 7-8.1 6.7 -1.7-0.1-7.2-2.5-8.2-3.6 -5.9-6.3-2.6-25.8-2.8-34.7 -0.6-27.5-1.5-55-0.9-82.5 0.3-14.4 1.3-28.7 1.3-43.1 0-3.6-1-8.4-0.3-11.9 1.4-6.6 5.2-7.3 8.9-12.3 -2.8 1.6-5.6 3.1-8.5 4.6 0.1-8.9-0.8-16.5 7.9-21.7 -2.1 0.8-4.3 1.6-6.4 2.4 -0.6-13.9-2.2-11.4 8.9-18.5 -15.4 4.1-9.2-19.7-9.4-29.4 -0.4-17.6 0.8-23.4 18.3-29.6 -6.4 1.6-12.1 5-17.9 8.1 -0.9-3.2 3.4-5.8 5.1-7.7 -1.8 1.5-3.5 3-5.3 4.5 -0.2-4.3-1.4-7.9 0.4-12.1 1.6-3.6 6.8-4.6 8.6-8.5 -2 3.5-5.6 5.6-9.4 6.7 -0.1-4.2-2.6-12.6-0.6-16.5 1.3-2.6 5.2-7.2 7.7-1.7 -0.4-2.6 3.7-2.1 5.7-2.7 5.1-1.5 2.1 1.1 6.8-2.3 1.6-0.1 0.8 4.5 2.3 4.3 4.6-0.7 9.4-12.4 15.1-2.8 -2.9-2.1-5.2 2.4-3.4 2.5 -3.7 3-3 4.6-3.9 9.7 -1.5 0-1.8-0.5-0.9-1.5 -1.2 1.9-3.1 1.6-3.2 1.5 -0.1 1.4 0.4 1.8 1.6 1.2 0.1 0.2-7.3 4.9-3.6 6.4 4.8 2 3.8-5.2 3.7 1.6 -1.9-1 3.5 0.7 2 0.7 0.2 0 1.1-5.5 1.2-6.1 3.1 1.1 2.4 2.6 3.4 0.7 0.3 0.3 3.8 3.5 4.3 3 0.3-0.6-2.5-2.2-2.3-2.7 1-3.3 0.5-7.1 2.1-10.5 0.8 3.1 0.3 0.6 1.5-0.4 2.1 0.9 0.6 2.2 1 3.9 0.4-1.5 0.6-1.5 0.7 0 0.3-1.1 2.5-1.2 2.5 0.7 -3.4 0.1 3.1 4.9 0.1 6.4 8.6 3.6 2.2 0 3-0.9 -1.3-0.7-0.6-2.7-1-3.1 0.6 0.5 5.6 1.9 5.6 2.7 0 0.1 0.3-2 0.7-1.6 2.9 2-0.7 3.4 4 3.5 2.5 0-4.5-8.4-3.5-9.4 -0.1 0.7-0.5 1-1.2 1.1 -0.1-0.5-2-3.2-2-3.2 1.1-1.1 2.3 0.5 3.2 0.1 -2.7-2.7-4.5-2.9-2.8-4.4 -1.3 0.1-5.2-2-4.8-3.7 -1 4.4-7.7-0.7-6.9-1.9 1.1-0.1 2-0.7 2.4-1.9 1 0.7 1.6 1.7 1.7 3 1.3 0-1.6-0.8 1.2-0.5 -0.1-0.4 0.1-0.8 0.5-1 -0.7-1.6-1.4-1.9-2.1-1 -2.2-0.5 3.3-3.4 3.2-3.4 1.2 1 9.6 9.8 8.4 3.5 0.6 2.2 6.2-1.3 1.2-5.6 -0.7-0.6-6.4-0.8-7.4-0.9 0 0.2-0.6-3.6 1.2-2.7 -0.4-0.1 0.1-1.7-0.9-0.5 1.2-2.2 6.1-1.2 8.4-0.1 2.5 1.2 0.4 4 2.3 5.2 1.4 0.9 4.9-1.2 6.6-0.8 0.8 0.2-1.9 2.7-0.3 4.1 1.2 1.1 2.5-3.7 2.7-3.9 3.8 7.5 2.7 0.8 8.9 0.5 0.3-0.3-0.9-4.4-1.1-4.8 1.1-0.1 2.2 0.2 3.1 0.7 0.2 2.1 0 4.1-0.6 6.2 3 4 3-0.6 5-2.4 0 5.9 0.1 11.8 0.1 17.7 -7.6-2.7-15.4-4.9-23.3-6.3 7.2 2.4 19.8 2.7 23.7 10.1 4.2 8-2 21.7-3 30 -1.7-1.9-3.3-3.7-5-5.5C1522.3 470.8 1521 477.5 1520.5 486.8 1512.8 482 1520.8 481.1 1520.5 486.8zM1474.4 442.3C1474.3 441.8 1474.3 446.2 1474.4 442.3 1474.5 442.6 1474.4 442.6 1474.4 442.3zM1474.2 442.1c0.1 0 0.1 0 0.2 0.1C1474.3 442.1 1474.3 442.1 1474.2 442.1zM1523.2 744.3c-1.2-88.4-2-177.7 7.1-265.7 -2.1 89.8 7.2 179.5 11.2 269.1C1535.5 746.2 1529.4 744.9 1523.2 744.3 1522.7 704.3 1529.7 745 1523.2 744.3zM1614.3 498.3c-7.8-2.6-15.8-5-23.6-7.7 14.3 6.7 22.8 6.3 22.8 23.6 -7.3-6.3-15.4-11.4-23.8-16.1 14.5 11.1 21.8 15.2 21.8 34.1 -6.9-6.9-13.8-13.8-20.8-20.8 8.5 9.2 20.7 17.6 21.8 31.3 -3.2-0.3-6.3-0.7-9.5-1 7.4 3 8.8 5.4 9.5 13.3 -2.2-0.3-4.4-0.7-6.7-1 6.1 2.6 6.7 3.9 6.7 10.5 -2.6-0.6-5.1-1.2-7.7-1.8 6.5 3.6 6.5 6.3 7.7 13.3 -3.2-1.9-6.3-3.8-9.5-5.6 6.9 6.9 7.4 12.1 7.7 21.4 0.2 6.4 0.2 12.8 0.3 19.2 0.1 5.8 4.6 22.2-3.4 16.3 1.5 3.9 2.7 8.1 1.8 12.3 -3.4-1.7-6.9-3.2-10.5-4.6 16.1 11.1 10.5 31.4 10.5 49.4 -3.2-4.4-6.3-8.9-9.5-13.3 3.4 5.9 7.8 10.7 9.4 17.5 1.8 7.7 0.8 17 0.9 24.8 0.3 17.4-0.1 34.7-0.7 52 -13.4-0.3-26.3-7.9-39.6-10.4 -3.7-0.7-9.5-1.2-12.7-2.9 -5.7-3.1-3.8-1.1-5.3-7.9 -1.7-8.1-0.9-17.7-1.4-26 -2-37.9-4.1-75.9-6.5-113.8 -2.2-36.3-4.9-72.7-5.3-109.1 -0.2-13.8 0.2-27.6-1-41.4 -0.5-6.4-4.6-22.3 4.9-12.9 1.4-4.8 9.4 1.2 9.7 0.4 0.2-1.1 0.5-2.2 1-3.2 0.6 0.4 1 0.9 1.2 1.6 4.9-3 12.2-6.8 17.8-9.5 5.2-2.6 12.1-3.6 14.5-10.6 1.4 0.4 2.6 1 3.6 2 -1.1 1.3-2.1 2.6-3 4 -3 0.7 6.2 4.1 5.8 3.7 1.7 3.5 4.7-1 7.2 2.4 1.5 2-4.1-1.7-1.8 2.4 -4.4-1.4-8.9-2.8-13.3-4.2 4.9 1.8 9.8 3.8 14.7 5.6 -1.3 1-9.8 5.2-8.5 1.2 -1 2-1.4 4.1-0.7 6.3 -1.5 0.4-2.8 0.2-4.1-0.7 -0.9 1.1-0.8 5.1-1.9 5.8 -1 0.7-4.8 1.1-4.6 1 -0.1 0.1-6.9 2.7-6.1 5.4 0.4 1.3 15.8-0.6 11 4.2 1.7-1.7-9.7 1.4-7.6 1.3 -2.5 0.2-3.8-3.3-5.9-1.9 0 1 0.4 1.6 1.4 1.8 -0.6 0.3-1.3 0.5-2 0.6 -0.5 0.6 11.2 4.8 5.4 7.7 1-0.9-9.2-0.1-9.5-0.2 0.1-0.1 3.2 4.4 3.3 5.8 0.1 1.5-3.2-4.4-2.1 0.7 -0.7-1-1.6-1.9-2.6-2.6 0 0.5-0.2 0.8-0.7 1 1.4 1.2 2.9 2.4 4.5 3.5 0-0.1-4.5 0.2-5 0.1 0 1.9 5.2 5.5 6.7 6.1 2.7 1 2.8-1.2 4-0.8 -0.2 1.1 2.1-1.4 3.6-0.6 0.5-0.5-0.5-5.3 1.6-4.4 -1.7 5.6 2.4 0 1.9-0.7 3.8 5.9-1.4-1.3 1.9 0.7 1.4 2.9-2.2 3.4 1.2 5 0.9-1.6 1.9-3.2 3-4.6 0.7 1.6 4 0.5 6.9 2.2 1.7-5 4.7-5.2 9.6-4.2C1617.7 477.6 1614.3 488.1 1614.3 498.3 1606.4 495.7 1614.3 493.5 1614.3 498.3zM1595.9 474.4c-0.6-0.1-1.2-0.2-1.3-0.3C1594.5 474 1595.1 474.2 1595.9 474.4zM1615 472c-2-1.7-10.5-8.4-4.8-9.4C1617.5 461.3 1612.6 470 1615 472 1614 471.2 1615 472.1 1615 472zM1615.3 456.2C1614 459.8 1615.1 456.7 1615.3 456.2c-1.8 4.8-10.1 2.9-11.8-0.8 0.1 0.5-4 3.1 0.3-1.6 2-2.2 5.1-3.2 6.9-5.7 0.9-1.2 1.8-7.6 3.1-8C1617.1 443.4 1616.7 452 1615.3 456.2 1614.3 459.1 1615.5 455.4 1615.3 456.2zM1626.6 442.7c0.1-1.9-0.9-11.8 3.7-8.7 2.9 1.9-0.7 6.3 1.7 8.1C1630.2 442.2 1628.4 442.4 1626.6 442.7 1626.8 439.7 1628.4 442.4 1626.6 442.7zM1668.2 443.8c-0.4-0.4-0.7-0.8-1-1.3C1668 443.2 1668.3 443.9 1668.2 443.8z"/></svg>