<svg version="1.1" xmlns="http://www.w3.org/2000/svg" x="0" y="0" width="100%" viewBox="0 0 1680 404" enable-background="new 0 0 1680 404" xml:space="preserve"><path fill="#497379" d="M1680 286c0 0-3.8 2.9-6 3 -2.6-6.2 7.2-13.1 5.7-19.8 -1.2 0.6-2.3 0.5-3.2-0.1 -0.2-2.1-0.7-2.4-3.4-5.1 1.4 1.4 6-7 6.6-7.8 -1 0.4-1.8 0.9-2.6 1.6 -0.2-3.1 2.6-5.2 1.3-8.4 -0.4 0.4-2.5 3.2-3.3 1.7 -1.2-1.9 3.6-7.8 4.5-9.5 -1-1.2-5.1 3.9-6.1 4.1 1.6-3-0.2-17.5-1.6-16 -1.2-0.8 0.7-4.3-0.1-5.6 -0.4-0.7-2.5 0.3-3.2-1.3 -1.5-2.9-1.3-9.8-5.6-9.8 0 1.6-0.6 11.6-2.7 11.7 -2.2 0.2-0.6-4.4-2.9-4.2 -2.3 0.2-0.6 5.2-1.4 6.2 -4.8-3.6-0.4 10.2-3.2 7 0.2 2.2-4.7 17-7 12.6 -0.2-0.3 3.6-2.8 2.5-3.4 -0.5-0.2-6.4 3.6-6.4 2 0-2.3 5-1.6 5.1-4.8 0.1-3-3.7-5.3-3.6-8.9 -3.1 0-1.1 6.8-3.8 6.8 -0.7-0.6-1.3-1.3-2-1.9 -1.7-0.1-0.5 4 1.3 4 0 1.4-3.6-0.6-3.9-0.6 0.3 0.6 2.5 7.2 3.6 6.1 -1.7 1.6-4.4-1.7-5.8 0.7 -1.2 2 3.3 1.8 3.3 3.3 0 1.5-3.3 0.1-3.8 0.6 0.5-0.3 3.6 3.4 4.2 3.5 -1.7 0.4-3.5 0.3-5.2-0.2 -1.2 2.8 6.8 4.1 6.6 3.9 0 0-13.4 5.9-14.8 5.5 2.9 0.9 12.1-11.9 7.3-14.1 -1.3-0.6-2.1 3.1-3.5 1.7 -1.1-1.1 1.9-8.4 2.9-9.5 -2.2 2.2-4.7 7.2-8.5 6.4 7-0.3 3.8-13.9 0.3-16.1 -7.3-4.5-1.1 9.2-2.2 9.2 -3.4 0-0.4-5-1.9-6.5 0.4 0.4-2.5 4-2.5 4s-2.1-16.1-2-21.5c0.3-11 0.3-22 0.6-33 0.2-11.1 0.7-22.2 1.1-33.2 0.1-4.3-2.8-17.6 4.7-13.4 -3.3-2.8-5.8-6.9-1.4-9.6 -1.3 0.9-2.3 0.7-3-0.4 -0.7-2.8 3.4-1 3.9-0.7 -1.6-1.7-5-9.9 0.3-7.3 -3.3-2.3-2.9-6.6-3.3-10.1 0.7 0 5.6 7.7 5.3 8.3 0.4-0.7-1.2-2.3 0.5-1.7 -0.8-0.8-1.6-1.5-2.4-2.3 0 0 4.1 1.5 4.4 1.4 1.5-1-4.6-4.9-4.6-5.6 2-0.5 2.8-4 1.5-5.7 -0.8 0.2-1.5 0.4-2.3 0.5 -0.5-0.2 2.1-1.6 2.4-1.6 -0.7-0.2-1.3-0.3-2-0.4 4.9-1.4 2.1 1.1 6.5 2.9 1.4 0.6 2.3 2.9 4 3.1 1.6 0.2 0.6-2.2 2.4-1 -0.9-0.7-1.9-1.2-3-1.6 0-0.2 6.4-0.6 6.3-0.3 -0.2-0.4-8.6-5.7-9.7-5.9 0.5-0.2 2.2-1.3 2.4-1.4 -0.8-0.2-1.5-0.6-2.1-1.1 -0.4-1.1 9.7-2.7 10.8-3.5 -1.7-0.4 0-2 0.7-1.8 -2.9-1-2.1 0.9-3.9-0.3 -0.9-0.6-0.3-3.4-1.4-3.9 -2.6-1.4-4.5-2.1-7.1-3 1-0.4 1.8-1 2.4-1.9 -0.6 0.1-0.9 0.1-0.7-0.3 3.6 0.6 8.9-2.2 9.7-6 -0.3 1.1-10.6-4.5-11.6-5.4 2.5 0.2 6.5-0.6 8.5-2.2 -3.1 0.3-3.2-11.2-5.9-13.7 -1.2-1.1-4.5-0.8-6-1.7 -2.1-1.2-3.8-3-5.7-4.2 -2-1.2-1.9 1.2-4.4-0.2 3.9-1.8-5.8-2.2-6.6-2.1 -8.6 1.4-0.8 1.5-0.1 2.9 -3.5 1.5 0.2 1.9-4.1 1.8 1.6 0.3 1.7 0.7 0.2 1.3 1.6-0.2 2.9 0.2 4.1 1.3 -1.6-1.6-6.9-0.8-7.9 1.3 1.3-0.2 2.4 0.1 3.4 0.9 -0.9 0.2-6.5 3.2-6.3 4.2 0.7 3.1 12.7-0.1 12.7 2.8 -3.8-3-11.2 2.4-12.1 2.7 1.3 0.4 12.3-1.6 11.4 1 -0.5 1.5-3.1-3.6-2.5 0.5 -0.8-0.9-1.8-1.2-3-0.9 0.2 1.4 1 2.1 2.4 2.2 -0.9 1.5-7.7 0.9-8-0.7 0.6 0.7 1.2 1.4 1.8 2.1 -1.1-0.3-1.2 0-0.3 0.9 -2.8-2.6-3.7 0.7-6.4-0.9 0.2 0.9 0.6 1.4 1.4 1.5 -1.2 0.8-2.8 3.5-4.8 2.2 0.7 0.4 4.3 4.1 1.3 3.2 2 1.4 5.5 0 7 2.3 -1.1 0.4-5.9 1.8-3.7 3.4 -1.2 0.1-2.5 0.1-3.7-0.1 -0.7 2.1 4 1.4 4.6 1.4 -0.3 0.6-0.8 0.9-1.6 0.9 0.5-0.7 7.7-1.1 6.7 0.5 -1.8-0.5-5.3 2.7-7 1.2 0.9 0.9 1.5 2 1.6 3.3 0.1-0.4-3.4 0-3.5-0.1 0.3 0.7 0.7 1.4 1.2 2 -0.5 0.4-1 0.4-1.4 0.1 3.9 3.8 11.1-0.1 10.7-0.3 0.9 0.2 1.8 0.3 2.7 0.5 -0.2-0.6-0.3-1.2-0.5-1.8 0.8 0.8 3.4-1.6 3.8 0 0.5 2.1-6.8 4.4-7.8 5 -2.3 1.5 2.1 1.6-4.2 3.4 -1.6 1.8 5.6 2.6 4.7 2.4 -1.6-0.4 5.7-3.2 3.7 0.1 1.6-1.9 2.6-2.5 2-4.8 4.2 0 1.3 11.7-2 6.5 2.9 2.8 2.1 4.1-2.4 4 -0.4 0.6 4 1.9 4.3 2 -1.6 0.4-3 0.2-4.4-0.6 0.9 0.6 1.6 1.4 2 2.4 -0.6-1-1.4-1.1-2.2-0.3 6.8 3.7 10 3 10 11.7 -1.2-2-2.3-4-3.5-6 0.9 1.2 1.3 2.5 1.2 3.9 -0.5 0.5-5.2-1.1-5.3-1.1 3.1 0.8 7.3 2.3 8 6 -1.3-0.8-2.3-1.9-2.9-3.3 1.3 2.5 2.2 5.1 2.9 7.8 -1.9-1 1.6 84.2 0.3 102.3 0-2.4-2.1-7.5-3.1-9.7 -1.2 0-2.8 4.3-3 6.5 -0.1-1-0.5-2-1-3 -2.5-1-0.3 8.5-0.7 8.6 -2.3 0.6-1.8-7.2-5-3.6 -1.4-1 1-4.1-0.1-5.6 -0.6-0.8-2.4 0.4-3.2-1.3 -1.5-2.9-1.3-9.8-5.6-9.8 0 1.6-0.6 11.6-2.7 11.7 -2.2 0.2-0.6-4.4-2.9-4.2 -2.3 0.2-0.6 5.2-1.4 6.2 -4-3-1.3 5.6-1.8 7.1 0-0.1-6.1 6.6-5.9 6.7 -0.1 0-3.3-12.2-3.7-13.6 -3.8 0-0.9 4.7-4.6 2.7 0.8 0.7 1.1 5.4 1.6 5.7 -0.7-0.8-1.5-1.6-2.4-2.3 -0.7-0.1 0.5 5.2 1.3 4.8 -1.3 0-5.5 3.7-6.3 3.1 -1.7-1.8 3.7-4.1 1.8-6.1 -1.5-1.6-3.5 3.5-4.3 3 -0.5-1.6-1.1-3.1-1.6-4.7 0.3 1.2 0.2 2.3-0.2 3.4 0.7-4.3-0.9-9.5-1.2-13.9 -0.8-13.2 0.1-26.6 0-39.9 -0.1-11.7-0.5-66.8-0.5-68.2 2.9 0.6 5.8 1.2 8.7 1.9 -2.6-0.9-13.5-8.4-5.2-7.8 -3.5-0.5-3.3-4.4 0.2-4.7 -4.7 0.2-5.3-9.8 3.1-4.6 5.4 3.4 4.9 14.4 15.4 11.7 -0.8 0.2-3.2-1.9-4.1-1.9 0.1-0.1 5.2-2.1 5.1-2.3 -0.1 0-5.1-2.4-5.1-2.4 -1.8-2.7 2.9-2.8-1.4-5.7 -2.2-1.5-6.6-1.1-9.1-1.8 -1.5-0.4-9.1-2-7.9-5.1 0.9-2.6 8.4 0.1 8.3-0.6 1.3 5.4 4.3 0.1 7.2 1.9 -2.5-1.9-5.7-3.3-7.9-5.6 1.6 0.7 3.4-4.7 4.4-4.8 1.5-0.1 22.8 12.4 17.3 1.3 -1.3 2-7 2-7.3 1.6 4.6 1.2 11.4-7.7 11.3-10.4 -1.3 1.4-6.9 1.6-6.3 2.3 -0.1-0.9-0.3-1.8-0.4-2.6 1.3 0.9 9-1.5 7-3.3 -5.8 2.6-3-8.1-1.6-8.5 -2.3 0.4 0-1.3-1.5-2.1 -1.6-0.5-1.8 2.6-3.8 2.1 1-0.7 1.8-1.6 2.3-2.7 -1.5 0.3-2.9 0.3-4.4 0 0.2-0.4 3.5-5.5 3.9-3.7 -0.8-1.6-1.6-3.2-2.4-4.9 -0.5 0.4-0.9 0.9-1.4 1.3 -0.8-2.8 1.9-5.5 1.9-8.3 -3.6-1.8-8.4-4-12.2-5.6 -1.1-0.4-3.9 0.3-4.7-0.4 -0.6-0.5-0.6-2.6-1.3-3.1 -1.5-1 1.4-6.7-3.3-2.3 -1.9-4.6-2 1-2.2-4.2 -0.7 3.2-5.7-3.2-6.6-3.6 0 1.1-4.2 5.7-4 5.9 0.4-4.1-5.9 1.4-5.9-1.5 0.4 2 1.1 3.9 2.1 5.8 -1.6-1-2.1-0.3-4.1-1.7 0.5 1.2 0.9 2.5 1 3.9 0.6 1.2-4.2-0.1-5-0.7 0.5 1.9-2.2 4.3-2 5 0.8 2.7 4.3 3.2 7.9 4.6 -1.4 1.4-7.4 1.7-8.5-0.2 -0.3 0.6-0.7 1.2-1 1.8 2-3.7-5.9-4.9-6.7-3.4 0.7-1.3 1.5 5.8 1 4.3 0.6 2 0.5 4.8 5.1 6 2.7 0.7 4.2-0.9 6.8-0.5 2.5 0.4 3.6 3.9 8.2 1.9 -2.2 0.9-0.8 1.1 0.4 1.6 -1 0.6-4.9 2-4.8 0 0.1 0.6 0.2 1.2 0.4 1.8 -0.4-1.4-1.2-2-2.3-1.8 -0.3 0.5 0 4.6-1.4 3.5 0.2-0.8 0.4-1.5 0.8-2.2 0.4 1.1-4.5 0.3-2.3 3.8 0.4 0.6 6.5 2 6.8 1.4 -2 3.8 0.2-3.3-2.9 2.9 -0.1-0.9-0.3-1.8-0.5-2.6 -0.1 1.2-3-0.9-1.5 1.5 0.2-3 0.9 0.6 0.5 0.8 0.1-0.1-2.8-2.3-2.8-2.5 0.3 1.2 1 2.1 2.2 2.6 -0.6 2.1-4.9-1.5-7 1.7 1.3-3.5-0.9-2.7-2.9-3.6 1.7 1.9-0.1 1.5-0.1 2.7 0.3-1.4 0.1-2.7-0.6-3.9 -2.5-0.4 1.6 6.9 2.6 7.6 2.9 1.9 10.3-1.3 10.7 3.9 0.2 2.6-8.7-0.3-7.8-0.3 0.1 3.1-2.8 0-3 3.2 -0.7-0.5-1.4-1-2-1.5 -2-0.1 4 3 3.3 2.7 1.1-0.9 2.4-1.1 3.8-0.6 0.9 1.4 2.2 2.5 3.7 3.4 -0.5-1.9 0-3.2 1.4-3.9 9.2 2-11.2 5.5-9.1 4.6 -8.3 3.7 4.9 3.3 3.3 6.7 -1 0.1-2.1 0.2-3.1 0.3 0 5.7 8.6-0.6 9.2-0.6 -0.1 0 8.3 0.7 7.8 1.2 -0.9 0.8-4.9 0-5.1 1.7 -0.1 1.2 10 2.2 8.3-1.7 2.1 0.8 0.6 5.2 0.6 6.5 -2.6-0.8-5.2-1.7-7.7-2.5 3.6 1.7 7.5 3 7.5 7.7 -2.4-2-5-3.8-7.8-5.3 1 0.8 7 10.2 6.7 10.2 -1.2-0.6-2.3-1.5-3.2-2.6 1.3 1.4 6 7.4 0.8 6.7 1.4 0.6 4.9 4.8 0.9 4 1.5 0.7 3.2 3.7-0.3 2.8 1.8 1 3.7 4.9-0.6 2.5 5.3 5.3 2.7 15.3 2.5 21.9 -0.3 11.5-0.2 23.1-0.4 34.7 -0.5 23-0.4 46-0.3 69 -1.1-0.1-2.3-0.2-3.4-0.3 -0.3 0.3 3.4 5.2 3.4 6.1 -1.2-0.2-2.4-0.2-3.6-0.1 0 3.9 7 3.5-0.4 5.1 -1.9 0.4-10-3.1-10.8-2.4 1.3-1 7.1-0.3 7-2.8 0-0.6-3.6 0.5-3.6 0.4 -0.8-3.1 9.1-9.5-3.2-6.4 2.6-0.7 5.6-2.6 6.9-5.1 -1.1 0.3-2.3 0.3-3.4-0.1 0.6-1.2 1.3-2.2 2.2-3.2 -1.2 2.1-7.9-0.4-7.9-0.3 0-0.1 8.2-2.9 7.7-3.4 -0.6-0.9-6.4 0-7.4 0.3 2.4 0 3-7.7 1.7-7.3 -0.4 0.1-2.9 3.2-3.2 3 -0.3-1.7-0.8-3.2-1.6-4.7 0.3 1.2 0.3 2.4-0.3 3.5 -0.2-0.7-0.6-1.3-1.1-1.8 -1.6 0.8 1.4 1.9 0.9 2.7 -0.6 1.2-3.4-1.2-3.7 0.2 0.6 1.4 1.6 2.1 3.1 2 -2.3 1.7-16.1 5.5-19 4 3.2-2.8 12.4-3.6 12.5-9 0.2-6.6-4.9 2.6-6.9 0.6 -0.3-0.3 4-3.2 2.8-4.5 -2.3-2.5-4.8 4.7-7.4 2.2 2-0.6 0.3-0.2 0.3-1.3 0 0.2 10.4-4.2 8.4-5.7 -0.9 0.5-1.8 0.9-2.6 1.4 -0.2-1-0.3-2-0.5-3 -1.8-0.7-3.4 4.1-5.2 4.1 0-2.7 3.7-2.6 3.5-5.5 -1 0-1.8 0.4-2.4 1.3 0.1-2.9 2-7-0.2-9.5 -3.1-3.5-4.2 1.6-4.2 4.1 -0.1-1.2-0.4-2.4-0.8-3.6 -1 0.5-1.6 8.2-1.7 8.2 -0.3 0-0.9-3.8-1.2-4.1 0.8 0.6-1.6 5.5 1.8 6.4 -1.9 0-5.3-6.1-5.3-1 -0.3-21.7-1.2-120.9 6.1-117.2 -1.5-1.1-5-8.1-0.7-5.8 -3.5-2.5-1.3-6.7 2.6-6.1 -4.8-1.7-3.7-9.9-1.2-8.3 -0.6-0.8-3.5-5-1.1-5.8 -1.3 1.9 4.7-1.7 4.7 1.4 -2.2-0.7-0.1 0.6-1.8 0.6 0.6 0.3 0.8 0.7 0.3 1.4 0.2-0.1 4.4-0.6 3.7 0.5 -1 1.5-2.8 2.5-0.6 4.3 0.3-0.7 0.6-1.3 0.7-2.1 1.2 2.4-6.8 11.4-1.9 11.4 2.3 0 0.1-5.3 3.2-0.8 -1.4-2.8 0.4-2.8 0.1-4.9 -0.4 0.2 4.6 6.3 6.5 3.8 0.1-0.2-2.9-5.4-1.9-4.1 -0.3 0-0.3-0.1-0.2-0.2 0.1 0-3.9-6.3-4.9-6.3 2.9-1.5 3.5 5.8 5.8 1.8 2.7-4.9-5.9-7.2-7.9-9.1 0.9 0.4 0.5-2.7 0.7-2.9 -1 1.5 13.5 3.5 4.8-2.9 0.3-0.2 8.6-9.9 9.9-7.2 -1.2-2.3-6.5-1.1-2.7-4.8 -5.2-1.5-3.1-4.2-5.4-9.1 -1.6-3.5-2.4-1.3-4.2-5.8 0.2 0.1 3.7 0.5 3.5-0.3 -2.1 0.1-2.2-0.3-0.4-1.4 -0.4-0.7-5.4-0.9-4.9-2.3 5 4 8.2-2.3 6.9-5.6 -0.9-2.1-8.4-8.2-10.8-8.7 0.3-0.1 2.9-2.8 2.9-3.2 -0.1 0.5-23.8-2.3-26.3 0.3 0 0.2 4.5 6.5 2.5 6.6 -0.9-0.9-1.9-1.2-3.1-1.1 0.6 0.4 1.2 0.8 1.8 1.2 -0.5 3.1-4.6 1.3-5.4 4.3 0.2-0.9 3.7 6.5 0.1 3 -0.1 1.2 1.9 7.6 2.2 7.6 -1.2-0.9 1.5 2 2.3 2.9 0.2-0.8 0.7-1.5 1.4-1.9 -3.9 4.8 2 2.3-3.5 3.7 1.7 1.7-10.4 10.9-5.2 11.8 -3 0.8-7.3 3.4-9.4 5.6 1-1.1-1.7 7.9-3.1 6 1.6 2.2 6.3 0.6 5.9-2.3 0.4 0.6 0.9 1.3 1.3 1.9 0.3-0.4 0.5-0.9 0.6-1.4 0.4 0-8.3 9.2-7 11.3 -0.2-0.2 6.8-1.6 4.2-0.1 2.1 0.9 1.4-5.1 3.3-5.1 1.2 1.6 3.9 8.5 7.1 5.8 -0.8 0.7-6.1-8.7-6-9.6 0.6 0.7 5.3 2.8 5.8 1 -0.7 1.3-0.4 2.1 0.8 2.3 -0.1-2.5 7.9 3.1 9.2 4.1 5.9 4.9 1.8 4.8 1.8 12.3 -1.6-1.4-3.3-2.8-4.9-4.2 0.5 0.5 4.2 5 4.1 5.1 -1.5-1.5-0.9 0.5-2.6 0.5 1.1 1.8 5.8 3.7 1.5 5.3 5.4-1 2.5 37.5 1.9 50.6 -0.8 17.6-0.6 35.2-0.6 52.8 0 4.7 0.4 51.2-1.8 51 -1-0.1-0.5-9.2-1.4-10.2 -3.9-4.5-2.2 2.1-4.6 0.9 2.8 0-1.2-7.5-1.4-6 -0.1-1.9-0.6-3.7-1.4-5.3 -1.2 0-2.8 4.3-3 6.5 -0.1-1-0.5-2-1-3 -2-0.8-0.6 8.6-1.2 8.6 -2-0.1-0.3-3.6-1.1-3.8 -0.7-0.2-5.2-0.5-6-0.9 -0.5-0.5 7.8-5.8 6.4-6.8 -0.2 0.3-2.4 1.3-4.1 1.7 1.8-2.2 0.8-5.1 1.8-7.4 -2 1.3-6.5 2.9-8.6 0.8 2.8 1.9 4.8-2.3 6.3-3.2 -0.4 0.1-0.7 0.1-1.1 0.1 0-1.2 3.3-2.4 3.2-4.2 0-1.1-5.6-2.8-6.4-4.5 0.4 0 4.8-2.3 3.4-2.9 -0.9-0.4-3.5 2.1-4.2 0.6 0.7 1 2.7-6 1.2-4.9 -1.6 0.1-3 3.5-4.8 2.3 2.2-0.9 3.4-2.6 3.5-5 0 2.3-2.9-0.5-3.1-0.9 -0.4 0.9-0.7 1.9-1.1 2.8 -0.1-0.8-0.3-1.6-0.6-2.4 -0.5 1-0.8 2.1-1.1 3.2 -0.4-0.8-0.9-1.7-1.3-2.5 -1.2 0.4-0.2 5.1-0.8 5.1 -1-1-1.7-2.1-2.2-3.5 -1.9 2.9 3.6 4.1 2.3 6.8 -1.7 3.7-5.4-0.4-5.4-0.4 -0.4-0.7-3.1 0.8-3.1 1.4 0.3-1.1 1.5-8.2 2.8-8.7 -1 0.4-2.1 1.9-1-0.6 -2.4 0-4.7 3.8-7.2 2.2 3.2 1.7 8.4-8.2 7.8-10.6 -0.5 0.3-1.1 0.5-1.7 0.7 -0.1-1-0.1-1.9 0.1-2.8 -0.6-0.9-3.6 3.6-4.2 3 0.3 0.1 1.7-6.3 1-7.7 -0.5 0.4-1 0.8-1.5 1.3 -0.7 0-1.1-9-1.9-2.7 0.3-0.3-2-5.2-2.5-5.2 0 0.3-0.7 5.1-0.9 5.1 0-0.8-0.1-1.5-0.1-2.3 -1.2 2.5-2.1 2.3-2.7-0.6 0.3 2.1 0.3 4.2 0.2 6.4 -1-1.1-1.9-2.3-2.8-3.5 0 3.6 1.8 6.9 1.8 10.5 -0.7 0.7-3.9-1.7-3.9-2.4 0.2 1.2 0.4 3.2-1.1 0.7 0 1.8 0.9 7.1 3.5 7.1 0 0.9-4.2-0.6-4.5-0.3 -0.3 1.6-0.2 3.2 0.4 4.7 0.2 0.2-4-3.6-4-2.8 0 1.3 4 9.3 5.3 9.2 -2.2 0.5-2.1-3.3-4-3.1 -2.3 0.2 2.9 7.1 2.3 8 -0.6 1-6.1-3.2-5.3-2.7 0.6 1.1 3 9.6 4.7 9.6 -1-0.4-1.8-1-2.5-1.8 -0.3 0.8-0.2 1.6 0.3 2.3 0.1 1.6-3.8-1.2-3.8-1.2 -2 0.5 2.2 6.4 2.8 7.1 -1.8-1.6 3.7 11.2 3.7 13.1 -1.8-1.4-8.7-1.5-8.7-4.3 -2 7.9 16.3 6.2 13.6 10.3 -2 3-9.3 1.2-11.5-0.5 -3.5-2.6-1-6.8-6-4.2 0.1-0.1 1.1-5.5 0.5-6.3 -1.3-0.6-2.3-0.3-3 0.9 0.3-1.1 1.5-8.2 2.8-8.7 -1 0.4-2.1 1.9-1-0.6 -2.4 0-4.7 3.8-7.2 2.2 3.2 1.7 8.4-8.2 7.8-10.6 -0.5 0.3-1.1 0.5-1.7 0.7 -0.1-1-0.1-1.9 0.1-2.8 -0.6-0.9-3.6 3.6-4.2 3 0.3 0.1 1.7-6.3 1-7.7 -0.5 0.4-1 0.8-1.5 1.3 -0.5 0-1.1-7.9-1.8-3.5 -0.4-16-1.5-32-1.3-48.3 0.2-20.2 0.3-40.4 1.3-60.6 2.2 0.2 4.4 0.5 6.6 0.7 -5.7-1.2-5.9-5.7-1.9-9.2 -0.1 0.1-0.1 0.1-0.2 0.2 1.2-1.6 0.6-3.2-1.7-4.9 0 0.3 5.6 0.8 6 0.9 -1.3-0.4-3.4-0.5-5-1.2 3.1 0.5 5.4-5.5 8.3-3.2 -3.2-2.6 1.9-2.5 2.7-4.2 -1.2 1.3-3.2-0.9-3.5-1.9 2.5 1.5 0.3-0.8 0.2-1.3 0.9 0.3 1.8 0.6 2.7 1 -0.6-0.7-0.8-1.6-0.6-2.6 1.1 0.6 1.9 1.5 2.6 2.6 1 2.3 1.8 2 2.6-1.1 0 2.2 6.7 2.6 6.5 2.6 -1 1-1.9 2-2.9 3 0.4 1.5 10.9-0.7 11.9-2 1.3-1.7-0.1-9-2.9-10.1 -0.8 0.3-1.3 0.8-1.7 1.6 -5.2-8 4.5-4.6 3.1-11.5 -0.9-4.2-7.5-3.5-10.2-7.4 -3.4-4.8 0.1-2.9-0.5-7.1 -0.5-3.5-2.3-5.2-3.5-7.9 -1.1-2.3-3.1-10.7-8.3-10.8 6 0-7.4-10.2-11.8-10.2 -6.1 0.1-6.4 2.1-9.6 5.5 -0.7 0.8-6.3 9.5-7.3 8.9 -0.4-1.1-0.3-2.1 0.3-3.1 0-1-4 4-4.1 6.1 0-0.7 4.9 5.8 2.6 5.8 -0.1-1.1-0.6-2-1.3-2.7 0 1.6-0.7 2.8-1.9 3.7 -0.9-1-1.9-1.9-2.8-2.9 -1 1.4 2.6 3.3 2.5 4.8 -0.2 2-4.4 1.6-4.5 3.7 -0.1 1.9 3.9 0.9 3.8 2.6 -0.3 2.3-3.1 3.8-2.8 6.1 0.9-0.1 1.9-0.3 2.8-0.5 1.9 3-9.2 1.7-3.6 7.4 -0.2 1.3-1.8-0.4-1.7-0.6 -0.7 3.8 3.7 10.1 0.7 11.7 4-1.3 6.7 1.5 10 1.7 3.9 0.3 3-4.4 8.8 0.2 -1.7 0.7-3.8 2.1-1.5 3.6 6.3-2.7 7.6 2.7 8.4 8 -1.7-1.1-3.3-2.3-4.8-3.6 2.6 3-9.9 0.8-10.8 0.6 2 0.5 4.1 1 6.1 1.6 -0.6 0.4-1.2 0.6-1.9 0.6 1.7 0.8 2.8 2.8 4.2 4 2.3 2 3.8-1 3.3 2.4 0.9-1.6 1.1-3.2 0.6-4.9 3.1 1 5 9.9 0.9 7.8 1.3 1.7 4.3 10.1-0.6 8.2 2.5 1.3 3.8 8.9-0.2 6.4 0.7 0.9 1.5 1.8 2.2 2.7 -2.1-0.5-4-1.4-5.8-2.7 3.4 2.7 5.7 4.8 5.7 9.5 -1.9-1.1-3.9-2.2-5.8-3.3 5.8 4.3 6 11.4 6.1 17.9 -1.8-1.2-3.6-2.4-5.4-3.6 3.6 3.3 4.8 7.3 4.8 12 -2.2-1.8-4.4-3.6-6.6-5.4 8.3 9 6.7 20.4 6.1 31.6 -0.9 14.9-1.1 29.8-1.7 44.7 -1.1-0.8-1.9-1.8-2.4-3 0 3.6 1.8 6.9 1.8 10.5 -0.8 0.8-5-2.8-3.9-1.7 -1-1-1.6-7.3-3.4-7.4 -1.5-0.1-1 4.4-2.8 3.5 2.8 0-1.2-7.5-1.4-6 -0.1-1.9-0.6-3.7-1.4-5.3 -1.2 0-2.8 4.3-3 6.5 -0.1-1-0.5-2-1-3 -2.5-1-0.3 8.5-0.7 8.6 -1.5 0.4-1.2-3.7-2.8-3.6 -3.3 0.4 0.6 6.9 1.6 8 -2-0.4-3.3-1.5-3.9-3.4 0 4.7-14.5 10.3-13.3 4 0.6-3.1 16.4-4.3 12-8.7 1.5 2.9-9.6 4.3-11 4.4 3.2-0.5 7.8-4.9 8.2-8 1-7.2-1.9-1.5-4.3-3.9 -1.1-1.1 1.9-8.4 2.9-9.5 -2.2 2.2-4.7 7.2-8.5 6.4 7-0.3 3.8-13.9 0.3-16.1 -7.3-4.5-1.1 9.2-2.2 9.2 -3.1 0-1.1-4.8-1.8-6.3 -0.5-1.6-0.9 13.6 2 10.7 -2.2 3.3-6-6.1-7-4.8 -0.8 1.1 1.4 4.2 2.2 4.7 -1.2-0.3-4.7-1.1-4.7-2.9 0 3.7 2.4 8.2 5.1 10.6 -0.1-0.1-6.2-4.8-6.9-4 -1.2 1.3 8.7 9.6 6.3 11.2 -2.2 1.4-6.2-4.8-8.6-4.7 0.2 0 9.2 15.9 5.9 17.1 1.2-0.4-6.4-5.4-6.4-5.4 -0.9-0.9-2.4-1.1-3.2-1.9 -1.3-1.2 1-2.9 0.1-4.4 -0.9-0.1-1.8-0.1-2.7-0.2 0.4 0 4.8-2.3 3.4-2.9 -0.9-0.4-3.5 2.1-4.2 0.6 0.7 1 2.7-6 1.2-4.9 -1.6 0.1-3 3.5-4.8 2.3 11.1-7.4-4.4-5-4.4-7.8 -0.9-1.9 5-3.1 5-5.1 0-0.1-5.5 1.9-6 1.7 -3.1-1.4 3.6-4.8 1.1-6.6 -0.7-0.5-7.2 2.6-6.8 0.1 0.7-3.9 7.6 0.3 7.6-5.5 0 1-3.5 0.2-3.9 0.1 1.5-0.4 2.7-1.2 3.7-2.4 -0.5 0.8-5.8 0.5-7-0.2 1.4 0.7 7.7-1.9 6.3-4.8 -0.2 0-4.1 1.9-4.1 1.3 0.5-0.8 1.2-1.1 2.1-1 0.8-0.5-2.6-1.4-4.5-2.1 1.8-0.7 3.5-1.7 5-3 -5.8 1.3-0.9-3.9-3.6-6.6 -0.7 0.8-1.3 1.6-2 2.4 0.1 0 0.2-4.2-0.8-3.7 -0.1 0.8-0.3 1.6-0.7 2.4 -1-0.9-1.4-2.1-1.4-3.4 -0.4 1.8-0.5 3.7-0.2 5.5 -0.3-1.5-1.1-2.7-2.4-3.5 0.1 1.5 0.3 3 0.6 4.5 0.5 1.8-0.3 2.5-2.3 2.1 0 1.3 2.7 5.2 2.4 5.9 0-0.1-9.9-4.3-4.3 2.4 -4.5-1.9 1.2 3.3 2 3.7 -0.5-0.1-9-0.6-8.3 0.7 1.3 1.2 2.9 1.9 4.7 2.3 1.3 0.7-1 8.1-1 8 -1.8 3.1-9.2-3.7-3.3 6.1 -2.1 0.6-4 1.5-5.8 2.7 -0.4-3.5-0.5-2.5-3-1.1 0.7-0.6 3.7-6.6 2-7.1 -1.4 0.2-0.6 0.9-1.6 2.1 0.1-27.4-0.5-54.8-1.6-82.2 -0.5-12.3 0.5-44.8 1.3-42.2 -0.2-0.8-0.4-16.9-1-17.1 1.2 0 5.2 0.5 6.8 0 -0.5 0.2-4.7-1.1-4.5-1.9 0.3-1 6.2-1.3 6.4-1.2 0 0 1.4 1.9 1.5 2.2 1.6 0.6 0.7-3.2 0.9-3.3 1.8 0.6 4.1 0.6 6.1-1.4 -0.8-0.2-1.6-0.4-2.4-0.6 2.6-3.4-3.8-4.2-2.5-4.5 -1.7-0.2-6.4-2.3-6.8-2.5 -0.2 0.7-0.2 1.3 0.1 2 -2.4-0.2-4.3-3.4-5-5.3 1 1.8 2.4 1.8 4.2 0 -0.2-0.2-2.1-1.8-0.3-1.2 -3-0.3-3.7-1.5-1.9-3.4 2.6 3.3 6.1 6 8.9 9.1 0.2 1 3.7-1.1 3.9-1.3 -1.1-0.3-2.2-0.4-3.4-0.5 1.5-0.7 2.7-1.7 3.4-3.2 0.3 0-4.4-0.1-4.1-0.2 2.3-0.9 2.3-2.1 0.2-3.6 -4.2 3.1 9.5 0.1 5.1 0.1 0-0.2-8.7-5-7.9-6 0.7 0.3 4.6 1 4.7 2.1 -1.6-4.7-0.2-2.6-6.1-3.6 1.5-0.2 6.5-1.9 6.5-3.9 -0.6-0.8-1.4-1.1-2.5-0.9 -2.1 0.4-2.5-0.6-1.3-3.1 -1.6 0.2-3.1 0.4-4.7 0.6 1.6-0.8 0.1-1.3 1.7-1.8 -1.1-0.3-6.4-3.2-7.2-2.1 1-1.3 5.1-0.1 6 0.6 -0.2-0.4-1.1-2-1.9-2.5 1.8 0 5.2 0.6 5.8 0.4 -3.5-1.7-1.1-3.8-5.2-6.3 -1.8-1.1-2.2 0.6-4.6-0.2 -0.5-0.2-11.1-6.9-11-0.3 0 2 3.7-0.6 4.3 0.7 -3.5 1.5-0.2 1.7-4.3 1.6 4 0.9-1.3 0.9 0.7 1.7 -1.9 0-4 0.6-4.6 1.8 0.6-0.7 3.1 1.1 3.5 1 -1.5 0-5.9 2.4-6.4 3.9 -0.3 0.9 11.4 2.8 12.2 3 -1.3-0.3-2.6 1.6-2 2.6 1.1 0 2.2 0.2 3.3 0.6 0.4 1.5-6.1 0.3-6.6 0.2 0.1 1.4 0.9 2.2 2.3 2.3 -0.4 0.7-3.4 0.1-3 1.4 -0.4-1.3-4.3-3.4-5.5-2.1 0.8 0.6 1.6 1.3 2.3 1.9 -1.1-0.2-1.2 0.1-0.2 1 -2.5-2.6-3.9-0.3-6.7-0.9 4.1 2.3-1.5 4.6-3.2 3.4 0.2 0.1 3.1 4 1.3 3.3 1.2 0.5 5.6 3.3 6.6 3 -1.2 0.4-5.5-0.1-3.7 2.8 -1.1 0-2.2 0-3.3-0.2 0.5-0.5 1-1.1 1.4-1.8 -0.8 1.9-10-4.7-11.3-5.4 2.2 0.1 6-0.6 7.8-2.1 -1.1 0.5-2.2 0.3-3.2-0.3 0.9-0.1 1.8-0.4 2.6-0.8 -2.8 0.3-2.1-8-4-10.3 -1.7-2.1-5.2-3-7.5-4 -2.4-1.1-6.7-1.9-8.1-2.6 4.2-2-12.4-3.2-10 0.5 1.3 0.1 2.6 0.1 3.9 0.2 -4.8-0.5 1.7 1.8-3.8 1.6 -0.5-0.1 1.3 1 2.7 1.8 -2-0.4-5.1 0.4-5.9 1.7 1.1-0.1 2.2 0.2 3.1 0.9 -1.1 0.2-5.4 2.4-5.8 3.6 -0.4 1.2 11.7 1.8 11.7 2.8 -2.2-1.8-5.6 2.1-8.3 0.3 1.3 0.7-1.1 2-2.5 0.5 -0.1 0.6 7.1 4 7.3 4.1 -0.5 0.8-3.3-0.4-2.7 1.4 -0.2-0.6-3.9-3.5-4.7-2.2 0.6 0.7 1.2 1.4 1.7 2.1 -1.1-0.2-1.2 0.1-0.2 0.9 -1.3-0.6-2.6-1.3-3.9-1.9 -0.5 1.8-0.7 2.8-2.9 0.8 0.6 0.4 0.8 0.5 0.5 0.4 0.9 0.6 1.8 1.2 2.7 1.7 -0.4 1.2-4.4 2-5.4 1.4 0.1 0 3.6 3.5 1.4 3 0.7 0.2 6 2.5 6.1 2.5 -2.6 0.3-4 4.6-6.7 2.7 -0.4 1.1 3.2 1.9 3.6 2 -0.1-0.1-0.3-0.2-0.4-0.3 0.6-0.2 6.3-0.1 5.7 1 -1.8-0.5-4.8 2.3-6.5 0.9 0.9 0.9 1.4 2 1.6 3.2 -1.1 0-2.1 0-3.2-0.1 0.3-0.2 1.8 4.9-0.3 1.6 2 3 2.2 1.9 6.3 1.9 1.1 0 6.8 0.1 3.7-1.7 0.8 0.1 1.6 0.3 2.4 0.4 -0.1-0.5-0.3-1.1-0.4-1.6 1-0.2 2-0.4 3-0.6 -1.6-0.1-7.8 7.1-7.3 8.6 -1.1-1.2-2.1-1.3-3.2-0.3 1.7 2.5 4.7 3.8 6.3 0.8 -1.1 2.1 2.5-0.2 1.4 1.6 1.2-1.2 1.8-2.7 1.8-4.4 4.6 0 1.5 10.3-1.4 6.6 3.2 4.5-2.3-0.1-2.7 3 1.3 0.6 2.5 1.2 3.8 1.8 -0.9-0.2-1.7-0.3-2.6-0.5 -0.6 0.7-0.4 1.5 0.7 2.2 -0.7-0.1-1.4-0.1-2.1-0.2 6 3.4 9.2 2.8 9.2 10.7 -1.1-1.8-2.1-3.7-3.2-5.5 1.4 1.3 1.6 2.5 0.8 3.7 -1.5-0.4-3-0.8-4.6-1.2 2.8 0.7 6.7 2.1 7.3 5.5 -1.2-0.7-2-1.2-2.4-1.5 0.7 0.7 2.4 2.6 2.4 5.5 -0.5-0.3-1.1-0.6-1.6-0.9 3 2.2 2.4 7.1-1.3 7.6 4.9 0.5 1.6 4.7 2.3 6.8 0.4 1.1-0.4 80.6-0.5 100 -0.2-1-0.5-2-0.9-2.9 -2.5-1-0.3 8.5-0.7 8.6 -1.6 0.4-1.3-4.8-3.5-3.1 -2.6 2 1.1 6.9 2.7 8.2 -1.6-0.4-5.1-1.2-5.7-3.1 0.4 1 0.6 2 0.5 3.1 -1.4 0.7-1.2-2.1-2.8-1 0.5 4.2-11.2 8.3-15.4 6.2 3.2-2.8 12.4-3.6 12.5-9 0.2-6.6-4.9 2.6-6.9 0.6 -0.3-0.3 4-3.2 2.8-4.5 -2.3-2.5-4.8 4.7-7.4 2.2 2-0.6 0.3-0.2 0.3-1.3 0 0.2 10.4-4.2 8.4-5.7 -0.9 0.5-1.8 0.9-2.6 1.4 -0.2-1-0.3-2-0.5-3 -1.8-0.7-3.4 4.1-5.2 4.1 0-2.7 3.7-2.6 3.5-5.5 -1 0-1.8 0.4-2.4 1.3 0.1-2.9 2-7-0.2-9.5 -3.1-3.5-4.2 1.6-4.2 4.1 -0.1-1.2-0.4-2.4-0.8-3.6 -1 0.5-1.6 8.2-1.7 8.2 -0.3 0-0.9-3.8-1.2-4.1 0.8 0.6-1.6 5.5 1.8 6.4 -3.5 0-2.6-5-6.3-1.9 -1.6 1.4-1.1 5-1.1 6.7 0 2.3 4.1 13.3 2.2 14.3 -1.2 0.6-2.8-3.6-3.8-3.7 -0.7-0.1-6.9 0.4-6.9 0.4 -4.7-1.6-5.5-6 1.2-7.7 -4.8 1 0.6-2.7-4.4 0.1 5-5.2-2.3-3.5-3.5-6.1 -0.2-0.3 3.6-2.8 2.5-3.4 -0.5-0.2-6.4 3.6-6.4 2 0-2.3 5-1.6 5.1-4.8 0.1-3-3.7-5.3-3.6-8.9 -3.1 0-1.1 6.8-3.8 6.8 -0.7-0.6-1.3-1.3-2-1.9 -1.7-0.1-0.5 4 1.3 4 0 1.4-3.6-0.6-3.9-0.6 0.3 0.6 2.5 7.2 3.6 6.1 -1.7 1.6-4.4-1.7-5.8 0.7 -1.2 2 3.3 1.8 3.3 3.3 0 1.5-3.3 0.1-3.8 0.6 0.5-0.3 3.6 3.4 4.2 3.5 -0.9 0-4.8 1.1-5.3-0.2 0.4 1 6.1 5.5 6.1 2.8 0 2.8-5.7 1.9-5.7 1.6 0.4 0.6 0.8 1.1 1.2 1.6 -4.7 4.7-8-6.6-8.8-9 -4.1 0-0.6 5-4.9 2.5 0.8 0 2.7 5.4 2.4 6.2 -0.7-0.6-1.3-1.2-2-1.8 -0.6 2.4-10.5 7.3-11.3 5 -1.6-4.4 7.3-2.4 7.2-5.5 0-0.6-3.6 0.5-3.6 0.4 -0.8-3.1 9.1-9.5-3.2-6.4 2.6-0.7 5.6-2.6 6.9-5.1 -1.1 0.3-2.3 0.3-3.4-0.1 0.6-1.2 1.3-2.2 2.2-3.2 -1.2 2.1-7.9-0.4-7.9-0.3 0-0.1 8.2-2.9 7.7-3.4 -0.6-0.9-6.4 0-7.4 0.3 2.4 0 3-7.7 1.7-7.3 -0.4 0.1-2.8 3.2-3.2 3 -0.3-1.7-0.8-3.2-1.6-4.7 0.3 1.2 0.3 2.4-0.3 3.5 -0.2-0.7-0.6-1.3-1.1-1.8 -1.6 0.8 1.4 1.9 0.9 2.7 -0.6 1.2-3.4-1.2-3.7 0.2 0.6 1.4 1.6 2.1 3.1 2 -1.7 1.2-5.2 0.5-6.7 2.1 0.1-0.1-0.2 4-0.6 5.3 -0.3-3.9-6.4-3-6.5-6.2 -0.1-4.7 4 0.7 5.1-1.3 2-5.9-8.4-1.5-9.2-5.7 0.2 1.1 5.8-2 6.2-3.3 0.9-3.1-4.6-4.7-5.4-6.9 0.4 1 0.4-12.7-1.5-10.8 1.7-1.7 3.9-3.8 2.7-6.6 -1.8 2.7-3.6 5.3-5.5 7.9 -0.6-13.3 0.1-26.7 0.2-40.1 0.1-10.2-2.4-22.8 1.7-32.1 -0.3 1.5-1.1 2.3-2.4 2.5 -3.9-3.6 4.9-6.9-0.3-9.3 2.7 1.6 4.6 1 5.4-1.8 -3 1.2-1.2 0.1-3.4-0.2 0.7-0.5 1.5-0.8 2.2-1 -1.9 0.3-3.6-0.3-5-1.8 4.1 0 4.2 2.4 5.1-1.4 0.9 0.7 1.9 1.4 2.8 2.1 -2.5-0.8-0.1 1.3-1.5 1.7 0.7 0.1 1.2-0.3 1.2-1 0 0.9 3.2 5.5 2.8 3.2 3.5 3.5-4.1 5.7-3 8.3 -0.3-0.7 4.7 0 4.3 0 0.2-1.3 0.3-2.5 0.2-3.8 0.5 2.3 2.8 3.1 4.8 3.1 -0.7 0-3.4-6.2-4.1-7 1.3 0.5 2.6 0.9 3.9 1.1 1.4-0.8-6.5-7.4-7.4-8 1.1 0 2.3-0.2 3.3-0.6 -0.8-1-1.9-1.6-3.2-1.7 0.1-2.2 4.3 1.9 3.4-1 0.8-0.8 0.9 2.4 1.5 2.2 0.4-0.6 0.9-1.3 1.3-1.9 0.2 0-8.8-5.6-13.4-5.5 2-0.3 4.4 0 5.7-1.4 -0.6-0.1-1.2-0.3-1.7-0.6 1.1-0.6 2.3-0.9 3.5-0.9 -1.1-0.1-2.2-0.1-3.3 0 1.1-0.5 6.1-2.2 5.5-1.9 0.9 0.1 1.7 0.3 2.5 0.6 0.3-1.4 0.9-2.7 1.7-3.8 -0.7 0.2-1.4 0.4-2.1 0.6 0.5-2.8-3.5-5.3-4.6-7.4 -0.3 1.1-0.9 2-1.9 2.6 -0.7-0.5-0.7-1.2 0.3-2 -0.2 3.2-5.4-0.3-6-1.3 0.3-2 14.2-2.8 13.2-7.2 -0.4-2-12.3-1.1-11.1-4.7 0.7-2 5.6 0.1 6.6-1.8 0.7-1.3-2-4.9-2.5-6.3 -1.4-3.3-0.9-5.6-4.1-8.3 -2.1-1.7-5.5 2.3-7-2.3 0.6 2.1-4.7 7-5.1 6.7 2.3 2.2-3.1 3.2 0.9 5.4 -0.5 1.4-5.3-0.3-5 1.3 0.1 0.3 3.4 5.8 4.1 4.6 -0.7 1.2-2.9 5.9-4.1 6.3 0.7-0.8 7.2 1.4 7.2 2.6 -1.2-0.5-2.4-0.9-3.6-1.2 0.2 0.9 0.6 1.8 0.9 2.7 -1.2-0.2-2.3-0.3-3.5-0.5 0.9 4.5 1.3 9.1-3.1 11.9 1-0.3 1.5 0.1 1.4 1.2 -1 1-5.7 0.6-5.8 0.9 -0.4 1.8 11.4 2 10.9 5.5 -3.1-1.2-3.3-2.9-4.7 0.3 -1.3-1.4-2.6-2.9-3.7-4.4 0.7 1.2 5.5 9.1 5.2 9.3 0 2.2 7.6 3.5 9 5 -1.4-0.1-2.8-0.3-4.1-0.8 1.3 1.1 2.8 1.6 4.4 1.7 -3.7 1.3 4.3 4.4-1.3 2.9 1.4 0.8 2.2 2 2.3 3.7 -2.5-0.7-4.8-1.7-6.9-3.1 9.4 12.9 5.4 32.1 5.4 47.6 0 8.2 0.3 16.6-0.3 24.8 -0.2 2.6-1.4 18 1 15.3 0.5 7.4-4.4-0.8-6.7 1.9 -2.4 2.8 4 3.2 4.7 5.4 -1.1-2.2-9 1.6-9.1 3.4 0 3.3 8.4 2.2 9.6-0.2 -0.5 2-6.7 2.8-3.8 5.7 -1.7-0.8-4.6 2.6-4.2 4.1 0.4-1.4 7.4-2.6 7.8-0.9 0.7 2.8-9.6 3.8-10.8 4.9 -5.3 4.6 0.9 4.7 4.6 1.8 -2.5 2.5-4.9 5.1-6.9 8 -3.7-4.9-6.3 6-10.6 3.2 2 2 6.6-7.3 6.7-9.2 0-1.2-0.7-5.7-2.1-6.3 -3.1-1.3-2.6 3.5-4.1 2.8 2.8 0-1.2-7.5-1.4-6 -0.1-1.9-0.6-3.7-1.4-5.3 -1.2 0-2.8 4.3-3 6.5 -0.1-1-0.5-2-1-3 -2.5-1-0.3 8.5-0.7 8.6 -1.6 0.4-1.3-4.8-3.5-3.1 -2.6 2 1.1 6.9 2.7 8.2 -1.6-0.4-5.1-1.2-5.7-3.1 2.9 6.8-5.8-0.2-0.7 8.4 0.6 1.1 9.1 5.4 6.8 7.3 -0.9 0.8-8.7-1.8-9.1-3.2 0.8 2.3 2.2 3.9 4.4 4.9 -3.6 3.2-5.4-3.4-6.1-5.7 -3.8 0-0.9 4.7-4.6 2.7 0.8 0.7 1.1 5.4 1.6 5.7 -0.7-0.8-1.5-1.6-2.4-2.3 -0.7-0.1 0.5 5.2 1.3 4.8 -1.7 0-6.1 2.1-2.8 4.2 -1.7-0.4-3.3-1.2-4.7-2.4 0.2 0.6 1.6 13.6-1.7 11.9 0.4-2.5-0.4-3-2.5-1.6 0.1-2.2 5.8-2 3.8-4.8 0.2 0.4-3.5 1.4-3.7 1.5 0.2-26.6 1.1-53.3 0.3-79.8 -0.1-3.2-1.2-36 3.2-34.1 -1.1-0.9-1.9-2-2.4-3.4 5.5 5.5 8 8.3 15.7 4.5 -2.9-0.5-9.3-2.8-11.4-4.3 -1.7-1.2-8.3-7.4-0.8-6.6 -0.3-0.1-4.2-1.8-3.7-2.5 1.5-1.6 3.3 0.8 2.8 1.7 1.4-2.6 3.5-0.1 6.5-4.7 1.2-1.9 0.7-5.5 1.5-6.5 1-1.2 3.9 3.6 5.7 1.1 0.9-1.3-0.7-6-2.6-5.9 0.9-0.5 1.7-1 2.6-1.6 -1.5-0.1-3.1-0.1-4.6 0 0.6-1.8 1.8-2.7 3.8-2.6 -0.6-0.2-1.1-0.4-1.7-0.6 2.4-0.4 0.9-16.5 3.1-13.6 -0.2 0.2-0.9 4.5-0.7 4.6 2.6 0.8 7.4-5.6 7-7.9 -0.5-2.6-5.5-4.1-6.1-1.7 1.3-5-3.9-2.6-6.3-2 3.2-1.1-4.5-7.1-6.8-6.4 0 0.5 10.7 1.8 9.5-2.5 -0.8-3.3-2.8-7.1-5-9.7 0.4 0.5-2.9 1.1-2.9 1 0.5-0.9 1.2-1.5 2.2-1.8 -0.8-0.6-1.8-0.8-2.9-0.6 0.2-1.1 5.5-3.3 5.1-4.2 -1.5-3.6-4.3 3.8-3.3-2.4 -0.7 2.3-4.3 0.5-5.8 0.6 -4.2 0.3-3.1 0.1-6.7 2.2 -1.5 0.9-2.7 2.3-3.9 3.3 -3.2 2.6-5.5 3.1-9 5.3 3.7 2.9-1.9 17.3 3.8 16.1 -3.6 0.8 2.6 1.9 3.4 1.9 -0.3 3.5-2.1 4.6-5.5 3.4 -1.2 1.1 4.4 2.5 3.8 4.6 -0.6 1.8-7.2 3.6-8.6 2.1 1.9 3.9-2.7 0.9-2.3 4.1 0.5 4.2 5 2.1 6.2 5.4 -1.5-0.4-3-0.3-4.5 0.3 4.9 1.3-8 0.3-5 1 0.2 4.5 8.9 6.1 12.2 5.9 -1.5-0.1 0.5-10 5.7-4.7 2.8 2.9-4.1 7.6-6.9 10 2.2-1.8 0.1 3.9 2.6-0.8 -1.6 3.2 3.9-0.9 3.5 1 0.1-0.5-3.6 1.6-2.8 1.9 0.1-0.5 4.8-0.2 4.9-1.9 0.6 2.3 0.5 4.6-0.1 6.9 -1.5-1.2-3.1-2.4-4.6-3.6 1.8 1.8 7.9 7.1 3 9.2 3.9-0.7 3.4 7.8 0.3 5.8 7.9 7.9 4.1 71.9 4 90.6 -3-0.4-1.8-1.7-4.7-0.5 1-0.7 3.3-7.7 1.3-7.2 -0.4 0.1-2.9 3.2-3.2 3 -0.3-1.7-0.8-3.2-1.6-4.7 0.3 1.2 0.3 2.4-0.3 3.5 -0.2-0.7-0.6-1.3-1.1-1.8 -1.6 0.8 1.4 1.9 0.9 2.7 -0.6 1.2-3.4-1.2-3.7 0.2 0.6 1.4 1.6 2.1 3.1 2 -0.2 0.1-7.5 2.3-7.2 2.6 1.2 1 2 2.3 2.2 3.9 -1.1 2.2-2.7-1.4-3.9-0.1 -2.5 2.7 3.8 2.9 3.5 3.9 1.1 0.5 1.3 1.3 0.7 2.2 -1.5 0.1-3 0.1-4.5 0.2 -2.2 2.4 5.9 3.3 7 3.5 -5.2-0.4-8.1 3.4-13.3 3 3.1-0.2 7.7-7.6 3-8 -3.2-0.3-4.3 7.6-8.2 5 2 2 6.6-7.3 6.7-9.2 0-1.2-0.7-5.7-2.1-6.3 -3.1-1.3-2.6 3.5-4.1 2.8 -0.8 0-6.5-87.5-2-97.7 -0.4 1.1-1 1.9-1.9 2.5 -0.7-0.3 1.1-5.2 1.3-5.9 0.2-0.8-0.8-2.8-2-3.3 2.7 1.6 4.5 1 5.3-1.8 -1.1 0.1-2.2 0.2-3.3 0.2 1.1-0.6 2.2-1.2 3.3-1.7 -2.3 0.7-4.3 0.2-5.9-1.5 4 0 4.1 2.3 5-1.4 0.9 0.7 1.8 1.4 2.7 2 -2.4-0.8-0.1 1.3-1.5 1.6 0.7 0 1.1-0.3 1.2-1 0 1 3 5.4 2.8 3.1 2.2 4-4.1 5.3-3 8.2 -0.3-0.8 4.6 0 4.2 0 0.2-1.2 0.3-2.4 0.2-3.7 0.2 0.8 4.1 4.4 4.9 2.9 0.8-1.5-3.9-6.6-4.2-6.8 1.2 0.5 2.5 0.9 3.8 1.1 1.5-0.9-6-6.9-7.3-7.8 1.1 0 2.2-0.2 3.3-0.6 -0.8-1-1.8-1.5-3.1-1.7 0.1-2.1 4.3 1.9 3.4-1 0.8-0.8 0.9 2.4 1.4 2.2 0.4-0.6 0.8-1.2 1.3-1.8 0.4 0-8.9-5.6-13.4-5.3 2-0.4 4.5 0 5.8-1.4 -0.6-0.1-1.1-0.3-1.7-0.5 1.1-0.6 2.2-0.8 3.4-0.9 -1.1-0.1-2.2-0.1-3.2 0 0.6-0.3 4-3.1 4.7-3 -0.3 2.2 1.8 0.3 3.1 1.5 -0.3-0.9 2.4-3.5 1.7-3.5 -2.5 0.1-5-3.4-6.5-6.7 -0.3 1.1-0.9 1.9-1.8 2.5 -0.7-0.5-0.6-1.2 0.3-2 -0.2 3.1-5.3-0.3-5.9-1.3 0.5-3 6.8-0.3 8.6-1.3 1.2-0.7 2-4.8 3.6-6 -0.6-0.2-11-3-10.1-4.3 3.5-5.3 6.7 2.6 5-6.4 -1.7-9.1-6.7-6.9-11.8-12 -0.7 1.2-5 5.1-3.2 6.4 -1.5-0.3-1.4 0.6-1.8 1.5 -0.3 0.8 1.2 2.6 0.7 3.3 0.1-0.2-3.5 4.3-3.4 2.6 0 0.2-1 2.5-1.1 2.8 0-0.1 3.5 0.4 3.5 0.3 -0.1 1.1-2.3 6.5-3.7 7 0.7-0.8 7.1 1.5 7.1 2.6 -1.2-0.4-2.4-0.8-3.5-1.2 0.2 0.9 0.5 1.8 0.9 2.6 -1.1-0.2-2.3-0.3-3.4-0.5 0.9 4.1 1 9-3 11.7 0.4 0.4 0.9 0.8 1.3 1.2 -1 1-5.6 0.5-5.6 0.8 -0.4 1.7 11.2 2 10.7 5.4 -1.7-1.6-5.9-4.8-4.6 0.3 -1.3-1.4-2.5-2.8-3.7-4.3 1.5 2.5 3.3 6.3 5.3 8.3 2.1 2 6.2 3.1 8.5 5.8 -1.4-0.1-2.7-0.3-4-0.7 1.3 1 2.7 1.6 4.3 1.7 -3.7 1.3 4.2 4.3-1.3 2.8 1.4 0.8 2.1 2 2.3 3.6 -2.4-0.6-4.7-1.7-6.8-3 2.1 2.9 6.7 3 7 7.3 -1.8-1.6 0 38.5-0.2 44.2 -0.8 15.9 0.2 32 0.4 47.9 0-0.2-1.1-4-1.3-3.8 -1.8 1.2 1.1 8.3-0.4 8.8 -1.6 0.4-1.3-4.8-3.5-3.1 -2.6 2 1.1 6.9 2.7 8.2 -1.6-0.4-5.1-1.2-5.7-3.1 2.9 6.8-5.8-0.2-0.7 8.4 0.6 1.1 9.1 5.4 6.8 7.3 -0.9 0.8-8.7-1.8-9.1-3.2 0.8 2.3 2.2 3.9 4.4 4.9 -2.2 1.8-3.6-4.1-5.2-1.8 -2.9 4.3 11.2 6.3 10.7 10.3 -0.6 4.7-7-2.1-9.6-1.7 -2.3 0.4 5.4 5.9 5.8 6.1 -3.8 2.5-8.6-7.8-10.7-1.3 -0.8 2.4 6.9 10.6 2.9 12.3 -0.7 0.3-1.7-4.6-2.1-4.8 0 5.4-6.2 3.3-9.4 2.8 3.4 0.9 8.5-7.4 4.1-8 -3.2-0.5-4.7 7.6-8.5 5 2 2 6.6-7.3 6.7-9.2 0-1.1-0.7-5.7-2.1-6.3 -3.1-1.3-2.6 3.5-4.1 2.8 2.8 0-1.2-7.5-1.4-6 -0.1-1.9-0.6-3.7-1.4-5.3 -1.2 0-2.8 4.3-3 6.5 -0.1-1-0.5-2-1-3 -2.5-1-0.3 8.5-0.7 8.6 -1.7 0.4-1.1-4-3.3-3.3 -3.3 1 2.1 6.8 2.5 8.3 -0.9-0.4-5-1.6-5.5-3 0.1 1 0.2 2.1 0.3 3.1 -0.9-0.3-1.8-0.5-2.8-0.8 -2.2 1.2 1.4 9.7 3.7 9.7 0 1.7-3.1-0.8-3.4-0.4 -1.1 1.3-0.9 2.4 0.5 3.3 -2 1-4.1 1.3-6.2 1 2 0.1 1 5.4 1.9 5.8 -0.7-0.8-1.5-1.6-2.4-2.3 -0.7-0.1 0.5 5.2 1.3 4.8 -1.7 0-6.1 2.1-2.8 4.2 -6-1.2-1.5-2.9-6.4 0.4 -3.2 2.2 1.6 4.8-5.6 6.8 0.3-3.7 5.2-4.6 5.2-8.5 0 4.7-14.5 10.3-13.3 4 0.6-3.1 16.4-4.3 12-8.7 1.5 2.9-9.6 4.3-11 4.4 3.2-0.5 7.8-4.9 8.2-8 1-7.2-1.9-1.5-4.3-3.9 -1.1-1.1 1.9-8.4 2.9-9.5 -2.2 2.2-4.7 7.2-8.5 6.4 4.5-0.2 2.9-8.6 7-8.6 -2.6 0-9.7-7.6-9.7-8.1 -0.1-23.5-1-46.8-0.2-70.2 0.2-5.6 5.3-37.1-1.1-40 2.7 1.6 4.5 1 5.3-1.8 -1.1 0.1-2.2 0.2-3.3 0.2 1.1-0.6 2.2-1.2 3.3-1.7 -2.3 0.7-4.3 0.2-5.9-1.5 4 0 4.1 2.3 5-1.4 0.9 0.7 1.8 1.4 2.7 2 -2.4-0.8-0.1 1.3-1.5 1.6 0.7 0 1.1-0.3 1.2-1 0 1 3 5.4 2.8 3.1 2.2 4-4.1 5.3-3 8.2 -0.3-0.8 4.6 0 4.2 0 0.2-1.2 0.3-2.4 0.2-3.7 0.2 0.8 4.1 4.4 4.9 2.9 0.8-1.5-3.9-6.6-4.2-6.8 1.2 0.5 2.5 0.9 3.8 1.1 1.5-0.9-6-6.9-7.3-7.8 1.1 0 2.2-0.2 3.3-0.6 -0.8-1-1.8-1.5-3.1-1.7 0.1-2.1 4.3 1.9 3.4-1 0.8-0.8 0.9 2.4 1.4 2.2 0.4-0.6 0.8-1.2 1.3-1.8 0.4 0-8.9-5.6-13.4-5.3 2-0.4 4.5 0 5.8-1.4 -0.6-0.1-1.1-0.3-1.7-0.5 1.1-0.6 2.2-0.8 3.4-0.9 -1.1-0.1-2.2-0.1-3.2 0 0.6-0.3 4-3.1 4.7-3 -0.3 2.2 1.8 0.3 3.1 1.5 -0.3-0.9 2.4-3.5 1.7-3.5 -2.5 0.1-5-3.4-6.5-6.7 -0.3 1.1-0.9 1.9-1.8 2.5 -0.7-0.5-0.6-1.2 0.3-2 -0.2 3.1-5.3-0.3-5.9-1.3 0.5-3 6.8-0.3 8.6-1.3 1.2-0.7 2-4.8 3.6-6 -0.6-0.2-11-3-10.1-4.3 3.4-5.2 6.7 2.6 5-6.3 -1.7-9.2-6.7-7-11.8-12 -0.7 1.2-5 5.1-3.2 6.4 -1.5-0.3-1.4 0.6-1.8 1.5 -0.3 0.8 1.2 2.6 0.7 3.3 0.1-0.2-3.5 4.3-3.4 2.6 0 0.2-1 2.5-1.1 2.8 0-0.1 3.5 0.4 3.5 0.3 -0.1 1.1-2.3 6.5-3.7 7 0.7-0.8 7.1 1.5 7.1 2.6 -1.2-0.4-2.4-0.8-3.5-1.2 0.2 0.9 0.5 1.8 0.9 2.6 -1.1-0.2-2.3-0.3-3.4-0.5 0.9 4.1 1 9-3 11.7 0.4 0.4 0.9 0.8 1.3 1.2 -0.7 0.7-5.4 0.3-5.6 0.9 -1.6 4.8 14.4 13.2 16.2 15.3 -1.4-0.1-2.7-0.3-4-0.7 1.3 1 2.7 1.6 4.3 1.7 -3 1.1 0.6 1.7 0.8 3 -1.3 0.3-2.5 0.1-3.7-0.6 8.8 4.3 3.5 32.7 3.4 40.6 -0.2 27.4-1.3 54.9 0.3 82.3 -0.3-0.5-1.9-4.1-3-3.5 -1.8 1 1.4 4.7 2.1 5.2 -1.2-0.3-4.7-1.1-4.7-2.9 0 4.7 5.8 6.5 5.8 11.1 -1.9-0.7-7.5-8.2-8-3.5 -0.2 2 8.3 8.3 7 9.3 -3.6 2.8-9.4-9.2-9.5-0.8 -0.1 5.5 9.5 7 6.6 14.2 0.6-1.2-6-6.7-7.1-5.1 -1.6 2.2 4.5 8.4 6.3 9.1 -0.9 0.1-11.5 1.7-11.1 3.5 -0.4-1.8 3.4-2.2 3-4.2 -0.1-0.4-6.1-4.1-6.4-4.7 0.4 0 4.8-2.3 3.4-2.9 -0.9-0.4-3.5 2.1-4.2 0.6 0.6 0.9 2.9-5.9 1.2-4.9 -1.5 0.1-3.1 3.5-4.8 2.3 2.2-0.9 3.4-2.6 3.5-5 0 2.3-2.9-0.5-3.1-0.9 -0.4 0.9-0.7 1.9-1.1 2.8 -0.1-0.8-0.3-1.6-0.6-2.4 -0.5 1-0.8 2.1-1.1 3.2 -0.4-0.8-0.9-1.7-1.3-2.5 -1.2 0.4-0.2 5.1-0.8 5.1 -1-1-1.7-2.1-2.2-3.5 -2.2 3.3 3.6 4.1 2.9 7.4 -0.3 1-4.1-0.6-4.9 0.2 -1.5 1.6-2 4-3.4 5.6 -1.8 2.2-6.2 8.6-5.4 1.3 0.3-2.9 9.5-7.8 4.3-10.8 -3.3-1.9-7.6 7.1-11.1 3.5 3.2 0 5.3-3.6 6.9-5.8 -0.3 0.5 5.8-8.7 4.1-9.9 -3.2-2.2-9.8 5.8-14 3.7 3.2-2.8 12.4-3.6 12.5-9 0.2-6.6-4.9 2.6-6.9 0.6 -0.3-0.3 4-3.2 2.8-4.5 -2.3-2.5-4.8 4.7-7.4 2.2 2-0.6 0.3-0.2 0.3-1.3 0 0.2 10.4-4.2 8.4-5.7 -0.9 0.5-1.8 0.9-2.6 1.4 -0.2-1-0.3-2-0.5-3 -1.8-0.7-3.4 4.1-5.2 4.1 0-2.7 3.7-2.6 3.5-5.5 -1 0-1.8 0.4-2.4 1.3 0.1-2.9 2-7-0.2-9.5 -3.1-3.5-4.2 1.6-4.2 4.1 -0.1-1.2-0.4-2.4-0.8-3.6 -1 0.5-1.6 8.2-1.7 8.2 -0.3 0-0.9-3.8-1.2-4.1 0.8 0.6-1.6 5.5 1.8 6.4 -2.6 0-2.7-3.8-5.5-2.6 -2.4 1-1.8 5.5-1.8 7.4 0 2.8 4.2 11.4 2.5 13.6 -2.7 3.5-1.8-8.8-1.8-8.8s3.3-115.2-2.6-121.1c0.4 0.3 5.7-0.3 5.6-0.6 -0.2-0.8-3.9-2.3-4.6-2.5 1.2 0 5.3 0.5 6.9 0 -0.5 0.2-4.8-1.2-4.6-1.9 0 0 3.5-1.4 3.9-1.4 -0.2 1.2 0.3 1.9 1.5 2 0.2-1.2-1.1-2.2 1.1-1.8 -0.3 0.2-0.7 0.4-1.1 0.5 0.8-0.1 1.7-0.2 2.5-0.2 0.1 0.7 0.1 1.3 0.2 2 -0.4-2.9 0.4-4 2.4-3.3 1.8 0.5 3.3-0.1 4.7-1.6 -0.5-1-1.3-1.2-2.4-0.6 4.5-4.3-2.6-3.1-3.4-4.2 0.3-0.2 0.5-0.4 0.9-0.5 -1.8-0.2-6.6-2.4-7-2.6 -0.2 0.7-0.2 1.4 0.1 2 -2.5-0.2-4.5-3.5-5.1-5.5 1.7 2 4-0.3 2.4-0.5 4.3 0.6 0.5-1.1 1.6-0.7 -3.1-0.3-3.8-1.5-2-3.5 2.5 3.2 7.6 5.7 9 9.5 -2.2-2 0.4 1.1 0.6 0.4 -1.1-0.6 2.7-0.8 3.5-2 -1.2-0.2-2.4-0.3-3.5-0.5 1.7-0.5 2.9-1.6 3.6-3.3 0.3 0-4.6-0.1-4.2-0.2 2.4-0.9 2.4-2.2 0.2-3.7 1.1-0.8 5.7 6.4 5.6 0.4 -0.9 0.4-1.7 0.5-2.6 0.1 0 0 1.7-1.2 1.5-1.2 0 0-8.2-4.3-7.4-5.3 0.7 0.3 4.8 1.1 4.9 2.2 -1.9-5.6 2.3-1.7-2.6-3.5 -0.7-0.2-5.2 0.5-4.9-0.9 0.4-1.4 5.9 0.1 7-1.1 0.7-1.6 0.2-2.5-1.6-2.9 -2.3 0.2-2.7-0.9-1-3.4 -1.1-1.4-3.9 1.4-5.3 0.6 1.7-0.8 0.1-1.3 1.8-1.9 -1.1-0.3-6.5-3.3-7.4-2.1 1-1.4 5.2-0.1 6.2 0.6 -0.2-0.4-1.1-2-2-2.5 1.9 0 5.3 0.6 6 0.4 -2.8-0.9-3.2-2.1-1.4-3.4 -0.2-0.1-21.7-10.6-20-3.7 0.6 2.5 3.6-1.2 4.4 0.7 -3.3 1.4-0.6 1.8-4.4 1.7 4.1 0.9-1.4 0.9 0.7 1.8 -2 0-4.1 0.6-4.7 1.9 0.6-0.7 3.2 1.1 3.6 1 -0.9 0-6.7 3.2-6.6 4.1 0.4 3.4 13.7 0.6 13.3 3.4 -1.2-1.1-3.7 0.4-3.2 2 1.1 0.7 2.3 1.2 3.5 1.6 -0.1-0.1-6.6-0.6-6.6-0.6 0.1 1.5 0.9 2.2 2.4 2.3 -0.5 0.8-3.5 0.1-3.1 1.4 -0.4-1.4-4.4-3.5-5.6-2.2 0.8 0.7 1.6 1.3 2.4 2 -0.9-0.4-1-0.2-0.4 0.6 3 0.9-7.2-3.3-4.2 0.2 -0.8-0.3-1.7-0.5-2.6-0.7 3.9 2.2-1.3 4.8-3.2 3.5 2 1.2 2.4 2.8 2.3 4.4 0.3-3.8 5.6 2.1 5.8 2.1 -1.5 0.4-5.7-0.2-3.8 2.9 -0.2 0.2-3.7 0-4-0.3 -0.7 2.1 4 1.6 4.6 1.6 -0.1 0.2-0.3 0.4-0.4 0.5 2.2-0.3 6.5 0.3 5.9 1.3 -2.9-0.8-4.5 2.7-7.5 0.4 0.6 0.7 0 3.7 2 2.7 -0.6 0.4-1.9 2.8-3.9 1.1 1 2.4 1 2.6-1 3.6 2.1 0.7 5.6 5.8 6 0.4 -0.1 1.7 9.6 0.8 5.9-1.6 0.9 0.2 1.8 0.4 2.7 0.6 -0.2-0.6-0.5-1.3-0.7-1.9 1.9 0.1 5.5-1.6 6.6-3.2 -1.4 2.4-0.4 7.3-1.4 6.4 1.1 0.8 1.8 1.9 2.1 3.1 -0.4 0.5-2-0.1-2.9 1.6 -0.6-0.7-1.2-1.3-1.8-2 2.3 1.3 1-3.8 1-4.2 -1.4 1.3-3.9 1-5.5 1.9 -3.1 1.8-0.8 1.1-1 2.4 0.3-1.4-3.6 4.2-2.1 2.8 -0.2 0.2-2.9-0.6-2.8-0.1 1 3.6 5.3 1.5 7.4 0.4 -0.1 0.6-0.2 1.1-0.3 1.7 1.7 0.7 3.3-1.2 3.2-2.7 -0.1 0.4 0 0.7 0.3 0.7 -0.1-0.7-0.2-1.3-0.3-2 2.3 0 1.8 3.9 1.5 5.1 0.9-2 4.4-0.9 4.4 1 -0.7 0.1-1.4 0.2-2.1 0.3 4.6 3.6-1.2 2.6-2.9 4.7 0.2-1.6 0.3-4.4 0.3-4.9 -0.8 2.7-6 2.6-6.5 4.8 -0.4 1.7 4.1 1.6 4.7 1.9 -3.3-0.9-1.4 2.1-4.3 1.4 1.6 0.9 3.7 2.4 5 3.9 0.6-3 5.5-0.9 5.5-4.3 0.9 0.8 1.2 4.8-1.1 4.2 0.5 0.2 2.8 4 2.2 4 -1.5-0.5-2.9-1.3-4.1-2.4 6.5 6.1 4.3 16.7 3.9 24.7 -0.6 11-0.6 79.2-0.7 102.3 0.3 0.3-5.5-5.7-5.7-3 -0.1 1.9 3.4 7.4 5.7 7.5 -1.3 1.2-2.6-1.5-3.8-1.3 -2.2 0.4-0.4 1.1-2.3 2.6 -2.2 1.8-1.7 8.7-6.7 5.4 2 2 6.6-7.3 6.7-9.2 0-1.2-0.7-5.7-2.1-6.3 -3.1-1.3-2.6 3.5-4.1 2.8 2.8 0-1.2-7.5-1.4-6 -0.1-1.9-0.6-3.7-1.4-5.3 -1.3 0-3.1 5-3 6.9 -0.2-1-0.4-2-0.6-3.1 -0.9-1.2-1.2 7.8-1.6 8 0.5-1.5 0-2.5-1.5-2.8 -0.8 0.8-2.5 5.9-4.6 4.5 -1.4-0.9 3.1-4.2 2.6-5.1 -0.9-0.4-1.7-0.5-2.6-0.2 3.4-6.1 1.2-6.3-5-5.6 3-0.4 6.7-2.6 8.1-5.3 -1.1 0.3-2.3 0.3-3.4-0.1 0.6-1.2 1.3-2.2 2.2-3.2 -1.2 2.1-7.9-0.4-7.9-0.3 0-0.1 8.2-2.9 7.7-3.4 -0.6-0.9-6.4 0-7.4 0.3 2.4 0 3-7.7 1.7-7.3 -0.4 0.1-2.8 3.2-3.2 3 -0.3-1.7-0.8-3.2-1.6-4.7 0.3 1.2 0.3 2.4-0.3 3.5 -0.2-0.7-0.6-1.3-1.1-1.8 -1.6 0.8 1.4 1.9 0.9 2.7 -0.6 1.2-3.4-1.2-3.7 0.2 0.6 1.4 1.6 2.1 3.1 2 -1.7 1.3-4.8 0.8-6.7 2.1 -3.7 2.6 4 2.3-2.7 4.7 0.2-0.1 4.3 3.8 4.2 4.1 -0.1 0.5-4.2 3.6-4.4 2.5 0.3 2.2 7.7 1.9 7.3 3.7 -0.5 2.1-5.9 0.5-6.2-1.1 0.4 2.3 4.5 4.5 2.9 6.8 -0.5 0.8-5 2.4-5.9 1.6 5.5-6.8-4.3-3.8-6.9-4.5 1.2-1.2 7.5-4.3 6.8-6.3 -1.5-4.1-8.6 5.6-10.7 4.5 3.5 0.6 6.5-8.2 6.2-10.5 -1.3-10.4-4.3-1.5-6-2.3 2.8 0-1.2-7.5-1.4-6 -0.1-1.9-0.6-3.7-1.4-5.3 -1.2 0-2.8 4.3-3 6.5 -0.1-1-0.5-2-1-3 -2.5-1-0.3 8.5-0.7 8.6 -1.6 0.4-1.3-4.8-3.5-3.1 -2.6 2 1.1 6.9 2.7 8.2 -1.6-0.4-5.1-1.2-5.7-3.1 2.9 6.8-5.8-0.2-0.7 8.4 0.6 1.1 9.1 5.4 6.8 7.3 -0.9 0.8-8.7-1.8-9.1-3.2 0.8 2.3 2.2 3.9 4.4 4.9 -0.4 0.3-5.2-0.9-5.3-1.3 0.2 1 9.8 9.5 9.3 9.8 -0.4 0.3-8.9-2.5-8.7-1 1.2 1.9 2.5 3.6 4.1 5.2 -3.6 1.5-4.2-5.6-8.1-2.5 -2.8 2.2 0.2 10 2.6 11.5 -0.6-0.4-1.2-0.9-1.7-1.4 -0.9 3.2 2.7 9.2-3 9.2 0.6-1.2 1.3-2.2 2.2-3.2 -1.2 2.1-7.9-0.4-7.9-0.3 0-0.1 8.2-2.9 7.7-3.4 -0.6-0.9-6.4 0-7.4 0.3 2.4 0 3-7.7 1.7-7.3 -0.4 0.1-2.9 3.2-3.2 3 -0.3-1.7-0.8-3.2-1.6-4.7 0.3 1.2 0.3 2.4-0.3 3.5 -0.2-0.7-0.6-1.3-1.1-1.8 -0.6 0.3 0 2.5 0.1 3.4 -0.5-1.8-1.4 0.3-0.6-2.9 -1.1 0-2.3-0.1-3.4-0.1 0.6-1.2 1.3-2.2 2.2-3.2 -1.2 2.1-7.9-0.4-7.9-0.3 0-0.1 8.2-2.9 7.7-3.4 -0.6-0.9-6.4 0-7.4 0.3 2.4 0 3-7.7 1.7-7.3 -0.4 0.1-2.9 3.2-3.2 3 -0.3-1.7-0.8-3.2-1.6-4.7 0.3 1.2 0.3 2.4-0.3 3.5 -0.2-0.7-0.6-1.3-1.1-1.8 -1.6 0.8 1.4 1.9 0.9 2.7 -0.6 1.2-3.4-1.2-3.7 0.2 0.6 1.4 1.6 2.1 3.1 2 -5.3 4-6.7-1.4-5.5 6.1 -0.3 0.5-8.5 4.3-7.4 5.4 -1.8-1.2 0.4-3.7-1.6-4.7 0.3 1.2 0.3 2.4-0.3 3.5 -0.2-0.7-0.6-1.3-1.1-1.8 -1.6 0.8 1.4 1.9 0.9 2.7 -0.6 1.2-3.4-1.2-3.7 0.2 0.6 1.4 1.6 2.1 3.1 2 -0.2 0.1-7.5 2.3-7.2 2.6 4.5 3.8-0.9 3.1-2.1 5.1 -0.4 0.6 5.8 2.1 4.3 5 0.6-1.8-7.5 0.4-5.9 2 -2.6-1.7-0.3-3.9-4-3 -2.6 0.6-4.6 5.8-7.6 4.2 3.5 0.6 6.5-8.2 6.2-10.5 -1.3-10.4-4.3-1.5-6-2.3 2.8 0-1.2-7.5-1.4-6 -0.1-1.9-0.6-3.7-1.4-5.3 -1.2 0-2.8 4.3-3 6.5 -0.1-1-0.5-2-1-3 -2.5-1-0.3 8.5-0.7 8.6 -1.6 0.4-1.3-4.8-3.5-3.1 -2.6 2 1.1 6.8 2.7 8.2 -1-0.2-4.5-1.2-5.4-2.6 0.2 0.9 0.3 1.7 0.2 2.6 -0.9-0.4-1.8-0.7-2.7-1.1 0.3-0.6 0.7-1.3 1-1.9 -1.2 0.2-2.5 0.4-3.7 0.6 -0.2-0.3 3.6-2.8 2.5-3.4 -0.5-0.2-6.4 3.6-6.4 2 0-2.3 5-1.6 5.1-4.8 0.1-3-3.7-5.3-3.6-8.9 -3.1 0-1.1 6.8-3.8 6.8 -0.7-0.6-1.3-1.3-2-1.9 -1.7-0.1-0.5 4 1.3 4 0 1.4-3.6-0.6-3.9-0.6 0.3 0.6 2.5 7.2 3.6 6.1 -1.7 1.6-4.4-1.7-5.8 0.7 -1.2 2 3.3 1.8 3.3 3.3 0 1.5-3.3 0.1-3.8 0.6 0.9-0.6 2.9 3.5 4 3.6 -1.3 0.1-2.5 0.1-3.8 0.2 0-1 0-1.9 0-2.9 -0.6 0-3.9 3.3-4 3.2 -0.5-1.6-1.1-3.1-1.6-4.7 0.3 1.2 0.3 2.4-0.3 3.5 -0.2-0.7-0.6-1.3-1.1-1.8 -1.6 0.8 1.4 1.9 0.9 2.7 -0.6 1.2-3.4-1.2-3.7 0.2 0.6 1.4 1.6 2.1 3.1 2 -5.6 1.1-7.2 1.1-11.2 5.3 2.5-3.9-4.2-17-5.6-21 -3.8 0-0.9 4.7-4.6 2.7 0.8 0.7 1.1 5.4 1.6 5.7 -0.7-0.8-1.5-1.6-2.4-2.3 -0.7-0.1 0.5 5.2 1.3 4.8 -1.7 0-7.1 3.3-2.8 4.2 -2.9-0.4-5.7-0.3-8.5 0.6 2.4 0 3-7.7 1.7-7.3 -0.4 0.1-2.9 3.2-3.2 3 -0.3-1.7-0.8-3.2-1.6-4.7 0.3 1.2 0.3 2.4-0.3 3.5 -0.2-0.7-0.6-1.3-1.1-1.8 0 1.1 0.2 2.2 0.6 3.2 -1-0.6-2.1-1.1-3.1-1.7 -0.3-0.4 3.2-3.7 3.1-4.6 -0.6-0.5-4.9-3.9-6.2-4.2 0 0 4.9-2.1 3.3-2.9 -0.9-0.4-3.5 2.1-4.2 0.6 0.7 1 2.7-6 1.2-4.9 -1.6 0.1-3 3.5-4.8 2.3 2.2-0.9 3.4-2.6 3.5-5 0 2.3-2.9-0.5-3.1-0.9 -0.4 0.9-0.7 1.9-1.1 2.8 -0.1-0.8-0.3-1.6-0.6-2.4 -0.5 1-0.8 2.1-1.1 3.2 -0.4-0.8-0.9-1.7-1.3-2.5 -1.2 0.4-0.2 5.1-0.8 5.1 -1-1-1.7-2.1-2.2-3.5 -0.9 1.4 3.5 7 2.2 7.5 -2.3 0.9-6.5-4.9-6.8-6.7 -0.9 1.2 1.2 10.4-0.2 10.5 -0.7-1.8-1.1-3.6-1.2-5.5 0.1 1.1-2.1 6.9-3.2 7.6 -0.7-4.3-0.4-4.3-4-4.3 0.1 0 0.2-4.2-0.8-3.7 -0.1 0.8-0.3 1.6-0.7 2.4 -1-0.9-1.4-2.1-1.4-3.4 -0.4 1.8-0.5 3.7-0.2 5.5 -0.3-1.5-1.1-2.7-2.4-3.5 0.1 1.5 0.3 3 0.6 4.5 0.5 1.8-0.3 2.5-2.3 2.1 0 1.4 2.8 5.1 2.4 5.9 0-2.6-4-0.4-4.8-0.7 -2.5-1 0.6-2.4-0.4-3.8 0.1 0.1-2.2-0.3-2.7-0.9 -0.8-0.9-0.3-3-0.6-4.1 -4.6 0-7.9 10.2-12.9 6.9 2 2 6.6-7.3 6.7-9.2 0-1.2-0.7-5.7-2.1-6.3 -3.1-1.3-2.6 3.5-4.1 2.8 2.8 0-1.2-7.5-1.4-6 -0.1-1.9-0.6-3.7-1.4-5.3 -1.2 0-2.8 4.3-3 6.5 -0.1-1-0.5-2-1-3 -2.5-1-0.3 8.5-0.7 8.6 -1.6 0.4-1.3-4.8-3.5-3.1 -2.6 2 1.1 6.9 2.7 8.2 -1.6-0.4-5.1-1.2-5.7-3.1 0.2 1 0.3 2.1 0.5 3.1 -1.2 0.6-6.6 3.7-6.1 4.6 -0.2-1.5-0.8-2.9-1.8-4 0.3 1.2 0.3 2.4-0.3 3.5 -0.2-0.7-0.6-1.3-1.1-1.8 -1.6 0.8 1.4 1.9 0.9 2.7 -0.6 1.2-3.4-1.2-3.7 0.2 0.6 1.4 1.6 2.1 3.1 2 -1.5 1.1-5.5 2-7.2 0.8 7.7-3.8 0.7-6.2-4.2-5.7 3-0.4 6.7-2.6 8.1-5.3 -1.1 0.3-2.3 0.3-3.4-0.1 0.6-1.2 1.3-2.2 2.2-3.2 -1.2 2.1-7.9-0.4-7.9-0.3 0-0.1 8.2-2.8 7.7-3.4 -0.6-0.9-6.4 0-7.4 0.3 2.4 0 3-7.7 1.7-7.3 -0.4 0.1-2.8 3.2-3.2 3 -0.3-1.7-0.8-3.2-1.6-4.7 0.3 1.2 0.3 2.4-0.3 3.5 -0.2-0.7-0.6-1.3-1.1-1.8 -1.6 0.8 1.4 1.9 0.9 2.7 -0.6 1.2-3.4-1.2-3.7 0.2 0.6 1.4 1.6 2.1 3.1 2 -3.1 2.3-7.7 2-11.3 2 3.2 0 7.4-2.5 8.8-5.4 -1.1 0.3-2.3 0.3-3.4-0.1 0.6-1.2 1.3-2.2 2.2-3.2 -1.2 2.1-7.9-0.4-7.9-0.3 0-0.1 8.2-2.9 7.7-3.4 -0.6-0.9-6.4 0-7.4 0.3 2.4 0 3-7.7 1.7-7.3 -0.4 0.1-2.9 3.2-3.2 3 -0.3-1.7-0.8-3.2-1.6-4.7 0.3 1.2 0.3 2.4-0.3 3.5 -0.2-0.7-0.6-1.3-1.1-1.8 -1.8 0.9 1.6 2.2 0.9 2.7 -5.5-0.3 0.8-49.1-2.6-52.7 0.7 0.5 6.6 0.4 5.8-0.9 -0.2-0.3-5.1-2-5.1-2 1.5 0.1 5.1 0.6 6.9 0.2 -0.5 0.1-4.6-1.2-4.3-2 0.3-0.9 5.9-1.1 6.2-1 0 0 1.3 1.9 1.4 2.2 1.6 0.6 0.8-3.1 1-3.2 3.6 1.4 2-2.2 5.3-1.7 -0.7-1 1.2-1.6-1.6-0.2 3.6-4.2-2.5-3.1-3.1-4 0.3-0.2 0.6-0.4 0.9-0.5 -1.6-0.3-6.4-2.5-6.6-2.7 -0.2 0.7-0.2 1.3 0.1 1.9 -2.3-0.2-4.1-3.4-4.7-5.3 1.2 1.6 2.3-0.5 4.1 0.1 -0.2-0.2-1.9-1.9-0.2-1.1 -2.9-0.4-3.5-1.5-1.8-3.4 1.7 2.4 9.2 12 12.2 7.9 -1.1-0.3-2.1-0.5-3.3-0.6 1.5-0.6 2.6-1.6 3.4-3 -0.3 0-3.5-0.6-4-0.3 2.3-0.8 2.3-2 0.3-3.5 0.7-0.5 3.1 3 3.9 2.9 0.5-0.8 1-1.6 1.5-2.4 -0.7 0.1-1.3 0.2-2 0.2 1.4-2.1-6.8-5.5-6-6.6 0.7 0.5 4.5 1 4.5 2.2 -1.6-5.4 2.2-1.5-2.4-3.4 -0.6-0.3-4.9 0.3-4.6-1 -0.8 2.9 14.5-4.7 3.8-3.9 4-2.3-3.2-2.4-4.3-2.4 1.5-0.7 0.3-1.3 1.7-1.7 -1.1-0.3-6-3.4-6.9-2.2 1-1.2 5 0 5.9 0.8 -0.1-0.4-1-2.1-1.9-2.6 1.7 0 5 0.7 5.7 0.6 -1.2-0.4-2.4-0.9-3.5-1.6 0.9-0.2 1.7-0.4 2.6-0.7 -1.1-0.7-18.9-14-19.1-5 0 2 3.6-0.5 4.1 0.8 -3.4 1.3-0.3 1.6-4.2 1.5 1.8 0.4 1.8 0.8 0.2 1.3 1.3 0.3 2.6 0.7 4 1 -1.3 2.7-6.2-2.3-8 1.1 1.3-0.1 2.4 0.2 3.4 1.1 -2.5-0.1-4.8 2.9-7.2 3.3 0.4-1.2-2.6-6.7-3.2-4.3 -0.6-1.5-0.2-1.9 1.1-1 1.7-3.5-2.9-0.3-3.3 0 0.1-0.7 0-1.4-0.2-2.1 1-0.5-6.7 2.9-4.9-0.8 1.5-3.2 2.7 0.1 4.6-1.3 2.5-1.9 4.5-3.5 7.4-5 -0.9-0.5-10.8-3.5-10.1-4.6 3.7-5.6 7.6 2.6 3.6-7.4 -2.3-5.7-5.9-5.8-9.9-9.7 0.3 1.1-2.8 5.3-3 5.9 -1.4 3.7-1.8-1.4-0.9 5.1 -0.9 2.2-4.5 0.2-4.8 3.6 -0.1 1.6 5 0.2 4 1.8 -2.6 2.5-1.5 4.7-3.8 5.9 0.3 1.9 6.6-0.7 6.6 2.2 -1.1-0.4-2.2-0.8-3.3-1.1 0.2 0.8 0.5 1.7 0.8 2.5 -1-0.2-2.1-0.3-3.1-0.5 0.5 5.4 0.5 9.5-4.5 12.2 2.6 2 6.1 7.1 5.8 10.6 -0.3-0.4-0.7-0.5-1.1-0.3 0 2.7 6.7 3 8.2 4.6 -1.4-0.1-1.2 1.8 0.9 0.7 -0.4 3.2-1 1.8-4.1 2.1 2.3 0.4 4.2 1.5 4.4 4.1 -2.3-0.6-4.4-1.5-6.3-2.8 1.9 2.7 6.3 2.8 6.5 6.8 -1.6-1.5-1.2 17-1.3 24 -0.2 13.6 0.1 27.2 0.1 40.8 -0.1-1.2-0.4-2.4-0.8-3.6 -1 0.5-1.6 8.2-1.7 8.2 -0.3 0-0.9-3.8-1.2-4.1 0.8 0.6-1.6 5.5 1.8 6.4 -2.5 0-2.8-3.3-5.2-2.5 -2.3 0.7 1.7 4.8-2.7 4.7 -0.2 1.1-0.5 2.2-0.8 3.3 -0.3-1.4 1.7-6.1 0.2-7.2 -1.4-1.1-3 2.7-4.2 0.3 0.7 1 2.5-5.8 1.2-4.9 -1.6 0.1-3 3.5-4.8 2.3 2.2-1.5 3.5-2.2 3.5-5 -0.7 0.9-1.5 1.1-2.6 0.7 -1.1-2-0.9-3.8 0.7-5.5 -1.1 0-2.3-0.1-3.4-0.1 0.6-1.2 1.3-2.2 2.2-3.2 -1.2 2.1-7.9-0.4-7.9-0.3 0-0.1 8.2-2.8 7.7-3.4 -0.6-0.9-6.4 0-7.4 0.3 2.4 0 3-7.7 1.7-7.3 -0.4 0.1-2.8 3.2-3.2 3 -0.3-1.7-0.8-3.2-1.6-4.7 0.3 1.2 0.3 2.4-0.3 3.5 -0.2-0.7-0.6-1.3-1.1-1.8 -1.6 0.8 1.4 1.9 0.9 2.7 -0.6 1.2-3.4-1.2-3.7 0.2 0.6 1.4 1.6 2.1 3.1 2 -0.2 0.1-7.5 2.3-7.2 2.6 0.7 1.1 3 3 1.3 4.4 -1 0-2-0.2-3-0.6 0.6 2 1.8 2.8 1.9 4.2 0.1 1-2.8 2.3-2.5 3 0.4 0.8 7.5 4.1 7.7 3.4 -0.5 2.8-7.6-1.1-8.6-2.3 -3.2-4.2-1.3-18.3-1.3-18.3s-0.2-24.2-0.2-36.3c0-9.5 0.1-18.9 0.2-28.4 0-2.6 1.7-15.4-0.4-17.5 2.3 1.5 3.8 1 4.6-1.5 -0.9 0.5-6.5 0.1-1-1.1 -1.7 0.2-3.1-0.3-4.3-1.6 3.2 0-0.4-2.7 4.6 1 -0.6-0.7-0.6-1.5-0.2-2.4 1.4 1.8 2.5 0.6 1 3.2 2.3-3.9 2.7 3.2 2.5 2.2 1.4-0.9 0 2.9 1.3-0.1 1.9 3.5-3.8 4.2-2.7 7.3 0.5 1.2 2.4-0.8 2.5-1.2 0.9 0.5 0.4 1.7 1 2.2 0.1-1.5 0.1-2.9 0.1-4.4 0.7 0.9 1.4 1.7 2 2.6 -0.9-1.3 2.6-0.5 2.7-0.1 -0.4-1.4-6.6-8.5 0.2-6.1 -2.6-1-5-4.1-7.1-5.8 0.7 0.7 1-2.6 1.6 0.3 2.4-1.2-1.3-2.6-1.4-2.3 0.5-2.3 5.2 1.4 5 0.1 -0.5-2.6-8.6-4.6-10.7-4.9 -1 0.4 5.4-2.5 2.9-1.9 1-0.4 2-0.7 3.1-1.1 -1-0.1-2.1-0.1-3.1 0 0.7-0.2 3.7-2.8 4.3-2.7 -0.3 2.9 3.8-0.4 4.6-1.3 -0.8-0.9-1.7-0.9-2.7 0 0.1 0.4-2.2-6.4-3-3.5 -0.5-1.5-0.2-1.8 1-0.9 1.7-3.3-2.8-0.3-3.1 0 0.1-0.7 0-1.3-0.2-2 -1 0.5-5.5-0.3-4.6-0.9 2-2.5 4.9-0.3 7.4-1.7 1.8-1 1.4-2.9 4-4.2 -0.9-0.5-9.8-4.4-9.5-4.6 4.2-3.4 5.8 0.5 4.6-5.9 -1.3-6.7-6.8-6.4-10.8-10.3 0.4 1.9-5.4 9.6-6.5 11.5 0.9-1.8 1.1-3.6 0.7-5.5 -0.6-1-4.3 1.9-4.6 0.8 0.8-4.5-3.3-2.6-5.7-2 2.6-0.9-4-6.4-6.2-5.8 -0.1 0.7 9.5 1.3 8.6-2.2 -0.3-1.2-6-12-7.1-7.8 0.4-1.4 1.3-1.8 2.6-1.1 -0.9-0.9-1.9-1.3-3.2-1.1 0.1-0.7 5.1-3.3 4.5-4 -3.1 1.4-4.1 0.7-2.9-2 -0.8 1.9-9.3 1.4-11.1 2.4 -2.3 1.2-3.2 3.6-5.2 5 -2.2 1.5-4.5 1.6-6.6 2.9 3.1 2.5-1.3 20.8 7 15.9 -4.9 3.1 1.7 1.5-5.5 3.5 2.8-3.4 2.6 13.4-4.2 5.9 1.9 3.8-7 3.5 2.9 8.3 -1.1 0-3.3 0.4-3.4 0.5 0.7 0.2 1 0.7 0.9 1.5 -1.8 0.1-3.6-0.1-5.4-0.6 0.2 4.3 7.2 5.4 10.3 5.3 -0.9-0.2 1.7-9.4 5.9-3.9 2.7 3.6-3.7 6.2-6.4 8.7 0.4 0.4 5.6-0.2 5.6 0.1 0.1-0.4-3.2 1.5-2.5 1.7 0 0.6 5-0.9 4.4-1.9 2.8 5-0.4 6.2-4.2 3.2 1.7 1.7 7.4 6.3 2.7 8.3 3.7-0.7 2.9 7 0.3 5.2 6.5 6.5 5.5 72.7 4.8 80.2 -0.2 1.9 0.3 5.9-1.3 7.5 -2.4 2.5-4.3-1.1-6.4 0.7 -2.5 2.1 4.6 4.3 5 5.6 -0.8-1.7-7.9 1.2-8.6 2.6 -0.5-1.2-1-2.4-1.5-3.6 -1 0.3-0.6 4.4-2.6 3.4 2.8 0-1.2-7.5-1.4-6 -0.1-1.9-0.6-3.7-1.4-5.3 -1.2 0-2.8 4.3-3 6.5 -0.1-1-0.5-2-1-3 -2.5-1-0.3 8.5-0.7 8.6 -0.8 0.2-2.4-2.2-3.3-2.5 -2.2-0.7-5.9 1.3-7.8 2 1-0.7 3.3-7.7 1.3-7.2 -0.4 0.1-2.9 3.2-3.2 3 -0.3-1.7-0.8-3.2-1.6-4.7 0.3 1.2 0.3 2.4-0.3 3.5 -0.2-0.7-0.6-1.3-1.1-1.8 -1.6 0.8 1.4 1.9 0.9 2.7 -0.6 1.2-3.4-1.2-3.7 0.2 0.6 1.4 1.6 2.1 3.1 2 -1.3 1-3.6 0.5-4.9 1.5 -3.7 2.9-0.6-2.3-0.7 5 -1.2 0.7-4.6-2.3-6.4-1.9 0.9-0.6 1.8-1.1 2.8-1.6 -0.1-0.1-3.8-0.5-3.6-0.9 0-1.1 7.5-3.2 5.5-4.9 -0.1-0.1-4.1-1.1-4.1-0.4 -0.9-1.9 5-3.1 5-5.1 0-0.1-5.5 1.9-6 1.7 -3.1-1.4 3.6-4.8 1.1-6.6 -0.7-0.5-7.2 2.6-6.8 0.1 0.7-3.9 7.6 0.3 7.6-5.5 0 1-3.5 0.2-3.9 0.1 1.5-0.4 2.7-1.2 3.7-2.4 -0.5 0.8-5.8 0.5-7-0.2 1.4 0.7 7.7-1.9 6.3-4.8 -0.2 0-4.1 1.9-4.1 1.3 0.5-0.8 1.2-1.1 2.1-1 0.8-0.5-2.6-1.4-4.5-2.1 1.8-0.7 3.5-1.7 5-3 -5.8 1.3-0.9-3.9-3.6-6.6 -0.7 0.8-1.3 1.6-2 2.4 0.1 0 0.2-4.2-0.8-3.7 -0.1 0.8-0.3 1.6-0.7 2.4 -1-0.9-1.4-2.1-1.4-3.4 -0.4 1.8-0.5 3.7-0.2 5.5 -0.3-1.5-1.1-2.7-2.4-3.5 0.1 1.5 0.3 3 0.6 4.5 0.5 1.8-0.3 2.5-2.3 2.1 0 1.3 2.7 5.1 2.4 5.9 0-0.1-9.9-4.3-4.3 2.4 -4.5-1.9 1.2 3.3 2 3.7 -0.5-0.1-9-0.6-8.3 0.7 1.3 1.2 2.9 2 4.7 2.3 0.3 0.2-1.5 6.7-1.8 7.4 -1.3 2.6-8.6 0.5-2.3 6.8 -3.7 0-8.7 8.2-12.1 5.9 0.8 0.8 6.5-5.4 6.7-6.3 1.2-4.2-4.1-6.2-3.5-9.7 -0.1 1-0.7 1.7-1.6 2 2.6-12.3-7.4-4.3-11.6-10.6 1.3 1.9 7.6-4.1 7.6-5.8 0 1-3.5 0.2-3.9 0.1 1.5-0.4 2.7-1.2 3.7-2.4 -0.5 0.8-5.8 0.5-7-0.2 1.4 0.7 7.7-1.9 6.3-4.8 -0.2 0-4.1 1.9-4.1 1.3 0.5-0.8 1.2-1.1 2.1-1 0.8-0.5-2.6-1.4-4.5-2.1 1.8-0.7 3.5-1.7 5-3 -5.8 1.2-0.9-3.9-3.6-6.6 -0.7 0.8-1.3 1.6-2 2.4 0.1 0 0.2-4.2-0.8-3.7 -0.1 0.8-0.3 1.6-0.7 2.4 -1-0.9-1.4-2.1-1.4-3.4 -0.4 1.8-0.5 3.7-0.2 5.5 -0.3-1.5-1.1-2.7-2.4-3.5 0.1 1.5 0.3 3 0.6 4.5 0.5 1.8-0.3 2.5-2.3 2.1 0.1 1.1-3-64.6 2.5-65.8 -1.7 0.2-3.1-0.3-4.3-1.6 3.2 0-0.4-2.7 4.6 1 -0.6-0.7-0.6-1.5-0.2-2.4 1.4 1.8 2.5 0.6 1 3.2 2.3-3.9 2.7 3.2 2.5 2.2 1.4-0.9 0 2.9 1.3-0.1 1.9 3.5-3.6 4.1-2.7 7.1 0 0.3 2.9 0 3.5 0.3 0.3-1.2 0.3-2.3 0.1-3.5 0.3 0.4 4.9 2.9 4.8 2.5 -0.4-1.4-6.6-8.5 0.2-6.1 -2.6-1-5-4.1-7.1-5.8 0.7 0.7 1-2.6 1.6 0.3 2.4-1.2-1.3-2.6-1.4-2.3 0.5-2.3 5.3 1.4 5 0.1 -0.5-2.6-8.6-4.6-10.7-4.9 -1 0.4 5.4-2.5 2.9-1.9 1-0.4 2-0.7 3.1-1.1 -1-0.1-2.1-0.1-3.1 0 0.6-0.2 3.7-2.8 4.3-2.7 -0.3 2.9 3.8-0.4 4.6-1.3 -0.8-0.9-1.7-0.9-2.7 0 0.1 0.4-2.2-6.4-3-3.5 -0.5-1.5-0.2-1.8 1-0.9 1.7-3.3-2.8-0.3-3.1 0 0.1-0.7 0-1.3-0.2-2 -0.9 0.5-5.6-0.2-4.6-0.9 2-2.5 4.9-0.3 7.4-1.7 1.8-1 1.4-2.9 4-4.2 -0.9-0.5-9.8-4.4-9.5-4.6 4.2-3.4 5.8 0.5 4.6-5.9 -1.3-6.7-6.8-6.4-10.8-10.3 0.4 1.8-9.2 12.8-9 13 0.2 0.3 4.5 2.7 4.5 2.7 -2.5 2.3-1.4 4.5-3.5 5.7 1.1 1.2 6.3-0.4 6.3 2.1 -1.1-0.4-2.1-0.7-3.2-1.1 0.2 0.8 0.5 1.6 0.8 2.4 -1-0.1-2-0.3-3-0.4 0.2 2.1 0 8.4-1.2 9.9 -0.5 0.7-5.5 2.9-5.4 2.3 -0.4 1.5 13.2 12.2 14.6 13.8 -1.8-0.1-3.5-0.5-5.2-1.3 1.8 1.2 3.8 1.9 6 2 -0.4 3.1-1 1.7-4 2 2.5 0.1 3.9 1.4 4.2 3.9 -2.2-0.6-4.2-1.5-6.1-2.7 5.2 7.2 5.6 4.9 5.5 14.1 -0.1 7.6 0.7 60 0.7 59.9 -0.8-0.2-4.7-2-5.4-0.5 -0.9 2 3 3.6 4.2 4 -0.8-0.4 0.6 7 0.7 7.6 -3.1 3.1-9.5-2.5-9.3 7.7 -2.3-3.7-4.5 2.5-1 2.5 0 1.3-3.6-0.6-3.9-0.6 5.6 10.4-5.4 5.9-11.6 9.4 0-0.8 10.1-6.6 4.6-6.6 -0.1-3.6 8.4-4.8 6.9-8.6 -1.2-3.2-8.3 0.5-9.4 2.3 -1.5-3.7 5.9-5.4 6.7-8.3 1.6-5.9-5.9 1.4-6.8 0.6 0-0.8 3.3-3.9 2.7-4.7 -2.1-2.7-5.4 4.4-7.5 2.2 2.5-0.8 6.2-7.2 8.2-7.1 -1.1 0.7-2.3 1.1-3.5 1.1 0.2-0.7 2.1-1.3 1.9-2.2 -0.6-2.2-5.6 3.7-6.2 3.7 0-2.7 4-2.5 3.5-5.5 -1 0-1.9 0.5-2.4 1.4 0-1.8-2.5-37.2-2.1-50.9 0.2-6.8 0-35.3-1.1-35.7 0.8 0 12.4-2.9 11.7-3.8 -1.5-3.7-8.6-2.5-10.9-6.9 0.9 0 1.8-0.2 2.6-0.5 -0.7-0.6-1.4-1.2-2.1-1.7 1.8 1.5 6.1 5.1 8.6 4.7 0.1 0 0-2.3 0.8-3.4 -2.8 1.8-1.5-1.4-2.2-2 1.4 2 2.4 2 3 0.2 -0.2-1-6.2-3.7-5.5-4.6 2 2.1 3.2 2.1 3.6 0.2 -0.3-0.5-5.4-1.5-5.4-1.7 0.3-1 3.8 0.2 4.4-0.1 3.4-1.5-8-6.4-8.5-6.8 1.1 0.9 6.2 1.2 2.4-1.4 1.7 1.4 3.1 1.5 4.2 0.3 -6.2-1.7-5.2-8.1-13.7-4.8 0.9-0.1 1.8 0.1 2.5 0.7 -1.5 0.6-1.2 0.9-2.9 1.1 1.2 0.2 1.3 0.5 0.1 0.9 0.6 0.2 1.1 0.3 1.7 0.5 -1.5-0.3-3.7 0-4.4 1 0.8 0 1.6 0.3 2.3 0.8 -1.5 0-2.8 2.6-3.6 2.8 0.9 0 8.1 1.5 8 2.2 0.1-1.3-7.8 1.1-8.2 1.4 2.9 2.3 5.6-1.4 8.4 1 -0.3-0.3-4.1-0.8-4.4-0.4 0.2 0.9 0.7 1.4 1.6 1.5 -1.7 2.8-3.4-3.1-4.4 1.4 -2.5-2.4-1.8 0.5-4.6-0.7 0.7 0.4 1.3 0.9 1.9 1.4 -1.2 0.9-2.5 1.2-4 0.9 0.1 0.1 3 4.2 4.6 4.5 -1.5 0.4-3 0.9-4.5 1.5 -0.4 1.3 6.5 2.5 6.6 2.3 -1.6 0.7-3.2 0.8-4.9 0.2 1.2 0.7 1.6 1.6 1.1 2.6 -0.8 0-1.5-0.1-2.3-0.1 1.1 1.9 0.5 1.8-0.6 2.4 3.3 2.5 14.4-4.1 14.1-4.4 -1.5-1.9-0.6 8.1-0.5 7.4 -2.5-3.1 1 1.6-1.8-0.5 0.2 0.4 0.3 0.8 0.2 1.2 -1.3-1.6-0.6-2.1-0.6-4.1 -2.1 1.8-6.4 1.1-5.2 4.6 -0.7-0.2-1.4-0.3-2.1-0.5 2.2 0.6 1.7 3.1 4.7 0.7 0.2 0.6 0.3 1.1 0.5 1.7 0.7-1 1.2-2 1.4-3.2 2.9 0-0.8 8.9-3.3 7.8 0.7 0.4 1.5 0.8 2.2 1.3 -1.2-0.5-2.9-1.1-2.9 0.1 1.3-1.3 3.1 4.8 7.8 0 2.1 1.8-0.3 69.7-1.2 76 -0.4-1.3-1.1-2.5-1.9-3.6 -0.5-0.2 2.3 6.2 2.3 6.4 -1.1 0-3.6-3.9-4.7-3.2 -5.4 3 0 14.3-0.6 18.2 -1.4-4-5.2-2.4-4.4-6.4 -0.6-0.9-3.6 3.6-4.2 3 0.3 0.1 1.7-6.3 1-7.7 -0.5 0.4-1 0.8-1.5 1.3 -0.7 0-1.1-9-1.9-2.7 0.3-0.3-2-5.2-2.5-5.2 0 0.3-0.7 5.1-0.9 5.1 0-0.8-0.1-1.5-0.1-2.3 -1.2 2.5-2.1 2.3-2.7-0.6 0.3 2.1 0.3 4.2 0.2 6.4 -1-1.1-1.9-2.3-2.8-3.5 0 1.9-0.5 3.7-1.4 5.4 0.2-0.2 0.3-5.3-0.4-5.4 -5.5-1-3.2-11.2-9-11.2 0 1.6-0.6 11.6-2.7 11.7 -2.2 0.2-0.6-4.4-2.9-4.2 -2.3 0.2-0.6 5.2-1.4 6.2 -1.8-0.5-3.7-0.4-5.5 0.1 0.6-0.2 1.1-0.4 1.6-0.6 -2.4 0.1-3.7-1.4-6-0.6 1.1-0.7 3.3-7.7 1.3-7.2 -0.4 0.1-2.8 3.2-3.2 3 -0.3-1.7-0.8-3.2-1.6-4.7 0.3 1.2 0.3 2.4-0.3 3.5 -0.2-0.7-0.6-1.3-1.1-1.8 -1.6 0.8 1.4 1.9 0.9 2.7 -0.6 1.2-3.4-1.2-3.7 0.2 0.6 1.4 1.6 2.1 3.1 2 -1.7 1.3-4.8 0.8-6.7 2.1 -3.7 2.6 4 2.3-2.7 4.7 0.3-0.1 4.3 3.8 4.2 4.1 -0.6 1.4-4.3 1.8-4.4 2.4 -0.8 3.2 6.9 1.1 7.4 3.4 0.4 2.1-5.5 0.8-6.1-0.4 2.4 5.4 6 7.4-3.1 8.7 0.2-26.3 0.3-52.7 0.5-79 0.1-10.5 0.2-21-0.4-31.5 -0.1-2.3-2.5-15.2 3.2-12.9 -1.8-1.2-2.8-2.9-2.9-5 7.7 2.6 3.2 11.8 14.8 6.1 -3-0.5-14.3-5.2-14.5-9 0.8-1.1 1.9-1.4 3.4-0.8 -0.3-0.1-3.8-1.6-3.3-2.2 2.2-2.5 1.1 2 2.8 1.4 0.2-0.7 0.4-1.4 0.6-2.1 0 3.2 5-0.3 5.6-1.1 2.3-3-0.9-3.6 0.1-6.6 0.4-1.1 4.9 3 5.4 1.6 0.5-1.6 0.5-6.2-2-6 0.8-0.5 1.6-0.9 2.4-1.4 -1.4-0.4-2.8-0.4-4.2 0 1.3-3.6 3.5-3.4 3.8-8.5 0-0.8-1.6-9.8 0.9-6.6 -0.8 1.4-1 2.9-0.6 4.4 1 1 5.3-6.4 5.3-6.8 0-5.7-3.8 0.1-4.5-1.9 0.8-4.5-3.3-2.6-5.7-2 2.6-0.9-4-6.4-6.2-5.8 -0.1 0.7 9.5 1.3 8.6-2.2 -0.3-1.2-6-12-7.1-7.8 0.4-1.4 1.3-1.8 2.6-1.1 -0.9-0.9-1.9-1.3-3.2-1.1 0.1-0.7 5.1-3.3 4.5-4 -3.1 1.4-4.1 0.7-2.9-2 -0.8 1.9-9.3 1.4-11.1 2.4 -2.3 1.2-3.2 3.6-5.2 5 -2.2 1.5-4.5 1.6-6.6 2.9 3.1 2.5-1.3 20.8 7 15.9 -4.9 3.1 1.7 1.5-5.5 3.5 2.8-3.4 2.6 13.4-4.2 5.9 1.8 3.8-7 3.5 2.9 8.3 -1.1 0-3.3 0.4-3.4 0.5 0.7 0.2 1 0.7 0.9 1.5 -1.8 0.1-3.6-0.1-5.4-0.6 0.2 4.3 7.2 5.4 10.3 5.3 -0.9-0.2 1.7-9.4 5.9-3.9 2.7 3.6-3.7 6.2-6.4 8.7 0.4 0.4 5.6-0.2 5.6 0.1 0.1-0.4-3.2 1.5-2.5 1.7 0 0.6 5-0.9 4.4-1.9 2.8 5-0.4 6.2-4.2 3.2 1.7 1.7 7.4 6.3 2.7 8.3 3.7-0.7 2.9 7 0.3 5.2 6.9 6.9 3.9 92.3 3.6 103.9 0 1.5-0.2 15.2-3.4 9.7 -0.4 0.9-0.7 1.9-1.1 2.8 -0.1-0.8-0.3-1.6-0.6-2.4 -0.5 1-0.8 2.1-1.1 3.2 -0.4-0.8-0.9-1.7-1.3-2.5 -1.2 0.4-0.2 5.1-0.8 5.1 -1-1-1.7-2.1-2.2-3.5 -0.9 2.5-0.2 4.4 2 5.8 -0.6-0.1-7.7-3-7.7-1 0.9-3.5-0.4-2.2-2.4-1.1 5-5.2-2.3-3.5-3.5-6.1 -0.2-0.3 3.6-2.8 2.5-3.4 -0.5-0.2-6.4 3.6-6.4 2 0-2.3 5-1.6 5.1-4.8 0.1-3-3.7-5.3-3.6-8.9 -3.1 0-1.1 6.8-3.8 6.8 -0.7-0.6-1.3-1.3-2-1.9 -1.7-0.1-0.5 4 1.3 4 0 1.4-3.6-0.6-3.9-0.6 0.3 0.6 2.5 7.2 3.6 6.1 -1.7 1.7-3.9-1.3-5.8 0.7 -1.4 1.5 3.3 2.2 3.3 3.3 0 2.8-6 0.5-6.8-0.1 -0.8-0.6-3.2-8.3-3.3-4.5 -1 0 0.6-4.9-2.1-2.8 -0.9-4.4 1.5-4.3-6.6-3.4 3-0.3 6.7-2.6 8.1-5.3 -1.1 0.3-2.3 0.3-3.4-0.1 0.6-1.2 1.3-2.2 2.2-3.2 -1.2 2.1-7.9-0.4-7.9-0.3 0-0.1 8.2-2.9 7.7-3.4 -0.6-0.9-6.4 0-7.4 0.3 2.4 0 3-7.7 1.7-7.3 -0.4 0.1-2.9 3.2-3.2 3 -0.3-1.7-0.8-3.2-1.6-4.7 0.3 1.2 0.3 2.4-0.3 3.5 -0.2-0.7-0.6-1.3-1.1-1.8 -1.6 0.8 1.4 1.9 0.9 2.7 -0.6 1.2-3.4-1.2-3.7 0.2 0.6 1.4 1.6 2.1 3.1 2 -10.9 8.2-7.7-7.2-14.4-7.4 -3.7-0.1 1 10.1-0.4 10.1 -3.1 0-1.1-4.8-1.8-6.3 -0.5-1.6-0.9 13.6 2 10.7 -2.2 3.3-6-6.1-7-4.8 -0.8 1.1 1.4 4.2 2.2 4.7 -1.2-0.3-4.7-1.1-4.7-2.9 0 3.2 2.5 11.3 6.6 11.3 -4.1 0-3.5-3.8-6.5-5.2 -4.1-2-6.9-1.8-11.4-1.8 3.2 0 7.4-2.5 8.8-5.4 -1.1 0.3-2.3 0.3-3.4-0.1 0.6-1.2 1.3-2.2 2.2-3.2 -1.2 2.1-7.9-0.4-7.9-0.3 0-0.1 8.2-2.9 7.7-3.4 -0.6-0.9-6.4 0-7.4 0.3 2.4 0 3-7.7 1.7-7.3 -0.4 0.1-2.8 3.2-3.2 3 -0.3-1.7-0.8-3.2-1.6-4.7 0.3 1.2 0.3 2.4-0.3 3.5 -3.1-12.3 2.9-83.8 1.3-84.6 2.1-0.6 2.5-1 1.2-1.3 1.2-0.2 4.9-2.3 5.5-2.6 -3.2-2.4 2.6-1.1 2.4-2.4 -5.6-4.8-0.1-1.4-2.5-3 3.6 0.7 2.3 2 5.1 0.1 0 0.9 4.4 2.6 4.8 2 0 0-3.4 1.7-2.1 2.2 4.7 1.9 8.3-1.7 7.9-5.8 -0.3-2.6-3.7-2.7-3.7-5.5 0-3.8 3.7-0.6 3.8-2.7 0.1-2.3-2.9-0.8-0.1-3.2 -0.9 0.8-10.5-5.9-10.5-7 5.7-0.9-1.8-16.5-6.3-16.5 3.2 0-5.2-7.6-8.6-7.4 -2.4 0.1-13.8 8.4-12.3 10.6 -0.1-0.9-0.3-1.7-0.7-2.6 -5 0.8 1.4 8.9-2.9 9.8 -0.7-0.7-1.4-1.4-2.1-2.1 -0.9 1.2-0.8 5.5-0.9 6.9 -0.1 0.8 1.2 1.3 1.1 2 -0.1 1-1.4 2.7-1.5 3.9 0.8-0.3 1.7-0.4 2.6-0.2 -2.9 1.4-4.2 4.5-3.6 7.1 -0.1-0.6-1.4-0.5-1.6 0.1 -0.5 1.3 3.3 4.4 3.7 4.6 -1.1 0.3-1.2 0.5-0.2 0.7 -2.5 1.3-4.9 1-7-0.9 4.3-1.5-7.5-13.4-7.8-13.4 0.7 0.4 1.2 1 1.5 1.9 0.7 0 1.2-3.1 1-3.5 1.3-0.1 1.6 0.2 0.9 1 2.7 0.2-0.4-2.2-0.9-2.4 3.9-1 0.8-6.6 1-6.7 0.7 0 1.3-0.1 2-0.1 0.2-1-4.1-2.5-4.7-2.7 0.5-0.6 1-1.2 1.4-1.8 -1-0.2-1.8 0.1-2.4 1 -1.8 0 2.1-5.1 2.2-5.5 0.3-1.7-7.4-1.3-7.6-1.4 -3.8-0.8-6.3-2.3-10.2-3.4 1.8 0.4 5.6 0.1 6.4-2.2 0.8-2.3-6.2-11.4-7.1-7.8 0.4-1.4 1.3-1.8 2.6-1.1 -0.9-0.9-1.9-1.3-3.2-1.1 0.1-0.7 5.1-3.3 4.5-4 -3.1 1.4-4.1 0.7-2.9-2 -0.8 1.9-9.3 1.4-11.1 2.4 -2.3 1.2-3.2 3.6-5.2 5 -2.2 1.5-4.5 1.6-6.6 2.9 3.1 2.5-1.3 20.8 7 15.9 -4.9 3.1 1.7 1.5-5.5 3.5 2.8-3.4 2.6 13.4-4.2 5.9 1.8 3.8-7 3.5 2.8 8.3 -1.1 0-3.3 0.4-3.4 0.5 0.7 0.2 1 0.7 0.9 1.5 -1.8 0.1-3.6-0.1-5.4-0.6 0.2 4.3 7.2 5.4 10.3 5.3 -0.9-0.2 1.7-9.4 5.9-3.9 2.7 3.6-3.7 6.2-6.4 8.7 0.4 0.4 5.6-0.2 5.6 0.1 0.1-0.4-3.2 1.5-2.5 1.7 0 0.6 5-0.9 4.4-1.9 2.8 5-0.4 6.2-4.2 3.2 1.7 1.7 7.4 6.3 2.7 8.3 3.7-0.7 2.9 7 0.3 5.2 6.1 6.1 0.5 72.8 0.5 72.8s-0.5 4 1.3 4c0 1.4-3.6-0.6-3.9-0.6 0.3 0.6 3.5 6.5 3.7 6.1 -1.3 2.2-3.9-1.5-5.4 0.4 -1.3 1.7 4.1 3.9 2.4 4.5 -1.6 0.5-4 0.4-5-2.5 0.3 1.5 0 2.7-1.1 3.8 -0.1-0.8-0.3-1.6-0.6-2.4 -0.5 1-0.8 2.1-1.1 3.2 -0.4-0.8-0.9-1.7-1.3-2.5 -1.2 0.4-0.2 5.1-0.8 5.1 -1-1-1.7-2.1-2.2-3.5 -2.3 3.4 3.8 4.1 2.9 7.4 -0.4 1.5-4.4 0.3-5.1 2 -1.4 3 1.7 13.5 0.4 14.4 -1.1-0.2-2.2-0.5-3.2-0.7 -0.2 0.9 4.1 4.5 3.9 4.7 -1.8 1.8-3.8-1.3-5.6-1 -2.9 0.5 4.8 6.3 5.1 6.5 -2.1 0.4-4.8 2.2-3 4.7 -2.9 0.7-5.8 1.4-8.7 2.2 0.1-0.6 1.5-4.7 2.8-5.1 -4.8 1 0.6-2.7-4.4 0.1 5-5.2-2.3-3.5-3.5-6.1 -0.2-0.3 3.6-2.8 2.5-3.4 -0.5-0.2-6.4 3.6-6.4 2 0-2.3 5-1.6 5.1-4.8 0.1-3-3.7-5.3-3.6-8.9 -1.8 0-0.2 3.2-1.4 3.2 -1.2 0 0.2-3.1 0-3.5 -0.8 0-1.4 0.3-1.9 0.9 -0.1-1-0.1-1.9 0.1-2.8 -0.4-0.7-3.6 3-3.9 3 0.8-23.9 1.7-47.8 2.6-71.7 0.3-9 0.7-18.1 0.9-27.1 0.1-2.7 1.9-13.9-0.1-16.1 0.7 0.5 6.6 0.4 5.8-0.9 -0.2-0.3-5.1-2-5.1-2 1.5 0.1 5.1 0.6 6.9 0.2 -0.5 0.1-4.6-1.2-4.3-1.9 0.4-0.9 5.9-1.1 6.2-1 0 0 1.3 1.9 1.4 2.2 1.6 0.6 0.8-3.1 1-3.2 3.6 1.4 2-2.2 5.3-1.7 -0.7-1 1.2-1.6-1.6-0.2 3.6-4.2-2.5-3.1-3.1-4 0.3-0.2 0.6-0.4 0.9-0.5 -1.6-0.3-6.4-2.5-6.6-2.7 -0.2 0.7-0.2 1.3 0.1 1.9 -2.3-0.2-4.1-3.4-4.7-5.3 0.9 1.8 2.3 1.8 4.1 0.1 -0.2-0.2-1.9-1.8-0.2-1.1 -2.9-0.4-3.5-1.5-1.8-3.4 1.7 2.4 9.2 12 12.2 7.9 -1.1-0.3-2.1-0.5-3.3-0.6 1.5-0.6 2.6-1.6 3.4-3 -0.3 0-3.5-0.6-4-0.3 2.3-0.8 2.3-2 0.3-3.5 0.7-0.5 3.1 3 3.9 2.9 0.5-0.8 1-1.6 1.5-2.4 -0.7 0.1-1.3 0.2-2 0.2 1.4-2.1-6.8-5.5-6-6.6 0.7 0.5 4.5 1 4.5 2.2 -1.6-5.4 2.2-1.5-2.4-3.4 -0.6-0.3-4.9 0.3-4.6-1 -0.8 2.9 14.5-4.7 3.8-3.9 4-2.3-3.2-2.4-4.3-2.4 1.5-0.7 0.3-1.3 1.7-1.7 -1.1-0.3-6-3.4-6.9-2.2 1-1.2 5 0 5.9 0.8 -0.1-0.4-1-2.1-1.9-2.6 1.7 0 5 0.7 5.7 0.6 -1.2-0.4-2.4-0.9-3.5-1.6 0.9-0.2 1.7-0.4 2.6-0.7 -1.1-0.7-18.9-14-19.1-5 0 2 3.6-0.5 4.1 0.8 -3.4 1.3-0.3 1.6-4.2 1.5 1.8 0.4 1.8 0.8 0.2 1.3 1.3 0.3 2.6 0.7 4 1 -1.3 2.7-6.2-2.3-8 1.1 1.3-0.1 2.4 0.2 3.4 1.1 -1.5 0-5.8 2.2-6.4 3.6 -0.4 0.8 11 3.1 11.7 3.3 -1.1-0.2-2.2 1.1-2 2.4 1.1 0.1 2.1 0.3 3.2 0.7 0.4 1.5-6.6 0.2-6.4 0 0.1 1.4 0.8 2.1 2.2 2.3 -0.5 0.8-3.5-0.7-3 1.2 -0.3-1.3-4.1-3.4-5.3-2.2 0.7 0.6 1.5 1.3 2.2 1.9 -1.1-0.2-1.2 0.1-0.3 0.9 -2.3-2.6-3.9-0.4-6.6-1.2 0.9 0.5 1.7 1.1 2.4 1.9 -1.6 1.2-3.4 1.7-5.4 1.4 0.2 0.1 2.9 4 1.2 3.3 1.2 0.5 5.3 3.4 6.3 3.1 -1.2 0.3-5.4-0.3-3.7 2.6 -0.2 0.2-3.5-0.2-3.8-0.4 -0.7 2 3.7 1.7 4.3 1.7 -0.5 0.4-1 0.8-1.6 1.1 0.1 0.1 8.1-1.4 6.7 0.8 -2.6-0.8-4.5 2.4-7.1 0.1 0.6 0.7-0.1 3.5 1.8 2.6 -0.3 0.2-2.4 2.6-3.7 0.9 0.9 2.3 0.9 2.5-1 3.4 1.9 0.7 14.5 1.5 11.4-0.7 0.9 0.2 1.7 0.4 2.6 0.6 -2-3 6-3.2 6.2-5.2 -0.7 1.7-1.6 3.4-2.6 4.9 2.8-1.3 2.2 4.2 1.9 5.3 -2.5-4.2-0.9 1.4-1.5 2.2 -1.2 1.4-7.1 6.3-7.6 7.3 -0.9 2 3.3 2.1 4 2.5 -0.2 0-2.3 1-3.8 1.4 1.5 1 9.4 5.9 9.6-0.3 0.3 0.3-1 17.8-1 20.1 0 10-3.5 76-5.6 75.3 0-0.8-0.1-1.5-0.1-2.3 -1.2 2.5-2.1 2.3-2.7-0.6 0.3 2.1 0.3 4.2 0.2 6.4 -1-1.1-1.9-2.3-2.8-3.5 0 3.6 1.8 6.9 1.8 10.5 -0.7 0.7-3.9-1.7-3.9-2.4 0.2 1.2 0.4 3.2-1.1 0.7 0 1.8 0.9 7.1 3.5 7.1 0 0.9-4.2-0.6-4.5-0.3 -0.5 0.4-0.1 5.1 0.8 5.1 -2.5 0-2.3-4.1-3.6-5.3 -1.2-1.1-1.6 3.8-2.9 3.1 2.8 0-1.2-7.5-1.4-6 -0.1-1.9-0.6-3.7-1.4-5.3 -1.2 0-2.8 4.3-3 6.5 -0.1-1-0.5-2-1-3 -2.5-1-0.3 8.5-0.7 8.6 -1.6 0.4-1.3-4.8-3.5-3.1 -2.6 2 1.1 6.9 2.7 8.2 -1.6-0.4-5.1-1.2-5.7-3.1 2.9 6.8-5.8-0.2-0.7 8.4 0.6 1.1 9.1 5.4 6.8 7.3 -0.9 0.8-6.9 0.7-4.7 1.6 -1.8 1.5 6.8 6.2 3.9 9.5 -2.9 3.2-5.5 0.9-3.5 2.4 -1.9 0.1-3.5-0.5-4.8-1.8C0 329.2 0 404 0 404l1680 0V286zM1628.3 85.5c0.8-0.1-0.1 1.2-0.5 1.4C1628.4 85.6 1627.2 85.3 1628.3 85.5 1629 85.3 1627.3 85.3 1628.3 85.5zM1629.1 67.7c0.9 0.2 1.7 0.4 2.6 0.6C1629.7 69.1 1630 67.4 1629.1 67.7 1630 67.9 1628.8 67.7 1629.1 67.7zM1616.6 96.2c0.3-0.7 1.2-2.3 1.2-3C1619.4 95.8 1617.1 94.9 1616.6 96.2zM1623.4 84.3c0 0 0.1 0.1 0.1 0.1C1623.4 84.3 1623.3 84.3 1623.4 84.3zM1624 77.8c0.3 0.2-0.1 0.8-0.2 1C1623.5 79.2 1622.5 77 1624 77.8zM1617.7 81.4C1617.8 81.5 1617.5 81.2 1617.7 81.4c0.6 0.6 2.6 2 3.5 2.2 -0.6 0.6-5.6-0.2-5.3-1.6C1616.6 81.4 1618 81.6 1617.7 81.4 1617.8 81.5 1618 81.6 1617.7 81.4zM1589.2 74C1589.2 73.9 1589.2 73.9 1589.2 74 1589.2 73.9 1589.2 74 1589.2 74zM1606.1 67.3c-0.3-0.2-0.4-0.3-0.6-0.4C1606.1 67.2 1606.5 67.5 1606.1 67.3zM1599.4 84.4c-1.2 0.2 0.9 0.6-3.1-0.8C1597.3 83.9 1598.4 84.1 1599.4 84.4 1598.2 84.7 1599.4 84.4 1599.4 84.4zM1599.6 76.7c-1 0.8-2.1 0.9-3.2 0.4 -0.2-0.2 6.5-9 7.6-6.7 -1.5 0.2-2.7 0.9-3.6 1.9 0.3 0.8 4.4-0.2 4.4 0.5C1603.2 74.2 1601.4 75.4 1599.6 76.7 1598.6 77.5 1599.5 76.8 1599.6 76.7zM1602.5 85.5c-0.7-1.8 1.6-2.3 1.6-3.2 0.1 0.7 0.9 2 3.7 1.6C1605.9 88.1 1602.3 85 1602.5 85.5 1601.8 83.7 1602.3 85 1602.5 85.5zM1604.2 94c0-0.3 0.1-0.5 0.1-0.7C1604.4 93.4 1604.7 93.5 1604.2 94zM1604.2 93.2c0.9-0.9 1.9-6.1 1.1-5.4 0.5-0.7 1.1-1.3 1.8-1.8 -1.2 0.9-1.4 6.1-0.1 7C1606 93 1605.1 93.1 1604.2 93.2 1604.9 92.5 1605.1 93.1 1604.2 93.2zM1608.2 105.6c-0.3 0.5-2.1 1.5-1.8 1.9C1599.7 104.1 1612 96.2 1608.2 105.6 1608 106.1 1612 96.2 1608.2 105.6zM1566.2 62.5c0.8-0.7 1.4-0.6 2.2 0.4C1568.3 62.8 1565.6 63 1566.2 62.5zM1569.1 68.4c-0.8-0.7 2.2 0.7 2.4 1 0 3.1-6.7-4.5-6.2-4C1566.6 66.1 1569 68.4 1569.1 68.4 1568.9 68.2 1569 68.4 1569.1 68.4zM1560.6 56.5c-0.4 0.2 4.5-0.5 4.6 1.2C1565.2 60 1558.5 57.6 1560.6 56.5 1560.3 56.7 1558.2 57.8 1560.6 56.5zM1557.2 74.3c0.7-0.9 7 4.7 6.2 2.5 2.4 2.3 9-1.3 7-2.5 -0.2-0.1 6.8 2.4 6.1 3.3 -1.3 1.6-11.1-0.4-10.5 3.2 0-0.3-6.4-2.3-3.6-2C1560.3 78.4 1554.4 77.8 1557.2 74.3 1558.1 73 1554.2 78.1 1557.2 74.3zM1508.1 78.4c0 0 0.1 0 0.1 0C1508.1 78.4 1508.1 78.4 1508.1 78.4zM1518.2 53.9c-0.5 0.3-1 0.6-1.5 0.2C1516.9 54.3 1517.5 54.1 1518.2 53.9zM1516.3 70.7c-0.6 1.6-0.8 0.5-1.2 0.2C1515.5 70.9 1516.2 70.8 1516.3 70.7zM1510.5 35.9C1511 36.6 1510.6 36.2 1510.5 35.9L1510.5 35.9zM1510.5 58.9c0.8-0.8 3.7 2.5 0.5-1.3 1.4 0.5 1.9 1.4 1.6 2.8C1511.5 59.3 1509 59.6 1510.5 58.9 1511.3 58.1 1509 59.6 1510.5 58.9zM1478 64.6c-0.9 0.3-1 1.5-2.2 0.7C1473.2 63.7 1481.5 62.7 1478 64.6zM1468.6 232c-0.1 0-0.1-0.1-0.1-0.1C1468.5 231.9 1468.5 232 1468.6 232zM1427.9 220.2c0.1 0 0.2-0.1 0.4-0.2C1428.2 220.1 1428.1 220.2 1427.9 220.2zM1433.5 67.6c0.6-0.1 1.2-0.2 1.9-0.2 0.5 0.9 0.2 4.8-1.6 4.6C1431.4 71.7 1433.8 68.3 1433.5 67.6 1434.1 67.5 1433.5 67.4 1433.5 67.6zM1411.7 98c-1.4 1-2.8 2-4.2 3 -0.3-3-0.2-5.9 0.3-8.8C1408.1 93.7 1410 98.4 1411.7 98 1410.3 99 1410 98.4 1411.7 98zM1416.9 86.1c-2.6 0.1-3.6 4.7-6.7 1.7 -1.4-1.4 5.6-2.5 5.1-2.4 -0.4-0.4-0.9-0.8-1.3-1.1 1.1-0.1 2.2-0.2 3.3-0.3C1417.2 84.7 1417.1 85.4 1416.9 86.1 1415.4 86.2 1417 86 1416.9 86.1zM1425.1 57.8c0.3 0.5-3.4 5.6-4.4 3.4 0.3-0.7 0.5-1.4 0.8-2.1 -1-0.3-2-0.6-3-0.8 0.4 0.4 0.7 1 0.9 1.6 -0.6 1-5.6-2.2-5.6-2.2C1414.7 55.4 1424.2 56.1 1425.1 57.8 1425.4 58.3 1425 57.5 1425.1 57.8zM1410.6 80.2c0.2-0.5 3.6-1.1 3.9-0.4C1415.6 82.4 1408.9 83.1 1410.6 80.2zM1407.7 81.9c0.4 2.3 1.1-2.2 2.2-0.4 0.4 2-0.4 3.2-2.5 3.4C1407.4 84.8 1407.5 81.8 1407.7 81.9 1408.2 84.7 1407.4 81.6 1407.7 81.9zM1384 77.2c2.6-2.2-0.4-1.4-0.6-3.5 0.6-0.3 1.1-0.5 1.7-0.8 0.2 0.9 0.8 1.6 1.7 1.9C1385.9 75.6 1385 76.4 1384 77.2 1384.2 77 1384.2 77 1384 77.2zM1399.3 63.4c-0.3 4.1-3.3 1-3.9 3 -1.6-2.7 1.7-10.9 5.7-8.9C1404.2 59.1 1402.5 67.6 1399.3 63.4 1399.2 65.5 1402.7 67.9 1399.3 63.4zM1404.1 84.6c-8-6.1 0-9.3 0-3.6C1404.1 82.2 1404.1 83.4 1404.1 84.6zM1402 90.5c0.8 0.7 1.6 1.6 2.4 2.7C1399.2 91.4 1402.8 93 1402 90.5zM1311.9 45.2C1311.7 45.1 1311.8 45.2 1311.9 45.2L1311.9 45.2zM1292.7 19.8c0.9 0 1.8 0 1.9 0.9C1294.2 20.3 1293.5 20 1292.7 19.8zM1296 29.5c0.3 0.1 0.5 0.2 0.5 0.3C1296.3 29.7 1296.1 29.6 1296 29.5zM1251.2 57.9c-2.2-0.9 0.8 3.3-0.1 3.9 -2 1.4-1.2-8.3 0.9-6.3C1252.9 56.4 1250.6 56.8 1251.2 57.9 1251.2 57.9 1250.5 56.5 1251.2 57.9zM1251.8 42.9c-0.5 1.5-3.2 2.8-4.3 3.3C1248.7 44.2 1250.4 41.9 1251.8 42.9 1251.8 43 1250.6 42.1 1251.8 42.9zM1250.9 37.8c-0.1-0.1-0.8-0.2-1.7-0.3C1250.4 37.5 1251.1 37.5 1250.9 37.8zM1249.1 40.7c-0.8 0.2-1.5 0.4-1.9 0.5C1248.1 40.6 1248.8 40.3 1249.1 40.7zM1240.8 53c-0.1-1.2 3.2 0.3 3.5 0.7C1243.3 53.6 1240.9 53.6 1240.8 53zM1244.8 53.6C1244.8 53.6 1244.8 53.6 1244.8 53.6 1243.7 53.8 1244.9 53.5 1244.8 53.6 1244.8 53.6 1244.8 53.6 1244.8 53.6zM1245 46.5c-0.8 0.4-1.6 0.5-2.6 0.4 0.8-2 2.1-3.6 3.8-4.9 0.9 0.9 2.1 1.2 3.4 1.1C1248.2 44.2 1244.5 46.9 1245 46.5 1244.7 46.7 1244.5 46.9 1245 46.5zM1247.1 47c0.4 0.4 1.1 0.9-0.4 0.9C1246.5 48.2 1246.7 47.8 1247.1 47zM1247.6 54.6c-0.7-1.7 1.5-2.1 1.4-3 0.3 5-0.5-2.5 2.5 0.4 -0.1 0.7-0.3 1.3-0.4 2C1250.9 54.1 1248.1 55.9 1247.6 54.6 1247 52.9 1248.1 55.9 1247.6 54.6zM1249.4 61.8c0.1 0.1 0.2 0.2-0.1 0.6C1249.3 62.3 1249.3 62.1 1249.4 61.8zM1249.1 65C1249.1 65 1249.1 65 1249.1 65 1249.4 65.3 1250 66.2 1249.1 65zM1249.1 65C1249.1 64.9 1249.1 65 1249.1 65 1249.1 65 1249.1 65 1249.1 65zM1249.1 65c0-0.5-1.4-6.5-0.3-2 0-0.1 4.4 2.3 2.2 2.7C1250.4 65.5 1249.8 65.3 1249.1 65 1249.1 64.5 1249.6 65.6 1249.1 65zM1253 72.6c-0.1 0.7-2 1.9-1.8 2.2C1245.7 72 1255.7 64.7 1253 72.6 1253 72.6 1255.7 64.7 1253 72.6zM1144.4 102.4c0-0.1 0.1 0 0.1 0C1144.5 102.5 1144.4 102.6 1144.4 102.4zM1144.5 94.4c0.2-0.1 1.3 1.9 1.6 2.4C1144.7 95.9 1143.6 94.9 1144.5 94.4zM1141 49.7c0.1-0.2 1.4 0.1 2.2 0C1142.9 50.2 1140.4 51.1 1141 49.7zM1136.7 53c-0.2 0.3-0.4 0.5-0.5 0.2C1136.2 53.2 1136.4 53.1 1136.7 53zM1092.9 84.6c-0.1-0.2-0.2-0.5-0.5-0.6C1092.7 83.8 1092.9 84.2 1092.9 84.6zM1084 89.4c-0.1 0-1.3-0.3-1.8-0.8C1081 87.3 1084.9 89.5 1084 89.4zM1047.8 120.8c0.1-0.1 0.1 0 0.2 0C1047.8 120.8 1047.7 120.8 1047.8 120.8zM1043.7 124.1c0-0.1 0.1 0 0.1 0C1043.7 124.1 1043.7 124.2 1043.7 124.1zM1043.8 116.2c0.2-0.1 1.3 1.9 1.6 2.4C1044 117.7 1042.9 116.6 1043.8 116.2zM1040.4 72.4c0.3-0.7 1.7 0.1 2.2 0C1041.7 73.6 1040 73.1 1040.4 72.4zM1036.1 75.6c-0.2 0.3-0.4 0.5-0.5 0.2C1035.6 75.8 1035.8 75.7 1036.1 75.6zM1029.9 59.2c0.2 0 0.1 0.2-0.1 0.4C1029.9 59.5 1029.9 59.2 1029.9 59.2zM1023.5 86.9c1.7-0.6 2.3 2.2 3.1 3.2 -0.2 0-2.9 0.1-1.4 0.1C1024.2 90.4 1022.1 87.4 1023.5 86.9 1025.2 86.4 1022.1 87.4 1023.5 86.9zM1029.1 98.5c0 0-2.7-3.3-3.3-3.8C1028 92.5 1032.5 95.9 1029.1 98.5zM1031.3 111.8c0.1-0.1 0.2-1 0.4-0.8C1032.2 111.2 1031.2 111.9 1031.3 111.8zM969.7 139.1c0.1-0.1 0.1 0 0.2 0C969.7 139.1 969.6 139.1 969.7 139.1zM965.6 142.3c0-0.1 0.1 0 0.1 0C965.6 142.4 965.6 142.5 965.6 142.3zM965.7 134.4c0.2-0.1 1.3 1.9 1.6 2.4C965.9 135.9 964.8 134.9 965.7 134.4zM959.8 117.1c-0.5-0.7-1-1.4-1.5-2.1 0.5 0.5 3.3 0.8 0.9-0.8C960.8 115 961 116 959.8 117.1 958.8 116.6 961 116 959.8 117.1zM958.4 114C957.7 114.7 957.3 114 958.4 114L958.4 114zM962.3 90.7c0.1-0.2 1.5 0.1 2.2 0C964.3 91 961.6 92 962.3 90.7zM958 93.9c-0.2 0.3-0.4 0.5-0.5 0.2C957.5 94.1 957.7 94 958 93.9zM951.8 77.5c0.2 0 0.1 0.2-0.1 0.4C951.8 77.7 951.7 77.5 951.8 77.5zM947.1 108.5c0.6 0-3.9-2.6-1.7-3.3 1.7-0.6-1.4 0.5 0 0 1.7-0.6 2.3 2.2 3.1 3.2M942.1 119.4c1.8-0.1 3.5 0.3 5.1 1.3 0 0.4 0 0.8-0.1 1.2C945.2 121.4 943.5 120.6 942.1 119.4 943.9 119.2 943.5 120.6 942.1 119.4zM951 116.7c0 0-2.7-3.3-3.3-3.8C949.9 110.8 954.4 114.2 951 116.7zM901.7 121.7C901.5 121.6 901.6 121.6 901.7 121.7L901.7 121.7zM882 95.6c1 0 1.9 0 2 0.9C883.6 96 882.9 95.8 882 95.6zM878.6 127.3c-0.7 0.1-1.6-0.5-3.5-1C876.3 126.5 877.5 126.8 878.6 127.3 877.4 127.5 878.6 127.3 878.6 127.3zM878.6 119.4c-1.2 0.8-0.7 0.4-0.2 0.1 -0.6 0.1-1.2 0.3-1.8 0.4 -1.3-0.6 5.5-7.7 6.6-7.8 0.1 0-2.8 2.9-2.8 2.7 0 1.4 3.8 0.1 3.8 0.6C882.3 116.9 878.4 119.6 878.6 119.4 877.4 120.2 878.4 119.6 878.6 119.4zM883.2 124.9c-0.2 0.6-0.5 1.2-0.9 1.8C882.5 125.8 882.9 125.1 883.2 124.9zM886.1 130.4C886.1 130.4 886.1 130.4 886.1 130.4 886.1 130.4 886.1 130.4 886.1 130.4zM882.7 130c-0.8 0.5-0.6 0.4-0.4 0.2 -0.5 0.2 1.4-4 1.8-4.5 -0.9 1.4-0.1 1.3 2.4-0.4C885.2 127.2 885.4 127.5 882.7 130 881.9 130.5 882.9 129.8 882.7 130zM555.6 199.9c0 0.4 2.9-0.1 3.4 1.9C557.2 204.3 554.3 200.2 555.6 199.9 555.6 200.1 555.4 199.9 555.6 199.9zM555.1 207.2c1-0.5 3.7 0.8 4.5 1.6 0 0 0 0 0 0 0 0 0 0 0 0C559.3 208.8 553.7 207.9 555.1 207.2 555.9 206.8 553.4 208.1 555.1 207.2zM530.6 174.3c-0.2 0.2-0.4 0.5-0.5 0.2C530.2 174.4 530.4 174.4 530.6 174.3zM518 185.1c0.5 0.2 5.9 2.6 2.5 2.8C519.4 189.2 518 186.4 518 185.1zM524.1 195.6c0 0-2.6-3.2-3-3.5C523 190 527.1 193.3 524.1 195.6zM490.5 189.4c0.1-0.2 0.2-0.6 0.3-0.2C490.8 189.2 490.7 189.3 490.5 189.4zM493.1 183c0.2-0.1 1.1 1.6 1.4 2C493.2 184.3 492.2 183.4 493.1 183zM486.2 146.7c-0.2 0.2-0.4 0.5-0.4 0.2C485.8 146.9 486 146.8 486.2 146.7zM441 156.8c0.3-0.4 0.5-0.6 0.5-0.5C441.5 156.5 441.2 156.6 441 156.8zM354.7 181.6c0.1-0.2 0.2-0.6 0.3-0.2C354.9 181.4 354.8 181.5 354.7 181.6zM356.5 182.1c0 0-0.1-0.1 0-0.3C356.6 181.9 356.6 182 356.5 182.1zM357.2 175.2c0.2-0.1 1.1 1.6 1.4 2C357.4 176.5 356.3 175.6 357.2 175.2zM340.6 152c-1 1.3-2.4-1.4-2.4-2.6C338.9 149.6 344 151.8 340.6 152zM337.4 163.9c0-0.7 1.4 0.9 1.4 1C338 165.1 337.5 164.7 337.4 163.9zM340.6 163.9c-6.6-2.4-3 2.2-7.3-3.5C336.2 161.1 340.9 161.7 340.6 163.9zM344.1 159.3c0.1-0.1-3-3.5-2.9-3.4C342.8 154.4 347.4 156.8 344.1 159.3zM320.7 160.2c0.4 0.1 0.7 0.2 1.1 0.3C321.4 161 321 160.9 320.7 160.2 321 160.3 320.6 161.1 320.7 160.2zM310.8 140.5c0.2-0.1 0.3-0.2 0.3-0.2C310.9 140.5 310.8 140.5 310.8 140.5zM231.2 128.9c0.3-0.4 0.5-0.6 0.5-0.5C231.7 128.5 231.5 128.7 231.2 128.9zM164.8 134.1c0.1 0.2 0.8 2.6-0.4 3.2C159.5 138.5 164.5 133.2 164.8 134.1zM75.1 130.9c0.3-0.4 0.5-0.6 0.5-0.5C75.6 130.6 75.3 130.7 75.1 130.9zM44.7 117.7C44.8 117.6 44.8 117.7 44.7 117.7 44.7 117.7 44.7 117.7 44.7 117.7 44.7 117.7 44.7 117.8 44.7 117.7 44.7 117.8 44.7 117.9 44.7 117.7 44.8 117.6 44.7 117.9 44.7 117.7zM45 117.9c2.8 1 4.3-0.3 5 3.6 -1.7 0.9-4.9-1.9-6.3-2.4C44.3 118.6 44.8 118.2 45 117.9 45.9 118.2 44.8 118.2 45 117.9zM41.6 119.6c-0.1 0.1-0.2 0.2-0.3 0.2C41.6 119.4 42 119.2 41.6 119.6zM41.3 119.8c1.4-1.3 3.6 0.8 4.4 1.7C45.4 121.5 39.6 121.8 41.3 119.8 41.4 119.8 41 120.1 41.3 119.8zM38.7 109.5c0.3 0.1 0.5 0.2 0.5 0.3C39 109.7 38.9 109.6 38.7 109.5zM30.1 123.4C29.4 123.4 27.3 123.3 30.1 123.4c-1.9-0.1 5.1-7.3 6-7.7 -0.2 1.2-0.9 2.1-2 2.6 1 0.4 2.1 0.6 3.2 0.5C34.8 120.6 31.9 123.5 30.1 123.4zM31.1 134.1c0.5-1.5 1.1-2.8 2-4.1C34 132.1 31.1 134.1 31.1 134.1 31.6 132.6 31.3 134.5 31.1 134.1zM33.3 123.4c0.3-1.5 4.4-5.8 6.2-4.2 -1.2 3.8-4.9 1.4-4.8 5.2C33.6 123.3 33.2 123.6 33.3 123.4 33.6 121.9 33.2 123.6 33.3 123.4zM36 127.8c-0.2 0.5-0.5 1.1-0.8 1.6C35.4 128.6 35.7 128 36 127.8zM35.4 132.6c-0.5 0.3 0.6-7.3 3.7-4.3C38 129.8 37.7 130.6 35.4 132.6 34.3 133.3 35.8 132.3 35.4 132.6zM38.4 154.7c-0.6-1 0.2-1.7 0.7-2.9 0 1.3 0.1 2.6 0.1 3.8C38.7 155.2 38.5 154.9 38.4 154.7 37.9 153.7 38.5 154.9 38.4 154.7zM36.8 148.1c4 3.1-0.1 4.1-2.2 5.4 0.3-1.5 3.8-10.9 4.9-5C38.8 149.5 37.9 149.3 36.8 148.1 40.3 150.8 42.3 151.1 36.8 148.1zM148.4 149.7c0.1-0.1 0.2-0.1 0.3-0.3C148.9 149.5 148.7 149.6 148.4 149.7zM151.1 147.9c-0.9 0.3-4 2.8-4.8 1.7C144.5 147.2 153.2 143.6 151.1 147.9zM153.9 127.9c-0.5 0-6.1-1.2-5.1-2 2.5-1.9 4.2 0 6.3 1.5C155.2 127.5 158.1 128.3 153.9 127.9 152.6 127.8 158.1 128.3 153.9 127.9zM154.8 121.4c-0.1-0.2-0.3-0.8 0.1 0 -0.1 0.9-4.2-0.1-4.2 0.2C150.5 119.6 154 121.2 154.8 121.4 154.6 121.2 154 121.2 154.8 121.4zM147.3 108.5c0.2 0 2.9 0.6 0.5 1.7C147.4 110.4 146.6 108.5 147.3 108.5zM145.7 144.2c0.5 0 3.3-2.4 3.4-0.6 0 0.6-4.5 3.4-5.1 3.4C144.1 145.8 144.7 144.8 145.7 144.2 145.8 144.2 145.7 144.2 145.7 144.2zM144.4 142.4c1.9 0.2 0 2.1-0.6 1.7C143.7 143.4 143.2 142.3 144.4 142.4zM144.3 152.4 136.1 127.3c3.1-0.3 5.2 1.7 5 3.9 0.2-1.8-4.8 1.7-5.3 2 0.3-1.1 0.1-1.1-0.6 0.2C134.8 132.5 137.5 127.8 136.1 127.3 137.6 127.1 137.5 127.8 136.1 127.3zM139 142.4c0.1 0.1 2.7-0.5 2.7 4.4C140.6 145.9 138.2 141.4 139 142.4zM107.5 133.9c-0.1 3.5-2.6 0.5-3.2 0.7C104.9 134.3 108 132.6 107.5 133.9zM104.4 136.3c1.2 0.2 1.9 0.9 2.2 2.1 -0.4 0.1-0.8 0.1-1.2 0.2C105.2 138.7 104 138.3 104.4 136.3 105.6 136.5 104.2 137.3 104.4 136.3zM106.4 132.6C106.5 132.5 106.5 132.5 106.4 132.6 106.4 132.6 106.4 132.6 106.4 132.6zM107 131.7C106.4 132.6 106.6 132.3 107 131.7c-1.4 2-2.3 0.4-2.3-1.2C105.6 130.8 106.4 131.2 107 131.7 107.1 131.7 106.4 131.2 107 131.7zM93.5 103.3c-0.4 0-0.8 0-1.2 0.1C92.3 103.3 92.8 103.3 93.5 103.3zM90.4 144.5c0.8 0-1.1 2.4 1.1 1.7 1.2-3.9 6.4-1.4 10-1.1 -0.9-0.3-0.4-0.1 1.5 0.6 -0.2-1.2-1.3 5.8-0.7 4 -3.5 10.6-17.9-3.5-10.3-2.7 -0.3-0.1-3.8-1.6-3.3-2.2C89.3 144.7 89.8 144.6 90.4 144.5zM102.5 157.2c-1.2 1.6-2.6-1.4-2.9-1.8C99 155.3 104.1 155 102.5 157.2zM100 154.6C100 154 100.2 154.6 100 154.6 100.1 154.7 100.1 154.7 100 154.6zM88.2 150.8c2.6 0.9 2.2 3 2.6 4.8C88.9 154.2 87.9 151.8 88.2 150.8zM83.5 145.7c0-1.2 1.4 0.6 0.1 2C83.6 146.9 83.6 146.3 83.5 145.7 83.5 145.7 83.6 146.3 83.5 145.7zM85.9 152.9c-2-1.2-2.3-1.7-2.3-3.5C85.2 150.6 85.9 150.8 85.9 152.9zM84.5 138.8c0.5-0.2 1.5-0.6 1.6-0.7C84.9 139 84.5 139 84.5 138.8zM84.9 138.2C84.9 138.2 84.9 138.2 84.9 138.2 84.9 138.2 84.9 138.2 84.9 138.2zM83.5 143.4C83.5 143.3 83.5 143.3 83.5 143.4L83.5 143.4zM83.5 144.9c0-0.2 0-0.5 0-0.6C83.5 144.4 83.5 144.7 83.5 144.9zM83.5 143.9c0-0.2 0-0.3 0-0.4C83.5 143.6 83.5 143.7 83.5 143.9zM86.3 162.1c-0.1 2.5-1.1 5-1.2 7.5 -0.3-4-3.8-13-0.6-16.4 0 0 0 0.1-0.1 0.1C87.2 152.2 86.3 161.2 86.3 162.1 86.2 162.9 86.3 161.3 86.3 162.1zM86.3 148.5c-1.8 0.5 0.5 2.1-2.2 0.1C84.5 148.5 87.9 147.7 86.3 148.5zM87.2 131.3c-0.8 0.1-1.6 0.3-2.4 0.5 0.1-0.9 0.4-3.4 1.2-2.6 -0.3 0.5-0.5 1.1-0.7 1.7 0.8-0.2 1.6-0.3 2.4-0.3C86.8 130.9 87 131.2 87.2 131.3 86.7 131.6 87 131.2 87.2 131.3zM90.6 253.8c-0.7-1.3 4.8-7.4 6.3-7.7 -4.8 1 0.6-2.7-4.4 0.1 5-5.2-2.3-3.5-3.5-6.1 -0.2-0.3 3.6-2.8 2.5-3.4 -1.2 0.4-2.3 0.9-3.3 1.8 0.9-2.3-0.7-83.5 2.7-82.7 0.7 3.3 7.3 3.6 10 3.4 -0.3-0.2 1.7-1.8 2-1.9 0.4 2.6-0.6 4.6-2.8 6.1 5-2.5 2.9 8.9 2.8 11 -0.4 9-0.7 18-1 27 -0.6 17.1-1 34.2-1 51.3C98.8 251.3 91.7 256.2 90.6 253.8 89.9 252.5 91.7 256.1 90.6 253.8zM103.2 165.8C103.2 166 103.2 165.8 103.2 165.8 103.2 165.8 103.2 165.8 103.2 165.8zM103.2 165.3C103.2 165.2 103.2 165.2 103.2 165.3 103.2 165.3 103.2 165.3 103.2 165.3zM103.2 165.4c0 0.1 0 0.2 0 0.2C103.2 165.5 103.2 165.5 103.2 165.4zM103.2 166.3c0 1 0 1 0 0.1 0 0 0 0 0 0C103.2 166.4 103.2 166.4 103.2 166.3zM103 170.6C103 171 103 171 103 170.6L103 170.6zM103.1 167.7c0 1.1-0.1 1.9-0.1 2.4C103 169.5 103.1 168.6 103.1 167.7zM103.2 165C103.2 165.5 103.2 164.3 103.2 165 103.2 165 103.2 164.9 103.2 165zM103.2 164.7C103.2 164.6 103.2 164.6 103.2 164.7L103.2 164.7zM103.4 132.3c0.8-0.1 1.5 0.1 2.2 0.6C103.9 133.7 103.5 132.4 103.4 132.3zM138.6 247.9c-6.7 2.6 0.4 0 0.5 5 0 1.9-4.2 1.5-4.2 1.5 0 3.1 4.3 2 4.2 5 -1.3 0-2.4-0.5-3-1.7 0.2 1.2 5.3 8.6 1 6.7 2.8 1.4-4.9 3.4-4.9 2 0.2 3.7-3 2.3-2.2 0.2 -0.9-0.5-1.9-0.2-2.8 1 0.7-0.6 3.2-7.6 1.1-7 -0.4 0.1-2.8 3.2-3.2 3 -0.3-1.7-0.8-3.2-1.6-4.7 0.3 1.2 0.3 2.4-0.3 3.5 -0.2-0.7-0.6-1.3-1.1-1.8 -1.6 0.8 1.4 1.9 0.9 2.7 -0.6 1.2-3.4-1.2-3.7 0.2 0.6 1.4 1.6 2.1 3.1 2 -2 1.5-16.2 6.8-17.6 5.8 2 2 6.6-7.3 6.7-9.2 0-1.2-0.7-5.7-2.1-6.3 -3.1-1.3-2.6 3.5-4.1 2.8 0.4 0 2-6.3 0.3-6.6 -0.1 0.1 0.6-9.1 0.6-9.1s-1-30.9-0.7-49.8c0.1-7.8 0.4-15.7-0.3-23.5 -0.1-1.7-2.7-12.8 2.1-10.5 -2.4-1.6-3.1-4.7-3.2-7.4 2.7-0.2 4.3 2.8 7.1 1.8 -7.3 1.5-4.1-8.9-0.6-8.4 -1-0.3-2-0.5-3-0.8 1.5-2.6 4.3-0.7 6 0.2 0.2-1 0.2-1.9 0-2.9 6.2 3.1-0.3 2.6 1.8 5 0 0 4.8-1 4.2 0.4 0 0-3.5 3.7-0.8 4.4 0.5-0.9 1-1.8 1.6-2.6 1.3 2.5 2.3 2.6 3.1 0.3 -0.2 2.4 5 3.6 5.4 1.3 0.5-2.8-7.4-2.2-2.4-4.6 -1.1-0.4-2.1-0.9-3.2-1.3 0.1-2.6 12.5-1.3 13.8-0.3 -1.7 0.8-1.5 1.8-1.3 2.8 5.3-2.6 5.6 1.4 6.3 5.7 -1.5-1.3-3.2-2.3-5-3 0.9 0.4 1.7 0.8 2.5 1.4 -3 0.1-6.1-0.1-9.1-0.6 3.1 0.8 6.4 2.3 7.2 5.9 1.2-1.9 1.7-1.7 1.5 0.4 0.1-1.2 0.3-2.4 0.4-3.6 2.6 0.9 1.8 3.9 2.2 5.7 -0.4-2-0.1 6.2-0.2 6.9C140.8 165.1 137.7 248.2 138.6 247.9zM118.3 148c0.3-0.1 0.8-0.3 0.7 0.2C118.6 148 118.4 148 118.3 148zM140.1 151.1c0.6 0.6 1.2 1.2 1.8 2C138 151.9 140.7 153 140.1 151.1zM142.5 258.8C142.5 256.8 142.6 258.7 142.5 258.8L142.5 258.8zM143 241.9c-0.2-0.9 0.3-1 1.6-0.3C144 241.7 143.5 241.8 143 241.9 142.9 241.6 143.5 241.8 143 241.9zM144.7 239.6c0 0-0.1-0.4-0.1-1.2C145 238.8 145.2 239.3 144.7 239.6zM189.1 261.9c-0.2 0-0.4 0-0.5 0C188.8 261.9 189 261.9 189.1 261.9zM236.7 274.9c-1.1-0.2 2.8-2.3 3.1-2.7C239.8 274.4 236.7 274.9 236.7 274.9zM242.5 127.7c-2.4 0.5 2.6 0.3 1.6 2.3 0 0-4-0.8-2.6 0.5 -0.2-0.2-0.4-0.4-0.6-0.6C240.5 129.6 241.5 126.1 242.5 127.7 240.1 128.2 241.5 126.2 242.5 127.7zM241.5 130.6C241.5 130.6 241.5 130.6 241.5 130.6L241.5 130.6zM242.8 134.1c-0.2 0.9-3.3 1.2-3.3-0.7C239.5 133.6 242.8 133.6 242.8 134.1zM242.4 160c-0.1 2.5-1.1 5-1.2 7.5 -0.3-4-3.8-13-0.6-16.4 0 0 0 0.1-0.1 0.1C243.4 150.1 242.5 159.1 242.4 160zM242 150.8c-2-1.2-2.3-1.7-2.3-3.5C241.4 148.6 242 148.7 242 150.8zM241.4 142.9c-0.3 0.9-0.3 2.5-1.6 2.8 -0.1-2.6-0.2-5.3-0.3-7.9 2.9 1.2 3.3 2 3.3 5.1C241.5 143.7 241.4 142.9 241.4 142.9 241.1 143.8 241.4 142.9 241.4 142.9zM316.3 151.2C316.5 151.4 316.4 151.5 316.3 151.2L316.3 151.2zM315.6 147.5c0 0-0.1 0-0.1 0 -1.7-1 0.5-0.4 1.2 0.2C316.1 147.6 315.8 147.5 315.6 147.5 315.5 147.5 315.8 147.5 315.6 147.5zM319.7 144.7c1.3 4.1-3.3 4-3.9 1.5 -0.5-2 2.9 0.2 3.1 0.3C319.2 145.9 319.5 145.3 319.7 144.7 321.7 150.8 319.6 144.4 319.7 144.7zM317.1 144.9C317.8 144.9 317 145 317.1 144.9L317.1 144.9zM317.1 144.9C317 144.9 317.1 144.8 317.1 144.9L317.1 144.9zM313.8 142.4c-0.1-1.7 3-0.1 2.9 0.2 -0.1 0.2-0.3 0.2-0.5 0 0.1 0.2 0.2 0.4 0.4 0.6C315.7 142.9 314.7 142.6 313.8 142.4 313.7 141.1 313.8 141.9 313.8 142.4 313.7 141.5 313.8 141.9 313.8 142.4zM311 144.5c-0.8 0.2-1.4 0.3-1.8 0.4C310.1 144.4 310.8 144.1 311 144.5zM307.8 148.7c-0.6 0.5-1.3 0.3-2-0.6 -0.8-2.1 5.7-3.2 5.7-2C299.7 154.7 309.6 147.4 307.8 148.7 307.5 148.8 309.6 147.4 307.8 148.7zM308.8 149.3c0.2-0.9 3-4.1 4.2-3.1C312.9 147.3 308.4 151.1 308.8 149.3zM310.8 152.3c-0.2 0.3-0.3 0.6-0.5 1C310.4 152.8 310.6 152.4 310.8 152.3zM313.2 153.5c-0.3 0.6-2.4 1.9-2.7 2.2C308.9 156.7 314.9 150.1 313.2 153.5zM312.2 166c0.5-1 2.4 1.8-0.4 0.4C312 166.3 312.1 166.1 312.2 166zM310.2 170.5c0.7-2.2-0.5-2.4 1.6-4.1C314.7 168.8 310.7 170.2 310.2 170.5zM313.3 171.2c-1.3-1.2 0.1-1 0.2-2.1C314.6 171.1 314.5 171.7 313.3 171.2zM314.3 153.8c1.8-0.3 2.4 1.2 1.4 1.7C315.6 155.5 313.3 154.8 314.3 153.8zM349.4 158.1c0.8 0.3 0.7 1.1-0.4 2.4 -1.3-0.4-1.8-1.3-1.3-2.7C347.7 157.2 349 157.9 349.4 158.1 349.5 158.1 349 157.9 349.4 158.1zM350.4 138.9c-0.2 0.2-0.4 0.5-0.4 0.2C349.9 139.1 350.1 139 350.4 138.9zM348.2 141.7c-0.6-0.6 1.9-0.4 1.7-0.5C351.4 141.9 348.3 141.9 348.2 141.7zM347.7 127.4c0.2 0.1 1.4-0.9 1.4-0.1C349.1 126.7 347.1 129.2 347.7 127.4zM346.6 136.9c-0.2-0.9 0.1-0.4 0.4 0.4C346.9 137.2 346.8 137.1 346.6 136.9zM346.9 140c0-1.1 0.2-1.4 0.4-1.6C347.7 139.7 347.9 141 346.9 140zM347.9 174.8c-0.4-0.3 0.5-1.1 0.6-0.3C348.5 174.6 348.1 174.9 347.9 174.8zM349 251.3c0.2 0.1 0.8 0.2 1.5 0.5C350.3 252 349.7 251.8 349 251.3zM357 248.8c0 0.1 0.1 0.1 0.2 0.2C357.1 248.9 357 248.8 357 248.8zM394.4 256.2c0 0.1 0.1 0.1 0.2 0.2C394.5 256.3 394.4 256.3 394.4 256.2zM483.6 165.6c0-2.6 4.2 4 1 2.6C483.1 167.6 483.6 165.6 483.6 165.6zM480 167.1c0.1-0.1-3-3.5-2.9-3.4C478.6 162.2 483.3 164.6 480 167.1zM475.5 160.2c-0.4-1-0.9-2-1.3-3 2.7 1 1.7 0.2 3.6 2.6C476.8 159.9 475.5 160.1 475.5 160.2 475.4 159.9 475.5 160.1 475.5 160.2zM476.5 171.7c-6.6-2.4-3 2.2-7.3-3.5C472.1 168.9 476.8 169.5 476.5 171.7zM452.2 155.7c-2.4 0.5 2.6 0.3 1.6 2.3 0 0-4-0.8-2.6 0.5C450 157.4 451.5 154.5 452.2 155.7 449.8 156.1 451.3 154.2 452.2 155.7zM452.1 163c0.2 1 0.3 2 0.2 3 -1-0.3-2.1-0.7-3.1-1C449.1 165 451.6 163.5 452.1 163 452.3 163.7 451.6 163.5 452.1 163zM452.1 188c-0.1 1.2-0.8 4-0.9 5.5 -0.3-3.7-4-11.2-1-14.4 0 0 0 0.1 0 0.1C453.2 178.3 452.2 187 452.1 188 452.1 189.2 452.2 187.2 452.1 188zM451.7 178.8c-2-1.2-2.3-1.7-2.3-3.5C451.1 176.5 451.7 176.7 451.7 178.8zM451.1 170.8c-0.3 0.9-0.3 2.5-1.6 2.8 -0.1-2.6-0.2-5.3-0.3-7.9 2.9 1.2 3.3 2 3.3 5.1C451.2 171.7 451.1 170.9 451.1 170.8 450.8 171.7 451.1 170.9 451.1 170.8zM448.7 161.8c1.5-1.5 0.9-0.9 3.9-0.2C451 162.3 449.5 161.3 448.7 161.8 449.1 161.5 449.5 161.3 448.7 161.8zM481.8 218l-0.1 57.8c0 0-7.2 2.9-7.2 1.7 0-2.3 5-1.6 5.1-4.8 0.1-3-3.7-5.3-3.6-8.9 -3.1 0-1.1 6.8-3.8 6.8 -0.7-0.6-1.3-1.3-2-1.9 -1.7-0.1-0.5 4 1.3 4 0 1.4-3.6-0.6-3.9-0.6 0.3 0.6 2.5 7.2 3.6 6.1 -1.8 1.7-4.1-1.5-5.8 0.7 -1.3 1.7 3.3 2 3.3 3.3 0 0.4-10.7 1.2-10.5-2.7 0-0.6 4.5 0 4.7-3.6 0.2-3.1-5-4.1-5.5-6.7 0.3 1.7 1.2-12.6-1.1-10.2 1.7-1.7 3.9-3.8 2.7-6.6 -1.6 2.4-3.2 4.7-4.9 7 0.1-18.1 0.8-36.3 0-54.4 -0.1-2.2-1.8-25.5 3-23.4 -1.8-1.2-2.8-2.9-2.9-5 7.8 2.6 3.2 11.8 14.8 6.1 -3-0.5-14.3-5.2-14.5-9 0.8-1.1 1.9-1.4 3.4-0.8 -0.3-0.1-3.8-1.6-3.3-2.2 2.2-2.5 1.1 2 2.8 1.4 0.2-0.7 0.4-1.4 0.6-2.1 0 3.2 5-0.3 5.6-1.1 2.3-3-0.9-3.6 0.1-6.6 0.4-1.1 4.9 3 5.4 1.6 0.5-1.6 0.5-6.2-2-6 0.8-0.5 1.6-0.9 2.4-1.4 -1.4-0.4-2.8-0.4-4.2 0 1.3-3.6 3.5-3.4 3.8-8.5 0-0.8-1.6-9.8 0.9-6.6 -0.2 1.4-0.4 2.9-0.6 4.3 0.5-1.2 5.7-1.1 6.6-0.6 1.6 0.9-2.4 2.4-2.5 2.5 -0.5 3 2.4 2.3-0.9 4.1 1.1 1.2 6.3-0.4 6.3 2.1 -1.1-0.4-2.1-0.7-3.2-1.1 0.2 0.8 0.5 1.6 0.8 2.4 -1-0.1-2-0.3-3-0.4 0.2 2.1 0 8.4-1.2 9.9 -0.5 0.7-5.5 2.9-5.4 2.3 -0.4 1.5 13.2 12.2 14.6 13.8 -1.8-0.1-3.5-0.5-5.2-1.3 1.8 1.2 3.8 1.9 6 2 -0.4 3.1-1 1.7-4 2 2.5 0.1 3.9 1.4 4.2 3.9 -2.2-0.6-4.2-1.5-6.1-2.7 5.1 7 5.3 4.2 5.3 12.7C481.7 204.1 481.8 211 481.8 218 481.9 226.6 481.8 218 481.8 218zM552.8 236.3c-0.4-0.5-1.1-0.8-2.1-0.8 0.7 1.1 1.5 2.1 2.2 3.2 -1.6 0.4-3.1 1.2-4.4 2.2 0.3-1.5 0.7-7 2.8-6.6C552 234.3 554.1 236.4 552.8 236.3 552.4 235.8 554.7 236.5 552.8 236.3zM552.1 240.2c1.4-2.1 1.7-1.2 1 2.8C551.6 241.7 552.2 240.4 552.1 240.2zM527.8 194c0-2.3 4.7 3.5 1 2.7C527.2 196.3 527.9 193.8 527.8 194zM527.3 200.4c0.7-1 6.2-3.3 9.1-3.8 -1.1-0.1-2.2-0.1-3.3 0 4.3-1.5 4-2 8.5-2 1 0 11.6 1.1 11.4 2.6 -1.3-1.3-3.3 0.4-2.7 2 1.1 0.1 2.1 0.3 3.2 0.7 0.3 1.4-6.4-0.1-6.4 0 0.1 1.4 0.8 2.1 2.2 2.3 -0.5 0.8-3.5-0.7-3 1.2 -0.3-1.3-4.1-3.4-5.3-2.2 0.7 0.6 1.5 1.3 2.2 1.9C542.1 202.8 528.4 197.9 527.3 200.4 528.2 199.1 527.2 200.6 527.3 200.4zM545.1 216.7C545.7 218.2 545.6 218.2 545.1 216.7L545.1 216.7zM545 217.1c-0.7 0.3-3.2-0.7-3.2-0.7C541.7 214.2 544.2 216.9 545 217.1zM551.9 278.1c-0.1 3.5 0.2 7.4-0.6 10.8 0 0.2-2.5 6.4-2.5 6.1 0.1 1.9 2.5 3.7 2.5 5.5 -3.1-2.2-3-2.7-4.8-7.9 -4.1 0-0.6 5-4.9 2.5 0.8 0 2.9 5.5 2.2 6.1 -0.9 0.8-2.2-3.5-3.2-2.3 -3.3 3.9 8.7 4.9-2.5 5 5.7-10.4-2.5-0.3-4.6-2.4 -0.1-0.1 4.2-3.7 2.9-4.9 -1.5-1.4-6.1 4.8-7.1 2.9 -0.8-1.5 8.7-4.4 8.3-7.1 -0.1-0.8-2.5 1.2-2.6 1.3 -0.2-1-0.3-2-0.5-3 -1.7-0.6-3.5 3.9-5.1 4.1 -0.1-2.5 3.3-3 3.4-5.5 -1 0.1-1.8 0.5-2.4 1.2 0-13.1-1.3-26.2-1.5-39.2 -0.2-10 1.1-30.3 0.2-29.9 -1.4-2.8 4-6.5-0.6-8.6 2.1-0.7 2.9-0.2 4.8-1.6 -0.9 0.5-6.8 0.1-1.1-1.2 -1.7 0.2-3.2-0.4-4.4-1.6 2.6 0 2.4-0.7 4.8 1.1 0 0-0.2-2.5-0.1-2.5 3.3 3.9 2.6 0.5 1 3.3 1.3-0.8 2.4-0.7 3.4 0.4 -2.3-0.8 0.4 4.3 0.4 4.3 -0.2 0.2-3.5-0.2-3.8-0.4 -0.6 1.5 3 1.9 2.7 3.5 -1.1-0.7-2.7 4.7 1.4 2.8 -0.3 0.2-2.4 2.6-3.7 0.9 0.9 2.3 0.9 2.5-1 3.4 1.9 0.7 14.5 1.5 11.4-0.7 0.9 0.2 1.7 0.4 2.6 0.6 -2-3 6-3.2 6.2-5.2 -0.7 1.7-1.6 3.4-2.6 4.9 2.8-1.3 2.2 4.2 1.9 5.3 -2.5-4.2-0.9 1.4-1.5 2.2 -1.2 1.4-7.1 6.3-7.6 7.3 -0.9 2 3.3 2.1 4 2.5 -0.2 0-2.3 1-3.8 1.4 1.5 1 9.4 5.9 9.6-0.3C553.8 244.1 552 275.1 551.9 278.1zM554.5 287.9c0-0.6 0-1.1 0.1-1.7 0.8 1 1.9 1.6 3.1 1.7C556.3 288.4 554.5 287.9 554.5 287.9 554.5 287.3 554.5 287.9 554.5 287.9zM691 331.7c-0.1 0-0.4-0.2-0.9-0.8 0 0 4.3-0.1 3.1 0.6C692.2 332.6 691.5 332.3 691 331.7 690.9 331.7 691.5 332.3 691 331.7zM890.6 118.3c-0.8 0.1-1.5-0.2-2.1-0.9 -1.6-3.3 5 0.9 4.7 0.6C892 118 890.7 117.8 890.6 118.3 890.3 118.5 890.7 117.8 890.6 118.3zM897.7 117.8c-1.8 1-5.3-1.8-6.8-2.3 0.6-0.4 2.8-0.7 1.8-1.4C893.7 114.8 899 116.9 897.7 117.8 896 118.8 900 116.1 897.7 117.8zM892.7 113.6C892.8 113.6 892.6 113.6 892.7 113.6L892.7 113.6zM887.7 109.8c-0.3-3.3 3.8 0.7 4.1 1.1C889.8 108.7 887.7 108.8 887.7 109.8 887.5 106.4 887.7 108.7 887.7 109.8 887.5 106.4 887.7 108.7 887.7 109.8zM887.5 154.2c-1.7-1.4-0.6-1.2-1.1-2.9C887.8 149.1 888.2 150.1 887.5 154.2zM888.3 130c-0.5-0.2 0.1-1 0.4-0.8 -0.2-0.4-0.2-0.9-0.1-1.5 2-1.8 2.8 2 3.3 1.7 -0.8 0.5-1.5 1.4-2.6 0.5 0.3 0.8 0.4 1.9 1.3 2.1C889 131.9 888.2 131.3 888.3 130 888.2 130 888.2 131.3 888.3 130zM890.6 289.8c-0.1-1.4-0.2-2.8-0.3-4.2C890.7 286.6 893.2 290.9 890.6 289.8 889.9 289.7 893.2 290.9 890.6 289.8zM893.8 280c-1.2-1-3.5-4.8-3.5-6.4 5 4.2 11.3 0.5 9.4 8.4C898.4 279.9 895.5 281.5 893.8 280 892.6 279 895.6 281.6 893.8 280zM954.2 104.5c0.7 0.6 2.9 2.4 0.2 2.4C953.9 106.9 953.9 104.9 954.2 104.5zM955.3 134c-0.4-0.3 0.6-1.2 0.6-0.4C955.9 133.9 955.5 134.1 955.3 134zM956.9 260.5c0-0.4 0-0.8 0-1.1C957.7 259.7 957.7 260.1 956.9 260.5zM956.8 248.1c0 0.5 0.7 7.3 0.8 7.3C956.3 255.4 956.8 249.3 956.8 248.1zM1033.8 99.6c-0.7-0.8-0.9-1.8-0.6-2.8C1031.9 94.8 1038.2 102.6 1033.8 99.6zM1065.7 245.3c0 0.8 2-0.9 2 1.5C1066.8 246.8 1065.7 246.5 1065.7 245.3zM1067.7 242.7C1067.7 242.6 1067.7 242.6 1067.7 242.7L1067.7 242.7zM1067.7 244.6C1067.7 244.8 1067.7 244.7 1067.7 244.6L1067.7 244.6zM1067.7 243L1067.7 243 1067.7 243c-0.7 0.2-1.4 0.1-2-0.2 -2.2-0.6-1.1-2.4 2-3.1C1067.8 241.2 1067.7 242.2 1067.7 243zM1062.8 232.2c1.6 0 3.6-1.1 5-1.8C1067.8 232.8 1065 232.2 1062.8 232.2zM1065.9 224.4C1065.8 224.4 1065.8 224.4 1065.9 224.4 1065.3 224.4 1063.8 224.2 1065.9 224.4c-1.2 0-3.2-0.6-3.9-0.8 1.8-1.1 3.7-1.7 5.8-1.8C1068 223.5 1067.3 224.4 1065.9 224.4 1065.9 224.4 1067.3 224.4 1065.9 224.4zM1067.3 109.8c0 0 3-1.3 3.3-1.8 0.3 1 0.4 2 0.1 2.9C1070.4 110.9 1067 110.4 1067.3 109.8 1067.3 109.7 1066.9 110.5 1067.3 109.8zM1068.1 101.1C1067.7 100.7 1067.8 100.8 1068.1 101.1L1068.1 101.1zM1069.1 102.2C1069.2 102.3 1069.2 102.3 1069.1 102.2 1069.2 102.3 1069.2 102.3 1069.1 102.2zM1068.7 126.1c1.8-0.4 0.5 16.5 0.4 17.6C1069 141.3 1064.1 127.2 1068.7 126.1 1069.8 125.8 1064.1 127.2 1068.7 126.1zM1069.8 131.6C1069.8 131.4 1070 128.6 1069.8 131.6 1069.8 131.6 1069.8 131.6 1069.8 131.6zM1069.8 131.6C1069.8 131.6 1069.8 131.5 1069.8 131.6 1069.8 131.5 1069.8 131.6 1069.8 131.6zM1069.9 130.6c0-0.1 0-0.2 0-0.3C1069.9 130.5 1069.9 130.6 1069.9 130.6zM1069.9 129.8C1069.9 129.5 1069.9 129.8 1069.9 129.8 1069.9 129.8 1069.9 129.8 1069.9 129.8zM1069.9 129.7C1069.9 129.7 1069.9 129.7 1069.9 129.7L1069.9 129.7zM1067.6 121.1c1.8 1.4 2.5 1.5 2.5 3.9C1067.9 123.7 1067.5 123.2 1067.6 121.1zM1069.9 119c-0.1 0.2-1.8 1-1.8 0.5C1068.6 119.1 1069.2 118.9 1069.9 119zM1069.4 116.2c-0.3 1-0.4 2.7-1.8 3.1 -0.1-2.9-0.2-5.9-0.3-8.8 3.2 1.4 3.7 2.3 3.7 5.7C1069.5 117.2 1069.4 116.3 1069.4 116.2 1069.1 117.3 1069.4 116.3 1069.4 116.2zM1069 102c-3.2-3.4 5.4-4.1 3.4-0.1C1071.4 101 1069.1 102.2 1069 102zM1135.8 75c0.1-0.1 0.3 4.6-1.5 2.8 -0.6-1-0.8-2-0.7-3.2C1133.9 75 1135.4 74.6 1135.8 75 1135.9 74.9 1135.4 74.6 1135.8 75zM1130.4 36.2c0.2 0 0.1 0.2-0.1 0.4C1130.3 36.5 1130.3 36.3 1130.4 36.2zM1130 63.3c0.3-0.1 0 2.3-1.4 0.7C1129.2 63.7 1129.7 63.5 1130 63.3 1129.9 63.3 1129.7 63.5 1130 63.3zM1125.6 67.9c0.7 0-3.9-2.6-1.8-3.4 1.7-0.6-1.4 0.5 0 0 1.7-0.6 2.3 2.2 3.2 3.3M1129.5 76.3c0 0-2.7-3.4-3.3-3.9C1128.4 70.2 1133 73.7 1129.5 76.3zM1130.6 64.8c0.2-0.1 0.5-0.5 1-1.5 0.2 0.9 0.2 1.9-0.1 2.8C1131.1 65.1 1130.7 64.9 1130.6 64.8 1130.7 64.7 1130.7 64.9 1130.6 64.8zM1132.8 49.9c1.9-0.7 3.4 1.2 0.5 3.3C1134.1 51.2 1132 50.2 1132.8 49.9zM1132.7 54.2c0.1 0 0.2-0.3 0.4-0.7C1133.6 53.5 1133 54.9 1132.7 54.2zM1162.2 213.9c-0.4 0.1-0.7 0.2-1 0.2C1161.5 214.1 1161.9 214 1162.2 213.9zM1297.6 70.1c-0.5-0.6-1.2-0.9-2.4-0.9 0.8 1.1 1.6 2.1 2.4 3.2 -1-0.2-3.7 1.8-4.4 2.4C1294.7 65.5 1295.9 69.9 1297.6 70.1 1297.1 69.5 1299.8 70.4 1297.6 70.1zM1297 48.8c3.5 3.1-11.3 6-3.2-0.4C1292.4 52.4 1295.7 47.6 1297 48.8 1297.4 49.1 1295.7 47.6 1297 48.8zM1291.6 43.3c0.4 0.5 0.7 1.1 0.7 1.7 -2.9-2.9 3.8-6.3 4.8-5.6C1298.7 40.3 1292.1 43 1291.6 43.3 1292 43.7 1292.1 43 1291.6 43.3zM1287.2 40.9c0.5-0.7 6.8-4.8 6.8-4.8 0.6 1.2-3 1.5-2.8 2.4 0 1.4 3.7 0.1 3.7 0.6 -1.2 0.9-10.6 5.4-8 2.1C1286.4 41.8 1285.9 42.2 1287.2 40.9 1287.8 40 1285.9 42.2 1287.2 40.9zM1288.8 50.7c0.2-0.4 0-0.7 0.6-0.3C1289.9 50.7 1289.5 50.8 1288.8 50.7zM1285.1 49.5c1.5 0 2.6 0 3.7 1.2C1287.4 50.4 1284.6 49.5 1285.1 49.5zM1269.4 51.4c4.6-1.6 7.4-1.3 11.9-1.3 -0.1 0.2-0.2 0.3-0.4 0.4 2.2-0.3 6.3 0.2 5.7 1.3 -2.8-0.8-4.4 2.7-7.3 0.3 0.6 0.7 0 3.6 1.9 2.6 -0.3 0.2-2.3 2.7-3.8 1.1 0.4 0.7 0.7 1.4 1.1 2.1 -0.7 0.1-1.3 0-1.9-0.3 -0.2 0.8 0.3 1.5 1.5 1.9 -1.7-1.5-5.2-4.4-7.2-3.8 0.6-1.6-0.4-2.4-2.9-2.4 0.8-0.1 1.5-0.4 2-0.9C1268.6 52.3 1268.4 52 1269.4 51.4 1270.2 51.2 1268.3 51.8 1269.4 51.4zM1276.5 59.5C1278.7 60.4 1273 60.5 1276.5 59.5L1276.5 59.5zM1265.3 61.6C1265.3 61.6 1265.3 61.6 1265.3 61.6 1265.3 61.6 1265.3 61.6 1265.3 61.6zM1263.1 63.2c0.8-0.6 1.5-1.3 2.1-2.1C1266.4 65.5 1263 63.3 1263.1 63.2zM1263.8 61.7c0.1 0 0.1-0.1 0.2-0.1C1263.9 61.8 1263.9 61.8 1263.8 61.7zM1259.9 51.4c-0.1 0.1 1.6-0.6 1.7-0.6 1.2 1.2 3-0.1 3.1 2.3C1264.2 52.6 1259.6 52.9 1259.9 51.4 1260.2 51.1 1259.6 52.9 1259.9 51.4zM1259.6 65.1c-0.4 1.2-2-0.9-1.8-0.9C1258.1 64.4 1259.8 64.1 1259.6 65.1zM1258 28.4c2.2 1.7-2.2 0.1-2.7 0C1258.6 27.5 1257.5 28.3 1258 28.4zM1255.1 81.7c0-0.4 1.6-3.6 1.2-4.9 0.5 0.3 1 0.7 1.4 1.1 -1.5-1.2-2.3-2.8-2.7-4.7 5 3.7 7.4 18 2 21.9 0-1.2-3-7.2 0.7-5.7 -2.6-1.6-3.2-6.4-1.5-8.8C1255.8 81 1255.4 81.4 1255.1 81.7 1255.1 81.4 1255.4 81.4 1255.1 81.7zM1257.8 101.9c0.8 0.3 0 4.1 0 4.7C1257.3 106.2 1255.6 101.1 1257.8 101.9 1258.6 102.1 1255.6 101.1 1257.8 101.9zM1255.9 102.1c0-3 0-5 2.3-7.2C1258.3 98.5 1258.8 99.9 1255.9 102.1zM1256.9 116.1c-0.6-3.5-0.9-7.1-1.2-10.6C1259.4 106.3 1257.1 113.7 1256.9 116.1zM1297.9 131.9c0.2 24 0.2 48 0.1 72 -0.3-4-0.8 2.1-0.1 1.8 -0.7 0.4-3.1-1.4-3.4 0.2 0.5 1.3 1.5 1.9 3 1.7 -0.1 0.1-7.6 2.1-7.2 2.6 1.2 1 1.9 2.2 2.2 3.7 -1.1 2.6-3.2-1.5-4.1 0.1 0 0 3.2 6.1 3.3 6.5 -0.2-0.6-8.2 2.8 1.2 3.2 -3.3 0.4-7.6 2.9-10.1 3.7 2.2-0.9 3.9-2.4 5.2-4.5 -1.1 0.3-2.3 0.3-3.4-0.1 0.6-1.2 1.3-2.2 2.2-3.2 -1.2 2.1-7.9-0.4-7.9-0.3 0-0.1 8.2-2.8 7.7-3.4 -0.6-0.9-6.4 0-7.4 0.3 2.4 0 3-7.7 1.7-7.3 -0.4 0.1-2.9 3.2-3.2 3 -0.3-1.7-0.8-3.2-1.6-4.7 0.3 1.2 0.3 2.4-0.3 3.5 -0.2-0.7-0.6-1.3-1.1-1.8 -1.6 0.8 1.4 1.9 0.9 2.7 -0.6 1.2-3.4-1.2-3.7 0.2 0.6 1.4 1.6 2.1 3.1 2 -2.7 2-5.3 2.3-6.8 4 -0.3 0.3-1 4.1-2.1 5.3 -1.6 1.9-6.2 2.6-8.4 3.2 4.8-2.1 9.6-17.7 2.2-16 -0.8 0.2-0.7 4.1-2.2 3.4 -2.3 0-0.5-111.5 1.5-112.9 1.3 0 2.6 0.4 3.6 1.3 -2.9-2.4-5.3-6.2-1.7-8.6 -1.1 1-1.9 1.1-2.5 0 0.2-1.6 2.5-2.1 3.6-1.3 -1.4-1.5-4.6-9.1 0.3-6.7 -3-2.1-2.7-6.1-3-9.2 0.4 0 5.2 6.9 4.9 7.6 0.4-0.6-1.1-2.1 0.4-1.6 -0.7-0.7-1.5-1.4-2.2-2.1 0 0 3.7 1.4 4 1.3 -1.2 0.8-5.1-10-5-9.9 0.7-0.5 1.5-1 2.2-1.4 -0.7-0.2-1.5-0.3-2.2-0.4 -0.4-0.5 2.9-0.7 3.4 0 -1-1.5 6.1 6.9 7.4 5.6 2.9-0.7-1.4-2.5-1.4-2.5 0.3-1.7 4.5 0.6 4.7 1 -0.9-0.1-9.3-9.3-7.6-8.8 0-0.1 20.3-6.6 19.7-6.9 0.9 0.2 1.8 0.4 2.7 0.5 -0.3-3.5 5.7-2.7 6-5.6 0 0.1-1.2 11.6 0.4 9.9 -0.4 0.4-2.1-0.4-2.6 0.9 -0.5 1.5 1.7 0.7 0.1 2.9 -1.2 1.6-7.2 6.4-7.4 7.4 -0.4 1.6 4 1.6 4.6 1.9 -0.2 0-2.3 1.2-3.8 1.6 1.6 1.1 3.1 2.3 4.5 3.6 0.6-2.9 5.3-0.9 5.3-4.2 2.4 2.1 0 15.6-0.1 18.7C1297.3 107.9 1297.8 119.9 1297.9 131.9 1298.2 155.9 1297.8 120.7 1297.9 131.9zM1295.7 224.2c-0.2-0.1-0.3-0.1-0.5-0.2C1295.4 224 1295.6 224.1 1295.7 224.2zM1298.1 76.9c-1.3-1.1-1.1-2.7-1.1-2.8C1298.3 71.9 1298.7 72.9 1298.1 76.9zM1298.3 33.3c0.3-1.6 4.9-0.9 4.3 1.2 0.1-0.3 0.3-0.6 0.6-0.8C1301.5 36.8 1299.4 31.8 1298.3 33.3 1298.6 31.7 1298.6 32.9 1298.3 33.3zM1299 40.3c1.4-1.8 3.5 0.4 4.5 1.3 -1.2 0.6-2.1 0.5-2.7-0.4C1301.2 42.5 1298.3 41.3 1299 40.3 1300.4 38.4 1298.3 41.2 1299 40.3zM1302.3 53.1c0 0 0.1 0 0.1 0.2 -1.7 0-3.5 0.4-3.4-2.7C1300.7 50.7 1301.8 51.5 1302.3 53.1 1302.3 53.1 1301.8 51.5 1302.3 53.1zM1326.7 188.8c0 0.1 0.1 0.1 0.2 0.2C1326.8 188.9 1326.7 188.8 1326.7 188.8zM1498.5 237.6c-0.4 0-0.6 0.1-0.7 0.4 -0.2-1.8-0.5-5.4-0.5-5.9C1498.1 234.3 1498.4 237.4 1498.5 237.6 1498.1 237.6 1498.4 237.4 1498.5 237.6zM1498 239c0 0-0.1-0.1-0.1-0.3C1497.9 238.8 1497.9 238.9 1498 239zM1495.9 96.1c1.6 0.1 0-0.5 0.1-0.5 -0.3-0.1-0.6-0.3-0.8-0.4 -0.3-0.1 0.3 0.1 1.7 0.7 -0.5-0.7-0.9-1.4-1.4-2.1 1.7 1.1 2.6 2.7 2.7 4.7C1498.3 98.5 1496.4 96.9 1495.9 96.1 1496.5 96.1 1496.4 96.9 1495.9 96.1zM1496.1 99c0 0.1-0.1 0.2-0.1 0.4C1496 99.2 1496.1 99 1496.1 99zM1496.5 81.2c1.6 1.3 2.3 2.9 2.1 4.9 0-0.9 0.3-1.7 0.7-2.5 1.1 0.5-0.4 10.4-0.6 11.4 -2.3-2.1-0.9-4.8-0.4-7.3 -2.7 6.9-1.6-13.9-1.5-12.8C1497 76.8 1505.1 83.5 1496.5 81.2 1498 82.4 1505.4 83.6 1496.5 81.2zM1497.2 63.5c0.9-0.5 1.9-1 2.8-1.5 0.1 1.2-2.9 2.1 0.3 1.4C1499.3 63.8 1498.2 63.8 1497.2 63.5 1497.2 63.4 1497.2 63.7 1497.2 63.5zM1487.8 71.4C1487.3 71.2 1485.7 70.7 1487.8 71.4 1487.2 71.2 1487.9 71.4 1487.8 71.4zM1487.7 71.4c-2.6-0.9 1.4-1.1 2.5-0.7C1508.3 76.7 1487.2 71.1 1487.7 71.4zM1494.4 103.3C1494.4 103.4 1494.4 103.4 1494.4 103.3L1494.4 103.3zM1495.5 100.5c-0.1 0.2 0.6-1.7 1.2-1.6 4.1 0.6-0.4 19-0.7 21.7C1495.9 113.9 1493 107 1495.5 100.5 1495.5 100.5 1493 107 1495.5 100.5zM1497.2 240.5c0.8 0.5 6.6 2.3 7.1 1.1 -0.2 1.7-0.4 3.4-0.6 5.2C1501.2 242.7 1497.1 249 1497.2 240.5 1497.8 240.9 1497.1 249 1497.2 240.5zM1532 247.8c-0.4 0.1-0.7 0.2-1 0.2C1531.3 247.9 1531.7 247.9 1532 247.8zM1547.6 66.6c0-0.3 1.6-2.2 1.9-2.2C1550.6 64.7 1547.6 67.4 1547.6 66.6zM1552.5 241.2C1552.5 240.9 1553.2 241 1552.5 241.2L1552.5 241.2zM1552.5 237.5c0.4 0.4 0.7 0.8 1 1.4C1552.3 239.6 1552 239.2 1552.5 237.5zM1597.5 233.1c0-0.3 0.2-0.8 0.4-1.4C1597.8 232.2 1598.1 233 1597.5 233.1zM1613.5 142c-2.6-2.3 0.2-4.5 0.3-4.6C1613.7 139 1613.6 140.5 1613.5 142zM1614 135.2c-0.8 0.7-1.7 1.3-2.5 2 0-2.8 0.3-5.8 2.5-7.8C1614 131.3 1614 133.3 1614 135.2 1613.2 135.9 1614 133.3 1614 135.2zM1612.5 128.6C1613 128.5 1612.9 128.7 1612.5 128.6L1612.5 128.6zM1613.4 111c-1.6-1.4-2.6-3.1-2.9-5.1 0.6 0.2 1 0.6 1.1 1.1 2.3-2.4 2.8 4.5 2.8 5.3C1612.5 111.4 1607 105.7 1613.4 111 1611.8 109.6 1607 105.7 1613.4 111zM1611.3 115.1c0-0.5 0.3-1 0.5-1.3 -0.4 0.4-0.8 0.8-1.2 1.2 0.1-0.8 0.3-1.6 0.4-2.3 1.2 0.3 1.3 0.7 0.4 1.2 -0.1 0.3 2.4-2 1.6-1.4 -1.3 1.3 2.7 10.4-1 15.7 -1.2-1.4-2.3-6.3 1.3-4.8C1610 121.5 1611 118.2 1611.3 115.1 1611.3 114.6 1611 118.3 1611.3 115.1zM1611.2 140.9c4 0.9 1.6 8.8 1.3 11.6C1611.9 148.6 1611.5 144.8 1611.2 140.9z"/></svg>