<?xml version="1.0" encoding="utf-8"?>
<!-- Generator: Adobe Illustrator 18.1.1, SVG Export Plug-In . SVG Version: 6.00 Build 0)  -->
<svg version="1.1" id="Layer_1" xmlns="http://www.w3.org/2000/svg" xmlns:xlink="http://www.w3.org/1999/xlink" x="0px" y="0px"
	 width="100%" viewBox="0 0 1680 766.2" enable-background="new 0 0 1680 766.2" xml:space="preserve">
<g>
	<rect x="688.9" y="638.1" fill="#7AA3A1" width="87.3" height="128.1"/>
	<path fill="#305B61" d="M743.5,664.4c0.1-0.1-6.3-11.1-6.2-12.7c0.1-2.1,7.9-12.1,5.8-13.5c5.4,0.1,11.7-0.1,17.1,0
		c-1.2,3.5-2.2,10-3.8,13.4C752.7,656.2,748.1,660.5,743.5,664.4z M730.9,638.1c0.3,0.8,2.1,6.8,1.2,7.3c2.8-1.5,3.4-4.5,3.9-7.3
		C734.4,638.2,732.2,637.6,730.9,638.1z M719.5,693.4c-2.3,16.4-2.5,32.9-2.5,49.4c0,9.4,2.8,22.6-8.3,24.3
		c-5.6,0.9-12.4-0.8-18.2-0.9c-10.7-0.1-21.5,0-32.2,0c-21.6,0-43.1,0-64.7,0c-152.6,0-305.1,0-457.7,0c-37.6,0-75.7-1.6-113.2,0.1
		c-9.1,0.4-19.7,3.9-22.9-5.1c-1.8-5,0.2-12.2,0.3-17.5c0.2-8.3,0-16.6,0-24.9c0-37.7,0-75.3,0-113c0-20.2,0-40.4,0-60.6
		c0-9.2,0-18.4,0-27.6c0-6.3-2.5-20.7,2.8-22.1c0.6-0.5-1.6-5.7,2.8-4.4c0.3,0.1,4.5,6.4,5.3,3.3c0.8-3-5.2-2.7-0.3-6.5
		c4.6-3.6,3,3.1,4.2,5.8c0.3,0.1,1.5-46.6,1.5-52.9c0-19.5-0.4-38.9-0.3-58.4c0.1-20.7,1.2-41.3,1.6-62c0.3-13.6,4.4-35.2-2.4-47.6
		c4.5,3.6,2.9-4.3,2.3-6.4c-1.5-5.5-5.2-8.8-9.3-12.6c2.7,2,5.4,3.9,8.1,5.8c0-4,1.3-7.7-3.4-9.5c5.3,1.4,5.4-7.7,2.6-10.1
		c0,2.9-8,8-9.1,6.4c-1.1-1.3,2.7-0.2-0.2-1.5c0.2,3.3-1,2.1-2.9,0.8c2,2.2,1.7,3.8-1,4.6c-1.8-3-1.4-2.8,0.2-4.9
		c0-1.8-2.5-6.1-2.9-8.5c-1.1-7.1,0.2-14.8,0.2-22c0.2-18.2,0-36.5,0-54.7c0-18.5,0-37.1,0-55.6c0-3.8-0.8-31.4,9.2-20.6
		c0.1-0.1,0.4-4.6,0.5-4.6c1.6,0.3,3,1,4.2,2c-0.5-4.9,7.4,0.7,8.5,1.8c4,3.8,1,3.8,4.6,7.2c-0.6-0.4-0.9-1-1-1.7
		c1.3-0.8,2.5-0.6,3.8,0.5c2.1,1.5,3.4,0.8,3.9-2.1c2,0.2-0.1,3.8-0.6,4.2c3,0.7,3.1-0.9,5.9,0.3c0.6,0.2,0.1,2.2,1,2.6
		c0.4,0.2,7.2,0.1,6.8,2.2c-3.1,0.2-3.4,1.1-0.7,2.5c-0.6,0.9-5.2-0.6-6.5,0.7c0.2-0.2,15.6,5,5.3,5.6c1,0.2,1.4,0.8,1.2,1.7
		c-2-2.5-3.4-1.3-3.7,0.2c-0.4,0.1-12.3-5.6-11-1.8c0.5,1.6,2.5-0.7,3.1-0.9c0.6,0.7,0.7,1.4,0.3,2.2c-0.1-0.1,3.1-0.3,4.1,1.3
		c2.4,3.9-5.5-0.2,0.3,2.5c-2.6,2-11.8-5.9-15.1-2.6c-0.4,0.4,13.7,2.1,12.2,6.5c0.6-1.7,5.8-1,5.9-1c-1,0.3-1.9,0.7-2.8,1.3
		c2.3,2.5,1.1,2.1-1.7,3.5c2,0,3.7,1.7,5.7,1.5c2.9-0.3,3.9-3,7-3c2.7,0-1,7.9-1.9,7.4c1.8-0.1,3.4-0.8,4.7-2
		c0.6,1.5-1.6,4.7,1.7,2.5c0.7,1.2,0.4,1.8-0.8,1.6c3,2.1,2,2.7,2,4.1c0,1.6,4.4,1,1.8,3.3c-1,0.9-4.4,0.3-5.5,0.5
		c-1.5,0.2-12.4-2-12.9,0.1c-0.7,3.6,18.5,1.8,19.1,3.4c-0.4,0.9-0.9,1.8-1.5,2.6c0.1,1.1,2.4-1,2.3-0.2c-0.1,1.4-5,5.3-5,3.9
		c4.9,0,2.8,1.4-1.1-0.5c-2.4-1.2-4.9-2.9-7.4-3.8c-1.6,2.2,6.2,6.6,7.6,5.9c-1,0.1-2.1,0-3-0.3c-2.1,0,8.5,4.4,8.5,2.9
		c-3.8,0.4,2.2,3.1,2.9,1.2c-0.9,1-1.8,2.1-2.5,3.2c-0.2,0.6,3.6-1,3.8-1.2c0.4-0.3-1.6,4.9-1.4,4.5c0.9,1.3,4.1-2.8,5.1-1
		c1.4,2.3-5.1,7.4-5.1,4.2c5.5,5.1-3,0.1-0.6,2c0.3-0.8-8-7-8.2-6.9c0.4,0.2,0.2,0.5-0.5,0.7c-1.1,0.9,3.8,5.5,4.5,4.7
		c-4.5-1.6-3.3,2.2-3.4,4.6c-0.9-0.5,9-1.5,4.9,1.9c3.8-3.2,5.1-1.3,3.4-1.1c4.6,3.3-2.8,3.7-2.7,5.8c-1,0.7-4.8-1.2-5.2,0.7
		c-0.4,1.1,10.7-2.3,5.2,0.8c4.8-0.3,2,6.3-2.2,2c0.6,0.6-3.1-0.3-1.4,2.4c-0.7-0.3-4.8-0.8-4.1-1.2c5.1,3.4-2.2-2.9,0.3-2.9
		c-0.5,0.3-0.6,0.7-0.3,1.1c0.5-0.6-3.9-3.8-5-4.2c1,0.3,0.9,2,0.3,2.7c-2.9,3.2-12.8-17.9-13.9-18.9c-2.2-2.2-9.2-6-12.4-5
		c-6.1,2,2.1,5.4,2.8,4.6c0.7-2-1.6-1.8,1.7-1.1c-0.3-0.1,4.9,0.4,4.9,0.3c3,0-0.1,7.6-1.5,6.4c0.9,1.4,7.3,2,7.1,3.6
		c-5.7-0.9,1.8,0.9,0.7,2.8c-1.1-0.3-2.1-0.8-3.1-1.3c-0.8,0.1,2.2,3.9-0.8,3.6c-0.5,0-7.3-0.5-5.3-2.6c-0.2,0.5-0.6,0.7-1.2,0.3
		c1.6,4.7,6.7,12.8,12.4,13.2c0.5-2-2.3-3-0.3-4.9c-0.5-0.3,6.5,3.5,4.1,3.2c1,0.1,2.7-1.8,3.4-1.5c0.7,0.3,8.5,2.8,3.9,2.9
		c1.1,0.4,2.2,0.7,3.4,1c-2.4-2.4,4.1-0.3,3.6,0.5c-0.1,0.3-4.2,0.3-3.6,1.4c3.2,4.1,10.1-3.2,8.1,4.7c0-1,3.5-1,3.7,0.8
		c0.1,0.8-3.1,3.8-3.6,4.4c2,0.9,1.6-3.4,3.9-2.1c2.2,1.2-2,2.3-0.6,3.5c0.5,0.3,3.6-0.8,2.8,1.1c-0.8,1.8-7.1,0.2-8.7,0.6
		c3.4,0-4.1,3.4-2.9,1c-0.1,0.1,2,4.7-0.3,4.1c-1.8-0.3-1.8-4.4-4.2-2.5c4.6-3.6,1.2,5.3,1.2,1.7c-0.8,2,2.3,3.8-1.1,5.4
		c0.5-0.2-2.7-1.2-2.4-0.5c0,0,0.5-5.6-0.3-4.8c-2,1.7-1.2,5-5,2.9c-0.7-0.4,2.2-2.5,2.4-2.5c-1.8,0-2.5-0.8-2.7-0.8
		c-4.3-0.9,0.1,5.4,0.1,5.2c0.1-0.4-2.5-2.2-3.6-0.7c-0.2-0.2-0.1-4.1-0.2-4.1c-1.1,0-7.6,6.7-7.6,1.9c-2.1,1,2.5,4.4,2.9,5.3
		c-0.7-1.5-12.3,1.1-11.2,0.9c-0.8,1.5,15.4,3.9,8.3,4c0.2,1.6,4.3-0.5,4.9,0.5c-0.4-0.4-3.4,4.4-3.4,4.4c-0.6-1.1-1.5-2-2.5-2.7
		c1.8,3.6-7.6,2.2-9,1.3c1.7,1.7,0.9,4.1-1.7,2.5c0.2,4-1.9,43.1,4.7,42c-9.1,5.9-2.4,30.2-2,39.3c1.2,25.9,0.4,52,0.3,77.9
		C23.2,402,23,428.9,23,455.8c0,4.1-3.1,37.7,3.9,35.4c0.4-0.1,0.5-5,2.7-5.9c3.7-1.5,1.1,1.3,2.3,2.2c-1.8-1.4,2.3,6,1.6,4.5
		c0.3,0.6,5.7,0.5,4.8,1.9c-0.9,1.5-3.1,1.3-1,3.2c0.4,0.3,2.1,3.8,2.8,2.9c2-2.3-0.3-17.6-0.8-17.2c-2,1.5,5.1,7,6.7,5.4
		c1.5-1.5-4.5,5.2-2.8,6.9c-0.9-0.9,5.5-2.1,5.9-2.2c0.7-0.2,0.1-2.7,1.5-3c0.7-0.2,2.3,1.9,3.2,2c1.3,0.1,3.6-1.5,4.8-1.1
		c1,0.4,1.6,5,2.9,4.7c3.9-0.9-0.1-4.8,0.6-6.9c0.9-0.2,1.8-0.5,2.6-0.8c0.2-0.6-12.4-8.9-0.6-4.1c2.9,1.2,4.4,6.4,7.2,7.2
		c4.1,1.2,0.4-2.5,2.7-3.5c0.6,0.5,1.1,1,1.6,1.5c1.6-1.1-0.8-3.4,0.3-4.8c2.1,2,2.8,5,6.4,4.3c-1.8,0.4,0.9,3.6,1.4,3.7
		c0.4,0.1,1.3-4.8,1.5-5.1c4.4,6.8,5.9-0.2,10.5-0.6c1.6-0.1,8.9,2.8,5,4.5c3.9-1.7,11.1-3.8,10.4-7.4c-0.3-1.3-7.2,0.7-5.4-3
		c1.3-2.7,6.6,0.8,8.6,0.7c1.2-44.1,2.6-88.1,6.5-132.1c1.7-19.4,3.3-38.8,7.1-58c2.6-13.4,3.4-28.3-13.6-19.1
		c2.9-1.9,5.9-3.7,8.8-5.6c-2.5-2.5-5.4-4.5-8.8-5.6c6.5,0.9,10.9,5.4,16.1,9c1-10.1-1.7-16.4-7.9-24.2c2.9,3.5,5.9,6.9,8.8,10.5
		c1-6.2,5.5-14.6,3.8-20.9c-2-7.6-11.8-7.9-18.2-10.4c6,1.3,11.9,3.3,17.6,5.6c0.2-4.5,0.3-9,0.5-13.5c-1.8,1.4-1.2,3.9-4.1,2.1
		c2,1.3,0.1-5.4-1.4-6.3c2.9,1.7-5.3,13.3-6.1,3.5c-0.3,0.3-1.5,4.3-2.7,2.7c-0.5-1.2-0.1-1.9,1.1-2.2c-1.6,3.1-11.4-7.1-12-7.6
		c-0.2-0.2-2.4-3.1-2.5-3.4c-2.3-4.4-2.4-1.1,0.5-4.1c4.1-4.3,9-1.9,8.5-7.7c-0.6-7-2.1-1.8-5.5-3.1c-0.3-0.1-5.7-3.7-6.3-3.4
		c4,1.6-10.5,8.1-14,6.6c-5.7-2.3,1.3-2.5,1.4-3.4c0.1-1-0.4-10.3-1.7-10.2c3.6-0.3,3-3.7,3-7.7c0.2,0.3,3.8,2,3.7,1.6
		c0-1.3-3.2-3.7-2.9-4.7c1-3.6,4.2,1.5,5.1,1.5c0.5-0.7,0.7-1.5,0.5-2.4c2.4,0.7,5.3,0.8,1.3-3c-2.6-2.5-3.2-1-5.5-2.1
		c-2.2-1.1-1.8,0.5-4.7-2.3c-0.4-0.3,5.1-0.9,5.2-1.4c0.1-0.4-5.8-0.3-6.1-1.5c3.3-2.1-1.4-8.9-2.5-12.2c0.8,0.2,1.5,0.2,2.3,0
		c-3-3.3-1.2-1.7,1.6-2.2c-2.9,0.5-1.1-17.2,0.7-19c0,0,2.4,0.9,2.2,0.8c-6.8-3.6-11.6-7.8-9.7,2.7c0.5,2.5,5.9,6.1-0.1,6.3
		c-1.1,0-7.6-4.9-7.3-5.3c1.5-2.1,3,0.5,1.9-3c-0.3-0.9-2.1-5.1-2.7-4.3c-0.6,0.7,1,3.3,0.4,3.7c-1.6,1.9-5.4-4.3-6.1-4.6
		c2.1,1-4.7-4.2-2.8-2.3c0.4,0.4-1.7,2.7-3.1,0.9c-0.5-0.6-0.1-6.9,0.8-7.2c3.5,2.9,1.9-3.6,5.1-1c-1.2-1-3.6-6.1-2.3-7.3
		c2.6-2.5,3.7,3.7,5.2,4.2c0.6,0.2,7.1-0.7,7.8-2c1.5-2.8-3.2-2.4-2.6-4.9c-0.4,1.6,8.5-3.5,7.8-3.3c0.2,0,8.9-1.4,8.1-0.2
		c3.1-4.4,1.8,1.4,7.3,2.9c-0.5-0.1-1.9-7-1.9-7.5c0.5-6.2-2.7,0.2,2.7-4.5c5-4.2,11.6-3.7,17.3-7c-0.3,0.3-1.7,4.2-0.4,4.2
		c0-2.6,1.1-3,3.2-1.4c-0.1-1.3-0.6-2.4-1.6-3.3c1.5-0.2,3.1-1.6,4.5-1.7c-8.2,0.3-16.3,2.4-23.8,5.8c-1.6-4.9,4.2-5.8-0.8-8.9
		c-2-1.2-6.4,1.2-7.7-1.3c1.1,2.1,7-12.1,6.8-11.9c-8.5-4.3,1.8-2.7,4-5.2c2.8-3.2-0.8-13.4,3.9-16.7c1.1-0.8,8.8-0.1,8.8-0.4
		c-1-0.5-2-0.9-3-1.4c6.7-6.7-5.8-1.9-7.1-3.7c7-0.1-3.4-2.8,0.3-5.5c-3.4,2.4-5.8-2.4-5.2-2.7c0.9-0.4,10.8,0.3,10.7,0.9
		c0-0.4-3.5-2.8-2.7-3.4c6.8-2.2-2-1.3-0.3-5.8c1.4-3.9,10.3,4,9.7,4c6.8,0.4,14.2-6.9,22.1-4.5c-2.4,0.6,2.6,8.3,4,9
		c-0.1-0.1,14.4-7.3,8.6,3.9c1.6,0,10.7-1,11.3,0.8c-0.2-0.5-4.1-2.8-3.1-3.7c2.4-2.3,1.9,0.4,2.4-2.7c0.2-1.4-4.7-2.4-1.8-4.6
		c2.5-1.9,9.4,4.8,12.5,4.6c2-0.2,5.3-3.1,7.6-3.7c2.3-0.6,10.4-1.4,12.3-0.7c2.9,1,1.8-1.5,4.3,1.4c2.3,2.7-2,6.6,3.5,8.6
		c1-4.3,7.5-5.9,10.1-1.8c2,3.1-1.7,5.1-1.1,7.7c1.5,6,3.2,0.1,3.2,0.1c-3.5-1.4,7.1-1,2.8-0.8c-0.1,0-0.2,3.9,0,4.2
		c0.7,0.7,1.8-2.7,3-0.9c1.3,2.1,1,5.3,2.7,7.1c-1.2-1.5,5.2,0.3,5.6,0.6c2.5,1.8,2.7,5.2,6,7.2c3.8,2.3,10-2.2,14.7,0.3
		c-4.7,4.5-4.3,16.4-4.8,21.2c-0.6,6.4-3.9,12.2,3.4,10.5c3.3,3.5,3.4,14.9,3,19.6c-0.2,2.4-0.3,7.9-2.9,9.2c-1.7,0.8-7.8-1.4-8-4.1
		c0.1,1.3,5.1,6,3.4,7.2c-1.3,0.9-2.2-2.7-3.5-1.8c-0.6,0.4-2.2,4.1-3,4c-2.3-0.3-6.7-6.3-9.6-4.1c2.4,1.7,7,6.2,8,9.1
		c1.1,3.3-1.1,3.1-0.6,6.3c0.4,2.7,3.2-1.2,3.4-0.9c2.7,3.2-2.7,3.7-3.1,5.1c-0.8,3.8-0.6,3.6,0.7,7.5c0.9,2.5-0.3,7.2,4,7.2
		c4.8,0,5.8-5.1,11.7-4.9c2.8,0.1,5.7,0.9,8.5,1.4c1.9,0.3,0.7,2.7-0.4,1.7c-0.3-0.3,3.1-0.6,3.2-0.5c0.7,0.4-0.6,3.1,0.1,3.7
		c1.4,1.2,3-2.6,3.8-2.8c1.2-0.4-0.1,9.1,0.3,9.8c1.7,2.7,6.2,0.9,7.9-1.1c0.5,0.1,0.4,9.9-0.2,11c-1.8,3.3-1.8,1.5-2.7,2.3
		c-0.7,0.6-15.8,11.5-16.1,11.4c0.7,0.2,4.6,1.9,4.8,1.8c2.1,0.1,1.1-6.1,3.7-6c-0.2,0,6.4,4.8,6.2,3.8c0.3,1.2-4.6,4.8-3.3,5.5
		c2.6,1.5,6.9-2.8,9.5-3.3c2.4-0.4,8.5,0.3,10.9,0.8c-0.3,8.9-18.3,11.8-19.8,14.8c6.4-0.2,3.1,1.2,1,4.6c-2.8,4.4-3.8,5.4-7.7,6.7
		c-0.4,0.1-1.5-3.1-3.6-2.7c-1.7,0.3-2,3.3-3.8,3.6c-2.6,0.5-10.3-0.2-11.2-3.8c0-0.1,9.4-7,10-8.3c2.5-4.9-0.1-5.8-1.6-9.7
		c-0.8-2-0.4-5.5-1.7-7.3c-2.3-3.2-2.3-1.4-3.8-2.3c-0.1-0.1-3.1-0.7-4.6-1.8c-1.4-0.9-2.3-4.4-2-5.9c-0.7,2.9-8,0.2-8.6,3.2
		c0.4-1.8,3.9,7.7,5.2,5.8c-3.2,4.4-9.8,0.1-9.6,4.7c1.4-1.7-10.8-6.3-12.8-5.8c-1.7,0.5-7.1,5-6.8,7c0.5,4,4.8,1.2,7.3,1.7
		c-0.4-0.1-0.1,2.8,0,3.1c-1.7-3.8,5.9-0.4,3.1,0.9c1-0.1,2-0.1,2.9-0.1c-2,2-0.1,2.2,0.7,3.2c-5.9,4.4,6.1,0.1,7.1-0.3
		c6.4-2.9,13.2-7.3,18.8-11.6c-9.3,12.5-25.1,17.9-38.5,24.5c3.1,2.3,4.5-4.6,8.2-0.9c-0.3-0.2-0.6,4.6,0.7,5.5c0,3,3.3,0.4,3.4,3.1
		c0,0.7,0.5-2,1.8-1c0,0.8-0.1,1.6-0.2,2.5c-2.8-0.6-0.9,3.5-2.3,3.5c2.4,0.8,5.1-0.2,6.9,1.4c2.9,2.5-1.1,6.9-2,3.6
		c-1.1,0,0.3,1-3.3,0.2c-3.3-0.8-2.7-4.5-6-1c-0.7,0.8,2.2,1.1,2.2,1.5c-0.7,0-0.9,0.3-0.7,0.8c1.4-1.9-2.6,0.4-0.9,0.4
		c0.4,0.7-3.7-7-4.4-6.7c-3.9,2,5.5,12.5,6.5,7.2c0,0.2,1.3,2.1,1.5,2c2.1-0.8,0.4-1,0.8-1.6c0,0.8-0.1,1.5-0.4,2.3
		c0.6,0.1,1.2,0.2,1.9,0.2c-1.5,1.8,0.2,1.3,2.4,3.5c-0.2-0.2-2.5-0.4-2.6-0.2c0.2-0.2,2.1,4.4,2.5,1.6c0.6-0.6,2.9,8.6,2.3,7.6
		c-1.8,1.2-2-2.5-2.6-3c-0.2,0.8-0.7,0.5-0.5,1.2c-1.4-0.8-2.9-1.4-4.4-2c1.6,1.2-0.4,6.1-0.9,1c0-1.1-2.6-4.4-2.9-4.4
		c-0.1,0.4-0.2,0.7-0.3,1.1c0.7,0-0.9-3.2-1-2.9c-0.8,1.2-0.2,3.2-0.9,0.3c-1.2,2.8,0.6,9.8,0.4,10.2c0.5-0.5-5.4-2.4-4.3-1.6
		c0.6-0.6,0.8-1.2,0.4-1.9c0,0.4,0.1,0.8,0.2,1.2c-5-0.7-0.1,2.9-4.2,4.1c-1.1-0.5-1.2-1.5-0.1-2.9c-1.6,0-4,3.1-3.9-1
		c-4.3,0.4-1.8,16.5,2.3,18c7,2.5,19.6-9.1,25.7-11.8c-7.4,5.6-17.1,7.9-24.2,13.2c-7.2,5.4-5.3,13-4.8,21.2
		c1.6,23.8,0.1,47.9-0.3,71.7c-0.4,25-0.6,49.9-1.3,74.9c-0.1,3.4-2.9,31.2,3.1,28.8c-1.7,0.7,1.4,3.4,2,3.4c0.4,0,0.5-5,0.7-5.3
		c5.5,6.1,5.8-1.3,10.2-2.3c8-1.9,2.6,4.7,4.6,8.8c2.9,5.9,4.9,0.3,9.4-1.8c6.6-3.2,13-2,19.9-0.3c16.2,4,26.8,13.9,41.4,20.9
		c15.1,7.3,31.2,5.8,47.1,9c2.1-32.3,3.5-64.6,4.6-96.9c0.5-16.5,0.2-33,0.4-49.5c0.1-11.7,2.2-24.5-6.2-34.1
		c2.1,1.7,4.1,3.4,6.1,5.2c0.2-8.3,0.2-16.5,0.3-24.8c-2.1,0.3-4.1,0.6-6.2,0.9c17.2-6.1-1.7-23.3-7.8-30.3
		c4.7,4.2,9.4,8.4,14.2,12.6c0.3-4.1,5.3-19.2,1.6-22.1c-2.5-2-9.6,8-12.3,7.2c1-3.2,0.1-4.2-2.6-2.9c4.6-4.1-2.2-0.1-1.3,0.5
		c-3.5-1.4,10.3-8.3,9.4-5.5c-0.8-0.3-7.2-2.5-5-2.4c-1.8-0.1-7.6-0.9-8.3,1.8c1-0.9,1.7-2,2.1-3.3c-0.2,0.1-6,5.5-5.8,5.8
		c0.3,0.4-1.6-4.3-2.6-3.5c-0.6,0.5,4.8-2.6,0.2-1.6c1.6-1.1,8.6,1.5,3-3c2.9-1.1,1.8-0.4,0.6-3.1c6.1-1.6,1.2,1.1,4.3-1.9
		c1.1-1.1,0.5-1.5,2.1,1c1.2-4.7,7.6-3.8,12.2-6.5c0.8-0.4,5.2-1.4,5.3-1.9c0.7-1.9-3.2-6-3.3-5.9c1.1-1.9,8.4-4.1,3.1-7.2
		c-0.6,0.8-1.3,1.5-2.2,2.1c-0.2-1.1-1-6-3-5.7c-0.2,0-1.8,4.2-1.9,4.1c-0.6-1.7-0.1-4.5-2.4-5.7c-4.6-2.5-0.6,1.1-2.3,1.7
		c-1.9-2-3-1.8-3.2,0.5c-0.7-3.4-9.3-0.1-8.4,1.7c-1.6-2.9,4.8-3.5,3.9-6.4c-0.8-2.8-9.5,8.9-6.1,7.7c-4.5-3.7-2.1,4.3-1.5,5.7
		c2.4,5.7,5.7,4.1,9.9,6.6c-0.1-0.1-6.3,5.7-7.6,5.7c-3.2,0.2-6.5-3.4-9.4-3.9c-1.7-0.3,0.2,4.1-3.8,2.4c-2.2-0.9-0.9-3.5-2.2-4.8
		c-3-3.1-8.5-6.8-1.6-6.7c-1.6-3.9-18.9-6.1-18.7-14c3.9,2.9,6.4-2,12.1-0.3c2.9,0.9,6,4,8,1.8c-2.2,2.5-7.2-9.7,1.2-4.7
		c0.4-0.7,0.6-1.5,0.5-2.4c0.8-1.7,4.4,5.5,4.2,5.5c-0.3,0,5.2-3,4.8-1.9c0.5-0.9-13.7-9.2-14.2-9.6c-4.8-3.3-2.3,3.4-4.6-4
		c-0.3-1.1-0.8-9.1-0.1-9.5c2.8-1.6,5.1,3.5,7.8,0.8c0.9-0.9,1.3-9.1-0.2-9.7c0.8,0.3,3,4.1,4.2,3.2c0.4-0.4-2-8.4,2.4-2.4
		c2.3-3.6,6.6-4.7,12.2-3.1c3.4,1,3.2,4.6,7.4,3.6c7.3-1.7,1-11.2,0.5-14.2c-4.7,4.1-2.1,0.7-4.9-0.5c1.9,0.8-7.2-5.4-6.3-3.4
		c0,0,4.4-3.1,4.6-3.3c3.3-2.3,4.8,3.6,3.4-1.2c0.1-0.2,5.6,2.7,6.5,2.3c-1.7-3.9-0.2-1.5,0.1-5.2c-0.2,3.6,7.7-6.8,7.6-6.7
		c-4.1-3.2-4.6,3.5-7.4,4.2c-3.7,0.9-3.7-3.2-7.4-2.1c0.5-0.2,2.4-7.7,2.4-7.7c-5.2,0.7-6.4,10.3-9.3-0.4
		c-1.6-5.9,1.6-17.4,3.5-21.8c0.1-0.3,3.3-0.9,4-3c0.4-1.3-1.5-5.7-1.8-7.2c-1.2-6.4-0.1-15.7-5.3-20.5c4.6-2.5,8.7,2,13.2,0.7
		c4-1.1,5.9-6.1,8.7-8.9c1.1-1,2.9,1.1,3.4,0.6c0.8-0.9,0.5-3,1.2-3.7c-0.2,0.2,3.4-7.6,4.8-4.2c-0.1-0.3-1.9-1.1-1.3-1.6
		c1.3-1.3,6.3-0.1,5.3,2.4c3.4-8.3-2.4-13,8.8-11.4c2.9,0.4,1.7,5.4,4.9,0.1c0.8-1.2,0.3-6.4,0.5-6.6c3.3-3.7,14.8,2.2,19.1,2.6
		c2.1,0.2,15.5-0.9,15.3-2.5c0.3,2.9-2.7,9.4-1.7,9.1c1.8-1.4,11.9-2.5,12.5,0.4c1.1,5.4-6.1,1.7-6.8,1.4c2.4,0.9-1.3,4.9-2.3,5
		c0.3,0,2.5,0.9,2.9,1.1c-2.7,3.5-7.4-1.7-8.1-0.7c-0.9,1.3,0.3,3.6-0.2,5c-0.4,1.2-2.8-0.2-3,0.9c2.6,0.7,3.2,1,1.8,0.9
		c1.7,0.4,8.9-3.9,9.4,3.9c-1.3-6.1-8.7,0.9-9.5,3.3c-0.2,0.6,7-0.5,7.3-0.5c0,0,3.4-1.4,2.9-1.2c1.2-0.5,3.3,1.9,4.8,0.7
		c0.7-0.5-3.1-2.9-2.4-3.4c7-0.1-0.5-1,1.8-4.3c4-5.5,6,5.6,9.2,5.7c0.1,0,2.3-5.1,6-3.7c-4.5-1.7,0.4-3.7,1.8-3.9
		c-0.8-1.1-5.3-1.9-5-3.9c1-0.4,1.9-0.3,2.9,0.4c-0.4,0.4-1.8-3.6-1.9-3.7c0.3,0.2,8.7,4.7,5.6,5.1c4.5-0.6-0.7-4.4,5.5-0.3
		c1.4-1.3-4.5-4.1,0.1-3.1c5.9-5.5-12.6-3.4-1.1-6.2c-7.1-0.9,4.4-2.8-3.9-2.7c3.7-2.5-0.5-1.4-0.4-4c-0.1,1.9,4.9,1.9,5.9,1.8
		c2-0.2,2.3-4.6,5.9-3c-0.2,1.4-1.2,1.8-2.9,1.2c0.3,5,3.9-1.1,6.2-0.2c0.7,0.3,1.9,4.8,3,4.7c-1.9,0.2,3.4-5.5,2.4-4.2
		c0.2-0.3,3-0.1,3.8-0.9c2.6-2.8-2.7-2.2,0.9-4.3c-2.6-1,2.3-3.7,2.3-6.6c0.6,0,3.9,1.9,3.9,2.7c-2.1,2.6,2.9,2,1.5,6.4
		c0.4-3.4,9,2.1,10.1,3.3c0.2-0.4,2.8-3.3,2.8-3.1c0.5,2.5-1.2,6.3-0.2,6.1c0-0.5-2.9,3.4-3,3.5c2-2.4,4.5-3,4.1,0.5
		c0.7,0.5,1.7-4.4,3-3.3c0.9,0.6,0.9,5.8,1.3,5.8c2.2-1.9,4.7-3.4,7.4-4.5c0.3,3.9,2,2.3,1.6,5.8c-0.5,3.4-2.3,1.4-3.1,3.7
		c-0.1,0.3,4.3,1.9,4.6,2.6c0.8,1.9,1,2.8,1.4,4.2c0.3,0.9-6.4,3.6-0.2,4.4c1.2,0.2,2.1-2,3.1-2c4.2-0.1,4-2.4,7.6-1.3
		c2.1,0.6,5.9,2.9,4.3,6.2c2.9-0.8,3.1,3.4,1.7,4c2.5-3.1,3.5-3.3,2.9-0.5c3.2-5.9,2.5,2.4,4,3.7c0.5,0.5,9.5-10.3,7.8-1.4
		c2,2.6,2.7-5.5,2.2,0.6c4.6-2.6,0.7-2.8,3.3,0.7c-0.5-0.6,1.8,5,1.6,4c0.2,1.1-2.9,4.1-1.7,5.2c3.4,3.3,2.7-1.2,5.4-1
		c4,0.2,0.9-5,4.6-0.8c1.6,1.8-0.1,4-0.6,5.6c-0.7,2.1-7.7,7.2-6.3,9.5c0.5,0.8,2.2-1.9,3.1,1.5c0.2,0.7-3.2,5.3-2.4,5.7
		c3.6,1.9,3.9-4.2,4.2-4.1c0.3,0.2,9.8,10.6,8.2,5.4c-0.1,3-1.5,6.9-3.9,8.9c-1.5,1.3-4.5,1.4-5.2,2c-3.1,2.5-0.6-1.9-2.8,3.1
		c-0.3,0.7,0.2,6-1,5.8c1.7,0.3,8.8-2.4,9.1-2.6c0.3,1.3,1.1,1.7,2.3,1.3c-0.7,0.8-5.9,7.9-6.7,7c3.9,1.1,1.3,2.5,5.6,0.5
		c1-0.5,4.3-6.1,5.3-5.8c-0.1,0,1.3,11.3,4.2,6.2c0,0-1.5,3.5-1.8,3.9c-1.1,1.5-4.2-0.7-5.2,0.5c1.2,3.7-4,2-4,7.2
		c0-0.5,5.7,7.2,4.6,7.1c0.5,0,4.5-2.2,4.7-1.9c0.9,1.6-1.1,6.8-0.3,7.6c1.3,1.6,7.8-5.5,5.3,1.4c-0.5,1.3-6.7,7.6-6.6,3.6
		c-0.2,5.7-10.4,5.3-12,1.3c-1.3-0.4-2.1,5.3-1.5,6.1c0.9,1.2,3.4-0.8,4.4-0.6c-0.4-0.1-0.1,4.7,1.4,2.7c2.7-3.9-0.7-2.1,4.8-3.5
		c-1.5,0.4,11.3-1.3,9.1-2.1c2.2,0.8,2,6.3,1.6,7.6c0.3-0.8-5.1,1.5-4.3,2.7c0.4,0.6,2-0.2,2.1,0.7c-0.5,1.6-1.4,3-2.8,4.1
		c1-1.4-8.7,0.1-9.6,0.5c-2.9,1.1-5.2,3.6-8,4.9c-2.4,1.1-6.4,0.9-8.5,2.1c-3.3,1.9,0.1,5.1-2.7,4.3c2.4,4.2,4.2,0.3,4.2-2
		c0.9,0,3.9,3.5,4.6,3.7c0.2,0,3.5-2.1,5.1-1.6c-0.5-3.1,3.6-0.3,3.9-0.3c0.4,0.1,2-3.7,2.4-3.5c3,6.4,2.8,9.6-2.9,12.5
		c-5.8,3-9.5,1-15.8-0.1c-4.8-0.8-10.9-2.8-16.7-6.4c-4.2-2.6-11.5-11.8-15-9.4c2.9,6.3,0.7,6.1-3.3,8c0.5-0.3-4.5-1.7-5.3,0.4
		c0.3,1.2,0.9,1.3,1.8,0.3c0.1,2.6-0.6,3-2.2,1.3c0.2,0,7,6.5,8.1,3.9c0.9-2.1-0.3,2.4,0.3,4.4c-1.2-3.9,8.1,7,5.6,5.8
		c3.7,1.7,9.2-2.6,9,4.9c0-1.4-11.8,0.9-12.6,1.3c-1.2,0.3-8.3-6.3-8.9-9.3c0.7,3.6-6.4,5.6-8.3,4.6c-3.4-1.8-1.2-7.2-3.8-9
		c-6.2-4.4-11.3,11.9-0.6,16.3c10.4,4.2,22.3,4.1,32.6,7.4c6.6,2.1,2.4,1.8,5.1,6.1c0.5,0.8,6.4,5.6,6.3,6.1c0,0.1-4.5-1.4-4.8-1.2
		c-0.7,1.6-0.1,2.4,1.9,2.6c-2.4,0.5-2.7,1.7-0.8,3.4c-1.6,2.9-6-2.8-7-2.6c-2.7,0.8,8.2,3.7,6.6,3.1c3.5,1.2,7.6,1.7,4.8,4.4
		c0.4-0.7,7.6-2.4,7.8-1.8c0.7,1.9-2.4,0.3-2.4,0.5c-0.1,0.1,2.7,3.7,3,4.1c-1.3-1.4-3.2,1.4-3.9,0.9c0.9,0.3,1.5,1,1.6,2
		c-1.8,1.9-4-2.2-5.6-0.4c3.9,4.5-11.3,0.8-5.2,5.3c-1.8-5.2,12.5,0.2,10.7,3.4c-1.2,2.1-7.5-1.2-8.9-1.7c2,2.9-4.3,3.7-5.4,3.1
		c-2.4-1.1,0.2-4-1-5.1c-2.5-2.3-4.1-3.3-6.2-5.4c-0.7,0-0.2,4.2-1.9,3.4c-2.6-1.3-6-10.2-10.4-8.1c0.3,0.2-2-12.6-3.2-14.6
		c-2.9-4.5-12.1-13.6-18.2-12.6c-6.2,1-6,8.9-4.5,14.5c0.3,1.3-0.5,5.1,0.3,5.9c1.8,1.9,17.5-0.2,20.5-0.3
		c-4.9,0.6-22.9-1.9-20.6,7.7c1.7,7,15.9,5.7,20.9,6.6c-7.3-0.8-14.7-1.5-22-2.3c0.5,7.1-1.5,12.3,4.8,16.8c5,3.6,12.7,3.8,18.4,6
		c-7.9-1.9-15.8-3.9-23.7-5.8c-0.3,5.3-6.6,34.2,3.2,32.3c-10.8,6.4-5.8,34.3-6.3,44.8c-1.1,25-1.6,49.9-1.4,74.9
		c0.1,21.3,0.8,42.9-1.1,64.1c-1.3,13.8-4.6,29-1.2,42.6c1.7,6.8,4.4,10.8,11.1,13.2c7.4,2.7,21.7,4,29.2,3.8
		c1.3,0.5,2.6,1.1,3.9,1.6c0.9-2.4,2.3-4.4,4.2-6.1c3.1-2.3,6-2.4,9.6-2c5.5,0.5,12.6,6.4,17.8,5.8c7.8-0.9,9.8-8.6,19.3-4.6
		c9.3,3.9,8.7,8.4,13.2,15.4c3.8,6,13.2,5.8,18.9,11.3c6.2,6,7,13,3.8,21.1c5.3-1.9,7.5,2.3,12.3,2.9c4.4,0.6,8.4-1.5,12.7-0.7
		c5.3,1,10.5,4.6,16,5.9c4.5,1.1,9,1.8,13.4,3.2c11.2,3.6,20.3,7.1,32,8.8c11,1.6,20.9,7,31.8,8.9c-4.1,1.7,4.7,19.1,5.8,21.5
		C718.9,670.8,719.2,681.3,719.5,693.4C717.7,706.2,719.3,684.4,719.5,693.4z M135.9,337.9c0-2.2-0.1-4.5,0-6.7
		c0,5.1,0.1,10.1,0.1,15.2c-0.2-26,0.5-55.3,2.3-82.4c-10.6,70.9-13.1,142.7-14.7,214.2c0,0,3.2-1.7,3.3-1.7c0.3,0,5.5,5.6,5.8,2.4
		c0.3-3.1-5.6-1.8-1.4-6.4c4-4.3,3.4,2.6,5.1,5.1c0.3,0.1,0.8-53,0.7-58.1C136.6,392.3,136.1,365.1,135.9,337.9
		C135.7,313.2,136.1,374.1,135.9,337.9z M180.5,315.3C180.3,312.8,179.8,315.2,180.5,315.3c-1.2-15.9-13.9-13.7-25.2-22.9
		c7.7,4.4,15.6,8.5,24.5,9.7c0-7.4,3.7-21.5-3.7-26.5c5.3,0.9,5.3-6.6,3.8-9.6c-1.9-3.6-4.7-3.1-7.8-5c-9.2-5.7-18.6-10.9-27.3-17.3
		c0.2,76.8,0,153.5,1.1,230.3c0.4-0.1,3.6-10.2,5.9-7.2c1.1,1.4,0.4,4.3,1.7,6c1,1.2,9.5-0.5,4.2,3c5.6,7.7,4.6-16.3,1.1-12.7
		c1-1,4.7,6.2,5.6,6c0.5-0.9,1-1.9,1.6-2.8c1.6,2.3-3.8,6.5-1.4,8.4c0.5,0.4,5.6-4.5,5.6-4.5c-0.2,0.1,2.3-1.1,2.5-1.2
		c0.6-0.2,1.6,1.7,2.4,1.3c7.5-3.7,3.7-30.9,3.7-39.8c0-22.7-0.4-45.4,0-68.1c0.2-9.1,0.3-18.1,1-27.2c0.5-6.4,2.3-14.9-1.8-20.6
		C178.9,314.8,179.7,315.1,180.5,315.3C180.4,313,179.7,315.1,180.5,315.3z M193.5,313.8c0-0.9,0.1,2.5,0,3.2
		c2.2-9.1-1.4-15.7-8.3-20.9c0.3,6,0.5,8,6.8,6.2c-3.3,2.2-8.8,3.2-8.4,8.5c0.3,4.1,2.3,5.9,6.6,4c-6.6,4.1-5.8,10.1-5.8,16.9
		c2.2-1.2,4.4-2.4,6.5-3.7c-5.2,7.2-6.8,8.7-6.7,17.9c0.1,7.6,0.2,15.2,0,22.9c-0.4,16.6,0,33.1,0.5,49.7c0.3,10-0.3,19.8-0.1,29.8
		c0.1,3.3-0.8,9.2,1,12.2c1.7,2.9,3.4,1.1,5.7,4.6C192.5,414.6,193.3,364.2,193.5,313.8C193.6,310.9,193.3,364.2,193.5,313.8z
		 M184.4,279.5c0,0.7,0,1.5,0.1,2.2C184.5,281,184.4,280.2,184.4,279.5c0.1,3.8,0.4,26.4,8.8,16.7
		C200.9,287.3,184.4,278,184.4,279.5C184.6,284.9,184.4,275.8,184.4,279.5z M193.4,280.6c-0.2-0.6-0.5-1.2-0.7-1.8
		c-0.6-0.2,0.7,3.5,0.8,0.1c0.1-1.9,0.3-3.8,0.2-5.7c-0.1-2.8,0.3-9.3-3.2-10.6c-6.4-2.4-7.5,6.3-6.2,10.5
		C185.9,278.4,188.2,278.6,193.4,280.6C193.3,277.2,185.9,277.7,193.4,280.6z M352.8,248.4c-0.8,1.1-0.9,1.1-0.1,0.1
		c-2.9,3.7,7.3,4.2,9.8,4.8c-1.8-4.2,2.6-4.5,2.5-7.4c-3.5,2.5-0.1-3.7-0.1-4.1c-2.4,1.2-5.5-0.4-5.8,3.3c0.1,0.1,4.4-1.3,3.3,0.8
		C360.9,248.5,354.8,245.5,352.8,248.4C350.9,250.7,354.6,245.8,352.8,248.4z M351.6,251.5c-0.3,1.5-0.1,3,0.4,4.4
		C352.2,256,353,252.2,351.6,251.5c-0.1,5.4,1,26.6-1,28.5c0,0,2.4-2.2,2-2.6c4.8,3.7-1.8-4.4,4.3-0.3c-1.9-0.1-0.1-5.8,0.3-6.7
		c0.7-1.5,3,4,3.8,1.1c1.7-5.8-2.2-1.7-3.1-6.6c-0.6-3.5,1.2-7.5,4.6-5.4C365.3,256.4,353,252.2,351.6,251.5
		C351.4,260.9,353.8,252.6,351.6,251.5z M361.1,280.1c-0.7,0.3-5.3,2.9-8.5,3.1C358,287.9,358.7,285.8,361.1,280.1
		C359.7,280.7,358.7,285.8,361.1,280.1z M350.2,290.1c-0.2,3,3.2,5.9,7.4,9c0.5-7-2-8.5-7.3-13.3c-0.2,3.1,1.4,4.2,3.7,5.8
		C352.7,291.1,351.5,290.6,350.2,290.1C350.1,291.4,351.5,290.6,350.2,290.1z M350.8,309.7c0,2.2,0,4.5,0,6.7c0-2.3,0-4.6,0-6.9
		c0.1,16.5-0.3,33-0.1,49.5c1.9-15.2,4.3-30.4,5.7-45.7C357.4,301.6,350.8,296.2,350.8,309.7C350.8,326.2,350.8,297.1,350.8,309.7z
		 M454.9,245.4c-0.7-0.3-1.3-0.6-2-0.9c0.8,0.3,1.5,0.8,2.4,1.2c-6-2.5-11.9-5.8-17.7-8.7c7,2.6,14,5,20.9,7.5
		c0.1-3.7,3.7-15.9-1.1-17.9c1.4,3.5-2.7,1.5-3.8,2.8c-1,1.2,0.9,4.4,0.9,4.4c-3.5,2.1-6.4-2.8-9.2-2.3c-2.3,0.7-1.7,5.5-5.5,3.4
		c0,0-4.6-4.2-4.1-2.7c-1.6-4.2,2.2-0.9,3.7-1.3c-0.9-2-0.5-2.6,1.3-1.8c-0.5-0.9-1-1.7-1.5-2.6c0.2-6.3,8.8,3.5,9-0.2
		c0.1-1.8-3.2-6-4.6-6.8c-4.4-2.3-2.6,0-5.8,0.4c-1.2,0.1-10,1.9-10.3,3.1c0.5-2.2,3.8,1.7-0.9,5.1c1.2-0.8-4.7-1.4-5.1-1.4
		c0.4,4.1-1.1,7.7,3.3,8c-1.9-0.2-1.7,10.6-1.7,10.9c0.1,1,6.7,1.9,0.5,3.8c-3.3,1-19.1-5.6-14.6-7.5c-5.3-2-0.7,7.4-6.3,3.1
		c-2.5,6.2-2.4,6.1,0.6,10.9c1.8,2.9,3.9,0.3,4.1,5c0.1,1.1-3.5,1.3-4,2c-0.4,0.6,0.1,2.8-0.4,3.2c-1.2,0.9-3.9,1.3-5.1,2.3
		c-1.6,1.3-4.5,7.1-8.4,4.8c0.7,0.7,1.2,1.5,1.6,2.4c-1.8,0.8-2.8-0.2-3-3c-0.5,1.4-1.3,2.5-2.4,3.3c-1.8,0.2-1.2-4.6-4.8-2.7
		c0.1-1.4,0.4-2.7,0.8-4c-0.1,0.4-5.2,8-2.5,7.4c-5.2,1.1-2.7-6.2-2.9-6.2c-2.9,0.5-7.6,6.4-7.7,6.9c4.1,0.1,8.3,0.9,12.3,2.3
		c-3.8-0.7-8.9-2.6-12.4,0.1c1.7-0.2-2.1,9.8-2,10.2c0.6,2.6,4.3,4.5,6.6,6.2c2,1.4,12.7,8.7,14.4,8.6c6.2-7.4,6.4,2.4,9,3.9
		c2,1.2,6.8-0.9,8-0.2c0.7,0.6,0,3.5-1.8,3c1.2,0.5,1.8,1.5,1.8,2.8c-0.4-2.1,4.1-1.4,4.7-1c1.1,0.7-2.6,4.5-1.4,4.8
		c2.5,0.3,4.7-0.3,6.8-1.6c-0.5,2.7,0.8,3.1,4,1.2c-0.1-1.3-7.1,6.3-4.8,5.7c-2.8,0.8-5-2.6-8.1-1.9c-0.9,0.2,2,3.5,4.3,3.1
		c-4.1,3.8-4.2-1.9-8.2-2.2c-0.7,0,0.5,3-0.4,2.9c-1.3-0.1-5.7-3.6-5.6-4.6c-1.3,1.8,0-0.8-2.8,0c-0.5-6.8-8.4,2.5-10.3,1.8
		c-1.2-0.4-5.1-6.8-5.2-8c-0.3-1.9,2-6.6,0.9-10.2c-1.1-3.7-6.7-11.2-11.2-11.5c-0.2,0-1.4,3.8-1,4.3c1.3,0.3,2.4-0.1,3.4-1.3
		c-6.3,8.2-0.3,10.7,6.2,15.4c-3.4-1.8-6.8-3.5-10.2-5.3c-7.2,61.3-5.6,123.4-11.8,184.9c-1.2,12.2-2.8,15.1,6.7,23.2
		c4.1,3.5,7.1,4.9,12.2,7c5.4,2.1,9.7,5.9,14.9,8c18,7.4,39.4-1.3,56.7,11.3c0.8-26.4,3-52.8,4.3-79.2c1.1-21.5,3.3-42.5-7.3-62
		c2.8,4,5.4,8.2,8.1,12.2c0.5-16.1,6.4-33.9-8-44.6c3.1,1.4,6.2,2.9,9.3,4.4c0.9-3.8-0.1-7.5-1.3-11.1c6.4,5.6,3.6-12.6,3.5-15.6
		c-0.3-12.6,3.3-25.6-6.1-35.5c2.8,1.8,5.6,3.5,8.3,5.3c-0.8-6-1-8.8-6.5-12.1c2.3,0.6,4.5,1.2,6.8,1.8c0.2-5.8-0.3-7.1-5.7-9.6
		c2,0.4,4,0.7,5.9,1.1c-0.4-7.2-1.4-9.3-8.1-12.2c2.8,0.4,5.6,0.8,8.5,1.2c-0.6-12.2-11.3-20.2-18.7-28.6c6,6.4,12,12.8,18,19.2
		c0.5-17.1-6.2-21-18.6-31.1c7.4,4.5,14.6,9.2,20.9,15.1C457.5,254.5,459.6,247.9,454.9,245.4C449.2,242.6,459.6,247.9,454.9,245.4z
		 M1678.1,442c-1-0.3,1.9-0.1,1.9-0.1l-1.8,324.9l-927.8-0.5c0,0-3.1-58.2,4.8-84.2c4.6-15,7.3-48.8,30.1-43.9
		c-0.2-10.1,8.5-13.6,16.8-16.3c9.1-2.9,11,0.3,12.7-10.4c1.3-8.2,5.3-18.4,14.8-19.4c10.2-1,16.4,9.1,22.7,15.2
		c-0.8-49.7-1.6-99.4-2.9-149.1c-0.6-23.4-1.5-46.7-2.2-70.1c-0.3-11.3-0.4-22.6-0.5-33.9c-0.1-9.7-2.3-11.9-9.9-17.4
		c7,2.2,9.7,1.3,8.7-6.1c-1.1-7.9-7-10.5-13.4-13.6c4.1,1.4,8.3,2.6,12.5,4c-0.3-4.4,2.7-11.7-0.8-15.3c-3.3-3.3-10.1-1.9-14.1-2.5
		c4.4-0.1,10.6,2.8,14-0.8c3.1-3.2,0.1-10.5,0-14.3c-5.6,7.7-3-0.2-3.8-1.3c-0.6-1-2.1-2.6-3.2-3.1c-0.7,1.5-0.4,3,0.9,4.7
		c-4.4,0.1-4.9,5-7.8-0.5c-0.3,1.6-1.2,2.7-2.7,3.4c-2.5-0.4,1.4-3.1,1.3-3.1c-1.5-0.7-5-0.3-6.3-0.7c1.2,0.4-5.5-3.2-6.2-3.7
		c-0.3-0.2-5.6-6.8-5.2-5.7c-2.9-6.8,5.1-9.6,11.4-11.7c-5.7,3.7,2.1,3,0.8-0.7c-1-2.9-1.6-6.3-5.3-7c-3.5-0.6-4.3,3.1-7.8,2.1
		c-2.1-0.6,1.5-6.4-3.4-4.1c5.9,2.1-3.2,4.4-4.8,5.2c-3.6,1.7-10.9,7.5-13.1,1.1c0.5,1.5,3.9-4.1,4-5c0.3-3.3-4.5-5.2-2.6-8.6
		c5.6,3.9,2.9-5.5,2.8-8.2c1.2,1,2.7,1.7,4.2,2c0.6-0.2-1-5.1-0.6-5.7c-0.2,0.4,12,4.1,4.1-4.7c-0.3-0.4-12.6-4.5-11.5-5.2
		c1-0.7,5.7,0,6-1.4c0-0.1-5.8-1-5.6-0.8c-1.2-1.2-0.3-1.8-1.3-3.1c-2.8-3.9-4.7-10.2-0.9-11.3c-2.8-0.6-3.3-1.5-1.6-2.7
		c0.8-1.6,1.8-1.5,3.1,0.3c-3.4,0-1.4-9.8-1.3-11.5c0.7-5.9,0.2-8.5,4.6-10.4c-2.4,2.5-12.5-4.7-10.6-5.5c-3.8,1.6-1.8,11.3,2,10.7
		c-1.6,2.7,3.1,5.1-0.6,6.8c-1.2,0.5-7.5-2.5-8.3-3.5c-2.4-2.9,0.7-1.9-0.1-3.8c0.1,0.3-2.2-8.6-3.4-7c-0.5,0.6-1.2,3.2,0,3.9
		c-3.5-2.2-6.1-6.1-9.5-8.4c0.1,0.1-2.3,3.9-2.5,3.7c-2.8-2.4-4.4-10.6,1-8c-2.5-1.7,4.6-3.3,4.5-3c1.2-2.3-5.2-3.9-4.4-6.3
		c1.5-4.7,2.6-0.2,4.9,0.1c2,0.2,2.6,2.6,5,2.5c0.5,0,6.6-4.4,6.8-3.6c-0.5-1.3-4.3-3.3-3.1-5c1.6-2.4,2.6,0.6,4-0.7
		c1.2-1,4.5-5.3,6.2-6.1c2.3-1.1,16.9,2.1,15.5,4.1c2.5-2.5-4.1-9.3-4.2-12.1c3.9-0.8,5.2-3.6,8.8-5.1c8-3.3,2-0.3,6.3,0.2
		c1.3-2.7,11-9,14.2-7.8c-6.4-2.5-21.7,4.5-26.8,7.6c-1.3-4.2,3.2-7-1.2-10.1c-1-0.7-9,1.5-8.9-1.5c0.1-1.4,5.1-6,6.2-6.9
		c-4.8-2.3-2.2-3.9,0.3-6.5c-1.7-0.4-3-1.2-4-2.5c1.6-2.1,4.8-1.8,6.6-4.9c1.3-2.1,0.6-6,1.6-8.2c3.4-7.7,0.2-2.2,4.5-2.7
		c1-0.1,6.8,1.2,7.2,0.1c0.4-1.4-4.4-4-5.1-5.2c-0.1,0-4.5,3.1-4.4,2.6c0.9-7.7,4.9-4.4,11-4.7c-2.6,1-2.2-6.3-1.8-6
		c-3.1-1.9-7.9,2.3-10-0.2c8.2-1.1,0.9-1,0.6-2c-0.7-2.5,1.3-1.9,0.7-4.3c0.4,1.6-11,3.2-7.8-2.4c1-1.7,12.2-0.9,12.6,0
		c-0.2-0.5-4.2-2.6-3.3-3.5c2.3-2.4,1.9,0.3,2.3-2.8c0.2-1.5-4.8-2.2-2-4.6c2.4-2,9.6,4.4,12.6,4c2-0.2,5.1-3.3,7.4-4
		c2.3-0.7,10.3-1.9,12.3-1.3c2.9,0.9,1.8-1.6,4.3,1.2c2.4,2.6-1.7,6.7,3.8,8.5c0.8-4.3,7.2-6.2,10-2.2c2.1,3-1.5,5.1-0.7,7.7
		c1.8,5.9,3.2,0,3.2,0c-3.5-1.3,7-1.3,2.8-0.9c-0.1,0,0,3.9,0.2,4.2c0.7,0.7,1.7-2.7,2.9-1c1.4,2,1.2,5.2,3,7
		c-1.3-1.4,5.2,0.1,5.6,0.4c2.5,1.7,2.9,5.1,6.3,6.9c3.9,2.1,9.9-2.6,14.7-0.3c-4.5,4.7-3.6,16.5-3.8,21.4
		c-0.3,6.5-3.4,12.3,3.9,10.3c3.4,3.3,4,14.7,3.8,19.5c-0.1,2.4,0,7.9-2.5,9.3c-1.6,0.9-7.8-1.1-8.2-3.8c0.2,1.3,5.3,5.8,3.7,7
		c-1.3,1-2.4-2.6-3.6-1.6c-0.6,0.4-2,4.2-2.8,4.1c-2.3-0.2-7-6-9.8-3.7c2.5,1.6,7.3,5.9,8.3,8.8c1.2,3.2-1,3.1-0.3,6.4
		c0.5,2.7,3.1-1.3,3.4-1c2.9,3.1-2.6,3.8-2.8,5.3c-0.6,3.8-0.5,3.6,1,7.5c1,2.5,0,7.2,4.3,7c4.8-0.2,5.6-5.3,11.5-5.4
		c2.8-0.1,5.8,0.7,8.5,1c1.9,0.2,0.9,2.7-0.4,1.7c-0.3-0.2,3-0.7,3.2-0.7c0.7,0.4-0.5,3.1,0.3,3.6c1.5,1.2,2.8-2.7,3.7-3
		c1.2-0.4,0.3,9.1,0.7,9.7c1.8,2.7,6.2,0.6,7.8-1.4c0.5,0.1,0.8,9.9,0.3,11c-1.6,3.4-1.8,1.6-2.6,2.4c-0.6,0.6-15.3,12.2-15.6,12.1
		c0.7,0.2,4.6,1.7,4.9,1.6c2.1,0,0.8-6.1,3.5-6.1c-0.2,0,6.6,4.5,6.4,3.5c0.4,1.2-4.4,5-3.1,5.6c2.7,1.4,6.8-3.1,9.4-3.7
		c2.4-0.5,8.5-0.1,10.9,0.3c0.1,8.9-17.8,12.6-19.1,15.6c6.3-0.5,3.1,1.1,1.2,4.6c-2.6,4.5-3.6,5.6-7.4,7c-0.4,0.1-1.6-3-3.8-2.5
		c-1.7,0.4-1.8,3.4-3.6,3.8c-2.5,0.6-10.3,0.2-11.3-3.3c0,0,9.4-8.1,9.9-9.2c2-5.1-0.7-6.1-2.5-10.3c-1-2.3-0.7-6.1-2.6-8
		c-2.1-2.2-2.5,1.1-3.6,0.5c-2.3-1.2-7.1-3.5-6.3-8c-0.6,2.9-8,0.6-8.5,3.5c0.3-1.8,4.2,7.5,5.5,5.6c-3,4.5-9.8,0.5-9.4,5.1
		c0.6-0.8-6.7-3.6-7.6-3.9c-5.3-1.7-4.8-1.3-8.4,1.1c-4.4,3-8.3,10.7-9.1,15.7c-0.3,1.8,1.8,10.4,0.4,11.1
		c16.6-4.4,32-15.8,44.8-26.9c-6.6,9.7-18,15.1-27.9,20.7c-3.4,1.9-9.5,3.9-11.6,7.4c-1.3,2.1-3.1,8.9,1,8.8c-2,0-1.9,8.7-1.4,10.1
		c1.1,3.1,3.2,2.9,4.3,4.9c1.8,3.6,4.2,2.3-0.5,7.1c-2,2-5.3,1.8-6.7,4c-4,6.3-1.8,16.3,6.2,15.4c8-0.9,15.2-8.7,22.2-12.2
		c-10.2,8.4-27.8,10.7-28.3,26.3c-0.5,17,2.3,34.9,2.8,51.9c1.2,37.6,2,75.2,2.9,112.8c0.8,32.3,2.2,64.6,1.4,96.9
		c-0.2,8.5,1.4,29.1,1.4,29.1s18.3,4.8,28.1,4.1c-9.9-9.3,10.8-12.6,15.2-17.4c4.7-5.1,5-13.4,9-19.1c4.2-5.9,10.9-9.6,14.9-15.8
		c2.6-3.9,2.5-12.8,6.1-15c4.6-2.9,9.6,1.5,13.4,3.6c14.6,8.2,15-6.4,15.2-19c0.1-6.7-1.3-10.9,3.5-15.3c4.6-4.3,11.9-6.1,16.9-10.5
		c5.1-4.5,9.4-8.6,14.7-12.7c5-3.9,5.5-6.2,5.6-12.8c0.3-14.3-2-29.1-2.5-43.4c-0.7-16.9-1.2-32.4-10.7-46.9
		c2.8,3.4,5.4,6.9,8.2,10.4c-0.7-14.2,3.1-31-10.4-39.5c2.9,1,5.8,2.1,8.6,3.3c0.5-3.5-0.6-6.7-1.9-9.9c6.5,4.9,2-14.4,1.8-17.5
		c-0.7-10.3,0.5-20.7-7.7-28.2c2.6,1.4,5.2,2.8,7.9,4.2c-1.1-5.3-1.5-7.9-6.7-10.4c2.1,0.4,4.2,0.8,6.3,1.2
		c-0.2-5.1-0.9-6.4-5.8-8.2c11.6,1.2,2.5-8-2.8-9.8c2.6,0.1,5.1,0.3,7.7,0.4c-1.4-11-11.6-17.3-18.8-24.4c5.9,5.3,11.7,10.6,17.6,16
		c-0.7-13.9-8.3-19.3-18.9-26.7c6.9,3.5,13.7,7.3,19.8,12.1c-0.6-13.3-8.7-13.8-19.3-18.2c6.4,1.8,12.9,3.5,19.3,5.3
		c-0.1-3,2-14.6-2.2-16c-0.7-1.4-4.9,7.4-2.5,6c-2,1.2-3.1-0.3-6.8-0.1c-1.9,0.1-7.6,5.3-9.8,0.7c-1.7-3.6,2-1,3.2-1.5
		c-1-1.7-0.6-2.3,1.1-1.7c-0.5-0.7-1.1-1.5-1.6-2.2c-0.3-5.5,9.6,4.6,6.9-3c-3.3-9.3-17.4,1.2-17.6,0.2c5.3,3.5-2.1,3.7-5.6,5.2
		c-7,2.9-7.2,2-14.1-1c0.2,0.1-2.9,1.4-3-1.6c0.4-1.8,6.9,0.4,7.6-1.2c1.1-2.4-28.1-10.2-12.7-15.1c0.1-0.6,0.6,7.4,1.6,4.9
		c0.5-1.2-1-2.1-1-2.4c-1.3-2.8,5.8-4.9,6.4-4.9c2.2-0.2,4.7,2.1,7,1.9c2.6-0.3,3.9-4.9,7-3.8c-2.9-1.5-6.6-1.7-9.1-3.8
		c1,0.9,3.8-3.7,3.2-4.2c-1.9-2.6-13.4,4-16.3,3.1c-2-0.6-4.5-2.6-3.5-5.2c0.4-0.9,5.3,2.3,5.4,2.3c0-0.4,0.4-5.6,1.7-5.1
		c3,5.5,3.1-1.2,5.2,0.2c1.1-0.2-1-3.2,0-3.4c1.1-0.1,2.3,4,1.7,4.7c-0.1-0.1,3.9-0.4,4.1-0.5c0.7-0.5-2.4-3.2-2.5-3.5
		c0.4,1.4,14.7-0.9,15.4-2.2c2.2-4.4-9.2-6.8-12-5.7c0.1,0.7-0.2,1.2-0.8,1.6c3.5-2.4-15.4-2.9-15.2-2.8c-2.3-0.6-7.3-4.7-9.9-8.1
		c0.1-0.2,7.7-9.9,4.4-10.2c1.9,1.9,1.9,4.7,2.1,6.9c-1.4-4.7-0.5,2-0.2,2.6c0.1-7,0.8,3.6,2.2-3.7c0.3-1.6-2.4-1.5-2.8-3.5
		c0.4,2.5,2.9-1.2,3.4-1.2c3-0.1,1,2.9,1.3,4c0,0.1,2.3-2.2,2.1-2.7c0.2,3.9,2-0.3,2.6,2.7c0.3,1.4-2.4,5.7-2,6.2
		c0.5,0.8,3.9-5.5,3.7-5.6c1.1,0.3,2.9,2.3,3.3,3.3c0.1,0.2,3.8-2,3.6,1.4c1,1.4,1.9-2.3,3.1,0c1.8-1.3-2.1-2.8-2.6-3.1
		c1.4-1,4-0.6,5.3-2.1c0.5-0.6-3,0.4-2.9,0.1c4.8-5.5-1.9-1-1.2-5.3c0.2-1.2,6.8,6.3,7.1,6c0.3-0.2,0.3-4.4,0-4.6
		c-1.6-1.6-1.3,2.6-1.4,2.7c0.7-0.7-2.9-4.2,0.4-4.2c1.6,0,3,5.3,3.2,0.3c0.6-0.1,0.9,5.8,1.6,6.4c1-2.5,1.1-5.1,0.4-7.7
		c0.1,1.1,3.1,2.1,2.9,3.6c0.9-0.5,3.1-2.5,3.6-3.4c0-0.1-5.2,0.2-3.7,1.2c-2.6-1.2,0.3-3.4-3.2-4.3c-2.5-0.7-5.7,1.9-8.2,1.5
		c-4.8-0.7-3.5-0.2-4.4-3.1c1,3.2,2.6-7.9,1.4-5.7c1.7,1,6.8-1.2,6.5-1.8c0.5,1-2.2,5.1-1.6,5.5c3.1,2.2,3.5-7.7,3.2-7.7
		c2.5-0.1,3.8,1.5,5.7,3.2c0-0.1-1.2-4.7-1.4-4.3c2.3-2.5,2.3,3.5,3.4,3.4c-2.4-2.1,7.7-3.4,8.6-4c-0.2-0.2-4.6,0.2-4.6,0.3
		c0.3-0.8,2.6-3.7,3.5-4.2c-6.1,2.9-16.4,2.4-22.1-1.4c0.7-1.3,1.8-1.7,3.2-1.3c-1,0-1.4-2.5-3-2.1c-0.8,0.2-0.7,3.9-2.5,3.8
		c-2.4-0.1-5-1.4-6.5-1.8c1.6,0.4-2.5,2.5-3,2.4c-2.1-0.2-0.9-3.7-2-4.5c-2.3-1.7-6.6,2.2-5.7-2.3c-1.6,0.5-5.1-0.1-6.7-0.8
		c-5.2-2.4-2.7-0.3-0.9-3.4c0.2,0.5-3.8-0.1-3.9-0.1c-0.1-1.6,3.9-2.4,4.7-3.2c-1.6-0.5-2.5-1.3-2.5-2.6c9.1,0.2-0.5-3.7-0.4-3.5
		c-1.1-5-0.7-8.5,6.8-8.9c0.1,0,1.7,4.7,3.1,5.1c3.2,0.9,0.7-4,3.4,1.6c0.2-1.9,1.2-2.6,2.8-2.3c1.5,1.5-1.6,4.1-1.7,5.2
		c0.2-1,3.6-0.2,2.4-4.5c-0.2-0.6,3.4,1.4,3.3,1.4c4.9-5,13.1,5.6,14.2,4.5c-1.4-6.2,4.6-1.6,5.1-5.6c-0.9,2-8.2-6.3-11.2-3.5
		c1.2-1.1-11.3-3.7-11.4-3.8c0.6-1.3,1.6-2.2,2.9-2.9c0.6-1.7-2.7-0.1-2.8-0.1c-4.9-1.6,5.5-5.2,4.8-4.6c0.6-0.6-3-2.4-2.4-2.9
		c6.3-0.6-0.6-0.9,1.3-4c3.1-5.1,5.9,4.6,8.7,4.5c0.1,0,1.7-4.8,5.1-3.7c-4.1-1.3,0.1-3.4,1.4-3.6c-1-1.2-4.1-1.1-4.7-3
		c0.8-0.6,1.7-0.6,2.6,0c-0.3,0.4-1.8-3.1-1.9-3.2c1.9,1.2,6.5,0.3,5.4,4.1c0.8-2.8,3.5-1.3,4.9-0.5c1.1-1.2-4.4-3.4-0.1-2.8
		c4.9-5.4-11.6-2.2-1.4-5.5c-6.4-0.3,3.7-2.8-3.7-2.1c2.8-2.2-0.6-1.3-0.7-3.6c0-0.9,5.5-2.2,6.3-2.9c-1.1-0.9-2.1-1.9-2.9-3.1
		c0.7-0.8,3.1,0,4.4-1.3c0.8-1.3-5.6-3.7-5.8-5.1c-0.8-5,5.4-7,9.4-7c-0.5,0,2,6.1,2.5,6.7c2.2,2.5,1.3-6.2,4.4,1.1
		c0.3-2.1,1.3-2.8,2.9-2.2c0.7,0.9-0.9,6.9-1.6,6.6c4,1.6,3-4,2.6-6c-0.2-0.7,3.7,1.8,3.6,1.7c2.3-2.1,2.4-2.3,6.8-0.9
		c1.8,0.6,2.9-0.2,4.3,0.9c0.1,0.1,6.7,12.1,3.7,2.8c-0.2,0.5,6.8-3.6,6.7-3.1c-1.2,2.3-6.4-3.4-7.2-3.7c-0.9-0.9-1.9-1.7-2.8-2.6
		c-0.8,0.5-1.6,1.1-2.3,1.9c-0.7-0.2-12.1-3.9-12.4-4.8c-0.5-1.6,2.9-2,3.3-3c0.7-1.6-3.7,0.4-4.3-1.2c-0.9-2.4,5.8-3.3,6.7-3.9
		c0.7-0.6-3.2-2.8-2.5-3.3c7-0.3-0.6-1,1.7-4.3c3.8-5.6,6.2,5.4,9.3,5.4c0.1,0,2.1-5.2,5.9-3.9c-4.5-1.6,0.3-3.7,1.7-3.9
		c-0.8-1.1-5.3-1.8-5.1-3.7c1-0.4,1.9-0.4,2.9,0.3c-0.4,0.4-1.9-3.5-2-3.6c0.3,0.2,8.9,4.4,5.7,4.9c4.5-0.8-0.8-4.4,5.5-0.4
		c1.3-1.3-4.6-4,0-3.1c5.7-5.7-12.7-3-1.3-6.1c-7.1-0.7,4.3-2.9-4-2.5c3.7-2.6-0.5-1.4-0.5-4c0,1.9,5,1.7,5.9,1.6
		c2-0.2,2.1-4.7,5.8-3.1c-0.2,1.4-1.1,1.8-2.9,1.3c0.4,5,3.8-1.2,6.2-0.4c0.7,0.3,2.1,4.8,3.1,4.6c-1.9,0.3,3.3-5.6,2.3-4.2
		c0.2-0.3,3-0.2,3.8-1c2.5-2.9-2.7-2.1,0.8-4.3c-2.6-0.9,2.1-3.8,2.1-6.6c0.6,0,4,1.8,4,2.5c-2,2.7,2.9,1.9,1.7,6.4
		c0.3-3.4,9,1.8,10.2,3c0.1-0.3,2.7-3.4,2.7-3.2c0.6,2.5-1,6.4,0,6.1c0-0.5-2.8,3.4-2.9,3.6c1.9-2.5,4.4-3.1,4.2,0.4
		c0.7,0.4,1.6-4.4,2.9-3.4c0.9,0.5,1.1,5.7,1.4,5.8c2.2-1.9,4.6-3.5,7.2-4.7c0.5,3.9,2.1,2.2,1.7,5.7c-0.3,3.4-2.2,1.5-3,3.8
		c-0.1,0.3,4.4,1.7,4.7,2.4c0.8,1.9,1.1,2.8,1.6,4.2c0.3,0.9-6.3,3.8-0.1,4.4c1.2,0.1,2-2,3-2.1c4.1-0.2,3.9-2.6,7.5-1.6
		c2.1,0.6,6,2.7,4.5,6c2.8-0.8,3.2,3.3,1.8,4c2.4-3.2,3.4-3.4,2.9-0.5c3.1-5.9,2.6,2.4,4.2,3.6c0.5,0.5,9.2-10.6,7.8-1.6
		c2,2.5,2.5-5.5,2.2,0.5c4.6-2.7,0.6-2.8,3.3,0.6c-0.5-0.6,1.9,4.9,1.7,3.9c0.2,1.1-2.7,4.2-1.5,5.2c3.5,3.2,2.7-1.2,5.4-1.2
		c4,0.1,0.7-5,4.6-1c1.6,1.7,0,4-0.5,5.7c-0.6,2.1-7.5,7.4-6,9.7c0.6,0.8,2.2-2,3.2,1.4c0.2,0.7-3,5.4-2.2,5.8
		c3.6,1.8,3.8-4.3,4-4.2c0.3,0.1,10.1,10.3,8.4,5.1c0,3-1.3,7-3.6,9c-1.5,1.3-4.5,1.6-5.2,2.2c-3,2.6-0.6-1.9-2.7,3.2
		c-0.3,0.7,0.4,6-0.8,5.8c1.7,0.2,8.7-2.7,9-2.9c0.3,1.3,1.1,1.7,2.3,1.3c-0.7,0.8-5.6,8.1-6.5,7.2c3.9,1,1.4,2.4,5.6,0.4
		c1-0.5,4.1-6.2,5.1-6c-0.1,0,1.6,11.3,4.3,6c0,0-1.4,3.6-1.7,4c-1,1.5-4.3-0.6-5.2,0.6c1.3,3.6-4,2.1-3.7,7.3c0-0.5,5.9,7,4.8,7
		c0.5,0,4.5-2.4,4.7-2c0.9,1.6-0.9,6.8-0.1,7.6c1.4,1.6,7.6-5.7,5.3,1.3c-0.4,1.3-6.4,7.7-6.4,3.8c0,5.7-10.2,5.6-11.9,1.6
		c-1.4-0.4-1.8,5.3-1.3,6.1c0.6,1.2,3.6-0.8,4.4-0.7c-0.4-0.1,0.1,4.7,1.4,2.6c2.6-4-0.8-2.1,4.7-3.7c-1.5,0.4,11.3-1.6,9-2.3
		c2.2,0.7,2.2,6.2,1.8,7.5c0.2-0.8-5,1.6-4.2,2.8c0.4,0.6,2-0.3,2.1,0.6c-0.4,1.6-1.3,3-2.6,4.1c1-1.4-8.6,0.4-9.5,0.7
		c-2.8,1.2-5,3.8-7.8,5.2c-2.4,1.2-6.4,1.1-8.5,2.4c-3.2,2,0.3,5.1-2.6,4.3c2.5,4.1,4.2,0.1,4.2-2.2c0.9,0,4,3.4,4.7,3.6
		c0.2,0,3.4-2.2,5.1-1.8c-0.6-3.1,3.6-0.4,3.8-0.4c0.4,0.1,1.9-3.8,2.3-3.6c3.2,6.3,3.1,9.5-2.5,12.6c-5.7,3.2-9.5,1.3-15.7,0.4
		c-4.8-0.7-11-2.4-16.9-5.9c-4.2-2.5-11.9-11.4-15.3-8.9c0.9,1.7,2.4,2,2.7,4c0.1,0.5,0,5.7,0.6,6.2c1.3,1.4,6.1-5.4,5,0.7
		c-0.3,1.5-5.6,7.5-5.8,3.9c0.2,4.7-1,0.6-2.5,3.2c0.2-1.4,6.1,3.2,5.7,3.1c1.8,0.5,2.8-2.8,2.6-2.8c1.7,0.4,7.1,8,6.5,9.7
		c-1,3-4.4,0.4-7,0.2c2.2,5-13.8,4.3-16,7.8c0.9,0.4,8.2,3.4,7.4,3.2c-0.2-0.1,0.5,1,1.2,1.2c4.1,1.1,9-2.1,13-1.3
		c4.1,0.8,4.5,3,6.4,5.8c-0.4-0.5,5.7,7.9,5.8,6.9c0,0.1-4.5-1.2-4.8-1.1c-0.7,1.6,0,2.4,1.9,2.6c-2.4,0.6-2.7,1.8-0.7,3.4
		c-1.5,2.9-6.1-2.6-7-2.3c-2.7,0.9,8.3,3.5,6.7,2.9c3.5,1.1,7.6,1.5,4.9,4.2c0.3-0.7,7.6-2.6,7.7-2.1c0.7,1.8-2.3,0.4-2.3,0.5
		c0,0.1,2.8,3.6,3.1,4c-1.4-1.4-3.1,1.5-3.8,1.1c0.9,0.3,1.5,0.9,1.7,1.9c-1.7,2-4.1-2.1-5.6-0.3c4.1,4.4-11.2,1.2-5.1,5.4
		c-2-5.1,12.5-0.1,10.8,3c-1.2,2.2-7.6-1-9-1.4c2.1,2.9-4.1,3.8-5.3,3.3c-2.4-1.1,0.1-4-1.2-5.1c-2.5-2.3-4.1-3.2-6.3-5.2
		c-0.7,0-0.1,4.2-1.8,3.4c-0.3-0.1-10.9-8.2-11-8.4c-1.3-2.5,1.6-7.7-0.5-9.8c-2.1-2.1-0.7,0.6-3.1,0c3.4,0.9-8.2,1-6.3,0.8
		c-5.6,0.4-10.4,0.3-15.5-4c0,2.6,0,5.2,0,7.8c6.8-0.4,13.6-0.5,20.4-0.9c-4.9,0.7-23-1.2-20.4,8.3c1.9,6.9,16,5.2,21.1,6
		c-7.3-0.5-14.7-1.1-22-1.6c0.5,5-0.9,10.7,2.6,14.6c4.4,4.9,15.4,5.4,21.2,7.4c-7-1.4-14-3-21.1-4.5c0.5,0.6,1.2,1.1,1.8,1.5
		c-2.2,0.7-2.3,1.7-0.5,3.1c-0.2,0.5-3.8,0-4.2,0c-0.1,2.6,12.9-0.7,8.5,4.2c0.3-0.6,6.7-2.7,6.9-2.2c0.7,1.6-2.1,0.5-2.1,0.6
		c0,0.1,2.7,3.1,2.9,3.4c-1.3-1.2-2.8,1.5-3.4,1.1c0.9,0.2,1.4,0.8,1.6,1.7c-1.5,1.8-3.8-1.7-5.1,0c3.9,3.8-10.1,1.6-4.3,5.1
		c-1.5-3.4,8.1-1.2,9.5,1.4c1.5,3-7.2,0.4-7.8,0c2.2,2.8-3.1,3.4-4.6,3.2c-2.1-0.2-0.7-4.9-1.3-5c0.4,0-7.5,16,3.5,13.6
		c-7.1,4.5-5.8,16.5-5.5,23.5c0.5,11.7,0.5,23.3,0.4,35c-0.2,27.7,1.3,55.3,1.5,83c0.1,13.4-2,27.4,0.2,40.7
		c1.6,9.7,4.9,8.2,13.3,10.7c4.7,1.4,8.4,3.3,13.6,3.1c3.9-0.2,7.4-3.4,10.7-3.5c1.8,0,17.2,5.5,17.4,7.1c0.4-1.2,1-2.3,1.8-3.3
		c1.4-0.7,0.7,2.8,2,2.5c1.3-0.3-0.8-3.3,1-3.5c1-0.1,0.5,3.2,1.9,3.1c0.5,0,1.4-3.6,2.8-3.9c0.4-0.1,6.9,2.3,7.8,2.2
		c-0.6,0.1,1.5,0.8,2.2,0.7c1.4-0.2,3.3-3.3,1.5-3c0.4-0.1,5.1-0.6,5.4,0.2c0.3,0.7-1.9,3.8-0.4,4.2c0,0,6-7.4,6-2.9
		c0,2.6-5.2,3.6-5.2,4.9c0.1,3.3,6.9,0.9,8.3,2.5c1.6,1.8-7.7,1.8-3.4,5.9c1.4,1.3,10.1,0.4,8.5-1.9c0.1,0.8,0.4,1.6,1,2.2
		c0.8-0.6,1.6-1.2,2.3-2c0.3,0.7,0.6,1.4,0.9,2.1c5.3-7.1,5.4,4.7,4.7,4.2c1.7,1.1,14.9-3.9,17.2-4c-0.8,0,4.4,3.9,2.9,3.2
		c1.5,0.7,2.3-2.5,3.7-1.6c1.5,0.9-1.8,2.4-1.5,2.8c0.5,0.7,3.2,1,2.4,2.5c-0.3,0.6-5.2-0.9-6-0.3c1.3,0.8,2.6,1.4,4.1,1.8
		c0.6,1.6-3,1.4-3.1,2.4c13.2,6.3,23.1-6.5,23.1-6.5l1.5-49.8c0,0,1.7-106.4,1.1-108.6c-2-7-6.7-10.7-11.8-15.4
		c3.5,2.6,7,5,10.6,7.5c0-5,1.3-10.1-4.4-12.4c6.8,1.8,6.9-10,3.3-13.1c0,1.6-7.3,8.5-7.7,8.1c-2.2-6.2-2.2,2.9-4.2,0.2
		c-0.2-0.7,0.1-1.1,0.9-1.2c-0.9,1.3-1.4,2.6-4.9,0.3c-2.5,2,3.6,4-1.3,5.9c-2-3.4-1.7-3.8,0.2-6.4c0,2.6-25.3-1.5-20-6.8
		c0,0.1,6.6,4.7,5.3-0.9c1.1-0.8,3.5,3.1,4.2,3.3c-3-4.1,6.3-6.2,8.1-5.7c-1.6-0.9-3.1-1.7-4.6-2.6c-1.3,0.4-2.5,0.7-3.8,1.1
		c-3.7-1.6-4.4-1.6-7-5.1c2.9,2.4,3.4,1.6,1.5-2.2c0.8,0.1,1.6,0.2,2.4,0.3c0.1-0.1,4.5-2.4,4.4-2.4c8.6-1.7,9.6,0,13.4-9.8
		c0.8-2,3.1-7,3-9c-0.1-1.5-2.2-0.4-2.5-1.4c-0.5-2.2-1.6-9.5-5-9.5c-0.9,0,4.6,3.7-0.2,3.5c0.6,0.6,1.2,1.4,1.6,2.2
		c-0.8,1.5-2.1,1.4-3.8-0.2c0.1,0.6,3.6,1.8,3.1,2.6c-0.2,0.4-4.4-0.2-4.4,0c-1.3,3.5,3.1,0.8,3.1,2.2c0.4-0.3-3.6,1.2-3.1,0.4
		c-0.6,0.9-2.5,4.4-3.4,4.9c-0.3,0.2-0.5-4.7,0.1-5.1c-0.7,1.2-1.8,2-3.1,2.4c-1.4-3.3-0.7-2.8,1.1-5.7c-2.9,2.7-4.4,4-6.4,1.5
		c1.4,0-4.6,6.5-4.9,6.9c-0.3-0.6-2.6-4.2-2.3-4.7c-0.7,0.7-1.2,6.5-1.3-0.6c1.1,0.9-4.2,1.5-2.9,1.9c-0.3-1.4-2.1-1-0.7-2.4
		c-4.6,6.2-6.9-8.6-4.4-2.4c-0.1,0.2-1-5.5,1.5-2.2c1.5-5.1,4.6-0.6,9,0.9c0.5-4-3.6-1-2.6-5.2c1.1,0.3,2.3,0.6,3.5,0.8
		c-0.5-3.5,0.2-3.3,2.2,0.4c-3,0,2.4-4.3,2.1-4.9c0.5,1.1-8.1-4.8-4.8-3.7c0.2,0.1-0.2,2.3-0.2-1.7c2.1-2.1,4.7,5.2,4.4-1.1
		c2.9,0.6,3.2,3.8,3.3,0.2c3.3,1.9,0.7-0.3,3.9-1.4c2.1-0.7,4.7,0.2,6.8-0.7c2.1-0.9,10.6-8.9,7.3-12.2c-1.1,1.2-7.2,4.7-8.6,5.1
		c0.5-0.1-2.8-3-3.3-3.1c1.2,0.1,2.7,5.1-0.4,6c-0.6,0.2-5.6-3.2-6-1.8c-0.2,0.5,4.4,2.6,4.6,2.9c-2.2-2.2-3.5,3.7-4,4.6
		c-1.5-1.2-4.8-1.2-4.4-3.1c1.6-0.5-8.3,3.5-6.4,3.9c-4.8-1-1.6-1.9-5.4-5.3c-0.2-0.2-1.1,4.2-1.9,4c0,0.1-2.1-2.2-1.2-2.3
		c-1.8,0.1-0.8,4.3-1.4,5.2c-2.7-1.1-1.6-0.7-4.2,2.2c-0.6-0.1-3.6,0.8-4.1,0.6c-3.9-1.6-4.9-7.7-9.1-9.2c1.4,0.6,4,0.9,5.5,0.9
		c-2.4,0.9-5.1-7.2-4.6-6.8c0.2-0.2,3.3,3.3,3.5,3.5c-2.3-5.2,0.3-1.1,1.9-0.9c1.5,0.2-3.7-7.6-3.3-7.9c2.6-2.6,5.6,5.4,4.6-1.5
		c-0.1,0.1,3.8,1,2.9-0.7c3,3,4.2,4.2,4.9-1.6c0,0.3-5.9-1.8-6.3-2.2c-2.5-2.8-0.1-2.1-0.6-5.9c0.6,0.2,1.1,0.5,1.5,1
		c0.1-1.6,4.1,1.9,5.7,1.6c1.8-0.3,2.5-2.9,4.3-3.8c1.1-0.5,4.6,3.7,5.6,1.9c-1.2-1.6-1.1-2.9,0.3-3.7c2.1,0.4,2.8,3.6,3-0.9
		c0.2,0.2,2.7,3.5,3.3,2.6c0.3-0.6-5.6-6.8-6.2-6.8c0.1,0.7-9.3,6-6.9,3.3c-1,1.1-8.5,3.6-9.4,1.7c-0.3-0.5,5.5-1,5.5-3.9
		c-1.7,0-13.9,2.7-8.6-1.1c-0.9-0.9-6.6-2.1-5.9-4c1.1-3.4,5.4,6,4.4-1.5c1,1,6.8,3.7,8.1,2.4c2-2.8-4.3-2.5-0.7-6.4
		c-1.7,1.8,8.8,1.5,6.2-1.1c-1.8-0.3-2.3-0.3-1.6-0.2c0.1-0.4-0.3-3.1-0.1-3.1c1.6,0.5,6.6,3.3,8.1,1.8c1-1-3.8-7-6.4-3.5
		c-0.8-1.4-0.6-3.4-2.5-3.7c-0.5-0.1-4.9,2-4.8,2.2c0.7-1.3-7-4.5-7.9-4.8c14,1.3-4-4.1-4-4.2c4.1-1.7-2.7-5.4,0-6.3
		c0.8-0.3,4.1,3.7,4.6,4.1c0.6,0.7,0.8-5,0.2-4.4c-0.3,0.5,8-1.5,7.9-1.5c-3.8-7.4,5.1,1.2,6.4-2.6c-0.3,0.8-8.7-6.8-9.2-6.6
		c2.9-0.2,3.9,0.4,8.2,3.3c0.1-0.2,0.3-5.7-1.3-4.6c4,1.7-0.4-3.5,2.4-2.4c-0.3,0,2.3,3.2,2.4,2.8c-2.1-5.6,3.6-0.3,4.3,1.3
		c0.4-4.9,6.1,4.1,6.4,3.8c-3.1-4.4-2.9-5.8,0.4-4.2c0-2.8-7.2-3.3-7.5-6.2c-0.4-3.6,2.7-0.4,3.3-0.7c2.3-1.1,0.3,0.8,2.6-1.7
		c1.2,2,3.2,4.3,4.4,5.2c1,0.7,7.2-1,7.5,4.5c-2-4.8,2.9,1,1.6-4.9c1.8-0.4,5.6,3.9,7.9,0c-1.9-0.1-5.1-0.6-6.6-2.1
		c0.5,0.5-1-5.1-0.9-5.2c0.7-1.1,4.9,2.6,5.7,2.2c0.3-0.8,0.5-1.6,0.4-2.4c0.7-1.5,3.3,3.9,4,3.5c-1.2,0.8-0.2-4.9,0.2-4.2
		c0,0,7.7,2.4,7.5,2.9c-1.5-1.4-1.6-2.4-0.4-3c1.3,0.7,1.5,2.3,2.6,3c0.7,0.3,1.1-3.1,0.1-3.6c-1.3-0.7-3.3,0.2-4.7-0.7
		c-6.4-3.8-3.3-0.2-3.3-5c-0.2,0.5-14.6,8.4-15.4,8.1c0.9-6-4.3,2.6-5.5,2.4c-1.7-1.7,0.2-2.6-2.1-1.9c0.4-0.1-5.9-2.9-8.5-4.3
		c1-0.8,2.1-0.8,3,0.1c-0.9-0.5-1.2-5-1.7-5.9c4.4,0,1.3,3.6,4.4,0.7c4,1.3,1.6,4.2,6.4,2c1-0.4-2.4-3.8-2.4-4c0,0.1,2.9-1.4,2-1.8
		c1.3,0.6,0.7,3,2.3,3.1c1.7,0.1,2.3-5.2,4.7-0.6c-0.7-3.8,6.4,0.9,9.1,1.1c7.3,0.5,3.9-3,6-3.7c0.5-0.3,5.1,1.9,5.1,2.4
		c0.8-6.1-9.8-4.3-13.1-4c-2.4,0.2-14,0-10,0.1c-6.5-2.4-2.5-1.1-0.7-1.5c0.1-0.8-4.3-3.4-3.5-4.2c0.9-0.4,1.9-0.7,2.9-0.9
		c0.2,0.2-17.3,2.7-13.2,1.1c0-1.2-4.2-0.8-3.1-2.9c0.5-1.1,5.7,0.5,6.6,0c0.8-0.4-4.3-3.7-3-3.8c1.4-0.1,2.5-1.6,3.5-2.4
		c3.2-2.8,0.5,5.5,4.8-1.3c5.5,5.3,0.7,0.4,1.8-1.8c1.1-1.1,6.1-2,6.2-2c-1.3,0.1-10.6-6.9-11.4-2.6c1.8-5.3,4.8-6.6,11.3-4.9
		c1.9,0.5,6.3,3.3,7.9,3.2c2.4-0.2,3.6-4,5.7-4c2,2,2,3.1,4.6,0.4c-3.8,2.5-14.9-2.3-16.1-2.6c-0.8-1.8,4-1.2,4-1.8
		c0.1-0.3-4.6-1.4-4.6-2.4c0-0.6,7.8,0.7,8.2,0.8c-1.7-0.4-2.7-1.3-3-2.8c0.4-0.4,3.2-0.1,3.4-0.7c-1.6-3.4,2.7-1.5,5.3-2.6
		c-1.6-3.6-12.5,3.6-13.9-1.3c-1.7-6,12.3-9.7,15.6-5.7c0.4-0.2,0.3-6.1,0.7-5.9c1.4,0,4.7,1.4,5.5,2.6c0.8-0.5-0.4-3.7,1.5-3.3
		c2.4,0.5,1.7,4.7,3.7,2.2c2.1,1.7,5.3,1.1,6.4,5.1c3.2-2.6,0.8,1.3,5,0.1c2.3,0.2-1.8,6.2-3,5c1.2,0.9,2.3,1.7,3.4,2.7
		c-2.5-2.2-0.6-2.4,1.3-2.5c1.7-0.1,3.4,1.7,5.2,1.8c1,0.1,0.2-4,2.2-3.7c2.6,0.2-0.1,4.9-0.8,5.4c0.8,0.2,4.9-1.8,5.3-1.4
		c0.5,0.4,2.5,2.5,2.8,2.6c-0.8-0.2,1.2,2.7,1.5,2.8c1.2,0.8,2.3-1.7,3.5-1c-0.7,0,4.3,5.2,4.6,3.7c0.1-1-3.1,0.8-3.3,1.1
		c1.4,0.1,2.2,0.8,2.4,2.2c-0.5,0.6-13.2-0.7-6.8,2.8c2,1.1,5.6-0.4,7.2,0.7c4.6,2.9,2.4,4.4-2,4.6c2.6,0,0.5,1.1,1.5,2.2
		c-2.2-1.8-2.8-1.4-5.1-1.8c2.4,4.9-16.3-6.9-14.6-0.3c0.3,1.1,3.9-1.1,4.4-1.3c0.7,0.9,0.9,1.8,0.4,2.9c-0.8-1.6,5.6,0.9,5.3,0.7
		c2.3,1.6-1.1,3.3-2.2,3.3c9.2,1.9-18.8-5.5-17.1-1.5c0.7,1.5,24.4,4.2,16,7.5c0.7-2,7.5-1.3,7.5-1.4c-1.2,0.4-2.4,1-3.5,1.7
		c1,0.7,2,1.3,3.1,1.9c0.3,0.3-4.9,2.4-5.4,2.7c1.7,0,7.6,1.9,6.8,2c2.8-0.3,4.8-3.5,7.2-3.5c9.9,0-1.1,8.6,0,9.2
		c1.4,1.1,5.3-1.8,6.2-2.6c0.2,0.4,0.2,4-0.2,4.2c4.5-0.5,2.5,1.5,1.4,1.3c3.6,2.5,2.6,3.3,2.6,5.3c4.3,0.7,0,2.6,3.3,2.2
		c2.1,5.3-25.7-0.2-24.5,3.7c1,3.6,6.8,1.4,8.6,1.6c1.4,0.1,3.2-0.3,4.7-0.3c1.7,0.1,2.4,3,3.3,3.1c2,0.2,4.1-2.8,6.6-2
		c3.6,1.1-1.5,3.3-0.5,5c0.6,1,2.4-1.9,2.7-0.9c0.8,2.2-6.4,7.6-6.4,5.2c0.5,1.1,4.2-0.5,4.2,1.3c0-0.3-13.7-6.2-15.2-6.8
		c-2.3,3,8.2,8.5,9.9,7.7c-1.4,0.2-2.7,0-4-0.4c-3.1,0,3,2.6,2.9,2.5c0.8,0.2,8.1-1.4,8.1,1.2c-4.9,0.4,2.9,4.1,3.7,1.5
		c-0.9,3-0.3,2-1,0.8c-0.6,1.3-1.3,2.4-2.3,3.4c-0.4,1.3,5.2-1.7,5.3-1.7c0.7-0.1-2.2,3.5-2.2,3.2c0,3.8,3.9-4.7,0,2.9
		c1.5,2.1,7.8-5.7,6.4,0.9c-0.4,1.7-6.4,7.4-6.4,3.3c6.3,6-1,1.4-1.3,1.5c0.2,3.5-5.7-6.8-7.2-6.3c0,0.5-0.1,1.1-0.4,1.5
		c-1.4-0.5-2.2-1.5-2.6-3.1c0.2,0.7,2.8,9.6,5.3,7c-8.8-3.2-0.8-0.1-2.8,2.1c-0.5,0.5-2.9,2.2-3,2.5c2.1-1.1,0.9,2.5,0.8,0.9
		c-0.1-1.3,12.6,0.7,6.9,3c1-0.4,4-4.7,5.5-3.2c-1.5,0.4-1.2,0.9,0.9,1.5c-3.8,0.4,1.1,1.6-1.1,4.7c-1.7,2.4-3.6-0.7-4.8,0.5
		c2,6.3-5.5-0.9-6.4,3.3c-0.5,1.5,13.9-2.9,6.8,1.1c9.1-1.6-0.2,5.1,0,6.2c-2.2-3.3-6.6-3.5-4.6-0.4c0.4-1.8-7.3-0.4-5.3-1.5
		c6.7,4.6-3.1-3.7,0.4-3.7c-0.7,0.4-0.8,0.9-0.4,1.5c-0.9,1-2.8-3.7-3.1-4.1c1.1,1.1-2.9-0.8-3.3-1.3c0.9,0.8,1.6,2.1,0.3,3.5
		c-0.7,0.7-9.3-8.7-9.9-10.2c-1.9-4-0.5-6-3.8-10.2c-1.4-1.8-3.3-3.6-5.1-4.9c-3-2.2-10.8-6.9-14.8-5.9c-8,2.1,1.9,7.4,3.2,6
		c2.2-1.4-1.6-1.3-0.9-2.4c-0.4,0.6,9.5,1.5,9.5,1.3c-1.7,0,2,4.7,2,5.3c-1.2,0.2-3.5,3.4-4,3.1c1.2,1.8,9.5,2.6,9.2,4.6
		c-7.4-1.2,2.3,1.1,0.9,3.7c-1.4-0.4-2.7-1-4-1.7c-1.1,0.2,1.2,3.5,1.3,3.7c2-0.1-13.7,2-9.2-2.4c-0.5,0.2-1,0.4-1.5,0.4
		c2.1,6.2,8.7,16.6,16.1,17.2c0.6-2.6-3-3.9-0.4-6.4c2.9,1.9,3.5,0,5.3,4.2c1.3,0.3,4.1-2.9,7.8-1.4c2.9,1.1,5.4,3.1,1.7,3.2
		c1.4,0.5,2.9,1,4.4,1.3c-2.7-2.7,5.3-0.3,4.6,0.7c-0.3,0.7-5.7,0.1-4.6,1.8c2.5,3.2,5.3-2.6,7.6,1.5c-0.1-1.1,4.1,0,3,4.7
		c0-1.2,4.3-1.5,4.5,0.3c0.4,3-3.8,3.5-4.3,6.5c2,0.9,3-4.1,4.2-2.8c1.4,1.4-0.4,4.1,0.2,4.6c0.7,0.3,4.7-1.1,3.6,1.4
		c-0.9,2.3-9.3,0.3-11.3,0.8c3,5.7-3.1,0.1-3.7,1.3c-0.2-0.5,2.7,6.1-0.4,5.3c-1.8-0.3-2.1-3.8-4.3-3.8c-1.3,0-1.2,5.1,1,4
		c-0.2-0.5-0.4-0.9-0.7-1.3c-0.8,2,2.5,4.1-0.4,6.1c-0.4,0.3-4,0.9-4.2,0.3c-0.8-0.8,1-4.9,0.3-6.2c-0.5-0.9-2.5,4.1-3.3,4.3
		c-3.2,0.9-2.4-2.8-3-3.1c2,3.4,3.1-0.9,1-0.7c-0.9,0.1-4.2-0.8-4.2-0.6c-0.2,1.8,2.4,5.3,2.2,6.3c0.1-0.5-3.2-2.8-4.6-0.9
		c-0.3-0.2-0.2-5.3-0.2-5.3c-1.3,0-9.9,8.7-9.9,2.4c-2.7,1.4,3.3,5.8,3.8,6.8c-0.2-0.5-11.7-1.9-10.6,2.3c-0.2-0.2-4.3-1.8-4-0.7
		c1.3,4.9,5.1,1.2,7.9,2c3.5,1,2.6,0.9,6,2.1c-7.6,3.3,2.1-0.6,3.3,1.3c-0.8-0.8-4.1,5.9-4.6,5.7c-0.9-1.3-1.9-2.4-3.1-3.4
		c3,6.1-2.7,2-2.8,2c-1.6-0.2-3.2-1.8-5.2-1.7c-1.1,0.1-2.1,2.4-3.7,1.3c1.8-0.5,2.5,0.1,2,1.8c-2,2-2.3-2.1-1.8,2.6
		c-4.8-1.6-1.9,9.8-1.8,14.2c0.2,5.9,0.3,11.7,0.4,17.6c0.1,4.8-3,23.1,5.1,21.8c-7.9,5.1-4.1,20.1-3.3,27.6
		c1.4,13.5,1.1,110.3,1,145c0.9-0.7,1.8-1.1,2.9-1.3c1.2,1-0.3,5.8,1.5,6.5c-3.1-1.1,9.8-5.8,9.4-3.9c-0.7,2.9,3.1,7.4,3.4,6
		c1.8-7.3,2.3,1.6,3.4,4.2c-1.5-4,8.6-0.3,9.1-2.8c-0.5,3.1,1.4,1.5,3.8,2.4c-1,0.5-1.9,1.1-2.7,1.9c1,0.6,2.1,0.7,3.2,0.5
		c-0.5,0.1-2.5,3.7-1.3,3.8c3,0.3,1.4-7.6,1.9-8.8c1.9-3.8,0-2.3,3.6-1.9c2.3,0.3,5,3.4,7.2,3.8c2.2,0.4,6.7-3.1,8.6,0.2
		c-0.2-0.3-1.6-0.9-1.9-0.9c2.9-0.1,1.9,4.4,3.2,5.4c1.3,1,5.1,0.8,5.6,1.6c0.5,0.9-3.8,1.2-3.3,2.2c0.8,0.5,1.7,0.6,2.6,0.5
		c1.9,2.1-2.8,2.7-2.7,3.7c1.3,9.9,59.3,3.2,65.7,2.1c3-0.5,11.5-1.9,13.6-3.9c3.4-3.2,1.8-6.2,1.4-10.8c-1.1-12.5-0.9-25.2-1-37.7
		c-0.4-27.4-0.5-54.9-0.2-82.3c0.1-13.9,2.5-59,0.4-60.5c-2.2-1.6-8.7-6.6-11.2-7.6c-4.6-1.8-8.3-5.2-12.2-8.3
		c7.6,4.3,15.3,8.3,24,9.5c0-7.2,3.6-21.1-3.6-25.9c5.2,0.9,5.2-6.5,3.7-9.4c-1.9-3.6-3.2-2.4-6.3-4.5c-9.8-6.5-20.3-11.6-29.8-18.6
		c11.4,7.3,23,14.4,35.9,18.7c-0.6-10.8-5.8-22.9-16.8-26.8c7.6-0.9,12.3,9.7,16.9,13.8c-0.8-12.4-12.6-11-18.8-19.5
		c5.6,3.8,11.9,6.3,18.3,8.1c-0.8-9.1-4.2-10.4-12.8-11.8c3.9-0.2,8.7-0.1,12.3,1.9c0-4.9-11.6-5.1-14.2-8.3
		c2.5,1.8,13.8,7.5,13.8,0.3c-4.6,2.3-13.6-5.5-18.1-6c4.9,0,10.7,6,15.6,4c-2.6-2.9-10.5-12.4-14.3-7.6c-0.4-0.7-8.8-6.6-8.9-6.6
		c1.2-0.1,2.2,1.9,2.9,1.9c0.5-0.1-15.4-23-16.9-25.5c3.1,4,6.3,7.8,9.8,11.5c1.4-4.7-1.8-9.7-5.3-11.5c-0.9-0.5-11.7-1.3-11.1-3.7
		c0.8-5,7.4,3.8,8.1-1.7c1.7-1.7,4,2.6,6.5,0.1c1-1-0.1-4.7-3.1-3.7c-0.2-0.2,3.8-1.5,3.8-1.4c-5.5-0.9,3.2-1.9,5-3.1
		c1.9-1.3-2.8-4.8,2.3-3.6c2.3-1.2-7.9-8.9-0.5-8.8c-2.6-0.8-2.6-1.8,0.2-3.1c-4.8-4.1-1.8,2.3-2.4-2.3c-0.2-1.6,1.1-3.1-1.9-2.3
		c0.1,0.1,1.3-4.7,2.8-4.7c0.3,0,0.4,2.3,0.8,1.9c1.9-1.7,1.4-2.7-1.5-3c0-4.3,8.2,0.5,8.8,0.3c-1.5,0.4-2.8-6.4-1.5-7.2
		c2.2-1.3,6.7,7.9,8.6,3.4c2.4-5.9-22.4-1.1-19-8.6c0.4-0.8,5.1,0.4,5.6,0.3c-1.6-4.1-1.2-6.9-4.5-10.2c0.1,0.1,3.9,2.7,3.7,0.8
		c0-0.4-3.7-4.1-2.2-4.2c3-0.1,3.9,3.5,7.1-1c0.7-1-1.8-4.9-2.1-4.9c-1.3,0-4.8,4-6.2,2.4c1.8-3-3.4-0.3-1.7-4c-5.7-1.2,2-2.7-2.1-4
		c2.6,0.9,3,0.2,1.4-2.1c2.9,2.5,6.5-5.7,6.7-0.5c0.1-2.3,1.2-2.6,3.1-1c-3.5-2.4,3.6-0.8,4-2.1c1.3,0.8-6.3-8.6-4.5-11.2
		c0.1-0.1,3.5,1.4,3.8,1.6c1.1-0.5-3-4-1.6-4.7c2.8,1.9,3.1,0.6,1.8,0c1-0.1,2-0.2,3-0.2c0.5-0.5-4.6-2.5-4.7-2.6
		c1.3-0.5,7.7-1.1,5-4.1c0.5-0.6,2.8-0.3,3.6-1c0.5-0.4-1.2-3.2-0.6-3.8c1.8-1.8,3.4,2.6,5.4,0.6c-0.9-0.3-1.6-0.8-2.2-1.5
		c-0.4-4.3,4.3,6.3,1.2-4c0.9-0.2,0.9,1.5,0.9,1.8c-0.5-4.1,0.1-3.9,1.8,0.6c0.1-0.6,0.2-1.3,0.3-1.9c0.1,0.2,2.7,1.8,1.9,0.7
		c-0.2-0.2,0.7,6.6,0.7,3.6c2.5,2.3,1.9,2.2,5.8,3.4c1.3,0.1,2.6-0.1,3.8-0.6c1.5-2.2,2.7-2,3.5,0.5c-0.2,0.1,1-3.6,1-3.6
		c0.2,1.2,3.5,3.5,4.5,4c0.5,0.3-2.7,2.3-2.9,2.4c2.7-0.7,3.6,0.1,2.8,2.2c0.6,0,3-2.6,3.6-1.7c1.8,1.8-3.9,4.9,1.1,3.7
		c2.4,0.2-3,9.2-3.2,8.9c3-1.2,3.6-0.6,1.8,1.8c1.4,0.8,2.7,0.7,3.9-0.4c0.3,3.8-4.2,12.4,2.6,9.5c-0.1-0.1-2.2,2.9-2.1,3.3
		c0.5,1,3.6-1.4,3.8-1.6c1.4-0.3-0.5,3.9-0.2,3.2c1.1-0.3,2.1,0,2.9,1c-0.7,0.2-8.5,6-5.7,3.6c-2.6,2.2-5.7,1.6-8.6,2
		c-1.9,0.3-3.9-0.7-5.8-0.1c-2.8,0.8-0.7,2.8-1.1,3.1c0.4-0.7,0.9-1.3,1.5-1.7c0,0,1.9,4,2.2,4.3c0.2-1.4,0.9-2.1,2.3-2.2
		c1.1,1.1-1.6,4.8,1,6c1.7,0.8,4-5,4.3-0.2c0.6-1.1,1.6-1.8,2.8-2.1c0.6,4.4,3.1-0.7,5.5,1.7c0.5,0.5-1.2,3.7-0.7,3.8
		c0.5,0.1,14.4-1.2,12.8,2.7c0-1.3-4.3,2.6-4.6,3.2c2.5,1.6-0.1-1.6,1.1-1.4c1.9,3.2,2.3,2.8,4.8,1.7c0.9-0.3-1.7-3-1.7-3.1
		c0.8-2.8,4.3,1.5,3.8,1.3c0.5-2.9,1.5-3.1,3.1-0.6c-0.4-2.8,12.6,4.1,12.3,0.6c-0.5-0.7-0.7-1.4-0.5-2.2c0.2,0.6,3.9,1.3,3.8,2
		c0.9-5.4-17.5-3.8-18.6-3.9c0.4,0.7-0.2,0.5-1.7-0.6c0.1,0,2.3-1.9,2.2-0.4c0.4-2.8-5.9-2.3-0.4-3.9c-2.4-3-9.7,6.4-12.5-1.8
		c0.4-0.9,4.4,0.6,5.1,0.2c0.2-0.1-2.4-3.2-2.4-3.5c0.8-2.7,8.1-0.1,8.1,0c1.8-3.4,1.1-2.8,2.9-5.6c0.7,0.4,1.4,0.5,2.1,0.4
		c-0.8-1.1-8.5-3.9-9-1.8c1.5-4.1,3.3-4.3,8.1-3.6c2.2,0.3,3.9,2.1,5.9,2.4c2.8,0.5,2.9-2.5,5.3-2.4c1.5,1.6,1.4,2.4,3.5,0.5
		c-2.9,1.8-11.4-2.2-12.3-2.5c-2.1-5.4,10.5,6.2-0.4-3.2c0-0.3,5.7,0.7,6.3,0.8c-4.6-2.8,2.2-3.6,4.5-4.5c-1.2-3.1-9.4,2.3-10.6-1.4
		c-1.4-4.6,9.8-6.6,12.2-3.9c0.1-0.1,0.5-4.6,0.7-4.5c1.6,0.4,3,1.1,4.1,2.2c-0.2-3.8,6.2-0.5,7.9,0.8c5.3,4,1.3,5.1,4.8,8.6
		c-0.5-0.4-0.8-1-0.9-1.7c1.3-0.7,2.6-0.5,3.8,0.6c2.1,1.6,3.4,1,4-2c2,0.2-0.2,3.8-0.8,4.1c3,0.8,3.1-0.8,5.9,0.5
		c0.6,0.3,0,2.2,0.9,2.7c0.4,0.2,7.2,0.4,6.7,2.5c-3.2,0.1-3.4,0.9-0.8,2.5c-0.7,0.8-5.1-0.8-6.5,0.4c0.2-0.2,15.4,5.6,5.1,5.8
		c1,0.2,1.3,0.8,1.1,1.7c-1.1-0.9-2.4-1.4-3.8-1.5c1.5,3.5-12-4.8-10.8-0.7c0.5,1.6,2.6-0.6,3.1-0.7c0.6,0.7,0.7,1.4,0.3,2.2
		c-0.1-0.1,3.1-0.2,4,1.4c2.3,4-5.5-0.5,0.3,2.5c-2.7,1.9-11.5-6.3-15-3.2c-0.4,0.4,13.6,2.6,11.9,7c0.6-1.7,5.9-0.8,5.9-0.8
		c-1,0.3-1.9,0.7-2.9,1.2c2.2,2.6,1,2.1-1.9,3.4c2,0.1,3.7,1.8,5.7,1.7c2.9-0.2,4-2.9,7.1-2.7c2.7,0.1-1.3,7.8-2.1,7.4
		c1.8,0,3.4-0.7,4.8-1.8c0.6,1.5-1.8,4.7,1.6,2.6c0.7,1.2,0.4,1.7-0.8,1.6c2.9,2.2,1.9,2.7,1.8,4.2c-0.1,1.6,4.4,1.2,1.7,3.4
		c-1.1,0.9-4.4,0.2-5.5,0.2c-1.5,0.1-12.3-2.4-12.9-0.4c-0.9,3.6,18.4,2.5,19,4.1c-0.4,0.9-1,1.8-1.6,2.5c0.1,1.2,2.4-0.9,2.3-0.1
		c-0.2,1.4-5.2,5.1-5.1,3.7c4.8,0.2,2.7,1.6-1-0.5c-2.4-1.3-4.7-3.1-7.3-4c-1.7,2.1,5.9,6.9,7.4,6.2c-1.1,0.1-2.1,0-3-0.5
		c-2.1-0.1,8.3,4.8,8.3,3.2c-3.8,0.2,2.1,3.2,2.8,1.3c-1,1-1.9,2-2.7,3.1c-0.2,0.6,3.6-0.9,3.8-1c0.4-0.3-1.7,4.8-1.6,4.5
		c0.9,1.3,4.2-2.6,5.2-0.8c1.3,2.4-5.4,7.2-5.3,4c5.3,5.4-3-0.1-0.7,1.9c0.3-0.8-7.8-7.3-7.9-7.2c0.4,0.2,0.2,0.5-0.5,0.7
		c-1.1,0.8,3.5,5.6,4.4,4.9c-4.5-1.8-3.4,2.1-3.6,4.5c-0.7-0.4,8.9-1.1,4.9,2.1c3.9-3,5.1-1.1,3.4-0.9c4.4,3.5-2.9,3.6-2.9,5.6
		c-1,0.6-4.8-1.4-5.3,0.5c-0.4,1.1,10.8-1.8,5.2,1c4.8-0.1,1.7,6.3-2.3,1.9c0.6,0.6-3.1-0.5-1.4,2.3c-0.7-0.4-4.8-1-4-1.3
		c4.9,3.6-2-3,0.4-2.9c-0.5,0.3-0.6,0.6-0.3,1.1c0.5-0.6-3.8-4-4.8-4.3c1,0.3,0.8,2.1,0.2,2.7c-3,3-12.1-18.4-13.1-19.4
		c-2.1-2.3-8.9-6.3-12.2-5.4c-6.2,1.8,1.8,5.4,2.7,4.7c0.8-2-1.5-1.9,1.7-1.1c-0.3-0.1,4.9,0.5,4.9,0.5c3,0.1-0.4,7.6-1.8,6.4
		c0.9,1.4,7.2,2.3,7,3.8c-5.7-1.1,1.7,0.9,0.6,2.9c-1.1-0.4-2.1-0.9-3-1.4c-0.8,0.1,2.1,4-1,3.6c-0.5-0.1-7.3-0.8-5.1-2.8
		c-0.2,0.5-0.6,0.6-1.2,0.3c1.4,4.7,6.2,13,11.8,13.7c0.6-2-2.2-3-0.2-4.9c-0.5-0.4,6.4,3.7,3.9,3.4c1,0.1,2.8-1.7,3.4-1.4
		c0.7,0.3,8.4,3.1,3.8,3c1.1,0.4,2.2,0.8,3.4,1.1c-2.3-2.5,4.1-0.1,3.5,0.6c-0.2,0.3-4.3,0.2-3.6,1.2c3,4.2,10.2-2.8,7.9,5
		c0-1,3.5-0.9,3.7,1c0.1,0.8-3.2,3.7-3.7,4.3c1.9,1,1.7-3.4,4-1.9c2.1,1.3-2,2.3-0.7,3.4c0.5,0.3,3.6-0.7,2.7,1.2
		c-0.8,1.8-7.1-0.1-8.7,0.3c3.4,0.1-4.2,3.2-2.9,0.9c-0.1,0.1,1.8,4.7-0.5,4c-1.8-0.3-1.6-4.5-4.1-2.7c4.8-3.4,1,5.4,1.1,1.7
		c-0.9,2,2.2,3.9-1.3,5.4c0.5-0.2-2.6-1.3-2.4-0.6c0,0,0.7-5.6-0.1-4.8c-2.1,1.6-1.4,5-5.1,2.7c-0.7-0.4,2.3-2.4,2.5-2.4
		c-1.8-0.1-2.5-0.9-2.7-0.9c-4.3-1.1-0.1,5.4,0,5.2c0.1-0.4-2.4-2.3-3.5-0.8c-0.2-0.2,0-4.1,0-4.1c-1.1,0-7.9,6.4-7.7,1.6
		c-2.1,1,2.4,4.5,2.7,5.4c-0.7-1.5-12.3,0.6-11.3,0.5c-0.8,1.5,15.3,4.5,8.2,4.3c0.1,1.6,4.3-0.3,4.9,0.7c-0.4-0.4-3.6,4.3-3.6,4.3
		c-0.6-1.1-1.4-2-2.4-2.8c1.6,3.7-7.7,1.9-9,0.9c1.6,1.8,0.7,4.1-1.8,2.5c0.1,4-0.5,82.7-0.8,91.7c-0.8,28.7-2.7,166.8-2.7,166.8
		s3.8,3.2,13.2,0.5c10.6-3,22.7-4.4,33.6-6c10.6-1.6,20.1-3.4,30.6-2.6c9.8,0.8,22.9-3.9,31.4-9c8-4.9,12.7-12.3,21.7-16.3
		c3-1.4,9.9-2.2,11.8-4.9c1.4-1.9,0.6-10.6,0.8-13.2c0.7-11.7-1.8-23.7-2.3-35.5c-0.6-13.3-0.8-26.5-1.6-39.8
		c-0.8-14.2-2.3-28.3-3.1-42.5c-0.6-9.8-0.7-19.1-8.2-26.5c2.2,1.5,4.4,3.1,6.5,4.7c-0.4-8.2-1.1-16.5-1.5-24.7
		c-2,0.4-4.1,0.9-6.1,1.3c16.7-7.3-3.4-23.1-10-29.7c5,3.8,10,7.7,15.1,11.5c0-4.1,3.9-19.5,0-22.2c-2.6-1.8-9,8.7-11.7,8.1
		c0.7-3.3-0.2-4.2-2.8-2.7c4.3-4.4-2.2,0.1-1.3,0.6c-3.6-1.2,9.6-9,9-6.2c-0.8-0.2-7.4-2-5.2-2c-1.8,0-7.6-0.3-8.2,2.4
		c0.9-1,1.6-2.1,1.9-3.5c-0.2,0.1-5.5,6-5.3,6.2c0.4,0.4-1.9-4.1-2.8-3.3c-0.6,0.6,4.6-2.9,0-1.6c1.5-1.3,8.7,0.9,2.7-3.2
		c2.8-1.3,1.8-0.5,0.3-3.1c6-2,1.3,1,4.1-2.2c1.1-1.2,0.4-1.5,2.2,0.9c0.8-4.8,7.3-4.3,11.7-7.4c0.7-0.5,5-1.8,5.2-2.3
		c0.5-1.9-3.6-5.8-3.7-5.6c1-2,8-4.7,2.5-7.4c-0.5,0.9-1.2,1.6-2,2.2c-0.3-1.1-1.4-5.9-3.4-5.5c-0.2,0.1-1.5,4.4-1.6,4.3
		c-0.8-1.7-0.4-4.4-2.8-5.5c-4.7-2.2-0.5,1.2-2.2,1.9c-2.1-1.9-3.1-1.6-3.1,0.8c-0.9-3.4-9.3,0.6-8.3,2.3c-1.9-2.9,4.5-3.8,3.4-6.7
		c-1.1-2.8-8.9,9.6-5.5,8.1c-4.8-3.3-1.8,4.5-1.1,5.8c2.8,5.5,5.9,3.7,10.4,5.9c0.1,0-5.9,5.9-6.9,6.1c-3.8,0.7-6-3.2-9.4-3.3
		c-0.9,0-1.3,2.9-1.9,2.7c-5-1.6-0.7-0.4-4.4-3.3c-3.5-2.7-8.8-7.2-2.4-7.6c-1.9-3.8-19.3-4.7-19.7-12.6c3.5,2.2,5.8-1.4,10.1-1.6
		c1.6-0.1,9.8,1.9,9.7,1.6c-0.2-0.5-3.6-3.3-3.8-3.3c3.1-0.9,1.1-3.5,5-1.6c0.4-0.8,0.5-1.6,0.4-2.4c0.7-1.7,4.8,5.1,4.6,5.1
		c-0.3,0,4.9-3.4,4.6-2.3c0.5-1-14.3-8.2-14.8-8.5c-5-3-2.1,3.6-4.8-3.7c-0.4-1-1.4-9-0.8-9.5c2.1-1.4,5.4,2.8,7.7,0.8
		c1.1-1,0.6-9.8-0.8-10.3c0.8,0.3,3.3,3.8,4.5,2.9c0.4-0.4-2.6-8.3,2.2-2.6c2-3.7,6.2-5.2,12-4c3.4,0.7,3.5,4.4,7.7,3.1
		c7.1-2.3,0.2-11.3-0.5-14.2c-4.4,4.4-2,0.8-4.9-0.2c2,0.6-7.6-4.9-6.5-2.9c0,0,4.2-3.5,4.4-3.6c3.1-2.5,5,3.2,3.3-1.4
		c0.1-0.2,5.8,2.2,6.7,1.8c-1.9-3.8-0.3-1.5-0.3-5.2c0,3.7,7.2-7.3,7.1-7.3c-4.4-2.9-4.3,3.8-7.1,4.7c-3.6,1.2-3.9-2.9-7.5-1.5
		c0.5-0.2,1.8-7.9,1.8-7.9c-5.1,1.1-5.6,10.8-9.3,0.3c-2-5.8,0.3-17.4,1.9-22c0.1-0.3,3.2-1.1,3.7-3.3c0.3-1.3-2-5.6-2.3-7.1
		c-1.6-6.3-1.2-15.7-6.8-20.1c4.8-3.1,9.8,2,14.6-0.6c2.6-1.4,5.7-7.3,7.4-9.7c0.8,0.4,1.7,0.7,2.7,0.9c0.5-1.2,0.9-2.4,1-3.8
		c-0.4,0.4,2.6-8.3,4.4-4.6c-0.1-0.3-2-0.9-1.4-1.5c1.2-1.4,6.3-0.5,5.5,2c2.8-8.6-3.4-12.7,7.9-12c2.9,0.2,2.1,5.3,4.9-0.2
		c0.7-1.3-0.2-6.4,0-6.6c3.9-5.2,20.3,2.5,25.6,1.3c-0.3-5.3,2.1-0.2,0.2-6.3c1-0.2,0.9,1.5,1,1.9c-0.6-4.2,0.1-3.9,1.9,0.6
		c0.1-0.6,0.2-1.3,0.4-1.9c-0.6,0,3,2.3,1.9,0.7c0.2,0.7,0.4,1.4,0.4,2.1c3.1-0.9,4.5,1.7,1.4,3.4c2.3,1.9,4.2,1.3,6.7,1.6
		c1.6,0,3-0.7,4-2.2c0.5,0.7,1.1,1.4,1.6,2.1c-0.2,0.1,1.1-3.7,1.1-3.7c0.2,1.2,3.6,3.6,4.6,4.1c0.5,0.3-2.8,2.4-3,2.5
		c2.7-0.7,3.7,0.1,2.8,2.3c0.6,0,3-2.7,3.7-1.8c1.8,1.8-4,5,1.1,3.8c2.5,0.3-3.1,9.4-3.2,9.1c3.1-1.2,3.7-0.6,1.8,1.8
		c1.4,0.8,2.7,0.7,4-0.4c0.3,3.9-4.3,12.7,2.7,9.7c-0.1-0.1-2.3,3-2.1,3.4c0.5,1,3.7-1.4,3.9-1.6c1.2-0.3-0.2,3.3-0.2,3.3
		c1.2-0.2,2.2,0.1,3,1c-2.3,0.6-5.6,8.3-6,3.2c0.2,0.1-9.8,3.4-10.4,3.7c3.7,2.9,3.7,2.2,1.2,6.1c2.7,2.6,4.9-1,5.2,2.2
		c0.7-1.1,1.6-1.8,2.8-2.1c0.6,4.4,3.2-0.7,5.7,1.8c1.4,1.4-2.1,2.9,0.3,4.4c0.5,0.3,5.9-0.9,5.3-1.6c-0.6-0.6,6.6,4.1,6.7,3.9
		c0,0.7-8.1,2-6.4,5c-0.8,1.7-3.1-1.4-3.5-1.8c0,0.9,0.2,1.8,0.5,2.7c0-0.3-11.2,4.6-3.4,4.6c-2.3,0.9-2.1,1.6,0.7,2.1
		c-2.8-0.1,0.1,2.2-0.2,2.9c-0.7,1.5-4-0.3-3.7-0.6c0.2,5-5.3-0.6-7.8-1.6c-1.7-0.6-4,11.3-3.3,12.8c2.2-0.8,6.9-11.3,8.2-3.5
		c2.5-6.8,8.2,1.4,11.1,3.3c1.8,1.2,3.5-3.2,5.6,0.1c0.6,0.9-3.5,2.8-2.2,5c1,1.5,3,2.2,5.1,2.3c4.6,0.2,0.9-1.5,4.3-2.2
		c1.5-0.3,4.1-6.6,5.4-0.8c0.6,2.5-5.1,3.3-3.7,6.1c-0.2-0.3,4.1,2.6,4.1,2.6c0.7-0.9,1.5-1.7,2.3-2.6c0.3,0,0.4,2.3,0.8,2
		c1.9-1.7,1.4-2.7-1.5-3c0-4.4,8.4,0.5,9,0.4c-1.6,0.5-3.2-6.9-0.7-7.7c-3.3,1.1,15.8,7.5,5.7,0.9c-4.4-2.9-10,0.8-14.3-1.9
		c-6.7-4.1-1-2.9,2.9-3.7c-1.7-4.2-1.2-7-4.6-10.4c0.1,0.1,3.9,2.8,3.8,0.8c0-0.4-3.8-4.2-2.3-4.3c1.6-0.1,9,2.9,8-3
		c-0.4-2.4-11.9-0.1-8-1.7c0-2.5-5,1.3-3-3c-5.8-1.2,2-2.8-2.1-4.1c2.6,0.9,3.1,0.2,1.4-2.1c3,2.6,6.7-5.9,6.9-0.5
		c0.1-2.3,1.2-2.7,3.2-1.1c-3.6-2.4,3.6-0.9,4.1-2.1c1.3,0.8-6.4-8.8-4.6-11.5c0.1-0.1,3.6,1.4,3.9,1.6c1.1-0.5-3-4-1.6-4.8
		c2.8,1.9,3.2,0.7,1.9,0c1-0.1,2-0.2,3.1-0.2c0.5-0.5-4.7-2.5-4.8-2.6c1.3-0.5,7.8-1.1,5.1-4.2c0.5-0.6,2.9-0.2,3.6-1.1
		c0.5-0.6-1.3-3.2-0.6-3.9c1.8-1.8,3.5,2.7,5.6,0.6c-0.9-0.3-1.6-0.8-2.2-1.5c-0.4-4.4,4.4,6.4,1.2-4.1c1-0.2,0.9,1.5,1,1.9
		c-0.6-4.1,0.1-3.9,1.9,0.6c0.1-0.6,0.2-1.3,0.4-1.9c0.2,0.2,2.7,1.9,1.9,0.7c-0.2-0.2,0.7,6.7,0.7,3.7c3.2,3,3.2,3.2,8.5,3.1
		c0.6,0,9.3-1,8.9-2.9c0,52.7,0,105.4,0,158.2c-1.4-3.3-9.7-0.5-11.8,0.2c2.1,1.6,4.2,3.2,6.3,4.8c-0.7-0.1-1.3-0.1-1.9,0.2
		c0.5,1.5,0.8,3,0.9,4.6c0.9-2.4-5-0.8-6,1c-1.7,2.9,0.6,10,0.7,13.1c3-0.9,5.7-2.5,7.2-5.3c-1.1,2.4-13.8,22.2-2.6,12.5
		c-2.2,1.4-3.5,3.4-3.9,6c4.4-2.5,8.8-5.2,13.8-6.5c-12.4,4.7-13.5,10.5-13.8,22.9c-0.1,7.3-3.8,26.2,7.6,22.9
		c-3.3,2.2-8.8,3.2-8.4,8.5c0.3,4.1,2.3,5.9,6.6,4c-6.6,4.1-5.8,10.1-5.8,16.9c2.2-1.2,4.4-2.4,6.5-3.7c-8.4,11.5-6.3,22.2-6.6,36.4
		c-0.4,19.5-0.1,38.9,0.6,58.3C1672.7,432.3,1675.5,441.2,1678.1,442C1678.2,442,1675.1,441,1678.1,442z M1192.2,309.5
		c0.3-1.5-0.1-2.4-1.2-2.7C1190.5,307.9,1190.9,308.8,1192.2,309.5c0-10.8,0.1-17.5-9-24.7c3,1.6,6,3.2,9,4.8
		c0-5.6-2.2-12.4-8.6-10.4c-7.4,2.3-7.1,13.8-6,19.6c0-1.1-6.1,6.9-2.2,6.2c0.1-3.7,4.2-3.8,6.8-3.3c1.1-1.5-2.5-1.8,0.2-2.9
		c4.3,5.9,2.7-6.2,8.3-3.9c2.4,1-4.3,4.3-4.4,4.9C1185.5,304.9,1188.8,306.8,1192.2,309.5C1192.2,304.9,1189.3,307.2,1192.2,309.5z
		 M1003.4,231c-2.8,12.7,19.1,13.3,30.1,16.7c-0.4-10.5-10.6-9-12.9-17.2c2,6.9-8.6,2.4-10.1,1.1
		C1007.2,228.9,1005.1,221.1,1003.4,231C1002.9,232.8,1005.5,218.6,1003.4,231z M1030.6,279.8c-0.7-0.8-0.6-0.7,0.2,0.3
		c-1.7-2.1-3.9-3.9-5.8-5.9c2.8,1.7,5.7,3.4,8.5,5.1c-1-6-1.2-8.8-6.9-11.9c1.2,0.5,1.7,0.5,1.4-0.2c-1.5-0.6-1.9-6.9-3.2-9.4
		c-2.4-4.7-7-9.4-11.9-11.5c-13.7-5.9-9.8,8-9.4,16.7c6.1-0.6,12.2-1.1,18.4-1.7c-4.6,0.9-17.7-0.7-18,6.3c-0.4,8.3,14.3,6,19.3,6.6
		c-6.6-0.2-13.3-0.3-19.9-0.5c2.5,16.7,7.9,14.6,22.4,18.8c-7.2-1.1-14.5-2.4-21.7-3.5c0.1,5-3.3,31.1,5.1,28.8
		c-8,5.6-3.5,21.2-2.9,29.1c1,14.2,1,28.4,1.7,42.6c1.8,32.5,5.1,64.9,6.5,97.4c8.3-0.9,13.2-1.7,15-10.4c2.5-12,1.4-25.9,1.7-38.1
		c0.7-24.8,4.1-51.8-8.9-74c2.9,3.9,5.6,8,8.5,11.9c0-16.1,5.3-34-9.4-44.2c3.2,1.3,6.3,2.7,9.4,4.2c0.8-3.8-0.3-7.5-1.6-11
		c7,5.8,3.1-12.5,3-15.6C1032,302,1035.6,286.2,1030.6,279.8C1029,277.9,1034.2,284.5,1030.6,279.8z M1403.2,260.2
		c-0.2-0.6-0.3-1.2-0.5-1.9C1401.8,258.8,1402,259.4,1403.2,260.2c0.9-24-16.8,11.8-13.3,11.3c0.1-2.3,3.8-2.7,5.6-4.5
		c2.5,3.7,2-2.5,6.2-2.8c2.6-0.2-1.4,4.8-1.6,4.1c0.7,3.4-2.3,2.9,2.5,7.1c0.3-8.4,0.6-13.4-6.2-19.2
		C1398.7,257.5,1401,258.8,1403.2,260.2C1403.4,256.6,1400.9,258.9,1403.2,260.2z M1391,239.5c-2.8,4.6,3.8,1.3,3.7,5.6
		c-0.1-0.1-0.6-4.5-1.1-4.7c1.9,0.9,1.6-0.4,2.3,4.2c0.2,0.3,1.9-5.5,1.2-5.5c0.7,0,3.2,3.2,3.4,3.8c1.3-4-0.7-6.7-3.5-9.2
		c8.5,5.2,6.2-3.4,3-3.9c0.2-1.9-3.5,0.7-2.1-1.6c-0.7-0.2-2.3,2.5-2.9,1.8c0-0.1,2-7.5,1.3-7.1c0.8,0.3,1.7,0.6,2.5,0.8
		c0-1.1-0.5-2.1-1.4-2.8c0.9-1.3,1.9-1,3.2,0.8c0-0.7-2.5-1.9-0.7-2.6c3.3,2.8,2.8-8.3-3.2,1c-3.3,5.2-2.1,13.3-5.3,16.3
		c-1,1.3,2.6,4.6,1.7,5.5C1392.5,242.6,1390.5,239.8,1391,239.5C1390.8,239.5,1390.5,239.7,1391,239.5z M1374.3,257.5
		c-0.2,0.2,2.3,1,2.3,1.2c-0.7,0-0.9,0.3-0.7,0.8c1.4-1.9-2.6,0.4-0.8,0.4c0.4,0.7-3.7-6.9-4.3-6.6c-3.9,1.9,5.4,12.2,6.4,7.1
		c0,0.2,1.2,2,1.5,2c2-0.8,0.4-1,0.8-1.6c0,0.8-0.1,1.5-0.3,2.2c0.6,0.1,1.2,0.2,1.8,0.2c-1.4-0.1-1.7,0.4-0.9,1.5
		c2.4,0.7-1-2.5,1.2,0.6c0-0.2,0.3-3.5-0.9-2.6c0.7-0.4,1.4-0.3,1.9,0.3c-1.1-0.2-1.3,0.3-0.6,1.5c5.9-1.7,11.3-2.5,12.5-10.2
		c0.3-1.8-1-11.9-4.3-12c1.5,0.1,1.3,7.2-2,4.2c5.6,3.3-0.2,1.4-1,2.6c-0.8,1.3,2.2,0.6,2.2,1.1c-2.1,0.7-3.3-0.2-3.8,2.1
		c0.2-1,0.1,12.3-1.6,5.8c-0.8,0,0.6,2-1.4,1.5c-1.2-0.3-4-3.4-4.7-3.4C1376.9,256.1,1374.7,257.1,1374.3,257.5z M1366.5,238.9
		c-0.5-0.4,1.6,2.5,2.4,2.9c2.6-4.1,7.2,0.7,8.6-1.7c-1.1,1.8-7.9-9.7-7.2-0.8C1363.2,231.6,1370.1,239.8,1366.5,238.9
		C1366.9,239.1,1367,239,1366.5,238.9z M1395.4,470c0.1-3.5,0.3-7.1,0.4-10.6c-0.1,3.9-0.3,7.8-0.4,11.7c1.1-27.9,1.3-55.7,3.4-83.6
		c1.1-14.9,4.9-82.8,4.4-84.8c-1.3-5.6-4.9-9-8.8-12.9c2.6,2.1,5.2,4.1,7.9,6.1c0.2-4,1.6-7.6-3-9.7c5.2,1.6,5.6-7.5,3-10
		c-0.1,2.9-8.3,7.7-9.4,6.1c-1-1.4,2.7-0.1-0.1-1.5c0.1,3.3-1,2.1-2.9,0.7c1.9,2.3,1.5,3.8-1.2,4.5c-1.7-3-1.3-2.8,0.4-4.9
		c-0.1,3.6-18-3.2-15.2-5.8c0,0.6,3.8,1.6,4.2,1.3c0.1-0.1-0.6-3.7-0.8-3.9c0-0.7-3.4-4.3-2.8-4.3c-0.1,0.4-0.2,0.7-0.3,1
		c0.7,0-0.8-3.1-1-2.9c-0.8,1.2-0.2,3.1-0.9,0.3c-1.2,2.7,0.6,9.6,0.3,10c0.5-0.5-5.3-2.4-4.2-1.6c0.6-0.6,0.8-1.2,0.4-1.9
		c0,0.4,0.1,0.8,0.2,1.2c-4.9-0.7-0.1,2.8-4.1,4c-1.1-0.5-1.1-1.5-0.1-2.8c-0.8,0.5-1.7,1-2.6,1.4c-2.9-2.9,2.7-4,1.9-5
		c-0.7,0.6-1.3,0.4-1.7-0.7c0.5-0.1,1.1,0,1.6,0.1c-0.7,0.5,0.7-1.9,1.4-1.6c-0.8-0.4,0.6,1.1,0.7,1.2c0.3-1.7-0.5-1.5,0-2.5
		c0.2-0.4,3.1-4.1,3.1-4.9c-2.4,0,0.2-3.3,2.3-1.9c-0.4-2-0.5-5.5-2.1-7.1c-0.1,0.3-0.7,2.8-0.6,2.5c-0.4-0.1-0.8-0.3-1.1-0.6
		c0.1,0.4,1.2,2.4-0.5,2.4c1.2,0-1.5-1.8-1.4-1.6c0.7-0.4,3-4.9,0.7-4.5c0.8,0-0.7,2.3-0.9,1.9c-1-5.6,0.2,0.1-1-1.2
		c-1.3-1.3,3.5-3,3.7-3.5c-1.8-1.7-6-3.3-6.3-3.9c-0.1,0.8-0.6,1.1-0.3,2.2c-0.3-0.4-0.6-0.9-0.9-1.4c-0.6,1.8-1.6,2-2.7,0.7
		c0.2,0.1,2.4-1.1,2.6-1.4c-0.5-0.4-1-0.6-1.7-0.5c0.9-1.3,2.1-1.8,3.8-1.4c0-0.4-2.8-5.9-4.7-4.7c0.2,0.8,0.3,1.5,0.5,2.2
		c0.4,0-3.2-4-3.3-3.3c-0.4-0.5-1.6,3.9-0.2,3.5c-1.2,0-2.1,0.5-3.3,0c1.6,0.9,2.8,2.1,3.8,3.6c-1.2-1-5.3-3.8-8.6-5.7
		c-1.9,2.9-1.3,2.6-5.2,2.6c2.4,3.6,12.5,5.7,16.4,3.9c-1.4,0.6-10,2.2-9.7,4.2c0.2,1.6,1.9-3.8,2.8,1.9c1.7-2,1.6-0.1,6.4-1.9
		c-2.4,0.6-5.5,2.1-2.2,4.3c-2-0.2-2.3,0.5-0.9,1.9c-2.4,1.8-8-2.5-10.9-1.6c2.1,1.6,4.1,3.1,6.2,4.7c-0.6-0.1-1.3-0.1-1.9,0.2
		c0.5,1.5,0.8,3,0.9,4.5c0.9-2.3-4.9-0.8-5.9,1c-1.6,2.8,0.6,9.8,0.7,12.8c2.9-0.9,5.6-2.5,7.1-5.2c-1,2.3-13.5,21.8-2.6,12.3
		c-2.2,1.4-3.4,3.3-3.8,5.9c4.3-2.4,8.7-5.1,13.5-6.4c-11.4,4.3-13.2,9.4-13.5,20.9c-0.2,6.9-3.8,27.2,7.4,24
		c-3.2,2.1-8.6,3.1-8.2,8.4c0.3,4,2.3,5.8,6.5,3.9c-6.5,4.1-5.7,9.9-5.7,16.6c2.2-1.2,4.3-2.4,6.4-3.6c-7.4,10.1-6.4,17.6-6.3,30.4
		c0.1,14.8-0.5,29.6-0.2,44.4c0.7,30.3,2.5,60.6,2.8,90.9c3.8-5.1,13.5-10.6,19.9-10.9c4.2-0.2,7.4,2.4,11.5,3
		c5.2,0.8,10.3-1.7,15.5-0.3C1394.2,498.8,1394.8,484.4,1395.4,470z M1542.5,236.5c0.1,0.7,0.1,1.4,0.2,2.2
		C1543,237.9,1542.9,237.2,1542.5,236.5c0,3.8,10.3,8.3,11.8,3.8C1554.5,240.3,1541.2,233.6,1542.5,236.5
		C1542.5,240.5,1542.2,235.9,1542.5,236.5z M1544.3,294.5c1.4,0.6,1.6,0.5,0.6-0.3c-0.3-0.2,6.6,4.5,7.4,5c-0.1-7-2.6-8.3-8.2-12.7
		c0,3.1,1.7,4.1,4.1,5.5C1544.9,289.8,1543.1,290.4,1544.3,294.5C1547,295.9,1543.1,290.3,1544.3,294.5z M1551.8,314.5
		c0.1-2-0.1,1.6-0.1,1.9c0.2-3.5,2.7-10.7,0.7-13.7c-3.9-5.9-5.7-1.1-6.8,2.8c-1.6,6.3,0.7,17,1.2,23.6c0.8,10.1,2,20.1,2.9,30.2
		C1550.6,344.5,1551,329.5,1551.8,314.5C1552,311.2,1551,329.5,1551.8,314.5z M1553.8,283.3c-0.6,0.3,0.4-1.1,0.5-3.3
		c-3,1.8-4.7,3.3-8.3,3.8c-1.7-1.3,4.8,3.8,5,3.4C1551.7,285.1,1550.8,284.2,1553.8,283.3C1554.1,283.1,1547.3,285.2,1553.8,283.3z
		 M1555,270.5c0-3-3.2-2.2-4-5c-0.7-2.4-1.3-8.7,3.3-6.3c2.4-3.2-10.1-6.5-11.5-7.1c0.3,5.4,3,26.4,1.1,28.4c0,0,2.3-2.4,1.8-2.7
		c5.1,3.3-2.2-4.3,4.3-0.7c-1.9,0-0.5-6.1,0.1-6.7C1548,272.6,1556.1,270.5,1555,270.5C1555,269.6,1553.5,270.6,1555,270.5z
		 M1553.7,246c-0.2-0.1,2.2,1.8,2-0.4c-3.3,2.7-0.3-3.7-0.4-4.1c-2.3,1.3-5.5,0-5.5,3.7c0.1,0.1,4.3-1.6,3.3,0.5
		c-0.9,1.8-8.6,0.4-9.8,3.2c-1.8,4.4,7.4,3.7,10.4,4.2C1553.3,252.3,1551.5,246,1553.7,246C1554.4,246.3,1551.5,246,1553.7,246z
		 M1559,224.3c1.5-3.1-4.1-9.6-8.6-8.4c2.7,2.3,2.8-2.7,0.3-1.6c-4.8,2.1,0.8,2.4-3.4,1.6c0.9,1.7,0.8,9.2,0.6,7.7
		c-0.2-1.1,5.8,2.8,5.4,2.6c-1.6,0,3.1-4.7,3.7-5C1557.6,222.2,1558.3,223.3,1559,224.3C1559.2,224,1558.6,223.1,1559,224.3z
		 M1580.8,319c-0.1,2.6-0.3-0.5-0.3-0.5c-4.6,6.1-6.4-7.5-6.5-8.3c-1-6.6-3.4-18.5-12.9-18.4c-0.2,0-1.1,3.9-0.7,4.4
		c1.3,0.2,2.4-0.3,3.3-1.6c-5.7,8.6,0.5,10.7,7.3,14.9c-3.5-1.5-7-3-10.6-4.5c-1.3,31.6,1.1,63.3,1.5,94.9c0.2,13.1,3,53.8,2.3,66.9
		c-0.3,5.7,14.9-5.8,16.2-12.2c2.5-12.7-0.5-29.8-0.5-42.9C1579.9,380.9,1580.8,349.9,1580.8,319
		C1580.8,318.7,1580.8,347.2,1580.8,319z M1567.7,289.4c0.5,0.3,1,0.5,1.6,0.8c-0.6-0.3-1.3-0.6-1.9-1c4.3,2.2,8.9,2.9,13.6,3.5
		c0-7.4,0.9-15-0.1-22.4c-0.7,10.9-3.2-1.4-7.2,1.1c0-1.4,0.2-2.7,0.5-4.1c-0.1,0.4-4.6,8.3-2,7.6c-5.1,1.5-3.1-6-3.3-5.9
		c-2.9,0.8-7.1,7-7.2,7.5c4.1-0.2,8.4,0.3,12.4,1.4c-3.9-0.4-9-1.9-12.4,1c1.9-0.4,0.2,4.9,0.3,5.3
		C1562.8,287.2,1564.1,287.6,1567.7,289.4C1572.3,291.7,1565.6,288.3,1567.7,289.4z M1665.1,328.6
		C1664.9,326.1,1664.3,328.5,1665.1,328.6c-1.2-15.9-13.9-13.7-25.2-22.9c7.7,4.4,15.6,8.5,24.5,9.7c0-7.4,3.7-21.5-3.7-26.5
		c5.3,0.9,5.3-6.6,3.8-9.6c-1.9-3.7-4.7-3.1-7.8-5c-9.8-6.1-19.8-11.7-29-18.6c11.6,7.4,23.5,14.7,36.7,19
		c-0.7-11.1-5.9-23.4-17.1-27.3c7.8-0.9,12.5,9.9,17.3,14.1c-0.8-12.7-12.9-11.2-19.2-19.9c5.7,3.8,12.1,6.4,18.7,8.3
		c-0.8-9.3-4.3-10.6-13.1-12c4-0.2,8.9-0.1,12.5,1.9c0-5-11.8-5.2-14.5-8.5c2.5,1.9,14.1,7.6,14.1,0.4c-4.7,2.3-13.8-5.6-18.5-6.2
		c5,0,11,6.2,15.9,4.1c-2.6-3-10.7-12.7-14.6-7.8c-0.4-0.7-8.9-6.8-9.1-6.7c1.2-0.1,2.3,2,3,2c-1.9,0.5-12.3-29.9-17.1-22
		c-0.9,1.1-3.9-6.5-5.3-5.2c-0.2,0.2,2.7,3.6,1.5,3.5c-2.4,0-3.2-4.6-5.3-3.3c2.4,0.9,2.3,1.7-0.4,2.2c2.2-1.6,2.6,3.7,3,4.7
		c0.6,1.5-2.3,0.7-2.2,2c0.6,4.9,1.9-0.8,3.9,1.2c-0.3-0.2-0.6,4.6,0.7,5.5c0,3,3.3,0.4,3.4,3.2c0,0.7,0.5-2,1.8-1
		c0,0.8-0.1,1.7-0.2,2.5c-0.8-0.2-2.7,0.5-2,2.2c1,2.7,1.4,0.3,3.4,2.5c0,0,2.3-0.7,3.2,0.2c2.8,2.6-1.1,6.9-2,3.6
		c-3.3,0,4.6,3-3.1,0.9c-1.2-0.3-3.6-3.5-3.5-3.5c-1,0.5-1.9,1.1-2.8,1.8c-0.7,0.8,2.3,1.1,2.3,1.5c-0.7,0-0.9,0.3-0.7,0.8
		c1.4-1.9-2.6,0.4-0.9,0.4c0.3,0.6-3.7-7.1-4.4-6.7c-2.7,1.4,2.8,4.7,2.5,4.3c0,1.8-2.6,1.4-0.4,3.1c1,0.8,4,2.1,4.4-0.2
		c0,0.2,1.3,2.1,1.5,2c0.8-0.2,1.1-0.6,1-1.3c0,0.6,0,0.5-0.2-0.4c0,0.8-0.1,1.6-0.4,2.3c0.6,0.1,1.2,0.2,1.9,0.2
		c-1.5,1.8,0.2,1.3,2.4,3.5c-0.2-0.2-2.5-0.4-2.7-0.2c0.2-0.2,2.1,4.5,2.5,1.6c0.6-0.6,2.9,8.6,2.3,7.6c-1.8,1.2-2-2.6-2.7-3
		c-0.2,0.8-0.7,0.5-0.5,1.2c-1.4-0.8-2.9-1.5-4.4-2c1.6,1.2-0.4,6.2-0.9,1c0-1.1-2.6-4.4-2.9-4.4c-0.1,0.4-0.2,0.7-0.3,1.1
		c0.7,0-0.9-3.2-1-3c-1.6,2.3,0.7,8-0.6,10.6c-0.5-0.5-1.1-0.8-1.9-0.8c-1.1,4.5,10.1,5.8-0.9,7.5c-2.3,0.4-17.1-4.2-12.4-6.6
		c-5.4-1.6-0.2,7.4-6.1,3.6c-0.6,1.9-2.6,6-2,8c2.1-1.5,5.5-2.2,8-2.8c0.6-0.2-6.8,2.2-6.5,3.6c0.8,4.3,6.3,0.7,4.8,8
		c0.6-3-4.3,6.5-2.4,4.7c-2.1,2-3.3,1.4-5.3,2.9c-4.6,3.2-4.9,10-4.1,17.9c0.6,6.7-0.2,11.2,7.4,9.1c-2.7,1.8-8.8,2.1-7.6,6.8
		c0.4,1.7,6.8,2.7,7.5,5.1c-0.7,0-1.2,0.3-1.4,0.8c2.1,1,6.7-1.4,7.9-0.8c1.2,0.8-0.2,3.2-1.6,3.2c0.7-0.7,1.9,2.3,2.1,2.6
		c-0.5-2.1,4.1-1.7,4.6-1.4c1.2,0.6-2.3,4.7-1.1,4.9c2.5,0.1,4.7-0.6,6.7-2.1c-0.3,2.7,1,3,4.1,0.9c-0.1-1.3-6.7,6.8-4.4,6
		c-2.7,1-5.2-2.2-8.2-1.3c-0.9,0.3,2.3,3.3,4.5,2.8c-3.8,4.1-4.6-1.6-8.3-1.6c-0.7,0,0.7,2.9-0.2,3c-4.3,0-2.9-6.1-9.2-0.3
		c-3,2.8-3.5,6.6-4,10.5c-1.3,10.2,0.8,20.8,0.8,31.1c-0.1,32.5,1.6,64.9,2.6,97.4c3.8-0.9,10.9-2.3,13.5-5.6c5.4-6.7,0-1.4-0.2-6.6
		c1-0.3,2-0.7,2.8-1.3c-1.1-0.8-2.1-1.5-3.2-2.3c-0.1-0.4,3.2-4.1,3.6-4c1.5,0.3,2.5,5.3,4.4,5c-3.2,0.4,6-9.7,6.5-7.9
		c0.8,2.9,6.2,5.1,5.9,3.7c-1.9-7.4,2.9,0.4,5,2.2c-4.1-3.6,7.4-4.4,6.7-6.7c1,3,1.9,0.7,4.5,0.3c-0.7,0.9-1.2,1.9-1.5,3
		c1.2,0,2.2-0.3,3.1-1.1c-0.4,0.3-0.5,4.5,0.7,4c2.8-1.2-2.4-7.4-2.4-8.6c-0.1-4.2-1.1-2.1,2.3-3.3c2.2-0.8,6,0.6,8.1-0.1
		c2.1-0.7,4.5-5.9,7.7-3.9c-0.3-0.2-1.8-0.1-2.1,0.1c6.1-3.4,7.7,10.8,10.3-3.1c1.6-8.8,0.6-18.6,0.3-27.4
		c-0.3-9.9-0.4-19.8-0.1-29.7c0.3-10.1,5.4-30.2-1-39C1663.4,328.1,1664.2,328.4,1665.1,328.6
		C1664.9,326.3,1664.2,328.4,1665.1,328.6z"/>
</g>
</svg>
