<?xml version="1.0" encoding="utf-8"?>
<!-- Generator: Adobe Illustrator 18.1.1, SVG Export Plug-In . SVG Version: 6.00 Build 0)  -->
<svg version="1.1" id="Layer_1" xmlns="http://www.w3.org/2000/svg" xmlns:xlink="http://www.w3.org/1999/xlink" x="0px" y="0px"
	 width="100%" viewBox="0 0 1680 697.2" enable-background="new 0 0 1680 697.2" xml:space="preserve">
<g>
	<polygon fill="#7AA3A1" points="746.4,697.2 638.4,697.2 638.1,553.4 746.2,553.4 	"/>
	<path fill="#4C757B" d="M1649.6,375.2c0.1-37.3,0.4-74.6,0.3-111.9c0-11-0.4-21.8-1.1-32.8c-0.3-4.9-3.2-21.9,2.1-25.3
		c-4.3,0.7-2.5-11.7-2.3-13.7c0.3-2.9,1-5.8,1-8.7c0-0.9-0.4-4.8-0.6-4c1.6-2.7,6.5,0,5.5-1.8c0.5,0.5,1,1.1,1.5,1.6
		c0.1,0,1.7-2.2,1.9-2.4c1.7-1.5-5.7,1-1.2-0.9c-3.4-1.2,3-2.9,3-5.3c-0.8-0.2-2.2,0.7-3.3,0.3c2.2,0.9,3.4-5.7,3.6,0.4
		c-0.4-0.4,2.4-0.4,2.2,0.4c0.5-2.4-1.7-2.7,1.6-2.7c-0.1,0-2.2,1-1.9,1.7c0.2,0.6,3.1-1.6,3.4-1.9c0.1-0.1,0,3.4,0.7,3.6
		c1.1,0.3,1.8-4,1.7-3.7c0.1,0.2,0.2,0.4,0.3,0.6c-1.5-1.3-1.5-1.9,0.1-2c0.3,0.8,0.8,1.4,1.4,1.9c1.5,0.4,0.2-2.4,0.2-2.5
		c-0.8,1.5,3.9-0.6,1.8-0.6c0.2,0,5.7-0.3,5.1-1c-2.4-0.8-1.2,0.4-0.7-1.6c-0.9-1.3-1.9-1-2.9,0.8c0.6-0.8,3.3-5.7-0.1-3.2
		c1.1-4.5-3.1-0.5-5-2.9c-0.4-0.7,2.1-0.7,2.2-0.8c0.4-0.6-4.8-0.9-4.2-0.9c2.4-0.1-2.6-0.7-2.8-0.8c-2.1-0.8-2-0.5-4.3-2.1
		c-1.2,1.2,0.5,1.8,0.2,3c-3.4-0.2-6.6-5.2-7.6-8.1c0.5,0.7,0.8,0.6,0.7-0.2c0.5-0.5,1,2.1,1,2.1c1.5,3.1,2.8-3.3,2.7-2.7
		c0.7,0,1.7,1.1,1.6,0.9c-0.2-0.4-0.1-3.3-0.1-1.8c0.1-0.8-4-1.6-4.4-2.2c0.9,0.7,2.8-4,0.9-4c0-0.1-2.6-0.2-3.1-0.3
		c-2-0.4-0.6-0.5-1,0.8c-1,1-5.2-2.5-1.9-3.8c1.8-0.7,4.1,1.8,5.2,2.7c1.5,1.2,6.7,9.7,6.6,9.6c1.1,0,4.5,3.5,4.6,3.3
		c0.2-0.4,0.3-0.8,0.3-1.3c4.1,2.7,1.8,2.5,5.1,4.1c-1-1.5,1.2-1.5,2.2,0.2c1-0.6,1.7-1.5,2.1-2.6c-0.7-0.1-1.4-0.2-2.1-0.3
		c3.2-1.8-3.4,0-3.2-0.5c0.1-0.3,3.9-1.6,4.4-2.1c1-0.9,0.3-2,1-2.7c-1.1,0-2,0.5-2.6,1.5c2.4-2-3.5-1.4-3-1.2
		c0-1.5-0.6-3.8,2.1-2.8c-1.4,1.5-2.6-3.4-2.5-3.3c0.4-0.3,4.1,3.4,4.3,3.5c2.6,1.7,1,0.1,1.5,0.3c1.1,0.3,3-2.3,2.8-3.3
		c-0.4-1.5-2.5,1.4-3.1,0.5c0.2-1,0.4-1.9,0.9-2.8c-0.1,0.1-2.4,1-2.3,0.7c0.4-0.7,1-1.4,1.6-2c-0.4,1.2-4.1-0.5-1.8-0.7
		c0-1.6-4.9,0-5.3-0.6c-0.1-2.8,0.8,0.2,2-0.9c-0.8,0.4-5.7-2.3-4.7-3.7c1.4,1,3.1,1.5,4.6,2.3c2.1,1.1,3.8,0.3,0.6,0.3
		c0,1.1,2.9-1.7,3.1-2.3c-0.4-0.4-0.5-0.3-0.4,0.4c-0.2-0.4,0-1.9,0-2c-0.5-1.2-12.2,0.2-11.8-2.1c0.4-1.6,9.1,0.8,10.4-0.2
		c1.5-1.1-0.2-5.5-2-5.3c0.1-0.7,0.2-1.3,0.1-2c-0.8,0.8-1.8,1.2-2.9,1.3c0.8,0.4,1.7-3.9,1.4-4.3c-0.8-1.1-6.8,0.7-8.1,0.7
		c1.9-1,2.5-0.5,1.1-2.2c0.5-0.3,1.1-0.6,1.7-0.8c0,0-3.3-0.4-3.6,0.6c0.3-0.5,0.5-1,0.6-1.6c-0.5-0.2-8.4-1.7-8.1-2.1
		c1.6-2.1,8.4,1.9,9.3,1.2c0,0-3.5-5.3-4.7-3.8c0.6-0.6,8.8,1.4,9,1.7c-1.4-1.4,0-1,1.6-1.4c-1.1-0.6-4.8-1.3-5.5-2.4
		c-1-1.5,3.9-1,4-1.1c-1.7-0.9-1.5-1.4,0.4-1.6c0.2-0.8-7.5-3-8.4-3.2c0.9-0.7,1.1-1.6,0.4-2.6c-1.6,1.2-3.1,2.8-5.7,0.8
		c-0.1-0.1,3-1.6-1.2-3.6c-1.3-0.6-6.5-1.9-7.8-1.9c-1.7,6.9,0.1-0.4-3.9,2.4c-0.7,0.5-4.7,1.1-3.9,3.2c0.9,2.3,5.7-1.3,6.6,0.6
		c-1,0.4-6.5,1.1-2.7,2.9c-0.3,0-3.9-0.5-3.9-0.4c2.8,0.7,2.9,1.4,0.3,2c0.5,1,6.7,1.8,7.6,1.3c-0.8-0.4-2.1,0.4-3.6,0.4
		c-2.6,0-5.6,0-8.1-0.7c1.9-5.8-1.8-13,3.1-17.9c-2.5-1.3-4.4,0.9-6.6,0.5c-2.8-0.5-3.4-1.4-5.6-3c-0.8-0.5-5.3-3.2-4.4-2.1
		c-1-1-0.6-2.7-1.4-3.8c-0.9-1.2-2,0.2-2.3-0.1c-0.8-1.2,1.1-3.3-1.5-3.2c-0.9,0,0.2,3.3-1.3,2.8c-2.2-0.8,0.3-4.7-0.5-6.1
		c-2.8-5-5.3,1.3-6.4,0.8c-3.9-1.8-0.9-5.2-5-6.7c-3.5-1.3-9.5,2.2-13.4,2.3c-1.3,0-6.3-1.7-6.9-1.3c-2.3,1.5,2,2.4,1.7,3.6
		c-1.1,3.9-5.4,0.2-5.8,0.1c1.3,0.3-5.3-4.4-2-2.4c-0.6-0.4-3.1,1.4-4.1,1.1c0.7-0.5,2.6-4,0.6-4.2c-1.2,0.9-1.1,2.6-2.3,2.7
		c-1.2,0.1-3-1.3-4.2-1.5c-1.9-0.3-1,1.5-0.3,2.2c-0.9-0.7-1.7-1.4-2.6-2.1c0.1,0.1,2.2-2.1,1.7-2.9c-0.8-0.9-1.9-1.3-3.3-1
		c0.2-1.7-0.2-2.6-1.3-2.6c-1.9-1.1-8.1-4.6-7.7-0.5c-0.6-0.9-3.2-2-4.3-2c-0.2-0.1-0.3,4.5-0.5,4.6c-2.7-2.8-13.1-0.6-12.1,4.4
		c0.8,3.7,9.4-1.9,10.7,1c-2,0.8-5.3-0.6-4.1,2c-0.1,0.4-2.3,0.2-2.6,0.5c0.2,1.1,1,1.9,2.3,2.1c-0.3-0.1-6.3-0.9-6.3-0.6
		c1.1,0.9,2.3,1.5,3.6,1.9c0,0.5-3.7,0-3.1,1.4c4.1,1.1,1.2,0.8,5.7,1.5c1.2,0.2,5.7,1.2,6.7,0.6c-0.8,0.5-1.6,1-2.4,1.5
		c-1.7-4.6-3,1.2-5.3,1.4c-1.3,0.1-3.9-1.9-5.4-2.3c-5.4-1.7-8.3-1.1-9.8,3.5c0.4-2.2,8.4,0.5,9.2,1.5c0.2,0.3-2.2-0.2-2.2-0.3
		c0.1,0.8,0.1,1.6,0,2.4c-1,0-1.9,0-2.9,0c0.7,1.1,0.7,2.2,0.2,3.4c-1.2-2.8-2-2.7-2.4,0.3c-2.4-2-3.3-2.5-2.9-1.5
		c-0.8,0.5-1.5,1.9-2.7,1.9c-1.1,0.1,3,2.6,2.3,2.9c-0.9,0.5-4.7-1.1-5.1,0c0.4,1.1,1.2,1.9,2.4,2.2c-1.7,0.7,2.2,2.3,3.1,2.2
		c1.6-0.2,5.6-4.9,7.1-3.1c-5.5,1.8,0.8,1.1,0.5,3.9c0-1.5-2.1,0.5-2.2,0.5c2.2,1.1,1.8,0.5,1.6,0.6c-0.8,0.3,7.8,0.1,9,0
		c2.6-0.3,10.6-1.6,10,3.2c0.1-0.7-3.8-1.2-3.9-1.8c-1.8,1.3,2.3,3.4-4.8,2.7c-2.3-0.2-7.3-2.9-6.9-0.7c-2.5-4.8-4,4.4-5.3-1.8
		c-0.4,0.6-1,1.1-1.7,1.2c0,1.3,3.4,2,1.2,3.3c-2,1.2-2.8,0.5-4.3-1.7c-0.5-0.1-2.4-0.5-3.4-0.5c0.5,0.8,0.6,4.2,1.3,4.5
		c-0.7-0.7-1.5-0.7-2.3-0.1c0.4,0.3,6.9,3,6.9,2.9c-0.5,0.6-0.4,0.5,0.1-0.2c1.6,0.7,0.2,2.3,2.4,1.6c0.9-0.3,1.1-2.5,1.7-2.7
		c0.9-0.3,1.7-1.3,1.3,1.2c0.5,0.1,11.8-6,11.9-6.3c0-0.6-0.1,2.5-1,1.9c1.4,1,4.5,1.3,5.2,1.8c-0.6-0.5,3.6,4.1,1.9,3.4
		c-0.8-0.5-0.9-1.8-2-2.3c-0.9,0.5-0.8,1.3,0.3,2.3c0.1-0.2-5.3-2.1-5.5-2.1c-1.8-0.1-0.4,3.1-0.5,3.1c-1,0.6-1.2-3.2-2.7-2.8
		c-2,0.5,0.8,1.5-0.7,2c-0.6,0.3-3.9-2.6-4.4-1.7c-2.4,3.1,4.7,5.5,5.8,5.6c-1.5,2.5-4.3-0.5-6.1,0c1.2,5.3-3-0.5-1.2,3.8
		c-0.2-5.5-3.2-2.1-5.6-3.4c-1.3-0.7-2.6-2.5-3.6-4.1c0.3,1.8-0.1,2.4-0.9,1.8c-0.6-0.3-1.2-0.6-1.8-0.8c-0.2,0.3-1.8-1-1.8,1.1
		c0,1.9,5.7,2.4,5.7,4.5c-2.5,0.3-1.2,0-0.3,3.2c-0.5,0.5-4-6.9-4.9-2.9c-0.5-1.2-4.9-5.4-3.3-1c-0.1,0.3-2-2.2-1.8-2.2
		c-1.9-0.8,1.1,3.2-1.9,1.9c1.3-0.9,1.2,2.9,1,3.6c-0.3-0.2-4.9-3.9-5.2-3.1c-0.4,1.1,0.9,0.2,1-0.1c-0.7-0.3-1.5-0.1-2.1,0.6
		c0.3-0.1,7.1,5.3,7.2,5.1c-0.5,1.6-4-2.2-3.4,0.9c-1.6,1.3-4.5-4.5-1.5,1.2c-1.7-0.9-2.1-1.1-1-0.7c0.3,1.5-6,3.2-5.1,1.9
		c0.4-0.4,0.2,3.8-0.2,3.4c-0.5-0.5-2.9-3.5-3.6-3.2c-0.4,0.1,0.5,5.1,0.9,5.6c0.9,0.8,12.2,2.1,2.1,2.6c2.6,0.5,4.1,3,6.1,3.7
		c0.5,0.2,2-1.2,3.3-0.7c3,1.1,1.1-0.1,2.4,1.9c2.1-2.8,5.3,2.3,4.9,2.7c-1.2,1.2-5.1-1-6.3-1.4c-1.1,0,1.4,2.6,1.4,2.6
		c-2.6,2.8-5-0.5-6.3,1.9c-1,1.7,3.4,2,2,3.9c-0.9,0.9-5.5-1.1-6.3-1.9c0.4,3.5-1.1,1-3.4,1.2c-0.7,2.1,3.9,1.5,4.4,2.6
		c0,1.2-2.7,1.4,0.5,2.4c1.9,0.6,4.4-1.1,6.3-1.1c0,2.3-2.8,2.3-4.1,2.2c0.6-0.9,5.9,1.1,7,0.9c0.5-0.1,5.5-3.5,5.4-3.9
		c0.8,0,4.9,5,4.8,5.3c-1.1-0.3-2-1-2.6-2c-0.1,3.4-0.7,1-2.3,0.7c-1.1,0.7-1.2,1.6-0.3,2.9c-0.5,0.9-4-1.6-4.7-1.5
		c-1.6,0.3-0.8,2.6-2,2.7c-1.6,0.2-5.8-1.6-6.2-2c0.6,0.7,0.6,3.9,1.1,4.8c0.3,0.6,3.8,1.5,3.8,1.4c-0.1,0.9-0.7,2.7-1,3.4
		c-0.3,0.6-2.9-2.2-3.5-2c-2.3,0.6-0.5,0.7-1.5,2.7c-1.2-0.3-2.4-0.7-3.6-1.2c-1.1,0.8,2.8,4,3.1,4.9c1.1,3.7-4.5-3.5-2.1,1.9
		c-0.8-1-1.7-1.9-2.7-2.7c-0.4,1,2.1,5.8,3.6,5.3c-1.2,0-3.2-0.2-4.3-0.7c2.4,0.8,3,3.5,4.9,4.8c3.5,2.5,0.6,3,4.7,0.6
		c-1,2.5,3.6-0.5,3.8-0.5c0.7-0.5-0.2-3.9,1.3-4c-0.7,0.1,1,1.9,1,1.8c1.5,0.5,0.1-3.3,1.4-3c0.6,0.1,2.7,3,2.1,3.5
		c0.4-0.3-1.1,0.2,0.5,0.3c2.3,0.2,1.3-1.2,2.3-1.5c1.8-0.5,3.3-2.1,4.4,0c1.3-1.3,2.1,0.1,3.2,1c0.4-0.7,1.3-5.3,3.1-3.6
		c-0.2-0.2-3.7-1.8-3.6-2.2c0.5-1.4,5,2.3,5.8,1.7c2.2-1.5-2.2-4.6-1-4.9c1.1-0.4,2.7,2.3,2.7,2.3c2.2-0.5,2.6-4.4,5.8-3.6
		c3.1,0.8,2,3.1,0.2,5.3c-2.2,2.8-11.3,6.7-13.4,5.5c-0.1,2.7-0.3,0.3-2.6-0.2c0.1,1.5-4.6,1.8-3.3,2.2c-2.8-1,4.4,3.2,3.8,2.5
		c0.7,0.6-4.2,4.1-1.7,4.1c-2.5-3.4-0.7-0.7-1.7-0.3c-0.8,0.3-2.9-1.7-3,0c-0.1,2,2.6,1.1,2.4,3.4c-3.5-1.2-5.8-4.6-7-0.7
		c-2.5-1.3-1.5,1.6-1.2,1.7c-1.9-4.8-0.1,6.5,3.4,1.9c-1,1,0,0.9,0.5,1.9c-1-0.3,3.1-0.7,2.2-1.5c0.1,5.5,0.5,1,1,0.4
		c0.7,1.2,1.3,2.4,1.8,3.7c0.3-0.3,4.2-5.4,3.8-5.4c1.9,2.4,2.2,0.2,4.9-1.2c-1.5,2.4-1.8,1.7-0.9,4.3c0,0.2,2.3-1.7,2.4-1.8
		c-0.5,0.3-0.3,4.1-0.1,3.9c2.3-1.3,2.2-3.2,5-4.1c0-0.2-2.2-0.4-2.4-0.6c-2.5-2.9,9.3,1.3,1-3.2c1.3,1.1,4.4,0.6,1.7-1.5
		c3.3,0.1-0.2-2.7,0.2-2.7c7.6,0,3.8,16.6,1.3,20c-2.9,3.9-2.7,1.9-7.2,2.8c-1.6,0.3-4.4,2.8-6.2,2.2c1.5,0.6-1.2,2.2,0.7,3.7
		c1.4,1.2,2.3,0.8,4,1.3c0.8-0.2,1.6-0.5,2.4-0.7c1.2,0.7,2.4,1.4,3.6,2c-6.2-1.6-1.3-0.5-4,1.4c-1.6,1.1-5.6-1.5-2.3,3
		c-0.9-1.1-2-2-3.2-2.6c1,4-4.1,1-4.1,0.7c-2.7,2.7,15.5,9,15.5,5.3c-1.6,2.1-1.9,2.1-0.2,4.9c0.5-0.9,1.2-1.4,2.2-1.5
		c-0.9-0.8-1.3-1.9-1.2-3.1c0.8,1.4,1.7,1.8,2.6,1.2c-0.3-2.1,0.1-2.6,1.2-1.4c-0.6,0-0.8,0.3-0.7,0.9c0.1,0.1,2.4-1,3.2-0.2
		c0.2,0.2,6-4.5,6-6.3c2.8,2.4,2.7,11.6-2.6,10.2c4.6,1.8,3.4,5.5,3.4,9.6c-2.8-1.9-5.5-3.8-8.2-5.8c4.3,4.1,8.1,7.5,9.5,13.5
		c0.5,2.2,1.7,9.1-2.6,5.6c6.3,11.5,2.7,27.5,2.5,40c-0.3,16.8-1.3,33.6-1.7,50.5c-0.3,13.5-0.7,27,0.3,40.5
		c0.8,10.9,0,13-11.4,13.8c-10.9,0.8-22.2,0.4-31.3,7.2c-4.8,3.5-6.6,5.9-13,5.2c-7-0.7-13.7-2.2-20.8-2.1
		c-12.3,0.2-21.6,8.5-33.3,11.5c-10,2.5-23.8,4.2-31,12.4c-1-25-2.3-49.9-2.1-74.9c0.1-17.1-3.4-36.9,7-51.3
		c-2.2,1.3-4.4,2.6-6.7,3.8c0-7-0.7-13.1,5.9-17.3c-4.1,1.8-6.5,0.3-6.7-3.9c-0.3-5.6,4.9-6.5,8.5-8.9c-10.8,3.1-7.2-11.3-7.8-18
		c-0.5-5-2.2-11.9-0.6-16.9c0.2-0.7,6.1-9.5,7.7-8c1.8,0.3-0.7,3.8-1,4.1c1.6-0.7,2-0.1,1.4,1.6c1.8,0,0.7-1.9,0.5-2.5
		c0.4,0.2,0.8,0.4,1.2,0.6c0.1-0.2,0.4-1.4,0.6-2.6c1.8,1.8,1.7,5.1,2.2,7.4c-2.1-1.5-4.4,2-2.3,2c0-0.2-4.1,5.2-4.1,5.2
		c0.4,0.8,0.7,1.6,0.9,2.5c-0.4-0.4-0.8-0.8-1.1-1.2c-0.2-0.3-1.6,1.9-1.1,1.6c0-0.2-1.8-0.3-1.6,0c1.1,2.4,0.7-0.1,1.8,0.6
		c0.5,0.7-3.1,2.2-2.8,3.3c1.1,3.4,1.1,0.5,3.5,0.5c-1.1,1.4-1.1,2.4,0.1,2.9c3.3-1-0.4-6.1,4.3-4.2c-0.3-0.4-0.3-0.8,0-1.3
		c0.3,0.8,0.1,1.4-0.6,2c-1-0.8,5,1,4.4,1.6c0.2-0.3-2-2.2-1.9-3.3c0.2-2.4,0.6-4.9,1.6-7.2c0.8,2.9,0.1,0.9,1-0.3
		c0.2-0.2,1.8,3,1,3c0.3,0,0.4-2.9,0.4,0c1,0.1,2.9,1.7,2.9,3.4c-1.3,2.3-0.7,2.9,1.8,1.8c-1.1-0.4,0.3-2-0.8-2.8
		c0.3,0.2,4.5,1.5,4.5,2.1c-0.2-0.7,0.3-0.5,0.5-1.3c0.5,0.3,0.8,3.2,1.6,3.1c1.1-0.1,0.9-0.8,1.7-0.4c2.1,0-3.5-6.8-2.9-7.4
		c-0.4,2.8-2.4-1.7-2.5-1.6c0.5-0.5,2.5,0,2.7,0.2c-2.3-2.3-4-1.8-2.4-3.6c-0.6,0-1.3,0-1.9-0.2c0.3-0.7,0.1-1.8,0.4-2.3
		c0,0.1,0.2,1.3,0.2,0.4c0.2-0.1-3,2.1-2.5-0.7c-1.1,5.3-10.7-5.4-6.7-7.4c0.6-0.3,4.6,7,4.5,6.8c-1.4,0,2.3-2.4,0.9-0.4
		c-0.2-0.5,0.1-0.8,0.7-0.8c0-0.6-2.7-0.8-2.5-1.3c0.6-1.2,2.3-1.2,3-2.1c-0.3,0,2.5,3.2,3.5,3.6c6.8,2.4,0.4-0.9,3.1-0.9
		c0.8,3,3.9-0.1,2.8-2.6c-1.6-3.4-2.9-0.4-4.9-1.5c-3.5-1.9-2.1-0.1-2.2-3.3c-0.1-1.6,0.4-1.5,1.6-1.3c0.1-0.8,0.2-1.7,0.2-2.5
		c0.1,0.1-2.4,1.1-2.3,0.9c0.1,0.1-2.9-1.9-2.9-3.1c-0.9-0.6-1.5,1.4-1.9-0.7c-0.1-0.5,0.6-5.3,1.2-4.9c-2.6-2.6-5.2,1.5-6.3,1.4
		c-0.5-0.1-4.7-0.5-3.8-2.8c1.3,0.8,1.9,0.1,1.9-1.5c1,0.6,2,1.4,2.8,2.2c-0.2-2.4,2-5.9,3.5-1.9c3-0.5-9.1-7.7-8.1-4.7
		c1.9-0.7,10.6-4.8,11.3-0.5c-0.1-0.5-2.5-2.2-1.9-2.8c2.2-2.2,2.9,6.6,4.3,3.8c0.8,0.6,0.8,3.2,1.5,0.3c0.4,0.7,0.7,1.4,0.8,2.1
		c-0.4-0.4-0.8-0.8-1.1-1.2c-0.2-0.3-1.2,1.7-1.1,1.6c0-0.2-1.8-0.3-1.6,0c1.1,2.4,0.7-0.1,1.8,0.6c0.5,0.7-3.1,2.2-2.8,3.3
		c1.1,3.4,1.1,0.5,3.5,0.5c-1.1,1.4-1.1,2.4,0.1,2.9c4.2-1.3-0.9-4.9,4.3-4.2c-0.3-0.4-0.3-0.8,0-1.3c0.3,0.8,0.1,1.4-0.6,2
		c-1-0.8,5,1,4.4,1.6c0.2-0.3-2-2.2-1.9-3.3c0.2-2.4,0.6-4.9,1.6-7.2c0.8,2.9,0.1,0.9,1-0.3c0.2-0.2,1.8,3,1,3c0.3,0,0.4-2.9,0.4,0
		c1,0.1,2.9,1.7,2.9,3.4c-1.3,2.3-0.7,2.9,1.8,1.8c-1.1-0.4,0.3-2-0.8-2.8c0.3,0.2,4.5,1.5,4.5,2.1c-0.2-0.7,0.3-0.5,0.5-1.3
		c0.5,0.3,0.8,3.2,1.6,3.1c1.1-0.1,0.9-0.8,1.7-0.4c2.1,0-3.5-6.8-2.9-7.4c-0.4,2.8-2.4-1.7-2.5-1.6c0.5-0.5,2.5,0,2.7,0.2
		c-2.3-2.3-4-1.8-2.4-3.6c-0.6,0-1.3,0-1.9-0.2c0.3-0.7,0.1-1.8,0.4-2.3c0,0.1,0.2,1.3,0.2,0.4c0.2-0.1-3,2.1-2.5-0.7
		c-1.1,5.3-10.7-5.4-6.7-7.4c0.6-0.3,4.6,7,4.5,6.8c-1.4,0,2.3-2.4,0.9-0.4c-0.2-0.5,0.1-0.8,0.7-0.8c0-0.6-2.7-0.8-2.5-1.3
		c0.6-1.2,2.2-1.2,3-2.1c-0.3,0,2.5,3.2,3.5,3.6c6.8,2.4,0.4-0.9,3.1-0.9c0.8,3,3.9-0.1,2.8-2.6c-1.6-3.4-2.9-0.4-4.9-1.5
		c-3.5-1.9-2.1-0.1-2.2-3.3c-0.1-1.6,0.4-1.5,1.6-1.3c0.1-0.8,0.2-1.7,0.2-2.5c0.1,0.1-2.4,1.1-2.3,0.9c0.1,0.1-2.9-1.9-2.9-3.1
		c-0.9-0.6-1.5,1.4-1.9-0.7c-0.1-0.5,0.6-5.3,1.2-4.9c-1.4-1.4-4.3-0.1-5.1,0c-0.4,0.8-1,1.5-1.8,2c-1.3-1-2.5-2.2-3.6-3.4
		c0.6,0.3,1.2,0.4,1.8,0.6c-0.1-0.7,0-1.4,0.5-2c1,0.6,2,1.4,2.8,2.2c-0.2-2.4,2-5.9,3.5-1.9c0.3,0-1.5-3.5-1.8-3.7
		c-2.2-1.1-3.5,0.7-5.7-0.3c0.9-2.1,10-5.3,10.6-1.2c-0.1-0.5-2.5-2.2-1.9-2.8c2.2-2.2,2.9,6.6,4.3,3.8c3.7,2.9,2.9-2.7,3.2-2.9
		c-0.9-0.7-3.1,0.6-4.3-0.2c-0.5-1.1,0.1-1.8,1.7-2.1c-0.9-1.1-2.9-1.1-0.7-3.2c-0.3-0.3-2.7-0.1-3,0.1c2.9-1.3-4.9-4.9-3.1-0.9
		c-0.1-0.3-0.4-3.2,0-3.2c-2.9-0.6-5.1,0-8-0.9c-3-0.9-7.2-1.5-10-2.9c1.6,1.4-3.2,3.7-4.3,3.9c-0.3-1.5-0.3-2.9,0-4.4
		c0,0.6,3,2.3,3.2,1.6c-1.4-1-1.6-1.5-0.5-1.6c0.8-0.2,1.6-0.4,2.3-0.6c0.8-1.1,5.3-0.7,1-1.8c-0.2-0.7,5.1-1.3,4.3-2.7
		c-0.7-1.4-2.8-1.4-4.3-0.5c-0.6-0.3,8.8-3.2,10.3-3.4c-1,0-11.1,0.3-11,0c0-2.5,3.9-0.9,4.5-0.5c0.6-1.1,0.7-5.3,2.7-5
		c0.2,0.1,1.4,3.7,1.6,3.6c1.8-1.3,0.7-4.5,2.8-5.7c1.5-0.9,1.4,2.4,1.1,2.3c1.7-1.7,2.6-1.6,2.7,0.5c0.9-2.4,8-0.2,7.4,1.6
		c0.9-1.8-2.5-3.5-3.4-4.3c0-0.1,8,0.5,8.5-2c-6.9-1.6,2-1.1,0.4-4.5c-3.3,2.1-1.3-2.7-2.9-0.2c-0.9-1.6-0.9,0-2.5,0.9
		c-0.1,0.1-0.1-1.6-0.7-1.6c-0.3,1.3-0.2,3.9-1.8,3.7c-4.6-0.5,1.4-6.5,1.3-4.6c0.1-3.2-6.5-7.2-9.4-10.1c0.1,0.9,0,1.7-0.3,2.5
		c-1.8,1.9-1.1-4.7-1.1-4.5c0,0.6,3,2.3,3.2,1.6c-0.5,0.9-1.6-4.3-1.3-4c-2.8-0.4-1.8,1.2-3.5-2.6c0.2-0.9-6.8,7.8-4.1,7.7
		c-0.7,0-2.1-3.4-2.1-1.7c-0.1-0.4,1-3.8,2.2-2.7c0-6.3-6.5,0.8-7.4,2.7c-0.4-0.4-0.3-3.8,0-3.6c-0.3,0.7-6.1-0.7-6.2-1.9
		c-0.1-0.9,6.7-6.9,6.3-6.8c2.4-0.5,5.2,2.4,7.5,2.9c-1.5-0.3,3.3-0.4,2.1-0.2c2.1-0.3,1.7,1.5,1.5-2c-0.6,0.6,2.6,1.6,3.1,1
		c1.3-1.6-2-3.4,0.8-3.3c-2.9-0.5-3.1-1.2-0.7-2.2c-8.2,0,3.4-5.1,3.4-4.7c0.1-0.4-0.6-2.1-0.5-2.7c0.4,0.4,2.8,3.5,3.6,1.8
		c-1.7-2.8,6.5-4.7,6.5-5c0.9-2.4-9.1-2.3-6.9-3.6c0.2-0.1-3.3,1.7-4.7,1.2c-3.9-1.3,1.1-2.4-1-4.5c-2.5-2.5-5.1,2.7-5.8-1.8
		c-1-0.5-2.4,1.7-2.9,2.2c-0.3-4.1-2.7-0.1-4.5,0.2c-2.5,0.4-0.6-5.8-1.1-6.3c-0.8-0.8-2.7,1.6-2.4,2.3c-0.4-0.5-2.2-4.4-2.3-4.4
		c-0.6,0.5-1.1,1.1-1.5,1.8c0.1-0.1-1.2-2.5,1.1-3.2c2.3-0.8,4.8,0.3,7.1,0.2c1.7-0.1,8.2-2.6,7.7-2.8c0.5,5.3,3.7-2.6,6.1-3.2
		c-0.9-0.9-1.9-1.3-3.1-1c0,0.1,1.4-3.6,0.2-3.3c-0.4,0.3-3.5,2.5-4,1.6c-0.1-0.4,2.1-3.5,2.2-3.4c-7.2,3.1-2.4-5.8-2.7-9.9
		c-0.6,1-2.7,1.1-3.5,0.7c-3.6-1.6,6-2.3-2.5-2.2c0.2,0.5,5.6-9.1,3.3-9.3c-4.9,1.2,0.5-2.2-1.1-3.8c-0.7-0.9-3.2,1.8-3.8,1.8
		c0.9-2.3-0.1-3-2.9-2.3c6.7-2.6-1-3.4-1.6-6.7c0,0.1-1.3,3.9-1.1,3.8c-1.1-0.3-1.6-1-1.6-2.2c-1.6,2.1-4.6,2.5-7.1,2.3
		c-4.1-0.4-2.8-1.5-5-3.5c0,3.1-1.1-4.3-0.7-3.8c1.2,1.9-2.8-0.7-2-0.7c-1.4,3-0.4,1.2-1.5-1c1.3,2.6-2,0.3-1.7,0.5
		c0.4,1.2,0.8,2.3,1.4,3.4c-0.5,0.8-2.9-0.9-2.7,0.7c0.6,0.7,1.4,1.2,2.3,1.5c-1.2,1.2-3.2-0.9-3.6-0.6c0.1-0.1-2.1,1.2-2,1.1
		c-0.4,0.3,0.8,2.3,0.6,2.8c-0.4,1.1-3.2,0.4-3.7,1.1c1.1,0.7,1.2,1.3,0.4,1.9c-0.5,0.2-0.8-1.9-1.1-1.7c-2.1,2,1.2,3.2-2.7,2.6
		c1.2,1.9,0.6,2.3-1.8,1.4c0-0.1,5.3,2.3,4.9,2.7c0,0-3,0.3-3.1,0.2c3,1.4-2.8,2.4-1.7,0.2c-0.5,1,1.7,4.6,1.4,4.7
		c-0.4-0.2-3.8-1.8-4-1.6c-2.1,3.1,7.2,11,3.2,10.4c3,3.9-6,1.2-2.7,3.4c-2-1.7-3.1-1.3-3.2,1.1c-0.2-5.8-4.1,3.1-7,0.5
		c1.7,2.4,1.2,3.1-1.4,2.2c5,1.6,0.7,1,0.4,1c-0.6,0,0.1,1.5,0.1,1.5c0.5,1.5-5.2,0.2,1.7,1.6c-1.9,4.2,3.1,0.9,3.1,3.1
		c0,0.1-2.3,1.6-1.9,1.9c1.1-0.1,2.1-0.5,3.1-1.1c0.7,3-3.1,0.1-3.8,0.9c1.1,0.7,1.2,1.3,0.4,1.9c-0.5,0.2-0.8-1.9-1.1-1.7
		c-2.1,2,1.2,3.2-2.7,2.6c1.2,1.9,0.6,2.3-1.8,1.4c0-0.1,5.3,2.3,4.9,2.7c0,0-3,0.3-3.1,0.2c3,1.4-2.8,2.4-1.7,0.2
		c-0.5,1,1.7,4.6,1.4,4.7c-0.4-0.2-3.8-1.8-4-1.6c-2.1,3.1,7.2,11,3.2,10.4c1,1.4,1.2,2.9-1.8,2.4c0.8-1-2.3-5.7-3.7-6.8
		c-2-1.6-7.6-2.3-10.1-1.4c-1.4-1.3,0.7-7-2-3.5c-1.5-0.8-2.1-2.2-2-3.9c-0.2-0.1-2.2,1-1.6,0.9c-2.5,0.4-6.9,4.2-6.8,0.7
		c-0.5,0.9-0.8,0.8-1-0.3c-1.3,1.4-2.4,3.9-3.9,4.3c-1.1,0.3-2.4-1.8-3.5-1.7c-2.6,0.2-0.9,2.4-3.6,1.4c0,0.8,0.1,1.6,0.1,2.3
		c-2-1.8-1.8,0.7-4.1,0.8c-0.5,0.1,0.6,4.2,0.1,4.5c-0.9,0.6-1.2-1.2-1-1.5c0.2-0.2-5.2,4.5-5.3,3.3c0.3,1.5-0.1,2.1-1.6,1.7
		c-0.2-0.1-1-2.1-1.1-2.1c-4.1,3-8.6,6.8-5,11.3c-0.7-0.2-1.2-0.5-1.7-0.9c-2.6,2.9,6.6,6.5,6.7,5.9c0,0.5-1.9,0.6-1.7,0.9
		c0.9,1.7,5.9-0.4,7.4-0.3c-1.4-2.2,3.5,2.6,5.8,1.2c1,1.9-1.8,0.8,1.4,3.1c0.7,0.5,4.1-1.1,3.8-0.3c-0.4,0.8-5.4,3.7-5.4,3.6
		c0,0.1,6.7-1.1,5.7,1.3c-0.4,1.4-4.9,2-4.1-0.5c-1.5,0.7-2.8,1.7-3.9,3c0.3-0.5-0.3-7.3,0.3-6.7c-0.2-0.8-5.5,0-6.5,0.3
		c0.4,0.3,0.8,0.5,1.2,0.6c-1,1.5-2.2,0.5-3.2-0.1c0.6,0-1.2,2.3-1.2,1.9c0-0.2,3.1,1.7,3.2,1.7c0,0-3,0.1-2.9-0.1
		c0.6,0.9,1.5,1.3,2.5,1.3c-0.2,3.9,3.5-1.7,5.6-0.5c-0.1-0.1-1.1,1.7-0.9,1.6c0-0.5,0.3-0.5,0.8-0.2c0.1,0.7-3.8,2.2-2.5,1.6
		c1.3,1.9,1.4,5.3,0.5,7.3c-2-1.8-1.3,2.9-3.2-1.1c-0.4,0.3-0.5,0.6-0.4,1.1c-0.6-0.3-2.4-2.3-3.1-2.3c0.1,0.3,0.1,0.6-0.1,0.8
		c-0.5-1-0.2-0.5,0.8,1.6c0.2-0.6-4.7,0.7-2.7,1.9c-0.6-0.4-1.3-0.8-1.9-1.2c-0.1,1.9,2.6,3.3,2.6,4.8c-0.1,2.3-1.6,1.8-2,3.4
		c-0.3,1.1-0.7,8.1-4,6.7c-0.7,2.2,4.7,2,5.6,2.6c0.9,0.7-6.9-1.2-6.7-1.3c-0.9,1,1.5,1.3,1.4,1.9c-0.3,2.1-1.5-1.6,0.1,1.2
		c-0.6-1.1-7.3,0.6-6.9,0.8c-0.3,0.3,2.4,4,2.9,4.2c-2-1.3-7.4-0.6-8.6,0.1c-3,1.7-1.2-0.5-0.2,2.6c-1-3-2.5,3.6-2.5,3.6
		c0-0.5-1.9-1.5-2-2.9c-0.1-1,1.2-2.2,1.2-3.3c0-6-1.7,0.1-3.5-2.2c-1.1-1.3,2.7-3.2,2.5-4.4c-0.7-4.1-2.4,0.3-3.2,0
		c-1.6-1-2.9-4.1-2.4-5.9c-3.8-0.3-6.1,1-8.7-0.6c1.2,0.3,0.9-0.5,2.1-1.4c0.1-1.6-2.1-1.2-2.9-1.9c1.1-0.5,2.3-0.5,3.4,0
		c1.4-2.3-6.1-1.5-7-1.6c3.1-1.6,1.3-0.9,0.6-2.2c0,0-2.4-5.9-1.3-3c-0.3-1.5-0.4-3.1-0.4-4.6c1,0.2,6.9,4.4,3.7,5.5
		c3,0.3,1.2-3.8,1.3-3.6c3.6-1.2,0.9-1.2-0.3-2c-0.4-2.5,2.4-1.7,3.6-2.8c-0.4-0.3-0.7-0.7-1-1.1c1.1-0.3,2.4,0.9,3.7,1.9
		c-3.3-1.4,0.4,3.7,1.8,0.5c0,0.1-1.4-6.2-0.7-5.9c0.6,0.3-3.5,1.7-3.2,1.8c-0.1,0-0.9-2.3-1.1-2c1,0.2,2,0.1,2.9-0.2
		c-0.1-0.5-0.2-1-0.5-1.5c4.3-2.4,0.4,2.6,1.7-1c0-0.1,0-2.5,1.4-0.2c-0.4-1.3-1.3-2.2-2.5-2.6c1.4-1.2,2.4,0.4,2.3,0.1
		c0,0.2,4.5,0.2,3-1.6c0.8,0.9-2.9,1.2-2.6,0.7c0.3-0.4,1.8-2.7,2.5-2.3c-0.2,0.4-0.5,0.7-1,0.9c-0.6,1.7,2.3-3.6,1.3-3
		c-0.8,0.7-1.2,1.6-2.1,2.2c0.8-0.5-5.3-6-0.2-7.2c-1-1.2-2.7,1.1-3.4-1.3c6.4,3.2,1.2-1,1.5-1.1c1.4,0.2,2.7,0.7,3.9,1.5
		c4.1-0.2-3.7-5.2-2.6-6.2c-2.7,0.3-2.6-0.7-5.3,0c0.3-0.6,0.4-1.2,0.3-1.9c-0.1,1.3-0.6,1.5-1.5,0.5c0.2-2.5,1.8-3.4-1.7-2.4
		c-0.6-0.1,3.5-4.2,3.9-3.6c-0.7-1.3-3.9,0.1-5.3-0.4c-0.4-0.1,0.4,2-1,1.5c-1.3-0.5-1.4-3-3-3.2c1.2-2,3.6-1.7,4.7-4.1
		c0.2-0.5,0.4-5.9,1-5.8c1.5,0.8,1.6,2.4,2.8,0.3c0.4-0.7,0.2-4.2-0.3-4.9c-1.9,1.6-1.3-0.8-1.6-0.8c-0.8-0.1-5.5,3.1-5.1,3.4
		c-0.6-0.9,0.8-3.3,0.2-3.9c-1.4-1.3-1.9,1.7-2.8,1.6c2,0.1-5.8-9.3-3.7-3c0.4-4.8-5.5,2.1-5.5,2.1c-0.9-0.1-1.5-2.4-3.1-2.4
		c-1.5,0-2.9,0.9-4.4,1c-1.6,0.1-5.6-0.3-6.8,0.9c-0.2,0.2-1-4.2-2.4-4.8c-0.9-0.4-4.8,1.7-4.9,1.3c-0.3-0.5,1.3-0.2,1.3-0.6
		c0-0.5-6.3-2.3-7.1-4.3c-0.5,5.5-14.9-3.1-13.6,4.5c0.5,0.2,4.3,1,4.2,2.3c-0.1,1.2-2.2,2.7-1.6,4.1c0.1-1.4,5.7,1,4.2,2.3
		c-2.8-4.1-3.2,5.3-2.7,6.7c1.6,3.8,4.9,3.4,1.2,6.4c-2.4,1.9-5.2-0.5-6.8,0.2c-5.4,2.6,1,3.8,0.6,2.5c-0.2,1.9,3.8,0.8,4.6,0.9
		c-2.9,1.9-5.8,3.5-9.4,2.6c-0.4,4.5,3.3,2.9,4.4,3c-0.7-0.1,0.8,3.3,1,3.2c-0.7,0.5-2.1-0.1-2.5,0.2c-2.1,1.7-1.6-2.3-2.9,1
		c-0.4,1.4-5.6,0.1-4.6,3.3c0.3,1,4.7,1.4,4.7,1.2c-0.1,1.7-2,0.9-2.8,0.6c-1.6,3.8,4.2,0.3,5-0.7c2.7,1.4-4.9,3.8-5.2,4.1
		c-4.8,4.6,3.2,1.7,3.2,2c-1.6,1.2-1.6,2,0,2.5c1.8,0.8,1.5,1.2-0.9,1.3c0.7,0.8,6.6-1.5,6.4-0.1c0,0-7.9,4.9-7.2,4.9
		c-1.2,2.1,4,1.7,4.2,1.8c-0.6,2.9-3.3-0.7-5.2,3.1c-2.1,4.1,2.4,5.8-2.8,7.9c-1.2-1.3,1-4.4-1.4-2.4c0.1-1.5-0.8-0.5-1.3-1.6
		c-0.8,0.9-0.7,1.7,0.3,2.3c-0.3,0.2-6.4,3.3-5.1,3.6c-2.2-0.2-1.3-2.5-4.3-1.3c4.1,4.8-4.1,4.5-5.8,5.2c0.8,1.9,1.7,6.9,3.5,7.9
		c1.1,0.5,7.2-0.5,7.3-2.1c1.5,0.9-7.2,4.1-2.7,3.7c0.1,0.2-3.1,0.3-3.3,0.5c-0.3,0.5,2,0.9,2.2,1c0.1-0.4-3.4,3-0.6,3.2
		c0.7,0.1,0.8-4.9,2.2-3.7c3.4,0.3-1.5,3.8-1.8,3.9c0.9,0.3,1.6,0.9,2.1,1.8c0.1-1.4-6.4,0.9-3.3,2.3c-0.9-0.5-1.9-0.6-2.8-0.3
		c-0.2,0.5,0,3-0.2,3.3c-0.3,0.7-5.6,0.2-1.9,4.8c-1-1-1.9-1-2.9,0.1c1.5,0.4,4.9-0.6,4.6-0.6c-0.1,0-1.1,4.8-0.9,5.4
		c-1.2,0-3.9-2.4-4.8-3.3c-0.4-0.4,1.2,6.7,1.9,5.3c-1.8,3.1-4.9-0.9-4.7,4.8c0.1,5.1,1.6-0.2,3-0.4c1-0.2,7.2,11.6,5.7,3.5
		c-0.2,1.7,5.3,3.5,1,5.1c1.8-0.7,6.6,8.3,7.9,2.2c0.4-1.8-5.7-5.1-3.2-8.9c0.5-0.7,5.9,5,7.8,3.1c-2.8,1.1-2.5,2.5-3.1,6.3
		c-0.1,1.1-1.5,7.6,0.8,7.6c-0.8-1.1-1.5-1.2-2-0.2c-1.1,0.8-0.7,1.3,1,1.7c-0.6,2.5-2,3.7,0.3,7.1c0,0,3.8,5,4.6,2.7
		c-1.2,0.6-2.4,0.8-3.6,0.5c-2.1,3.8,10.6,1,8.3,6.9c-0.3,0.9-3.4-0.2-3.6-0.3c-0.2-0.1,0.2,3.7,0.2,3.7c-8-1.8,0.7-1.1-2.5,1.8
		c-1.1,1,1.8,4.9-2.1,2.1c-1.2,2.2,1.7,2.9,1.3,4.8c0.4-2.3-1.3,4.4-1.5,2.6c0.2,2.4-2.3,1.5,1.4,2.5c2.1,0.6,12.7-3.8,9.2-5.1
		c3.4-1.5,0.7,2.4,2.1,2.6c1.7,0.3,3.2-1.8,4.7-1.3c2.1,0.7,6.2,7.9,1.8,6.4c0.5-0.5,0.6-1,0.3-1.4c-1.5-0.7-7.3,3-8.1,4.4
		c0.2-0.4,3.4,5.6,3.6,5.8c2.3,2.5,5.2,3.6,8.8,3.7c0.7,0-1.6,1.8-0.4,2.1c0.9-0.4,1.5-1.1,1.7-2.2c-0.5,3.9,6,2,4.3-2.3
		c0.8,2.5,1.8,6.2,4.6,2.6c0,8-1.1,9.5-9.1,9.5c8.2,1.4,8.2,2.9,7.5,10.9c-2-0.7-4-1.3-6-2c2.8,1.4,5,2.6,5.8,5.7
		c0.9,3.2,0.2,8.4-3,6.9c5.5,4.1,2.1,19.3,1.4,24.6c-1.5,12-2.9,24-4.3,36.1c-4.1,35.5-7.6,70.9-10.9,106.4
		c-6.6-1-11.7-5.7-18.5-6.5c-7.8-0.9-13.6,2.5-21,3.4c-6.8,0.8-12-3.1-17.9-5.7c-5.3-2.3-8.9-2.2-14.5-1.4
		c-3.3,0.5-10.5,2.6-13.6,0.3c-2.9-2.1-2.2-6.8-2.2-10c0.3-13.3,0.8-26.4,0.7-39.8c-0.3-37-0.6-74-1.2-110.9
		c-0.2-16.8,0.1-33.7-1.8-50.5c-1.8-16,10.3-15,20.5-23.1c-4.6,2.2-13.7,9.8-19.1,8c-3.4-1.2-3.4-5.3-1.8-8.3
		c1.7-3.3,6.2-3.4,6.9-7.4c0.8-5-2.7-2.6-4.7-5.9c-0.2-0.3,0.1-7.9,0.3-8.7c0.3-1.8,0.4-3.7,1.5-5.3c2.5-3.7,9-5.7,12.7-7.8
		c5.6-3.2,11.6-6.4,15.4-11.8c-9.2,7.8-20.4,15.8-32.3,18.8c0.9-0.5-0.4-6.3-0.2-7.6c0.5-3.3,2.3-7,4.5-9.5c2.3-2.7,3.7-3.5,7-3.3
		c0.8,0.1,7.4,2.4,6.6,3.4c-0.3-4.1,11.9-0.2,3-7.5c0.1,0.1,5.9-2,6-2.6c-0.7,3.6,3.2,4.2,5.2,5.8c4.1,3.2,2.5,2.6,3.3,7.5
		c0.5,3.1,2.5,3.4,0.7,7c-0.6,1.3-5.7,4.1-5.6,4.9c0.1,3.9,13.5,0.7,15.2,0c3.9-1.7,8-7,2.4-6.7c1.2-1.6,4.3-1.4,7.3-3.9
		c1.4-1.2,6.5-4.9,6.5-7.1c-3-0.6-6.2-0.7-9.1,0c-1.6,0.4-3.6,3.2-5.5,2.2c-0.9-0.5,2.5-3.1,2.2-4c0.1,0.5-4.7-2.6-4.5-2.6
		c-1.9,0-1.1,4.4-2.6,4.4c-0.1,0-3-1-3.5-1.2c1.3,0.4,9.6-7.5,10.9-8.5c1.5-1.2,0.6,2.5,2.5-2.1c0.2-0.4-0.2-7.4-0.3-7.4
		c-0.7,0.9-4.7,2.5-5.5,1.4c-0.7-1,1.3-7.3-0.3-7.4c-1.1-0.1-1.6,3.1-2.9,2.1c-0.6-0.4,0.4-2.7-0.2-3c-0.8-0.4-4-1.1-5.2-1.2
		c-5.1-0.5-7.3,3.9-11.2,3.7c-9.1-0.7,0.6-11.7-1.6-14.1c-0.5,0.5-1.1,0.9-1.7,1.3c-0.6,0.2,0.5-4.5,0.3-5.3c-0.6-2-4.9-5-6.6-6.2
		c3.3-2.6,3.4,3.2,5.4,3.5c0,0,6.1-2.3,6.2-2.4c0.5-0.4-1.7-5-2.4-5.1c2.4,0.6,3,3.9,5.5,2.7c2.6-1.2,1.2-6.2,1.1-8.4
		c0-1.7,0.7-15.1-4.1-12.9c1.7-0.8-0.8-18.2,2.7-21.8c-3.1-1.5-5.1,0.8-7.8,0.6c-3.6-0.2-3.6-1.5-6.2-3.4c-0.8-0.6-5.5-3.2-4.9-2.5
		c-2-2-0.3-7.2-4.2-4.4c-0.8-1.2,1.2-3.9-1.7-3.6c-0.6,0.1-0.5,2.4-0.6,2.4c-2.8-0.9-0.5-0.8-1.2-4.7c-1-5.5-2.5-2.4-6.4-2.2
		c-0.4,1.9-1.1,2.2-2.1,1.1c-1-0.4-1.6-1.2-1.8-2.3c-1.2-1.4,0.1-3.7-2-5c-1-0.6-12,2.3-13.4,2.5c-2.9,0.4-5.2-0.2-8-0.1
		c-6.9,0.1-0.2-0.1-0.8,3.1c-1,1.3-3.9,2.1-0.1,3.5c-0.9-0.9-8.5-0.5-8.8,0.2c-0.7,1.6,5.2,4.3,5.5,2c-1.8,1.3-1.8,2.2,0,2.8
		c2,0.8,1.7,1.3-1,1.4c1.9,2.3,4.1-1.5,6.3-1c2.7,0.6-2.2,3.5,2.3,4.7c-1.2,2.7-7.3-2.3-8.1,4.1c0.8-3.1,7.6-0.6,6.8,2
		c-0.6,1.9-4.9-1.3-5.8-1.1c-3,0.4-2.4,0.1-3.5,4c-0.7,2.5-0.1,3.6-1.3,5.8c-1.1,2.1-6.1,1.7-1,4.3c-3,1.6-3.4,2.7-0.3,4.7
		c-3.6,2.7-5.5,4.1-1.9,5.9c1.2,0.6,4.1-0.4,5,0.6c1.8,2-1.2,4.6-0.6,6.8c6.2-3.6,12.9-2.3,19.2-4.8c-5.5,2.2-10.1,4.5-15.4,6.2
		c-11.5,3.7,1.8,6.4-2.8,10.9c1.6-2.3-7.4-2.5-8.5-2.4c-1.8,0.2-4.2,1.5-5,1.8c-0.3,0.1-0.2,1.5-0.7,1.7c-0.9,0.4-3-0.7-3.4-0.4
		c-2.6,2.7,3.9,4.8-0.8,6.6c-1,0.4-9.2-2.3-9.2-2.8c0,1.1,2.1,6.3,2.4,5.8c-1.5,2.6-4-0.3-5.3,3.5c-0.2,0.5-0.3,3.6-0.1,3.7
		c1.8,1.9,2-1.1,2.4-0.9c-0.1,0,0.7-1.5,1.7-1.1c1,0.4,1.8,3.2,2.5,3.9c0.9,0.9,1.4,2.9,2.9,2.9c2.2,0-0.5-2.8,0.5-3.7
		c0.6-0.5,2.2,7.8,1.4,7.6c-0.3-0.1,6.9,5,8,2.1c1-2.5-6-6.8-3.2-11c0.6-0.8,6.6,5.6,8.8,3.4c-3.5,1.4-1.4-1.1-2.4,2
		c-0.5,1.6-0.7,3.8-1,5.5c-0.1,1.1-1.6,8.1,0.8,8.1c-0.9-1.3-1.6-1.3-2.2-0.2c-1.2,0.8-0.8,1.5,1.1,1.9c-0.2,0.7-1.8,0.5-1.7,1.3
		c0.2,1.9,0.8,3.6,1.6,5.4c0.7,1.6,0.6,2.6,1.4,3.6c0.3,0.4,4.2,0.4,4.1,0.7c-0.4,2.1-3.3-0.6-4.1,0.6c-2.1,3.8,5.6,2.6,5,2.3
		c3.2,1.8,5.9,9.5,0.4,5.3c-0.3-0.3-0.1,4.1,0,4c-1.1-0.3-2.1-0.8-3-1.5c0,2,1.8,8.7-2.1,5.9c-1.3,2.3,1.9,3.4,1.5,5.4
		c0.1-0.3-2.5,4.6-2.6,4.1c0.4,2.2,1.5,1.5,3.7,1.6c1.7,0.1,13.4-4.1,9.2-5.7c3.4-1.6,1,2.6,2.4,2.9c2.4,0.6,2.9-1.8,4.9-1.5
		c2.5,0.3,3.9,2.5,4.7,5c0.4,1.1-1.6,3.3-2.4,2c0.2-0.7,0.7-1.2,1.5-1.4c-2.2,0.7-7.1,3.1-8.2,4.7c-0.4,0.6-2,0.2-1.7,2.1
		c0.4,2.3,2.6,0.1,3.6,1.1c2.3,2.2,6.7,10.4,10.4,8.1c-1.1,0.3-1.3,0.9-0.8,1.8c1-0.5,1.7-1.3,2-2.4c-0.6,4.4,6.7,2.2,4.8-2.6
		c1,3,2.1,6.9,5.1,2.9c0,9.4-0.6,10.7-10.2,10.7c9.6,1.6,9.9,3.6,10.5,12.9c-3-1-5.9-2-8.9-3c4.5,2.3,8.3,3.8,9.4,9.4
		c1,5.4-1.2,6.4-6.2,4.8c9.7,7.3,8.4,23.3,8,33.9c-0.7,15.4-0.5,30.6-0.3,46c0.6,40.1,0.6,80.3,0.7,120.5
		c-15.7-2.1-33.9-9.3-47-18.1c-5.7-3.8-11-8.4-17.2-11.6c-6.2-3.2-13.1-4.3-19.2-7.8c-13.1-7.5-25.4-15.2-40.5-18.3
		c-4.8-1-15.3,1.1-19.1-2.6c-3.1-3-1.5-9.4-1.5-13.5c0.1-36.4,0.4-72.9,0.3-109.3c0-12-0.2-23.8-1.1-35.7
		c-0.4-5.4-3.5-22.6,2.4-26.3c-4.6,0.8-1.2-2.5,1.1-2.5c-1.1,1.4-1.1,2.4,0.1,2.9c4.2-1.3-0.9-4.9,4.3-4.2c-0.3-0.4-0.3-0.8,0-1.3
		c0.3,0.8,0.1,1.4-0.6,2c-1-0.8,5,1,4.4,1.6c0.2-0.3-2-2.2-1.9-3.3c0.2-2.4,0.6-4.9,1.6-7.2c0.8,2.9,0.1,0.9,1-0.3
		c0.2-0.2,1.8,3,1,3c0.3,0,0.4-2.9,0.4,0c1,0.1,2.9,1.7,2.9,3.4c-1.3,2.3-0.7,2.9,1.8,1.8c-1.1-0.4,0.3-2-0.8-2.8
		c0.3,0.2,4.5,1.5,4.5,2.1c-0.2-0.7,0.3-0.5,0.5-1.3c0.5,0.3,0.8,3.2,1.6,3.1c1.1-0.1,0.9-0.8,1.7-0.4c2.1,0-3.5-6.8-2.9-7.4
		c-0.4,2.8-2.4-1.7-2.5-1.6c0.5-0.5,2.5,0,2.7,0.2c-2.3-2.3-4-1.8-2.4-3.6c-0.6,0-1.3,0-1.9-0.2c0.3-0.7,0.1-1.8,0.4-2.3
		c0,0.1,0.2,1.3,0.2,0.4c0.2-0.1-3,2.1-2.5-0.7c-1.1,5.3-10.7-5.4-6.7-7.4c0.6-0.3,4.6,7,4.5,6.8c-1.4,0,2.3-2.4,0.9-0.4
		c-0.2-0.5,0.1-0.8,0.7-0.8c0-0.6-2.7-0.8-2.5-1.3c0.6-1.2,2.2-1.2,3-2.1c-0.3,0,2.5,3.2,3.5,3.6c6.8,2.4,0.4-0.9,3.1-0.9
		c0.8,3,3.9-0.1,2.8-2.6c-1.6-3.4-2.9-0.4-4.9-1.5c-3.5-1.9-2.1-0.1-2.2-3.3c-0.1-1.6,0.4-1.5,1.6-1.3c0.1-0.8,0.2-1.7,0.2-2.5
		c0.1,0.1-2.4,1.1-2.3,0.9c0.1,0.1-2.9-1.9-2.9-3.1c-2-1.4-1.1,2.3-1.2-2.1c0-0.7,0.5-5.7,0.7-6.3c0.8-0.2,1.5-0.3,2.3-0.1
		c-0.2,0-2.3,1.1-2.2,1.9c0.1,0.8,3.6-1.8,4-2.1c0.1-0.1,0.1,3.9,0.7,4.2c0.9,0.5,2.5-3.9,2.3-4.6c0,0-0.2,1,0.2,1
		c-6.4-2.8,4.1-1.8,1.8-0.1c1.5-1.1-0.3-2.1,0.2-2.9c-0.9,1.8,4.5-0.7,2.1-0.7c0.9-0.2,5.8,0.8,6.3-0.4c0.6-1.4-1.6-0.6-2-0.8
		c-1.6-1.3,4.6-4.8-2.4-1c4.2-4.8-0.1-2.6-0.1-3.8c-0.1-1.1-0.1-2.3-0.2-3.4c-1.2,0.3-4.7,1.2-5.6,0c-0.5-0.7,2.5-0.8,2.6-1
		c0.4-0.6-4.3-2.1-2.6-0.4c-0.8-0.2-1.6-0.4-2.4-0.7c2.4-0.1-4.4-1.2-5.5-1.1c-0.1,0-2.4-2-2.8-2.2c-0.5,0.6-0.6,1.3-0.4,2.1
		c-3.8,0-7.3-4.7-8.2-8c1.7,2,0.3,0,0.9-0.2c0.5-0.5,1.2,2.4,1.2,2.4c-0.2-0.4,3.3-0.7,3.5-0.6c0,0-0.2-2.6-0.4-2.6
		c0.7,0.4,1.4,0.7,2.2,0.9c-0.5,1-0.5-4.2-0.5-2c0.1-0.6-4.3-1.8-4.8-2.4c-0.1-0.7,0.3-1,1.3-0.8c1,0-1.3-3.9-0.8-5.1
		c1.1,0.8,10.7,17.7,12.5,15.6c0.4-0.5,0.6-1.6-0.2-1.9c2.2,0.7,4.8,2.4,3.3,4.4c-0.5,0.7,2.5,0.4,3.1,0.7c-1.3-2,1.6-1.4,2.6,0.2
		c0.8-0.8,2.4-1.8,2.4-3c-0.8-0.1-1.6-0.2-2.4-0.4c3.9-2.2-4,0.2-3.8-0.6c-0.1,0.4,9.6-4.6,5.7-4.6c1.2-0.1,0.3-1.5-2.4,0.8
		c2.9-2.4-4.2-1.7-3.5-1.4c0.1-1.7-0.7-4.5,2.4-3.3c-1.5,1.5-3.5-4.8-2.9-3.9c-0.8,0.6,10.5,7.4,6.3,3.5c0,2.4,4.4-1.4,3.6-3
		c-0.6-1.3-2.9,1.7-3.6,0.7c-0.2-0.5,0.6-3,1-3.3c-0.2,0.1-2.8,1.2-2.7,0.9c0.5-0.8,1.1-1.6,1.8-2.3c-0.5,1.4-4.8-0.6-2.1-0.9
		c0-1.9-5.7,0-6.2-0.7c-0.1-1.3,1.7-1.6,2.8-1.9c0-0.5-2.6-0.3-2.9-0.5c0.5,0.5,9,0.2,3,0.2c0,1.1,3.5-1.8,3.6-2.8
		c-0.5-0.3-0.6-0.1-0.5,0.5c-0.2-0.5,0.1-2,0-2.2c-0.6-1.5-12.2-0.1-11.5-1.6c0.3-0.3,2,0.4,2,0.3c0.7-3.2,2.4-0.5,5.7-1.1
		c0.5-0.1,4.4,0.1,3.8-1.6c-0.6-1.3-2.8-5-4-4.9c0.1-0.8,0.2-1.5,0.1-2.3c-1,0.9-2.1,1.4-3.4,1.5c-0.9-0.4,4.8-4.1-0.8-4.8
		c-3-0.3-3.9,2.3-7,0.5c2.2-1.1,2.9-0.6,1.2-2.5c0.6-0.4,1.3-0.7,2-0.9c0,0-3.8-0.5-4.2,0.7c1.5-4.4-9.4-2.8-8.8-4.2
		c1-2.4,9.9,2.1,10.8,1.4c-1.6-1.6,0.5-0.5-0.2-2.4c-0.6-1.6-2.7,0.2-2.9-0.2c0.3-0.6,0.2-1.1-0.2-1.6c-0.4,0.1-1.8,1.8-2.2,0.6
		c0.9-0.5,10.3,0.8,10.6,1.2c0.1-0.7-0.2-1.1-0.9-1.2c8.5-0.5-4-3.5-3.8-3.2c-1.5-1.9,4.5-1.2,4.6-1.3c-1.9-1.1-1.8-1.7,0.5-1.8
		c-0.2,1.2-8-4.9-8-4.4c0.2-0.6,0.4-1.3,0.5-2c0.4,0.4,2.8,3.5,3.6,1.8c-1.7-2.8,6.5-4.7,6.5-5c0.9-2.4-9.1-2.3-6.9-3.6
		c0.2-0.1-3.3,1.7-4.7,1.2c-3.9-1.3,1.1-2.4-1-4.5c-2.5-2.5-5.1,2.7-5.8-1.8c-1-0.5-2.4,1.7-2.9,2.2c-0.3-4.1-2.7-0.1-4.5,0.2
		c-2.5,0.4-0.6-5.8-1.1-6.3c-0.8-0.8-2.7,1.6-2.4,2.3c-0.4-0.5-2.2-4.4-2.3-4.4c-0.6,0.5-1.1,1.1-1.5,1.8c0.1-0.1-1.2-2.5,1.1-3.2
		c2.3-0.8,4.8,0.3,7.1,0.2c1.7-0.1,8.2-2.6,7.7-2.8c0.5,5.3,3.7-2.6,6.1-3.2c-0.9-0.9-1.9-1.3-3.1-1c0,0.1,1.4-3.6,0.2-3.3
		c-0.4,0.3-3.5,2.5-4,1.6c-0.1-0.4,2.1-3.5,2.2-3.4c-7.2,3.1-2.4-5.8-2.7-9.9c-0.6,1-2.7,1.1-3.5,0.7c-3.6-1.6,6-2.3-2.5-2.2
		c0.2,0.5,5.6-9.1,3.3-9.3c-4.9,1.2,0.5-2.2-1.1-3.8c-0.7-0.9-3.2,1.8-3.8,1.8c0.9-2.3-0.1-3-2.9-2.3c6.7-2.6-1-3.4-1.6-6.7
		c0,0.1-1.3,3.9-1.1,3.8c-1.1-0.3-1.6-1-1.6-2.2c-1.6,2.1-4.6,2.5-7.1,2.3c-4.1-0.4-2.8-1.5-5-3.5c0,3.1-1.1-4.3-0.7-3.8
		c1.2,1.9-2.8-0.7-2-0.7c-1.4,3-0.4,1.2-1.5-1c1.3,2.6-2,0.3-1.7,0.5c0.4,1.2,0.8,2.3,1.4,3.4c-0.5,0.8-2.9-0.9-2.7,0.7
		c0.6,0.7,1.4,1.2,2.3,1.5c-1.2,1.2-3.2-0.9-3.6-0.6c0.1-0.1-2.1,1.2-2,1.1c-0.4,0.3,0.8,2.3,0.6,2.8c-0.4,1.1-3.2,0.4-3.7,1.1
		c1.1,0.7,1.2,1.3,0.4,1.9c-0.5,0.2-0.8-1.9-1.1-1.7c-2.1,2,1.2,3.2-2.7,2.6c1.2,1.9,0.6,2.3-1.8,1.4c0-0.1,5.3,2.3,4.9,2.7
		c0,0-3,0.3-3.1,0.2c3,1.4-2.8,2.4-1.7,0.2c-0.5,1,1.7,4.6,1.4,4.7c-0.4-0.2-3.8-1.8-4-1.6c-2.1,3.1,7.2,11,3.2,10.4
		c3,3.9-6,1.2-2.7,3.4c-2-1.7-3.1-1.3-3.2,1.1c-0.2-5.8-4.1,3.1-7,0.5c1.7,2.4,1.2,3.1-1.4,2.2c5,1.6,0.7,1,0.4,1
		c-0.6,0,0.1,1.5,0.1,1.5c0.5,1.5-5.2,0.2,1.7,1.6c-1.9,4.2,3.1,0.9,3.1,3.1c-2.8,1.1-0.3,1.8,0.8,2c0.7,0.1,1.3-1.8,1.8-1.7
		c1.2,0,4.3,0.2,5.8,1.7c0.1,0.1-4.4,4.4-4.9,4.6c-1.3,0.4-2.2-2.3-3.7-1.7c0.4-0.2,4.3,9.2-1.4,3.5c3.6,3.6,2.9,6.2,4.7,10.6
		c-2.2,0.4-6.2-2.6-6.3,1c0,1.8,4.6,3.8,6.2,4c2.4,0.2,4.4-2,6.9-1.4c-0.5-0.1,7.1,6,7.1,5.1c-4.7,3.1-6.1-5.8-9-3.4
		c-1.1,0.9-0.1,7.9,1.6,7.4c-0.2,0.1-4.7-2-5.7-2c-6.8,0.2,0.9,2.4-1.9,4.7c-0.5,0.4-0.6-2-0.8-2c0.3,0-2,1.4-2,1.4
		c-0.1-0.2,0.8,4.8-0.9,3.4c3.7-1,2,2.7,1.5,4.8c1-0.7,2-0.7,3,0.1c-2.8,1.3-2.9,2.4-0.2,3.2c-6.8-0.1,1,6.4,0.1,7.8
		c0.5,0,0.9,0.3,1.1,0.8c-2.1-4.8-3.5,5.4-2.5,4c-1.4,1.9-12.1,2.6-5.8,3.6c0,0-4.2,1.2-4,1.4c4-1.4,2.2,1.7,3.8,3.2
		c-3,3-5.7-1.1-7.4,0.5c-0.3,2.4,2.4,4-3.1,0.5c1.3,2.1-1.8,0.4-2.3-0.2c0.6,0.6-2.8-0.3-3.1,1.4c0.3-1.2,2.2,2.3,2,2.2
		c2.7,2.1,9.6,0,12.6,2.5c-0.6-0.5,3.8,6.4,3.7,5.9c1.6,6.9-1.6-0.3-2.1,2.8c-0.2,1.4,2.5,1,0.9,2.5c-3.6-3.8-7-7.8-10.2-11.9
		c0.8,1.3,19.3,26.1,17.6,26.5c-0.7,0-1.8-2.6-3.2-2c-2.5,1.1,6,3.7,6.2,3.8c3.2,1.7,2.8,2.5,5.7,4c2.4,1.3,4.3-0.4,6,0.2
		c2.5,0.9,4.6,4.5,6.2,6.4c-1.7,0.1-2-2.5-4-1.8c-1.8,0,1.6,1.1-3.3,0.5c-3-0.4-5.1-2.5-8.6-2.5c3.8,0.5,11.9,5.3,13.1,6.8
		c0.8,1,3.2-0.3,3.2-0.3c-1,2,1.8,1.9,2.8,1.6c0.4,4.9-12.8-0.8-14.5-2.1c2.9,3.6,14.8,3.4,14.8,8.6c-3.8-2.1-8.6-2.2-12.8-2
		c8.8,1.4,12.5,3.1,13.3,12.3c-6.7-1.9-13.3-4.5-19.1-8.5c3.3,4.5,8.5,4.9,13.1,7.1c6.6,3.1,6,6.5,6.5,13.2
		c-4.9-4.4-9.6-15.4-17.7-14.4c11.5,4,16.8,16.6,17.5,27.9c-13.5-4.5-25.6-11.9-37.5-19.5c9.9,7.3,19.6,14.2,30.7,19.4
		c3.4,1.6,5.9,1.8,7.3,5.9c1.1,3,0.5,9.4-4.3,8.6c7.6,5.1,3.8,19.6,3.8,27c-9.1-1.3-17.2-5.4-25-9.9c3.7,3,7.5,6.6,12,8.4
		c2.8,1.1,6.3,0.9,8.9,2.3c2.9,1.6,8.7,13.5,2.4,12c4,5.6,2,13.7,1.6,20c-0.6,9.2-0.5,18.5-0.7,27.7c-0.4,20-0.1,40-0.1,60
		c-8.2-7-17.9-10.7-28.1-13.6c-11.3-3.2-23-9.5-34.9-9.9c-20.3-0.7-26.4,15.5-31.7,32.1c0.3-37.1-0.5-74-0.9-111.1
		c-0.1-10.9-0.6-21.7-1-32.6c-0.2-6.2-2.1-22.2,4.4-26.3c-6.2,1.4-2.9-19.2-2.8-21.9c5.4,1.1,10.8,2.3,16.2,3.4
		c-9.9-3.4-15.1-3.5-16.2-15c5,0.4,10,0.7,15,1.1c-3.3-0.6-10.3,0.6-12.9-1.7c-4.8-4.3,3.1-4.4,0.3-6.6c3.1-0.5,9.4-3.6,9.8,0.5
		c-1.7-2.3-4.9-0.2-4.9,1.2c-0.2,0-0.4-0.1-0.6-0.3c-1.1,0.3,3.7,3,4.1,1.6c-2.9,2.3,3.6,2.1,4.4,2.1c1.1,0.1,2.3,0,3.4,0.1
		c2.8,0.3,0.8-0.5,0.7,0c0.8,0.5,5.1-0.1,7.4,0.2c1.7,0.2,3.9,0.9,5.6,0.4c2.9-0.8,1.9-0.3,0.5-1.4c1.2-3.6,9.7-3.4,1.4-5.4
		c0-1.2,8.8-2.4,8.4-3.2c0.6-0.4,1.3-0.9,1.8-1.4c0.1,0.1,1,4.5,1.5,4.1c-1.1-0.6-3.8-1.2-4.6,0.4c2-2,6.3,4.2,8.7-0.1
		c0.9-1.7-0.8-4-2-5.2c1.5-1,5.6,1.1,5.1,3.1c-0.9-3.2,0.8-0.7,1.5-2.1c-1.2,1.8,7.6-3.2,8.7-4.3c0.7-0.8,3.4-2.7,2.6-4.2
		c-1.8-3.1-3,1.6-4.5-2.4c-0.2-0.2-2,0.9-2.4,0.5c0,0-2.1-3.1-1.8-2.8c-2-1.5-0.3-2-3.8-2.8c3.4,0.9,5.8-11.2,5.7-11.2
		c-0.6-0.2-7.3-2.2-7.1-2.5c0.5-1,4.3-0.3,3.1-2.8c-0.7-1.5-3.5,0.9-4.7,0.4c0.2,0.1,0.6-2.5,0.9-2.3c-4.2,3.7,0.7-3.1-0.4-3.7
		c-10,0.8,0.5,0.1-3-2.2c-0.6-0.6-2.1,1.6-2.2,1.5c-1.3-4.4-2.1-7.3-4.9-9.7c-1.7-1.5-6.9-2.7-6.3-6.9c-2,1.6,0.3-1.1,1.5-2
		c2.4-1.6,5.3-0.8,4.6-4.1c-0.2-0.7-3-2.9-3.6-3.4c-0.7-0.8-0.3-1.6-0.7-2.5c-0.3-0.8-1.2,0.9-1.5,0.5c-1.7-1.6,2.2-2.7,1.1-3.8
		c-0.5-0.5-4,1-4-0.4c0-3.1-0.2-0.7-3.1-1.7c0.3,0.1,0.5-4.1,3-2.9c-0.8,0.1-0.8,0.3-0.2,0.7c1.1,0.3,4.8-2.4,5.3-3.3
		c0.5-0.8-3.9-2.5-2.1-0.9c-6.1,0.6-0.2-1.3,1.8-2c-1.3,0,2.7-2.2,2.7-2.2c-1.5-0.7-4.8-7-1.5-7c-0.2-0.1-4-3.5-3.8-2.8
		c0.2,0.4,0.5,0.7,0.9,0.9c0-0.1-5.1-5.6-6.6-4.1c-0.8-0.6,2.2-2.3,2.2-2.6c0,0.5-0.2-2.8,0.1-2.7c-0.4,0.3-0.9,0.5-1.4,0.7
		c-0.4,0.2,1.6-5.5,0.4-5.7c-0.4,0.3-0.8,0.5-1.3,0.8c0.5-3.5-0.2-1.6-1.7-3.9c-0.5-0.8,0-2-0.7-2.9c-0.7-0.8-3.3-1.7-4.2-2.1
		c-1.4-0.7-4.2-3-6-0.6c0.9-1.1-1.8-0.8-2.1-0.7c-0.1-0.1-0.2-6.3-1.4-5.5c-0.2,4.4-2.5-1.8-2.6-2.8c-1.1,1.3-1.7,0.4-1.6,0.5
		c2.2,3.3-2.6,0.6-2.8,0.6c-1.5,1.3-5.2,3.9-4.9,0.2c0.3,0.3-1.9,0.5-1.1-0.4c-0.5,2-3.8,2.6-3.5,4.7c-0.2-1-7.3-2.9-7.5-2.2
		c-0.5,1.8,1.5,2.5-1.3,1.3c0,0.9,0,1.7,0,2.6c-1.9-1.9-2.2,0.6-4.6,0.6c-0.6,0.1,0.4,4.7-0.1,4.9c-1,0.6-1.3-1.4-1-1.7
		c-0.5,0.8-0.9,0.7-1.2-0.2c-0.1,0.2-4.8,7.3-4.8,3.6c1,5.5-0.6-1.3-0.9,2.3c-1.5,0.3-1.7-3.2-2.1-3c-0.7,0.5-2.6,2.2-3,2.6
		c-0.9,0.8-2.6,2.5-3.2,3.5c-1.7,2.8-2.8,2.4,0,6.1c-0.7-0.2-1.3-0.6-1.8-1.1c-2,2,3.7,3.3,1.4,5c0,0,5.6,2.6,5.7,1.8
		c0,0.6-2.1,0.6-2,0.9c1,1.9,6.4-0.2,8.1,0.1c-2-3.4,2.2,0.8,2.3,0.8c0.7,0.2,4.1,2.5,4.3,1.8c-0.9,2.9,4.8,3.2,5.2,2.4
		c-0.2,0.5-6.2,3.8-6.2,3.7c0.1,0.5,4,0.1,3.2,0.5c0.2-0.4,0.6-0.9,0.9-1.2c0.6-0.3,1.8,2.8,2,2.4c-0.5,1.5-5.5,1.9-4.5-0.8
		c-1.3,1.2-3.6,1.4-4.4,3.1c1.1-1.8-1-7.9,0.3-8.1c-1.7,0.2-4,0-6.8,0.6c0.4,0.3,0.8,0.6,1.3,0.7c-1.2,1.6-2.4,0.4-3.6-0.2
		c0.6,0-1.5,2.5-1.5,2c0.1-0.2,3.3,2,3.4,2.1c0,0-3.3,0-3.2-0.2c0.7,0.9,1.6,1.5,2.7,1.6c-0.4,4.3,4-1.7,6.2-0.2
		c-0.5,0.5-0.9,0.9-1.3,1.4c-0.2,0.3,0.9-0.2,1.1,0.1c0.4,0.7-3.1,1.6-3.4,1.9c1-1.2,1.3,6.6,0.7,7.9c-2.1-2.1-1.6,3.1-3.4-1.4
		c-0.4,0.3-0.6,0.7-0.5,1.2c-0.4-0.3-3.3-2.7-3.3-2.7c0.1,0.3,0,0.6-0.2,0.9c-0.5-1.2-0.2-0.6,0.8,1.8c0.3-0.6-5.3,0.5-3.1,2
		c-0.7-0.4-1.4-0.9-2-1.4c-0.2,2.3,2.8,3.9,2.7,5.7c-0.3,3.6-1.8,1.2-2.8,3.4c-0.4,0.8-0.7,8.9-4.5,7.1c-1,2.4,5,2.5,6.1,2.9
		c0.3,0.1-2,0.9-2.3,0.9c-1.8-0.3-3.1-2.3-5.1-2.3c3.3,4.8,0,0.3,1.6,3.5c0.3,0.5-6.1-0.7-6.5-0.6c-0.6,0.2,0.4,1.4,0.4,1.4
		c-2.7-0.1-0.3,3.2,1.5,4.5c-2.7-1.9-6.5,1.4-8.5-1.5c-0.5,3.9-1.9-0.6-2.8-0.1c-0.4,0.4,3.4,1.6,3.7-0.2c-2.3-0.6-2.5-1.3-0.6-2
		c-2.4-0.2-2.6-0.8-0.8-1.7c-6.5,0.6,2.4-4.2,2.4-4.1c-0.4-0.7-0.6-1.4-0.6-2.2c1.5,1.2,8.2-1.5,8-3.4c0,0.2-5.5-2.8-6-2.9
		c0.4,0.1-4.3,1.6-5.1,1.6c-0.4,0,0.7-3,0.3-3.3c-2.5-2.1-4,2.6-4.8-1c-1,0.4-1.7,1-2.2,2c-0.5-3.2-2.2,0.1-3.7,0.5
		c-2.1,0.5-0.9-4.6-1.4-5.1c-1.2,0.2-1.8,0.8-1.8,2c-0.4-0.3-2.1-3.4-2.2-3.4c-0.2,0-1.2,2.4-1.7,1.3c0-0.1,6.7-3,7.3-3.2
		c3.2-1.4,4.7-3.3,6.4-0.7c1.8-0.2,3.6-3.3,4.1-4.8c-0.8-0.7-1.6-0.9-2.6-0.6c0-0.1,0.5-2.9-0.1-2.7c-0.1,0.1-2.6,2.5-3.1,1.6
		c-0.1-0.3,1.6-2.9,1.5-3c-6.8,3.7-0.6-5.9-3-7.9c-0.4-0.4-1.8,1.5-2.7,0.9c-2.8-1.5,4-2.4-2.2-1.7c0.6-1.5,1.5-2.7,2.6-3.8
		c-1.2-0.6-0.3-5.4-2.1-3.4c-0.9-0.7,0.9-3.1,0.2-3.7c-1.2,0.3-2.1,0.9-3,1.8c0.5,0.1-2-3.9-2.5-1.7c0.2-0.1,2.7-2.1,2.3-2.3
		c-1-0.4-3.8-1.9-4.1-3c0,0-0.8,3.3-0.6,3.2c-0.9-2.1-1.9-2.2-3-0.2c-1,0.6-2,0.9-3.2,0.9c-3.5,0.5-3.3-0.9-5.3-2.4
		c0.1,1.6-1-2.2-1-2.8c0.1,1.4-2.3-2.4-1.7,1c-1-3.2-1.3-3.3-1.5-0.2c0-0.4-0.3-1.9-1-1.7c2.3,2.1,2,3.3-0.7,3.5
		c0.5,0.5,1.2,0.9,2,1.1c-1.5,1.9-3.3-1.7-4.7-0.1c-0.5,0.6,1.2,2.6,0.8,3.2c-0.5,0.7-2.6,0.6-2.9,1.2c2.5,2.4-2.9,3.4-3.9,3.9
		c0,0.1,4.6,1.3,4.2,1.8c-0.1,0.4-4.4,2-3.9,0.7c-0.3,0.8,1.5,3.5,1.9,3.3c-0.5,0.2-4.1-0.2-3.8-0.6c-1.5,2.8,6.8,8.4,3.4,8.3
		c2.8,3-4.8,1.4-1.9,3c-1.8-1.2-2.6-0.8-2.6,1.1c-0.6-4.4-3.1,2.9-5.7,1c2.6,5.7-4.5-3.7-3.3,2.5c-0.6-0.8-2.9-1.5-3.8-1.4
		c-0.2-0.1,0.1,3.9-0.1,4c-2.6-2-11.2,0.2-10.1,4.7c0.8,3.2,8-2.4,9.3,0.1c-0.7,0.4-3.6,0.3-4,1.1c1.9,2.3-4.4,1,0.6,3.3
		c-0.3,0-5.5-0.3-5.5-0.1c1,0.7,2.1,1.1,3.2,1.4c-1.1,0-1.9,0.5-2.5,1.4c0.8,0.2,8.5,2.7,10.8,0.8c-0.7,0.5-1.3,1-1.9,1.5
		c-1.8-3.8-2.5,1.5-4.4,1.6c-1.9,0-4.1-2.1-6-2.4c-4.2-0.7-6.1,1-7,4.6c0.4-3.2,6.9,1.3,7.8,1.1c-2.5-3.3-1.4,1.3-1.5,1.5
		c-0.6,0-1.2,0.1-1.9,0.2c-1.4-0.1-1.5,0.9-0.2,3c-1.3-2.4-2-2.2-2,0.5c-1.6-1.7-2.5-2-2.6-1c0.2-0.1-2.6,2.8-2.4,1.4
		c0.9,0.8,1.7,1.8,2.4,2.7c-0.6,0.4-4.2-0.4-4.4,0.4c0.4,0.9,1.2,1.5,2.2,1.7c-4.1,2,9.8-0.5,8.7-1.5c-4.6,2,0.8,0.9,0.7,3.3
		c-0.1-0.6-3.9,1.1-0.3,1c1.1,0,16.6-3.4,16.5,1.4c0-0.4-3.2-1.5-3.5-1.3c2.9,8.3-10.9-0.8-10,2.6c-2.5-3.9-3.1,4-4.7-1.1
		c-0.3,0.6-0.8,1-1.4,1.2c0.1,1.1,2.9,1.5,1.3,2.7c-1.7,1.2-1.9,1.3-3.8-1.2c-0.4,0-2.1-0.3-3-0.2c0.2,0.5,1.1,3.6,1.5,3.8
		c-0.8-1.5-1.1,0.2-2,0.1c2.9,1.3,6.6,2.9,8.7,2.7c0.5,0,2.5-5.1,2.3-1.2c0.1,0,9.8-6.2,9.8-6.3c0,0.2-3,2.3-1.4,2.8
		c1.1,0.4,3.1-0.1,3.9,0.3c1,0.5,4.2-0.3,3.9,2.6c-0.1,0.8-2.9-2.7-2.9-1.4c0.3,0.5,0.5,1.1,0.8,1.6c0.1-0.2-4.7-1.4-4.9-1.4
		c-1.5,0.1-0.1,2.7-0.2,2.7c-0.7,0.5-1.5-2.6-2.5-2.2c-1.6,0.6,0.8,1.2-0.5,1.8c-0.5,0.3-3.5-1.9-3.9-1.1c-1.4,2.2,3.7,4.4,5.4,4.4
		c-1.1,2.3-3.7-0.1-5.3,0.4c1.4,4.5-2.6-0.2-0.8,3.4c-0.7-5.1-3.1-1.3-5.3-2.5c-1-0.5-2.3-2.2-3.1-3.3c-1.4,1.8-0.2,0.4-1.7,1.3
		c-0.4,0.2-2.6-1.7-2.2,0.7c0.4,1.9,5.2,1.8,5.3,3.7c-2.3-0.9-2.4,0-0.1,2.8c-0.2,0.2-8.5-7-7.9-2.8c-0.1-0.5-0.5-1.8-1.2-1.7
		c-1.7-0.5,1.2,2.6-1.5,1.7c1.2-0.9,1.2,2.6,1.1,3c-2-1.1-3.5-2.1-4.5-1.8c0.5-0.1,0.7-0.3,0.5-0.7c-4.9,0.6,5.1,4.2,4.9,4.7
		c0,0.1-5.2,1.1-5.5,0.5c3.9,3.5-2.9,1.4-3.8,3.1c0.3-0.4,0.4,3.3,0.1,2.9c-0.9-1-2-1.8-3.1-2.5c1.4,0.7-0.1,3.7,1.3,4.7
		c1,0.7,10.2,0.9,1.7,2c2.1,0.7,4.8,2.1,6.1,2.3c2.7,0.4,3.1-0.5,4.3,1.1c1.5-2.4,4.8,1.5,4.4,2c-0.9,1.1-4.4-0.5-5.5-0.7
		c3.9-0.3-2.2,5.4-1.2,3.7c0.1-0.2-2.1-0.3-2.7,0.5c-0.9,1.2,3,1.6,2,3.2c-0.6,0.7-4.9-0.6-5.6-1.2c0.8,2.3-0.2,2.7-2.8,1.3
		c-0.8,3.4,9.1,2.6,10,2.5c0.2,2-2.3,2.2-3.4,2.2c0.5-0.8,3.5,0.5,4.3,0.1c1.1-0.4,3.6-2.3,4.3-2.4c1.8-0.3,1.5-0.5,3.1-0.3
		c0.4,0,3.4,3,3.2,3.3c-0.5-0.1-4.8-2.4-4.9-0.1c2,2.8-3.5,1.6-4.5,1.8c1.4-0.2-4.1,2.3-2.8,1.8c-0.3,0.1-3.5-1.5-3.5-1.5
		c-0.1,1.6,4.9,6.5,5,5.2c0,0.7-0.4,2.3-0.6,3c0-0.1-3.5-1.4-3.9-1.4c-3.5,0.1,5.7,4.6-3.5,1.5c-1.4,1.2,4.3,3.1,2.8,4.9
		c-0.9,0.8-3-0.6-3.9-1.3c0,0.1,0.9,2.2-0.1,0.6c0.7,0.3,2.7,4.1,3.6,3.7c-1,0.1-2.7,0-3.7-0.3c5,1.2,4,7.2,8.6,4
		c0,0.1,4.1-0.5,4-4.1c0,2.9,0.8-0.4,0.9,1.3c1.4-1.5-0.4-2.2,1.6-2.3c0.5,0,1.5,2,1.5,2.4c-0.4,1.9,2.6-1.7,3.3-1.8
		c2.8-0.6,3-0.8,5.7,1c0.3-0.7,0.8-4.7,2.4-3.3c-0.1-0.1-3.3-1.5-3.2-1.6c0.2-0.9,4.7,1.3,5.4,0.9c1.2-0.9-2.1-4-1.3-4
		c0.3,0,2.7,1.7,2.4,1.9c2-0.7,4.4-5.5,6.3-2.8c1.3,1.8-1.5,4.1-2.4,5.1c-2.2,2.3-7,5.7-9.6,4.4c0.2,3-3.8-0.5-5.1,1
		c0.1,1.4,0.2,1.8,0.3,1.2c-0.6-0.8,0.3,1.8,0.2,1.4c0.2,0.6,2.8-0.2,3,0.3c0.3,0.8-2.7,3.9-1,3.7c-0.6-0.7-4.4-2.5-4.4,0.7
		c-0.1,1.1,2.6,0.2,2.5,2.1c-1.8-0.4-4.3-2.5-6.3-1.7c0.9-0.1-2.2,2.9-0.6,3.2c-2-4,0.4,5.6,3.1,1.4c-0.7,0.8-0.5,1.3,0.6,1.6
		c2,0.5,1.2-3.6,2.1,0.6c0.5-2.7,1.3-2.3,2.4,1.3c0.3-0.4,0.7-0.9,1-1.4c0.7-0.2,2-3.5,1.9-3.5c2,2.1,1.7-0.2,4.2-1.4
		c-0.5,2.2-0.9,2.9-1.4,2c0.2,0.4,0.7,1.5,0.9,1.8c0.1,0.2,1.9-1.6,2-1.7c-0.5,0.4,0.2,3.4,0.2,3.4c2.2-1.5,1-3.2,4-3.9
		c-1.1,0.2-1.8-0.2-2.2-1.3c3.6,0.3,3.9-0.3,0.7-1.8c1.2,0.8,3.9,0.2,1.4-1.4c3.2-0.2-0.6-2.3-0.1-2.4c6.7-0.6,3.9,12.6,2.7,15.8
		c-1.2,3-1.4,3.3-3.9,4.5c-2,0.9-9.6-0.3-6.6,4c-1.8-1.9-2.6,0.9,0.7,2c3.1,1.1,4.7-0.6,8.2,0.8c-2.1-0.4-8.2,0.7-5.1,4.3
		c-0.8-0.9-1.8-1.5-3-2c0.1,0-3.2,4.1-3.5,0.9c-3.6,4.3,14.1,3.8,13.7,3.4c-1.1,1.8-1.3,2.1,0.2,4.3c0.2-1.3,1-2.6,0.9-3.9
		c0.1,1.4,2.5-0.5,3.6-1c2.7-1,6.5-0.8,6.2-5c2.6,1.8,3.2,9.7-1.5,8.9c4,1.2,3.4,4.6,3.7,8c-2.5-1.4-5-2.9-7.5-4.4
		c3.9,3.1,7.3,5.5,9,10.5c0.6,1.6,2.5,8.2-1.6,5.4c4.8,7.2,5,16.9,5.3,25.3c0.3,10.3,0.7,20.6,1.2,30.9c1.2,25.8,3.2,51.5,5.6,77.2
		c2.4,25.7,4.4,51.4,6.6,77c0.6,7.3,4.1,17.6,1.1,24.6c-3.5,8.3-16.7,12.2-24.3,15.6c-10.2,4.6-20.6,8.6-30.8,13.2
		c-8.4,3.7-15.7,9-23.9,12.8c-6.6,3-9.9,9.1-17,10.9c-7,1.7-11.9,2.6-6.2,10.8c3.7,5.3,11.4,5.7,17.3,8c8.2,3.2,10.6,6.2,12.3,14.6
		c4.2,20.9,7.7,40.5,17.8,59.6c5.7,10.9,14.5,26.8,12.4,39.6c-1.4,8.2-8.1,8.7-15.5,8.5c-12.5-0.2-24.9-1-37.5-1
		c4.3-24.4,4.2-48.6,1.8-73.2c-1-9.9-1-36.2-12.3-40.9c3.9,31.3,6.9,62.6,10.1,93.9c-8-3.3-9.4-8.2-9.8-16.8
		c-0.5-10.3-0.1-20.7-0.3-31c-0.2-13.1,3.6-49-13.3-52.8c-2.9-0.6-7.7,0.5-9.7-2.5c-2.4-3.5-0.2-1.1,0.2-4.3
		c1.3-8.9,1.5-17.5-10.1-14c-9.9,3-13.6,2.7-21.7-4.4c-8.3-7.2-19.4-9.8-29.6-13.6c-10.3-3.8-19.4-6.1-28.6-12.4
		c-10-6.9-15.5-10.4-27.7-9.3c-11.2,0.9-14.8-4-23.7-9.7c-10.1-6.4-22-7-33.5-9c-9.3-1.6-18.9-5.4-23.7-14.2c-5-9.1-0.9-23.8,0-33.5
		c2.2-25.2,4.9-50.3,7.8-75.5c3.2-28.6,5.7-57.2,8-85.9c1.1-13.5,0.9-28.3,3.6-41.6c2.4-11.9,15-12.6,25.1-11.7
		c-8.9-1-16.7,1.2-24.6,4.9c0.2-3.8,0.3-7.5,0.5-11.3c2.7,1.7,5.4,3.3,8.2,4.9c-7.9-6.3-7.7-11.8-7.3-21.3c3.1,0.1,4.4,4.1,6.6,5.6
		c3.9,2.7,8.4,2.2,12.8,1c-4.9,0.6-9.6-0.1-13.4-3.4c-1.3-1.1-2.6-3.5-2.9-4.2c-0.2-0.5,1.1-2.9,1.8-2.5c0.8,0.3-0.8,3.4-1.2,3.1
		c4.5,3.3,4.2-0.1,4-3.6c-0.3-5.8-1.7-7,5-3.6c-0.5-0.4-2.7-2.3-2-3.2c1.4,3.8,2.1-3.4,2.1-3.4c0.1-0.1,1.6,2.5,1.7,2.7
		c0.2-2.1-1-2.3-1.3-4.2c2,1-0.2-1.1,0.3-0.4c0.3,0.3,2.9-0.5,3.1-0.9c-0.5,0.9,3.5,2,3.9,1.2c-0.6,1.4-2.9-2.6-3.3-2.8
		c-3.2-1.4-1.7-0.6-5.6-1c-0.5-1.6,3.3-1.8,4.2-1.9c-4.1,1.4-3.7-4.6,2.2-3.6c3.2,0.5,5.7,3.6,8.3,5.2c0-0.5,0.6-2.9,1.4-2.8
		c0.2,0-2.5,5.6-2.3,6c2-0.8,2.8,0.6,5,0.3c-1.3,0.2-6.1-10.7,0.6-8.3c2.7,1,9.6,6.4,6.2,9.2c0.3-3.1-3.3,0.3-3.5,0.6
		c1-0.1,1.6,0.3,1.9,1.2c-0.4,0.5-4.1,0.6-3,2.1c0.5,0.7,3.4,0.5,2.1-1c0.1,0.4,1.9,0.6,2.1,1.4c2.9-2.8,0.5-4.7,4.9-1
		c4.8,4.1,1,3-2.2,5.7c0.7,0.2,1.8,0.1,2.6,0.2c-5.1-0.4-0.2-0.2-0.2,0.5c0,0-2.7-0.7-2.8-0.6c-0.4,0.2,0.4,2.3,0.5,3
		c0.1-1.2,4.1,1.1,0.1,2.8c2.6-0.4,0.5,2.6,1.4,2.9c2,0.9,1.7-3.4,1.6-3.1c0.3,0.7,0.9,1.1,1.7,1.1c-3.1-3.2,0.3-2.8,1.6-0.6
		c0.4,0.7,0.3,8.2,0.9,8.2c-0.1-1.2-5.1,0.3-1.4-0.8c-2.3-1.1-1.3,0.6-3.2,1.4c0.6,0.7,3.1,0.9,0.3,2c1-0.2,1.2,0,0.7,0.7
		c-0.7,0-1.2-0.2-1.7-0.7c-0.4,0.4-2.8,3.6-2.7,3.8c0.2,0.5,0.4,0.7,0.9,0.5c-2.6-0.5-1.4,4-1.8,5c-1.7-0.2-1.9-0.9-0.6-2.2
		c-1,1-2.1,2.8-3.5,1.2c1-1.4,0.7,9.1-1.7,2.9c-1.8,1.5-1.1,3.6-0.6,5.1c0.5,1.5,8-4.6,4,2.4c0.4-0.8,0.9-0.8,1.4,0
		c0.1-0.6,0.2-1.2,0.5-1.8c-1.6-0.3,1.1-8.1,0.3-1.6c0.8-1,3.6-6.7,5.6-5.5c1.1,0.6-0.6,1.6-0.5,2c1.2,2.9-3.9-0.3-1.5,0.9
		c2.2,1.1-0.6,3.4,3,3.2c-0.8-0.9-1.4-0.8,0.1-1c-0.4,0-0.7-0.1-1-0.3c1.1,0.9,0.2-4.5,0.8-4.8c0.2,0.5,0.3,1,0.3,1.6
		c0.3-3.2,1.8-7,3.9-9.1c-0.2,0,0.2,3.9,0.6,3.9c0.2-2.9,2.8,2.1,3.1,3c1,3.2-1.9,4.9,2.4,4.7c0.4-1.1-1.8-0.6-2.1-1
		c-0.1-0.1,0.9-2.8,1-2.8c1.6-0.6,4.4,4.6,6.6,2.8c-1.7,1.1,3,4.2,4.2,3.7c2.2-1.8-0.9-6.3-2-7.8c-0.7-0.9-0.9-2.7-1.4-3.7
		c-0.5-1.1-0.6,1.2-1.9,0c-1.2-1.4,3.4-2,2.4-3.2c-0.7-0.3-3-0.6-3.3-1.6c-0.6-1.7,0.4,0.1-1-1.5c-0.5-0.6,4.7-1.9,0.7-2.8
		c-0.2,3-1.6,0.6-2.1,2.1c0-1.1-0.2-2-0.9-2.9c1.3,1.7-12.1-0.5-6.7-2.8c-1.1,0.1-2-7.3-1.2-7.9c0-0.3,5.4,6.8,3.8,6.5
		c0.9,0.1,4.2-5.1,4-4.5c-0.2,0.9,0.1,1.1,0.8,0.5c-1.5,0.2,1.1,6.3,1.9,7.2c0.4,0.4,3.6-1.8,4.9,1.1c0.2-0.5,0.3-1.1,0.2-1.7
		c9,2.2,8.6-9-0.8-7.4c0.9-0.9,0.6-1.5-0.8-1.6c0,0.5-0.3,0.9-0.7,1.3c-4-0.3,3.1-8.1,3.1-8.3c0.5-0.9-2.7,0.1-2.7,0.7
		c0.2-2.8-3.9-1.2-4.4-2.9c0.3-3.1-1,1.3-1.4-1.8c-0.1-0.4,0.3-2.4,0.3-2.4c-0.2-0.9,1.8-2.3,1.3-4c-0.7-1-1.6-1.2-2.8-0.7
		c-1.2,1.1-2,0.6-2.4-1.5c-0.7,1.2-0.9,2.5-0.8,3.9c-3.7-0.2-0.1-0.5-1.1-1.6c-1.1-1.3-8.5-2.7-8.4-5.4c0,0,3.5,1.1,4.3-1.1
		c0.5-1.5-1.9-2-2.5-4.5c-0.3-1.7,1-3.5,1-5.2c-0.3-5.3-1.6-0.1-3.5-2.4c-1.1-1.3,2.7-3.2,2.5-4.4c-0.7-4.1-2.4,0.3-3.2,0
		c-1.6-1-2.9-4.1-2.4-5.9c-3.8-0.3-6.1,1-8.7-0.6c1.2,0.3,0.9-0.5,2.1-1.4c0.1-1.6-2.1-1.2-2.9-1.9c1.1-0.5,2.3-0.5,3.4,0
		c1.4-2.3-6.1-1.5-7-1.6c3.1-1.6,1.3-0.9,0.6-2.2c0,0-2.4-5.9-1.3-3c0-0.4-1.7-4.8-0.4-4.6c1,0.2,6.9,4.4,3.7,5.5
		c3,0.3,1.2-3.8,1.3-3.6c3.6-1.2,0.9-1.2-0.3-2c-0.4-2.5,2.4-1.7,3.6-2.8c-0.4-0.3-0.7-0.7-1-1.1c1.1-0.3,2.4,0.9,3.7,1.9
		c-3.3-1.4,0.4,3.7,1.8,0.5c0,0.1-1.4-6.2-0.7-5.9c0.6,0.3-3.5,1.7-3.2,1.8c-0.1,0-0.9-2.3-1.1-2c1,0.2,2,0.1,2.9-0.2
		c-0.1-0.5-0.2-1-0.5-1.5c4.3-2.4,0.4,2.6,1.7-1c0-0.1,0-2.5,1.4-0.2c-0.4-1.3-1.3-2.2-2.5-2.6c1.4-1.2,2.4,0.4,2.3,0.1
		c0,0.2,4.5,0.2,3-1.6c0.8,0.9-2.9,1.2-2.6,0.7c0.3-0.4,1.8-2.7,2.5-2.3c-0.2,0.4-0.5,0.7-1,0.9c-0.6,1.7,2.3-3.6,1.3-3
		c-0.8,0.7-1.2,1.6-2.1,2.2c0.8-0.5-5.3-6-0.2-7.2c-1-1.2-2.7,1.1-3.4-1.3c6.4,3.2,1.2-1,1.5-1.1c1.4,0.2,2.7,0.7,3.9,1.5
		c4.1-0.2-3.7-5.2-2.6-6.2c-2.7,0.3-2.6-0.7-5.3,0c0.3-0.6,0.4-1.2,0.3-1.9c-0.1,1.3-0.6,1.5-1.5,0.5c0.2-2.5,1.8-3.4-1.7-2.4
		c-1.1-0.1,4.2-3.6,3.8-4.5c-0.7-1.4-3.6,1.1-5.2,0.5c-0.4-0.1,0.4,2-1,1.5c-1.3-0.5-1.4-3-3-3.2c1.2-2,3.6-1.7,4.7-4.1
		c0.2-0.5,0.4-5.9,1-5.8c1.5,0.8,1.6,2.4,2.8,0.3c0.4-0.7,0.2-4.2-0.3-4.9c-1.9,1.6-1.3-0.8-1.6-0.8c-0.8-0.1-5.5,3.1-5.1,3.4
		c-0.6-0.9,0.8-3.3,0.2-3.9c-1.4-1.3-1.9,1.7-2.8,1.6c2,0.1-5.8-9.3-3.7-3c0.4-4.8-5.5,2.1-5.5,2.1c-0.9-0.1-1.5-2.4-3.1-2.4
		c-1.5,0-2.9,0.9-4.4,1c-1.6,0.1-5.6-0.3-6.8,0.9c-0.2,0.2-1-4.2-2.4-4.8c-0.9-0.4-4.8,1.7-4.9,1.3c-0.3-0.5,1.3-0.2,1.3-0.6
		c0-0.5-6.3-2.3-7.1-4.3c-0.5,5.5-14.9-3.1-13.6,4.5c0.5,0.2,4.3,1,4.2,2.3c-0.1,1.2-2.2,2.7-1.6,4.1c0.1-1.4,5.7,1,4.2,2.3
		c-2.3-3.4-3.7,3.9-3.4,5.2c0.2,1,4.2,5.3,4.1,5.8c-1.1,4.5-12.2,1.3-11.3,4.6c-0.8,0.4-0.3-3.7-0.4-3.9c-1.3,1.3-4.7,3.7-5.9,1.8
		c0.5,0.8,2.9-4.2,2.9-4.2c1.5-6.2-2.3-2.5-5.6-1.4c-4.3,1.4-4.6-0.8-9.9-0.8c0.2-0.1,5.2-2.2,4.9-2.4c-1-0.5-1.9-1.1-2.8-1.7
		c0.2-0.2,3.4-1.3,3.4-1.7c-0.1-1.6-6.9,0.8-7.1,1.4c1-0.4,2-2.8,1.2-3c-2.1-1-16.9-3.8-15.2-4.9c4.1-2.6,14.9,5.2,17.5,3.2
		c-5.1-2.3,1.5,0.5-0.4-4c-1.1-2.5-4.4,0.5-4.8-0.4c0-0.4,0.7-2.6-0.4-2.6c-0.2,0-4.2,2.2-4.1,1c0.4-6.5,15.4,4.6,13.4,0.4
		c0.8,0.1,4.1,0.9,4.6,1.6c-1-1,0.9-2-1.4-2c1.5-0.1,3-0.3,4.4-0.6c-1.3-0.7-1.8-3.7-2.7-4.2c-1.8-0.9-5.6,1.1-7.2-0.2
		c-4.2-3.4,6.5-2,6.9-2.5c-0.2-1.3-1-1.9-2.2-2c0.1-0.3,3.2-1.9,3-1c-0.2,1.2-5.2-3.4-4.2-3.4c-1.4-0.8-2.2,1.9-3.8,0.8
		c-0.5-0.3-0.8-2.3-0.9-2.4c-1-0.5-0.1-1.7-2.4-2.5c-1.2-0.4-3.3,1.7-4.9,1.3c1.3-1,2.7-4.1,0.7-5c-1.2,0.9-1.8,2-2,3.4
		c-0.9-0.2-1.8-0.5-2.6-0.9c-0.9,0.1-7.5-1.9-3.3,1.5c-1-0.9-2.1-1.7-3.2-2.5c1,1,3.6-3.1,3.4-4.1c-0.8-0.9-1.6-0.7-2.6,0.4
		c0.2-2.9-1.4-2-2.6-1c-2.2-7.9-1-1.1-2.8-2.6c-0.5,0.3-0.8,0-1-0.9c-1.7,1-2.3,0.6-2-1.2c-1.9,2.4-0.9-1.1-2.8-1.6
		c-2.8-0.6-0.5,1.6-2,2.6c-5.3-8.2-4.8,2.6-5.7,3c-2-2.4-8-2.2-10.3-0.6c-0.5,0.4-4.2,5.5-4.1,5.8c1.2,4.6,11.3-2.1,12.7,1.2
		c-2.4,1-6.2-0.6-4.8,2.4c-0.3,0.8-3.1-0.3-3.2,0.8c0.6,1.1,1.6,1.9,2.9,2.3c-0.7-0.1-7.5-1-7.5-0.7c0,1.2,4.4,1.8,4.2,2.2
		c0,0.6-4.4-0.2-3.6,1.6c1.3,0.3,2.5,0.6,3.8,0.8c-3.1,0.1,3.7,1,4.4,1.1c1.3,0.1,5.5,1.2,6.5,0.5c-1,0.6-1.9,1.2-2.8,1.8
		c-1.9-5.4-3.7,1.3-6.3,1.6c-1.6,0.2-4.5-2.2-6.2-2.7c-6.4-2.1-9.9-1.4-11.8,4.2c0.8-3.9,9.3,2.6,10.5,2.4c-3-4.8-1.9,1.6-2.2,1.8
		c-0.8,0.5-2.7-0.7-3.4,0c-1,2,3.5,6.5-1.6,1.6c-2.9,4.6-3.3-0.2-4.3,1.1c-0.3,0.4-3.9,3.1-3.6,1.7c0,0.4,3.3,3.9,3,4
		c-1.1,0.6-5.6-1.3-6.1,0c-1.2,2,4.7,1.9,1.8,3c-0.4,3.2,12.1-2.6,13.1-1.4c-0.9,0.1-1.8,0.4-2.6,0.8c-0.9,0.9,3.3,2.8,3.2,3.8
		c-1.4-1.3-2.3-1.1-2.6,0.6c2.6,1.3,2.1,0.6,1.9,0.7c-1.9,0.8,2.3,1.1,2.4,1.1c2.7,0.2,5.8-0.8,8.5-1.1c3-0.3,12.4-1.8,11.7,3.7
		c0-0.3-3.8-2.6-4.6-2.2c-0.2,0.1,1.1,2.7-0.5,3.4c-1.5,0.7-4.6,0.1-6.1-0.1c-2.4-0.4-7.9-3.8-7.4-0.8c-0.5-1-1.3-1.7-2.4-2
		c-1.5,6.7-2.2,0.6-4-0.2c0.8,0.4-1.9,1.7-1.9,1.7c0,3.1,4,1.6,0.8,4.1c-1.8,1.5-3.1-0.2-4.5-2.3c-0.6-0.1,0.6,2.1-0.6,1.6
		c-1.2-0.4-2.2-2.2-3.4-2.2c0.6,1.1,0.6,4.8,1.6,5.4c-0.9-0.8-1.8-0.9-2.8-0.1c2.4,1.3,5.4,2.6,7.7,3.6c1.3,0.6,0.7,0.7,2,2
		c1.4,0.2,5.9-7.8,5-2.2c0.6,0.1,14-7.1,14.1-7.5c0,1.6-1.5,1.4-1.6,2.6c-0.3,3.4,6.1,1.2,7,1.8c0.1,0,3.1,4.6,1.9,4.1
		c-0.9-0.6-1.1-2.6-2.5-2.8c-0.8,0.8-0.7,1.7,0.5,2.8c0.3-0.9-7.5-2.1-7.2-2.6c-0.2,0.4-0.6,4.3,0.1,3.8c-1.3,0.8-1.9-4.4-3.6-3.4
		c-0.7,0.4,0.4,2.1-0.5,2.4c-0.6,0.3-4.7-2.9-5.3-2c-0.1,0.1,1.5,5.2,1.1,5c1.6,1.1,3.9,1.4,5.8,1.7c-1.8,3-5.1-0.5-7.3,0
		c1.4,6.3-3.6-0.6-1.4,4.5c-0.3-6.6-3.6-2.9-6.8-4c-1.6-0.6-3-3.1-4.1-4.9c0.3,2.3-0.3,3-1.6,1.9c-0.6-0.3-1.1-0.5-1.7-0.8
		c-0.2,0.2-2.2-0.4-2.1,1.3c0.1,2.4,6.8,2.8,6.8,5.4c-3.1,0.4-1.3,0-0.4,3.8c-0.5,0.5-4.8-8.1-5.8-3.5c-0.4-1-4.7-2.9-4.7-3.6
		c1.4,5.6-0.4-0.2-1.4-0.2c-2.6-1,1.5,3.8-2.2,2.2c1.5-1,1.4,3.7,1.2,4.3c-2.9-2-4.8-4.4-7.5-3c0.5-0.2,8.2,6.7,8.5,6.1
		c-0.7,2.1-4.5-2.8-4,1c-1.9,1.6-5.4-5.4-1.8,1.4c-2-1-2.5-1.3-1.3-0.8c0.4,1.6-7.2,4.1-6,2.2c0.5-0.5,0.1,4.5-0.2,4
		c-0.6-0.6-3.4-4.1-4.2-3.8c0.6-0.2-0.2,5.6,0.4,6.3c1,1.4,8.7,0.2,7.7,3.1c-1.5,0.1-3,0.1-4.4,0.2c2.5,0.6,7,4.2,6.9,3.6
		c5.5,0.5,2.1-1.5,5-1.3c1.3,0.1,1.5,2.5,2.1,3.5c1.4-1.9,6.4,0,6,2.4c-0.5,2.6-6-0.3-7.6-0.8c-1.4,0,1.6,3.1,1.6,3
		c1,1-3.5,2.2-3.3,2.2c-2.9,0.9-2.6-2.6-3.7,1.5c-0.3,1.2,3.8,1.5,1.4,3.3c-1.1,0.8-6.1-1.5-7-2.3c0.7,5.9-3.3-0.9-4,1.4
		c-0.8,2.5,4.6,1.7,5.3,3c0,1.8-3.1,1.4,0.9,2.8c2.1,0.7,5-1.2,7.2-1.2c0,3.1-5.2,2.4-5.1,3.4c0.1,1.6,8.3,0,8.8-1.5
		c-1.2,3.8,6.2-3.3,6.2-2.9c0.7,0,5.9,5.9,5.7,6.3c-1.3-0.4-2.4-1.2-3-2.4c-0.1,4.8-0.9,0.5-3,0.8c-0.9,1-0.9,2.1,0,3.4
		c-0.7,1.3-4.5-2.1-5.5-1.9c-1.5,0.3-1.5,2.8-1.9,2.9c-1.9,0.3-6.8-1.6-6.9-0.8c-0.4-0.5-0.8-0.8-1.4-0.9c0.1,0.7-0.4,4.4-0.8,3
		c0.4,1.3,0.5,1.5,1.6,2.5c0.4,0.4,5.5,2.1,5.5,1.9c-0.6,5.3-1.8,4.2-4.5,1.4c0.9,1.5-2.7,0.7-2.6,0.6c1,6.7-2-0.8-4.2,1.4
		c-1.2,0.9,5.1,7,3.2,7.5c-1.3,0.3-4.4-4.8-1.9,0.6c-0.3-0.4-3-3.4-3.2-3.2c-0.6,1.2,2.9,6.8,4.2,6.3c-1.5,0-3.7-0.3-5-0.8
		c3.5,1.2,4.1,5.6,7,7.2c0.6,0.3,5.6,1.7,4.3-0.7c-1.1,2.7,4.1-0.3,4.4-0.6c0.6-0.6,0.1-4.6,1.5-4.7c-0.8,0.1,1.1,2.2,1.1,2.1
		c1,0.3,1.4-4,1.7-3.6c0.9,0.8,1.8,3.9,1.7,3.8c1.6,0,3.4-0.3,3.9-0.4c1.9-0.2,0.7-3.1,4.7-0.5c-0.6-0.8-0.4-1.4,0.5-1.8
		c-0.3,1.4,2.3,1.5,4,2.8c0.4-0.8,1.7-6.2,3.6-4.2c-0.2-0.2-4.4-2.2-4.2-2.6c0.6-1.8,5.8,2.8,7.1,2c2.6-1.7-2.8-5.4-1.4-5.8
		c1.3-0.4,3.3,2.8,3.2,2.8c1.3-0.3,7-3.7,7.9-4.6c4.2,4.2-3.7,9-7,10.5c-1.5,0.7-3.7,0.8-5,1.5c-2.4,1.2-2.7,2.3-4.6,1.2
		c-0.1,3.2-0.4,0.3-3-0.2c0.2,4.5-2.7-1-3.7,2.9c-1,3.8,2.6-0.4,4,2.6c0.5,1-4,5-1.7,5c-2.9-3.9-0.7-0.9-2.6-0.5
		c-0.3,0.1-2.9-1.1-2.9-0.5c-0.3,3,3,1.8,2.7,4.7c-1.8-0.6-3.4-2.4-5.3-2.6c-3.3-0.4-2.1-1.3-3,1.8c-2.3-3-1.5,2.2-1.4,2
		c-2.2-5.6-0.2,7.9,4,2.2c-1.3,1.3,0.8,1.5,0.3,1.9c0.8-0.6,2.1-0.3,3-0.9c0.9-0.7-1.1,1.5,0.5,2.2c0.7,0.3,0.5-2,0.7-2.2
		c-0.3,0.6,1.8,3.7,2.2,4.3c0.9-1.1,3.5-1.9,2.9-3.9c2.6,2.2,1.1-2.5,1.6-2.5c1.9,2.4,3,1.2,5.9-1.4c-1.6,2.7-2.3,2.2-1,5.3
		c0.6,0.4,2.5-1.9,2.8-2.2c-0.6,0.3-0.4,4.8-0.1,4.7c1.2-0.7,1.9-3.1,2.8-4.2c0.2-0.3,2.6-0.4,3.2-0.7c0-1.2-3.9,0.9-2.8-2
		c1.3,0.1,2.7,0.1,4,0c-0.8-1-1.7-1.8-2.8-2.4c1.6,1.5,2.8,1.5,3.5,0.2c-0.4-0.8-0.9-1.4-1.5-2c3.9,0.1-0.2-3.2,0.2-3.2
		c6.6,0,5,17.2,3.5,20.3c-3.7,7.9-4.6,4.5-11.3,6.4c-0.3,0.1-3.3,2.7-3.4,2.8c-1-0.3-2.1-0.4-3.2-0.4c1.7,3.5,1.2,4.2-1.4,2
		c2.4,3.2,3.5,3.5,7.1,4.6c1.5-1.2,2.9-1.3,4.2-0.3c0.8,0.9,1.7,1.5,2.9,1.8c-1.3-0.3-2.6-0.7-3.8-1c-0.6,0.6,0.1,1.9-1,2.7
		c-0.8,0.5-3.1-0.4-3.6,0.3c0,1.2,0.3,2.3,1,3.2c-0.8-0.3-2.7-3.9-3.8-3c1.1,4.7-4.8,1.1-4.8,0.8c-3.2,3.2,18.4,10.6,18.4,6.3
		c-1.9,2.5-2.2,2.5-0.2,5.9c3.8-1.5-0.6-4,1.2-5.5c2.2,1.5,3.6,2.6,3.4-1c3.1,1.4-1,0.3,0.2,1.8c1.8,2.5,1.8-5.9,3.8-0.2
		c-1.3-1.3,2.7-2,3.4-2c-0.9-2.4,3.6-2.1,3.6-5.5c3.3,2.8,3.1,13.7-3.1,12c5.6,2.2,4.1,6.5,4.1,11.4c-3.3-2.2-6.5-4.5-9.7-6.9
		c5.2,4.8,9.8,8,11.4,15.2c0.5,2.4,2,11.4-3.1,7.4c5.5,10,3.2,22.4,3,33.2c-0.2,13.3-0.1,26.6-0.7,40c-1.1,27.1-1.8,54.3-1.5,81.4
		c-8.1-7.6-19.7-9.1-29.9-12.3c-10.9-3.4-20.4-9.8-31.3-13c-11-3.2-24.9-5-36.3-4.5c-5,0.2-17.8,5-22.2,1.9
		c-2.2-1.5-0.6-13.4-0.5-15.9c0.3-8,0.1-16.1,0.1-24.1c0.1-18.8,0.2-37.7,0.2-56.5c0.1-38.4-2.3-76.9-0.3-115.3
		c2.5,1.1,5,2.2,7.5,3.3c-4.8-3-9.2-4.5-5.1-10.7c-0.4,0.3-2.3,1.1-2.5-0.2c-0.3-2.9,8.4,3.4,9.2,5.7c0.9,2.7-0.3,5.9,0.5,8.4
		c3.2,9.9,9-3,12.4,3.4c0.1-2.4,3.5,2.1,4.5,2.1c0.7-4.6,2.7,2.6,6.1-0.9c0-0.1-3-0.9-3.3-1.6c0.1,0.2,6.5,1.4,6.4,0.7
		c-0.4-2.8,3-2.3,2.7-4.4c-2.4,0-5.5,1.1-7.7,0.8c-0.9-0.1,1.7-3,0.8-3.5c-0.4-0.2-3.7-0.5-3.3,1c-0.1-0.2-1.1-2.2-1.4-1.8
		c0.3-0.3,2.3-1.5,1.2-2.2c-0.7-0.4-4.2,0.8-5.5,0.5c-2.5-0.6-2.5-8.1-6.7-2.3c-1.7,0.2-8.7-4.2-10.5-5.3c-1.9-1.1-4.4-2.3-5.1-4.2
		c-0.1-0.4,2.3-7.6,1-7.3c2.3-2,6.1-0.9,8.8-0.7c-2.8-0.9-5.9-1.2-8.8-1.1c0.2-0.5,2.6-2.9,2.2-2.5c0.7,0,1.7-2.6,2.5-2.9
		c0.4-0.1,0.9,1.6,1,1.6c1.5-0.5,1.4,4.6,3.2-2.6c-1.3,3.5,4.3,7.4,4.7,2.1c0.3,2,1,2.6,2.3,2c-0.3-0.6-0.7-1.2-1.2-1.6
		c0.6,0.3,4.1-1.7,4.6-0.9c-1-2.8,3.1-3.1,4.5-4.5c0.3-0.3,0.5-2.8,0.8-3.4c0.3-0.7,3-0.1,2.7-1.6c-1-6.2-7.7-0.9-4.6-10.3
		c4.2,2.8,0.4-3.7,4.3-2.5c-3.6,2.3,10.2,6.8,12.2,4.5c1.4-1.6-6.2-10.6-1.5-10.9c-3.1,0.3-2.3-3.2-2.5-5.3c0,0-2.9,1.8-2.9,1.4
		c0.6-4.3,4.6-0.1,6.3-3.8c-0.2,0.4-4.5-0.2-4.7-0.7c1.6,2.4-5.3-0.6-2.6-0.1c-1.3,0-2.5,0.3-3.6,0.9c-0.2-3.2,3.2-3.5,4.8-5.2
		c-1.9,2,5.6-1.1,4.3-1.9c-1.4-0.9-2.7,0.8-4.4-0.3c0.6,1.7,4.8-2.5,5.1-3.2c0.7-1.4,1.2-9.3-0.3-7.2c-0.1-1,0.3-1.5,1.3-1.6
		c-0.2-0.1-3.5-1.1-3.5-1c0-3.1,2.6-2.1,1.2-6.8c-0.3-0.9-2.2-8.1-2.7-8.6c-0.5,0.2-0.9,0.4-1.3,0.7c-0.4,0.1,6.6-4.7,7.4-3.7
		c-0.4,0.4-1.5,11.4-1.6,11.3c1.2,0.9,7.6-4.4,7.5-4.6c-0.4-0.6-2.7-0.2-2.8-0.8c-0.1-1.2,3-4.3,2.9-4.7c-0.5,5.5,4.5-1.3,6.1-2.5
		c1.7-1.4,4.7,1,2.8-4.1c-1-2.7-3.8-1.4-4.4-2.8c-1-2.6,2.3-2.2,2-4.6c-0.5-3.4-2.8,0-3.9,0.4c-2.1,0.6-3.7,3.6-6.3,1.7
		c-3.8-2.9,1.7-2.8,1.3-5.3c0.5,2.3-8.8-4.6-8.4-4.6c-2.6,0-3,5-3.4,0.9c-0.2-2.4-6.3,3.9-6.1,3.9c0.9-0.3,1.6-7.8,1.9-8.8
		c-3.1-0.2-7.7-1.7-10.6-2.7c-1.9-0.7-5.2-3.8-7.1-3.2c0.2-2,14.3,2.2,15.7,2.9c0.7-2.5-2.9-4.2-1.3-6.1c1.3-1.6,6.6-0.2,7.5-2.2
		c0.5-1.1-3.3-2.3-3.7-3.2c-1.5-3,1.3-3-2-5.7c1-0.5,1.9-1.2,2.5-2.2c0.2-0.6-4.9-0.7-5.4-1.2c-2.3-2.2-0.2-7.3-2.6-10.2
		c1.5,1.8-6.7,2.4-6.7,2.3c0.4-1.7,5.3-7.1,6.6-2.8c-0.5-4.1-5.1-2.4-6.4-2.4c-4.6-4.6,5.4-3.8,6.1-4.7c-0.3-0.1-1.9-0.7-2.1-0.7
		c0.7-0.1,3.1-3.1,1.4-3.6c1.1,0.4,4-0.2,4.7-1.4c0.8-1.4-8.6,0.7-8.6,0.7c0,0,1.3-1.9,1.1-2.1c-4.9-1.4,1-1.3-0.1-4.3
		c-0.1-0.2-8.3,2.4-9.9,2.4c-3.4-0.2-12.3-4.7-15-1.2c0.1-0.1,0.4,3.8-0.1,4.6c-2.2,4-1.3,0.4-3.5,0.2c-7.8-0.5-3.7,2.5-5.7,8.5
		c0.1-0.2-1.8-2.8-2-2.7c-1.1,2.7-2.5,1.7-3.3,3.2c-0.5,0.9-0.3,2.6-0.9,3.3c-0.6,0.7-2.3,1.8-2.5,2c-1,1.3-1.8,3.4-3,4.5
		c-4.2,3.6-8.5-0.7-12.6,1.9c2.7,2.2,6.1,10.4,4.9,13.8c-1.6-3.9-2,0.4-3.2-0.8c-1.2-1.8,1.5-3.1-1.7-3.6c-0.6-0.1-0.5,2.4-0.6,2.4
		c-2.8-0.9-0.5-0.8-1.2-4.7c-1-5.5-2.5-2.4-6.4-2.2c-0.4,1.9-1.1,2.2-2.1,1.1c-1-0.4-1.6-1.2-1.8-2.3c-1.2-1.4,0.1-3.7-2-5
		c-1-0.6-12,2.3-13.4,2.5c-2.9,0.4-5.2-0.2-8-0.1c-6.9,0.1-0.2-0.1-0.8,3.1c-1,1.3-3.9,2.1-0.1,3.5c-0.9-0.9-8.5-0.5-8.8,0.2
		c-0.7,1.6,5.2,4.3,5.5,2c-1.8,1.3-1.8,2.2,0,2.8c2,0.8,1.7,1.3-1,1.4c1.9,2.3,4.1-1.5,6.3-1c2.7,0.6-2.2,3.5,2.3,4.7
		c-1.2,2.7-7.3-2.3-8.1,4.1c0.8-3.1,7.6-0.6,6.8,2c-0.6,1.9-4.9-1.3-5.8-1.1c-3,0.4-2.4,0.1-3.5,4c-0.7,2.5-0.1,3.6-1.3,5.8
		c-1.1,2.1-6.1,1.7-1,4.3c-3,1.6-3.4,2.7-0.3,4.7c-3.6,2.7-5.5,4.1-1.9,5.9c1.2,0.6,4.1-0.4,5,0.6c1.8,2-1.2,4.6-0.6,6.8
		c6.2-3.6,12.9-2.3,19.2-4.8c-5.5,2.2-10.1,4.5-15.4,6.2c-11.5,3.7,1.8,6.4-2.8,10.9c1.6-2.3-7.4-2.5-8.5-2.4
		c-1.8,0.2-4.2,1.5-5,1.8c-0.3,0.1-0.2,1.5-0.7,1.7c-0.9,0.4-3-0.7-3.4-0.4c-2.6,2.7,3.9,4.8-0.8,6.6c-1,0.4-9.2-2.3-9.2-2.8
		c0,1.1,2.1,6.3,2.4,5.8c-1.5,2.6-4-0.3-5.3,3.5c-0.2,0.5-0.3,3.6-0.1,3.7c1.8,1.9,2-1.1,2.4-0.9c-0.1,0,0.7-1.5,1.7-1.1
		c1,0.4,1.8,3.2,2.5,3.9c0.9,0.9,1.4,2.9,2.9,2.9c2.2,0-0.5-2.8,0.5-3.7c0.6-0.5,2.2,7.8,1.4,7.6c-0.3-0.1,6.9,5,8,2.1
		c1-2.5-6-6.8-3.2-11c0.6-0.8,6.6,5.6,8.8,3.4c-3.5,1.4-1.4-1.1-2.4,2c-0.5,1.6-0.7,3.8-1,5.5c-0.1,1.1-1.6,8.1,0.8,8.1
		c-0.9-1.3-1.6-1.3-2.2-0.2c-1.2,0.8-0.8,1.5,1.1,1.9c-0.2,0.7-1.8,0.5-1.7,1.3c0.2,1.9,0.8,3.6,1.6,5.4c0.7,1.6,0.6,2.6,1.4,3.6
		c0.3,0.4,4.2,0.4,4.1,0.7c-0.4,2.1-3.3-0.6-4.1,0.6c-2.1,3.8,5.6,2.6,5,2.3c3.2,1.8,5.9,9.5,0.4,5.3c-0.3-0.3-0.1,4.1,0,4
		c-1.1-0.3-2.1-0.8-3-1.5c0,2,1.8,8.7-2.1,5.9c-1.3,2.3,1.9,3.4,1.5,5.4c0.1-0.3-2.5,4.6-2.6,4.1c0.4,2.2,1.5,1.5,3.7,1.6
		c1.7,0.1,13.4-4.1,9.2-5.7c3.4-1.6,1,2.6,2.4,2.9c2.4,0.6,2.9-1.8,4.9-1.5c2.5,0.3,3.9,2.5,4.7,5c0.4,1.1-1.6,3.3-2.4,2
		c0.2-0.7,0.7-1.2,1.5-1.4c-2.2,0.7-7.1,3.1-8.2,4.7c-0.4,0.6-2,0.2-1.7,2.1c0.4,2.3,2.6,0.1,3.6,1.1c2.3,2.2,6.7,10.4,10.4,8.1
		c-1.1,0.3-1.3,0.9-0.8,1.8c1-0.5,1.7-1.3,2-2.4c-0.6,4.4,6.7,2.2,4.8-2.6c1,3,2.1,6.9,5.1,2.9c0,9.4-0.6,10.7-10.2,10.7
		c9.6,1.6,9.9,3.6,10.5,12.9c-3-1-5.9-2-8.9-3c4.5,2.3,8.3,3.8,9.4,9.4c1,5.4-1.2,6.4-6.2,4.8c8.9,6.7,7.7,20,7.2,29.8
		c-0.6,13.9,0.1,27.8,0.3,41.6c0.6,31.9,0.7,63.7,0.7,95.6c-6.8-1.4-12.4-5.1-18.7-7.9c-7.2-3.2-14.5-3.8-22.2-5
		c-14.5-2.2-30.1-7.4-44.5-1.3c-9.5,4-13.5,15.3-21.7,21.3c-3.9,2.8-7.6,6.5-12.5,6.5c-3.1,0-4.3-1-7.7-0.5c-4,0.5-7.9,2.2-11.7,3.2
		c-0.3-39.7-0.6-79.4-1.1-119.1c-0.2-19,0.1-38.1-0.9-57.1c-0.4-7.1-2.9-16.3,2-22.4c3.7-4.6,10.7-6.3,15.3-10
		c-4.3,2-8.6,6.7-13.3,7.4c-4.4,0.7-7.6-2-5.8-7.4c1-2.9,5.4-3.6,6.4-6.6c1.5-4.6-6.5-4-3.4-9.5c0.1,1.6,3.4,0.8,3.3,0.8
		c0.7,0-0.9-4.1-1-4.3c-0.8-1.5-2-2.4-2.6-2.2c0.4-1,0-2.2,0.2-2.6c-0.3,0.5,0.2-0.1,0.3-0.2c1.9-1.9,5.4-3.2,8-4.5
		c6.4-3.4,13.6-7.1,17.9-13.2c-5.3,4.4-11.1,8.4-17.1,11.7c-2.1,1.1-5.6,3.4-8,3.8c-0.3,0.1-5.8,0.9-2.7-1c-1.7,0.2-1.9-1.9-1-3.4
		c-0.4,0.7,5.3-2,3.8-2c1.1,4,6.2-6.2-1.2-3.8c2.1-1.5,2.1-6.4,7-6.7c0.7,0,7.5,1.6,6.3,3c-0.3-3.7,6.8,1,6.5-3.8
		c-2.2-1.2-1.9-1.3-3.8-2.9c0.1,0.1,5.3-1.8,5.4-2.3c-1,4.9,4.7,3.1,6.6,5.1c0.6,0.6,2.9,8.3,2.9,7.4c0,1.6-4.2,12.3-6.4,10.4
		c4.6,4.2,7.3,0.7,10.4-0.8c1.5-0.7,1.4,1.1,4.1-0.4c2.8-1.5,6-5.5,1.3-5.2c2.8-3.7,12.4-3.8,12.4-9.8c-2.1-0.4-4.9-0.7-7.1-0.3
		c-1.5,0.3-4.4,3-5.9,2.2c-0.6-0.3,2.1-3.1,2-3.6c0.1,0.6-4.2-2.3-4-2.3c-0.7,0.8-2.2,3.5-2.1,3.6c-0.4-0.3-3.5-1.5-3.9-1
		c1.8-2,7.5-5.1,10-7.3c0.8-0.7,1.1,1.3,2.4-1.5c0.2-0.4,0-7-0.1-7c-0.9,1.1-4.1,2.3-5,1c-0.4-0.6,0.8-6.7-0.4-6.3
		c-0.6,0.2-1.5,2.6-2.4,1.9c-0.7-3.1-2-3.8-6.2-3.9c-3.5-0.1-5.5,3-7.9,3.2c-8.8,0.6-0.2-10.2-2.1-12.3c-0.5,0.4-1,0.8-1.5,1.1
		c-0.5,0.2,0.5-4,0.3-4.8c-0.5-1.8-4.4-4.5-5.9-5.5c2.8-2.3,3.2,2.8,5.4,3.2c0.3,0.1,4.5-2,5-2.3c0.5-0.4-1.6-4.5-2.2-4.6
		c5.6,1.5,6,2.6,6.3-4.4c0.1-1.3-0.4-14.4-4-12.3c2.3-1.4-1.4-15.6,2.4-19.4c-2.6-1.3-4.5,0.9-6.7,0.5c-2.8-0.6-3.4-1.4-5.7-3
		c-0.8-0.5-5.4-3.2-4.4-2.2c-1-1-0.7-2.7-1.4-3.8c-0.9-1.4-1.9,0.3-2.3-0.1c-0.8-1.2,1.1-3.4-1.5-3.2c-0.9,0,0.2,3.4-1.3,2.8
		c-2.3-0.8,0.4-4.4-0.2-5.8c-1.3-3-5.5-3.2-6.8,0.4c-3-1-1.3-5.4-4.4-6.6C83,70,80,71.1,78.3,71.4c-3.5,0.5-3.4,1.4-4.1-0.7
		c-3.4-1.7-0.9,5.3-3.4,0.2c-0.7,4.3-3.4-2.3-3.8,2.1c-2.1-1.7,0.1-4.9-1.3-6.3c-0.8-0.8-2.7,1.6-2.4,2.3c-0.4-0.5-2.2-4.4-2.3-4.4
		c-0.6,0.5-1.1,1.1-1.5,1.8c0.1-0.1-1.2-2.5,1.1-3.2c2.3-0.8,4.8,0.3,7.1,0.2c1.7-0.1,8.2-2.6,7.7-2.8c0.5,5.3,3.7-2.6,6.1-3.2
		c-0.9-0.9-1.9-1.3-3.1-1c0,0.1,1.4-3.6,0.2-3.3c-0.4,0.3-3.5,2.5-4,1.6c-0.1-0.4,2.1-3.5,2.2-3.4c-7.2,3.1-2.4-5.8-2.7-9.9
		c-0.6,1-2.7,1.1-3.5,0.7c-3.6-1.6,6-2.3-2.5-2.2c0.2,0.5,5.6-9.1,3.3-9.3c-4.9,1.2,0.5-2.2-1.1-3.8c-0.7-0.9-3.2,1.8-3.8,1.8
		c0.9-2.3-0.1-3-2.9-2.3c6.7-2.6-1-3.4-1.6-6.7c0,0.1-1.3,3.9-1.1,3.8c-1.1-0.3-1.6-1-1.6-2.2c-1.6,2.1-4.6,2.5-7.1,2.3
		c-4.1-0.4-2.8-1.5-5-3.5c0,3.1-1.1-4.3-0.7-3.8c1.2,1.9-2.8-0.7-2-0.7c-1.4,3-0.4,1.2-1.5-1c1.3,2.6-2,0.3-1.7,0.5
		c0.4,1.2,0.8,2.3,1.4,3.4c-0.5,0.8-2.9-0.9-2.7,0.7c0.6,0.7,1.4,1.2,2.3,1.5c-1.2,1.2-3.2-0.9-3.6-0.6c0.1-0.1-2.1,1.2-2,1.1
		c-0.4,0.3,0.8,2.3,0.6,2.8c-0.4,1.1-3.2,0.4-3.7,1.1c1.1,0.7,1.2,1.3,0.4,1.9c-0.5,0.2-0.8-1.9-1.1-1.7c-2.1,2,1.2,3.2-2.7,2.6
		c1.2,1.9,0.6,2.3-1.8,1.4c0-0.1,5.3,2.3,4.9,2.7c0,0-3,0.3-3.1,0.2c3,1.4-2.8,2.4-1.7,0.2c-0.5,1,1.7,4.6,1.4,4.7
		c-0.4-0.2-3.8-1.8-4-1.6c-2.1,3.1,7.2,11,3.2,10.4c3,3.9-6,1.2-2.7,3.4c-2-1.7-3.1-1.3-3.2,1.1c-0.2-5.8-4.1,3.1-7,0.5
		c1.7,2.4,1.2,3.1-1.4,2.2c5,1.6,0.7,1,0.4,1c-0.6,0,0.1,1.5,0.1,1.5c0.5,1.5-5.2,0.2,1.7,1.6c-1.9,4.2,3.1,0.9,3.1,3.1
		c-2.8,1.1-0.3,1.8,0.8,2c0.7,0.1,1.3-1.8,1.8-1.7c1.2,0,4.3,0.2,5.8,1.7c0.1,0.1-4.4,4.4-4.9,4.6c-1.3,0.4-2.2-2.3-3.7-1.7
		c0.4-0.2,4.3,9.2-1.4,3.5c3.6,3.6,2.9,6.2,4.7,10.6c-2.2,0.4-6.2-2.6-6.3,1c0,1.8,4.6,3.8,6.2,4c2.4,0.2,4.4-2,6.9-1.4
		c-0.5-0.1,7.1,6,7.1,5.1c-4.7,3.1-6.1-5.8-9-3.4c-1.1,0.9-0.1,7.9,1.6,7.4c-0.2,0.1-4.7-2-5.7-2c-6.8,0.2,0.9,2.4-1.9,4.7
		c-0.5,0.4-0.6-2-0.8-2c0.3,0-2,1.4-2,1.4c-0.1-0.2,0.8,4.8-0.9,3.4c3.7-1,2,2.7,1.5,4.8c1-0.7,2-0.7,3,0.1
		c-2.8,1.3-2.9,2.4-0.2,3.2c-6.8-0.1,1,6.4,0.1,7.8c0.5,0,0.9,0.3,1.1,0.8c-2.1-4.8-3.5,5.4-2.5,4c-1.4,1.9-12.1,2.6-5.8,3.6
		c0,0-4.2,1.2-4,1.4c4-1.4,2.2,1.7,3.8,3.2c-3,3-5.7-1.1-7.4,0.5c-0.3,2.4,2.4,4-3.1,0.5c1.6,2.7-2.3-0.8-3,0.1
		c-0.9,1.2-2,2.1-0.5,3.3c1.3,1.1,6.9,0.9,8.7,1.5c4.5,1.6,3.4,0.8,5.7,5.2c1,1.9,2.5,1.3,2.8,4.1c0.1,1.3-2.8-1.1-3,0.4
		c-0.2,1.4,2.5,1,0.9,2.5c-3.6-3.8-7-7.8-10.2-11.9c0.8,1.3,19.3,26.1,17.6,26.5c-0.7,0-1.8-2.6-3.2-2c-2.4,1.1,4.6,3.4,4.4,3.4
		c1.1,0.4,2.3,0.6,3.4,0.9c3.1,0.8,0.3,0.1,1.7,2.6c4-5,12.2,4.8,15,7.9c-5.1,2.2-11-4.1-16.2-4.1c5.1,0.6,13.9,8.8,18.9,6.3
		c0,7.4-11.6,1.7-14.4-0.4c2.9,3.6,14.8,3.4,14.8,8.6c-3.8-2.1-8.6-2.2-12.8-2c8.9,1.4,12.5,2.7,13.3,12.3
		c-6.7-1.9-13.3-4.5-19.1-8.5c6.5,8.9,18.8,7.3,19.6,20.4c-4.9-4.4-9.6-15.4-17.7-14.4c11.5,4,16.8,16.6,17.5,27.9
		c-13.5-4.5-25.6-11.9-37.5-19.5c9.9,7.3,19.6,14.2,30.7,19.4c3.4,1.6,5.9,1.8,7.3,5.9c1.1,3,0.5,9.4-4.3,8.6
		c7.6,5.1,3.8,19.6,3.8,27c-9.1-1.3-17.2-5.4-25-9.9c3.7,3,7.5,6.6,12,8.4c2.8,1.1,6.3,0.9,8.9,2.3c2.9,1.6,8.7,13.5,2.4,12
		c5.6,7.7,2.6,21.3,1.7,30c-1.3,13.8-1,27.8-1.1,41.7c-0.1,33.4-0.3,66.8,1,100.1c-9-1.8-10.9-11.8-18.3-16
		c-9.1-5.2-20.9-3.3-30.7-6c0,81,0,162,0,243c0,5.1-0.2,10-0.5,15.1c-0.3,3.4-2.3,12.8,0,15.8c2.1,2.8,11,1.4,14.4,1.5
		c9.8,0.3,19.6-0.1,29.4-0.3c39-0.6,78-0.1,117.1-0.1c160.4,0,320.7,0,481.1,0c160.3,0,320.6,0,480.9,0c159,0,318.1,0,477.1,0
		c17.8,0,35.5-0.3,53.3,0.9c8.3,0.6,27.3,4,28.9-6.8c1.5-10-1.3-20.6-1.5-30.6c-0.4-20.1,0-40.3,0-60.5c0-40.3,0-80.7,0-121
		c0-19.5,0-39,0-58.5c0-9.8,0-19.5,0-29.3c0-4.5,2.1-12.9-1.5-16.1C1672.6,370.1,1656.6,374.4,1649.6,375.2c0-3,1-24.7,8-15.6
		C1662.7,366,1656.5,374.4,1649.6,375.2C1649.7,345.4,1670.9,373,1649.6,375.2z M76.7,441.7c-4.8,0.4-13.2,7.3-17.9,4.2
		c-3.7-2.4-2.6-9.1-2.7-12.7c-0.2-17.3-1.2-34.6-1.8-51.9c-0.7-18.3-1-36.5-0.6-54.8c0.2-8.9-0.2-17.9,0.3-26.8
		c0.3-6.7,2.8-8.7,6.5-13.8c-2.2,1.3-4.4,2.6-6.7,3.8c0-7-0.7-13.1,5.9-17.3c-4.1,1.8-6.5,0.3-6.7-3.9c-0.3-5.6,4.9-6.5,8.5-8.9
		c-5.6,1.6-6.3,0.7-7.5-5.1c-1.3-6.2-0.3-12.7-0.3-18.9c0.1-12.4,1.7-18.2,14.1-22.8c-5,1.3-9.5,4.2-14.1,6.7c0.4-2.5,1.8-4.8,4-6.1
		c-1.4,1.2-2.8,2.4-4.1,3.6c-0.5-7.7,4-10,6.8-16.4c-1.6,2.9-4.3,4.5-7.4,5.4c-0.1-2.3-0.2-4.5-0.3-6.8c4.1,4.4,11.6-4.2,11.1-4.4
		c3-1.4,0.9,1.3,1.9,1.5c-0.1,0.9,0.2,1.4,1,1.7c0.8,0.1,1.5-0.1,2.1-0.6c1.4,0.3,2.3-1.1,4.3,0.1c1.1,0.7-0.1,1.1,0.7,1.3
		c1.5,0.3-8.6,5.6-9.3,6.8c0.2-0.4,3.4,5.6,3.6,5.8c2.3,2.5,5.2,3.6,8.8,3.7c0.7,0-1.6,1.8-0.4,2.1c0.9-0.4,1.5-1.1,1.7-2.2
		c-0.5,3.9,6,2,4.3-2.3c0.8,2.5,1.8,6.2,4.6,2.6c0,8.5-0.5,9.5-9.1,9.5c8.6,1.4,8.9,3.2,9.4,11.6c-2.6-0.9-5.3-1.8-7.9-2.7
		c4.2,2.1,9.2,4.2,8.4,9.9c-0.6,4.5-1.5,4.1-5.6,2.7c10.2,7.7,7.5,26.6,6.9,37.5c-1,19.4,0.1,38.9,0.2,58.3
		c0.2,21.3-0.2,42.6,0.4,63.8c0.2,7.9,1,16.2-2.5,23.5C85.9,432.9,81.1,441.3,76.7,441.7z M237.7,404.2c-1.8-16.9,1-35.3,0.8-52.3
		c-0.3-29.4-0.6-58.9-1.1-88.3c-0.1-6.8,0-13.6-0.7-20.3c-0.6-5.3-2.2-11.3-0.8-16.6c2.6-9.3,13.8-11.2,20.5-16.6
		c-4.7,2.2-24.9,17.3-21.5,1.1c0.8-3.8,6.4-6,6.8-9.5c0.5-3.7-2.3-2.6-3.1-4.7c-1.3-3-0.2-1.4-0.4-4.3c-0.8-10.6,3.1-13.6,12.9-17.8
		c5.8-2.5,7.6-2.2,12.3,2.7c4.4,4.6,6.2,10.9-0.9,14c1.4-0.3,2.9-0.6,4.3-0.9c0.3,5.9,0.7,11.8,0.9,17.6c-1.5-1.1-3.1-2.3-4.6-3.4
		c9.1,9.1,7.5,26,7.5,37.8c-0.1,16.9,1.2,33.9,1.5,50.8c0.7,39,0.4,78,0.3,117c-2.9,0.4,0,0.1,0,0
		C266.2,411.4,239.2,417.9,237.7,404.2z M454.5,456c-0.4,4.7-0.9,9.4-1.3,14c-5.1-6.6-11.5-11.4-19.2-14.7
		c-5.8-2.6-15.2-3.8-19.3-9.1c-5.3-6.8-3.2-18.8-2.7-26.6c0.6-11.7,0.5-23.4,0.5-35c0-22.9-0.3-45.8-0.2-68.7c0-9.9,0.5-20.1-0.7-30
		c-0.8-6.2-3.5-16.3,3-20.5c-7.5,1.2-4.5-13.6-4.7-18.3c-0.1-5.3-0.2-10.6-0.4-15.9c-0.1-2.9-0.2-5.9-0.3-8.8
		c-0.1-3.3-2.5-7.5,1.9-6.1c-0.3-3.2,1.9-1.9-0.2-4c2.2,1.5,2.9-2.2,4.6-2c1.8,0.2,2.5,2.4,3.8,2.7c0.8,0.2,4.1,1.4,2.3-2.2
		c0.7,0.3,2.7,3.2,3,3.2c0.5,0.1,3.2-6.2,4.1-5.3c-0.8-1.3-5.6,1.3-5.9-0.6c7-0.1-0.7-1.9-2.2-2c-2.4-0.2-6.9,0.8-7.8-2.4
		c-0.3-1.1,3.4,0.4,3.7,0.7c-1-4,9.5-2.6,9.8-2.1c-0.5-1.1-5.9-5.1-3.5-6.3c0,5.8,7.6-2.2,9.1-2.2c0.1,0-0.2,4.6,0.2,4.8
		c1.1-1.6,4.3,0.5,4.2,0.8c0.6-2.8-4.3-2.2-1.4-5.2c0.7-0.8,6.8-0.1,3.9,2c-4.2-2.2-2.1,2.3,0.6,1.5c0.7-0.2,3.4-4.3,3.6-4.1
		c0.9,1.2-0.9,5-0.1,5.7c-0.3-0.8,3.7,0.3,2.9,0.6c4-1.9,0.4-4.2,1.3-6.5c0.2,0.4,0.4,0.8,0.6,1.2c-1.9,1-2.1-3.7-0.9-4.1
		c1.7-0.5,2.6,3.7,3.9,3.9c2.8,0.7,0.3-5.3,0.4-4.8c-1.4,2.9,7.6-1.2,3.4-1.2c3-0.7,7.6,1.7,10.2-0.4c1.6-1.3,0.4-0.8,1.1-2.2
		c0-0.6-0.4-0.9-0.9-0.9c-1.5-0.3-1.3-1.3,0.8-2.9c1.7,0.1,1.6,7.1,3.1,1.9c1.5,0,8.7,6.6,9.8,2.9c-1.2,3.8-7.8,1.4-10.7,2.6
		c2.8-0.4,8.8-1.2,10.7,1.5c2.9,4.2-0.9,5.1-3.6,6.2c0.6,0,1.1,0.2,1.5,0.6c0.8,1.2-4.3-0.1-3,1.6c1.2,1.5,3.7-1.1,4.6-0.7
		c1.6,0.7-3.1,2.8-3,2.6c-0.2,0.5-0.1,3.1-0.2,3.3c1.1-0.5,1.8-1.3,2.3-2.4c-0.5-0.5-1.1,4.4-0.6,3.8c-0.9,1.1-9,2.4-8.9,3.3
		c0.1,3.3-1.2,0.6-2.3,3.1c0.2-0.5-3,5.1-0.7,3.4c0.5-0.6,0.8-1.3,1.1-2c1.1,1.3-1.2,1.2-0.5,2.7c0.6-0.8,1.8-2.4,2.8-2.6
		c1.1-0.2,1.2,0.1,0.7,0.1c2.8,0-1.3,1-0.2,0c-2,1.9-3.2,4-3,6.7c-0.2,2.9,5-5.5,2.7-4.2c-1,0.5,5.6,0.2,3.1-1.1
		c-0.4,0-0.8,0.1-1.2,0.3c3.8-1.5,7.4,9.8,7.3,11.6c-0.3,5.9-5.1,9.1-9.7,11.9c2.9-1.2,5.8-2.6,8.6-4.1
		c-4.7,36.9-6.2,74.2-10.1,111.2C462,383,457.5,419.4,454.5,456c0.1-0.7,0.1-1.4,0.2-2.2C454.6,454.5,454.5,455.3,454.5,456
		C454.1,460.7,454.9,450.8,454.5,456z M815,482.9c-2.8,8.4-14.7,10-20.8,14.9c-3.7-45.8-7.4-91.5-11.2-137.3
		c-1.8-21.4-3.6-42.7-5.6-64.1c-0.8-8.5-1.5-16.9-3.1-25.3c-0.9-4.8-3.9-15.6,1-19.4c-5.9,1.5-6.1-27.7-6.5-30.5
		c4,2.3,4.8-8.2,6.6-9.7c2.5-2.1,12-1.4,14.6,0.5c3.7,2.7,10,31.7,3.6,31.2c6.5,3.5,4.6,15.8,5.1,21.8c-7.6-0.3-14.4-3.1-21.2-6.2
		c3.5,2.4,7.2,5.1,11.4,6.3c2.3,0.7,5.5,0,7.6,1.1c2,1.2,6.9,10.1,1.7,9.3c4.1,4.6,2.7,12.5,2.9,18.1c0.4,9.5,1.3,19.1,2,28.6
		c1.7,20.5,3.7,41,5.8,61.4c2,19.6,5,39.1,6.9,58.7c0.8,8.8,1.4,17.7,2.5,26.5c0.4,2.8,1.4,6.3,0.5,9.1c-0.8,2.4-3.2,3.4-4.1,5.9
		C814.7,483.8,815.1,482.6,815,482.9C812.6,490.3,815.4,481.7,815,482.9z M856.6,205.7c-1.6-0.4-3.1-0.7-4.7-1.1
		c3.8,2.1,4,4,4.7,8.1c-1.9-1.1-3.9-2.3-5.8-3.4c6.2,6.2,4.6,14.1,4.8,22.3c0.1,1.9,2.4,16.1-2,12.4c1.2,2.3,1.6,5,1.1,7.5
		c-2.1-1-4.2-2-6.4-2.8c10,6.9,6.4,19.9,6.4,30.1c-1.9-2.7-3.9-5.4-5.8-8.1c8.8,15,7.4,33.4,6.4,50.1c-1.2,19.2-1.9,38.6-1.7,57.8
		c0.2,18.5,2,37.3-1.4,55.6c-3.1,17-15.4,30.4-27.5,41.9c-3.3-34.8-6.9-69.6-11.6-104.3c-2.3-16.9-4.3-33.9-5.6-50.9
		c-0.6-8-2-16.3-1.9-24.3c0.1-4.8,1.9-6.7,4.3-10.9c-1.7,1.2-3.4,2.4-5.2,3.6c-0.5-5.8-1.7-10.6,3.5-14.6c-3.5,1.9-5.7,0.4-5.8-3.2
		c-0.1-4.2,3.6-5.2,6.3-7.3c-9.2,3.6-7.7-12.7-8-17.4c-0.7-10.5-0.8-16.2,9.6-21.3c-4,1.5-7.5,4.1-11,6.5c0.1-2.1,1.1-4,2.8-5.3
		c-1,1.1-2.1,2.2-3.1,3.3c-1-6.4,2.5-8.3,4.3-13.9c-1.1,2.4-3.1,4.2-5.6,5c-0.4-3-2.5-7.5-1.6-10.4c0.7-2.2,5.5-3.7,4.9-1.7
		c-0.2-1.3-0.6-2.5-1.1-3.8c0.5-0.2,1-0.3,1.6-0.3c-1.7-1.4-3.9-2.1-5.7-3.5c2.5-1.1,7.4,2.3,9.4,0.5c-1.2,1,0.6-2.5,0.6-1.7
		c-2.9-1.6-0.5-3.2,1.6-3.9c-1.4,0.7-2.7,1.3-4.1,2c0.1-0.5,0.4-1,0.7-1.4c-0.7,0.3-1.4,0.8-1.9,1.5c0.7-2.6,0.4-3.2-1-1.8
		c-0.5,0.9-1,1-1.5,0.5c-0.2-1.6,6.4-3.8,7.6-4.3c-3.7,1.5-4.5,0.4-7.9,0.7c1.1-0.4,7,0.3,7.5-1.2c0.5-1.5-2.5-1.2-2.6-1.2
		c0.3-0.8,0.5-0.6,1.1-0.3c-0.8-0.6-1.6-3.5-0.7-3.1c-0.1,0.1-1.1,0.6-0.7,0.6c0.2-0.7,0.2-1.5,0.1-2.3c0.4,0.2,0.5,0.6,0.4,1
		c0.5-2.9,3,1.7,3.1,1.7c-0.3-0.6-0.5-1.2-0.6-1.9c2.1-1.7,3,3.5,4.3,3.6c-2.5-0.6-1.5,0.8-3.1,1.5c0.6-0.1,1,0,1.5,0.3
		c-0.1,0.2-1.8,1.4-2.1,1.4c1.8,2.1,1-1.5,3.1,0.3c0,0.1,0.3-1.6-0.1-1.3c0.5-0.4,0.3,2.4,0.2-0.6c0.7,1.3,4.3,0,5.2,2.5
		c0.7,1.9-4.3,2.2-1.5,4.6c0.2,0.3,1.3-1.7,0.6-1.7c1.9-0.6,0.4,3.5-0.2,3.9c-0.1-0.2,2.3,1.1,1.3,1.2c-0.1,0,1.5-3.5,1.6-3.9
		c1.5,1.2,1.8,4.2,2.3,5.9c-2-1.2-1.7,1-2.8,1.4c0.4,0.4,0.3-0.3,1.1,0.3c0.1,0.6-2.1,4.1-2.3,4.4c-0.5,1,0.3,0.6,0.2,2.2
		c-0.3-0.3-0.7-0.6-1-0.9c0.2,0.2-0.7,0.4-1.2,1.3c0.8,0.1,0.6,0-0.5-0.2c0.2,1,0.5,1.2,1.1,0.6c0.8,0.8-3.9,2.2-1.2,4.4
		c0.2,0.2,1.8-1.4,2.1-1.4c-0.8,1.3-0.7,2.1,0.3,2.4c1.7-0.7,1.5-6.2,3.2-4.4c0,0.5-0.2,0.9-0.5,1.2c0.4-0.1,3.6,1.1,3.7,1
		c0.1-0.4-1.9-1.7-1.8-2.8c0.2-1.9,0.1-3.8,0.7-5.7c0.9,2.3,0.2,0.7,0.8-0.3c0.1-0.2,1.7,2.3,1.1,2.4c0.1-0.2,0.2-0.5,0.2-0.8
		c0.8-0.1,2.7,2.6,2.7,3.3c0.6,3,1.8,1.7,0.8-0.7c0.5,1.3,3.6,0.2,3.7,1.2c-0.1-0.4,0.3-0.6,0.3-1.1c1.1,0.6,1.9,1.5,2.9,2
		c1.6-0.2-4.5-7.6-5.1-6.9c0.4-0.5,2-0.2,2.2-0.1c-2-1.6-3.4-1.1-2.2-2.7c-0.5,0.1-1,0.1-1.6,0c0.2-0.6,0.2-1.3,0.1-1.9
		c0.2,0.7,0.2,0.8,0.2,0.3c0,0.5-0.2,0.9-0.7,1.2c-0.2,0.1-1.4-1.4-1.4-1.6c-0.5,4.4-9.1-3.6-6-5.5c0.5-0.3,4.3,5.4,4.2,5.2
		c-1.5,0.1,1.8-2.2,0.7-0.4c-0.2-0.4,0-0.7,0.5-0.7c0-0.5-2.3-0.4-2.1-0.9c1.6-4.2,5.4,0.6,7.5,1.4c0.1,0,0.9-1.7,0.4-1.7
		c0.8,2.2,3.6-0.2,2.5-1.8c-1.2-1.8-5.3-0.6-6.4-1.9c-1.7-2,2.5-4.1,1-5.3c-1-0.6-4.1,2.3-4.4-1.4c-0.6-0.3-0.9,1.1-1.6-0.1
		c-0.2-0.4,0.3-4.5,0.6-4.4c-1.3-1-3.7,0.4-4.2,0.4c-2.3-0.1-0.7,2.4-4.5-0.8c0.5,0.2,1,0.3,1.6,0.3c-1.3-1.2,0.7-1.8,2.7-0.1
		c-0.3-1.8,1.4-5,2.7-1.8c2.4-0.6-8-5.5-7-3.2c1.5-0.7,8.3-4.7,9.1-1.2c-0.1-0.4-2.2-1.6-1.8-2.1c0.1-0.1,4.5,3.5,5.3,3.4
		c2.5-0.3,0.6-3,1-3.3c-0.3-0.2-4.2,1-3.7-0.4c3.2-2.8-1.3-1.6,0.6-3.9c-0.8,0-1.6,0.1-2.4,0.3c2.4-1.3-4.6-4-2.6-0.5
		c-0.4-0.8-0.4-1.7-0.2-2.5c-1.9,2.3-12.9-0.9-15-1.8c1.8,1.3-3.4,2.3-3.6,2.7c-0.2-1.7,5.4,0.7,0.1-2.5c1.5-0.3,8.5-2.1,4.8-2.7
		c-0.3-0.6,4.1-1.4,3.3-2.5c-0.4-0.7-4,0-3.8-0.4c0.6-1.8,6.7-2.8,8.4-3.3c-0.5,0-9,1.2-9,0.8c-0.2-2.5,3.2-1,3.6-0.8
		c0.1-4.5,1.4-4.3,3.4-1.5c1.2-1.1-0.1-3.6,1.3-4.9c1.2-1.1,2,1.8,1.6,1.8c1.3-1.5,2-1.5,2.2,0.2c0.6-2.3,6.5-0.7,6.1,0.8
		c0.6-1.6-2.3-2.7-3.1-3.3c-0.1-0.3,5-0.7,5.2-0.6c1,0.5,4.1,3.2,4.6,3.8c-1.7,1-0.9,2.4-2.9,0.5c0.8,4-4.5,1-4.8,2.2
		c-0.9,2.8,5.9,6.3,8,6.4c0.6,0.9-6.2-1-5.9-1.5c-0.8,1.6,2.7,2.8,3.1,3.6c0.5,0.8,0,2.9,0.5,3.1c2.6,1.4,8.1-3.1,4.8-4.6
		c1.7,0.7,6.8,1.2,6.4,0.2c-0.4-1-2.2-2.1-0.8-3c0.4-0.3,4.7-0.2,4.6-0.5c-0.1-0.2-3-0.3-2.5-1.5c2.4-1,1.2,1.4,3.9,2.2
		c3,0.9,6.1,0.4,9,1.7c-2.4,0.4-3.1,1.8-1,5.4c-2.9-1.6-5.8-3.2-8.6-4.9c3.4,2.7,7.4,4,3.3,6c-1.3,0.8,3.8,2.9,3.8,3.1
		c-1.1-2.6-1.4,1.5-1.9,1.5c-1.7,0-3.5-1.3-4.8-2.6c2.8,3.1,21.5,20.2,7.5,18.4c4.5,1.8,5.3,3.3,5.8,8.1c-1.4-0.2-2.7-0.4-4.1-0.6
		C856.2,200.8,856.6,201.8,856.6,205.7C855,205.3,856.6,204.7,856.6,205.7C855.1,205.3,856.6,204.5,856.6,205.7z M979.6,226.3
		c0,54.6-1.1,109.3-1.2,163.9c-6.7-1.1-11.6-3-13.2-10c-2.4-10.4-1.1-22.6-1.2-33.2c-0.1-12.8,0.3-25.6,0.4-38.4
		c0.1-10.1,0.7-14.6,6.6-22.7c-2.2,1.3-4.4,2.6-6.7,3.8c0-7-0.7-13.1,5.9-17.3c-4.1,1.8-6.5,0.3-6.7-3.9c-0.3-5.6,4.9-6.5,8.5-8.9
		c-5.6,1.6-6.3,0.7-7.5-5.1c-1.3-6.2-0.3-12.7-0.3-18.9c0.1-12.4,1.7-18.2,14-22.8c-5,1.3-9.5,4.2-14.1,6.7c0.4-2.5,1.8-4.8,4-6.1
		c-1.4,1.2-2.8,2.4-4.1,3.6c-0.5-7.7,4-10,6.8-16.4c-1.6,2.9-4.3,4.5-7.4,5.4c-0.1-1.8-1.4-6.5-0.2-8.2c0.6-0.8,5.2-2.3,5.2-1.6
		c-1.2,1.5-1.4,1.4-0.1,3.5c0.2-0.4,0.8-3.3,0.7-3.3c1.1,0.8,8.8-0.4,8.8-4.1c2,1.7,2,8.3-1.8,7.3c3.3,1.3,2.5,4,2.5,6.9
		c-2-1.3-3.9-2.7-5.8-4.1c3,2.8,5.8,5.5,6.7,9.8c0.3,1.5,1.4,6.4-1.7,3.9C979.7,219.3,979.6,222.5,979.6,226.3z M1228.5,460.8
		c-7.7-0.8-2.5-16.5-2.1-21.1c1.3-13.6,2.5-27.3,4-40.9c3.2-28.2,6.8-56.4,8.9-84.8c0.7,49.1,1.4,98.3,1.5,147.4
		C1236.8,461.5,1232.6,461.3,1228.5,460.8c0.5,0.1,1,0.1,1.6,0.2C1229.6,460.9,1229.1,460.9,1228.5,460.8
		C1221.4,460.1,1233,461.3,1228.5,460.8z M1344.6,451.7c-9.2,1.7-17.9-2.7-27-2.9c-8-0.2-15.8,2-23.5,3.6c-15.8,3.3-32.2,8.4-48.4,9
		c-0.3-38-0.6-76.1-1.1-114.1c-0.2-18.5,0.4-37.3-1.2-55.7c-0.5-6-1.9-12.6,2-17.7c3.8-4.9,10.9-6.5,15.7-10.3
		c-3.7,1.7-12.5,9.9-16.9,8c-7.9-3.5,3.7-10.9,3.7-15c0.1-3.2-2.6-4.9-3.1-8.1c-0.3-2.1,0.8-6.7,2.1-9c4.3-8.1,15.1-10.8,23.6-10.1
		c-2.6-0.4-5.2-0.7-7.8-0.9c3.1-1.9,6.1-4.1,8.2-7.1c-7.3,6.2-16.5,8.9-25,12.9c0.1-3.2-1.1-8.3,0.6-11.2c2.7,1.6,5.3,3.2,8,4.8
		c-2.4-1.9-8.9-5.8-4.6-8.1c1.3-0.7,9.2,1.9,8.1,3.2c-0.3-3.7,6.8,1,6.5-3.8c-2.2-1.2-1.9-1.3-3.8-2.9c0.1,0.1,5.3-1.8,5.4-2.3
		c-1,4.9,4.7,3.1,6.6,5.1c0.6,0.6,2.9,8.3,2.9,7.4c0,1.6-4.2,12.3-6.4,10.4c4.2,3.9,8.1,1.1,11.1-0.8c1.7-1.1,9.7-2.5,5.5-6.5
		c-0.9-0.9,3.1,0.1,2.7,0.3c-0.2-1.6,0.5-2.3,2-2.1c-0.2,1.1-0.8,1.8-1.8,1.9c-1.3,0.7-1.4,0.8-0.4,0.1c2.2,1.1-0.6,3.4,3,3.2
		c-0.9-0.9-1.4-0.8,0.1-1c-0.4,0-0.7-0.1-1-0.3c1,0.8,0.6-4.6,1.1-5c-0.2,0.6-0.2,1.2,0,1.7c0.4-4.4,5.4-7.6,7.2-3.4
		c1.5,3.4-2.2,6.1,2.8,5.9c0.4-1.1-1.8-0.6-2.1-1c-0.1-0.1,0.9-2.8,1-2.8c1.6-0.6,4.4,4.6,6.6,2.8c-1.7,1.1,3,4.2,4.2,3.7
		c2.2-1.8-0.9-6.3-2-7.8c-0.7-0.9-0.9-2.7-1.4-3.7c-0.5-1.1-0.6,1.2-1.9,0c-1.2-1.4,3.4-2,2.4-3.2c-0.7-0.3-3-0.6-3.3-1.6
		c-0.6-1.7,0.4,0.1-1-1.5c-0.5-0.6,4.7-1.9,0.7-2.8c-0.2,3-1.6,0.6-2.1,2.1c0-1.1-0.2-2-0.9-2.9c1.3,1.7-12.1-0.5-6.7-2.8
		c-1.1,0.1-2-7.3-1.2-7.9c0-0.3,5.4,6.8,3.8,6.5c0.9,0.1,4.2-5.1,4-4.5c-0.2,0.9,0.1,1.1,0.8,0.5c-1.5,0.2,1.1,6.3,1.9,7.2
		c0.4,0.4,3.6-1.8,4.9,1.1c0.2-0.5,0.3-1.1,0.2-1.7c1.8,0.4,5.1,1.5,6.5-1.7c1.4-3.2-1.1-2.9-2.4-5.5c1.4-0.3,4.7-3,1.9-4.1
		c1.5,0.6,6.2,0.7,5.8-0.1c-1.6-3.6,3-3.9,3.2-3.3c-0.1-0.2-2.8-0.2-2.3-1.2c2.4-1.2,0.6,1.1,3.1,1.8c2.9,0.8,5.9,0,8.8,1.2
		c-2.1,0.5-2.8,1.8-0.6,4.9c-2.7-1.3-5.4-2.7-8-4.1c2.3,1.6,3.5,3.7,4.3,4.8c0-0.1-1.4,0.5-0.9,1.3c0.5,0.9,3.3,1.3,3.5,1.9
		c0.6,1.2-4.5,0.8-6.1-0.7c2.7,2.7,20.4,17.3,7.7,16.4c3.6,1.2,9.8,7.5,1.9,6.7c4.4,1.6,6.1,6-0.3,4.8c3.6,1.7,3.8,3.5,4.6,7.1
		c-1.8-0.9-3.6-1.9-5.4-2.8c5.5,4.9,4.8,11.3,5.4,18c0.1,1.2,1.7,15.4-1.2,13.2c1.2,2,1.7,4.4,1.4,6.7c-1.9-0.8-3.9-1.6-5.9-2.3
		c9.4,5.8,6.7,17.7,7.2,27c-1.9-2.4-3.7-4.7-5.6-7.1c8,12.3,8.9,27.7,8.9,41.9c-0.1,15.8-0.6,31.3,0,47.1c0.6,16.4,0.6,33,2.1,49.3
		c0.8,8.7,4.2,18.8-6.5,20.9C1341.7,452.3,1343.1,452,1344.6,451.7C1335.4,453.5,1345.5,451.6,1344.6,451.7z M1388.1,330.9
		c-0.8-0.2-1.7-0.5-2.5-0.7c6.2,8.5,1.7,23.3,1.2,32.9c-0.8,16-0.6,32.1-0.6,48c0,6,0,12,0.4,17.9c0.3,3.9,1.8,9.6-0.3,13.3
		c-4.7,8.6-21.4,5.2-29.3,6.8c-2-44.4-3.2-88.9-7-133.3c-1.1-13.1-2.5-26.1-3.7-39.2c-0.7-7.1-4.5-26.2,2.8-31.3
		c-5.6,1.5-3.5-17.1-3.6-19.7c5,0.8,9.9,1.6,14.9,2.4c-9.1-2.6-13.8-2.5-15.4-12.8c4.5,0.1,9.1,0.2,13.6,0.3
		c-3.1-0.4-12.1,1.2-13.6-2.5c-0.8-2,3.4-3.2,1.7-4.5c2.7-0.5,8.4-3.6,8.9,0c-1.8-2.2-4.4,0.2-4.3,1.3c-0.2,0-0.4-0.1-0.5-0.3
		c-1,0.3,3.5,2.6,3.8,1.3c-3,2.6,4.9,1.4,5,1.5c0.3,0.2,2.2,4.6,2.5,4.6c-0.7,0-1.8-2.6-3.2-2c0.2-0.1,19.6,13.3,22.3,15.1
		c-5.1-0.3-8.8-4.5-14-4.5c4.2,0.5,19.1,3.6,19.1,9.4c-5.3,0.4-10.2-0.1-14.6-3.4c2.9,3.6,14.8,3.4,14.8,8.6
		c-3.8-2.1-8.6-2.2-12.8-2c8.9,1.4,12.5,2.7,13.3,12.3c-6.7-1.9-13.3-4.5-19.1-8.5c6.5,8.9,18.8,7.3,19.6,20.4
		c-4.9-4.4-9.6-15.4-17.7-14.4c11.2,3.9,17,16.3,17.5,27.5c-2.9-1.7-5.9-3.3-8.8-5c1.8,1.5,3.6,2.9,5.5,4.3
		c-12.3-4.3-23.2-11.4-34.2-18.3c9.9,7.3,19.6,14.2,30.7,19.4c3.4,1.6,5.9,1.8,7.3,5.9c1.1,3,0.5,9.4-4.3,8.6
		c7.6,5.1,3.8,19.6,3.8,27c-9.1-1.3-17.2-5.4-25-9.9c6.5,5.3,15.4,6.6,21.9,11.7c4.6,3.7,3.2,7.9,3.4,11.1
		C1387.9,329.5,1388,329.7,1388.1,330.9C1387.3,330.7,1388,328.6,1388.1,330.9z M1391.4,263.9c-0.1-3.7-2.2-9.5-0.8-13.1
		c1.2-3,6.9-3.2,6.2-1.3c-0.1-1.6-0.4-3.2-0.9-4.7c0.6-0.2,1.3-0.3,2-0.2c-1.9-1.9-4.6-2.9-6.5-4.9c14.2-4.7,15.1,14.7,8.5,13.6
		c4.7,3.2,5,10.6,3,15.4c-2,4.9-6.4,6.2-10.8,8.6c0.4-2.5,1.8-4.8,4-6.1c-1.4,1.2-2.8,2.4-4.1,3.6c-0.5-7.7,4-10,6.8-16.4
		C1397.2,261.4,1394.5,263,1391.4,263.9c-0.2-1.1,0-2,0.7-2.6C1393.5,260.8,1392.6,263.6,1391.4,263.9
		C1391.3,260.1,1395,262.8,1391.4,263.9z M1404.4,293.9c-0.8-0.2-1.7-0.5-2.5-0.7c6.2,8.5,1.7,23.3,1.2,32.9
		c-0.8,16.1-0.6,32.4-0.5,48.6c0,15.4,0.1,30.8,0.1,46.2c0,12,1.9,17-9.9,21.5c-0.7-19.7-1.2-39.3-0.8-59c0.2-9.2-1.1-19.4,0.4-28.5
		c0.8-4.9,3.6-7.1,6.4-11.1c-2.2,1.3-4.4,2.6-6.7,3.8c0-7-0.7-13.1,5.9-17.3c-4.1,1.8-6.5,0.3-6.7-3.9c-0.3-5.6,4.9-6.5,8.5-8.9
		c-8.7,2.5-7.1-4.2-7.2-10.4c-0.1-9-3-18.7-0.7-27.6c3.5,1.7,9.3,0.2,12,3.5c2.3,2.8,0,9.4,0.1,10.2
		C1404.1,292.5,1404.3,292.7,1404.4,293.9C1403.6,293.7,1404.2,291.6,1404.4,293.9z M1597.4,387.9c-13.3,2.2-26.2,7.6-39.8,7.9
		c0.1-32,0.3-64.1,0-96.1c-0.1-11.8,0.2-23.5-0.9-35.2c-0.6-6.3-3.8-21,2.8-25.3c-6.8,1.1-4.5-38.3-4.8-42.3
		c2.6,1.5,3.4-0.8,1.7-2.6c0.8,0.6,6.2,0.7,6.7,0.6c0.5-0.1,4.4,2.4,2.3-1.9c3.3,1.7,4.5,2.8,8.3,1.6c1-0.3,7.7-3.8,4.8-4.9
		c3.3-1.5,0.8,2.4,2.1,2.6c1.5,0.2,3.2-1.7,4.6-1.2c2.1,0.7,6,7.7,1.7,6.3c0.5-0.5,0.6-0.9,0.3-1.4c-3.9-1.7-8.3,4.2-6.7,7.2
		c1.3,2.4,5.4,3.7,7.6,5.1c-0.1-0.1,5.8,3.8,3.1,3.3c0.9-0.4,1.5-1.1,1.7-2.1c-0.5,3.9,5.8,2,4.2-2.2c0.8,2.5,1.8,6.1,4.5,2.5
		c0,8.6-0.3,9.4-9,9.4c8.5,1.4,8.7,3.1,9.2,11.3c-2.6-0.9-5.2-1.8-7.8-2.6c4.1,2.1,9,4.2,8.2,9.7c-0.6,4.4-1.5,4-5.5,2.7
		c9.6,7.2,6.1,22,6,32.2c-0.1,16.2,0.7,32.3,0.9,48.5c0.2,15.8,0.2,31.5,0.3,47.3c0.1,9.3,3,18-8.6,19.9
		C1596,388.2,1598.4,387.8,1597.4,387.9C1583.9,390.2,1599.6,387.6,1597.4,387.9z M1646.6,223.3c0,40.5-2.1,81.1-1,121.6
		c0.3,9.5,5.5,25.6-4.3,31.5c-9.4,5.8-22.3,4.2-32.5,7.9c-0.3-34.3-0.6-68.7-1-103c-0.2-15.4,0.4-31-1.4-46.3
		c-1.8-15.2,7.6-15.1,17.8-23.2c-4.2,2-10.6,7.6-15.4,7c-2.9-0.4-3.1-0.5-3.7-3.3c-1.1-5.1,4.5-5.9,6.1-9c2.3-4.6-2-4.4-3.2-8.1
		c-0.5-1.6-0.4-6.3,0.1-7.8c1.1-3.6,17.2-14.1,17.7-10.8c1.8-0.5,0.4,0.6,2.2,0.4c0.6-0.1,1.7-2.6,1.8-2.6c0.4,1.9,1.4,1.6,3-0.7
		c0.5,0.7-2,1.7-0.5,2.7c0.6-0.3,1.1-0.6,1.5-1.1c-0.8,0.5,0.3,1.9,0.1,2.2c2-3.4,2.2-0.2,1.4-3.3c2.6,0.5,2.8,0,0.6-1.3
		c1.5,0,1.4,0.4,2.6-0.5c2.4,5.2-6.5,7.9-5.6,11.9c0.6,0.3,1.1,0.1,1.6-0.5c0,0.1-4.7,1.2-5,1.5c-0.2,0.4,0.8,4-0.7,1
		c2.3,3.1,4.1,1.6,7.3,3.1c-5.2-1.4-1.2,3.3-5.8,1.1c0.3,0-2.5,2.8-2.5,0.4c-1.7,1.7,9.5,5.2,9.5,3.2c-1,1.3-1.2,1.2-0.1,3
		c0.4-0.9,0.6-1.8,0.6-2.8c0.4,0.9,7.5-0.5,7.5-3.5c1.7,1.5,1.7,7.1-1.6,6.2c2.8,1.1,2.1,3.4,2.1,5.9c-1.7-1.1-3.4-2.3-5-3.5
		c2.1,2,5.6,12.7,4.3,11.7C1646.6,217.3,1646.6,220,1646.6,223.3z"/>
</g>
</svg>
