<?xml version="1.0" encoding="utf-8"?>
<!-- Generator: Adobe Illustrator 18.1.1, SVG Export Plug-In . SVG Version: 6.00 Build 0)  -->
<svg version="1.1" id="Layer_1" xmlns="http://www.w3.org/2000/svg" xmlns:xlink="http://www.w3.org/1999/xlink" x="0px" y="0px"
	 width="100%" viewBox="0 0 1680 1052" enable-background="new 0 0 1680 1052" xml:space="preserve">
<g>
	<rect x="651" y="921.7" fill="#7AA3A1" width="164.7" height="130.3"/>
	<path fill="#1F2D36" d="M760,923.9c0.5-0.1,0.5,1.1-5.5,0c3.8-2.3,12.2-7.7,17.1-1.7C773.4,924.5,761.1,923.7,760,923.9
		C757.2,924.5,758.4,924.2,760,923.9z M702.9,924.1c5.9,0.6,12.3,3.7,18.3,2.9c5.3-0.7,9-5.1,14-5.8c-11.5-1.9-23.1-1.1-34.6,0.2
		C701,924.4,704.3,924.2,702.9,924.1C708.9,924.7,700.9,923.9,702.9,924.1z M1668.1,701c2.8,2.1,9.6-2,12.6-2.3
		c-0.2,90.1-0.4,180.2-0.6,270.3c0,21.5,1.9,43.5,0.9,64.9c-0.6,12.9-3,18.2-16.5,19.9c-41.1,5.1-86.3-1.8-127.8-1.8
		c-315.3-0.2-630.7,0-946,0c-157.6,0-315.1,0-472.7,0c-20.4,0-40.8-0.2-61.2,0c-14.6,0.1-32.8,4.4-47,1.5c-24.4-4.9-9.9-62-9.8-81.2
		c0.4-79.6,0-159.1,0-238.7c5,4.4,11.1,5.3,11.3,13.2c3.3-0.3,1.1-4.7,4.1-5.1c2.7-0.4,0.9,5.3,2.8,5.3c4,0-0.8-6.8,4.5-2.7
		c-0.2-51,0.3-102,1-153c0.3-25.9-0.3-51.9,0.5-77.9c0.4-13.6,4.4-35.5-8-45.2c6.6,3.3,11.3-23-4.9-24.6c3.3-0.4,6.6-0.7,10-1.1
		c-7.2-6.3-14-13-20.8-19.7c7,6.2,14,12.3,21.4,18c-1-3.9-2.9-7.3-5.7-10.2c1.5,2.4,3.6,3.6,6.2,3.5c8.1-5.8-16.1-22.3-18.1-24.2
		c5.2,4.1,10.8,7.9,16.7,10.8c0-9.1-6.9-15.6-8.9-24.1c1.5,4.3,4.9,8.2,8.9,10.4c-1.8-9.8-9.9-15.4-19.1-17.6
		c4.4,0.8,8.8,1.8,13.1,3c-2-4.2-4-8.5-5.9-12.7c3.6,6.2,7.2,12.4,10.8,18.6c0-5.7,1.3-15.9-2.3-21c-4.8-6.8-5.5-1.8-10-5.9
		C1,365.5,0.1,361.1-0.3,352C-1.6,326.7,0,300.8,0,275.5c0-27.3,0.8-54.8-0.3-82.2c-0.2-4.8-3.4-35.6,8.5-27.8
		c0-1.9,0.2-3.8,0.4-5.7c2.8,2.8,10.3-0.2,16.5,4.7c1.3,1.1,5.1,2.5,5.7,3c-0.4-0.3-3.3,2.1-1,4.4c0-5,6.4,0.7,9.1-4.4
		c1.5,1.9,1.3,3.7-0.6,5.3c0.5,0,17.8,2.9,17.6,5.1c-2.1-0.6-2.9,0-2.5,1.7c1.7,3.4-1.1-6.3,4.3,2.7c-1-1.7,1.7-1.6,1.4-1.1
		c-4.9,8.4,16,6.2,15.9,9.1c1.1-1.1,1.9-2.4,2.4-3.9c0.7,5,38.6-6.3,36.1,3.7c0-1.3-4.2,0.5-4.4,1.2c-0.5,1.3,1.6,4.2,0.9,5.7
		c0,0.5-4.6,0-5,0.9c-2.3,5.7,16.3,2.3,11,9c0.1,0,4.1-2.6,3.9-1.8c-4.2-4.1,1.9,2.6-0.5-4.6c3.5,3,9.8-7.8,10.1-0.8
		c0.4-3.5,1.9-4,4.6-1.5c8.4,5.7-0.9-19.7-0.8-19.9c2,0.6,3.9,1.4,5.7,2.3c0,0-2.3-6.1-2-6.7c0.3,2.1,1.4,2.6,3.3,1.5
		c-3.4,2.5,5.1-5,3.6-2c0.6-0.6-7-3.8-7-3.9c2.1-0.8,11.4-1.8,7.5-6.2c-0.9,1.1,6.2-5.2,4.7-4.3c-0.4,0.2,2.8-3.5,2.5-3.2
		c0.7-0.7,3.3,3.1,5.3,1.1c-4.7-1.6-0.1-3.7-1.4-8.1c1.2,0.6,1.7,1.6,1.5,3c-1.1-10,3.7,1.5,6.2,3.4c8.1,6.3,13.5,3.7,20.4,5.6
		c0.1,0,1.6-5.2,1.5-5.4c0.9,4.4,10.9,6.2,2.3,9.5c7.2-1.8-0.1,2.4,9.5,0.8c2.5,2.5-5.4,7.2,1.6,5.5c-2.6-0.3,0.1,8.6,1.1,9.5
		c2.1-4.3,1.9-13.9-0.3-17.4c2.4-1.4,8.2,1.9,3.3-3.6c1.3-0.9,2.4-2,3.3-3.2c0,0-16.1,5-15.2,2.6c1.8-5,6.9,3.2-3.8-5.5
		c1.1-3.4,4.6,3.7,6.9,0.5c-0.5-0.3-7.4-4.3-7.4-4.5c2.6-3.9,4.6,5.9,3.2-4.2c0.5,2.3,11,4.1,4.8-1c1.4-0.3,14-1.8,14.3-1.1
		c-1-1.7,1.5,10.3,1.6,7c0,1.6-6.2,9.9-2.9,10.9c1.1,0.3,9.5-6.6,10.4-7.4c-2.1,5.9,14.1,5.5,7.1-1.1c-1.2-1.1-10.4,0.4-10.6-1
		c-0.3-2.3,12.7-4.1,12.7-8.6c-1-1-5.8,3.7-7.3,3.2c-4.4-1.3-3.2-7.3-3.8-8.1c-1.8-2.6-7.5-1.8-10.2-3c-4.8-2.2-5.3-1.4-3.6-2.4
		c1.1-0.6-10,1.7-9.6,1.8c0.2,0-7.7-1.6-7.8-1.8c1.5-0.4,2.9-1,4.2-1.8c-0.1,1.3-11.9-4.1-12.1-4c4.6,2.2-4.2-9.5-2.9-10.8
		c1.1,1.1,2.4,1.9,4,2.4c-0.7-1-6-8.6-4.2-9.5c6.9,3,1.8-4.9,4.9-7.7c1.6-1.5,9.5-6.9,12.6-8.9c3-2,1.6,12.1,5.8,1.5
		c1.2,0.6,2.4,1.3,3.6,2.1c2.1-1.4,3.6-7.1,6.6-9c4.2-2.6,1.9,3.9,5.4,3.2c0.8-0.4,0.9-21,10-11.9c2-1.5-3-10.4,2.9-3.4
		c-1.9-12.3,10.2,0.2,14.4,0c2.7-0.2,8.7-8.6,9.1-10.2c1.1-1.1,2.4,4.1,2.5,4.6c-0.6-1.6,8.2-9.7,0.2-16.7
		c7.4-4.2,14.7,3.7,22.1,0.1c4.5-2.2,4.7-8.1,8.1-11.2c2.8-2.5,6.2-3.2,9.2-5.6c3.9-3.1,1.7-5,7.2-7.7c-1.2-0.6-1.7-1.6-1.6-2.9
		c1.8-0.4,9.4-0.7,7.8,3.6c4.2-11.1-2.7-16.5,10-18.9c3.6-0.7,5.3,6.2,7.7,5.2c5.9-2.5,0.3-9.9,3.1-12.6c6.9-6.9,18.6,0.6,27.6,1.6
		c3.7,0.4,23.8-5.1,24.3-4.5c1.5,1.7-3.5,10.1-3.5,10.1c3.7-0.4,6.2,2.6,1.5,4.2c2.3-1.8,15.6-4.7,17.6-1.5c4.7,7.9-6.3,5-9,4
		c3.5,1.3-1.7,7.4-3.3,7.6c1.5,0.5,3,1,4.5,1.6c-5.1,7-6.9-3.4-11.6-1.1c3.9-2-5.9,13-5.2,9.3c0,0.4,16.9-1.1,16.8,5.7
		c0.1-3.6-12.1,0.4-13.9,6.4c0.3-1,8.9-0.2,9.9-0.2c6.5,0,0.5-6,7,0.1c3.9,3.7,0.4,10.9,2.5,14.4c2.9,4.8,5.4,3.5,10.1,6.4
		c0,2.4-1.6,3.9-4.6,4.4c1.3,1.1,8.6,31.8,20.3,21c-1.5-0.5-2.6-1.4-3.5-2.7c-0.4-7.3,6.7,11,2.4-6.6c0.9,0.5,4.5,3.1,2.8-0.6
		c0.4,1.4,0.7,2.8,1,4.2c1.4-1.2,3.7-2.5,4.5-1.1c1.8,2.6-2.4,4.7-0.2,7.5c2,0.2,3.2,3.2,6.8,4.2c2.7,1,5.5,1.2,8.4,0.5
		c3.7-4.4,6.3-4.2,7.8,0.6c0.1,0,2.1-5.7,2.1-6c0.7,4.9,11.9,7.8,2.1,10.9c4.3-1.2,5.8,0.1,4.5,4c1.1,0.1,5.1-4.4,6.3-2.6
		c1.8,2-2.9,5.4-1.8,6.4c3.7,3.5,1.4,1.3,2.4,8.9c0.3,2.6-11,7.4-0.5,5.5c-2.4,1.6-2.9,3.2-1.4,4.7c8.6,0.3,4.6-2.9,5.9,5.3
		c0.7,4.4-7.2,13.5,3.9,9.4c-0.1-0.1-4,4.7-3.8,5.4c0.7,1.5,6-1.9,6.6-2.3c-4.9,1,5.7,8.9,4.3,7.2c-0.6,0.1-13.3,11.1-10,5.1
		c-3.4,6.1-30.3,1-20.6,12.3c-0.4-1.1,2.8-4.9,4.1-3.5c2.1,2.3-2,7.1,1.2,10.3c2,2,7.2-8,7.3,0.1c3.4-3.1,10.3-1.4,14.1,1.4
		c1.1,0.8-1.9,4,1.9,6.3c1,0.6,7.5-1.8,7.1-2.4c-2.3,5,12.9,2.3,10.8,7c0-0.3-10.1,4.9-10.7,5.1c-3,1.2-0.9,4.8-5.9-0.7
		c-1.4,7.3-7.6,3-9.9,9.9c0.8,1.8,2.3,2.4,4.6,1.9c-8,2.7,6.7,3.5-1.7,4.9c2.5,0.4,3.7,1.6,3.6,3.6c-1.5,0.9-7.9-1.2-7.5-1.4
		c0,9.2-8.6-1.5-12.5-1.8c-2-0.2-21.5,4-20.9,6.6c0.6,2.4,8.1,0.4,7.9,2.4c-1.9-0.6-3,0-3.2,1.8c0.9,1,9.2,4.4,10,3
		c-0.7,1.9-0.8,3.9-0.3,5.8c1.4-2.7,7.2-9,10.6-7.6c5.6,2.3-2.8,4.7-2.1,8.1c0.2-3.2,1.7,4,3.8,2.1c-0.1,0.1,0.1-4.5,0.4-4.7
		c-1.3,0.8,6.8-8,6.3-6.6c0.5,1.1,4.3,9.5,5.1,4.6c-0.2,1.1,2.3,6,2.1,6.4c-0.6,1.2-5.2-2-5.1-2.9c-2.1,3.8,1.7,11,2.2,3.4
		c2.1,2.3,15.2,12.4,15.4,15.2c0.1,1-10.7,4.6-4,8.3c2.5-0.3,3.7-1.9,3.7-4.9c0.7,0.8,1,1.7,1,2.7c4.9-2.3,5.8,1.1,8.8-0.7
		c0.6,1.3-5.2,6.6-5.6,6.1c1.9-0.1,3.3,0.5,4.2,1.8c-0.7,1.5-13.4,2.5-13.5,1.8c1.4,1.5,6.9,4.2,5.2,7.3c2.4-6-16.6-3.9-16.2-4.3
		c0.4-1.4,0.2-2.7-0.4-4c-2.5-3.4-5.5,8.7-6.3,9.2c-0.2,0.1-2-5.9-2.3-6c-3.1-0.5-3.9,6.4-4.8,7.9c-1-1-1.9-2-2.8-3.1
		c0.1,0-4.6,4.6-4.6,3.6c0.3-0.9,15.9,0.8,17.8,0.9c-2.2,0.2-17.4,1-17.4,4.2c-0.1-4.9,6.3,1.9,7.3,2.3c0.5,0.2-7.1,3.2-7.1,3.4
		c5.4,1.7-10.5,3.6-12.9,4c-2.6,0.4-16.4,1.7-16.2,3.3c1,5.4,30.3,3.8,25.9-3c6.9,5.2,21.5,5.9,28.9,7.8c-0.6,1.7-0.7,3.4-0.3,5.1
		c-2.5-6.6,9.5,0,5,1.7c1.6-0.3,3.2-0.2,4.9,0.1c-1.6,1.5-1.6,6.1-2.3,8.1c-0.2,0.5,6.9,1.1,7.1,1.3c-1.5,2.2-2.8,4.5-3.9,7
		c-1.6,1.8-5.4-11.6-8.3-9c0.5,1.8,1.4,3.4,2.8,4.7c-0.8-7.9-18.1-0.2-18.3-0.2c-2-5.3,16.7,7.8,12.7,8.3c-0.5-0.8-6.5-5.3-2-1
		c-3.9-1.9-5.2-0.6-3.8,3.8c-8.1-10.1-1.1,1.6-8.2-1.8c6.1,6.8,9.3,1.5,10.8,2.4c2.1-1.8,4.1-1.5,6,0.8c-0.9,0.9-1.4,1.9-1.5,3.2
		c-0.3-0.4,1,6.3,0.7,5.7c0.8,1.7,6.9,3,6.8,5.7c0.7-1,1.7-1.5,3-1.6c0,8.3-7.2,2.8-1.8,10.5c1.7,2.4,7.3,0,8.8,2.1
		c3.2,4.5-2.8,10.6-3.9,5.7c-0.1,1.2-0.5,2.3-1.3,3.1c-2.8-0.7-12.1-12.9-14.5-5.1c1.3,0.9,2.7,1.7,4.1,2.5c-1.1,0-1.5,0.4-1.3,1.3
		c-1-1.7-1.5-1.4-1.4,0.6c0-0.1-5.8-11.9-6.7-11.5c-7.5,3.3,8.2,20.5,10.2,12.5c-0.4,1.9,4.2,6,3.8,0.8c-1.9,3.4,3.2,7.2,5.9,10.3
		c-1.4-0.7-2.8-0.9-4.4-0.5c-0.1,0.1,3.2,6.9,4,2.8c0.3-0.3,5.7,12.3,4.1,12.2c-1-0.3-1.8,0-2.4,0.8c-0.8-1.9-1.7-3.7-2.6-5.4
		c-1,3.3-5.8,0.1-8-1.7c1.2,1,2,6.1-1.2,5.5c-3.6-0.7-0.5-15.7-5.4-9.8c1.5,0.1-1.4-5-1.4-5c-1.3,1.7-0.6,5.1-1.6,0.4
		c-2.2,4.3,0.1,16.2-0.3,17c1.6-1.4-7.6-2.3-5.5-2.7c1.8-0.3-4.1-5.4-0.4-1.4c-2.1-0.4-8,1.9-8.2,5.7c1-1.2,1.3-2.5,1.1-4
		c-1.6,0.6-3.3,1.2-4.9,1.7c-1.5-0.4,2.8-7.6,2.1-8.4c0.1,0.1,3.2-2.3,5.2-0.8c-1.2-7.9,5.6-5.8,5.9-12.3c-1.1-0.1-2.1-1-2-1
		c0.3-0.6,4.2-3.4,6-2c-0.6-3.7-0.1-9.1-2.9-12.1c-1.4,1-2.6,7.2-4.2,7.1c1.2-2.7,0.5-3.6-2.2-2.7c0.6-0.4,5.6-8.1,1.6-7.5
		c-0.8,0-1,9.1-2.1-0.9c0,0.3-0.1,3.1-1.1,1.9c-2.1-2.4,5.9-4.7,6.4-5.4c2-2.6-10.6-7.5-10.1-7.5c-0.1,0-0.9,3-0.8,3.9
		c-3.6-6.1-2.4,4-6-1.5c0.7-1.6,2.2-2.3,4.4-2.1c-0.9-0.4-1.9-0.9-2.8-1.2c3,1.1,2.2-3.5,6.5-1.8c0-1.1-4.6-10-7.5-8.3
		c0.2,1.3,0.4,2.6,0.7,3.8c0,0-6.9-8.6-6.1-6.2c0.1,0.1-2.1,6.8,0.2,6.1c-2.2,0.3-3.2,0.7-5.5-0.3c2.5,1.7,4.6,3.8,6.1,6.5
		c-12.9-10.8-0.5-2.1-3.5-0.8c-2.7-0.9-3.5-6.3-7.3-7.8c-4.9-1.9-5.4,2.5-12.3,2.1c4,6.7,19,9.9,26.2,8.4
		c-2.2,0.5-15.8,3.5-15.3,6.4c2.2,1.4,3.9,0.7,5.1-1.9c-2.4,4.8-0.6,3.7,2.8,2.8c-1.4,5.2,2.2,2.1,7.3-0.5c-2.9,1.9-5.9,3.8-9,5.5
		c2.3-1.3,7-0.1,3.7,1.8c-6.4,3.7-10.6-3-18.8-0.7c3.4,2.8,6.7,5.6,10.1,8.4c-6-1.4-1.2,4.8-2.1,7.8c-0.4,0.9-4.2-3.9-4.2-4.6
		c-7.2,9.7-5.6,14.8-5.8,27.5c4.8-1.2,9.7-3.8,12.4-8.1c-3.3,6.6-12.3,8.1-13.8,15.9c-1.4,7.4,2.7,9,8.3,4.6c-2.3,2.3-8,5.3-6.9,9.6
		c7.5-3.7,15-7.9,23.3-9.6c-17.4,5.5-22.5,15.6-24.4,32.8c-1.2,10.9-9.4,47.1,10.3,42.5c-5.4,3.2-14.6,4.8-14.5,13
		c0,6.7,3.8,10.2,10.6,7.6c-10.6,5.9-10.5,16.9-11.1,27.5c3.7-1.8,7.4-3.7,11.1-5.6c-20.5,25.4-14.6,64-16.1,95.1
		c-1.4,28.1-1.4,56.3-2.5,84.5c-0.9,23.9-2.4,47.7-2.6,71.6c-0.1,6.5-1.5,15.2,0.5,21.5c3.7,11.3,9.7,9.6,20.6,13
		c15,4.7,26.1,15.1,38.6,24.2c2.4,1.8,11.3,6.4,13.3,9c3.4,4.4,2.6,10,6.2,13.6c7.4,7.2,23.2-0.7,30.5,6.5
		c10.2,10.1-6.9,20.1,3.7,30.9c7.3,7.4,29.6,10.3,38.7,13.9c12.8,5,30.8,16.8,45,13.7c15.5-3.3,19.3-17,36.7-10.4
		c16.9,6.4,27.6,10.2,46.5,11.2c-13,9.7-5.2,37.7-4.3,51.2c1.7,25.2,3.2,55.3-9.4,78.1c38.5-0.2,76.9-0.4,115.4-0.6
		c-9-32.3,0.2-65.8-0.3-98.5c-0.2-12.5-2.3-25.3,7.7-34.4c9.6-8.8,27.4-12.8,39.7-15.9c26.5-6.6,48.7-21.5,74.1-31.2
		c13.7-5.2,19-8.2,20.3-22.1c1.6-16.9-2.9-34.6-4.7-51.4c-7.4-72.1-10.7-144.7-17.6-216.9c-3.4-35.8-7.2-71.7-12.1-107.3
		c-3-21.9-0.2-55.2-18.6-70.9c3,1.8,5.9,3.6,8.8,5.5c-0.9-7.5,2.4-33.2-11.9-29.4c20.5-10.8-6.7-29.6-15.6-37.2
		c6.8,4.5,13.6,8.9,20.4,13.4c-0.5-6.4-8.6-25.2-3.6-30.4c-3,3-7.6,14.1-12.8,13.3c1-6.8-2-0.9-2.1-5.8c0-0.4-4.3,3-3.4,3.3
		c-3.8-0.9,8.8-9.3,10.6-9.4c-2.9,0.2-15.8-4.9-16.7,2.4c1.1-1.4,1.8-2.9,2.1-4.6c-2,2.6-5,7.2-8.4,8.1c-5,1.3-1.5-3.4,0.8-4.4
		c-3.5-0.8-3.6-1.5-0.4-2c1.6,0.3,2.9-0.1,3.9-1.2c-1.8-4.7-1.6-1.4-2.8-6.4c1.5-0.3,3-0.5,4.5-0.7c-3.8-1.4,2.3-7.2,3.1-5.4
		c0,1.3,0.1,2.5,0.3,3.7c0.1-6.2,11.8-7,15.7-12c7.1-9.1-0.3-1.5-0.1-8.9c0-0.5,5.3-9.5,3.9-9c-7.6,2.2-3.3-5.9-8.5-4.4
		c-0.6,1.9-1.2,3.7-1.7,5.6c-5.1-9.3-21.9-0.2-21.2,0.7c-0.9-1.2,4-8.8,3.4-8.9c-3.4-0.6-9,12.9-8.9,13.4c1.1,7.2,9.6,9.1,15.9,11.7
		c-1-0.4-6.3,7.7-8,8.2c-0.5,0.2-15.2-0.9-13.2-0.5c-2.9-0.5-5,1.4-9.8-4.2c-3.2-3.6-10.3-7-1.6-8.2c-2.3-3.8-25-2.3-26.5-14.4
		c7.4,3.4,16.2-7.3,25-0.7c-1.9-1.2-3.6-2.7-5-4.5c2.3,3.2,7.3-6.7,8.5-6.4c-0.5,0,8.8,11.8,10.5,3.2c0.8-2-24.4-10.6-25.7-12.2
		c-5.2-6.6-0.8-11.3,0.6-14c-0.1,0.2,5.6,1.1,7.1-2.1c0.5-0.9-0.2-9.9-2.3-10.4c14.2,14,1.6-2.9,5.4-2.6c10.5,0.7-1.9,1.4,4.5-1.7
		c2.6-1.3,3.5-1.9,6.9-2.5c5.8-1.1,12.5,6.2,17.8,2.7c10.6-7-2.4-13.4-2.8-17.3c-1.4,1.6-13.2,0.1-15-2.9c-2-3.3,11.1-3.7,9.5-7.2
		c0.4-0.7,7.6,2.4,8.7,1.7c-2.1-3.4,5-14.4,7.5-16.6c-6.1-3.4-4.1,4.9-7.7,6c-3.8,1.2-7.3-2.2-10.8-0.6c1.9-0.9,0.1-9.8,1.6-10.3
		c-8.8,2.5-8.3,11.8-11.9-2.4c-1.6-6.5-2.2-17.4-0.7-23.8c0.7-2.8,4.2,1.3,4.6-2.5c0.5-4.6-1.4-8.6-2.4-13
		c-1.8-7.7-3.9-19.4-10.9-24.2c6.7-5,14.9,0,22.2-5.1c-0.6,0.4,6.7-9,6.5-8.6c1.6-2.7,2.9-8.8,5.3-11.6c1.3-1.4,9.5-5.2,8.3-0.2
		c3.5-14-3.6-11.5,8.7-16.7c1.5-0.7,3,4.3,4.3,3.3c4.9-3.7-0.5-6.4,2.2-10.1c4.4-6.1,12-3.5,20.7-2.7c-0.3,0,26.1,1.3,22.8-5.9
		c1.4,3-2.3,13-0.3,12.1c10.4-10.6,22.5,4.8,7.5,1.2c3.2,0.8-0.6,6.4-2,6.8c1.3,0.3,2.6,0.6,4,0.9c-2.5,4.5-9-1.5-12.3,1.7
		c1-1-1.1,7.2-1.1,7c0-0.5,14.1-1,15.1,4c-2.4-6.5-10.9,2.5-11.5,5.9c1-6,12.6-3.3,14.9-1.1c3.5,3.3-0.4,10,2.3,13.5
		c2.6,3.3,7.5-0.3,10.2,1.7c-0.1,2.1-1.4,3.6-3.7,4.5c5.5,3.7,1.2,3.1,3.4,7.9c0.8,1.6,7.6,6.8,7.6,5.4c0.3,7.4-6.4,1.6-10.1,6.2
		c-4.3,5.4,2.2,5.1,0.9,11.7c-3.3-1.2-28.7-6.4-28.7-3c1.3-0.5,24,4.5,25.7,5.1c8.6,3.4,4.5,2.8,6.7,9.4c0.5,1.6-0.3,9.1-1.8,9.7
		c3.5-1.3,4.9-11.1,10.2-8.5c-0.2,1-0.4,2-0.7,2.9c-0.8-8.8,23,3.3,22.8,2.7c1.4,5-9.9,9.4,2.1,10.2c0.6,0,13.5-8,13.6-7
		c0.2,1.4-4.2,6.2-3.4,7.1c0.2,0.2,3.9,4.3,4,4.5c-2.2-4.7,14.9,8.1,6.2,10.3c-4.3,1.1-4.5-2.5-8.3,0.7c-1.1,0.9-3.9,10.7-5.9,9.2
		c-1.4-1.1,0.3-3.9-2-4.8c-7.8-2.8,1.7,11.6,1,10.6c1.1,1.3-10.4,8.8-12.6,8.3c-2.9-0.7,3.5-15.9,0.4-19.4
		c-1.3-1.5-9.1,6.4-12.3,7.6c2.8-2.4,8.4,16,9.7,19.7c0.8,2.4-2.7,4.1-0.9,7.6c1,1.9,8.1-5.8,1.9,2.7c1.1-0.1,2.1-0.3,3.2-0.6
		c-1.4,5.5,0.9,10.8-1.6,16c-0.4,0.8-7.1,6.6-7.9,4.6c0.8,2.2,7.5-1.5,8.3,0.8c0.5,1.2-16.9,5.9-15.8,13.2c0.9-1.4,4.7-2.4,6.2-1.4
		c-0.9,0-1.2,0.6-0.8,1.7c2.8,1.3,8.7-4.3,13-2.8c3.3,1.2-9.4,6.9-9.5,8.5c0,0.2,4.9-3,5-3c0.2,1.1,1.9,11.3,2.9,11
		c2.2-3.6,5.2,17.3,5.7,16.7c-5.4,7.4-23.2-4.5-21.6-5.4c-6-1.3-0.9,8.8-7.5,5.1c-4,16,7,8.3,9,19.4c0.9,4.7-16.9,20.5-20.5,19.1
		c1.2,0.7,2,1.7,2.5,3c-2.7,0.5-4.1-0.7-4.4-3.6c0,12.7-4.1-1.6-9.1,2.2c-0.2-1.8-0.1-3.5,0.3-5.3c-0.4,2.2-2.3,7.3-4.6,8.4
		c-2.2-0.7-2.7-2.4-1.5-5.2c-0.4,4.3-7.6,6-9.1,9.7c5.4-0.7,10.7-0.5,16.1,0.6c-28.2-0.7-13.4,21.4,3.7,27.3c-3.1-1.1,6.9,3,9.3,3.4
		c0.2-5,1.8-6.4,4.6-4.2c1.5,0.6,3,1.4,4.4,2.2c2,0.4,8.2,5.9,3.3,5.3c2.1-0.5,7.9-2.6,10-1.8c1.1,2,0.5,3.4-1.7,4.1
		c1.7,0.4,2.6,1.4,2.8,3.2c-0.5-1.5,4.7-3.8,5.6-2.8c2.5,2.7-3.5,4.9,1.3,6.1c2.7,0.7,8.8-1.5,11.6-1.7c0.3,1.7-4.5,4-5.5,5
		c-1.6,1.8,1.5,1.8,1.2,3.7c0,0.3-11,0.1-11.6-0.8c1.3,2.9,3.3,3.6,6.2,2.4c-4.1,5.1-4.2-0.2-7.6-0.5c-5.5-0.3-2.1,2.6-6.9,2
		c-4-0.5-2.4-4.2-6.2-3.7c-2.7,0.4-7,2.4-9.2,2.5c-10.8,0.3-9.7-1.1-12.4-11.2c-1.2-4.4-9.3-27.9-17.9-18.9
		c-1.7,1.8,2.4,1.3,3.2,0.6c-5.9,10.5,2.5,14.2,10.8,18.5c-4.7-1.6-9.3-3.2-14-4.9c2.2,76,11.9,151.4,18.5,227.1
		c6.8,78.2,12,156.5,17.7,234.8c10.5-7.4,11.7-13.1,25.4-16.2c1.9-0.4,21.7-1.8,18.3-7.4c-1.1-1.9-16.2,3.3-14-4.3
		c0.4-1.5,5.5,1,6.5-1c-1.3-1.2-2.7-2.2-4.1-3.3c-0.6-1.5,4.1-0.6,4.2-1c-4-5.4,6.2-4.5,6.9-10.3c0.2-1.3-4,0.8-3.8-1.1
		c0-0.1,2-3.7,1.9-3.7c-4.4,5.5,11.6-5.3,4.8-6.2c1.2,0.1,12.5,6.5,12.5,6c-0.3-9.3-9.8-8.6-0.8-14.5c-1.9-0.6-3.8-1.2-5.7-1.8
		c0.2,1.3,4.7-5,2.8-4.6c5.6-1.2,13.4,7.6,14.5,12.1c3-1,0-5.3,2.9-5.9c2.4-0.5,2.1,4.9,3.9,4.6c1.3-0.3,2.2-6.4,4.1-5.6
		c-0.7-0.3,14.2,10.3,16,5.9c0.7-1.9-6.2-3.8-2.5-5.6c1.4-0.7,6.4,3.1,6.4,3.1c2.2-1.6-0.7-7.5-1.2-9.1c3.5,0.3,1.5,5.3,4.1,5.6
		c2.1,0.2,2.4-4.3,5.5-3c1.5,0.6,2,3.8,3.8,4.6c3.2,1.5,7.3,4.2,8.9,4.9c-3.8-1.8-0.6-24.7-0.5-28.6c0.7-19.9,1.6-39.7,2-59.6
		c0.6-38.2-0.2-76.5,0.1-114.7c0.2-38.5,1.1-77,2.3-115.5c0.6-19.9,4.7-40-3.7-55.5c6.3,5,4.1-5.5,3.8-8.2
		c-0.9-8.3-8.6-15-14.2-20.3c4,3,8.1,5.9,12.2,8.7c0-5.6,1.4-11.7-5.1-14.3c8,2.1,8-11.6,3.9-15.2c0,2.4-11,13.5-13.7,9.7
		c1.6-1.2,1.4-1.9-0.6-2.1c-3,3.5-3.3-0.1-5.5,8c-2.4-2.6-2.3-5.1,0.3-7.4c0,6.1-27-4.1-23.2-7.9c0,2.4,8.2-0.6,10.9,2.8
		c-3.7-5,5.3-7.7,9.4-6.6c-3.2-1.8-19-1.1-15.8-8.4c1.7-3.8,12.2-2.6,15.9-5.1c6.2-4.3,15.7-33.3,2-33.3c1.7,0,1.2,6.7,1.3,6.4
		c-1.3,1-2.7,1-4.1-0.1c9.7,5.3-2.4,4.2-2.8,3.9c0.6,0.4,4.9,0.6,4.9,1.7c-3-0.2-4.3,4.4-7.5,6.1c-0.5-2-0.4-3.9,0.1-5.9
		c-0.9,1.3-2.1,2.2-3.6,2.8c-1.4-2.5-1-4.7,1.3-6.6c-2.6,1.3-4.7,5.2-7.4,1.8c-7.7,0,0,15.9-8.4,2.5c-1.3,1.3-1.4,7.3-1.5-0.7
		c0.5,0.4-3.4,2.2-3.3,2.2c-1.4-0.7-1.6-1.6-0.8-2.8c-5.1,6.8-7.1-7.8-5.1-2.8c-3.6-0.9,1.7-2.5,1.8-2.5c6.4-2.6,2.1-1.8,10.4,1
		c0.1-1.1-3.6-4.3-4.1-4.1c2.5-1.2,4.2-5.2,7.6-0.5c-2.6,0,3-5.7,2.5-6.2c-0.3-0.3-6.8-3.1-6.8-3.1c2.7,1.1,3.1,0.4,1.1-2.2
		c1.4-2,16.8-2,22.4-5.6c4.1-2.6,12.2-8.1,6.3-11.6c-1.7-1-7.8,4.2-9,4.9c0.2-0.1-3.2-3.8-4.1-3.5c-0.4,0.1,3.8,5.9,1.6,7.4
		c-1,0.7-8.1-4.4-8.7-2.6c1.7,1.2,3.5,2.3,5.3,3.3c-2.4-2.4-4.2,4.6-4.6,5.3c-6-4.8-10.7-0.3-16.5-0.3c-0.5-0.5,0.1-3.7-2.2-4.7
		c-0.9,1.4-1.6,2.9-2.2,4.4c-0.9-0.7-1.4-1.5-1.4-2.7c4.4-0.3-10,12.7-7.5,6.7c-7.9,4.5-6.9-5.7-14.3-8.1c2.1,0.7,4.2,1,6.4,1
		c-2.6,1-10.9-15.4-1.3-3.8c-4.4-9.8,1.8,2,2.4-1c0.3-1.4-4-9.1-4-9.2c-1.7-0.7,13.9-1.4,12.7,0.8c0.7-1.6,1.3-3.4,1.6-5.1
		c-0.1,1-10.6-7.6-7.8-9.7c-1.6,1.2,12.4,1.1,13.4,0.8c6.9-2,6.5-3.9,14-1.7c3.3-5.5-9.5-6-9.6-6c1.6,0.1-17.9,5.4-16.1,2.7
		c3,0.7,5-0.4,6.1-3.3c-1.2,0-10.8,3.6-11.7,0.4c0.6-0.8,1.1-1.6,1.6-2.4c-0.8-1.5-7.6-0.8-6.6-3.8c2.7-0.3,5.7,3.1,5.1-1.8
		c0.8,0.8,10.6,4.4,9.5,1.7c-0.8-2.1-3.3-3.3-1.5-6.4c7.1,0.1,2.8,0.8,7.7-1.2c-0.6,0.2-3-3.8-2-3.8c1.8,0.5,7.5,4,9.4,2
		c1.9-1.9-23.1-10.8-24.9-11.5c19.1-0.9-16.6-7.9-4.6-12.2c2.1,1.2,3.9,2.8,5.3,4.8c0.3,0.3,0.6-5.4,0.3-5.1
		c-0.9,1.3,8.9-0.1,7.6-2.8c-1.6-0.4-1.1,0,1.5,1c-4.5-8.6,5.4,2.7,7.4-3.1c0-0.1-10.2-7.8-10.7-7.6c1.9-2,5.5,1.2,9.4,3.8
		c0.1-0.2,0.5-6.7-1.5-5.4c4.5,1.9,0.4-3.8,2.8-2.8c0.7,1.3,1.6,2.4,2.7,3.3c-2.5-6.7,13,5.2,12.3,5.9c-0.7-3.1-3.1-4.3,0.5-4.8
		c0-3.3-7.4-4.1-7.9-7.7c-0.4-2.7,7,4,6.1-2.2c3.5,5.8,13.5,5.6,13.7,11.3c-2.4-5.8,3.5,1.6,1.8-5.7c2.8-0.7,6.9,3.8,9.2,0
		c-0.6-0.1-12.6-3.4-8.7-8.4c1-1.5,5.5,3.1,6.6,2.5c2.3-0.8-1.9-2.1,1.1-3c1.8-0.5,2.7,5,4,4.2c2-1.3-1.1-3.4,3-3.9
		c6.4-0.8,4.7,6.3,4.9-1c0,0.4,3.4,3,4,2.4c-4.3-6.7-0.9-0.8,0.6-2.1c0-3.8-8.7-1.4-11-2.2c-3.7-1.3,0.8-3,0.8-5.4
		c-0.6,2.1-23.7,12.3-24.2,12.2c0.3-4.1-9.8-5.5-12.2-7.1c2.1-1.7,5.3-0.5,1.5-6.6c1.7,0,14.3,5.3,12.4,1.7c-1.1-0.9-2.1-2-2.8-3.2
		c2.3-3,4.3-2.4,5.9,1.8c1.5-2.3,2.5-5,4.6-1c-0.9-4.9,5.8,1.4,8.9,0.9c5.4-0.8,7.7-3.7,8.6-4c2.4,0,4.1,1.2,5,3.5
		c-3.9-3.5-12.4-3.1-17.4-3.8c-0.5-0.1-13.8-1.2-9-2.1c-1.3,0.8-2.4,0.5-3.4-0.7c0.9-1.3,1.9-1.5,3.2-0.5c0.4-4-8.4-3.3-0.8-5.9
		c-3.8-4.4-13.8,11.4-18.8-2c0.7-1.7,6.4,0.7,7.6,0c-4,2-1.2-5.6-0.4-6.6c1.4-1.5,7.7-1.1,8.8,1c2.5-5.4,1.2-4,4.1-8.7
		c1,0.4,2.1,0.5,3.2,0.4c-1.4-1.8-13-5.5-13.7-2.2c4.1-12.2,12.9-2.9,20.5-2.5c3.2,0.2,11.9-2.5,13.6-3.6
		c-5.8,3.9-15.4-5.8-19.6-3.6c5.4-2.9,8,1.9,0.3-4.3c0-0.3,8.6,0.8,9.5,0.9c-8.4-2.9,3.9-5.9,6.6-7c-2.4-5.4-13.6,4.8-16-1.5
		c-2.5-6.5,13.9-11,18.1-6.6c0.3-0.1,0.8-6.9,0.8-6.9c2.5,0.3,4.6,1.3,6.4,3.1c-1-10.1,12.2,5.2,13.9,3.6c-1.1-4.4-10.4-10.1-7-15.2
		c2,0.6,3.9,1.4,5.7,2.3c0,0-2.3-6.1-2-6.7c0.3,2.1,1.4,2.6,3.3,1.5c-3.4,2.5,5.1-5,3.6-2c0.6-0.6-7-3.8-7-3.9
		c2.1-0.8,11.4-1.8,7.5-6.2c-0.9,1.1,6.2-5.2,4.7-4.3c-0.4,0.2,2.8-3.5,2.5-3.2c0.7-0.7,3.3,3.1,5.3,1.1c-4.7-1.6-0.1-3.7-1.4-8.1
		c1.2,0.6,1.7,1.6,1.5,3c-1.1-10,3.7,1.5,6.2,3.4c8.1,6.3,13.5,3.7,20.4,5.6c0.1,0,1.6-5.2,1.5-5.4c0.9,4.4,10.9,6.2,2.3,9.5
		c7.2-1.8-0.1,2.4,9.5,0.8c4.3,4.3-3.9,2.2,1.8,5.7c0.8,0.5-2.4,5.5-2.4,6.1c2.6-0.2,5.1-0.7,7.6-1.4c0.9,2.1-3.2,4.8,1.1,5
		c3.6,0.2,11-14.9,11-19.1c2.9,1.3,7.8,6.5,6.7,10.5c0.6-6.7,14.8,10.6,14.8-0.3c-0.7,1.4,2.5,7.5,0.2,8.4c-0.8-0.4-1.1,0.2-3.2,3.1
		c1.4-1.9,5.3-4.2,4.9,0.4c0.9,0.6,1.7-5.3,3.4-4c1.3,0.8,0.5,6.6,1.7,6.8c2.5-2.3,5.4-4.1,8.5-5.5c0.2,2,1.1,5.5,2.3,7.2
		c2.4,3.3-3.2,2.4-3.8,4.1c2-5.6,11.7,13.8,5.9,12.2c7,2,11-6.4,17.7-2.4c1.1,0.6,4.3,10.2,3.4,10.6c0.4-0.7,5-3.1,5.4-3.1
		c1.4-0.1,2,6,2.9,6.7c0.2,0.2,12.8-11.3,9.1-1.9c2.4-1.8,2.2-1.5,5.7-2.8c2.6,0.7,0.4,13.7,1,14.2c5.9,5.8,15.4-11.8,9.6,6.7
		c-1.4,4.4-4.2,6.2-4.5,10.6c-0.1,1.7,8.2,7.7,0.8,7.5c3-0.2,4.2-1.8,3.7-4.8c0.6,3.5,6,5.4,7.6,8.3c0,0,2.3-3.9,2.8-2.5
		c0,12.1-5.8,5.3-10.7,11.5c-0.5,0.6-4.7,12.1-3.6,12.3c0.1,0,14.3-2.9,13.3-1.9c-0.8,0.9-6.5,9.7-7.6,8.5
		c5.1,1.3,10.5-7.2,12.5-6.6c4.4,2.2-3,7.9,4.7,6.6c-2.1,1.6-2.6,3.5-1.5,5.9c-6.2,0.3-13,2.4-7.5,10.4c3,4.3,5.2,2.3,7.3,4.6
		c1.4,1.6,0.4,6.6,2.4,8.6c0.9,0.8,3.4-5.5,5.1-1.4c1.8,4.2-8.2,9.3-8.2,7.1c0,6.2-11.9,6.9-14,1.9c-3.2-0.8-1.8,10.3,0.7,8.7
		c0.5-1.3,1.4-2.1,2.9-2.4c-0.2,1.3,0.1,2.5,0.7,3.7c1.9-0.9,2.1-2.3,0.8-4.1c-0.6,1.8,18.9-1.8,17.6-3c3.6,3.3-1.7,14.7-5.3,17.5
		c0.2-0.2-37.5,13.4-32.7,14.6c3.2,3.7,4.7,1.5,4.9-2.5c1.7,0,2.8,4.6,4.1,4.3c1.4-0.3,3.8-1.6,5.6-1.7c3.9-0.3,6.2-1,9-5.2
		c12,23.9-31,14.2-39.7,9.3c-4.5-2.5-8.8-6.7-13.2-9c-9.2-4.8,0.1-2.6-5.9-1.1c6.6-1.7-11.1,14.1-10.2,9.1c1.8-0.6,2.6-0.1,2.5,1.6
		c-1,0.7-2.2,1-3.4,1c0.8,4.6,9.9,2.2,9.8,1.9c3,6.1,4.8,8.9,9.8,13.1c4.1,3.4,8.6-2.9,8.6,5.8c0-1.6-14,1.6-14.8,2
		c-1.6,0.4-10.1-7.9-10.7-10.6c3.5,14.8-18.9-4.5-16.5-4.3c-9.7-0.8-7.4,11-0.2,17.3c11.8,10.4,32.2,0.3,43.2,9
		c0.4,0.3,11.2,16,11.4,13.8c-1.9-0.5-3.7-0.9-5.6-1.3c4.2,11.1-2.2,3.2-6.9,4.3c-1.8,0.6,8.5,5.3,5.9,3.6c0.2,0.2,13-0.7,7.7,4.8
		c0.4-0.8,8.8-3.4,9.1-2.4c-2.1,3.8-2.8-0.7,0.8,5.3c-5-5-2.2,5.5-2.5,3.5c-2.1,2.4-4.7-2.6-6.6-0.3c4.1,4.3-8.5,2.5-7.7,4.7
		c0.5,1.3,12-2.4,13.7,4.3c-0.3-1.2-22.9,7-24.9-9c-0.3,1.8-1.2,3.3-2.7,4.4c-3.6,1.1-11.8-18.3-13.4-21.3
		c-3.4-6.3-8-14.1-15.7-16.4c-2-0.6-12.3-0.3-12.6-1.3c-2.2,0-1,14.4,0.1,16.3c4.4,7,15.4,5.5,23.2,5.1c-9.3,1.4-17.9,2.5-24.2,3.9
		c-2,14,16.4,11.5,25,12.9c-8.6-0.6-17.3-1.3-25.9-1.9c1.8,17.6,13.2,20.8,28,25.9c-9.4-1.9-18.7-4-28-5.9
		c-0.2,5.3-6.5,40.4,4.9,37.8c-14,8.8-8.5,37.6-7.9,51.1c1.4,31.3,2.4,62.7,3,94.1c1.5,67.8,1.3,135.6,1.6,203.4
		c0.2-0.1,1.7-5.8,2.7-4.8c0.7,2.1,1.8,4,3.4,5.6c0.9-6.2,16.5-17.3,16.4-9.2c-1.8,0.8-3.6,1.6-5.5,2.4c3,1.5,9.4,5,3.4,10.1
		c18.5-4.4,37.3-8.7,56.3-9.7c15.4-0.8,34.9,5.3,50,0.8c4.2-1.3,9.4-4,11.3-5.2c7.8-4.9-5.4-3.6,6.5-5.4c5-0.7,5.7,7,10.1,4.5
		c4.2-2.3-5.5-5.6-3.7-2.9c-2.1-3.1,5.5-4.7,5.8-7.7c1.1,0.2,2.1,0.5,3,1c1.3-1.2-3-1.9-1.1-3.5c1,0.7,2.1,1.2,3.2,1.6
		c3.5-3.9,6-4.8,9.8-7.2c2-1.3,0.2-4.4,2.4-5.9c3-2,2.4,3.7,4.4,3.1c2.5-0.8-0.4-5.3,3-6.3c-0.4,2.9-0.1,5.6,1.1,8.2
		c2.9,3.9,5.5-19.8,5.4-22.4c-0.3-12.9-1.1-25.8-1.5-38.6c-0.8-26.6-0.9-53.3-1.1-80c-0.2-27-0.2-54.1,0.3-81.1
		c0.3-16.6,9.2-52.6-1.2-66.8c8.4,2.1,0.9-13.1-1.4-15.4c-4-3.9-9.9-3-14.8-5.1c-6.5-2.8-11.7-7.6-17.1-12.1
		c11.2,6.4,23,12.4,35.9,14.2c0-11.3,6.3-30.9-5.4-38.7c14.9,2.5,2-16.8-2.4-20.1c-14.2-10.6-31.4-17.8-45.9-28.5
		c17,10.8,34.4,21.5,53.7,27.9c-0.9-16.1-8.7-34.3-25-40c12-1.4,18,14.1,25.3,20.6c-1.1-17.1-19.6-17.4-28.1-29.2
		c8.3,5.6,17.7,9.4,27.4,12.1c-1.1-12.6-7.5-15.7-19.1-17.5c6-0.3,12.9-0.1,18.3,2.8c0-8.3-17.1-7.4-21.2-12.4
		c3.8,2.8,20.6,11.2,20.6,0.5c-8.6,4.3-18.9-8-27.1-9c7.8,0,15.3,9.3,23.2,5.9c-3.3-3.8-15.3-18.9-21.4-11.4
		c-0.9-1.6-13.6-9.8-13.6-9.8c1.9,0.4,3.4,1.3,4.6,2.8c-1.5,0.4-22.8-34.1-25.2-38c4.6,5.9,9.4,11.7,14.6,17.1
		c6.2-20.5-25.8-17.7-24.5-22.7c0.6-4.1,12.8,0.1,12.7,1c1.4-8.2,4.8,0.9,10-4.3c-5.1-0.8,2.9-7.5-5.4-4.6c-0.1-0.1,5.7-2.2,5.7-2.1
		c-7.4-1.2,3.2-2.2,4.2-3.1c0.9-0.7,4.3-7.6,3.2-7.2c7.4-3.1-7.3-13,2.6-12.9c-3.9-1.4-3.8-3,0.3-4.6c-4.5,1.3-5.6,0.1-3.3-3.6
		c1.1-3,0-4.1-3.2-3.4c-0.7-0.6,3.1-7,4.1-7c0.2,1,0.6,2,1.2,2.9c3-2.4-2.9-4.6-1.2-6.4c3.8-4.1,8.9,3.4,12.2,2.5
		c-2.2,0.6-4.8-9.8,0.1-10.7c3.4-0.6,3.8,9.3,9.1,5.4c7.3-5.4-30.8-5.1-27-12.4c1.4-2.7,6.6,0.1,8.5-0.3c-2.1-5.3-2.5-11-6.7-15.2
		c0.5,0.5,4.9,3.7,5.5,1.5c0.2-0.6-4.6-6-3.6-6.4c3.1-1.1,3.2,4.1,6.3,1.4c-0.9,0.8,9-4.9,5.2-6.1c-4.4-1.5-1.7-0.3-3.1-3.5
		c0.7,1.6-11.3,0.3-9.5,0.8c-4.7-1.3-1.4-5.7-7.4-5c2.9-0.4,5.2-3.7,1.4-4.9c-0.6-0.2,12-8.7,12.1-3.9c0.4-3.5,1.9-4,4.6-1.5
		c8.4,5.7-0.9-19.7-0.8-19.9c2,0.6,3.9,1.4,5.7,2.3c0,0-2.3-6.1-2-6.7c0.3,2.1,1.4,2.6,3.3,1.5c-3.4,2.5,5.1-5,3.6-2
		c0.6-0.6-7-3.8-7-3.9c2.1-0.8,11.4-1.8,7.5-6.2c-0.9,1.1,6.2-5.2,4.7-4.3c-0.4,0.2,2.8-3.5,2.5-3.2c0.7-0.7,3.3,3.1,5.3,1.1
		c-4.7-1.6-0.1-3.7-1.4-8.1c1.2,0.6,1.7,1.6,1.5,3c-1.1-10,3.7,1.5,6.2,3.4c8.1,6.3,13.5,3.7,20.4,5.6c0.1,0,1.6-5.2,1.5-5.4
		c0.9,4.4,10.9,6.2,2.3,9.5c7.2-1.8-0.1,2.4,9.5,0.8c1.7,1.7-2.3,4.8-1.3,5.7c7.4,6.3-5,6.8-1.8,13.1c1.7-0.5,3.3-0.4,4.8,0.1
		c-0.9,0.3-1.6,0.7-2.2,1.5c-0.8,2.6,5.3,1.6,6,0.5c-0.1,4.5-0.3,9.1-0.5,13.6c2.3-0.6,4,0.3,5.1,2.5c-0.9-1.4-2.2-10.5,0.8-10.6
		c7.4,8.5,4.5-4.4,8.1-6.4c4.1-2.3,9.5,6.6,13.8,0.9c-6.5,1.8,1.5-4.8,2.1-5.1c-0.7,0.6-8-2.5-5.9-3.3c2.6-0.9,7.1,4.2,8.7,3.4
		c4.1-2.1-1.2-3,0.2-4.4c0.6-0.6,9.1-11.8,5.6-12.4c-2.8-0.5-9.6,5.4-6.2,7.4c-1.4-4.3-3.9-5.2-4-7.8c1.1-0.6,2.3-1.1,3.6-1.3
		c1.1-3.7-3.6-3.4-5.2-5.2c1.2,1.3,0.8-2.1,0.6-2.5c-1.1,3.6-6.4,6.5-8.1,2.5c-0.3-0.7,3.2-8.1,1.4-7.9c0.7,0.1,5.8,0.1,6.7,1.1
		c-3.8-4.1-2.5-3.1-5.5-3.9c-2.4-0.7,5-4.6-1.6-2.7c4.6-6.1-4.7-6.2-3.6-7.2c0.6,1.1,1.6,1.6,2.9,1.5c-1.2,0.1,0.5-4.5-2.9-2
		c-0.1-1.8,0-3.7,0.3-5.5c8.3,9.1,4.1-9.8,9.9-11c-1.9-0.1-11.5,3.2-10.1-2c0.5-1.8,10.1-3.2,7.4-6.3c3.5,1.5,4.9,0.3,8.5,0.9
		c0.1,0-1.5-5.9,2.2-1.7c0.2-3.2-1.4-6.2,3.3-3.5c-0.7,0-6.2-6.7-6.4-7.7c-0.2-1.6,6.2,0.7,6.1,3.5c1.4-9,2.7,0.6,4.1,0.7
		c1.8-1.6,3.6-3,5.4-4.4c0.6,0.6-12.1-17.3-7-17c-11.3,1.1,8.8-15,8.1-0.4c0-0.4,0.9-6.5,1.1-6.5c1.8,0.6,3.2,1.7,4.3,3.2
		c-1-0.1,4.9-7.1,6.9-7.4c1.4,0.8,1.3,2.1-0.2,3.7c0.4,0.5,1.9-2.3,2.3-2.5c3.3,0.4,3.2,5.7,5.8,6.2c2.3,0.5,4.2-2,7.2-1.3
		c1.5,0.3,15.2,5.9,16.5,5.4c-4.7-10.6,13.6-6.1,12.8-4.6c-2.3-5.4,10.9,1.1,10.2-6.5c3.7,5.9,15.4,0.5,19.3,5.3
		c5.2,6.4-2.1,1.9-3.2,4.8c-0.8,2.2,1.3,5.5-0.1,7c-2,2.1-9.4,1.3-5.4,5.9c4.4,5.1,16.2,1.1,12.7,9.1c6-10.5,4.1,13.8,8.5,10.4
		c0-0.9-0.1-1.8-0.3-2.7c0.8,1,1.6,1,2.4-0.1c-4.5,4.1,6.4,9,6.5,7.1c0.1,1.4,0.4,2.7,1.1,4c1.8-0.9,3.1-2.3,4.1-4
		c3.8,4.1,0.6,6.8,8.5,7.2c5.9,2-1.3,11.6-1.4,13.8c1.2-0.1,2.3-0.6,3.2-1.4c5.4,5.9-13.1,10.9-13,9.3c1,0.7,2,1.4,3,2
		c-4.1,3.7-14.2-4.3-12.8-4c-5-0.9-6.2,8-11.3,3.6c-2.4,6.3,17.9,5.7,11.8,7.7c1.8,1.6,3.7,1.8,5.7,0.5c-0.3,0,1.4,4.5,1.9,3.7
		c-1.9,0.8-3.9,1.6-5.9,2.3c-0.2,0.1,5.3,0,5-0.3c-1.4-1-14.1,9.2-19.1,0.9c0.8,1.3,6.7,6.9,5.5,1c1.3,0.9-0.9,3.3,4.5,5.5
		c-5.5-2.3-3.8,21.4,3.1,11c1,2.3,0.9-2,0.7,1.9c0.6-0.6,5.2-3.7,5.9-3.6c-1,2.8,4.2,7.3,3,8c0.4-2.5,1.6-4.3,3.5-5.5
		c3.3,1,6.4,8.4,7.8,11.1c-1.1-2.3,4.6-4.4,5.6-5.4c4.4-4.2-0.3-2.4,1.1-7.3c1.1-1.1,4.9,8.5,5.1,9.5c-0.5,0,0.1-14.3,0.5-15.1
		c-5,10-9.2-6.5-9.3-8.8c0-0.8,4.4-14.1,5.1-14.9c14.3-14.1,5.8,8.6,8.5,8.6c3-0.1,2-7.8,3.2-8.7c3.4-2.3,6.8-1,10.3-3.5
		c-1.3-1.6-1.7-3.5-1.5-5.6c1.6-0.8,3.4-1.3,5.2-1.4c1.8-2.2,5.4-5,6.4-7.4c0.9-2.1-1.7-7.2-0.6-11.1c2.8-10.3,9.4-4.9,16.5-7.2
		c4.5-1.5,6.4-4.7,10.5-6.5c7.2-3.1,10.1-1.7,9.4-7.1c0.9,0.4,4.6,2.9,2.8-0.7c0.5,1.4,0.9,2.8,1.3,4.1c0.9-0.9,7.5-2.4,8.5-2.2
		c6,1.1,10.9,2.3,7.8,12.8c5.6,0.4,12-6.9,15.3-6.2c9.4,2.2,5.3,16.9,5.3,26c0,32.5,0,64.9,0,97.4c0,32.4-1,64.9-0.4,97.3
		c0.1,6.6,5.3,30.2,1.5,36.6c-6.7,11.3-15-1.1-22.8,5.7c3.5,2.4,7,5,10.3,7.7c-6.1-1.1-0.9,4.9-1.7,7.9c-0.3,0.9-4.4-3.7-4.4-4.4
		c-5.2,7.8-11,16.2,3.7,19.3c-7.9-3.4-10.9,1-8.1,8.4c4.8-1.4,9.5-4.3,12-8.8c-3,6.7-11.9,8.7-13,16.6c-1,7.5,3.1,8.9,8.6,4.1
		c-2.2,2.4-7.7,5.7-6.4,9.9c7.3-4.1,14.6-8.6,22.8-10.8c-15.6,5.9-21.2,15.2-22.6,31.2c-1,11.1-6.6,50.2,12.4,44.8
		c-5.2,3.5-14.3,5.6-13.9,13.7c0.4,6.7,4.3,10,10.9,7c-10.3,6.4-9.6,17.4-9.6,28c3.6-2,7.2-4,10.8-6.1
		c-10.9,14.9-11.1,22.6-10.5,41.1c0.6,18.9-0.9,37.9-0.8,56.8c0.1,41,2.5,82,4,122.9c1.3-2.2,2.8-5.1,4.8,0.2c-1.2,1.2-2.5,2.2-4,3
		C1665.1,702.2,1666.6,702,1668.1,701C1668.1,701,1668,702,1668.1,701z M880.7,320.1c-0.4,2.1,0.1,3.9,1.3,5.4
		C882.5,324.5,882,320.6,880.7,320.1c0.4,1.8,0.8,3.6,1.1,5.4C882.6,323.6,882.2,321.7,880.7,320.1c1.1,8.8,9.7,29.7,3.5,37.2
		c1.2-1.3,2-2.7,2.5-4.4c-2.2-0.3,2.4,0.7,2.9,0.5c2-0.7-3.3-3.9-3.2-4.2c2,0.6,4,1.5,5.9,2.5c-2.3,0.2-0.8-7.8-0.9-8.6
		c0.4,2.3,6.5,1.2,6.4-1.6c-0.1-1.4-2.8-3-2.8-4.3c0-0.9-8.5-13.3,1.1-9.1C899,323.8,883,320.9,880.7,320.1
		C882.1,332.2,883,320.9,880.7,320.1z M894.2,354.6c0.4-0.5-7.4,0.4-7.2,2.5C887.2,359.2,893.9,355.2,894.2,354.6
		C894.4,354.4,893.8,355.4,894.2,354.6z M886.1,369.6C886.2,370.8,887.1,369.8,886.1,369.6c0.5,6.2,6.6,7.7,11.1,10.1
		c-0.7-8.1-5.5-11.4-11.8-15.5c0.5,3.5,2.4,5.7,5.8,6.7C889.5,370.5,887.8,370.1,886.1,369.6C886.2,371.3,887.8,370.1,886.1,369.6z
		 M890.5,394.6c0.2,1.3,1.1,4.8,1,6.6c0.3-3.3-1.1-7.4-1.6-10.8c0.6,4.3,1.3,8.5,1.9,12.8c-0.4-3-0.9-6-1.3-8.9
		c3.5,21,5.8,42.2,9.1,63.2c-0.4-20.6,1.2-41.9-1.4-62.4C896.4,381.3,888.3,379.8,890.5,394.6C893.6,415.6,890,391.4,890.5,394.6z
		 M20.5,372.3C20.5,371.4,19.6,372.1,20.5,372.3c1.4-2.3,1.2-4.2-0.8-5.5c-1.9,0.2-2.4,1.4-1.3,3.5c-0.4-1-3.8-5-3.6-5.1
		c-0.5,4.6-1.6,0.6-2.5,0c2.5,2.5-2.9,1.9-3.6,1.5C7.9,367.3,19.8,372.1,20.5,372.3C20.5,370.4,19.4,372,20.5,372.3z M27.7,354.1
		c0,1.8,0.4,1.5,1.3,1.6c0,4.1,1.5,6.2,10.5,10.3c0-12.8-1.9-15.5-12-19.1c0.7,5.9,5,11,9,15C33.5,359.4,30.6,356.8,27.7,354.1
		C27.7,355.8,30.6,356.8,27.7,354.1z M28.6,397.9c0.1,2.3,0.5,2.7,1.2,1.4c-0.2-3.7,0.7,1.9-0.1-0.3c2.3,6.5-1.1,12.9,6.5,20.6
		c-0.6-0.4-7.7-3.5-6.5,1c2.3,8.5,9.5-7.3,9.6-7.5c1.8-4.2,0.7-13.1,0.9-17.8c0.4-12.3,1.3-26.8-12.5-32.3c0,3.9,0,7.8,0,11.7
		c1.8-3.5,4.4-6.1,7.8-7.8c-9.6,8.8-11.5,26.7,0.8,34.1C33.8,399.9,31.2,398.9,28.6,397.9C28.8,402.1,31.2,398.9,28.6,397.9z
		 M31.3,443.9c-1.8,2.2,1,10.9,5.5,14.8c0.3-6.1,0.8-12.3,0.8-18.4C35.5,441.5,33.4,442.7,31.3,443.9
		C30.2,445.1,33.3,442.4,31.3,443.9z M30.7,443.7c0.9-0.7,1.8-4.7,0.7-5.7C30.4,439.7,30.1,441.6,30.7,443.7c0.3-0.9,0.6-1.7,1-2.6
		C31.3,441.9,31,442.8,30.7,443.7c7.7-6.4,7.8-15,7.8-24.4C29.6,427.5,30.7,431.9,30.7,443.7C33.2,441.5,30.7,431.9,30.7,443.7z
		 M29.8,455.1c0,0.4,1.4,8.7,4.6,7.3C37.8,460.8,29,454.5,29.8,455.1c0.3,1.9,0.6,3.7,0.9,5.6C31.4,458.7,31.1,456.9,29.8,455.1
		c0.8,12,1.9,24.1,4,36C35.2,479.1,41.1,462.4,29.8,455.1C30.7,467.2,41.1,462.4,29.8,455.1z M60.6,543.1c0,0.5,0.1-3.4,0.1-2
		c-0.1,9.7-0.2,19.4-0.5,29.1c0.3-10.2-0.3-20.5,0.5-30.6c-0.3,3.4,2.7,14.8-0.3,17.1c2.1-1.5,0.4-24.9,0.4-26.1
		c0.2-12.3,0.1-24.7,0.6-37c0.7-18.5,5.2-43.3-7.7-58.8c1.8,2.4,3.9,3.4,6.5,3c4-4.4,2.2-24.4-6.5-22.8c8.9-3.3,4.7-16.2-3.6-16.7
		c3.7,7.7,3.5-3.1,2.6-3.2c1.5,0.6,2.9,1.6,4,2.8c-0.3,0.2-10.6-13.2-12.7-14.3c0,10.3,1.6,19.7,8.9,27.5c-3.3-2.6-6.6-5.2-10-7.8
		c0,5.9,0,11.7,0,17.6c3.1-2.9,6.4-5.5,10-7.8c-3.7,3.1-7.1,6.6-10.2,10.4c4.1,3,8.1,6,12.1,9.1c-4-2.3-7.9-4.7-11.9-7
		c0,8.6,5.9,13.7,11.9,18.9c-4.4-2.4-8.3-5.4-11.9-8.9c-3.9,57.8-4,115.8-5.2,173.7c-0.6,27.8-0.4,55.6-1.8,83.3
		c-0.7,13.9-2.5,27.9-2,41.9c0,0.2,1.7,19.6,3,18.6c3.3-2.3-4-4.9-1.2-7.2c2.7-2.2,5.4,4.8,6.3,4.4c2.5-1,1-7.4,0.9-9.1
		c3.3,1,0.3,5.5,2.8,6.3c1-1,1.8-2.1,2.2-3.5c11,8.5,8.9,7.4,9.2-10.7c0.3-20.2,0.6-40.3,1-60.5C59,629.5,60,586.3,60.6,543.1
		C61,525.6,59.6,612.2,60.6,543.1z M60.6,389.3c0.2-3.6,0.1,3.6,0.1-1.7C60.7,388.1,60.7,388.7,60.6,389.3c0.2-3.3-2.9-9.6-1.6-12.7
		c0.6,2.1,1,4.2,1.3,6.4c0.3-0.8-15.8-25.8-16.5-25.8c1.1,11.8-0.9,23.7,10.2,31.3c-0.6-0.3-6.8-2.5-6.9-2.7
		c0.7,4.5,8.7,6.8,11.8,9.5C59.5,393.2,60,391.2,60.6,389.3C60.8,385.3,60.1,391.3,60.6,389.3z M71.1,378c0-2.8-0.1,4.6,0.2-2.4
		c-0.2,5.2-4.7,19.8,2.8,18.9c11-1.2,5.1-19.8-0.4-22.8c24.3,6.6,6.4-21.7,1.4-20.8c0.1,6.4-2,0.8-2,3.4c0.6,0.7,3.1,3.1,3,3.2
		C74.3,355.5,71.3,375.7,71.1,378C71.1,379.3,71.3,375.7,71.1,378z M76.5,400.9c2.5,0-0.6,1.8-3.4,4.6c2.4,2.1,4.8,4.2,7.1,6.3
		c0.8-4.5,9.5-33.8,2.8-35.3C80.7,380.9,83.1,399.6,76.5,400.9C75.9,400.9,82,399.8,76.5,400.9z M70.8,413
		C70.5,416.2,71.9,413.5,70.8,413C70.5,416.4,71.7,413.5,70.8,413c-0.3,5.1,4.7,7.1,8.1,9.3c0.5-6.6-3.5-9.9-7.9-13.9
		c-0.2,3.1,1.1,5.1,4,6.1C73.5,414.1,72.1,413.6,70.8,413C70.6,416,72.1,413.6,70.8,413z M72.3,486.8c0.4-2.2,0.5-4.3,0.3-6.5
		C72.3,482.4,72.2,484.6,72.3,486.8c-0.3-3.5-0.2-6.9,0.1-10.4C71.9,479.8,71.8,483.3,72.3,486.8c0.7-6.7,11.2-62.9,3-63.1
		C66.4,423.4,72.2,479.2,72.3,486.8C73.3,477.1,72.2,480.2,72.3,486.8z M167.4,518.6C167.1,514.9,166.4,518.3,167.4,518.6
		c-2.1-22.9-21.3-20.8-36.9-33.5c11.2,6.4,23,12.4,35.9,14.2c0-11.3,6.3-30.9-5.4-38.7c14.9,2.5,2-16.8-2.4-20.1
		c-14.2-10.6-31.4-17.8-45.9-28.5c17,10.8,34.4,21.5,53.7,27.9c-0.9-16.1-8.7-34.3-25-40c12-1.4,18,14.1,25.3,20.6
		c-1.1-17.1-19.6-17.4-28.1-29.2c8.3,5.6,17.7,9.4,27.4,12.1c-1.1-12.6-7.5-15.7-19.1-17.5c6-0.3,12.9-0.1,18.3,2.8
		c0-8.3-17.1-7.4-21.2-12.4c3.8,2.8,20.6,11.2,20.6,0.5c-8.6,4.3-18.9-8-27.1-9c7.8,0,15.3,9.3,23.2,5.9
		c-3.3-3.8-15.3-18.9-21.4-11.4c-3.2-5.7-7.7-5.3-13.3-8.4c-3.7,8.3,6.1,5.7,8.8,7.8c2.6,1.3-4.4,4.5-3.2,6.5
		c1.2,2.1,7.1,2.6,7.5,4.3c0.9,4.5-3.9,8.8-7.5,5.4c0.8,0.4,1.3,0.2,1.6-0.5c-1.7,1.7-1.6,0.3-3.3,1.5c0.5-5.7-3.6-4.6-6.3-7.3
		c0,0.5-0.8,4.6-1.2,5c-1.2,0-3.2-7.4-3.2-8.3c0.2,0.2-1.2,6.3-1.2,3.4c-0.9,1.7,3.7,4.4,0.4,1.6c-1.7,8.7,11.6,7.6,11.5,7.3
		c-1.4,9.5,4-1.1,4,3.6c-0.5,0.8-0.9,1.7-1.2,2.6c-0.1-1-0.4-2-0.9-2.9c0.5,0.5-1.6,0.8-2,1.4c-0.4,0.5,7.6,2.6,5.3,4.9
		c-1-0.9-2.1-1.1-3.4-0.6c0.3-0.3,12.4,13.5,4.8,13.5c-3.1-4.8-8.9-4.2-9.2-5.5c0.2,1.2-0.5,2.9,1,3.5c-1.8,1-6.3-8.3-7.4-11
		c-2.2-5.9-4.6,19.6-1.4,14c-1.1,1.1-3-4.8-3-5.2c0.2,1.7-0.6,2.1-2.4,1c1.7,2.3,3.6,4.5,5.5,6.7c-0.7-2.7-6.2-5.5-8.1-7.3
		c0,0.4-2.2,6.9-1.6,6.9c-3.1,0-0.6-2.8-1.2-4.2c-1.5,0.6-3,0.5-4.5-0.3c-0.7-6,4.1-6.5,5.6-5.1c-0.9-1.2,2.9-8.8,2.9-7.5
		c0.1-1.7,3-2.6,3-3.4c-0.8,0.3-1.4,0-1.8-0.8c2.6-0.1,1.3-3.6,4.6-1.5c-0.4-3.5-1.3-6.9-2.7-10.1c-1.7,1.2-2.7,2-0.8,3
		c-1,1-0.3,1.8-1.7,4.7c1.3-2.7-0.3-5.1-2.6-4.2c-0.3-0.3,4-5.3,4.5-5.5c-1.6,0.2-3.1,0.8-4.5,1.7c0.2-2.9,4.1-6.4,2.8-8
		c-1-1.3-5.2-3.1-5-3.4c-0.8,2.8-0.9,2.6-4.3,3c0-1-0.6-1.6-1.7-1.8c1.3,0.1,2.3-0.3,3.2-1.2c-2.7-1.9-0.8-3.8,2.8-2.6
		c-0.6-0.1-6.6-12.2-5.9-5c0-0.9,0.6-0.6,1.8-0.6c-2.3,1-4.7,1.9-7.1,2.6c0.9,1.2,1.3,2.6,1.2,4.2c-0.5-1.4-1.1-2.7-1.8-4
		c-1.1,0.8-1.6,1.9-1.6,3.4c-2-0.4-2.1-2-0.4-4.6c-7,2.3,1,14.2,3.2,17c-7.4-8.2-8.1,1.6-9.3,7.2c-3.3,15.8,0.3,12.8,12.7,17.2
		c-12.9-1.8-19.1,9.9-7.7,17.8c2.7,1-8.9-3.3-7.6-0.1c0.8,0.9,1.7,1,2.8,0.3c-6.1,8.4,0.7,12,6.9,16.7c-3.7-1.9-7.4-3.7-11.1-5.6
		c-11.8,108.3-6.8,217.4-7.9,326c1-0.3,1.3-0.7,0.8-1.3c0,0,1.5,6.7,2.2,6.6c7.9-0.9,1.4-4.2,6-7.2c0.7,3.7,1.7-0.6,2.8-0.6
		c-0.4,3,0.2,3.7,1.6,2c-0.3,0.9-0.3,1.7,0,2.6c-1.3-7.3-12.2-17.9-2.1-19.4c3.9-0.6,15,12.6,17,4.3c0,0.1,0.3,6,1.5,3.4
		c-0.6,1.4-2.5,7.4-4.8,7.2c1.9,0.1,10.5-5.6,7.9,0.6c0.4,0.5,0.4-5.7,0.4-6.1c0.1-0.3,6.2,4,6.7,3.5c0.8-0.8-2.8-11.3-4.8-3.5
		c-2.1,0.2-2.3-6.1-1-6.5c6.4-2,4.9,12.7,9.1,13.4c4.7,0.8,2.1-6,3.6-7.8c-1.6,1.9,6.8-9.7,7-5.2c-1.4,0.2-2.3,1-2.6,2.3
		c2.7,0.4,5.5,0.5,8.3,0.2c-2.3,5.7,5.6-2.7,4.9,2.5c-0.2,1.2-8.7,1.4-9.6,2.5c1.5-1.7,5.6,3.5,5.3,4.7c-0.9,0.2-1.8,0.5-2.7,0.9
		c2.5-3.2,8.8,6.1,9.3,8.3c-0.1,0.3,14.8-2.5,14.7-4c-0.7-0.9-1.6-1.6-2.7-2.1c4,0.5,4.4-0.3,1.1-2.7c-0.2,0.7,4.3-0.2,4.2,0.2
		c-0.8-1.3-0.4-2,1-2.1c-0.1,0.9-0.4,1-0.9,0.4c0.3-0.9,5.9,0.3,5.8,1c2-9-1.1-19.6-1.5-28.6c-0.8-15.3-0.4-30.6-0.4-45.9
		c0-23.5-0.1-47,0.2-70.5C165,597.5,169.3,519.2,167.4,518.6C167.2,515.2,166.2,518.3,167.4,518.6z M221.6,342.1
		c-1.6-2.5,2.9-0.4,3.9,0.5c-2.9,2.9,6.4,13.5,8.4,15.5c0-4.6-0.5-12.4-5.1-15.3C228.7,342.8,220.3,339.8,221.6,342.1
		C222.1,342.9,219.9,339.2,221.6,342.1z M206.7,362.8c2.6,1.8,2.7,3,5.5,3.9c2.6,0.8,3-4,7-1c0.1,0-0.2,5.8,0.7,6.7
		c2.8,2.4,6.1,1.2,8.6,3c0.2,3.6-0.6,3.8-3.4,5.2c-3,3.9,5.6,6.2,9,4.9c0-8-5.7-11.5-12.3-14.2c4.1,0.4,8.3,0.9,12.4,1.3
		c-0.9-11.2-4.6-13.5-8.2-16.7c-0.5-0.4-5.8-7.7-6.9-6.6c0.5,1.6,1.4,2.9,2.7,4c-1-6.4-13.4-0.3-16.1,0.6c-0.3-1,11,2.3,12.2,5.9
		c-1,1.9-2.4,1.4-4.3-1.5c1.6,1.3-1.6,2-1.4,5.1C209.9,359.2,208,359,206.7,362.8C207.3,363.2,208,362.5,206.7,362.8z M230.4,499.4
		c1.2-6.2-1.8-2.6-1.7-1.8c2.1,2.9,2.4,2.4,1-1.6C227.5,496.1,229.7,499,230.4,499.4c0.7-5.6,0-11-2.4-16.1c8.8,7.3,4.6-18.8,4.5-22
		c-0.8-15.2,5.9-38.7-8.8-49.4c0.3,1.4,0.7,2.7,1.2,4c-3.3,2.8-4.7-13-7.2-7.5c0.1-1.6-0.4-3.1-1.5-4.3c-1.1,1.6-0.3,4.5-1.4,0.4
		c-1.9,4.2,1.1,13.8,0.5,15c-1.3,1.3-9.3-3.4-5.7-5.2c0-0.1-6.9,5.5-6.5,7.1c0.1,0.3-0.1-7.3-4.7-1.9c-0.6-1.6,4.3-6.9,4.2-7
		c-0.9-0.2-1.5,0.1-1.7,1c2.2,0.3-0.7-5.2,4.5-2.3c-1.2-5.1,5.6-9.1,2.8-11.9c1.1-2.4,2.8-3.1,5.2-2.1c-0.1-3.8-1.1-7.3-3.1-10.6
		c-1.1,1.7-1.5,6.5-3.4,6.5c1.7,0-2.2-2.5-2.1-2.3c0.3-0.3,5.1-7.5,1-6.7c-0.6,0-0.5,7.9-1.9-0.7c0,0.2,0,2.7-0.9,1.7
		c-1.2-1.2,4.8-5.1,5.1-5.7c0.8-1.8-8.6-5.3-8.9-5.4c-0.1,2.7-0.1,3.3-0.1,1.7c-0.2-2.1-0.4,1.7-0.4,1.7c-3.5-4.8-2.1,3.5-5.4-1
		c1.4-0.5,2.6-1.2,3.8-2.1c-0.8-0.3-1.7-0.5-2.5-0.8c1.4-2,3.3-2.7,5.7-2.1c-0.3-5.2-10.1-7.6-6.2-3.6c-2.7,0-3.1-5.9-4.9-4.9
		c-0.5-0.5-2.6,5.9-0.3,5.2c-1.6,0.4-3.3,0.4-4.9,0c2.4,1.3,4.2,3.1,5.7,5.4c-12-8.8-0.4-1.8-3.1-0.5c-1.3,0.6-8.3-7.1-9.8-8
		c-2.5,3.8-3.2,3.9-7.7,3.9c4.5,6.8,17.3,7.4,24.4,5.9c-2,0.4-17.2,8.2-12.9,7.8c1.3-0.1,1-3.3,1.4-4c-1.3,2,0.4,6.2,3.7,3.6
		c-3.1,2.4,6.1-0.8,7-1.1c-9.1,2.2-1.1,6.9-4.6,9.3c-4.6,3.5-11.2-4-16.3-2.3c3.1,2.3,6.2,4.6,9.3,6.9c-4.3-0.5-4.8,1.9-1.5,7
		c1.9-5.1-6.9,0.1-7.8,1.2c-3.7,4.2-0.1,14.6,0.1,19.5c4.2-1.3,8.4-3.8,10.6-7.7c-2.3,5.2-8.4,7.3-10.1,12.8
		c-1.8,6-0.6,11.5,6.2,5.5c-3.2,2.1-5,5-5.7,8.8c6.4-3.6,12.9-7.6,20.1-9.5c-25.9,9.7-20.5,40.1-21.1,62.9
		c-0.5,19.5,0.3,39,0.7,58.5c1.2,73.7,3.5,147.4,4.3,221.1c10.5-1.7,21.6-1.2,31.9-3.7c5.3-1.2,11.7-6.2,17.3-4.8
		c-0.4-2.2,1-9.1,0.8-9.2c-1,0.6-1.8,0.4-2.5-0.5c1.3-1.1,2.4-2.4,3.3-3.8c0.5-4.8,0.6-9.6,0.2-14.4c0.1-9.2,0.3-18.5,0.5-27.7
		c0.6-20.6,1.8-41.2,2.4-61.8c1.1-37.1,6.3-75.4-13.1-108.6c4.2,5.8,8.2,11.7,12.4,17.4c0-22.2,7.2-50.2-13.7-64.7
		C221.3,495.2,225.9,497.2,230.4,499.4C231.7,492.8,225.9,497.2,230.4,499.4z M234.4,401.1C234.4,399.5,231.3,400.4,234.4,401.1
		C233.6,400,233.6,400,234.4,401.1c3-27.6,0.4-0.1-2.2-9.7c0.1,1.1-0.3,2-1,2.8c-3.3-1.2-9.7-10.2-12.9-3.7c1.2,0.6,2.4,1.2,3.6,1.8
		c-0.1,0-3.2,1.8-2.3,1.8c-0.7-1.2-5.6-10.2-6.5-9.8c-8,4,14.3,19.2,12.9,11.1c-1.2,2.8-0.2,4.2,2.9,4.3
		C229,397,228.6,399.8,234.4,401.1C234.4,399.2,232.1,400.6,234.4,401.1z M258.9,335.7c0.3-1.2-4.2,3.9-2.9,2.4
		c3.1-0.1,21-6,23.2-3.9c6.4,1.3-10-12.9-10-8.2c-0.8,3.8-2.5,7.1-5,10c-1.2-2.2-2.9-2.7-5-1.3C256.1,333.9,256,334.3,258.9,335.7
		C258.7,336.7,258.8,334.3,258.9,335.7z M294.1,562.1c0-1.8,0.1-3.6,0-5.4c0.4,9.7-0.4,19.5-0.2,29.3c-0.2-8.5-2.7-22.1,0.2-29.7
		c-3.1,8.3,0.3,18-0.2,26.5c1.7-34.6,0.6-69.3,0.6-103.9c0-26.2,7.9-68.1-11.7-89.4c3.2,2.5,6.4,5,9.5,7.7
		c-0.1-12.5-0.4-25-0.4-37.5c-3.1,0.5-6.2,1-9.3,1.6c4.9-1.9,9-4.3,9.6-10c-2.5-0.2-25.6,1.4-19.4-3.4c-0.3,1.1-8.5-0.3-8.7-1.6
		c-1.6-8.2,8.2,7.3,0.3-4.5c-0.1-0.3,10.3,0.6,11-0.3c4.4-5.7-18.7-0.2-20.8,0.1c5,3.9-8.4,4-2.7,12.4c5.5,8,21.8,4.1,29.9,5.6
		c-10.7-0.8-21.5-1.6-32.2-2.4c0.9,8.9-0.1,16.7,6.9,23.1c7.2,6.6,19.2,6.1,28,9.1c-11.6-2.4-23.2-5-34.9-7.4
		c-0.3,7.8-8.1,50.2,6.1,47c-11.9,7.5-6.7,28-6.6,39.4c0.2,20.1-0.9,40.2-0.9,60.3c0,42.8,1.9,85.4,3,128.2
		c0.7,29.1-4.2,59.6-2,88.5c0.7,9.4,2.1,10.2,7.2,14.5c0.8,0.7,10.8,8.7,12.5,4.4c0.8-1.9-6.1-3.9-2.4-5.6c1.4-0.6,6.3,3.2,6.3,3.2
		c2.3-1.5-0.5-7.5-1-9.1c3.4,0.3,2.5,5.6,3.3,5c1.4-1,6.6-2,8.1-1c-0.7,0.5-1.5,0.9-2.2,1.4c0.1,0.9,5.7,2.1,5.9,1
		c3.5-23,2.9-51.7,3.9-76.9C292.4,642.2,293.8,602.2,294.1,562.1C294.1,533.9,293.8,599.6,294.1,562.1z M328.1,348.8
		c-0.2,1.2,4.1,6.6,7.5,10.2c2.7,2.9,14.2,9.4,12.7,8.3c3,1.7,10.1,3,11.7,6.7c1.2-1.8,2.3-3.6,3.3-5.4c0.9,0.7,17.4,13.1,10.3,11.3
		c2.1-0.2,7.9-1.8,9.8-0.7c0.4,0.2,5.5,6.1-0.5,4.7c1.9,0.7,2.8,2.1,2.8,4.1c-0.4-2,5.9-3.4,6.9-2.5c2.9,2.8-4.5,4.7-0.2,7.4
		c2.2,1.4,11.8-0.5,14.7-0.4c0.6,9-19.2,9-20,7.7c2.5,4,20.4,11.2,23.7,12.5c-0.1-18.4-7.8-39.2-26-46.7
		c13.8-0.9,19.4,16.9,27.4,24.8c-0.4-23.2-19.7-18.6-30.1-34.6c9,6.8,19.5,11.7,30.2,15.3c-0.6-14.1-7.7-18.2-20.6-21
		c6.8,0,14.6,0.6,20.6,4.3c0.5-10-18.6-8.9-23.2-15.2c4.4,3.7,22.7,13.7,23.3,1.8c-10,4.4-21-10.2-30.1-11.8
		c8.8,0.5,16.8,11.4,25.9,8.1c-3.1-3.9-11.9-16-17.8-16.2c-5.5-0.2-3.8,3.7-7.7,5.5c-4.1,1.9-17.1,5.9-18.6,3.4
		c0.2,1.7-0.1,3.2-0.8,4.7c-1.1-0.4-4.2-8.5-3.8-8.5c-0.5,1.7-0.9,3.3-1.2,5c0-0.5-3,0.2-4.9-1.9c3.5,3.9,0.9,3.3,6.1,4.6
		c-6,5.5-18.3,2.1-21.1,4.9c2.1-4.3,7.5-1.8,9.8-0.8c-3.1,3.1-13.5-4.7-18-1.1C332.2,336.9,330,347.7,328.1,348.8
		C327.8,350.4,330.2,347.6,328.1,348.8z M302.9,354.8C303.8,356.4,303.8,356.4,302.9,354.8c-0.2,5.7,7.9,9.6,11.5,12.2
		C315,351.7,310.1,360.8,302.9,354.8C302.8,356.3,305.7,357.2,302.9,354.8z M306.2,457.8c0.2-1.9-0.8-11.2,0.1-12.8
		C305.1,447.1,306.2,456.8,306.2,457.8c0.2-1.7-0.4-14.7,0.1-14.8C304.4,443.6,306.1,456.5,306.2,457.8c0.9-8.5,17.9-90.3,2.1-89.7
		C297.6,368.5,305.9,449.1,306.2,457.8C307.6,443.9,305.3,433.2,306.2,457.8z M391.3,805.5c1.4-66.1,3.9-132.3,7.5-198.4
		c1.4-26,4-51.9,4.9-77.9c0.4-11.6,4.6-32.1,0-43.1c-2.7-6.4-3.5-4.9-11.2-7.9c-10.3-4-16.9-9.2-25-16.6
		c12.3,7.9,25.2,15.4,39.7,18.1c0.7-12.8,8.8-34.7-3.9-44.1c10.6,2.3,8.9-14.1,5-19.2c-4.6-6-23.9-8.6-26.1-14.3
		c1.6,4.3-11.1-4.3-11.4-4.4c-7.9-3.3-11.6,5-18.2,3.2c-16.4-4.6,3.7-43.5-24.4-44.4c-0.3,0-1.4,5.8-1.4,5.9c1.7,1.5,3.3,1,5.1-1.5
		c-8.5,11.6,1,16.9,9.9,23c-5.2-2.5-10.4-5.1-15.6-7.6c-8.2,88.6-6.2,178.4-10.3,267.2c-1,22.1-2,44.1-3.1,66.2
		c-0.7,15.8-4.7,34-3.5,49.7c0.3,3.3-1,6.4,0.7,9.6c2,0.7,4.1,0.9,6.3,0.6c2.7-1.7,3.8-0.1,3.2,4.6c9.3,5.6,12,7.1,9.6,18.6
		C349.2,800.3,370.8,800.2,391.3,805.5C392.3,757.8,370.9,800.2,391.3,805.5z M1073.1,331.1c0.1,1.7,0.3,3.3,0.4,5
		C1073.4,335.1,1074.3,331.8,1073.1,331.1c0.2,1.8,0.4,3.5,0.5,5.3C1074.1,334.5,1073.9,332.8,1073.1,331.1
		c0.7,11.1-5.1,25.8,2.3,35.6c6.4,8.5,19.2,9,28.5,12.1c-0.9-16.1-8.7-34.3-25-40c12-1.4,18,14.1,25.3,20.6
		c-1.1-17.1-19.6-17.4-28.1-29.2c8.3,5.6,17.7,9.4,27.4,12.1c-0.5-5.7-1.1-16.7-8.8-17.4c-0.2,1.4-0.4,2.9-0.6,4.3
		c-1.8-1-3.4-2.2-4.7-3.7c2,4.6-10.6,3.7-13.6,1.7c1.6,1.4,1.8,2.9,0.5,4.5C1075.2,331.5,1074.2,331.3,1073.1,331.1
		C1073.8,342.8,1077.4,333.6,1073.1,331.1z M1075.4,400c-0.1,0.7,0-1.3,0.1-1.3c-1.1,0-0.3,23.8,0.5,25.9
		c4.9,11.9,16.2,11.9,27.9,13.5c0-11.3,6.3-30.9-5.4-38.7c8.8,1.5,6.2-11.8,3.9-16.1c-5.7-10.1-19.2-9.7-28.1-15.5
		c0.1,5.4-4.5,28.1,6,26.4C1077.4,395.1,1075.8,397,1075.4,400C1075.2,402.3,1075.6,397.1,1075.4,400z M1104.9,457.5
		C1104.7,453.8,1103.9,457.2,1104.9,457.5c-0.5-5.2,0.4-11.3-3-15.8c-5.8-7.6-17.3-5.3-24.6-10.5c-0.5,122.8,0,245.7-0.4,368.5
		c1-3.1,12.3-8.3,14.3-3.9c4.4-7.6,7.8-6.6,11.4-15.2c4.7-11.3,3.8-22,3.2-34.3c-1.6-32.6-2.7-65.2-3.2-97.9
		c-0.5-35.5-0.6-71.1-0.3-106.7c0.1-15.7,0.1-31.4,0.8-47.1c0.5-11.2,5.5-28.1-1.8-38C1102.5,456.8,1103.7,457.1,1104.9,457.5
		C1104.7,454.1,1103.7,457.1,1104.9,457.5z M1150.9,347.4c1.7-10.6-0.2,15.6,2,11c-1.3,1.3-9.3-3.4-5.7-5.2c-0.1,4.2-5.3,0-2.1,5.4
		c2.2,3.7,6.7,6.2,9.6,9.2c0-3.8,0-7.6,0-11.5C1155,352.7,1153.7,349.7,1150.9,347.4z M1155.8,401.8
		C1155.8,400.2,1153.2,401.2,1155.8,401.8c-0.7-4.3-1.6-8.7-7-11c13.5,2.5,2.6-10.7-3-13c3.3,0.4,6.7,0.7,10,1.1
		c-0.7-9.1-6.7-15.3-12.6-21.6c0,0.6-2.1,3.5-2.7,3.2c0.6-2.9-1.2-5.8-4.5-2c-0.7-2.9,0.4-4.7,3.4-5.3c-2.2-2.4-4.4-4.8-6.6-7.2
		c2.3,2.3,4.7,4.7,7,7c0.1-1.2-0.3-2.2-1.4-2.8c0.1,0.1,2.7-1.1,4.6,0c-1-4.3,2.3-6,0.6-9.4c-2-4.1-8.4-6.2-11.9-8.8
		c1.3,0.7,15.9,8,15.9,7.1c-0.6-0.4-1.2-0.6-1.8-0.8c1.1-2.4,2.8-3.1,5.2-2.1c-0.1-2.8-5.6-6.8-5.5-4.3c-0.1-3.2-8.5-5.8-12.7-7.8
		c4.4,1.5,6.8,3.2,10.9,2.5c1.6-0.3,1.8-3.9-0.2-3.5c-0.6,0-0.5,7.9-1.9-0.7c0,0.2,0,2.7-0.9,1.7c-2.3-2.3,4.2-3.7,4.8-4.4
		c1.9-0.1-11.5-0.9-6.9,1.4c-2.4-1.2-6.2-1-7-6.3c-0.1-0.9,7.1-1.5,0.6-2.4c3.9-3.1,6.3-4.6,1-8.1c-0.2,4.8-5.7,1.3-7.7,1
		c0,3.7-2.2,1.7,1.8,7.1c-12-8.8-0.4-1.8-3.1-0.5c-1.2-0.4-1.7-1.2-1.3-2.5c-0.3,5.8-4.7,0.8-6.7,4.3c5.2,2.3,9.6,1.1,14.9-0.1
		c-2,0.4-17.2,8.2-12.9,7.8c1.3-0.1,1-3.3,1.4-4c-1.3,2,0.4,6.2,3.7,3.6c-3.1,2.4,6.1-0.8,7-1.1c-9.1,2.2-1.1,6.9-4.6,9.3
		c-4.6,3.5-11.2-4-16.3-2.3c3.1,2.3,6.2,4.6,9.3,6.9c-4.3-0.5-4.8,1.9-1.5,7c1.9-5.1-6.9,0.1-7.8,1.2c-3.7,4.2-0.1,14.6,0.1,19.5
		c4.2-1.3,8.4-3.8,10.6-7.7c-2.3,5.2-8.4,7.3-10.1,12.8c-1.8,6-0.6,11.5,6.2,5.5c-3.2,2.1-5,5-5.7,8.8c6.4-3.6,12.9-7.6,20.1-9.5
		c-18.9,7.1-19.5,20.9-20.4,38.8c-0.5,8.2-4.1,32.7,11.4,28.2c-4.5,3-10.6,4.2-11.7,10.3c-1.1,6.3,2.2,11.1,9.1,8
		c-9,5.6-8.5,15.4-8.5,24.8c3.2-1.8,6.4-3.6,9.5-5.4c-13.8,18.9-9.8,41.6-9.9,64.1c-0.1,26.5,0.4,52.9,1.3,79.4
		c1.9,54.4,3.3,108.8,3.5,163.2c4.5-3.2,2.4,3.6,3.8-3.8c1,0.3,2,0.7,2.9,1.3c1.4-1.1-2.8-2.2-0.8-3.6c0.9,0.8,2,1.4,3.1,1.9
		c3.9-3.5,6.4-4.2,10.4-6.2c2.1-1.1,0.6-4.4,2.9-5.7c3.2-1.7,2.1,3.9,4.1,3.5c2.6-0.6,0.1-5.3,3.5-6c-0.3,1.7-2.6,7.9-0.2,9.2
		c6.7,3.7,6.4-18.1,6.4-20.9c-0.1-13.2-0.4-26.4-0.5-39.7c-0.3-25-0.4-49.9,0.9-74.9c2.1-40.4,12.7-86.7-8.9-123.8
		c3.3,4.7,6.7,9.3,10,14c0-17.7,6.4-40-11-52.1c3.7,1.5,7.4,3.1,11,4.9c0.8-4.5,0.1-8.8-1.9-13c7.8,6.5,3.8-14.3,3.7-17
		c-0.9-14.5,2.9-31.4-8.6-42.9c3.3,2,6.7,4,10,5.9c-1.1-6.3-2.1-10.7-8.1-14C1150.5,400.6,1153.2,401.2,1155.8,401.8
		C1155.8,399.9,1153.2,401.2,1155.8,401.8z M1512.8,304c0.1,1.6-3.9-2.3-5.6-2.3c-5.2,0.1,4.3,6.6,4.4,6.7c-1.7-0.2-3.5-0.4-5.2-0.7
		c-0.8,0.4,3.1,6.3,6.5,1.7C1513.1,309.2,1514.6,299.2,1512.8,304C1513,305.9,1513,303.4,1512.8,304z M1486.3,280.4
		c-1.8,0.7-1.9,0.7-0.2,0c0.9-0.3-3,1.1-0.5,0.2c2.9-1.1-2.3,0.7-0.6,2.1c3-2.4,3.8-2,2.4,1.3c1.7,0.9,6.1-6.5,2.7-6.6
		C1489.8,279.7,1488.6,280.7,1486.3,280.4C1482.4,281.8,1488.4,279.4,1486.3,280.4z M1482.8,284.3c-0.1,0.8,17.9,4.9,17.4,5
		c0.5-0.5,0.9-1.1,1.2-1.7c-0.2-0.4-6.5-0.8-6.2-1.5c0.7-2,5.5-0.1,6.5,0.5c0.1-2.5-1.7,3.6-1.7-2.9c4.3,4.5,9-5.2,12.2-6.6
		c-3.4-3-2-1-3.4,0.9c-8-6.5,0.6-1.8-8.5-2.1c5.7,0.2-4.9-16.8-4.2-15.7c0.7,1.5,1.6,2.8,2.7,4c-5.1-4.2,1.8,9.1-3.3-0.2
		c-0.3-0.5-0.1,9.2,0.9,7.5c-0.9,3.2-7.6-12.4-2.7,2C1489.7,267.9,1495.6,294.2,1482.8,284.3
		C1482.7,284.7,1485.5,286.3,1482.8,284.3z M1461.9,258.2c0-0.3,0.9,6.1,3.7,4.4c-1.9-4.4,5.1-6.1-0.3-8c7,6.8,8.1-1.8,8.8-4.5
		c-1.1,3.9-1.9-10.6-0.1-7.5c-0.2-0.4-7.1-1.6-6.6-2.5c9.8,0.4,4.7-13.2,1-12.7c-0.2,6.3-2.7,1.7-2.8,4.3c1.7-0.3,3.2,3.5,3.7,4.4
		C1464.2,230.5,1463.5,257.1,1461.9,258.2C1461.8,258.9,1463.4,257.1,1461.9,258.2z M1474.8,262.6c0.8,0.4,0-1.6-2.7-3.6
		c0,6.3-8.7,10-0.6,14.7C1472.8,270,1473.9,266.3,1474.8,262.6C1474.6,262.5,1473.9,266.3,1474.8,262.6z M1460.3,270.6
		C1460.3,271,1464.5,269.7,1460.3,270.6c-0.9,6.4,5.6,2.4,8.8,2.9C1465,272.8,1463.7,269.9,1460.3,270.6
		C1460.3,271.2,1463.7,269.9,1460.3,270.6z M1462.5,279.1c0,0-4.9,5.7-2.1,7.1c4,2.1,5.7-8.1,6.8-9.1
		C1465.6,277.8,1464,278.5,1462.5,279.1C1461,280.2,1462.9,278.7,1462.5,279.1z M1459.2,304.5
		C1459.1,308.1,1460.1,305.3,1459.2,304.5c0.5,3.1,2.1,5.4,4.9,6.7c-5.1-2.5-1.2,5.4-0.8,6.3c-1,0.9-6.2-4.2-7-4.5
		c4.5,2.5,8.6,5.3,12.5,8.6C1470.3,310.8,1463.5,308.3,1459.2,304.5C1459.1,307.9,1460.3,305.5,1459.2,304.5z M1460.7,322.6
		c-1.2,0.5,3.8-1.7,4.8-2.1C1464.2,321,1456.6,324.4,1460.7,322.6c-14.1,6.2-4.2,72.5-4.5,83.4c3.1-20.9,6.5-41.8,9.8-62.6
		C1466.7,339.1,1471.1,318,1460.7,322.6C1456.4,324.5,1471.7,317.7,1460.7,322.6z M1361.7,318.7c0.8,0.5,2.6-0.5,2.6-1.5
		C1364,313.8,1359.9,317.4,1361.7,318.7z M1364,330.1c-1.3-1-0.5,1.5-1.8,0.3C1361.5,336.5,1370.2,335,1364,330.1z M1444.7,264.8
		c1,3.5-1-6.2,3.8-2.2c0.3-3.1,1.6-27.2,3.2-27.1c-1.7-0.1-7.3,0.2-8.5-1.2c2.8,3.7-23.8-1.7-23.1-4c3,2.3-0.8-4.1-0.9-4.6
		c-0.7-6.8-5.1-3.8,3.4-4.4c-0.1,1.4-10.8-8.6-9.8-8.6c-3.6-0.2,0.8,10.9-5.7-1.3c-0.7,2.5-1.8,4.8-3.5,6.9c1.4,0.4,4.1,0.1,2.8-0.5
		c1.3,0.6,4.6-0.7,5,1.7c0.2,0.2-7.2,0.3-7.1,0.2c1.8,3.6,9.6,7,9.4,11.6c0-0.3-5.6,2.4-4.2,5.4c2.6,5.5,4.9-4,5-4.1
		c0.1,1.1,7.7,2,8.8,1.3c2.2,4.4-9.3,4.5-0.5,6.5c-0.5,2.8-11.9,3.7-12.1,2.8c1.3,1.2,6.2,3.5,4.9,6.2c1.5-4.6-14.1-3.4-14.5-3.1
		c0.4-0.9,0.3-1.9-0.3-2.7c0,1.2-4.6,7-5.4,7.6c-0.8-1.7-1.6-3.4-2.3-5.2c1.5-0.5-10.3,9.5-10.3,8c0.2-0.7,14.8,0,15.7,0
		c-2.6,0.4-13.2,5.6-14.7,4.9c12.1-7,2.3,8,0.1,4.2c5,8.6-22.4,0.9-26.1,8c-1.7,3.3,28.8,1.2,23.4-3.5c8.4,3.7,17.5,3.8,25.8,5.4
		c-0.4,1.6-0.3,3.2,0.2,4.8c0.4,0.7,2.7-4,3.6-2.9c2.4,2.8,2.8,1.7,4.9,3.8c-2.8,2.8-0.6,2.7,1,4.6c-2.1,0.1-2.9,1.1-2.5,3
		c2,0.2,4.1,0.3,6.1,0.3c-4,2.4,1.5,3.9-5.2,4.5c-1.4,0.1-3.4-8-5.6-5.7c0.5,1.6,1.4,2.9,2.7,4c-1-6.4-13.4-0.3-16.1,0.6
		c-0.3-1,11,2.3,12.2,5.9c-1,1.9-2.4,1.4-4.3-1.5c2.2,1.8-0.6,4.6-5.4,1.8c0.3,3.1-0.9,3.8-3.4,2.1c7.7,7.7,10-2.9,15,2.1
		c-0.8-0.5-1.5,7.3-0.6,8.3c2.4,2.6,6.5,0.9,9.1,2.8c0-0.2-1.7,6.8-3.4,5.2c0,0,5.6,5.1,5.4,4.7c0.5,1.1,4.4-0.4,5.6,2.3
		c1,2.2-2.7,8.8-4.1,3.8c0.1,1.1-0.3,2-1,2.8c-3.8-0.8-9.6-10.3-12.9-3.7c1.2,0.6,2.4,1.2,3.6,1.8c-0.1,0-3.2,1.8-2.3,1.8
		c-0.7-1.2-5.6-10.2-6.5-9.8c-8,4,14.3,19.2,12.9,11.1c-1.9,3.7,3.3,6.4,5.7,8.8c-1.3-0.6-2.5-0.7-3.9-0.3c0.4-0.4,6.9,7.3,7.3,9.4
		c1.8,7.9-2.4,0.8-4.3-0.4c-0.7,2.8-5.1,0.3-7.1-1.2c0.3,1.4,0.7,2.7,1.2,4c-3.3,2.8-4.7-13-7.2-7.5c0.1-1.6-0.4-3.1-1.5-4.3
		c-1.1,1.6-0.3,4.5-1.4,0.4c-1.9,4.2,1.1,13.8,0.5,15c-1.3,1.3-9.3-3.4-5.7-5.2c0-0.1-6.9,5.5-6.5,7.1c0.1,0.3-0.1-7.3-4.7-1.9
		c-0.6-1.6,4.3-6.9,4.2-7c-0.9-0.2-1.5,0.1-1.7,1c2.2,0.3-0.7-5.2,4.5-2.3c-1.2-5.1,5.6-9.1,2.8-11.9c1.1-2.4,2.8-3.1,5.2-2.1
		c-0.1-3.8-1.1-7.3-3.1-10.6c-1.1,1.7-1.5,6.5-3.4,6.5c1.7,0-2.2-2.5-2.1-2.3c0.3-0.3,5.1-7.5,1-6.7c-0.6,0-0.5,7.9-1.9-0.7
		c0,0.2,0,2.7-0.9,1.7c-1.2-1.2,4.8-5.1,5.1-5.7c0.8-1.8-8.6-5.3-8.9-5.4c-0.1,2.7-0.1,3.3-0.1,1.7c-0.2-2.1-0.4,1.7-0.4,1.7
		c-3.5-4.8-2.1,3.5-5.4-1c1.4-0.5,2.6-1.2,3.8-2.1c-0.8-0.3-1.7-0.5-2.5-0.8c1.4-2,3.3-2.7,5.7-2.1c-0.3-5.2-10.1-7.6-6.2-3.6
		c-2.7,0-3.1-5.9-4.9-4.9c-0.5-0.5-2.6,5.9-0.3,5.2c-1.6,0.4-3.3,0.4-4.9,0c2.4,1.3,4.2,3.1,5.7,5.4c-12-8.8-0.4-1.8-3.1-0.5
		c-1.3,0.6-8.3-7.1-9.8-8c-2.5,3.8-3.2,3.9-7.7,3.9c4.5,6.8,17.3,7.4,24.4,5.9c-2,0.4-17.2,8.2-12.9,7.8c1.3-0.1,1-3.3,1.4-4
		c-1.3,2,0.4,6.2,3.7,3.6c-3.1,2.4,6.1-0.8,7-1.1c-9.1,2.2-1.1,6.9-4.6,9.3c-4.6,3.5-11.2-4-16.3-2.3c3.1,2.3,6.2,4.6,9.3,6.9
		c-4.3-0.5-4.8,1.9-1.5,7c1.9-5.1-6.9,0.1-7.8,1.2c-3.7,4.2-0.1,14.6,0.1,19.5c4.2-1.3,8.4-3.8,10.6-7.7c-2.3,5.2-8.4,7.3-10.1,12.8
		c-1.8,6-0.6,11.5,6.2,5.5c-3.2,2.1-5,5-5.7,8.8c6.4-3.6,12.9-7.6,20.1-9.5c-18.9,7.1-19.5,20.9-20.4,38.8
		c-0.5,8.2-4.1,32.7,11.4,28.2c-4.5,3-10.6,4.2-11.7,10.3c-1.1,6.3,2.2,11.1,9.1,8c-9,5.6-8.5,15.4-8.5,24.8
		c3.2-1.8,6.4-3.6,9.5-5.4c-13.5,18.6-9.7,38.4-9.7,60.5c-0.1,22.1-0.1,44.2,0.6,66.3c1.4,45.8,9.2,94.1,5.6,139.8
		c0.7-8.4,3.8,1,6.2,1.1c2,0.1,0.3-5.4,2.9-5.2c3,0.1,0.8,4.8,4,5.2c0.3-6.3,14.8-18.8,15.5-10.7c-1.7,1-3.5,2-5.2,2.9
		c10.1,4,0.6,5.6,2.1,14.4c0,0.2,10.6-8.1,11.1-8.3c-5.6,1.9,11.4,9.8,5.9,5.2c9,2.8,8.3-5.4,9-14.8c1.3-18.5,2.1-37.1,3.2-55.6
		c2.5-38.7,5.1-77.3,7.9-115.9c2.8-38.4,5.9-76.8,7.9-115.2c1-19,1.2-37.9,2-56.9c0.8-16.7,3.9-35.4-6.9-49.8
		c2.8,2.6,5.5,5.1,8.3,7.7c0.1-2.2-0.6-30.7-0.8-31c-1.8-0.7-2.6,0-2.3,2c-0.8-1.7-2.4,0-6.9-0.8c1.5-1.8,3-1.9,4.7-0.4
		c0.3-4.2,2.2-16,7.2-13c-0.8-0.3-12.3-12.7-13.5-12.8c1.5,1.5,3.2,2.3,5.3,2.6c1-1.1-2.5-5.9-1.2-6.5c2.3,0.7,4.1,2,5.5,3.9
		c-0.2,0.1-13.3-18.4-15-20.3c1.9,1.9,9,12,12.1,10.2c-1.7-1.8-3.1-3.8-4-6.1C1438.7,269.7,1444.5,271.5,1444.7,264.8
		C1444.5,264,1444.6,267.9,1444.7,264.8z M1509.4,718.3c0.2-4.6-9.5-7.4-9.6-4.2C1499.6,716.6,1509.6,718.4,1509.4,718.3
		c-0.3-1.5-0.5-3-0.8-4.5C1507,715.5,1507.3,717,1509.4,718.3c2.1-53.6,6.7-107.1,8.9-160.8c2.2-53.8,2.1-107.7,6.2-161.5
		c-4.4,2.7-8.8,5.2-13.5,7.4c9-6.3,16.7-13.6,13.6-25.3c-0.7-2.6-7.3-14.5-11-13.6c-0.6,0.2-10.4,16.7-9.3,7.2
		c0.5-3.9,7.7-8.9,7.7-9c-1-0.4-5.5,0.1-0.7-1.1c-0.5-2.1-10.2,13.2-4.8,0.9c-0.4,1-1.1,4.6-3.3,3.7c1.3,0.5,5.6-12,5.8-13
		c1.3,2.5,19.1-5.4,14.3-10.4c-1.2,1.8-2.7,2.9-4.7,3.3c-0.8-1.2,5.1-9.2,5.9-9c-0.6-0.2-9.1,4.2-7.3,0c0.2-0.3,4.4-0.7,4.4-0.8
		c-2.3-4.5,6.6-2.8,4.3-9.8c-2.3-7.1-13.3-4.6-18.7-3.4c4.4-2.2,15.4,1.3,17.1-5.2c0.1-0.4-23.4,1.5-19.5-7.7
		c-1.2,1.8-2.5,3.6-3.8,5.4c2.1-1.4,3.4-0.8,3.7,1.7c-0.8,3.8-18.9,0.5-14.1-7.5c4.1,8.8,1.6-1.4,2.8-2c-1.4,1.7-2,1.3-1.9-1.2
		c0.3-0.6,5.7-3.1,5.4-3.9c0,0-4.4-0.6-3.3-2.1c0.9-0.3-0.7-0.4-0.5-0.3c-7.8-1.2,6.8,8.7-6.9,3.4c0.9-1.4,1.9-2.7,3-4.1
		c-0.7,2.1-1.8,2.4-3.1,0.7c0.1-2.2,9.3-1.9,10.2-1.2c-2-1.4-1.6-3-1.7-4.7c0.9,1.2,2,2,3.3,2.2c-0.5-0.7-0.3-1,0.6-1
		c-1.9-1.6-4.1-2.2-6.6-1.8c9-1.1-6.9-2.5,4-1c0.3-1,0.4-2.1,0.4-3.2c-0.3,0.4-0.7,0.8-1.1,1.1c3.4-4.8-10.6-2.3-13.4,2.9
		c-3.5,6.5,1.7,14.8,6.7,18.7c-3.5-1.5-6.9-3.2-10.2-4.9c-1.5,4.2-2.4,11,3.9,4.9c-8.3,10.3,0.2,15.8,8.1,22.3
		c-4.7-2.7-9.5-5.3-14.2-8c-21.6,137.9-22.1,280.2-30.2,419.4c11.1-1.2,37.7-5.1,45.6-13.3C1499.6,724.3,1493.7,715,1509.4,718.3
		C1509.7,708.7,1489.4,714.2,1509.4,718.3z M1620.6,449.3c-0.1-0.1,3.7,3,4.7,4.1c-1.7-1.9-4.1-3.2-5.8-5.1c0.5,0.5,1,0.9,1.6,1.3
		c-3.4-2.9-6.7-5.9-9.9-9.1c6.2,4.3,12.7,8.4,18.9,12.7c-0.2-7.8,2.9-15.4-1.4-22.7c-3.6-6.1-12.4-7.9-17.6-12.1
		c6.2,3.5,12.2,7.3,18.6,10.4c-0.4-16.9-7.6-28-20.9-38c6.8,3.8,13.5,7.6,20.3,11.3c0-3.5-0.3-26.6-10.4-21.9
		c-6.1,2.8,3.6,4.3,2,6.1c-1.7,1.9-15.3-26-16.1-3.3c-0.7-4.9-1.1,6.3,0.1,7.4c-2-0.5-2.7-4.2-3.3-0.9c1.2-3.3,0.3-4.3-2.8-3.2
		c0.8-0.6,5.1-3.9,4.5-5.4c-1.5-4.1-8.8,8.7-9.1,9.1c0.7-9.3-1.7,3-1,5.5c0.2,0.7,0.9-2.8-2.7-0.1c4.3-3.2-5-3.6-5.4-4.2
		c-1.8-2.9-0.5-10.7,1.9-5.1c0,0.3,1.3-8.9,0.2-7.3c2.5,1.2,4.4,0.5,5.5-2.2c-2,2.1-1.6,3.2,1.2,3.4c2.1-6.8-0.7-5.3,4.2-11.9
		c-4.4-1.4-8.8-2.7-13.2-4c5.3,1,11.4,1.9,16.9,1.5c-1.8-0.9-1.6-1.7,0.8-2.4c-0.8-0.7-1.7-1.3-2.7-1.7c6.3-2.9,1.2-3,2.8-0.3
		c1.5-0.4,2.6-1.2,3.5-2.5c-1.2-0.9-0.8-0.5,1,1.4c8.9,0.3-15.6-22.2-4.8-12.1c-2.4,0-3.7,4-5,3.5c-2-0.6,2-5.4-2.5-4.5
		c4.1-1.9-0.7-9.3-3.8-11.6c8.3,8,2.4,0.2,3.5-0.5c1.1,0,1.3,0.4,0.7,1.4c2.8-4,10.7-3.4,0.9-8.9c-6-3.4-4.7,2.9-9.8,0.1
		c0.5,0.2-1.5,5-3.8,2.3c-1.9-2.2,4.1-2.9,4.6-3.6c-3.7-0.8-4.2-1.9-1.5-3.4c1.9-2.3,3.2-2.2,3.9,0.4c4.8-4.5-7.8-15.4-12.6-14.4
		c-7.1,1.4-1.6,14.2,1.5,13.6c-2.7-0.4-5.4-0.4-8,0c-0.4-0.6,2.8-9.7,3.2-9.8c-1.3,1.2-2,2.8-2,4.6c-4.4-2.4-12.5-10.7-18.3-7.7
		c-3.7,1.9-4.1,8.1,1.2,6c-1,0.2-7.6,0.7-6.6,3.3c2.5,0.1,16.7-0.3,14.7,5.4c-0.4,1.1-7.5-1.1-9.2-0.3c-4.2,2,0.2,3.2,0.1,7.8
		c-0.9-1.5-1.9-2.9-3-4.2c-0.1,0.1-0.6,11.4-3,5.6c0.3,2.3,1.5,3.9,3.5,5c-10.2-4.5-7-2.8-8.5,4.4c-0.1,0.4,5.8,17.1-5.4,8.2
		c-0.3-0.4,3.8-4.6,1.7-5.1c-5-2.7,0.9,9.2,1.2,9.6c4.7,6.6,16.1,6.6,23,5.5c-8.1,2.7-13.3,2.5-20.9-0.9c-4.2-1.9-5.1-8.3-10.7-8.1
		c0.1,14,1.3,25,13.5,33.7c-4.5-2.3-9-4.7-13.5-7.2c0.1,6.1,0.1,12.1,0.2,18.2c12.2-6.4,25.4-10.8,39.3-9.9
		c-15.4-0.5-32.7,0.8-39.1,17.1c-5.7,14.4-1.4,34.4-1.9,49.6c-1.4,48-2.4,96.1-5.2,144.1c-1.4,23.5-3,47.1-4.4,70.6
		c-0.7,12.2-7.5,39.4-1.7,50.1c1.3,2.4,9.4,7.3,11.8,8.5c7.7,3.8,7.5,1.7,11.4,0.3c0.7-0.3,1.4-3.6,4.2-4.3c2.3-0.6,4.9,0.2,7.2-0.1
		c3.1-0.3,4.1,3.4,8.9,1.9c-0.7-1.2-4.8-2.9-4.3-3.8c0.7-1.3,3-6.1,6.1-3.1c-0.6-1.4-0.9-2.9-0.7-4.4c1.3,0.1,2.5,0.4,3.7,0.9
		c1.4-1.6-3.8-1.9-1.7-4c0.5-0.5,2.7,1.1,4.6-0.9c1.8-1.9,10.4-6.8,9.9-6.2c0.4-1.7,0.6-3.5,0.7-5.2c1.9-0.1,3.7-0.1,5.6,0
		c1.6-1.3,2.5-6.9,4.6-7.7c0.1,13.4,4.6,4.3,9.6,6c2,0.7-6.3,8.8,2.4,5.9c1.6-0.6,9.4-8.4,8.2-8.6c-3.5-1.8,12.2-0.5,10.5,1.5
		c3-3.5,2.4-12.8,2.8-17c1.5-19.3,1.2-38.8,1.2-58.1c0-25.8,0.4-51.7,1.5-77.5c0.6-15.4,4.6-33.6,1.1-48.8
		c-3.1-13.5-13.8-20-22.8-29.7c7.8,6.2,15.3,12.6,23,18.9C1627.9,470.5,1630.8,458.2,1620.6,449.3
		C1617.4,446.6,1631.5,458.8,1620.6,449.3z M1608.9,335.1c-1,2.7-2.2,1.1-1.9-0.6c-0.7,3.1,6.5,10.6,8.1,9.1
		C1621.2,339.1,1606.6,336.6,1608.9,335.1C1608.6,335.9,1608.2,335.5,1608.9,335.1z M1629.1,324.6c3,1.9-11.4-6.3-13.3-7.5
		c-3,4.4,11.7,9,11.7,11.3C1627.5,325.8,1633.2,328.1,1629.1,324.6C1627.7,323.7,1632.9,327.8,1629.1,324.6z M1621.1,360.2
		c0-0.2,1.5,0.7,3.1,0.4c1.1-1.4-16.6-12.7-18.5-14c-0.9,7.3,3.9,8.1,8.2,10.8C1610.7,355.3,1625.7,360.3,1621.1,360.2
		C1621.1,359.9,1621.3,360.2,1621.1,360.2z M1622.2,352.6c-5.4-2.7-6.4-2.2-9.8-2.9c2.4,1.5,17.9,5.3,17.9,8.3
		C1630.4,352.5,1625.4,354.2,1622.2,352.6z M1630.6,333.7c-0.1,3,0.3-10.9,0.1-3.5c-1.9,1.7-7.3,6.6-5.2,9.9
		c-0.2-0.2,7.3-1.5,5.1,0.7C1630.6,338.5,1630.6,336.1,1630.6,333.7C1630.7,332.5,1630.6,336.1,1630.6,333.7z M1632,299.3
		C1632,298,1630.9,298.8,1632,299.3c0.1-6.2-6.9-6.4-11.1-7.8c0.9,2.6,3.2,16.9-0.1,18.2c-3.4,1.4-2.1-8.7-2.3-9.1
		c-10.2,15.3-13.5-6.9-22.7-11.6c0.4,5.6,6.7,16.5,10.9,19.1c3.2,2,8.7,1.9,11.8,3.7c-3.1,3.5-2,5.6,3.2,6.4c3.4,1.5,6.8,2.8,10.3,4
		c0-4.4-9.5-6.8-11.8-9.9c3.8,2.6,7.7,4.8,11.8,6.8c0-3.1,2.7-12.1-2.5-12.9c7.7-0.3-1.7-8.9-3.2-10.8
		C1628.2,296.8,1630.1,298.1,1632,299.3C1632,297.7,1630.1,298.1,1632,299.3z M1651.4,332.3c-1.9-6.3,1.3,4.4-0.6-1.9
		c0.9,2.5-4.8-2.8-8.3-3.9c0.5,6.2,3.6,8.3,9.3,9.6C1651.7,334.8,1651.6,333.6,1651.4,332.3C1650,327.4,1651.6,333.6,1651.4,332.3z
		 M1651.7,367.4c-0.6-2.2-1.9-3.3-4.2-3.2c-1,1.3-0.3,2,1.9,2.1c2.7,1.9,3.1,1.5,1-1.2c-1.4,4.1,1-5.7,0.1-9.6
		c-1.3-5.9-3.3-11.2-7.3-15.8C1642.6,351.3,1638.6,363,1651.7,367.4C1651.4,362.4,1638.6,363,1651.7,367.4z M1650.5,316.5
		C1650.6,317.1,1650.7,319.5,1650.5,316.5c0.1,0.9-7,4.3-6.8,6.4c2,1.9,4.5,3,7.4,3.3C1650.9,323,1650.7,319.7,1650.5,316.5
		C1650.5,316.2,1650.7,319.7,1650.5,316.5z M1642.7,308.6c-0.1,1.8,3.3,3.4,4.7,2.6c0.2-0.1-6.6-5.3-4.7-0.8
		c-0.1-0.2-0.6,6.9-0.8,9.8C1648,315.8,1652.7,311.7,1642.7,308.6C1642.5,312.5,1653.9,312.1,1642.7,308.6z M1642.3,367.5
		C1641.9,387.7,1652.1,370.1,1642.3,367.5c0,1.3-1.1,9.4,0.5,9.8C1642.5,377.3,1645.3,368.3,1642.3,367.5c-0.3,13.8-9.9,64.4,9.4,67
		c0-12.9,7-35.1-6.1-43.8C1658.6,392.9,1650.7,369.7,1642.3,367.5C1641.9,389.2,1651.1,369.9,1642.3,367.5z M1652.9,456.5
		C1652.6,452.3,1651.7,456.2,1652.9,456.5c0-2-0.2-2.3-0.7-1c-0.7-8.9,1.8-18.1-10.2-19.5c-0.1,81.3-0.7,162.7-4.3,243.9
		c3.2-0.1,0.9-4.3,3.6-4.6c-2.4,0.3,5,5.9,4.8,4.4c-1.9,1.4-3.9,2.7-5.9,4.1c2.8,0.8,4.3-2.2,4.3-1.1c0,1.9,3.9,6.2,3.9,5.8
		c0.2,5.6-5.7,6-4.1,12.2c0-0.2,4.8-1.8,5.2-2.4c2.5-3.5,1.2-5.8,1.6-9.7c1.1-11.3-1-23.9-1-35.3c-0.1-22.9-0.1-45.9-0.1-68.8
		c0-25.7-0.9-51.7,1.7-77.3c1.6-15.9,7.5-37.6-2.8-51.8C1650.2,455.7,1651.5,456.1,1652.9,456.5
		C1652.6,452.7,1651.5,456.1,1652.9,456.5z"/>
</g>
</svg>
