<?xml version="1.0" encoding="utf-8"?>
<!-- Generator: Adobe Illustrator 18.1.1, SVG Export Plug-In . SVG Version: 6.00 Build 0)  -->
<svg version="1.1" id="Layer_1" xmlns="http://www.w3.org/2000/svg" xmlns:xlink="http://www.w3.org/1999/xlink" x="0px" y="0px"
	 width="100%" viewBox="0 0 1680 992.2" enable-background="new 0 0 1680 992.2" xml:space="preserve">
<g>
	<polygon fill="#7AA3A1" points="449.7,889.2 631.8,889.2 630.9,992.2 448.8,992.2 	"/>
	<path fill="#1B2628" d="M1680,950.2c0-102.4,0-204.8,0-307.3c-8.3,1.8-16.7,3.6-25,5.4c0.6-0.6,1.3-1.2,1.9-1.8
		c-0.6-0.2-4.8-12.1-3.6-13.5c1-1.1,5.3,2.6,3.2-1.7c0,0.1,1.6,2.5,1.1,2.4c2.1,0.5-0.1-2.5,3.5-1.8c-0.1,0-1.6-3.9-1.5-4.1
		c1.3-2.6,3.7-0.2,2.9-5.7c0,0.2,2.4-2.6,0.8-5.8c-1-2-5.4-2.6-6.6-5c-0.9,1-1.6,2.1-2.3,3.2c-0.3-0.1-2.1-2.5-2-2.5
		c-0.6,0.1-2.1,1.3-1.6,1.5c-0.2-0.4-0.4-0.9-0.4-1.4c-0.3,0.5-0.7,1-1,1.5c0-0.6-0.4-1-1-1.2c0.1,0.5,0.1,1.1,0.1,1.6
		c-0.3-0.3-0.6-0.6-0.9-0.9c0.1,1.1,0.4,2,1,2.9c-1.3,1-5.8-3.4-5.5-3.1c-0.3,1-0.8,1.8-1.5,2.5c0-0.8-0.3-1.4-0.9-1.9
		c-1.3,0.8-10.7,18.3-11,18.3c-5.3-0.2-1.4-10.3-4.6-12c-5.7-3.1-6.7,7.1-8.2,9.5c-0.6-13.9-3.1-27.5-3.7-41.4
		c-0.8-22.1-1.7-44.2-2.5-66.3c-1.8-47.7-3.2-95.4-5.4-143.1c-4.3-93.4-10.2-186.6-15.3-279.9c-0.7-13.6-1.5-27.2-2.2-40.8
		c-0.6-10.2-3.5-22.7-2.3-32.8c1.8-15.5,25.4-19,36.9-25.1c-14,0-28,0-42,0c-5.6,0-15.9-2.1-21,0c-0.4,0.2-1.8,3.6-3.6,4.3
		c-12.2,4.9-27.7,1.1-40.5,1.3c11.8,1.8,32-1.4,42,5.8c5.6,4,4,11.8,4,18.1c-0.1,10.5,0.7,20.9,1.4,31.4c-13-4.1-25.9-8.2-38.9-12.3
		c10.3,5.1,25,9.2,34,16.4c6.5,5.1,5.6,13.9,6.8,21.6c1.1,7.3,5.3,20.1,1.6,27c-5.7,10.4-19.2-0.8-26.7-3.3
		c14.4,10.4,28.2,10.2,28.6,30.5c0.4,24,2.2,48,3.2,71.9c2.2,51.4,4.6,102.9,6.8,154.3c2.2,51.7,4.2,103.4,6.2,155.1
		c1,25.2,1.9,50.5,2.9,75.7c0.3,6.9,1.7,14.8,0.8,21.6c-1.7,14.3,0.4,1.1-2,6.4c-1.2,2.7-6.7,13.4-10.6,11.2
		c-0.4,1.4,1.2,4.6-3.1,2.9c0.7-1.2,0.9-4.7,0.4-6.1c0.4,1-6.6,0-5.1-1.7c-2.3,2.2,1.8,6.1,0.6,7.5c-1.5,1.9-4.6-2.9-5.5-2.7
		c-1.4,0.2-0.9,7.2-1.4,8.4c0-0.1-8.2-1.7-1.6,1.1c-2.6-1.5-3.8,4.6-5.1,5.7c-3.7,3.2-2.4-2.4-6.2,2.7c-1.3-3-12.9-3.1-11.1,0.6
		c-3.2-1-1.7-2.2-4.5-0.8c-2.3,1.1-4.9,5-7.8,4.8c-2.3-0.2-1.6-4.4-3-4.6c-3.9-0.7-6.6,2.5-10.7,2.5c-4.7-67.6-8.5-135.2-10.2-203
		c-0.9-33.2-1.7-66.5-0.9-99.7c0.3-13.2-0.3-27.5,1.6-40.6c1.4-9.4,6.8-13.5,14.3-18.9c-4.7,2-9.4,4-14.1,6c0-16.7-1-33.5,0-50.2
		c1.1-16.9,4-33,3.3-50c-0.7-15.1-0.4-29.9,0.1-45c0.5-17,2.8-23.8,16.8-33.8c-4.7,1.3-9.4,2.7-14.1,4c0.9-19.7,1.9-39.4,2.9-59.2
		c0.9-18.3,2-30.2,15.2-43.4c-4,2.7-8,5.4-12.1,8c-0.7-7.7,2.8-21.4-1.5-28c-4.9-7.6-18.2-3.4-26.1-3.4c4.1,12.1-1,25.4-2.6,37.5
		c-4-2.7-8-5.4-12.1-8c9.5,11.1,12.1,19.7,12.1,34.2c-4.7-3.4-9.4-6.7-14.1-10.1c12,13.7,12.9,20.4,12.9,38.3
		c0,6.5,2.4,31.9-8.8,32.1c9.3,6.5,6,19.3,5.4,28.8c-0.9,13.8-0.9,27.8-1.4,41.7c-3.4-12.1-6.7-24.1-10.1-36.2
		c3.1,17.3,9.1,34.5,8,52.3c-11.4-8.7-22.8-17.4-34.2-26.2c9.7,9.7,26.3,18.1,31.5,31.3c2.6,6.6,0.6,14.3,0.3,21.2
		c-0.5,12.8-0.4,25.7-0.7,38.6c-0.8,45.8-2.1,91.5-1.8,137.3c0.4,64.4,2.8,128.6,5.4,192.9c0.2,5,5,56.9-1.4,58.3
		c-1.5,0.3-0.8-2.3-1.1-2.9c0,0-11.3,8.4-11.3,11.2c0,1.2-3.3,0.4-3.6,0.7c0.1,1,0.3,2.1,0.7,3c-0.5-0.5-1-1-1.6-1.4
		c-0.1,3.9,1.1,5.3-2.7,6.9c0.5-0.2-12.3,0.3-12.6,0.2c-0.1,1,0,2,0.4,3c-2.5-0.8-6.6,0-9.1,0.7c3.5-90.4,4-180.9,2.7-271.3
		c-0.6-44.3-1.7-88.6-3.1-132.9c-1.4-44.3-5.4-88.6-5.4-132.9c5.1,2.9,10.2,5.8,15.3,8.7c-9.5-6.8-15.2-10.3-15.3-22.7
		c-0.1-13.9,7.3-17.7,17.4-25.3c-5.8,3.6-11.6,7.3-17.5,10.9c0-16.9-3.9-33.2,8.7-45.9c-2.9,1.5-5.8,2.9-8.7,4.4
		c-0.7-5.8-1.5-11.6-2.2-17.5c5.8,3.6,11.6,7.3,17.5,10.9c-7.3-6.4-15.2-11.2-18.3-20.9c-1.6-5-4-17.8,1.6-21.2
		c-3.9-0.4-3.6-5.6-3-8.1c11.5,8.5,23.1,10.7,37.1,8.7c-14.4,0.6-35.3-3.7-37.3-20.7c-0.2-1.7,1.3-8.2,0.1-9.5
		c-1.3-1.5-11.8-0.6-13.4,0.8c-5.6,4.9-0.5,14.7,0.3,20.7c-4.6-3.4-8.2-6.8-11-11.8c-2.1-3.9-2.3-9.7-8.1-9.6c1.7,2.6,2,5.8,3.8,8.4
		c-4.4-1-14.2-1.2-11.7-8.4c-2.8,2.2-2.8-0.5-3.5,4c-8.4-3.2-17.4-4.8-26.3-4.4c6.6,1.3,20.1,1.3,24.6,7.3
		c4.9,6.5-0.1,18.9-0.9,26.1c-2.5-14.2-11.2-21.1-22.4-29.1c9.2,8.4,18.6,15.8,19.4,29.2c-16.7-3.5-21.2-20.6-31.6-31.6
		c6.7,7.8,7.3,19.5,14.8,26.4c4.2,3.8,16,5.5,15.6,12.8c-13.2-4.1-22.8-7.4-28.1-21.3c1.5,9.8,6.3,15.6,15.4,19.5
		c4.7,2,16.2,2.9,12.8,10.9c-4.8-6.1-18.2-3.8-23.7-0.5c11.3-2.7,27.1-1.9,24.7,13.9c-18.3-8.1-49.1-11.5-60.1-30.3
		c12.5,21.6,59.5,17.1,60.8,43.8c-12.7-2.5-22.3-11.9-34.4-16c7,3.5,14,6.7,19,12.9c-14.5-2.9-27-11.3-37.6-21.4
		c-4.9-4.6-9.4-9.7-13.7-14.8c-2.6-3-5.1-6.2-7.5-9.3c-2-2.5-7.9-6.1-1.9-6.1c-9.6-1.8-15.4-9.3-23.5-14.1c-3.5-2.1-6.2-4.1-9.3-6.3
		c0.9-3.6-0.7-4.6-4.7-3.1c-3.1,0-6.1,0-9.2,0c1.9,6.9,6.2,25.5-7.2,18.4c4.2,3.7,12.3,10.7,10.6,17.4c-3.5-2.2-34.2-18.4-31.3-22.2
		c-9.5,3.5-21.4-11.1-29.9-13.6c8.5,5.2,17.1,10.4,25.4,16c-17.7,10.2-34.3,22.2-53.2,30.2c-5.6,2.4-11.5,5.2-17.4,6.8
		c-1.8,0.5-19.4,0.3-11.2-4.2c-5,0.6-1.5-8,1.1-10.2c3-2.5,10.9-2.7,14.5-4.2c15.7-6.9,29.4-19,42.2-30.1
		c-19.2,12.1-38.1,25.4-61,29.2c-0.5-7.4-8.5-32.6,3.3-33.3c-14.4,0-28.8,0-43.2,0c7.1,5,3.4,18.3,3.4,25.5
		c-5-5-16.6-27.5-25.1-25.5c5.2,6.8,11.5,12.5,16.4,19.5c2.1,2.9,12.3,19.9,4,18.2c4.5,2.3,4,12.7,0.8,15.4
		c-5.9,4.9-22.5-4.8-27.1-7.3c-20.2-11.2-38.5-25.2-57.4-38.4c10.7,8.6,21.6,17.1,32.7,25.3c5.5,4.1,11.1,8.1,16.7,12.1
		c3.5,2.5,18.4,8.7,8.3,8.8c7.7,0.3,24,3.1,28.7,10.1c4.8,7.2-1.5,22.2-2,30.1c-2.7-0.4-5.4-1.1-8-2c3.6,2.7,9.3,4.9,7.9,10.5
		c-6-1.9-12-3.8-18.1-5.7c8.1,4,15.9,4.8,17.6,14.7c2.4,13.9-0.9,30.8-1.4,44.9c-21.7-3.7-39.9-14.5-58.3-26.1
		c15.2,13.3,28.4,24.1,48.2,28.6c16.5,3.7,10.1,15.9,10.1,29.7c-2-0.6-4-1.3-6-2c11.6,10.9,3.9,41.8,2.1,55.2
		c-3.6,27.5-5,55.2-6.5,82.9c-3.9,73-7.2,146.2-9.2,219.3c-1,36.4-0.9,72.7-1.8,109.1c-0.8,32.6-5.9,65.3-6.4,97.8
		c-0.2,11.1-2.8,9.6-14.4,9c-11.5-0.6-20.8,6-32.1,7.4c-11.9,1.5-43,6-52.1-4.3c-5.6-6.4-2.1-22.7-1.7-30.3
		c0.8-15.8-0.4-31.6-0.9-47.4c-0.6-18.7-1.6-37.4-2.9-56.1c-1.3-18.8-2.1-38.7,5.8-56.2c-2.1,1.3-4.3,2.5-6.6,3.6
		c-2.9-44-5.8-88.1-8.7-132.1c8.5,4.1,17.1,8.2,25.6,12.4c-13.2-10.4-24.1-15.8-25.8-33.5c-0.6-6.1-1.3-7.9,2.8-12.3
		c6.3-6.9,17.7-10.3,25.6-14.6c-9.4,3.2-18.7,6.3-28.1,9.5c-0.6-14.1-0.8-28.3-2.1-42.4c-1.1-10.9-3.9-23.7-0.1-34.4
		c6.8-18.9,30.2-29.7,44.3-42.3c-15.3,11.2-30.5,22.4-45.8,33.6c-2.5-13-5.7-25.9-7.9-38.9c-1.7-9.9-5-24-2.7-34
		c2.1-9,9.5-10,16.5-15c9.2-6.6,13.8-17.8,19.9-27.1c-11.3,13.3-23.4,23.8-38.9,31.8c-1.3-19.2-1.7-38.7-3.8-57.8
		c-1.8-16.9-10.3-32-12.7-48.8c-2.3-16.1,0.5-32.4-1.4-48.5c-1.8-15.5-17.4-17.5-29.1-23.8c11.6-7.3,21.9-16.3,31.9-25.5
		c-9.3,6.2-26.5,25.6-39,21.8c6.9,4.9-24.5,9.9-29.4,10.9c-0.9-16-1.3-31.7-1.4-47.6C850.1-0.4,847.3-2.2,830.4-1
		c8.4,1.1,4.8,20.4,4.4,26c-0.9,14.7-0.2,29.4,0.2,44.2c-6.5,0.2-12.8-0.5-19.1-1.9c6.9,3.2,18.5,2.9,22.5,9.9
		c4.4,7.6-0.3,21.8-0.1,30.2c-4.8-1.5-9.6-3-14.4-4.4c8.2,4.5,14.8,6.8,17.9,16.3c3.2,9.8,1.4,20.8,2.3,30.9
		c-6.4-3-12.9-6.1-19.3-9.1c9.1,10.3,20,9.7,22,25.3c2,15.5,0.5,31.8,1.6,47.4c2.5,36.1,6.7,72.1,8.5,108.2
		c3.8,75.4,6.3,150.9,9.2,226.4c2.5,66.7,3.2,134.3,11.3,200.5c1,8.3,3.5,19.9,0.7,28.1c-4.1,11.8-21.8,9-31.7,13.1
		c-6.5,2.7-9.5,7.7-15.1,11.2c-6.4,4.1-13.1,2.8-20.2,4.2c-15.7,3.2-28.1,9.9-44.7,10.4c-18.2,0.6-29,8.4-44.9,15.7
		c-16.2,7.4-35.3,5.3-52.6,7.6c-19.2,2.6-39.3,3.6-58.1,8.4c-7.4,1.9-16.1,4.5-20.7,11.2c-0.8,1.2-3.1,5.5-2.8,6.5
		c0.3,1,6.6,2,5.8,3.2c-3.7,5.4-15.5,5.5-21,7.9c-8.2,3.6-15.5,10-20.7,17.3c-1.9,2.7-12.5,17.7-11,21.2c2.3,5.3,18.8,3.2,23.6,3.6
		c17.5,1.5,34,1.9,36.2,22.4c1.4,12.9,2.8,29.5,0.8,42.3c-1.4,8.6,0.6,3.6-5.8,5.6c-3.4,1.1-8.1,0.7-11.6,1
		c-4.8,0.3-16.6,2.7-20.8-0.8c-4.6-3.7-3-12.9-3-18.2c0.1-11.1,8.6-35.5-2.7-41.5c-3.4-1.8-10.6-0.4-14.4-0.9
		c-5.2-0.8-9.7-2.8-14.7-4.5c-10-3.5-20.7-6.2-31.3-6.5c-6-0.2-20.3,2.5-19.1-8.2c0.9-7.4,10.4-7.7,16.1-6.5c-1.5-0.3-6.8-6-4.1-6
		c-1.7,0-6.3-1.6-7.7-0.4c11.5-10.3,20.3-4.8,34.3-6.9c-20.9,0.5-40.1-10-61.1-9.1c-8.5,0.4-35.5,3.5-29.1-12.1
		c1.8-4.4,7.8-6.9,8.9-11.5c0.6-2.4-2-4.8-0.9-6.7c0.6-1,4.7,1.3,5.2,0.5c-0.4,0.8,2-4.3,0.8-3.6c-0.3-1.1-0.3-2.1,0.2-3.2
		c1.8,0,3.7,0,5.5-0.1c2.2-1.8,3.1-1,4.4-3.4c1.6-3.1-1.5-1.6-1.7-2.7c0.8-0.6,1.1-1.5,0.9-2.5c-2.9-1.2-7.5,3.1-10.4,2.4
		c3.2,0.9-3.6,2.2-2.5,2.4c0,0-6.4,0.9-5.3,1.7c0.4,0.3-0.8-2-1-1.1c1-4.4,1.1-5.2,0.4-8.7c-1-4.9-3.6-8.9,0.9-10.6
		c-2,0.7-1-1.2-1-1.1c-0.8,0-1.6,0.1-2.4,0.3c0.7-0.5,1.3-1.1,1.8-1.8c-0.5,0.1-1,0.3-1.5,0.4c0.1,0.1,0.7-1.6,0.7-1.7
		c0.7-0.4,6-0.6,5.9-3.6c0-0.2-5.1-4.9-4.7-4.3c-1-1.9,0.4-4.4-0.6-5.8c0.7,0.2,1.2,0.8,1.3,1.8c4.1-5.5-1.3-6.2-2.3-8.4
		c-1.7-1.8-2.1,2.8-1,1.4c-0.6-0.2-3,0.7-4.3-0.2c0.4,0.8,0.8,1.5,1.3,2.3c-1-0.7-2.1-0.9-3.2-0.6c1.2,1.6,3.7,2.5,0.4,4
		c1.5-1.8-3.9-1.3-4-1.4c-1.8-1.6,1.5-1-2.9-2.4c-2-0.7-4,0.8-6.3-0.3c2.3,1-2.5-5.7-1.8-4.9c-0.6-0.7-3.6,0.7-4.9-0.8
		c-1.6-1.9,2.6-2,2.5-1.9c0.6-1-2.2-7-3.9-5.8c1.3-0.9,9.6,0.8,9.9,0c1.1-2.5-5.4-2.6-5.5-2.1c0.5-0.5,1-1,1.4-1.5
		c-1.6-1.6-7-0.3-7.9-2.3c0.4-1.2,1.2-1.7,2.6-1.5c-3.5-0.2-4-0.9-6.3,0.9c-1.5,1.2-2.9,9.4-5.2,9.5c-5.7,0.3-0.2-16.2-6.9-15.8
		c-3.6,0.2-0.5,6.1-0.5,6.5c0.5-0.9,1.1-1.7,1.8-2.5c1-0.4,3.3,6.2,1.8,7.2c-0.7,0.4-5.2-5.6-5.5-5.1c-0.2,0.3-0.4,0.6-0.8,0.7
		c1.8-1.5-0.2,6.9-1.1,5c0.4-0.5,0.8-0.9,1.2-1.3c0.2-3.1-5.8,0.9-4.5-2.2c-1.3,0.6-2.7,0.9-4.2,1c1.7,0.5,5.6-4.6,6.5-5.8
		c-2.2,2.8-0.7-3.3-0.7-3.3c-1.3,0.1-2.2,0.7-2.8,1.9c-0.5,2.3-9-9.9-9.3-10.1c-6-5.6-8.4-0.4-6.9,6.5c-0.8,0.3-1.5,0.2-2.3,0
		c1.2,1.7,3.3,6.2,3.7,7.8c1.7,0.5,2,1.3,1.1,2.3c-0.3,1-0.9,1.6-1.9,1.8c0.3-0.7,0.7-1.4,1-2.1c-0.6,0.7-1.2,0.7-1.7,0
		c0.4-0.7,0.6-1.5,0.7-2.4c-0.7-0.2-3.1,3.4-2.9-0.1c-2.4,0.8,0,2.3-0.5,2.7c-1.8,1.3-0.4,1-2.1,2.9c-0.5,0.6-7.6-1.5-8.4-2.2
		c0.1-0.2,1.7-2.7,1.9-1.7c0,0.1,2.4-0.5,2.6-1.2c0.9-3.4-2.8-1.5-3-1c0.5-1.3,0.3-2.5-0.5-3.5c-2.4-2.5-6.6,4.7-5.6,4.5
		c-1.2,0.2,0.4-5.3-0.1-5.6c-1.3,0.2-2.6,0.5-3.9,0.7c0.4,0.4,0.5,0.9,0.4,1.5c-0.5-0.2-0.9-0.6-1.3-1c-0.4,1-0.9,2-1.5,2.9
		c2.6-2.9-0.4-23.7-0.4-28.2c0-13,0-25.9,0.1-38.9c0.2-24,0.5-48.1,0.9-72.1c0.8-48.1,1.6-96.2,1.9-144.3
		c0.7-94.5,1.6-189.1-0.8-283.5c-0.6-22.6-0.3-45.5-2.5-68c-1.4-14.6-6.4-37.3,5-49.3c-2.4,0.8-4.8,1.5-7.3,2.1
		c0.3-7.9-1.8-16-0.5-23.8c1.5-9.2,7.1-9.7,15.6-11c22.8-3.4,39.4-17.2,57-31.3c-23.5,13.6-43.3,24.5-70.5,28
		c0.1-13.4,0.4-26.8-0.3-40.2c-0.5-9.4-3.4-18.8,8.6-18.5c-4.6-0.4-16.6-3-20.7-0.1c-4.2,3-3.4,8.2-3.5,13.1
		c-0.2,16.6-0.2,33.1-1,49.7c-6.5-0.3-12.8-1.4-19-3.2c6.7,3.7,18.3,4.1,21.8,11.4c3.9,7.8-1.8,21.7-2.1,30.1
		c-4.7-1.8-9.4-3.6-14.1-5.4c7.9,5,14.3,7.8,16.8,17.5c2.6,10,0.1,20.9,0.3,31c-6.2-3.5-12.4-6.9-18.7-10.4
		c4.8,6.2,13.7,8.4,17.7,15.2c3.9,6.6,2.7,16.2,2.2,23.5c-1.3,21-1.5,41.8-1,62.8c1.1,48.3,0.7,96.4-0.3,144.7
		c-2.1,96.5-5.8,192.8-7.3,289.3c-0.3,19.2-0.5,38.3-2,57.4c-0.5,6.9,0.6,16.1-1.2,22.8c-0.8,3-2.3,3.6-3.6,5
		c-0.3,0.3-3.6,3.6-4.3,3.8c3.2-0.7-2.2,3.6-1.1,3.3c-2.3,0.7-2.3,0.1-3.8,3.9c-0.4-0.7-0.9-0.8-1.4-0.3c-1.1-4.1-0.7-4.8-3.1-8
		c-2.7-3.6-8.5-5.6-4.8-9.6c-1.4,1.6-1.4-0.6-1.4-0.5c-0.7,0.3-1.4,0.8-2,1.3c0.4-0.8,0.6-1.6,0.8-2.4c-0.4,0.3-0.7,0.7-1.1,1
		c0.1,0,4-6.3,3.5-7.6c-0.2-0.9-6.7-1.6-6.4-1.5c-2.8-1.1-0.1-7.6-3.5-10.1c-0.7-0.5-3.1,0-3.5-0.3c-0.9-0.3-0.8,3.9-4.1,3.5
		c0.7,0.5,1.5,1,2.2,1.4c-1.2-0.1-2.2,0.2-3.1,1c4.5,1.4,2.6,4,2.7,7.9c0-2.1-0.6,0.9-0.9,0.5c-0.3-1.9,0.1-3.6,1.1-5.2
		c-4.2,1.6-10.6-4.2-11.6,5.1c-1-2.1-0.6-0.7-1.4,0.3c-1.9-3.8-2-5.2-4.7-6.5c-0.5-0.2-3.3,2.5-4.8,2.1c-2.7-0.9,1-3.1,1-3
		c0.1-1.1-5.2-5.2-6.2-3.4c0.7-1.4,8.9-3.8,8.8-4.6c-0.2-2.7-6,0.3-5.8,0.7c0.2-0.7,0.4-1.3,0.5-2c-2.2-0.7-6.3,2.9-8.1,1.6
		c-0.3-1.2,0.3-2.1,1.5-2.6c-3.2,1.5-3.9,1.1-5.1,3.8c-0.8,1.7,1.9,9.6-0.1,10.8c-4.9,3-7.7-14.2-13.5-10.8c-3.1,1.9,2.4,5.6,2.5,6
		c0-1,0.2-2,0.4-3c0.7-0.8,5.8,4,4.9,5.5c-0.4,0.7-7.2-2.5-7.3-1.9c0,0.4-0.1,0.7-0.4,1c0.9-2.2,3,6.2,1.4,5
		c0.1-0.6,0.3-1.2,0.5-1.7c-1.3-2.8-4.7,3.5-5.1,0.1c-0.8,1.1-1.8,2-3,2.7c1.9-1.4,2.3-5.8,2.8-8c-0.7,3.5-2.2-2.6-2.2-2.6
		c-1.1,0.7-1.6,1.7-1.6,3c0.7,2.5-13.6-4.8-13.4-4.8c-7.9-1.9-7,4-2.7,9.1c-0.5,0.6-1.2,0.9-2,1c1.9,1,5.8,4,7,5.2
		c1.7-0.3,2.4,0.2,2,1.5c0.2,1.1-0.1,1.9-0.8,2.4c0-0.8-0.1-1.6-0.1-2.3c-0.2,0.9-0.7,1.1-1.5,0.8c0-0.8-0.2-1.7-0.5-2.4
		c-0.7,0.2-1.1,4.5-2.6,1.2c-1.8,1.9,1.1,2.1,0.8,2.6c-1,1.9,0.1,1.1-0.5,3.5c-0.2,0.8-7.4,2.2-8.5,2c0-0.2,0.2-3.2,0.9-2.4
		c0,0,1.9-1.6,1.7-2.3c-0.8-3.4-3.2,0-3.1,0.5c-0.2-1.4-0.9-2.4-2.1-2.9c0.5,0.2-3.9,3.2-4.1,3.5c-0.1,0.2,2,2.6,1.3,3.1
		c-1,0.7-2.1-4.9-2.7-4.9c-3-0.1-1.9,3.3-2,3.5c-0.7,1.8-1.1-2.7-2.3,1.9c0.2-0.9-4.5-1.8-3.6,2.8c1,5,2,1.4,4.2,0.5
		c-4.5,0.8,5.3-2.7,5.3-0.4c-0.3,0-0.7,3.4-2.5,4.1c0.6,0.6,1.2,1.1,2,1.4c-1.4,7.6-14.4-5.2-16.6-5.6c-3-0.4-1.9-1.3-4.5,1.9
		c-0.1,0.2-3.4,8.5-3.4,6.6c0,1.4,1.5,4.4,1.4,4.8c-0.5,2-4.1,3.1-4,5.1c0.8-0.2,1.6-0.2,2.4-0.1c0,0-3,1.6-2.6,2
		c1.7,1.8,3,0.1,5,0.8c-1.1-0.4-1.3,4.1-1,4.5c0,0,4.4-0.7,3.8,0.2c-0.5,0.4-0.9,0.9-1.4,1.4c-0.2-0.5,3.9,1.8,3.5,1.8
		c-4.7-0.2-10.2,1-13.4-2.7c-3.9-4.6-1.4-19.1-1.1-24.1c1.7-21.8,2.3-43.6,3.1-65.4c1.8-50.1,2.9-100.3,2.6-150.4
		c-0.3-50-2.3-100-4.1-150c-1.8-50.6-6.1-101.4-6.1-152c4.8,2.7,9.6,5.5,14.4,8.2c-8.1-5.8-13.7-9.3-14.3-19.8
		c-0.9-13.9,6.3-17.9,16.4-25.4c-5.5,3.4-11,6.9-16.5,10.3c0-15.9-3.7-31.3,8.2-43.2c-2.7,1.5-5.4,2.9-8.2,4.1
		c-0.7-5.5-1.4-11-2.1-16.5c5.5,3.4,11,6.9,16.5,10.3c-6.8-6-15-10.5-17.6-19.7c-2.5-8.8-0.3-18.6-0.9-27.6
		c10.8,8.1,21.7,10.1,35,8.2c-11,0.5-27.7-0.7-34.1-11.3c-7.5-12.3,4.8-27.8-2.9-40.1c9.6-2.2,16-9.8,22.6-16.5
		c-7.8,4.5-14.2,11-22.6,14.4c0-10.3-0.9-20.6-2.1-30.8c12.2,2.3,19.8,15.1,32.9,14.4c-9.7-1.8-15.7-9.3-23.6-14.4
		c-6.8-4.4-9.3-5.4-9.3-14.4c9.8,5.9,19.9,11.2,28.8,18.5c1.4-14.6-25.6-9.6-28.4-21.2c-2.6-10.7,21.4-14.7,28.4-15.9
		c-10.4-0.9-19.6,4.3-28.8,8.2c-0.5-3.8-5.8-19.6,1.1-20.3c-14.1,0-13.4,3-13.4,16.1c-4.9-3.3-18.4-8.1-15.9-16.1
		c-4.2,0-8.4,0-12.6,0c0.4,2.1,0.7,4.1,1,6.2c-1.5-4.5-5-7.8-10-6.2c0.9,1.7,1.8,3.3,2.9,4.9c-3.7-2.1-7.3-5-11.8-4.9
		c5,3.2,12.7,5.5,15.2,11.4c-9.4,7.9-36.5-2.1-46.2-5.1c4.2,1.8,8.1,4.1,12.3,5.9c-5.8,1.3-11.5,2.6-17.3,3.8
		c12.2-1.5,27.3-4.4,38.2,4.2c6,4.8,2.7,6.3-3.6,9.7c-8.3,4.5-12,5-20.2,0.5c2.9,1.8,5.7,3.5,8.6,5.3c-10.6,5.3-22.3,6.1-33.8,7.6
		c0.1-8.2,0.1-16.4,0.2-24.7c0.1-8.1-2.9-17,8.1-14.8c-5.9-2.1-8.8-4.3-15.2-4.3c-1.9,0-5.6-0.6-7.3,0.5c-2,1.3-0.5,3.8-2.5,5
		C19.7,5,19.2,36.3,18,41c-2.7,10.2-11.3,5.5-19.4,3.1c6.7,3.7,18.3,4.1,21.8,11.4c3.9,7.8-1.8,21.7-2.1,30.1
		c-4.7-1.8-9.4-3.6-14.1-5.4c7.9,5,14.3,7.8,16.8,17.5c2.6,10,0.1,20.9,0.3,31c-6.2-3.5-12.4-6.9-18.7-10.4
		c6,7.7,16.3,9.5,19.4,19.6c2.9,9.6,0.2,21.3-0.4,31.1c-1.6,26.1,0.2,52.6,0.8,78.7c1.5,57-1,114.3-2.6,171.3
		c-3.3,114.5-6.6,228.9-6.9,343.4c-4.3-1-8.6-2.1-12.9-3.2c0,66.5,0,133.1,0,199.6c0,6-3.5,23.7-0.6,29.6c4,8.2,30.9,3.7,38.5,3.7
		c33.2,0,66.4,0,99.6,0c135.5,0,271,0,406.5,0c268.9,0,537.8,0,806.7,0c75.6,0,151.3,0,226.9,0c18.4,0,36.9,0,55.3,0
		c11.6,0,23.3,2.1,34.8,1.7c10.2-0.4,12.8-3.3,13.6-13.3C1682,970.4,1680,960.3,1680,950.2z M1659.1,629.9c0.3,0.3,0.2,0.5,0,0.6
		C1659.1,630.1,1659.1,629.9,1659.1,629.9z M1583.5,0l0.5,6C1584,6,1583.8,3.8,1583.5,0z M200.9,739.4c0.2,0.1-1.2-2.4-0.3-3.4
		C201.3,735.3,203.6,741,200.9,739.4C201,739.5,203.5,741,200.9,739.4z M202.9,737.1c0-0.1-2.6-2.5-1.8-2.8
		C201.3,734.2,203.1,736.6,202.9,737.1z M165.4,783.3c-0.5,0.2-0.5-0.1-0.6-0.2C165.2,783.1,165.5,783.2,165.4,783.3z M165.4,778.8
		c-1.5,0.1-2.2-1.2-1.7-1.6C164.5,776.4,166.2,778.7,165.4,778.8z M90.3,130c-4-2.7-8-5.4-12.1-8c9.5,11.1,12.1,19.7,12.1,34.2
		c-4.7-3.4-9.4-6.7-14.1-10.1c7.6,8.7,14.2,14.9,13.2,27.3c-7.1-7.1-14.1-12.3-23.7-15.5c13.5,6.7,23.6,13.4,24,29.4
		c0.2,6.2,0.6,29.1-9.5,29.2c9.3,6.5,6,19.3,5.4,28.8c-0.9,13.8-0.9,27.8-1.4,41.7c-3.4-12.1-6.7-24.1-10.1-36.2
		c3.1,17.3,9.1,34.5,8,52.3c-11.4-8.7-22.8-17.4-34.2-26.2c10.4,10.4,26.6,18.6,32.2,32.9c5.8,14.7,0.1,33.5-0.8,48.7
		c-2.6,45.8-2.2,92.4-2.1,138.3c0.2,94.8,3,189.9,7.2,284.6c-13.9-0.8-34.4-0.7-44.7-11.7c-12.1-12.8-4.6-42.9-4.9-59
		c-1-53.8,0.8-107.4,2.4-161.2c3.2-109.3,2.8-219,0.7-328.4c-0.5-28.6-0.2-57.6-2.7-86.1c-1.4-16.1-8-42.3,4.6-55.7
		c-2.4,0.8-4.8,1.5-7.3,2.1c0.4-9.2-5.1-26.7,3.8-32.7c4.6-3.1,13.1-2.3,18.4-3.3c6.9-1.3,14.2-6.4,21.1-6c-5.3-2.9-0.7-2.2,2.7-4.8
		c2.9-2.2,6.3-3.4,9.2-5.8c-0.3,5.2,2.2,18.5-4.4,14.8c9.2,11.3-2.6,12.8-11.4,14c7.1,1,11.9,0.7,15,7.5c4.4,9.8,7.1,26.1,6.9,36.7
		c-5.2-1.5-10.6-1.8-16-1.6c6.6,1.3,14.2,0.6,16.1,8C95.9,114.8,91.2,123.6,90.3,130C86.3,127.4,91,125.2,90.3,130z M133.6,205.2
		c-3.4-4.8-6.9-9.6-10.3-14.4c4.7,7.6,10.3,13.6,10.3,22.6c-7.1-5.9-15.9-10.1-18.5-19.6c-2.6-9.5,1.2-20.8,2.1-30.4
		c6.7,5.1,13.3,9.2,15.5,17.9C134.6,189,133.1,197.4,133.6,205.2C130.2,200.4,133.1,197.1,133.6,205.2z M114.6,215.9
		c0.2-4.4,0.4-8.9,0.6-13.3c4.4,4,8.8,8,13.2,12.1C124.2,216.4,119,217,114.6,215.9C114.8,211.4,119.1,217,114.6,215.9z
		 M119.7,217.1c-1.7,0.5-3.5,1-5.2,1.5C113.8,215.1,115.6,214.6,119.7,217.1C117.9,217.4,118,216.8,119.7,217.1z M128.4,214.7
		c1.1,1,2.1,1.9,3.2,2.9c-2.1,0-4.2-0.2-6.3-0.6C126.3,216.2,127.3,215.4,128.4,214.7C129.4,215.6,127.3,215.4,128.4,214.7z
		 M131.6,172.3c-6.6-4.7-13.3-8-14.4-16.8c-1-7.7,2.2-15.8,2.9-23.4c5.3,5.7,10,8.2,11.7,16.2C133.6,156,131.6,164.5,131.6,172.3
		C125.2,167.8,131.6,164.4,131.6,172.3z M119.6,113.5c2.4,2,4.8,4.2,6.9,6.5c-1.9,1.5-3.9,2.9-6,4
		C120.2,120.5,119.9,117,119.6,113.5C122,115.5,119.9,117,119.6,113.5z M131.6,137.3c-9.9-8.3-13.4-6.9-4-16.3
		C132.6,125.5,131.6,131.2,131.6,137.3z M131.6,120.9c-2.8-1-3-2.1-0.5-3.4C131.2,118.6,131.4,119.8,131.6,120.9
		C130.8,120.3,131.4,119.8,131.6,120.9z M128.6,118.6c-17.1-8-11.6-38-14-52.9c10.9,7.3,14.2,10.8,14.9,23.9
		C129.8,95.6,134.2,114.8,128.6,118.6C113.2,111.5,132.7,115.9,128.6,118.6z M129.5,63.3c0.3,2.7,0.3,5.5,0,8.2
		c-9.6-6-15.5-9.6-17.4-21.5C117.3,55.3,122.7,60.2,129.5,63.3C130,65.8,122.1,60,129.5,63.3z M110.7,10c4.3,3.1,17.7,7.4,16.7,14.3
		C121.7,20.8,110.1,17.6,110.7,10C115.5,13.3,110.6,11.1,110.7,10z M127.4,26.3c-5.5-2.4-15.5-4.5-17-9.9L127.4,26.3z M110.5,22
		c7.8,3.5,13.5,6.4,16.2,14.9c1.1,3.5,4,16,1.1,19.1c-3.9,4.1-11.6-3.5-14-6.7C107.8,41.3,110.5,31.4,110.5,22
		C117.4,25.2,110.5,28.9,110.5,22z M137.7,608.3c-2,54.7-5.4,109.5-5.8,164.2c0,6,0.3,14.6-9.1,10.5c-5.3-2.3-4.7-13-5.2-19.5
		c-1.7-25.2-2.6-50.6-3.9-75.8c-3-56.7-4.7-113.5-6-170.2c-0.6-26.2-1.7-52.4-0.9-78.6c0.4-11.1-1.8-26.6,1.8-37.1
		c2.4-7.2,7.8-9.8,13.8-14.1c-4.7,2-9.4,4-14.1,6c0-47.2,0.6-94.6,1.9-141.8c0.3-9.5,1-35.7,16.6-34.2c13.1,1.3,4.9,44.4,4.5,53.4
		c-4.1-1.4-8.2-2.7-12.3-4.1c10.2,6.8,13.3,12,13.8,24.8c0.5,14.1,0.1,28.2,0.6,42.4c1.1,30.4,2.3,60.9,3.2,91.3
		C138.4,486.3,137.7,547.3,137.7,608.3C136.1,650.6,137.7,583.2,137.7,608.3z M221.6,758.4c0.7,0.8,0.2,3.2-2,0.2
		C219.9,758.9,221.7,758.4,221.6,758.4C222,758.9,221.2,759,221.6,758.4z M218.5,753.1c1.3,0.5,2.1,1.4,2.2,2.8
		C220.3,756.7,218.2,753.2,218.5,753.1z M219,762.8c1.2-0.6-1.7,2.7-1.5,2.5C217.9,764.9,216.8,764,219,762.8
		C218.3,763.2,219.4,762.6,219,762.8z M215.6,760c0.6,2.7-2.1-2.6-1.3-2.2C214.5,757.9,215.7,760.2,215.6,760
		C215.9,761.3,215.6,760.1,215.6,760z M215.4,753.4c-0.5-0.6-0.9-1.2-1.4-1.9c1.2,0.4,2.3,0.9,3.4,1.5
		C217,753.8,216.3,753.9,215.4,753.4C214.4,753,216,754.3,215.4,753.4z M217.2,747.1C216.9,747.3,215.7,748.4,217.2,747.1
		C217.3,747,217,747.3,217.2,747.1z M216.8,745.7C216.8,745.7,216.8,745.7,216.8,745.7C215.5,745.9,217.8,745.5,216.8,745.7z
		 M215.7,743.7C216.5,743,214.1,745.2,215.7,743.7L215.7,743.7z M214.9,740.8c-0.1,0.1-0.2,0.1-0.2,0.1
		C214.8,740.9,214.9,740.8,214.9,740.8z M214.7,745.1C214.7,744,214.8,746.2,214.7,745.1L214.7,745.1z M214.6,746.6
		c0.8-0.4,2.9,3.5,2.5,3.4C216.2,750,213.9,747,214.6,746.6z M214.7,750.1c-0.2,0,3.6,0.7,3.4,2.5
		C218.1,753,211.5,749.6,214.7,750.1z M209.1,741c0.8-0.2,3.1,2.2,2.8,2.3C211.1,743.6,208.6,741.2,209.1,741z M207.4,744.3
		c2.7-2.5,3.9,0.6,5.1,1.4c0.7,0.4,0.4,2.1,1.2,2.4C213.3,747.9,207.2,744.5,207.4,744.3C207.6,744.1,207.4,744.3,207.4,744.3z
		 M208.6,760.3c0.5,0.3,0.9,0.6,1.3,1.1c-0.1,0.7-3.1-1.2-2.9-1.2C207.2,760.1,208.6,760.3,208.6,760.3z M206.5,749.2
		c0.3-0.9,0.6-1.8,1.1-2.6c0.4,0.7,0.7,1.4,0.8,2.2C207.8,749.2,207.2,749.4,206.5,749.2C206.6,749.2,205.8,749.5,206.5,749.2z
		 M207.7,758.4c0.9-0.2-2.5-0.5-1.6-0.2c-1.9-0.7-2.1-2.9-2.9-3.4C202.8,754.6,211.8,758.7,207.7,758.4
		C207.5,758.4,212.8,758.8,207.7,758.4z M202.7,750.5c-0.8,2.4-1.9-1.9-2.8-1.3C200.6,748.8,203.3,748.8,202.7,750.5z M191.6,764.6
		c1.6-1,3.6,3.5,4.7,4.2C194.7,770.2,188.3,766.7,191.6,764.6C191.5,764.7,187.8,767,191.6,764.6z M192,768.2
		c-1.2,0.6-1.8-0.4-2.4-1C190.6,767,191.4,767.4,192,768.2C190.8,768.8,191.4,767.4,192,768.2z M189.4,763.8
		c0.1-0.1,0.1-0.1-0.2,0.2C188.2,764.8,191.6,761.7,189.4,763.8z M166.9,784.8c3.1-0.6,2.5-2.5,5.1,0.3
		C170.4,785,168.7,784.9,166.9,784.8C170.5,784.2,167.1,784.9,166.9,784.8z M183.3,775.4c-1.3,0.7-1.3-2.6-2.2-2.4
		c-0.1,0.3-0.2,0.5-0.3,0.8c-1.6-0.8,1-3.6,0.7-3.7C182.5,769.5,184.3,774.9,183.3,775.4C183.3,775.4,183.5,775.3,183.3,775.4z
		 M186.1,773.8c-2-1.7-1.4,2.2-2.8-1.8C182.8,770.7,186.5,774.2,186.1,773.8z M196.2,776.9c0.2,0.9-2.3,0.2-2.3,0
		c0-6.6-2.2-4.8-7.3-7c0.6,0.3-11.5-5.7-10.7-3.6c-0.7-2,14.7-4.5,12,1.7c1.2-0.1,11.7,5.5,11.6,5.6c-0.4-0.4-0.9-0.6-1.5-0.7
		c-0.3,0.2,3.2,3.1,3.2,3.6C201.2,777.4,196.1,776.5,196.2,776.9C196.5,778.1,196.1,776.1,196.2,776.9z M201.9,786.2
		c-1.6-0.1-3.3-0.2-4.9-0.2c0.5-0.9,3.5-2.9,4.6-2.1C201.2,783.5,203.9,788.4,201.9,786.2C200.9,786.1,202.3,786.6,201.9,786.2z
		 M207.4,767.5c-0.8,0.8-1.8,1.5-2.8,1.9C203.4,767.4,208.7,766.9,207.4,767.5z M208.7,761.8c-2.8,2.7-0.9-0.8-2.2-1.1
		C205.6,760.7,209.1,761.4,208.7,761.8C208.5,761.9,208.7,761.7,208.7,761.8z M211.7,773.4c-0.5-0.4-0.8-1-1-1.6
		c3.4-2.6,1.5,2.3,3,2.3C212.1,774.1,213.2,770.8,211.7,773.4C211.6,773.3,213.2,770.8,211.7,773.4z M222.3,768.9
		c-1.7-1.8-3,6.8-3.1,6.8c-0.2,0-0.2-1.8-0.7-1.7c-0.1,0.4-0.2,0.8-0.3,1.2c-2.9-2.2-4.8-3.5-3.5-7.7c-0.5,1.6-5.4,1.4-5.1,0.6
		c0.8,0.2,1.6,0.2,2.3,0.1c-0.4-0.3-0.9-0.6-1.3-0.9c0.2-2.2,5.1,0.3,5.2-1.4c0.1-1.7,3.8,3.1,2.1,2.2c1.1,0.5,1.6-2.4,2.5-2.5
		C220.6,765.7,223.8,768.3,222.3,768.9C222.3,768.9,223.8,768.3,222.3,768.9z M223.3,768.3C223.2,768.6,223.7,766.4,223.3,768.3
		L223.3,768.3z M223.7,766.2C224.9,762.8,222.5,769.8,223.7,766.2L223.7,766.2z M224.2,760c-1.3,1-2.6-3-2.4-3
		C222.3,757.2,224.9,759.4,224.2,760z M225.1,735.9c-0.2-0.1,2.8,0.1,2.3,1.5C227.2,738.2,224.9,735.8,225.1,735.9z M229.7,766.4
		c-0.2,0.3-2.5,1.8-2.7,1.8C225.2,768.1,230.6,765.1,229.7,766.4z M232.9,741.1c0-0.2-1.8-1.2-1.4-0.7c-0.3-0.4-0.6-1.5-0.1-1.8
		c-0.6-0.1-1.1-0.2-1.7-0.4c0.1,0,0.2,0,0.3,0.1C230.8,738.4,234.7,740.1,232.9,741.1C232.9,741.1,233.3,740.9,232.9,741.1z
		 M245,725.6C245,725.6,245,725.6,245,725.6C245,725.6,245,725.6,245,725.6z M233.9,754.3C233.8,755.3,234,752.5,233.9,754.3
		C233.7,756.6,233.9,754.2,233.9,754.3z M235.2,756.3c-0.2,0.6-0.9,0.8-1.3,1.2C233.7,755.1,235.3,756,235.2,756.3
		C235.2,756.3,235.5,755.7,235.2,756.3z M235,732.8c1.1-3.2,1.3,1.1,1.1,1.5C235,735.9,235,732.9,235,732.8z M240.5,746.1
		c-0.7-0.1-3-3.4-2-3.5C239,742.5,242.8,746.4,240.5,746.1z M239.4,746.4c-0.7,0.2-1.1,0.7-1.3,1.4c-0.7-0.2-2.9-3.8-1.3-4.2
		C238.3,744,239.1,744.9,239.4,746.4C239.3,746.3,239,744.7,239.4,746.4z M235.9,737.4c-0.1,0-0.4-2.2-0.2-2.4
		C237.9,733.6,236.5,737.6,235.9,737.4z M235.7,751.2c-0.6-0.2,0.4-2.9,0.8-2.5C236.9,749.1,236.1,751.3,235.7,751.2z M237,753
		C235.7,751.3,236.6,752.4,237,753C237.2,753.2,236.9,752.9,237,753z M240.2,751.1c-1.9-1.6-1.9,0.3-2.1,1.7c-0.2-1-0.7-1.7-1.5-2.3
		C237,745.2,241.5,755.2,240.2,751.1C240,750.9,240.4,751.6,240.2,751.1z M240.4,748.4c-0.3,0.2,1.3,1.8,1.3,1.8
		C240.7,750.7,239.8,748.9,240.4,748.4z M240.7,730c1.4,0.2-4.2,2-3.1,2.8c-5.9-4.5,6.8-8.8,7.5-6.9
		C245.4,726.6,241.4,730.1,240.7,730z M260.1,740c-0.2-0.5-0.2-1.1,0-1.7c1.8-1.1,2.9,2.5,2.2,3C262.8,740.8,260.2,740.1,260.1,740z
		 M262.6,745.2c0.2-0.8,0.3-1.6,0.4-2.4c-0.8,0.4-1.7,0.6-2.6,0.3c0,0.2,2.3-1.3,2.4-1.5c-0.2,0.2,2.2,4.7,2.7,4.6
		C265.5,746.3,262.6,745.1,262.6,745.2C262.4,744.7,262.4,744.5,262.6,745.2z M265.4,742.5c-1.9,0.9-1.7-0.9-0.3-2
		C265.6,741.8,266.4,742.1,265.4,742.5z M276.6,731.4c0.2-0.1,0.5-1,1.6-0.3c0.6,0.4-0.7,2.7-1.2,2.8
		C276.9,733.2,276.7,732.3,276.6,731.4z M272.4,728c0.2,0,0.1,0.1-0.1,0.3C272.3,728.2,272.4,728.1,272.4,728z M271,736.9
		c0.2-0.2,2.7-1.4,2.7-0.9c-0.1,1.5-0.6,2.8-1.4,4C272,740.3,270.5,737.3,271,736.9z M272.7,742.7c-0.8,0.6-1.9-0.3-2.4-0.6
		C271.6,741.1,272.8,742.7,272.7,742.7z M272.7,741c0,0,1.5-2,2-0.7C274.5,741.5,273.8,741.7,272.7,741
		C273.1,741.7,273.1,741.6,272.7,741z M278.6,759.9c-0.9,1-2,1.5-3.4,1.4c1.4-0.5,1.6-0.9,0.7-1.5c-0.6,0.2-1.3,0.4-1.9,0.6
		C272,758.1,280.2,757.3,278.6,759.9z M286.8,758.5c-0.7-0.6-3.7-2.1-4.7-1.3c0.6-0.5,5.7-1.7,6.4-1.7
		C286.7,755.9,286.1,756.9,286.8,758.5C286.5,758.2,285.5,757.3,286.8,758.5z M296.7,767.7c1.9-1.8-3.6-0.5-1.5,0.4
		c0-0.7-0.2-1.2-0.7-1.6c0.2-0.7,1.9-0.8,2.6-0.4C297.3,766.8,297.2,767.4,296.7,767.7C296.8,767.6,296.8,767.6,296.7,767.7z
		 M298.8,762.9c0,0-2.3,2.3-2.1,2.3C294.3,765,299.8,762,298.8,762.9z M310.5,779.8c-0.6-1.9-0.7,3.2-0.1,3.1
		c-0.2,0.7-5.1-0.2-5.5-0.6c-1.9-1.7,0.8-2.9-0.1-4.5c-0.2-0.4-1.8-8.6-2.1-7.6c0.2-0.7,4.2-1,4.2-1.6c0,2.8,0.7-7.6-0.9-3.6
		c-0.4-0.6-0.8-1.2-1.1-1.8c-0.6-1.6,0.2-2.5,2.5-2.8c0.6-1.2,2.3-3.1,3.2-4C310.5,764.2,310.5,772,310.5,779.8
		C309.7,777.4,310.5,772,310.5,779.8z M334.4,786.7C334.4,786.7,334.4,786.7,334.4,786.7C333.7,787.6,335.4,785.5,334.4,786.7z
		 M335.4,782.3c0.1,0.2,2.4-1.4,2-0.4c-0.2,0.6-3.6,2.8-2.5,3.2c-5.5-2,2.4-9.6,2.7-3.1C337.6,780.6,335,781.4,335.4,782.3
		C335.9,783.3,335,781.4,335.4,782.3z M359.8,773.5c3.6-1.3-0.2,1.9,0.3,2.1C359.1,775,359,774.3,359.8,773.5
		C359.7,773.5,358.3,774,359.8,773.5z M354.3,783.8c1.7-0.1,2.6,0.8,2.5,2.6c1,0.3-2.6-0.8-0.9,0.4C354.7,786,354.1,785,354.3,783.8
		C355.4,783.4,354,783.9,354.3,783.8z M358.4,793.9c-1.1,0.2-4.8-0.7-5.9-2.2C351.9,790.8,363.2,793,358.4,793.9z M361.8,786.5
		c0,0.7-2.7,0.2-2,0.4c0.1,0,1.5-2.5,1.8-2.2C361.7,785.3,361.7,785.9,361.8,786.5z M362.3,774c0.1-0.1-1.1-3.5-0.3-3.3
		C362.2,770.7,362.7,773.6,362.3,774z M365.6,780.8c-0.1-1.2,3.3,3.1,1.7,3C365.7,783.5,365.7,782,365.6,780.8
		C365.5,779.2,365.6,780.7,365.6,780.8z M364,785.7c-1.1-1.4-1.2-2.5-0.3-3.3c1.9,2.6,1.7,4.1,2.8,6.1
		C366.7,788.8,363.8,784.8,364,785.7z M367.5,795.3c-1.8,0.6-2.2-3.3-2.1-3.3C365.9,791.9,367.9,795.2,367.5,795.3z M365.8,790.2
		c0.6-0.8,2.3,3.8,2.5,4.5C368,793.4,364.5,792,365.8,790.2C366.7,789.1,364.6,791.8,365.8,790.2z M369,796.8
		C368.1,796.7,368.6,793.9,369,796.8L369,796.8z M368.7,789.5c-0.2-0.5-0.4-1.1-0.6-1.6c1,0,1.3,4.1,0,3.7
		C368.2,790.8,368.4,790.2,368.7,789.5C368.6,788.7,368.3,790.9,368.7,789.5z M369.5,786.8C369.4,786.7,369,786.4,369.5,786.8
		C369.5,786.9,369.8,787.2,369.5,786.8z M369.8,789.6C367.7,790,371.6,789.2,369.8,789.6L369.8,789.6z M370.4,788.1
		C370.6,788.1,370.7,788.1,370.4,788.1C370.4,788,370.4,788.1,370.4,788.1z M371,787C371,787,371,787,371,787
		C372,785.2,370.2,788.4,371,787z M383.8,785.7c-0.9-0.6-1.4-1.5-1.3-2.6C383.3,783.8,383.7,784.6,383.8,785.7z M404.8,783.5
		C404.9,783.5,404.9,783.6,404.8,783.5C404.8,783.5,404.8,783.5,404.8,783.5z M386.9,791.1c0,0.1-1.9-2.8,0.1-2.6
		c0.3,0.1-1.9-0.7-1.6-1.2C387.3,784.1,386.9,791.3,386.9,791.1C387.4,788.9,386.6,792.5,386.9,791.1z M387.9,798.7
		c-0.7,0.2,0.6-3.2,1.3-3.1C391.9,796.3,388.7,798.6,387.9,798.7C387.8,798.8,389.7,798.5,387.9,798.7z M391,798.6
		c-0.2,0.1-1.1-3.6,0.2-3.1C392,796.6,392,797.6,391,798.6C391,798.6,392,798.3,391,798.6z M393.2,787.6c-0.1,0.1-0.7,3.1-1.8,2.1
		C390.2,788.9,393.6,787.2,393.2,787.6z M393.5,785.5c-0.4,0.5-0.8,1.1-1.2,1.6C392.6,787.2,393.1,781.8,393.5,785.5
		C393.6,786.4,393.5,785.7,393.5,785.5z M399,785.4c-0.6-0.4-4.1,1-4,1.1c-2.5-5.3,7.1-5.7,10-2.5
		C402.9,784.2,400.1,786.2,399,785.4z M413.8,802.9C410.3,800.8,414.3,802.2,413.8,802.9L413.8,802.9z M432.4,841.4
		c0.1-0.1,2-0.2,2.6,0.1C435.1,841.5,430.4,843.1,432.4,841.4C432.3,841.4,430.1,843.3,432.4,841.4z M431.5,842.4
		c1.9,1.3-2.5,1.8-2.2,2.2c0.2,0.3,0.3-2.1,0.1-1.7C429.4,842.8,431.6,842.5,431.5,842.4C432.3,843,431.6,842.5,431.5,842.4z
		 M429.6,830.2c0.2-0.6-3.9-0.1-3.1,2C425.4,829.1,430,829,429.6,830.2z M421.5,806.6c-0.2,0.5-0.4,1.1-0.7,1.6
		c-2.3,0.1,1.9-4.1,2.1-4.4C422.7,804.2,421.6,806,421.5,806.6C421.2,809.1,421.5,806.7,421.5,806.6z M421.9,808.6
		c0.9-5.4,2.5-0.5,3.6-2.5C424.5,807.2,423.3,808.1,421.9,808.6z M422,809.6c0.7-0.5,2.3,0.6,2.3,0.8
		C424.2,812.6,422,809.6,422,809.6z M424.1,829.3c-1.5-1.2,2.3,0.3,2.5,0.5c-0.3,0.5-0.5,1-0.6,1.5
		C425.2,830.7,424.6,830,424.1,829.3C424,829.2,424.7,829.7,424.1,829.3z M939.8,769.8c-13.2-0.2-27.1-4.6-40-0.1
		c-14.8-184.5-18-369.7-35.1-554.1c-2.1-22.2-3.2-44.7-6.9-66.7c-2.4-14.5-8.9-36.6,1.7-49.4c-2.3,1-4.7,1.8-7.1,2.6
		c-0.2-9.1-4.9-25.8,3-32.2c4.4-3.6,15.3-4.9,20.7-6.9c5.4-2,9.7-4.5,15.2-2.9c35,10.1,11.4,56.3,19.6,81
		c-14.1-3.9-28.3-7.8-42.4-11.7c8.7,3.4,17.4,7,26.3,9.9c6.2,2,13.6,2.8,17.5,8.5c7.1,10.5,3.5,29.8,3.9,41.6
		c-11.3-2.3-22.5-4.7-33.8-7c8.7,3.1,18.9,3.9,26.9,8.7c9.2,5.4,8.4,13.7,9.6,23.3c-13.1-5.6-26.2-11.2-39.2-16.9
		c10.5,5.6,23.4,9.4,32.4,17.4c7.4,6.6,7.4,13.5,7.8,22.9c-11.2-0.7-22.4-1.3-33.6-2c10.9,1.7,30.8-0.9,35.2,11.3
		c4.2,11.7-2.1,11.1-11.6,12.2c-10.8,1.2-21.7,2.5-32.5,3.7c12.2-0.1,31.3-4.1,42.7,0.4c7.6,3,5.7,10.5,6.6,17.7
		c-17.9-0.4-35.8-0.8-53.7-1.2c15.8,1.3,32.1-0.7,47.4,4c11.2,3.4,8.9,18.2,10.9,28.9c-7.6-8.6-15.2-17.3-22.8-25.9
		c6.5,9.1,15.2,17.1,20,27.4c4.5,9.8,3.6,19.9,4.2,30.3c-8.2-8.6-16.3-17.2-24.5-25.8c12.5,17.3,24.9,30,25.6,52.2
		c0.8,22.5,0.9,45,1,67.4c-2.8-0.3-5.7-0.7-8.4-1.3c12.5,14.4,9.3,36.3,9.7,53.8c0.5,25.4,2.6,51,4,76.4c-3.4-1-6.8-2-10.2-2.9
		c16.5,15.2,11,35.5,11.5,56.2c0.5,25.8,1.1,51.5,1.9,77.2C943.5,706.2,952.1,769.7,939.8,769.8
		C926.7,769.6,950.9,769.7,939.8,769.8z M1114.5,159c-12.8,5.3-7.4-35-7.4-41.6c7.5,5,9.9,10.8,10.5,19.5
		C1118.1,143,1121.5,156.1,1114.5,159C1105.5,162.8,1120.1,156.7,1114.5,159z M1116,118.9c-4.5-2.3-9.8-2.8-8.9-8.7
		C1111.7,112.4,1116.7,112.8,1116,118.9z M1109.1,51.9c0-3.2,0-6.4,0-9.6C1114.2,43.1,1114.7,52,1109.1,51.9z M1109.1,38.2
		c0-1.9,0-3.9,0-5.8C1109.8,33.4,1111.1,35.6,1109.1,38.2z M1109.1,0c2,0,3,27.6,0,28.4C1109.1,18.9,1109.1,9.5,1109.1,0
		C1109.6,0,1109.1,2.1,1109.1,0z M1109.1,59.1c0.8,0.6,3.5-0.3,1.1,0.9C1107.4,61.4,1110.2,59.8,1109.1,59.1z M1109.1,64.6
		c1.2-0.7,2.3-1.4,3.5-2.1c0,4.7-0.1,9.3-0.1,14C1106.6,75.1,1108.9,68.7,1109.1,64.6C1110.3,63.9,1108.8,69.9,1109.1,64.6z
		 M1107.1,100.7c0.4-7.8,0.9-15.5,1.3-23.3c11,2.8,6.8,22.4,7.3,30.3C1111.7,107.5,1106.1,106.1,1107.1,100.7
		C1107.5,93,1106.1,105.9,1107.1,100.7z M1115.1,161c1.1-0.5,2.2-1.1,3.3-1.6c1.8,8.8-7.3,5.5-11.7,3.3
		C1109.5,162,1112.3,161.4,1115.1,161C1116.2,160.5,1112.4,161.2,1115.1,161z M1129.7,731.3c-3.4,2.9-1.3,14-8,11.2
		c-1.2-0.5-0.1-4.6-1.5-5.3c-4.1-2.2-1.1,1.7-3,3c-2.6,1.8-3-8.7-3.9-9.5c-3.2,5.2-2.9,11.4-10.6,11.7c1.3,0,2.7,6.9,0.8,8
		c-4.1,2.3-5.2-8-7.4-9.4c-1.1,3.4-4,11.4-8.7,10.2c-4.6-1.1-1.1-16-0.9-19.2c1.2-24.1,1.5-48.3,2.2-72.5
		c1.5-52.7,2.3-105.3,2.4-158c0.1-52.7,0.6-105.5,3.6-158.2c1.4-24.9,4.6-49.9,4.5-74.8c0-9-1.3-18.3,0.1-27.3
		c2-12,10.8-13.8,17.8-22.1c-5.4,2.7-10.7,5.4-16.1,8c0.5-8.4-1.3-17.8,1.3-26c2.6-8.2,7.7-10.1,14.8-14.2c-4,1.3-8,2.7-12.1,4
		c0-8.5,0-17,0-25.5c5.3,3.4,11,6,13.3,12c2.9,7.5,0.9,19.7,1.5,27.6c2.2,26,3.7,52,4.2,78.1c1.2,55.2,2.4,110.4,2.7,165.7
		c0.3,55.6,0.3,111.1,1.4,166.7c0.5,25,0.1,50.3,1.7,75.3C1130.5,699.3,1137.1,725.1,1129.7,731.3
		C1126.6,733.8,1129.8,731.2,1129.7,731.3z M1264.5,571.2c-1.7,46.5-3.5,92.9-5.2,139.4c-0.5-0.5-1.9-1.7-2.6-1.8
		c2.1,0.1-6,13.9-8.6,9.3c-1.1-1.9,4.8-7.2,3.8-10.2c0.3,1-10.8-4.9-9.3-5.3c-5.3,1.5-3.2,11.6-4.5,15.2c-0.9,2.6-9,11.3-1.6,11.5
		c-7.1-0.3-10.5-22.1-4.7-22.3c-2,0.1,2.9,9.7,3.4,2.1c0.3-3.7-2.4-9.7-5.9-11.3c-13.9-6.4-6.2,13.6-7.5,18.2
		c-3.4,12.6-7.6-4.7-13.3-6.3c-15.2-4.2-1.5,9.5-2.9,12.2c-0.9,3.2-9.7,4.9-10.5,5.5c-7.2,5.2-2.4,4.1,3.1,5.1
		c-0.7,3.2-1.4,10.5-5.8,11c-2.7-4.5-5.2-11.4-7.4-16.2c-3.3-7.2,3.1-9.4,1.7-16c-1.3-6.2-4.4,5.5-4.7,6.7c-2.4,8.8-0.5,6.1-6.8,2.8
		c2.4,1.3,6.2,7.9,6.7,10.4c1.6,8.3-0.3,2.6-3.4,3.1c4.1-0.6-7.1-3.4-3.5-2.2c-1.2-0.4-1.5,3.8-3,3.2c-1.3-0.5-0.9-2.3-1.6-3.3
		c-2.3-3.7-1.7-12-2-16.1c-0.9-10.3-1.3-20.6-1.8-30.9c-1.5-36.2-1.6-72.4-2.6-108.6c-2.3-87.3-6.6-174.6-11.6-261.8
		c-2.5-44.5-5.2-89-7.7-133.5c-1.3-22.2-2.5-44.5-3.6-66.7c-0.6-11.1-1.1-22.3-1.7-33.4c-0.3-6.8-1.8-11.8,2.4-17
		c6-7.3,19.4-11.5,27.6-15.4c8.4-4,16.9-7.9,24.4-13.6c7.8-5.9,18.5-20.3,29.3-19.4c9.3,0.7,25,15.2,30.3,22.2
		c9.2,12.3,2.6,31.3,4.7,45.7c-11.1-8.3-24.4-26.5-22.6-41.1c-5.7,9,4.6,20.9,8.2,28.8c-13-3-25.5-9.1-39.1-8.2
		c20.8,4.2,53.5,9.7,53.5,37c-9.1-7.6-17.1-10.9-28.8-12.3c9.8,1.6,22.5,6.1,27.5,15.5c5,9.4,1.3,21.8,1.3,31.8
		c-2.3-1.6-4.6-3.3-6.9-4.9c11,10.2,8.1,24.2,9,37.8c-3.4-4.8-6.9-9.6-10.3-14.4c4.1,6.6,12,14,10.3,22.6
		c-21.9-18.2-39.8-46.2-67.9-55.5c26.8,13.4,44.2,39.8,65.8,59.6c-6.9-0.7-13.7-1.4-20.6-2.1c8,1.5,18.9-0.6,21.9,8.7
		c1.9,6,0,14.5-0.3,20.6c-0.3,8.7-0.7,17.4-1,26.2c-4.1-1.4-8.2-2.7-12.3-4.1c10.2,6.8,13.3,12,13.8,24.8
		c0.5,14.1,0.1,28.2,0.6,42.4c1.1,30.4,2.3,60.9,3.2,91.3C1265.1,449.2,1264.5,510.3,1264.5,571.2
		C1262.7,617.7,1264.5,546.1,1264.5,571.2z M1413.2,119.8c-2.5-1.3-4.9-3.5-6.8-5.6c1.6-1.3,3.3-2.5,5.2-3.4
		C1413.3,113.5,1413.9,116.5,1413.2,119.8C1411,118.6,1413.8,116.5,1413.2,119.8z M1412.9,110C1413.3,111.4,1413.3,111.4,1412.9,110
		C1413,110.1,1412.9,109.8,1412.9,110z M1413.1,109.7c-1.3-0.2-2.3-1-2.9-2.2c1.9,3.3-0.2,4.5-3.7,4.8c-3.7,0.3-6.9-3.8-10-6.3
		c3.8,0.2,10-3,13,0.5c-2.8-2.9-1.8-4.3,3-4.2C1413,104.7,1413.2,107.2,1413.1,109.7C1412.4,109.9,1413.5,107.4,1413.1,109.7z
		 M1402.2,69.8c-3.5-2.5-7-4.9-10.4-7.4c3.5-0.1,6.9,0.3,10.3,1c-4.8-2.6-10.4-1.6-15.2-4.1c3.7,3-1.4,2.5-4,2.1
		c-2.9-0.5-4.5-6.9,2.1-3.4c-4.3-3.5,8.7-2.4,10.8-2.2c5.5,0.6,10.6,2.7,15.3,5.7c-8.3-8.3-19.6-8.1-30.5-7.6
		c-1.1-5.4,22.1-14.7,27.2-13.1c9.4,2.9,3.3,28.7,3.3,35.2c-3.4-2.4-10-4.7-5.9-9.7C1404.2,67.5,1403.2,68.7,1402.2,69.8
		C1398.7,67.4,1403.2,68.7,1402.2,69.8z M1411,39c-1.7-1.2-3.3-2.6-4.9-4.1c1.6-0.9,3.2-1.6,4.9-2.2
		C1411.4,34.8,1411.4,36.9,1411,39C1409.5,37.7,1411.4,37.4,1411,39z M1381,32.9c-0.9-4.9-0.1-7,4.4-6.1c-6.4-3-2.6-13.7-2.1-18.6
		c8.2,2.2,26,8.3,26.7,19.1c0.3,4.1-0.6,6.7-6.1,5.8c-2-0.3-2.7-2.8-4.3-3.5c-4.2-1.8-6-1.6-10.9-2c4.7,1.3,8.3,4.1,11.7,7.5
		c-6.5,2.5-13.5,2.2-20.3,2.7C1380.5,36.1,1380.8,34.5,1381,32.9C1380.7,30.9,1380.8,34.5,1381,32.9z M1399.3,38
		c3.1-1.9,6.1-0.2,8,2.5c-8,4.9-18.5,3-27.1,5.9C1378.2,38.1,1394.8,38.9,1399.3,38C1402.3,36.2,1393.5,39.2,1399.3,38z
		 M1372.8,81.4c2.1,2.2,4.1,1.6,3.3,5.5c-2.3-2.3-4.6-4.6-6.9-6.9C1370.4,80.5,1371.6,81,1372.8,81.4
		C1374.8,83.6,1371.6,81,1372.8,81.4z M1283.9,725.7c-9.3-8.1,9.8-3.3,10.7-0.9C1291,724.8,1287.5,725.1,1283.9,725.7z
		 M1380.5,279.8c-1.5-0.4-3.1-0.9-4.6-1.3c9.4,8.3,2.9,33.1,2.6,44.1c-0.5,23.4-1.2,46.7-1.2,70.1c-0.1,46,0.3,92,1,138
		c0.7,46.2,2.7,92.5,2.5,138.7c-0.1,10,2.3,23.3-0.3,32.8c1.7,4.6,0.3,6.8-4.2,6.8c-1.9,0.7-3.8,1.6-5.6,2.5c-4,1.9-7.7,4.4-11.9,6
		c-8.4,3.2-17.7,2.5-26.6,3.7c-11.3,1.5-22.5,4-34,3.6c4.7-5.5-6-16.2-6.9-15.2c1.7-1.9,5.4,0.5,7-1.5c2.3-2.9-1.7-6.2,0.7-8.9
		c-1.6,1.8-6.3,1-8.4,2.1c-4.2,2.1-7.1,6.6-10.6,9.5c3.3-84.7,3.8-169.5,2.7-254.2c-0.6-42.4-1.6-84.8-2.9-127.1
		c-1.3-42.1-5.1-84.2-5.1-126.4c4.8,2.7,9.6,5.5,14.4,8.2c-8.1-5.8-13.7-9.3-14.3-19.8c-0.9-13.9,6.3-17.9,16.4-25.4
		c-5.5,3.4-11,6.9-16.5,10.3c0-15.9-3.7-31.3,8.2-43.2c-2.7,1.5-5.4,2.9-8.2,4.1c-0.7-5.5-1.4-11-2.1-16.5c5.5,3.4,11,6.9,16.5,10.3
		c-6.8-6-15-10.5-17.6-19.7c-2.5-8.8-0.3-18.6-0.9-27.6c10.8,8.1,21.7,10.1,35,8.2c-11,0.5-27.7-0.7-34.1-11.3
		c-7.5-12.3,4.8-27.8-2.9-40.1c9.6-2.2,16-9.8,22.6-16.5c-7.8,4.5-14.2,11-22.6,14.4c0-10.3-0.9-20.6-2.1-30.8
		c8.7,1.7,15,9,22.7,12.9c6.2,3.1,9.2,5,13.6,10.7c11.2,14.7,20.4,29.6,37.9,37.5c10.8,4.9,32.1,8,35.6,21.9c5,20.1-25.6,2.1-33,2.5
		c6.9-0.1,9.9,4.3,15.5,7c4.2,1.9,11.8,0.9,15.1,3.2c5.9,4,3.6,6.1-3.1,6.5c-7.1,0.4-13.8-2.3-19.5-6.5c3.7,7,28.5,7,26.3,15.3
		c-6.9-3.2-15.2-4.1-22.7-3.4c16.7,2.4,22.7,3.4,23.6,21.5c-11.9-3.4-23.8-7.5-33.8-15c5.6,10.4,18.8,10.8,27.6,16.7
		c7.3,4.8,6.8,11,7.2,19.3c-8.8-8-17.1-27.1-31.3-25.6c20.4,3.3,30.1,32.5,30.9,49.7c-23.9-7.9-45.2-21.2-66.3-34.5
		c15.4,11.2,31,24.6,49,31.4c4.8,1.8,12.4,2.8,15.7,7c4.7,5.9,1.5,16.6,1.4,23.3c-2.1-0.3-4.1-0.7-6.1-1.2
		c14.7,4.8,6.6,36.9,6.8,47.9c-16.3-2-30.4-9.4-44.5-17.5c11.1,8.9,21.3,16.9,35.5,19.6C1384.2,260.5,1380,267.9,1380.5,279.8
		C1379,279.3,1380.4,276,1380.5,279.8z M1381,63.5c9.1-1.3,13.4,2,20.4,7.4c-5.1,1.8-12,9.9-17.9,5.8
		C1379.6,73.9,1381.3,67.6,1381,63.5C1391.3,62,1381.5,71.3,1381,63.5z M1382.2,80.9c10.8-0.8,24.5-16.5,29.9,1
		c0.9,3,0.9,26.9-6.1,19.6c3.4,5.7-11.3,1.5-13.9-0.1c-5.3-3.3-9.2-9.3-9.3-15.7c10.1,1.6,19.1,8.1,26.8,14.5
		C1403.2,90.8,1391.8,86.1,1382.2,80.9C1392.1,80.2,1391.3,85.8,1382.2,80.9z M1395.4,104.9c-0.8-0.7-1.6-1.3-2.4-2
		C1393.9,103.5,1394.6,104.2,1395.4,104.9z M1399.2,113.3c-13.4,2.1-14.4,0.9-15-12.8C1389.6,102.9,1394.6,109.1,1399.2,113.3z
		 M1387.5,129.5c-7.5-3.2-1-13.7,4.1-15c7.2-1.8,14.8,5.2,19.5,9.6c-7.3-0.7-14.6-1.5-21.8-2.2c11.8,2.2,24.9-1.7,24.3,13.6
		c-0.4,9.7,2.9,34.1-6.5,39.6c6.7-2.9,4.3,0.6,4.1,5.7c-3.9-1.3-12.5-1.6-5.6-5c-2.4,0.8-4.9,1-7.5,0.6c3.2,2.1-7.5,6.8-9.8,8
		c-0.2-4.8,4.2-7.7,7-10.9c-2.4,2.1-4.8,4.2-7.2,6.4c-0.3-6.3-2.3-13,1.7-18.5c3.4-4.5,9-4.2,10.5-10.7c-1.7,4.7-8.3,8.9-13.1,9.6
		c-0.7-14.7-6.9-28.9,11.3-35.2C1395.1,125.8,1390.7,130.9,1387.5,129.5C1384.3,128.2,1390,130.6,1387.5,129.5z M1417.6,539.1
		c-1.4,36.3-2.7,72.7-4.1,109c-0.5,14.7,1.1,31.3-1.8,45.7c-1.9,9.3-8.2,8.9-16.8,10.6c-0.5-71.3-4.7-142.5-6.7-213.8
		c-1-34.7-1.5-69.4-0.7-104.1c0.4-17.2,1.3-34.5,0.2-51.7c-0.4-5.6-1.6-12,0.1-17.5c2.1-6.9,7.5-9.1,12-14.4
		c-3.9,2.2-7.8,4.4-11.7,6.6c0.2-13-1.7-22.8,10.6-30.6c-3,1.1-5.9,2.3-8.9,3.4c-0.2-5.1-3.4-12.5-1.5-17.3
		c2.5-6.1,8.9-5.4,13.8-8.9c-10.1,4-11.8,2.8-12.7-6.3c-0.7-6.9-1.6-13.8-2.1-20.7c-1-12.8-3.3-30.7,3.3-42.4
		c5.8-10.3,15.8-8.6,20,1.7c5,12.2,3.9,27.7,3.5,40.6c-1.3,45.1,1.9,90.3,2.8,135.5C1418.1,422.6,1417.6,480.9,1417.6,539.1
		C1416.4,570,1417.6,502.8,1417.6,539.1z M1616.1,629.5c0.1,0.3,0.3,0.3,0.5,0.3C1616.5,629.9,1616.3,629.9,1616.1,629.5z
		 M1616.8,631.1c0.1-0.2,0.1-0.7,0.1-1.4C1617.4,629.7,1617.6,629.6,1616.8,631.1z"/>
</g>
</svg>
