<?xml version="1.0" encoding="utf-8"?>
<!-- Generator: Adobe Illustrator 18.1.1, SVG Export Plug-In . SVG Version: 6.00 Build 0)  -->
<svg version="1.1" width="100%" id="Layer_1" xmlns="http://www.w3.org/2000/svg" xmlns:xlink="http://www.w3.org/1999/xlink" x="0px" y="0px"
	  viewBox="0 0 1680 432" enable-background="new 0 0 1680 432" xml:space="preserve">
<path fill="#DFEDE1" d="M1658.6,31.4c-13.8,0.3-20.4,6.4-20.4,20.8c3.6-9.7-79.9-20-59.9,27.6c-10.5-10.8-25.9-10.4-37-1.1
	c6-38-54.5-66.3-78.8-37c-19.2-60.3-116.2-43.2-100.9,22.1c-13.9-6.6-29.8-2-36.3,11.1c2.3-57.9-91.1-64-99.1-7.1
	c-42-52-149.1,5.9-108.8,75.4c-15.8-35.1-77.2-6-67.2,30c-16.9-11.8-38.8,1-40.8,19.2c2.4-2.4-14.4-18.2-15.6-18.8
	c-16.1-8.3-33-9.5-49.5-0.1c-16.3,9.3-26.3,24.5-19.2,43.2c-10-9.5-15.2-3.2-26.6-3c0.8,0-5.1-35.4-28.7-23.7
	c4.2-52.5-91.2-41.2-81.4,15.6c-21.5-16.1-53.3-6.6-61.7,19.1c-9.3-15.8-33.4-14.6-39.4,3.8c-10.3-8.9-24.1-6.2-33.7,3
	c10.4-33.6-45.6-52.6-61-32.8c35.8-46.2-43.5-99.7-82.9-63.1c2.8-21.1-16.7-43.9-38.8-40.1c16.5-67.3-112.5-66.8-103.3-11.2
	c-16.2-8-34.3,4.9-33.9,21.3c-13.2-9-28.7-12.5-44.3-9.2c11.3-39.8-53.6-73.3-78.4-40.2c-3.3-16.9-17.7-17.3-26.8-27.3
	c-2.5-2.8-3.4-14.7-8.1-18.4C152.4-8.1,114,4.3,122.7,38.3C98,19.8,89.9,48,73,53.2c-19.9,6.1-46-20.8-63.9,6.7
	C1,72.3,0,108.6,0,122.5c0,93,0,186,0,279C0,438.6,0.4,432,35.6,432c53,0,106.1,0,159.1,0c385.6,0,771.1,0,1156.7,0
	c109.5,0,219.1,0,328.6,0c0-72.5,0-145,0-217.6c0-45.9,0-91.8,0-137.7C1680,51.5,1678.6,30.9,1658.6,31.4z"/>
</svg>
