<?xml version="1.0" encoding="utf-8"?>
<!-- Generator: Adobe Illustrator 18.1.1, SVG Export Plug-In . SVG Version: 6.00 Build 0)  -->
<svg version="1.1" id="Layer_1" xmlns="http://www.w3.org/2000/svg" xmlns:xlink="http://www.w3.org/1999/xlink" x="0px" y="0px"
	 width="100%" viewBox="0 0 1680 460.5" enable-background="new 0 0 1680 460.5" xml:space="preserve">
<path fill="#497379" d="M1680,44.2c-28.5-9.2-68.2,11.3-59.4,45c-15.8-11.4-41.3-1.1-41.4,18.8c-5.6-28.4-45.2-28.4-52.6-0.6
	c-9.2-19.3-37.2-15.8-46.7,1.5c19.1-24.8-11.6-49.7-36.7-44.9c7-14.9-0.2-31.2-14-39.8c-20.8-13.1-27.6,3.7-43.4,4.1
	c-11.8,0.3-19.7-10.2-35-5.2c-18.2,6-30,22.2-29.4,41.2c-37.7-22.3-86.9,14-73.2,56.7c-13.6-3-25.6,3.8-30.1,16.5
	c-13.5-10.2-32-5.9-41.6,7.2c-22.2-22.7-86.6-16.6-83.3,23c-23.2-67.4-143.7-69.1-159,4.5c-47.6-19.9-108.5,23.8-95.4,76.5
	c-16.2,1.5-35.9,16-45.2,18.7c-17.8,5.1-41.7-10-53.6,12.6c-14.8-21.1-50.5-28.4-64.2-2c13-33.1-31.1-57.6-59.2-48.2
	c8.3-29.3-48.9-26.5-55.5-14.4c13-28.8,1.1-56.5-32.9-58c10-24.3-13.2-49.5-37.3-50.1c29.3-73.8-116.6-72.9-97.4-7.7
	c-23.8-15-59.8,6.9-53.2,35.2c-7.4-9.3-19.4-9.5-25.5,0.8c-15.9-20.8-59.8-14.5-68.9,10.2c8.8-23.2-19-46-37.1-27.9
	c-5.2-26.1-24-20.2-43.4-24.9c16.6,4-25.7-1.1-10.7-0.4c-15.1-0.7-16.6-10.9-32.5-1.2c8.7-9.1-12.7-24-19.8-14.6
	c9.1-17.4,0.8-39.6-22.1-34.2C88.2,1.3,14.1-14.3,0,21.2c-12.1,30.4,0,90.6,0,122.9c0,61.1,0,122.1,0,183.2c0,25.1,0,50.3,0,75.4
	c0,10.1-5.8,42.4,0,51c10.1,15.1,60.8,6.8,82.6,6.8c85,0,169.9,0,254.9,0c433.2,0,866.4,0,1299.7,0c5.8,0,38.1,4.4,42.4,0
	c10.4-10.4,0.4-80.8,0.4-95.4C1680,258.1,1680,151.2,1680,44.2z"/>
</svg>
