
<svg version="1.1" xmlns="http://www.w3.org/2000/svg" x="0" y="0" width="100%" viewBox="0 0 204 610" enable-background="new 0 0 204 610" xml:space="preserve"><path fill="#161D20" d="M170.8 566.5l8.1 4.5 -7.5-6.1 10.8 4.1 -15.9-9.6 18.2 7.2c0 0-18.1-10.3-18.4-10.4 -0.3-0.1 12.3 2.9 12.3 2.9l-20.4-10.3 1.3 0.3c0.1 0.3 0.2 0.5 0.2 0.5l-0.1-0.5 2.9 0.6 -3.1-2 -1.6-10.1 9.1 11.1 -1.9-4.7 2.6 1.7 -5.1-7.8 3.4 3.2 10.7 11.5 -8.7-11.7 12.3 9.4 -2.4-3.7 -7.2-7.6 5.7 2.1 -10.2-7.1 4.1 1.9 10.1 4.8 -9.7-6.2 -8.8-5 9.9 3.3c0 0-3.5-2-4-2.1 -0.5-0.2-6.6-3.5-6.6-3.5l8.2 2.4 -1.9-1.3 -5.3-2.7 5 0.1c0 0-9.4-3.2-10.5-3.5 0.6 0.1 2.7 0.3 2.7 0.3l2.9 0.1 1.5 1.1 -0.6-1.1 1.2 0c0 0-0.6-0.1-1.4-0.3l-1-1.7 2.8 0.7 -3.2-1.4 -0.9-1.4 11.3 6.3 -3-3.3c0 0 8.3 4.4 7.8 3.9 -0.5-0.5-9.5-7.7-9.5-7.7s12.4 5.9 12.5 5.4c0.1-0.5-13.7-7.7-13.7-7.7l6 0.7c0 0-15.5-10-14.2-9.3 0.7 0.4 4 1.5 6.8 2.4l5.1 4.6 -2.7-3.8c1.3 0.4 2.2 0.7 2.2 0.7l-3-1.9 -2-2.7 6.7 4.2 -3.1-3.5 -4.3-4.5 -5.8-5 6.5 2.1 -10.6-7.1c0 0 4.8 2.9 4.4 2.1 -0.4-0.7-3.9-4-3.9-4l-8.7-7.8 7.3 4.9 -6.9-8.1 7.6 7.3 -1.1-2.2 1.6 1.8 -1.6-3.6 7.1 6.1 -1.6-3.6 5 3 6.2 2.9 -10.6-7.6c0 0 2.2 0.7 2.5 0.6 0.3-0.1-4.6-2.9-4.6-2.9l1.2-0.2 -5.7-3.2 2.1 0.2c0.2 0.2 0.3 0.3 0.3 0.3l-0.2-0.3 2.6 0.3 -0.9-0.4 -7.4-9.9 5.9 3.3 -6.6-7.2c0 0 6.7 3.2 7 3.3 0.2 0.2 9.7 4.8 9.7 4.8l-9-6.9 8.4 3.2 -7.8-4.8 7.2 1 -12.4-3.6 6.3 0.8 0.2 0.1 -0.1-0.1 1.7 0.2 -2.1-0.7 -4.2-4.3 0.7 0.1 4.9 3.7 -7.2-6.5 6.3 3.3c-6.3-4.8-5.9-3.6-8.3-6.7 -0.8-1.1-1.2-5.2-1.2-5.2l3.7 4.9 -2.7-6.3 4.1 7.6 -1.5-5.1 5 7.8 -2.8-5.5 4.7 4.3 -6.3-7.4 6.5 5.1 -6.6-6.8 4.7 2.9c0 0-4.5-3.6-8.4-7.3l0-0.3 5.7 4.5c0 0 0.4-0.3-0.5-2.2 -1.6-3.2-3.8-4.9-3.9-8.7 -0.2-5.8 2.5-16.6 0.6-16.9 -1.9-0.3-4.2 11.4-5.6 15.9 -0.7 2.4-4 4.7-6.4 5.5 -2.4 0.8-3.4 2.5-3.4 2.5l8.3-2.1 -0.5 2.4 -0.4 0.1 -3.7 0L136 441l3.4 0.9 -3.7 0.5 2.5 0.8 -6.3-0.2 5.3 1.1 -8.7-0.4 4.8 0.9 -6.1 1.3 -9.2-7.2 7.3 5 -7.7-8.2 2.8 1.1 1.4 1.6 -0.9-1.4 4.8 1.8 -6.2-4 -0.9-1.4 4.9 2 -6.3-4.2 -0.8-1.3 2.8 1.4c0 0-1.4-1-3.3-2.2l-2.1-3.2 16.7 12.9 -9.8-9.3 6.8 4.2 -6.3-5.8 9 3.8 -13.3-9.1 15.3 6.7c0 0-7.9-5.1-12.4-7.9l-0.3-1.2c0.6 0.1 1.2 0.3 1.8 0.5l2.2 2.7 -1.2-2.4c1.5 0.4 2.9 0.7 3.8 1l3.3 2.4 -2.3-2.2c0 0 0 0 0 0l0 0 -5.3-5 11 6c0 0-5.9-4.1-6.2-4.2 -0.3-0.1 4.1 1.1 4.1 1.1l-4.9-3.1 4.9 1.5 -10.5-6.1 5.8 1.9 -12.4-7.4c0 0 5.9 2 6.5 2.2 -0.5-0.2-4-2.6-6.5-4.2l-0.8-1.4 2.3 0.2 7.6 4.8 -2.9-3.6c0 0 8 4.8 7.6 4.2 -0.5-0.6-9.2-8.4-9.2-8.4s4.9 2.6 8.5 4.3l0.5 0.5 -0.2-0.4c1.9 0.9 3.3 1.5 3.3 1.4 0-0.2-1.9-1.5-4.4-3l-3.8-6.1 6.1 4.3 -2.9-3.7 -4-4.7 -5.3-5.2 6 2.1 -9.8-7.3c0 0 4.4 3 4.1 2.2 -0.4-0.8-3.6-4.2-3.6-4.2l-8-8.1 6.7 5.1 -6.3-8.5 7 7.6 -1-2.3 1.4 1.9 -1.4-3.8 6.5 6.3 -1.4-3.8 4.6 3.1 5.7 3 -9.7-7.8c0 0 2 0.7 2.3 0.6 0.2-0.1-4.2-3-4.2-3l1.1-0.3 -5.1-3.2c0 0 0 0 0-0.1l1.9 0.2c0.9 0.9 1.6 1.7 1.6 1.7l-1-1.6 1.8 0.2 0.8 1 -7.7-11.8 6.1 3.8 -6.8-8.4c0 0 7 3.7 7.2 3.8 0.2 0.2 10 5.5 10 5.5l-9.3-8.1 8.7 3.6 -8.1-5.6 7.5 1 -12.8-4 6.6 0.8 0.2 0.1 -0.1-0.1 1.7 0.2 -2.2-0.8 -4.3-5.1 0.8 0.1 5.1 4.3 -7.4-7.7 6.6 3.9c-6.5-5.6-6.2-4.2-8.6-7.9 -0.8-1.3-1.3-6.2-1.3-6.2l3.8 5.8 -2.8-7.5 4.2 8.9 -1.6-6.1 5.2 9.2 -2.9-6.5 4.9 5 -6.5-8.7 6.7 6 -6.8-8 4.8 3.3c0 0-4.8-4.3-8.7-8.7l0.6-4.2 5.9 5.3c0 0 0.5-0.3-0.5-2.7 -1.6-3.8-3.9-5.8-4-10.3 -0.2-6.9 2.7-19.9 0.7-20.2 -2-0.3-4.4 13.7-5.9 19.1 -0.8 2.9-4.2 5.7-6.7 6.7 -2.5 1-3.6 3-3.6 3l8.6-2.7 -1.2 6.9 -0.2 0 -3.9 0 -2 0.1 3.5 1 -3.8 0.7 2.6 0.9 -5.9 0 -8.8-12.3 -9.3-11.5 11.2 8.4c0 0-3.7-4.6-4.2-5 -0.5-0.4-7.1-8.1-7.1-8.1l9.4 6.3 -1.9-2.9 -5.7-6.3 6.2 1.2c0 0-2.5-1.9-5.2-3.9l3.3 1c0 0-2.1-1-5.5-2.6 -2.2-1.6-4.1-3-4.6-3.3 0.7 0.3 3.3 1.1 3.3 1.1l1.3 0.3 1.3 2.3 -0.5-2.2 4 0.7c0 0-2.4-1.4-4.4-2.6l-0.9-3.6 3.7 2.1 4.7 4.1L75 280.3l7.8 6.3 -6.2-7.4 1.1 0.4 3 2.4 11.2 7.8 -5.7-6.6 11.8 5.2 -18.4-14.6 10.7 1c0 0-10.1-5.5-13.3-7l-3.6-6.7 2 0.8 -2.9-2.4 -3.2-6.1 17.2 15.1 -10.2-11.2 7 4.6 -6.5-6.9 9.3 3.7 -13.7-10.3 15.7 6.8c0 0-15.6-10.8-15.9-10.9 -0.3-0.1 10.6 1.9 10.6 1.9l-17.6-10.5 3.7 0.4 -8.8-6.9 0.3-2.3 2.4 0.2 3.8 6.2L61.8 222c0.1-0.1 0.1-0.2 0.2-0.2l9.9 17.2 -5.3-12.3 9.8 9.7L68 223.9l12.7 9.9c0 0-12.5-16.8-12.8-17.1 -0.3-0.3-4.4-9-4.4-9l5 5.7 -2-11.6 12 10.4 -9.8-15.2 12.6 12.5c0 0-8.1-15.1-8.3-15.1 0 0 0 0 0.1 0l5.4 6.7 -3.3-6.8c0.8 0 1.8 0 2.8-0.1l2.6 3.7 -2.1-3.7c2.1-0.1 4.1-0.1 4.1-0.1l-5.2-1.8 -1.5-2.6 3.2 0.1c0 0-2.6-1.7-4.9-3.2l-4.6-8 10.5 10.1c0 0-7.7-10.9-11.3-16.8l5.1 2.1 -5.5-2.8c-0.6-1.1-1.1-1.9-1.3-2.4 -1.1-3.2-0.6-15-0.6-15l5.1 14.3L69 149.7l5 22L73 156.9l6.6 22.7 -3.4-15.9 7.2 12.6 -9.2-21.6 10.2 15.2 -9.9-20 7.6 8.5c0 0-5.7-8.6-11.1-18.2l-2-5.5 5.7 11.1c0 0-3.1-9-3-8.8 0.1 0.2 4.4 6 4.4 6l-5.2-10.5 6.6 9.9 -6.3-12.7 5.1 3.7 -5.6-8.9c0 0 5.9 3.5 6 3.7 0.2 0.2 8.4 5.3 8.4 5.3l-7.8-8.3 7.3 3.2 -6.8-5.5 6.3 0.4 -10.8-3.3 7.1 0.4 -7.8-2.7 3.5-0.3 -4.2-2.9 4.5-0.1 -2.3-1.1 -4.5-1.7 -0.2-0.1 1.6-11.9 9 8.1c0 0-0.4-3.7-2.9-6.5 -2.5-2.8-5.2-8.9-4.9-13.9 0.6-9.5 3.9-33.6 1.4-33.9 -2.5-0.3-4.8 22.2-8.1 33.5 -2.1 7.4-5.7 9.7-9.3 15.2 -2.2 3.4-1.8 4.1-1.8 4.1l9.2-6.1 -1.1 7.2c-6.6 5.5-14.1 10.5-14.1 10.5l7.1-3.4 -8.4 7.4 -20-17.3L4.6 87.1l26.2 12.5c0 0-9.1-7-10.3-7.6C19.4 91.5 3.3 79.8 3.3 79.8L25.1 89l-4.8-4.5L6.4 74.9l13.7 1.4c0 0-9.2-5.8-14.9-9.1l-0.9-1.9 8.7 0.9c0 0-5.5-2-10.1-3.7l-2-4.1L8.7 60l11 6.2L0.9 50.3l18.3 9.4L4 48.4l2.5 0.5 7.1 3.6 26 11.6L25.8 54l26.7 7.3L9.5 39.6l23.3 0.7c0 0-23.1-7.9-30.5-10L0.7 18.1l22.6 12.5 -23-16.4L15 20.4 0.4 10.1l20 4.9 -20-11 23.4 5.2c0 0-23.2-8.9-23.8-9v194l12.6 11.9 -8-16.6 19.3 17.6 -6.6 3.5 8-0.8 -6.9 4.9L3.2 206l-0.7-2.2c1.7 0.5 2.6 0.6 2.2-0.1 -0.5-0.8-1.7-2.1-3.4-3.7L0 194.3V610h173.5c-0.3-0.1-8.5-6.8-8.5-6.8s4.4 1.5 5.3 1.9c0.8 0.4 7.1 3.7 7.1 3.7l-3-2.1c0 0-4.4-2.8-5.4-3.3 -0.9-0.5-6.2-3.3-6.2-3.3l4.1 1.6 6.4 2.4c0 0-1.8-1-2.5-1.4 -0.7-0.3-2.6-1.4-3.5-1.9 -0.9-0.4-5.2-3-5.2-3l3.2 0.5 6.3 1.1c0 0-7.3-2.5-7.5-2.5 -0.2 0-9.9-3.4-10.3-3.5 -0.3-0.1-3.5-1.9-3.5-1.9l2.6 0.2 6.6 0.1c0 0-5.7-0.9-5.9-0.9 -0.2 0-6.3-2-6.3-2l-3.2-2.9 2.1 1.1 5.1 2.4c0 0-1-1.1-2.8-2.8 -1.2-1.1-4.3-3.5-6.2-5l-0.2-0.5 4.9 2.6 -6.1-5.6 -0.5-1.3 1.8 1 0.9 1.2 3.8 4.5 -2.2-4.4 0.5 0.2 -0.5-0.4 -1.8-3.4 7.3 11 -3.9-8.2 5.4 7.3 -1.3-4.6 6 9.3 -1.9-7 8.8 7.7 -3.7-4.9 7.5 5.3c0 0-4.7-5.6-5.1-6 -0.4-0.4 8.4 4.1 8.4 4.1l-7.1-6 6.1 2.3 -10.9-7.6 7.1 4.3 -7.5-7 7.8 2.7 -10.4-5.9 8.2 3.1 -11.2-6.7 6.9 3.1c0 0-10.3-6.2-12.5-7.4 1.5 0.7 6.1 2.6 6.1 2.6l-14.6-8.8 9.6 4.7 6 1 -0.1-0.3 2.6 1.2c0 0-1.1-0.8-2.8-2.1l-1.4-5.2 5.2 8.2 -1.3-4.9 10.3 14 -5.2-10.6 11 11.2 -9.6-13.1 19.9 13.7L170.8 566.5zM38 178.2l2.4 0.5c0 0 0 0.1-0.1 0.1l-5.1 0.9 -4.3 2 -3.3 2.5c2.5-0.7 4.1-1.6 5.7-1.1 -1.7 0.8-5.7 2.7-5.5 2.8 0.2 0.2 3-0.1 3-0.1l-3.1 1.8 -0.1-0.1 -14.4-10.8c-0.2-0.1-0.4-0.1-0.5-0.1 -0.4 0-0.2 0 0.4 0L6.9 172c-0.5-0.8-0.9-1.5-1.3-2.1l1.7 0.4 -0.2-0.9 1.3 1.1 2.3 0.5 1.8 0.9 -3.5-7.7 2.3 0 -11-6.8c0 0 1.6 0.3 3.4 0.7l3.6 2.6 -0.7-1.4 5.5 2.8L4 149.9l7 5.5 11.3 10.8 3.9 2.5 -12.9-17 13.3 12.1 -6.4-9.9 9 7.8 -2.8 1.8c0 0 1.5-0.5 3.5-1.2l3 2.6 7.3 6.6 -2 2.6 -1.9 2.5 4.8-4.2 0.7 0.7 -3 3.4 -3.6 1.2C35.2 177.5 37.1 177.9 38 178.2zM55.7 128.9c-4.5 5-3.4 2.9-13.5 9.3l9.4-3.5 -9.3 7.3 -4.1-5.9 3.9 1.4 -5.1-3.1 -10.8-15.8 15 7.7 -26-24.4 10.6 6.9 20.9 13.8 -2.5 2.2 2.9-1.9 1.5 1 -5.4 5.4 6.2-4.8 0.6 0.4 -5.2 7.7 5.7-7.4 1.3 0.8 -1.4 2.9 8.9-12.9 -6.6 11.2 7-7.8C59.9 119.3 57.3 127.2 55.7 128.9zM82.3 323.5l6.4 5.2 -10.4-15.9 4.4 4.6 9.4 9.8 -0.2 0 0.3 0.1 0.9 1 -4.7-0.2 5 1 -6.4 1.7 6.3-0.3 -7.3 2.9L82.3 323.5zM97.2 334.2l-7.5 5.8 7.1-4.1 -6.2 4.8c0 0 4.6-2.4 4.7-2.5 0.1-0.1-4.2 4.3-4.2 4.3l6.7-5 -2.7 2.7c-1.9 1.3-3.9 2.6-5.6 3.7l-0.9-3.9 -2-5.2 1.7 1 -2.1-2.1 -0.1-0.2c1.6-0.3 7-1.1 7.1-1.2 0.2-0.1 5.4-0.8 5.4-0.8l-6.2 3.8L97.2 334.2zM132.5 449.8l4.5-0.8 -7.2 4.7 6.8-3.3 -4.2 2.7c-1.1 0.6-2.1 1.2-3.1 1.7l-3.6-2c-1.5-2-3.8-5.2-4.1-5.5 -0.4-0.5 8.7 4.8 8.7 4.8l-4-3.9c1.6-0.2 6.7-0.8 6.9-0.9 0.2 0 5.2-0.6 5.2-0.6L132.5 449.8z"/></svg>