<?xml version="1.0" encoding="utf-8"?>
<!-- Generator: Adobe Illustrator 18.1.1, SVG Export Plug-In . SVG Version: 6.00 Build 0)  -->
<svg version="1.1" id="Layer_1" xmlns="http://www.w3.org/2000/svg" xmlns:xlink="http://www.w3.org/1999/xlink" x="0px" y="0px"
	 width="100%" viewBox="0 0 1680 138" enable-background="new 0 0 1680 138" xml:space="preserve">
<path fill-rule="evenodd" clip-rule="evenodd" fill="#161D20" d="M0,78c0,0,33.5,28.6,75.5,17.5c25.1-6.6,69.4-4.9,93-8.9
	c16.4-2.8,29.6,8.2,43.8,8.6c28,0.7,50.1-14.4,56.3-12.5c42.7,12.8,16.6-9.4,58.5,5.3c14.9,5.2,34,4.1,50.1,9.9
	c14.1,5,28.3-2.1,29.6-11.4c1.4-9.3,6.8,4.8,15,10.6c25.7,18.3,27.3-10.7,39.8,18.7c2.4,5.7,23.1,2.6,34.2,3.8
	c12.8,1.4,16.3,0.2,22.8,3c3.7,1.6,8.6,2.5,10.6,2.3c8.5-1.1,15.6-10.9,18-8.1c1.5,1.8,3.3,3.1,3.3,3.1s7.5-6.5,9.9-7.6
	c7.7,0.9,6.3-10.1,14.4,3c2.9,2.9,0.5,9.5,3.8,9.5c2.7,0,19.3-1.6,23.7,0c15.5,5.5,17.6-11.4,27.2-21.7c1.1-1.2,12.3,2.8,15.2-6.8
	c2.9-9.7,13.1,15.2,16.7,10.6c16,11.5,22.3,16,25.1,16c17.4,0,8.7,8.1,19,8.1c3,0,8.5,0.4,8.5-2.7c0-1.1-0.7-3.6-0.2-3.2
	c1.1,0.8,5.3-0.3,6.8-1.6c3.9-3.2,6.5-5.6,6.9-3c0.3,2,2,6.8,3.4,6.7c4.6-0.5,14.7-9.3,26.3-5.1c26.1,9.3,28.9,0.1,28.9,0.1
	s4-16.3,16.7-13.6c7.9,1.6,23.1-31.1,101.1-16c0.9,0.2-2.8-2-1.5-3.8c1.6-2.3,4.9-0.2,5.3,2.3c0.4,2.4-4.3-10,3-6.8
	c1.7,0.7,6.3-1.2,6.8,1.5c0.5,2.7,4.9-0.9,6.1,3s5.8-3.2,3-5.3c-0.8-0.7,2.6-2.7,6.1-0.8s0.8-9.7,14.4,0c5.3,3.8,2.1,5.9-0.8,7.6
	c-1.1,0.7,0.8,5.3,0.8,5.3s3.3-3.1,7.6,1.5c0,0,21,10.8,28.9,0c7.9-10.8,42.6-26.2,42.6-26.6c-2.2-8.4,2.3-8.4,2.3-8.4
	s9.6-2.1,10.6,5.3c0.1,0.6-2-12.3,6.8-9.9c4.2,0.9,7.6,5.3,7.6,5.3s4.4-3.2,4.6,5.3c0-0.5,6.8-5,10.6,1.5c0.5,0.9,0.9-5.9,8.4-7.6
	c7.4-1.7,4.9-9,6.8-9.9s4.6-0.8,4.6-0.8s2.5-11.4,8.4-8.4c0.7,0.4,3.3-4.9,9.9-4.6c2,0.1,6.5-8.6,16-0.8c0.5,0.4-1.6-5.8,4.6-6.1
	c3.7-0.2-6-7,9.9-6.8c4,0.1,5.8-4.6,14.4-4.6c1.1,0-0.4-8.7,11.4-3.8c1.6,0.7,11.5,1.2,24.3,12.9c0.6,0.6,1.5,1.6,8.4-1.5
	c2.4-1.1,8.9-1,12.2,1.5c3.3,2.5,15.3-0.6,16.7,9.9c0.3,2.1,6.4-2.1,6.1,4.6c-0.3,6.7,1.3,9,11.4,12.9c8.5,3.3,15.6,11.8,36.6,16.7
	c2,0.5,1.3-5.6,6.8-2.2c3.5,2.2,4.2,3.7,6.8,3.8c11.1,0.2,16.3-5.4,24.3-3c3,0.9,7.5-4.1,12.2-3.8c3.1,0.2,6.2,3.2,9.3,2.4
	c8.9-2.3,25.8-11.8,37.4-13.1c10.5-1.2,19,17.9,26.8,17.1c25-2.6,42.4,24.8,95.6,11.2c17.5-4.5,37.1,0,62.5-7.9
	c24.8-7.7,73.3,5.6,119.7,3.2l0.1,56.8H-0.1L0,78z"/>
</svg>
